<?xml version="1.0" encoding="UTF-8" standalone="no"?>
<!-- Generator: Adobe Illustrator 19.0.0, SVG Export Plug-In . SVG Version: 6.00 Build 0)  -->

<svg
   xmlns:dc="http://purl.org/dc/elements/1.1/"
   xmlns:cc="http://creativecommons.org/ns#"
   xmlns:rdf="http://www.w3.org/1999/02/22-rdf-syntax-ns#"
   xmlns:svg="http://www.w3.org/2000/svg"
   xmlns="http://www.w3.org/2000/svg"
   xmlns:sodipodi="http://sodipodi.sourceforge.net/DTD/sodipodi-0.dtd"
   xmlns:inkscape="http://www.inkscape.org/namespaces/inkscape"
   version="1.1"
   id="Layer_1"
   x="0px"
   y="0px"
   viewBox="0 0 512 512"
   style="enable-background:new 0 0 512 512;"
   xml:space="preserve"
   inkscape:version="0.91 r13725"
   sodipodi:docname="marker-activity-cycling-contents.svg"><metadata
     id="metadata81"><rdf:RDF><cc:Work
         rdf:about=""><dc:format>image/svg+xml</dc:format><dc:type
           rdf:resource="http://purl.org/dc/dcmitype/StillImage" /><dc:title /></cc:Work></rdf:RDF></metadata><defs
     id="defs79" /><sodipodi:namedview
     pagecolor="#ffffff"
     bordercolor="#666666"
     borderopacity="1"
     objecttolerance="10"
     gridtolerance="10"
     guidetolerance="10"
     inkscape:pageopacity="0"
     inkscape:pageshadow="2"
     inkscape:window-width="1920"
     inkscape:window-height="1017"
     id="namedview77"
     showgrid="false"
     inkscape:zoom="0.65186405"
     inkscape:cx="-252.73726"
     inkscape:cy="170.65228"
     inkscape:window-x="1912"
     inkscape:window-y="-8"
     inkscape:window-maximized="1"
     inkscape:current-layer="Layer_1" /><path
     style="fill:#e7eced"
     d="m 262.66097,326.71103 c 12.51053,2.11966 22.07817,13.72072 22.07817,27.55241 0,15.39344 -11.77556,27.8874 -26.28387,27.8874 -14.50831,0 -26.28385,-12.49396 -26.28385,-27.8874 0,-11.60107 6.62375,-21.41747 15.98024,-25.65573 3.15404,-1.44973 6.72833,-2.2306 10.30361,-2.2306 1.47195,-0.001 2.83833,0.11111 4.2057,0.33392 z"
     id="path3"
     inkscape:connector-curvature="0" /><path
     style="fill:#ffd311"
     d="m 364.00999,198.20736 c -68.33783,20.30162 -92.72848,89.01625 -101.24445,128.16871 l -0.10565,0.33496 c -1.36637,-0.22297 -2.73375,-0.33496 -4.2057,-0.33496 -3.5743,0 -7.14957,0.78085 -10.30361,2.23058 l -0.21012,-2.23058 -16.92637,-49.75075 1.15625,-0.44593 c 30.59415,-74.29169 97.67019,-113.7791 119.32808,-124.93425 l 12.51153,46.96222 z"
     id="path5"
     inkscape:connector-curvature="0" /><g
     id="g7"
     transform="matrix(0.9959026,0,0,1.0566606,3.5042101,-31.973475)"><path
       style="fill:#595e62"
       d="m 234.887,154.392 0,10.557 0,10.557 c 0,5.806 -4.751,10.557 -10.557,10.557 l -63.34,0 0,-10.557 0,-10.557 c 0,-5.806 4.751,-10.557 10.557,-10.557 l 63.34,0 z"
       id="path9"
       inkscape:connector-curvature="0" /><path
       style="fill:#595e62"
       d="m 403.794,296.907 c 37.899,0 68.619,30.72 68.619,68.619 0,37.899 -30.72,68.619 -68.619,68.619 -37.899,0 -68.619,-30.72 -68.619,-68.619 0,-31.459 21.113,-57.956 49.933,-65.979 5.912,-1.795 12.246,-2.64 18.686,-2.64 z"
       id="path11"
       inkscape:connector-curvature="0" /><path
       style="fill:#595e62"
       d="m 160.356,320.871 c 10.24,12.035 16.468,27.659 16.468,44.655 l -63.34,0 46.872,-44.655 z"
       id="path13"
       inkscape:connector-curvature="0" /><path
       style="fill:#595e62"
       d="m 108.206,434.144 c -37.899,0 -68.619,-30.72 -68.619,-68.619 0,-37.899 30.72,-68.619 68.619,-68.619 20.902,0 39.588,9.29 52.15,23.964 l -46.872,44.655 63.34,0 c 10e-4,37.899 -30.719,68.619 -68.618,68.619 z"
       id="path15"
       inkscape:connector-curvature="0" /></g><g
     id="g17"
     transform="matrix(0.9959026,0,0,1.0566606,3.5042101,-31.973475)"><path
       style="fill:#afb6bb"
       d="m 183.264,299.019 c 15.729,17.63 25.231,40.96 25.231,66.507 l -31.67,0 c 0,-16.996 -6.228,-32.62 -16.468,-44.655 l 22.907,-21.852 z"
       id="path19"
       inkscape:connector-curvature="0" /><path
       style="fill:#afb6bb"
       d="m 403.794,434.144 c 37.899,0 68.619,-30.72 68.619,-68.619 0,-37.899 -30.72,-68.619 -68.619,-68.619 -6.44,0 -12.774,0.845 -18.685,2.639 -28.82,8.023 -49.933,34.52 -49.933,65.979 -10e-4,37.9 30.719,68.62 68.618,68.62 z M 303.505,365.526 c 0,-45.922 30.826,-84.559 72.947,-96.488 8.657,-2.428 17.841,-3.8 27.342,-3.8 55.423,0 100.289,44.866 100.289,100.289 0,55.423 -44.866,100.289 -100.289,100.289 -55.423,0 -100.289,-44.868 -100.289,-100.29 z"
       id="path21"
       inkscape:connector-curvature="0" /><path
       style="fill:#afb6bb"
       d="m 39.588,365.526 c 0,37.899 30.72,68.619 68.619,68.619 37.899,0 68.619,-30.72 68.619,-68.619 l 31.67,0 c 0,55.423 -44.866,100.289 -100.289,100.289 -55.423,0 -100.289,-44.867 -100.289,-100.289 0,-55.422 44.866,-100.289 100.289,-100.289 29.875,0 56.689,13.09 75.058,33.781 l -22.908,21.852 c -12.562,-14.674 -31.248,-23.964 -52.15,-23.964 -37.899,10e-4 -68.619,30.721 -68.619,68.62 z"
       id="path23"
       inkscape:connector-curvature="0" /></g><g
     id="g25"
     transform="matrix(0.9959026,0,0,1.0566606,3.5042101,-31.973475)"><path
       style="fill:#959ba0"
       d="m 83.843,429.611 c -25.853,-9.837 -44.256,-34.78 -44.256,-64.086 0,-29.306 18.402,-54.249 44.256,-64.086 12.953,-15.577 30.567,-27.073 50.678,-32.563 -8.402,-2.288 -17.188,-3.641 -26.316,-3.641 -55.423,0 -100.289,44.866 -100.289,100.289 0,55.423 44.866,100.289 100.289,100.289 9.151,0 17.971,-1.329 26.392,-3.621 -20.142,-5.481 -37.785,-16.983 -50.754,-32.581 z"
       id="path27"
       inkscape:connector-curvature="0" /><path
       style="fill:#959ba0"
       d="m 379.431,429.611 c -25.853,-9.837 -44.256,-34.78 -44.256,-64.086 0,-29.306 18.402,-54.249 44.256,-64.086 12.953,-15.577 30.567,-27.073 50.679,-32.563 -8.402,-2.288 -17.188,-3.641 -26.316,-3.641 -55.423,0 -100.289,44.866 -100.289,100.289 0,55.423 44.866,100.289 100.289,100.289 9.151,0 17.971,-1.329 26.392,-3.621 -20.144,-5.481 -37.786,-16.983 -50.755,-32.581 z"
       id="path29"
       inkscape:connector-curvature="0" /></g><path
     d="m 405.64369,239.92641 c -7.24616,0 -14.51526,0.79674 -21.7037,2.36273 l -10.11438,-37.97533 c 10.10244,-2.26442 20.76257,-3.42888 31.81808,-3.42888 l 0,-16.73221 c -12.5165,0 -24.61274,1.36733 -36.11242,4.03223 l -33.1745,-124.395391 40.3749,-16.065473 0,-39.2612754 -15.77012,0 0,27.6675984 -43.73307,17.40002 24.91149,93.353861 C 318.2662,160.10312 263.9188,195.3734 232.55486,256.38392 l -3.68884,-10.92481 -20.35029,-59.97817 0,-12.48338 18.39832,0 c 10.14424,0 18.39831,-8.75762 18.39831,-19.52075 l 0,-30.67593 -70.96603,0 c -10.14427,0 -18.39832,8.75761 -18.39832,19.52076 l 0,30.67592 36.79662,0 0,15.404 19.53861,57.58589 -26.00997,26.20622 c -20.04952,-20.5996 -46.95184,-32.26619 -75.00742,-32.26619 -59.419534,-0.001 -107.7616399,51.28925 -107.7616399,114.33596 0,63.04669 48.3421059,114.33701 107.7626499,114.33701 56.76843,0 103.42149,-46.8164 107.47282,-105.97141 l 6.47536,0 c 2.96879,13.28115 12.83817,23.75054 25.35568,26.90254 l 0,17.71707 -13.14192,0 0,16.73219 42.05397,0 0,-16.73219 -13.14192,0 0,-17.71707 c 15.05006,-3.78812 26.28385,-18.15764 26.28385,-35.26814 0,-14.53542 -8.38452,-27.53869 -20.49171,-33.22247 9.06472,-36.43681 31.62889,-91.89354 86.49514,-112.26383 l 10.1393,38.07358 c -42.1028,16.29795 -70.88638,59.31777 -70.88638,107.41272 0,63.04565 48.3421,114.33701 107.76264,114.33701 59.42055,0 107.76263,-51.29136 107.76263,-114.33701 0,-63.04566 -48.34208,-114.33703 -107.76263,-114.33703 z M 171.71913,142.32059 c 0,-1.51104 1.20404,-2.78853 2.62819,-2.78853 l 55.1959,0 0,13.94369 c 0,1.51102 -1.20403,2.78855 -2.62818,2.78855 l -55.19591,0 0,-13.94371 z m 223.49447,203.57622 -10.59638,0 0,16.73223 36.7966,0 0,-16.73223 -9.80864,0 -14.71943,-55.11542 c 2.8164,-0.43536 5.74136,-0.65937 8.75895,-0.65937 33.33386,0 60.45228,28.77286 60.45228,64.14038 0,35.36747 -27.11842,64.14033 -60.45228,64.14033 -33.33385,0 -60.45229,-28.77286 -60.45229,-64.14033 0,-25.82799 14.68559,-48.96673 36.53071,-58.88242 l 13.49048,50.51683 z m -208.15059,0 c -1.33849,-13.60241 -5.91269,-26.66589 -13.30029,-37.94364 l 11.53056,-11.6687 c 10.08551,14.42237 16.17745,31.58044 17.6225,49.61234 l -15.85277,0 z m -96.822662,0 0,16.73223 80.947962,0 c -3.87804,31.42507 -29.2616,55.77476 -59.92145,55.77476 -33.333867,0 -60.452299,-28.77288 -60.452299,-64.14036 0,-35.36749 27.118432,-64.14035 60.452299,-64.14035 15.20444,0 29.68585,6.02826 40.73837,16.71849 l -38.63704,39.05523 -23.127842,0 z m 45.990782,0 25.94825,-26.22949 c 4.77535,7.9503 7.85766,16.90975 9.01691,26.22949 l -34.96516,0 z m -24.96427,105.97142 c -50.725318,0 -91.992524,-43.78483 -91.992524,-97.60479 0,-53.81994 41.267206,-97.60478 91.992524,-97.60478 23.72736,0 46.49469,9.77938 63.57343,27.07903 l -11.38715,11.52499 c -14.04918,-13.99228 -32.65266,-21.87286 -52.18628,-21.87286 -42.030091,0 -76.222412,36.27937 -76.222412,80.87258 0,44.59318 34.193319,80.87255 76.222412,80.87255 39.36702,0 71.85634,-31.82872 75.81607,-72.50698 l 15.83682,0 c -4.01446,49.9198 -43.58467,89.24026 -91.65289,89.24026 z m 113.94917,-105.97142 -6.49828,0 c -1.52869,-22.33889 -9.15135,-43.59253 -21.94571,-61.20708 l 21.33425,-21.49351 5.49239,16.26939 15.33191,45.06342 c -6.90457,5.09837 -11.78351,12.70949 -13.71456,21.36778 z m 41.12482,25.97692 0,-23.18735 -15.77013,0 0,23.18735 c -6.20547,-3.14144 -10.51376,-9.8428 -10.51376,-17.61029 0,-7.83197 4.39294,-14.88201 11.2308,-17.97909 2.19396,-1.00803 4.67179,-1.54166 7.16851,-1.54166 1.05167,0 2.00077,0.0752 2.9867,0.2346 8.78786,1.50256 15.41161,9.78784 15.41161,19.2872 -10e-4,7.7654 -4.30927,14.46888 -10.51373,17.60924 z m -9.77581,-53.80512 c -0.99091,0.0581 -1.97885,0.16588 -2.9598,0.3138 l -13.65981,-40.15096 c 26.5169,-63.09745 80.9151,-100.22322 106.58449,-114.88227 l 7.80188,29.29591 c -62.95099,22.79641 -88.0059,85.31901 -97.76676,125.42352 z m 149.07865,133.79962 c -50.7253,0 -91.99251,-43.78483 -91.99251,-97.60479 0,-40.64549 24.07893,-77.05698 59.41954,-91.27433 l 4.3262,16.20071 c -28.59734,12.02903 -47.97561,41.77931 -47.97561,75.07467 0,44.59424 34.19331,80.87258 76.22238,80.87258 42.0291,0 76.22242,-36.27936 76.22242,-80.87258 0,-44.59318 -34.19332,-80.87257 -76.22242,-80.87257 -4.50843,0 -8.88343,0.39943 -13.08715,1.18347 l -4.30727,-16.12781 c 5.77125,-1.17922 11.59331,-1.78787 17.39442,-1.78787 50.72532,0 91.99253,43.78484 91.99253,97.60478 0,53.81996 -41.26721,97.60374 -91.99253,97.60374 z"
     id="path31"
     inkscape:connector-curvature="0" /><rect
     x="395.12997"
     y="373.78421"
     width="21.026493"
     height="16.73222"
     id="rect33" /><rect
     x="95.496727"
     y="373.78421"
     width="21.026493"
     height="16.73222"
     id="rect35" /><rect
     x="95.496727"
     y="318.01053"
     width="21.026493"
     height="16.73222"
     id="rect37" /><g
     id="g39"
     transform="matrix(0.9959026,0,0,1.0566606,3.5042101,-31.973475)"><rect
       x="60.701"
       y="357.608"
       style="fill:#ffffff"
       width="21.113001"
       height="15.835"
       id="rect41" /><rect
       x="424.90701"
       y="357.608"
       style="fill:#ffffff"
       width="21.113001"
       height="15.835"
       id="rect43" /><rect
       x="356.289"
       y="357.608"
       style="fill:#ffffff"
       width="21.113001"
       height="15.835"
       id="rect45" /></g><g
     id="g47" /><g
     id="g49" /><g
     id="g51" /><g
     id="g53" /><g
     id="g55" /><g
     id="g57" /><g
     id="g59" /><g
     id="g61" /><g
     id="g63" /><g
     id="g65" /><g
     id="g67" /><g
     id="g69" /><g
     id="g71" /><g
     id="g73" /><g
     id="g75" /><circle
     style="opacity:1;fill:#07ff00;fill-opacity:1;fill-rule:nonzero;stroke:#ffffff;stroke-width:30;stroke-linecap:butt;stroke-linejoin:miter;stroke-miterlimit:4;stroke-dasharray:none;stroke-opacity:1"
     id="path8111"
     cx="412.87851"
     cy="412.87851"
     r="84.12149" /></svg>