<?xml version="1.0" encoding="UTF-8" standalone="no"?>
<!-- Generator: Adobe Illustrator 19.0.0, SVG Export Plug-In . SVG Version: 6.00 Build 0)  -->

<svg
   xmlns:dc="http://purl.org/dc/elements/1.1/"
   xmlns:cc="http://creativecommons.org/ns#"
   xmlns:rdf="http://www.w3.org/1999/02/22-rdf-syntax-ns#"
   xmlns:svg="http://www.w3.org/2000/svg"
   xmlns="http://www.w3.org/2000/svg"
   xmlns:sodipodi="http://sodipodi.sourceforge.net/DTD/sodipodi-0.dtd"
   xmlns:inkscape="http://www.inkscape.org/namespaces/inkscape"
   version="1.1"
   id="Layer_1"
   x="0px"
   y="0px"
   viewBox="0 0 512.00001 512.00001"
   xml:space="preserve"
   inkscape:version="0.91 r13725"
   sodipodi:docname="marker-areainterest-historic.svg"
   width="512"
   height="512"><metadata
     id="metadata77"><rdf:RDF><cc:Work
         rdf:about=""><dc:format>image/svg+xml</dc:format><dc:type
           rdf:resource="http://purl.org/dc/dcmitype/StillImage" /><dc:title></dc:title></cc:Work></rdf:RDF></metadata><defs
     id="defs75" /><sodipodi:namedview
     pagecolor="#ffffff"
     bordercolor="#666666"
     borderopacity="1"
     objecttolerance="10"
     gridtolerance="10"
     guidetolerance="10"
     inkscape:pageopacity="0"
     inkscape:pageshadow="2"
     inkscape:window-width="1920"
     inkscape:window-height="1017"
     id="namedview73"
     showgrid="false"
     inkscape:zoom="0.7528861"
     inkscape:cx="143.28272"
     inkscape:cy="307.92324"
     inkscape:window-x="1912"
     inkscape:window-y="-8"
     inkscape:window-maximized="1"
     inkscape:current-layer="Layer_1" /><g
     id="g3"
     transform="matrix(1.1218324,0,0,1.1218324,7.3458485,-8.4043908)"><path
       style="fill:#f8a805"
       d="m 137.7,38.308 c -1.793,0.538 -3.66,0.812 -5.55,0.812 -7.21,0 -14.212,-3.628 -21.649,-7.482 L 110.41,31.591 C 103.016,27.77 96.033,24.16 88.849,24.16 c -4.662,0 -8.863,1.548 -12.846,4.733 L 73,31.294 73,65.07 83.305,61.971 c 1.789,-0.538 3.655,-0.812 5.544,-0.812 7.211,0 14.225,3.635 21.702,7.51 7.402,3.831 14.395,7.45 21.599,7.45 4.649,0 8.848,-1.545 12.836,-4.723 l 3.014,-2.401 0,-33.78 -10.3,3.093 z"
       id="path5"
       inkscape:connector-curvature="0" /><polygon
       style="fill:#3e81c8"
       points="29.693,146.14 116.294,146.14 73.001,88.137 "
       id="polygon7" /><rect
       x="48"
       y="146.14"
       style="fill:#efefef"
       width="50"
       height="60"
       id="rect9" /><rect
       x="138"
       y="189.14"
       style="fill:#efefef"
       width="32"
       height="40"
       id="rect11" /><rect
       x="202"
       y="189.14"
       style="fill:#efefef"
       width="32"
       height="40"
       id="rect13" /><rect
       x="266"
       y="189.14"
       style="fill:#efefef"
       width="32"
       height="40"
       id="rect15" /><path
       style="fill:#f8a805"
       d="m 424.998,38.308 c -1.792,0.539 -3.658,0.812 -5.548,0.812 -7.21,0 -14.212,-3.628 -21.697,-7.508 -7.403,-3.832 -14.396,-7.452 -21.603,-7.452 -2.076,0 -4.007,0.295 -5.902,0.902 -2.397,0.769 -4.736,2.06 -6.953,3.837 l -2.995,2.401 0,33.769 10.304,-3.098 c 1.791,-0.538 3.657,-0.812 5.547,-0.812 7.21,0 14.224,3.635 21.701,7.51 7.402,3.831 14.395,7.45 21.599,7.45 4.662,0 8.863,-1.548 12.846,-4.731 l 3.004,-2.401 0,-33.773 -10.303,3.094 z"
       id="path17"
       inkscape:connector-curvature="0" /><polygon
       style="fill:#3e81c8"
       points="316.993,146.14 403.594,146.14 360.3,88.137 "
       id="polygon19" /><rect
       x="335.29901"
       y="146.14"
       style="fill:#efefef"
       width="50"
       height="60"
       id="rect21" /><path
       style="fill:#f8a805"
       d="m 218.349,304.14 -0.699,0 c -19.105,0 -34.649,15.544 -34.649,34.649 l 0,80.351 70,0 0,-80.35 C 253,319.684 237.456,304.14 218.349,304.14 Z"
       id="path23"
       inkscape:connector-curvature="0" /><rect
       x="298"
       y="206.14"
       style="fill:#efefef"
       width="130"
       height="200"
       id="rect25" /><path
       style="fill:#efefef"
       d="m 138,229.14 0,190 45,0 0,-80.35 c 0,-19.105 15.544,-34.649 34.649,-34.649 l 0.699,0 c 19.106,0 34.651,15.544 34.651,34.649 l 0,80.351 45,0 0,-190 L 138,229.14 l 0,0 z"
       id="path27"
       inkscape:connector-curvature="0" /><rect
       x="8"
       y="206.14"
       style="fill:#efefef"
       width="130"
       height="200"
       id="rect29" /><rect
       x="43.5"
       y="321.14001"
       style="fill:#3e81c8"
       width="43"
       height="43"
       id="rect31" /><rect
       x="338"
       y="247.14"
       style="fill:#3e81c8"
       width="43"
       height="43"
       id="rect33" /><g
       id="g35"><path
         d="m 438.3,24.22 c -3.03,-1.22 -6.49,-0.48 -8.76,1.86 -4.3,4.46 -7.65,5.04 -10.09,5.04 -5.27,0 -11.44,-3.2 -17.97,-6.58 -7.95,-4.12 -16.17,-8.38 -25.33,-8.38 -7.98,0 -15.25,3.34 -21.61,9.92 -1.44,1.5 -2.24,3.49 -2.24,5.56 l 0,53.84 -41.71,55.87 c -1.81,2.43 -2.1,5.67 -0.74,8.38 1.35,2.7 4.12,4.41 7.15,4.41 l 10.3,0 0,44 -21.3,0 0,-9 c 0,-4.42 -3.58,-8 -8,-8 l -32,0 c -4.42,0 -8,3.58 -8,8 l 0,32 -16,0 0,-32 c 0,-4.42 -3.58,-8 -8,-8 l -32,0 c -4.42,0 -8,3.58 -8,8 l 0,32 -16,0 0,-32 c 0,-4.42 -3.58,-8 -8,-8 l -32,0 c -4.42,0 -8,3.58 -8,8 l 0,9 -24,0 0,-44 10.3,0 c 0.01,0 0.01,0 0.02,0 4.42,0 8,-3.58 8,-8 0,-1.98 -0.72,-3.79 -1.91,-5.18 L 81,85.48 81,72.14 c 3.24,-2.59 5.85,-2.98 7.85,-2.98 5.26,0 11.43,3.2 17.97,6.58 7.95,4.12 16.16,8.38 25.33,8.38 7.98,0 15.25,-3.34 21.6,-9.92 1.44,-1.5 2.25,-3.49 2.25,-5.56 l 0,-37 c 0,-3.26 -1.98,-6.2 -5.01,-7.42 -3.02,-1.22 -6.48,-0.48 -8.75,1.86 -4.3,4.46 -7.65,5.04 -10.09,5.04 -5.27,0 -11.44,-3.2 -17.97,-6.58 -7.95,-4.12 -16.17,-8.38 -25.33,-8.38 -7.99,0 -15.25,3.34 -21.61,9.92 C 65.8,27.58 65,29.57 65,31.64 l 0,53.84 -41.71,55.87 c -1.82,2.43 -2.1,5.67 -0.75,8.38 1.36,2.7 4.13,4.41 7.16,4.41 l 10.3,0 0,44 -32,0 c -4.42,0 -8,3.58 -8,8 l 0,200 c 0,4.42 3.58,8 8,8 l 122,0 0,5 c 0,4.42 3.58,8 8,8 l 160,0 c 4.42,0 8,-3.58 8,-8 l 0,-5 122,0 c 4.42,0 8,-3.58 8,-8 l 0,-200 c 0,-4.42 -3.58,-8 -8,-8 l -34.7,0 0,-44 10.3,0 c 0.01,0 0.01,0 0.02,0 4.42,0 8,-3.58 8,-8 0,-1.98 -0.72,-3.79 -1.91,-5.18 l -41.41,-55.48 0,-13.34 c 3.24,-2.59 5.85,-2.98 7.85,-2.98 5.27,0 11.44,3.2 17.97,6.58 7.95,4.12 16.16,8.38 25.33,8.38 7.98,0 15.25,-3.34 21.61,-9.92 1.43,-1.5 2.24,-3.49 2.24,-5.56 l 0,-37 c 0,-3.26 -1.98,-6.2 -5,-7.42 z M 81,35.14 c 3.24,-2.59 5.85,-2.98 7.85,-2.98 5.26,0 11.43,3.2 17.97,6.58 7.95,4.12 16.16,8.38 25.33,8.38 2.7,0 5.32,-0.39 7.85,-1.15 l 0,19.17 c -3.25,2.59 -5.85,2.98 -7.85,2.98 -5.27,0 -11.44,-3.2 -17.97,-6.58 -7.95,-4.12 -16.17,-8.38 -25.33,-8.38 -2.7,0 -5.32,0.39 -7.85,1.15 0,0 0,-19.17 0,-19.17 z m -8,66.37 27.34,36.63 -54.69,0 L 73,101.51 Z m 17,52.63 0,44 -34,0 0,-44 34,0 z m 40,244 -114,0 0,-184 114,0 0,184 z m 80,-201 16,0 0,24 -16,0 0,-24 z m -64,0 16,0 0,24 -16,0 0,-24 z m 99,214 -54,0 0,-72.35 c 0,-14.69 11.95,-26.65 26.65,-26.65 l 0.7,0 c 14.691,0 26.65,11.96 26.65,26.65 l 0,72.35 0,0 z m 45,0 -29,0 0,-72.35 c 0,-23.52 -19.14,-42.65 -42.65,-42.65 l -0.7,0 c -23.52,0 -42.65,19.13 -42.65,42.65 l 0,72.35 -29,0 0,-174 144,0 0,174 z m 0,-190 -16,0 0,-24 16,0 0,24 z m 130,-7 0,184 -114,0 0,-184 114,0 0,0 z m -76.7,-16 0,-44 34,0 0,44 -34,0 z m 44.34,-60 -54.69,0 27.35,-36.63 27.34,36.63 z m 39.66,-73 c -3.24,2.59 -5.85,2.98 -7.85,2.98 -5.27,0 -11.44,-3.2 -17.97,-6.58 -7.95,-4.12 -16.17,-8.38 -25.33,-8.38 -2.7,0 -5.32,0.39 -7.85,1.15 l 0,-19.17 c 1.62,-1.3 3.08,-2.04 4.39,-2.46 1.31,-0.42 2.46,-0.52 3.46,-0.52 5.27,0 11.44,3.2 17.97,6.58 7.95,4.12 16.16,8.38 25.33,8.38 2.7,0 5.32,-0.39 7.85,-1.15 l 0,19.17 z"
         id="path37"
         inkscape:connector-curvature="0" /><path
         d="m 86.5,313.14 -43,0 c -4.42,0 -8,3.58 -8,8 l 0,43 c 0,4.42 3.58,8 8,8 l 43,0 c 4.42,0 8,-3.58 8,-8 l 0,-43 c 0,-4.42 -3.58,-8 -8,-8 z m -8,43 -27,0 0,-27 27,0 0,27 z"
         id="path39"
         inkscape:connector-curvature="0" /><path
         d="m 381,239.14 -43,0 c -4.42,0 -8,3.58 -8,8 l 0,43 c 0,4.42 3.58,8 8,8 l 43,0 c 4.42,0 8,-3.58 8,-8 l 0,-43 c 0,-4.42 -3.58,-8 -8,-8 z m -8,43 -27,0 0,-27 27,0 0,27 z"
         id="path41"
         inkscape:connector-curvature="0" /></g></g><g
     id="g43"
     transform="translate(0,68.700012)" /><g
     id="g45"
     transform="translate(0,68.700012)" /><g
     id="g47"
     transform="translate(0,68.700012)" /><g
     id="g49"
     transform="translate(0,68.700012)" /><g
     id="g51"
     transform="translate(0,68.700012)" /><g
     id="g53"
     transform="translate(0,68.700012)" /><g
     id="g55"
     transform="translate(0,68.700012)" /><g
     id="g57"
     transform="translate(0,68.700012)" /><g
     id="g59"
     transform="translate(0,68.700012)" /><g
     id="g61"
     transform="translate(0,68.700012)" /><g
     id="g63"
     transform="translate(0,68.700012)" /><g
     id="g65"
     transform="translate(0,68.700012)" /><g
     id="g67"
     transform="translate(0,68.700012)" /><g
     id="g69"
     transform="translate(0,68.700012)" /><g
     id="g71"
     transform="translate(0,68.700012)" /></svg>