<?xml version="1.0" encoding="UTF-8" standalone="no"?>
<!-- Generator: Adobe Illustrator 19.0.0, SVG Export Plug-In . SVG Version: 6.00 Build 0)  -->

<svg
   xmlns:dc="http://purl.org/dc/elements/1.1/"
   xmlns:cc="http://creativecommons.org/ns#"
   xmlns:rdf="http://www.w3.org/1999/02/22-rdf-syntax-ns#"
   xmlns:svg="http://www.w3.org/2000/svg"
   xmlns="http://www.w3.org/2000/svg"
   xmlns:sodipodi="http://sodipodi.sourceforge.net/DTD/sodipodi-0.dtd"
   xmlns:inkscape="http://www.inkscape.org/namespaces/inkscape"
   version="1.1"
   id="Layer_1"
   x="0px"
   y="0px"
   viewBox="0 0 511.999 511.999"
   style="enable-background:new 0 0 511.999 511.999;"
   xml:space="preserve"
   inkscape:version="0.91 r13725"
   sodipodi:docname="marker-activity-twitching-contents.svg"><metadata
     id="metadata93"><rdf:RDF><cc:Work
         rdf:about=""><dc:format>image/svg+xml</dc:format><dc:type
           rdf:resource="http://purl.org/dc/dcmitype/StillImage" /><dc:title /></cc:Work></rdf:RDF></metadata><defs
     id="defs91" /><sodipodi:namedview
     pagecolor="#ffffff"
     bordercolor="#666666"
     borderopacity="1"
     objecttolerance="10"
     gridtolerance="10"
     guidetolerance="10"
     inkscape:pageopacity="0"
     inkscape:pageshadow="2"
     inkscape:window-width="1920"
     inkscape:window-height="1017"
     id="namedview89"
     showgrid="false"
     inkscape:zoom="0.92187681"
     inkscape:cx="62.512775"
     inkscape:cy="131.59427"
     inkscape:window-x="1912"
     inkscape:window-y="-8"
     inkscape:window-maximized="1"
     inkscape:current-layer="Layer_1" /><g
     id="g8153"
     transform="matrix(1.0804992,0,0,1.0723894,6.9047531e-5,-38.30407)"><g
       transform="matrix(0.9260307,0,0,0.9260307,-6.3446452e-5,2.8665323)"
       id="g3"><path
         inkscape:connector-curvature="0"
         id="path5"
         d="m 196.249,285.256 c -10.728,-8.067 -131.424,-94.025 -170.372,90.885 -0.037,0.172 0.182,0.28 0.271,0.131 5.357,-8.944 57.39,-90.668 169.92,-90.435 0.298,0 0.424,-0.398 0.181,-0.581 z"
         style="fill:#ff3502" /><path
         inkscape:connector-curvature="0"
         id="path7"
         d="m 196.36,284.784 c -4.244,-13.146 -54.634,-157.156 -188.696,-30.95 -0.125,0.118 -0.008,0.339 0.147,0.273 9.305,-3.97 96.831,-38.34 188.08,31.038 0.242,0.184 0.565,-0.062 0.469,-0.361 z"
         style="fill:#ff3502" /><path
         inkscape:connector-curvature="0"
         id="path9"
         d="m 196.241,285.73 c 0,0 53.182,-162.442 -134.19,-143.781 -0.167,0.016 -0.199,0.27 -0.035,0.313 9.782,2.635 100.048,29.814 134.225,143.468 z"
         style="fill:#ff3502" /></g><path
       inkscape:connector-curvature="0"
       id="path11"
       d="m 443.05192,209.85106 c -11.56242,-18.25855 -41.01298,-53.73293 -41.01298,-53.73293 6.04606,-10.39099 7.62494,-20.72364 6.09514,-30.08581 -1.08809,-6.66464 -3.75043,-12.83942 -7.51011,-18.19095 C 391.1729,94.387998 376.4842,89.918974 358.9211,92.414627 c -14.66462,2.085421 -24.27867,12.499563 -28.86623,26.921563 -3.10868,9.77055 -3.65319,21.48299 -1.10475,34.01218 6.30997,31.02111 7.20637,50.94743 4.20695,67.5808 -4.19584,23.26467 -22.59885,41.54544 -55.20995,48.74625 -50.55386,11.1633 -96.22292,-2.21599 -96.22292,-2.21599 0,0 -7.4101,33.23617 7.887,73.12031 29.44315,76.76517 168.26904,108.57247 236.61289,40.99168 70.40981,-69.62084 31.56097,-148.45476 16.82783,-171.72036 z"
       style="fill:#d8d8da" /><path
       inkscape:connector-curvature="0"
       id="path13"
       d="m 426.22594,362.83041 c -68.34385,67.58079 -207.16974,35.77442 -236.61288,-40.99168 -6.07291,-15.8342 -8.56116,-30.60994 -9.36032,-42.68353 -0.91677,13.10982 -0.43153,35.89758 9.36032,61.42639 29.44314,76.76517 168.26903,108.57247 236.61288,40.99168 34.48723,-34.10201 42.75391,-70.41167 40.48791,-101.32165 -1.98448,26.31779 -12.7607,55.1618 -40.48791,82.57879 z"
       style="fill:#acabb1" /><path
       inkscape:connector-curvature="0"
       id="path15"
       d="m 426.22594,362.83041 c 27.72721,-27.41699 38.50343,-56.261 40.48791,-82.58064 C 464.3534,248.05538 450.56758,221.72 443.05192,209.85014 431.4895,191.59251 402.03894,156.1172 402.03894,156.1172 c 2.42342,-4.16528 4.11806,-8.32038 5.19411,-12.40788 -3.17351,-3.90044 -5.19411,-6.33405 -5.19411,-6.33405 2.73179,-4.6959 4.54403,-9.37791 5.57656,-13.96547 -1.29922,-5.66453 -3.72913,-10.92716 -6.99153,-15.57028 C 391.1729,94.386146 376.4842,89.917122 358.9211,92.412775 c -14.66462,2.085421 -24.27867,12.499565 -28.86623,26.921565 -0.93344,2.93366 -1.63074,6.04605 -2.0882,9.2992 0.25188,1.96689 0.57322,3.95693 0.98252,5.97105 5.03113,24.7352 6.61742,42.4122 5.53489,56.99533 0.72323,11.35036 0.21391,20.77735 -1.32793,29.3274 -4.19585,23.26466 -22.59885,41.54544 -55.20995,48.74625 -50.55387,11.1633 -96.22293,-2.21599 -96.22293,-2.21599 0,0 -0.95658,4.32271 -1.47238,11.69392 0.80009,12.07451 3.2874,26.85118 9.36031,42.68353 29.445,76.7698 168.27089,108.57617 236.61474,40.99538 z"
       style="fill:#d8d8da" /><path
       inkscape:connector-curvature="0"
       id="path17"
       d="m 402.03894,156.11906 44.79674,-18.75861 -38.43861,-11.27905 -0.26299,-0.0482 c 1.5298,9.36217 -0.79361,17.30288 -6.09514,30.08581 z"
       style="fill:#fece00" /><g
       transform="matrix(0.9260307,0,0,0.9260307,-6.3446452e-5,2.8665323)"
       id="g19"><path
         inkscape:connector-curvature="0"
         id="path21"
         d="m 70.152,141.245 c -2.65,0.197 -5.347,0.429 -8.101,0.703 -0.167,0.017 -0.199,0.27 -0.035,0.313 9.781,2.635 100.047,29.814 134.225,143.468 0,0 1.476,-4.511 3.069,-11.936 C 196.711,170.786 93.601,145.637 70.152,141.245 Z"
         style="fill:#cd2a01" /><path
         inkscape:connector-curvature="0"
         id="path23"
         d="m 28.66,363.94 c -0.573,2.889 -1.997,9.293 -2.512,12.332 0,0 44.705,-88.312 170.23,-91.073 0,0 -3.953,-2.626 -10.685,-6.143 C 96.439,252.193 36.546,337.215 28.66,363.94 Z"
         style="fill:#cd2a01" /><path
         inkscape:connector-curvature="0"
         id="path25"
         d="m 13.608,248.094 c -1.906,1.852 -3.826,3.76 -5.762,5.737 -0.118,0.121 0.02,0.335 0.174,0.264 9.193,-4.256 99.791,-35.938 188.22,31.635 0.001,0 -53.931,-101.692 -182.632,-37.636 z"
         style="fill:#cd2a01" /><path
         inkscape:connector-curvature="0"
         id="path27"
         d="m 384.379,84.424 c -22.38,3.669 -36.073,17.535 -43.689,36.775 4.857,2.939 10.449,4.612 15.732,4.575 4.742,-15.175 14.274,-26.333 30.98,-29.072 20.749,-3.402 34.675,2.941 45.225,16.659 4.69,-2.259 9.447,-6.18 13.053,-10.949 C 430.779,86.779 411.518,79.974 384.379,84.424 Z"
         style="fill:#cd2a01" /></g><path
       inkscape:connector-curvature="0"
       id="path29"
       d="M 418.2204,80.065082 C 416.35723,66.965451 404.81426,57.44956 392.29617,58.700627 c -3.14294,0.313925 -6.06272,1.258476 -8.68246,2.686415 -1.53073,0.834354 -3.41242,0.206505 -4.18103,-1.417753 -4.54774,-9.614976 -14.56276,-15.529534 -25.20378,-13.902499 -10.53637,1.611294 -18.50209,10.12522 -20.37452,20.562512 -0.30559,1.702045 -1.84929,2.827172 -3.47632,2.574365 -2.82254,-0.438938 -5.77566,-0.354669 -8.76303,0.360226 -12.30047,2.948482 -20.42824,15.859202 -18.25114,28.949572 1.1705,7.035055 6.02012,12.892195 12.12359,16.585205 7.05358,-17.816826 19.73279,-30.656241 40.45736,-34.054774 25.1334,-4.119911 42.96967,2.180802 56.76661,16.656514 3.931,-5.194106 6.38498,-11.479076 5.50895,-17.635328 z"
       style="fill:#ff3502" /><path
       inkscape:connector-curvature="0"
       id="path31"
       d="m 343.30822,308.75207 c 33.25932,-37.44405 65.86857,-21.55707 70.02274,9.23623 0.31207,-2.37064 0.44913,-4.62275 0.44913,-6.69428 0,-35.01415 -38.8544,-59.0076 -74.46121,-18.92251 -41.00278,46.16078 -93.25962,40.2314 -93.25962,40.2314 0,0 4.70701,4.6033 13.1376,10.53916 19.08827,1.05567 55.34978,-2.00949 84.11136,-34.39 z"
       style="fill:#ddb201" /><path
       inkscape:connector-curvature="0"
       id="path33"
       d="m 340.5255,369.02463 c 54.70341,-2.10395 70.15609,-30.9035 72.80639,-51.03541 -4.15418,-30.79422 -36.76342,-46.68028 -70.02274,-9.23623 -28.76344,32.38144 -65.02495,35.44661 -84.11229,34.39093 15.96384,11.24109 45.28845,27.26605 81.32864,25.88071 z"
       style="fill:#fece00" /><g
       transform="matrix(0.9260307,0,0,0.9260307,-6.3446452e-5,2.8665323)"
       id="g35"><path
         inkscape:connector-curvature="0"
         id="path37"
         d="m 454.092,240.541 c -12.771,-18.655 -25.686,-34.396 -25.815,-34.553 l 11.751,-9.663 c 0.544,0.661 13.472,16.42 26.617,35.621 l -12.553,8.595 z"
         style="fill:#ffffff" /><rect
         id="rect39"
         height="15.213"
         width="16.172001"
         style="fill:#ffffff"
         transform="matrix(-0.4394,-0.8983,0.8983,-0.4394,449.9596,782.9327)"
         y="243.455"
         x="461.19901" /><path
         inkscape:connector-curvature="0"
         id="path41"
         d="m 226.533,375.626 c -11.511,-19.961 -19.867,-47.277 -19.867,-64.952 l 15.213,0 c 0,14.821 7.833,40.012 17.832,57.351 l -13.178,7.601 z"
         style="fill:#ffffff" /></g><path
       inkscape:connector-curvature="0"
       id="path43"
       d="m 377.96863,264.46187 c -10.62065,0 -26.86045,4.03009 -43.91516,23.23133 -30.55531,34.40019 -67.51504,38.11357 -81.98798,38.11357 -3.29667,0 -5.2117,-0.2028 -5.2117,-0.2028 l -20.38471,-2.31137 14.66462,14.34514 c 1.60666,1.5724 40.00082,38.51269 95.00797,38.51269 1.54555,0 3.11239,-0.0296 4.65423,-0.0898 28.85604,-1.10939 50.55294,-9.40477 64.48693,-24.6565 14.02658,-15.35451 15.54065,-33.16578 15.54065,-40.11102 9.2e-4,-26.26037 -18.82343,-46.83122 -42.85485,-46.83122 z m -37.71353,97.52307 c -1.36312,0.0528 -2.74753,0.0787 -4.11343,0.0787 -30.30065,0 -55.48868,-12.99684 -70.42371,-23.03501 20.23748,-2.4901 51.85494,-11.56612 78.86911,-41.97975 10.75029,-12.10137 22.29326,-18.49839 33.38248,-18.49839 16.13146,0 28.76807,14.38218 28.76807,32.74352 -9.2e-4,11.29109 -4.79591,48.31936 -66.48252,50.69092 z" /><rect
       id="rect45"
       height="14.087706"
       width="14.284949"
       y="368.17917"
       x="80.168266" /><rect
       id="rect47"
       height="14.087706"
       width="14.284949"
       y="421.54446"
       x="167.62723" /><rect
       id="rect49"
       height="14.087706"
       width="14.284949"
       y="139.08936"
       x="259.57468" /><rect
       id="rect51"
       height="14.087706"
       width="14.284949"
       y="117.90084"
       x="368.55087" /><rect
       id="rect53"
       height="14.087706"
       width="14.284949"
       y="84.709122"
       x="80.168266" /><path
       inkscape:connector-curvature="0"
       id="path57"
       d="m 431.17928,386.58124 c 31.72951,-31.37484 45.99687,-68.00399 42.40479,-108.86972 -3.02256,-34.39 -18.19743,-61.54863 -24.58055,-71.63033 -8.54912,-13.49967 -26.20853,-35.65311 -35.52347,-47.11829 l 54.38856,-22.7748 -53.74497,-15.76938 c -0.92047,-3.54762 -2.23081,-6.98227 -3.92081,-10.28357 9.38069,-7.19896 16.67966,-19.20958 14.99336,-31.062773 -2.23173,-15.693443 -15.42304,-27.527189 -30.68403,-27.527189 -0.96862,0 -1.94929,0.04908 -2.91329,0.144461 -2.64845,0.263919 -5.22281,0.874173 -7.68976,1.818724 C 378.18069,44.43605 368.28235,38.753 357.74782,38.753 c -1.52332,0 -3.06424,0.117606 -4.58107,0.349114 -12.09396,1.851135 -21.93952,10.823446 -25.4251,22.798875 -2.60307,-0.07316 -5.2117,0.200949 -7.76384,0.811203 -16.01848,3.839324 -26.36502,20.072642 -23.55823,36.956033 2.20025,13.225575 13.41449,22.404385 24.97042,25.529745 -1.64,9.20104 -1.43257,19.26329 0.66119,29.55334 5.90159,29.01625 7.15081,48.43326 4.17732,64.92679 -3.89118,21.57466 -21.57559,36.88658 -49.79637,43.11877 -12.86072,2.83921 -26.59375,4.28011 -40.81666,4.28011 -19.93929,9.3e-4 -36.42171,-2.85217 -45.15511,-4.74313 4.40606,-17.84646 12.42085,-64.32394 -12.3838,-98.54541 -18.22984,-25.14914 -49.94454,-37.90058 -94.265299,-37.90058 -8.50374,0 -17.602918,0.4769 -27.051209,1.41683 -3.446686,0.34633 -6.158104,3.10683 -6.447952,6.56278 -0.288921,3.45039 1.92244,6.61834 5.285784,7.53788 5.959007,1.60482 42.935413,12.75237 76.114166,49.48801 -9.52886,-4.73942 -20.39768,-7.66568 -32.724998,-7.66568 -29.240345,0 -61.78199,16.67689 -96.7044598,49.55375 -2.17061593,2.03264 -2.86606499,5.13484 -1.77334876,7.90275 1.09179016,2.76142 3.71060496,4.54588 6.67205116,4.54588 l 1.4918355,-0.0111 1.3242239,-0.5658 c 4.130097,-1.76131 26.336313,-10.54749 58.009341,-10.54749 10.043729,0 19.941145,0.86954 29.677432,2.58733 -14.870201,3.12165 -28.17541,10.64565 -39.69338,22.50903 -18.515058,19.06882 -32.283282,49.5269 -40.920371,90.53524 -0.448198,2.13265 0.08334,4.32549 1.455721,6.01735 1.372377,1.69 3.405941,2.65863 5.579335,2.65863 2.504913,0 4.861661,-1.33719 6.151622,-3.49113 4.798691,-8.00924 48.667543,-76.65127 143.287506,-80.17019 -1.32978,12.99314 -1.81039,38.87848 9.49274,68.34848 9.36495,24.41665 29.0181,45.33939 56.83699,60.50684 17.03711,9.28902 36.33003,15.82216 56.25081,19.23551 l 0,50.47145 30.59327,0 0,-14.0877 -16.50557,0 0,-34.48816 c 5.8627,0.55932 11.74578,0.84917 17.61033,0.84917 0.007,0 0.008,0 0.0157,0 5.84603,0 11.59761,-0.288 17.24177,-0.83991 l 0,48.56568 30.5942,0 0,-14.08771 -16.5065,0 0,-36.45042 c 28.32265,-5.22929 53.23751,-17.62884 72.01093,-36.19391 z m -5.37376,-248.05121 -11.22905,4.70238 c 0.0824,-0.3843 0.17039,-0.76953 0.24447,-1.15383 0.50006,-2.05208 0.8927,-4.20696 1.07976,-6.45536 l 9.90482,2.90681 z M 310.31468,97.358705 c -1.57426,-9.46033 4.23288,-18.856763 12.94313,-20.944037 1.20569,-0.288921 2.43453,-0.43616 3.65226,-0.43616 0.79361,0 1.59648,0.06204 2.38546,0.185206 0.50931,0.07871 1.02789,0.119458 1.54091,0.119458 4.89222,0 9.07788,-3.538363 9.95205,-8.410211 1.39183,-7.763841 7.22119,-13.728405 14.50627,-14.843346 0.81306,-0.125014 1.63815,-0.187984 2.45028,-0.187984 6.39424,0 12.40696,3.979154 15.32025,10.138184 1.67149,3.536511 5.25152,5.820103 9.1177,5.820103 1.66686,0 3.3263,-0.424122 4.80055,-1.227917 1.88262,-1.026042 3.90507,-1.652964 6.01364,-1.862247 0.50191,-0.05093 1.01122,-0.07501 1.51313,-0.07501 8.29076,0 15.48601,6.629454 16.73523,15.422115 0.8575,6.032164 -3.59115,13.074628 -9.11492,17.512167 -2.74939,-2.907736 -5.82381,-5.364496 -9.18808,-7.369352 -7.12858,-4.468098 -15.24617,-6.665569 -24.49999,-6.665569 -3.42909,0 -7.0758,0.312998 -10.83826,0.928808 -0.77509,0.126867 -1.53259,0.28244 -2.2873,0.445421 -2.83088,0.581547 -5.52007,1.445534 -8.06573,2.562327 -0.063,0.02685 -0.12779,0.05278 -0.19076,0.08056 -0.59359,0.263919 -1.17699,0.547284 -1.75483,0.840836 -0.3417,0.171315 -0.68063,0.344483 -1.01585,0.525059 -0.35004,0.190762 -0.69731,0.386155 -1.04086,0.587104 -0.63896,0.369486 -1.26311,0.755641 -1.87799,1.160316 -0.0676,0.04538 -0.13613,0.08797 -0.20373,0.134274 -6.81929,4.541255 -12.16063,11.21608 -15.81197,19.88743 -6.91375,-1.78909 -13.87843,-7.33601 -15.04059,-14.327541 z M 88.998895,140.03946 c 36.775455,0.91399 62.879335,11.65687 77.631935,31.96751 15.56102,21.42557 15.78234,49.72784 13.28946,69.51619 -23.9879,-57.27499 -63.49144,-86.9728 -90.921395,-101.4837 z m -53.124529,82.81585 c 22.905369,-16.96488 44.05591,-25.53715 63.112696,-25.53715 35.050258,0 56.528618,29.58483 67.439108,50.8539 -30.72662,-18.6947 -63.73962,-28.15133 -98.419465,-28.15133 -12.069884,0 -22.925742,1.19643 -32.132339,2.83458 z m 3.570774,97.66383 c 7.48418,-22.32197 17.07508,-39.57855 28.650464,-51.5012 12.818117,-13.20149 28.245788,-19.89484 45.855186,-19.89484 17.18158,0 33.65937,6.34609 45.56812,12.47641 -59.01501,6.01364 -98.137029,35.86239 -120.07377,58.91963 z m 288.37892,90.98437 c -59.95308,-0.006 -115.31304,-30.89331 -131.63341,-73.4435 -10.24838,-26.72154 -9.7298,-50.50016 -8.59541,-61.91256 9.48811,2.05764 26.82247,5.01909 48.01932,5.01909 15.24246,0 29.99784,-1.55018 43.85403,-4.61163 34.12886,-7.53512 55.65908,-26.84656 60.6226,-54.37468 3.31056,-18.35763 2.04375,-39.36186 -4.23566,-70.23572 -2.24007,-11.0105 -1.92429,-21.5441 0.91214,-30.46456 l 0.005,-0.0148 c 0.007,-0.0222 0.0148,-0.0454 0.0222,-0.0676 0.17317,-0.55099 0.3593,-1.07883 0.54544,-1.60945 2.34841,-6.54333 6.58778,-13.81267 14.2016,-17.76126 0.0963,-0.0491 0.18891,-0.10465 0.28615,-0.15095 0.12594,-0.063 0.25743,-0.12131 0.38615,-0.18335 1.72797,-0.80843 3.57541,-1.44831 5.55341,-1.907625 0.013,-0.0028 0.0269,-0.0056 0.0407,-0.0083 0.39542,-0.09075 0.80565,-0.161129 1.21125,-0.238916 0.29726,-0.05186 0.59173,-0.105567 0.89547,-0.147239 2.75402,-0.391711 5.42562,-0.590807 7.94257,-0.590807 6.21181,0 11.56982,1.162168 16.15923,3.496687 3.99397,2.18728 7.57216,5.38394 10.92161,9.71036 1.83261,2.62807 3.28741,5.39135 4.37549,8.26112 l 1.90855,7.18137 c 0.59081,3.80506 0.54729,7.6166 -0.1176,11.41703 -0.8288,3.35871 -2.14284,6.56 -3.3226,9.42051 -0.52043,1.26033 -1.00567,2.44194 -1.41405,3.53095 -0.004,0.009 -0.006,0.0194 -0.008,0.0287 -0.13613,0.24355 -0.26577,0.48709 -0.40746,0.73064 l -2.47435,4.25418 3.1448,3.78654 c 0.2917,0.35097 29.29498,35.33641 40.48143,53.0023 13.45615,21.24777 52.08182,95.79417 -15.82772,162.94436 -22.78591,22.53125 -55.96744,34.93914 -93.43464,34.93914 -0.007,0 -0.013,0 -0.0176,0 z" /></g><g
     id="g59" /><g
     id="g61" /><g
     id="g63" /><g
     id="g65" /><g
     id="g67" /><g
     id="g69" /><g
     id="g71" /><g
     id="g73" /><g
     id="g75" /><g
     id="g77" /><g
     id="g79" /><g
     id="g81" /><g
     id="g83" /><g
     id="g85" /><g
     id="g87" /><circle
     style="opacity:1;fill:#07ff00;fill-opacity:1;fill-rule:nonzero;stroke:#ffffff;stroke-width:30;stroke-linecap:butt;stroke-linejoin:miter;stroke-miterlimit:4;stroke-dasharray:none;stroke-opacity:1"
     id="path8111"
     cx="412.8775"
     cy="412.8775"
     r="84.12149" /></svg>