<?xml version="1.0" encoding="UTF-8" standalone="no"?>
<!-- Generator: Adobe Illustrator 19.0.0, SVG Export Plug-In . SVG Version: 6.00 Build 0)  -->

<svg
   xmlns:dc="http://purl.org/dc/elements/1.1/"
   xmlns:cc="http://creativecommons.org/ns#"
   xmlns:rdf="http://www.w3.org/1999/02/22-rdf-syntax-ns#"
   xmlns:svg="http://www.w3.org/2000/svg"
   xmlns="http://www.w3.org/2000/svg"
   xmlns:sodipodi="http://sodipodi.sourceforge.net/DTD/sodipodi-0.dtd"
   xmlns:inkscape="http://www.inkscape.org/namespaces/inkscape"
   version="1.1"
   id="Layer_1"
   x="0px"
   y="0px"
   viewBox="0 0 300 300"
   xml:space="preserve"
   inkscape:version="0.92.2 (5c3e80d, 2017-08-06)"
   sodipodi:docname="marker-noticeadmin.svg"
   width="300"
   height="300"><metadata
     id="metadata47"><rdf:RDF><cc:Work
         rdf:about=""><dc:format>image/svg+xml</dc:format><dc:type
           rdf:resource="http://purl.org/dc/dcmitype/StillImage" /><dc:title /></cc:Work></rdf:RDF></metadata><defs
     id="defs45" /><sodipodi:namedview
     pagecolor="#ffffff"
     bordercolor="#666666"
     borderopacity="1"
     objecttolerance="10"
     gridtolerance="10"
     guidetolerance="10"
     inkscape:pageopacity="0"
     inkscape:pageshadow="2"
     inkscape:window-width="1920"
     inkscape:window-height="1017"
     id="namedview43"
     showgrid="false"
     inkscape:zoom="0.92187502"
     inkscape:cx="-252.92087"
     inkscape:cy="95.272648"
     inkscape:window-x="-8"
     inkscape:window-y="-8"
     inkscape:window-maximized="1"
     inkscape:current-layer="Layer_1" /><path
     inkscape:connector-curvature="0"
     style="fill:#263640;fill-opacity:0.39215686;stroke-width:0.42415038"
     d="M 233.22512,245.41093 H 67.47521 c -20.183621,0 -32.489917,-22.30522 -21.717349,-39.38152 L 128.62709,74.691242 c 10.08121,-15.974775 33.36622,-15.956956 43.43385,-7.11e-4 l 82.44931,130.673109 c 11.49321,17.00037 -0.76091,40.04743 -21.28513,40.04743 z M 140.73234,82.329768 57.864386,213.66794 c -4.766174,7.55497 0.675246,17.42877 9.611252,17.42877 H 233.22554 c 9.12687,0 14.5174,-10.27208 9.38942,-17.76937 -0.0506,-0.0729 -0.0984,-0.14675 -0.14548,-0.22182 L 159.95526,82.329342 c -4.46291,-7.071009 -14.76679,-7.060401 -19.22292,4.26e-4 z"
     id="path843-9-0" /><path
     inkscape:connector-curvature="0"
     style="fill:#000000;fill-opacity:1;stroke-width:0.42415038"
     d="M 232.52582,237.28311 H 66.775912 c -20.183622,0 -32.489917,-22.30521 -21.71735,-39.38151 L 127.92779,66.563438 c 10.08121,-15.974774 33.36622,-15.95696 43.43386,-8.75e-4 l 82.44931,130.673117 c 11.49319,17.00038 -0.76093,40.04743 -21.28514,40.04743 z M 140.03304,74.201963 57.165088,205.54012 c -4.766176,7.55497 0.675246,17.42877 9.611252,17.42877 h 165.74991 c 9.12686,0 14.51739,-10.27208 9.38942,-17.76936 -0.0506,-0.073 -0.0984,-0.14675 -0.14549,-0.22183 L 159.25596,74.201538 c -4.46291,-7.07101 -14.76679,-7.060408 -19.22292,4.25e-4 z"
     id="path843-7" /><path
     inkscape:connector-curvature="0"
     style="fill:#ee7f0f;fill-opacity:1;stroke-width:0.44743127"
     d="m 247.69913,206.2888 c -0.0438,-0.063 -0.0851,-0.12707 -0.12574,-0.19195 L 160.5306,68.142136 c -5.73896,-6.628914 -16.87809,-6.808698 -22.22258,4.47e-4 L 50.891581,206.69015 c -2.805217,8.15425 1.360396,20.14827 11.111061,20.14827 H 236.85026 c 9.01372,0 15.61852,-9.7576 10.84887,-20.54962 z"
     id="path839-2"
     sodipodi:nodetypes="cccccssc" /><path
     sodipodi:nodetypes="ccscscsccsscc"
     inkscape:connector-curvature="0"
     id="path955-9"
     style="font-style:normal;font-variant:normal;font-weight:normal;font-stretch:normal;font-size:242.0508728px;line-height:1.25;font-family:'Arial Rounded MT Bold';-inkscape-font-specification:'Arial Rounded MT Bold, ';letter-spacing:0px;word-spacing:0px;fill:#000000;fill-opacity:1;stroke:none;stroke-width:0.92054266"
     d="m 139.13157,161.0969 -3.20125,-35.66111 c -0.60024,-6.94858 -0.90036,-11.93666 -0.90036,-14.96426 0,-4.11951 1.4339,-7.32082 4.30169,-9.60393 2.93449,-2.332734 6.76933,-3.499103 11.50454,-3.499103 5.73559,0 9.57043,1.488982 11.50453,4.466943 1.93409,2.92833 2.90114,7.17193 2.90114,12.73079 0,3.27576 -0.23342,6.60115 -0.70027,9.97618 l -4.3017,36.70338 c -0.46686,4.36768 -1.46724,7.7179 -3.00118,10.05063 -1.53394,2.33274 -4.06827,3.49911 -7.60299,3.49911 -3.60142,0 -6.10241,-1.11673 -7.50296,-3.35021 -1.40056,-2.2831 -2.40095,-5.73258 -3.00119,-10.34842 z" /><circle
     style="opacity:1;fill:#000000;fill-opacity:1;stroke:none;stroke-width:7.25270224;stroke-linecap:square;stroke-miterlimit:4;stroke-dasharray:none;stroke-opacity:1"
     id="path958-1"
     cx="149.42148"
     cy="195.39723"
     r="9.9878235" /><g
     id="g13"
     transform="translate(0,-212)" /><g
     id="g15"
     transform="translate(0,-212)" /><g
     id="g17"
     transform="translate(0,-212)" /><g
     id="g19"
     transform="translate(0,-212)" /><g
     id="g21"
     transform="translate(0,-212)" /><g
     id="g23"
     transform="translate(0,-212)" /><g
     id="g25"
     transform="translate(0,-212)" /><g
     id="g27"
     transform="translate(0,-212)" /><g
     id="g29"
     transform="translate(0,-212)" /><g
     id="g31"
     transform="translate(0,-212)" /><g
     id="g33"
     transform="translate(0,-212)" /><g
     id="g35"
     transform="translate(0,-212)" /><g
     id="g37"
     transform="translate(0,-212)" /><g
     id="g39"
     transform="translate(0,-212)" /><g
     id="g41"
     transform="translate(0,-212)" /><g
     id="g853"
     transform="matrix(0.59533997,0,0,0.59533997,-274.33789,15.233123)" /><g
     id="g855"
     transform="matrix(0.59533997,0,0,0.59533997,-274.33789,15.233123)" /><g
     id="g857"
     transform="matrix(0.59533997,0,0,0.59533997,-274.33789,15.233123)" /><g
     id="g859"
     transform="matrix(0.59533997,0,0,0.59533997,-274.33789,15.233123)" /><g
     id="g861"
     transform="matrix(0.59533997,0,0,0.59533997,-274.33789,15.233123)" /><g
     id="g863"
     transform="matrix(0.59533997,0,0,0.59533997,-274.33789,15.233123)" /><g
     id="g865"
     transform="matrix(0.59533997,0,0,0.59533997,-274.33789,15.233123)" /><g
     id="g867"
     transform="matrix(0.59533997,0,0,0.59533997,-274.33789,15.233123)" /><g
     id="g869"
     transform="matrix(0.59533997,0,0,0.59533997,-274.33789,15.233123)" /><g
     id="g871"
     transform="matrix(0.59533997,0,0,0.59533997,-274.33789,15.233123)" /><g
     id="g873"
     transform="matrix(0.59533997,0,0,0.59533997,-274.33789,15.233123)" /><g
     id="g875"
     transform="matrix(0.59533997,0,0,0.59533997,-274.33789,15.233123)" /><g
     id="g877"
     transform="matrix(0.59533997,0,0,0.59533997,-274.33789,15.233123)" /><g
     id="g879"
     transform="matrix(0.59533997,0,0,0.59533997,-274.33789,15.233123)" /><g
     id="g881"
     transform="matrix(0.59533997,0,0,0.59533997,-274.33789,15.233123)" /></svg>