<?xml version="1.0" encoding="UTF-8" standalone="no"?>
<!-- Generator: Adobe Illustrator 19.0.0, SVG Export Plug-In . SVG Version: 6.00 Build 0)  -->

<svg
   xmlns:dc="http://purl.org/dc/elements/1.1/"
   xmlns:cc="http://creativecommons.org/ns#"
   xmlns:rdf="http://www.w3.org/1999/02/22-rdf-syntax-ns#"
   xmlns:svg="http://www.w3.org/2000/svg"
   xmlns="http://www.w3.org/2000/svg"
   xmlns:sodipodi="http://sodipodi.sourceforge.net/DTD/sodipodi-0.dtd"
   xmlns:inkscape="http://www.inkscape.org/namespaces/inkscape"
   version="1.1"
   id="Layer_1"
   x="0px"
   y="0px"
   viewBox="0 0 512 512"
   style="enable-background:new 0 0 512 512;"
   xml:space="preserve"
   sodipodi:docname="marker-areainterest-mustvisit-contents.svg"
   inkscape:version="0.91 r13725"><metadata
     id="metadata55"><rdf:RDF><cc:Work
         rdf:about=""><dc:format>image/svg+xml</dc:format><dc:type
           rdf:resource="http://purl.org/dc/dcmitype/StillImage" /><dc:title /></cc:Work></rdf:RDF></metadata><defs
     id="defs53" /><sodipodi:namedview
     pagecolor="#ffffff"
     bordercolor="#666666"
     borderopacity="1"
     objecttolerance="10"
     gridtolerance="10"
     guidetolerance="10"
     inkscape:pageopacity="0"
     inkscape:pageshadow="2"
     inkscape:window-width="1920"
     inkscape:window-height="1017"
     id="namedview51"
     showgrid="false"
     inkscape:zoom="0.5"
     inkscape:cx="-328.4201"
     inkscape:cy="86.056713"
     inkscape:window-x="1912"
     inkscape:window-y="-8"
     inkscape:window-maximized="1"
     inkscape:current-layer="Layer_1" /><g
     id="g20" /><g
     id="g22" /><g
     id="g24" /><g
     id="g26" /><g
     id="g28" /><g
     id="g30" /><g
     id="g32" /><g
     id="g34" /><g
     id="g36" /><g
     id="g38" /><g
     id="g40" /><g
     id="g42" /><g
     id="g44" /><g
     id="g46" /><g
     id="g48" /><g
     id="g8088"
     transform="matrix(0.88332389,0,0,0.91337101,29.868753,0)"><path
       id="path2"
       d="m 398.362,72.008 0,0 c -78.596,-78.596 -206.025,-78.596 -284.621,0 l 0,0 c -78.596,78.596 -78.596,206.025 0,284.621 l 142.31,142.31 142.31,-142.31 c 78.597,-78.596 78.597,-206.025 0.001,-284.621 z"
       style="fill:#e54728"
       inkscape:connector-curvature="0" /><path
       id="path4"
       d="M 136.828,333.541 C 104.982,301.695 87.443,259.354 87.443,214.318 c 0,-45.036 17.538,-87.376 49.385,-119.222 31.846,-31.846 74.187,-49.383 119.223,-49.383 45.035,0 87.376,17.538 119.222,49.383 31.846,31.845 49.385,74.187 49.385,119.222 0,45.037 -17.538,87.378 -49.385,119.222 L 256.05,452.763 136.828,333.541 Z"
       style="fill:#f95428"
       inkscape:connector-curvature="0" /><path
       id="path6"
       d="m 256.05,512 c -3.464,0 -6.786,-1.375 -9.235,-3.825 L 104.505,365.865 C 64.025,325.386 41.732,271.566 41.732,214.319 41.732,157.072 64.025,103.252 104.505,62.773 144.985,22.293 198.805,0 256.052,0 313.299,0 367.119,22.293 407.598,62.773 l 0,0 c 83.561,83.563 83.561,219.528 0,303.091 l -142.312,142.31 c -2.449,2.451 -5.772,3.826 -9.236,3.826 z m 0.002,-485.879 c -50.269,0 -97.53,19.576 -133.075,55.122 -35.545,35.546 -55.123,82.807 -55.123,133.076 0,50.27 19.576,97.53 55.122,133.075 L 256.051,480.469 389.126,347.394 c 73.378,-73.378 73.378,-192.773 0,-266.151 C 353.581,45.698 306.32,26.121 256.052,26.121 Z"
       style="fill:#333333"
       inkscape:connector-curvature="0" /><circle
       id="circle8"
       r="122.978"
       cy="214.32401"
       cx="256.05301"
       style="fill:#e6e6e6" /><ellipse
       id="ellipse16"
       ry="29.385"
       rx="48.973999"
       cy="165.563"
       cx="306.84"
       style="fill:#ffffff"
       transform="matrix(-0.7071,-0.7071,0.7071,-0.7071,406.7381,499.6032)" /><path
       id="path12"
       d="m 296.21,297.141 c -67.921,0 -122.982,-55.061 -122.982,-122.982 0,-23.672 6.695,-45.777 18.283,-64.539 -35.07,21.664 -58.443,60.45 -58.443,104.699 0,67.921 55.061,122.982 122.982,122.982 44.249,0 83.034,-23.373 104.697,-58.443 -18.76,11.589 -40.865,18.283 -64.537,18.283 z"
       style="fill:#c2c2c2;fill-opacity:0.61926605"
       inkscape:connector-curvature="0" /><path
       id="path14"
       d="m 256.05,350.361 c -75.015,0 -136.043,-61.028 -136.043,-136.043 0,-75.015 61.029,-136.042 136.043,-136.042 75.014,0 136.044,61.028 136.044,136.043 0,75.013 -61.029,136.042 -136.044,136.042 z m 0,-245.964 c -60.61,0 -109.922,49.31 -109.922,109.922 0,60.61 49.31,109.922 109.922,109.922 60.612,0 109.923,-49.31 109.923,-109.922 0,-60.612 -49.311,-109.922 -109.923,-109.922 z"
       style="fill:#333333"
       inkscape:connector-curvature="0" /><circle
       r="61"
       cy="214"
       cx="256"
       id="path4664"
       style="fill:#333333;fill-opacity:1;stroke:none;stroke-width:5.94399977;stroke-miterlimit:4;stroke-dasharray:none;stroke-opacity:1" /><ellipse
       id="ellipse16-5"
       ry="29.384718"
       rx="48.97353"
       cy="99.895882"
       cx="-334.04303"
       style="fill:#ffffff;fill-opacity:0.54587157;stroke-width:0.9999904"
       transform="matrix(-0.70710678,-0.70710678,0.70710678,-0.70710678,0,0)" /></g><circle
     style="opacity:1;fill:#07ff00;fill-opacity:1;fill-rule:nonzero;stroke:#ffffff;stroke-width:30;stroke-linecap:butt;stroke-linejoin:miter;stroke-miterlimit:4;stroke-dasharray:none;stroke-opacity:1"
     id="path8111"
     cx="412.87851"
     cy="412.87851"
     r="84.12149" /></svg>