<?xml version="1.0" encoding="UTF-8" standalone="no"?>
<!-- Generator: Adobe Illustrator 19.0.0, SVG Export Plug-In . SVG Version: 6.00 Build 0)  -->

<svg
   xmlns:dc="http://purl.org/dc/elements/1.1/"
   xmlns:cc="http://creativecommons.org/ns#"
   xmlns:rdf="http://www.w3.org/1999/02/22-rdf-syntax-ns#"
   xmlns:svg="http://www.w3.org/2000/svg"
   xmlns="http://www.w3.org/2000/svg"
   xmlns:sodipodi="http://sodipodi.sourceforge.net/DTD/sodipodi-0.dtd"
   xmlns:inkscape="http://www.inkscape.org/namespaces/inkscape"
   version="1.1"
   id="Layer_1"
   x="0px"
   y="0px"
   viewBox="0 0 512.001 512.001"
   style="enable-background:new 0 0 512.001 512.001;"
   xml:space="preserve"
   inkscape:version="0.91 r13725"
   sodipodi:docname="marker-activity-fishing-contents.svg"><metadata
     id="metadata73"><rdf:RDF><cc:Work
         rdf:about=""><dc:format>image/svg+xml</dc:format><dc:type
           rdf:resource="http://purl.org/dc/dcmitype/StillImage" /><dc:title /></cc:Work></rdf:RDF></metadata><defs
     id="defs71" /><sodipodi:namedview
     pagecolor="#ffffff"
     bordercolor="#666666"
     borderopacity="1"
     objecttolerance="10"
     gridtolerance="10"
     guidetolerance="10"
     inkscape:pageopacity="0"
     inkscape:pageshadow="2"
     inkscape:window-width="1920"
     inkscape:window-height="1017"
     id="namedview69"
     showgrid="false"
     inkscape:zoom="0.65186282"
     inkscape:cx="-85.065789"
     inkscape:cy="219.78095"
     inkscape:window-x="1912"
     inkscape:window-y="-8"
     inkscape:window-maximized="1"
     inkscape:current-layer="Layer_1" /><g
     id="g8139"
     transform="translate(-6.5086925,0)"><path
       inkscape:connector-curvature="0"
       id="path3"
       d="m 423.40376,139.96862 c 0,0 -117.14068,-21.54636 -197.17969,58.49356 -44.46479,44.46479 -59.16542,102.78832 -80.41561,143.43399 -5.26982,-3.72589 -10.3047,-7.92986 -15.0224,-12.64847 -24.45961,-24.45961 -35.577862,-57.19644 -33.388581,-89.19285 8.705931,-62.86023 43.992201,-98.14924 43.992201,-98.14924 -42.416284,0 -49.486884,21.20814 -56.556569,28.27782 C 70.694654,156.04498 77.763425,120.69655 77.763425,120.69655 22.785514,175.67446 53.065231,247.36952 53.065231,247.36952 23.78006,290.77943 47.013859,366.80369 63.794078,389.35739 153.465,509.88575 323.42722,459.89702 395.89195,368.12914 c 70.14931,-88.8336 27.51181,-228.16052 27.51181,-228.16052 z"
       style="fill:#d8d7da" /><path
       inkscape:connector-curvature="0"
       id="path5"
       d="m 145.81394,341.90074 c -5.27164,-3.72681 -10.30836,-7.9326 -15.02879,-12.65213 -24.45961,-24.45961 -35.577866,-57.19644 -33.388585,-89.19193 8.705015,-62.86023 43.992195,-98.14924 43.992195,-98.14924 -42.416279,0 -49.486878,21.20814 -56.556563,28.27782 C 70.69374,156.04681 77.762511,120.69929 77.762511,120.69929 22.7846,175.6772 53.064317,247.37226 53.064317,247.37226 23.78006,290.78218 27.354209,349.75472 63.79682,389.36105 c 43.87519,6.20586 65.03854,-14.98035 82.01712,-47.46031 z"
       style="fill:#acabb1" /><path
       inkscape:connector-curvature="0"
       id="path7"
       d="m 130.78515,329.24861 c -0.37753,-0.37752 -0.74408,-0.7651 -1.1143,-1.14628 -16.3972,28.49904 -37.548669,46.29026 -78.219927,40.53871 -2.660045,-2.89131 -5.123557,-5.89689 -7.434414,-8.98108 4.892289,10.6283 11.4711,20.67248 19.779397,29.702 43.875194,6.20495 65.038544,-14.98126 82.018034,-47.46122 -5.27164,-3.72681 -10.30836,-7.93352 -15.02879,-12.65213 z"
       style="fill:#787680" /><path
       inkscape:connector-curvature="0"
       id="path9"
       d="m 302.30135,391.02015 c -29.85923,28.88479 -68.92167,28.95335 -68.92167,28.95335 0,0 0.0667,-30.06033 30.06034,-60.05393 l -6.66566,-6.66657 c 0,0 -50.82147,23.32887 -43.43459,86.74762 71.0954,8.56516 94.86395,-43.94284 94.86395,-43.94284 l -5.90237,-5.03763 z"
       style="fill:#acabb1" /><g
       transform="matrix(0.91410466,0,0,0.91410466,28.497754,0)"
       id="g11"><circle
         id="circle13"
         r="21.874001"
         cy="98.434998"
         cx="344.51199"
         style="fill:#78b9eb" /><circle
         id="circle15"
         r="49.217999"
         cy="71.092003"
         cx="229.67101"
         style="fill:#78b9eb" /></g><path
       inkscape:connector-curvature="0"
       id="path17"
       d="m 423.40376,139.96862 c 0,0 -117.14068,-21.54636 -197.17969,58.49356 -8.62092,8.62092 -16.11383,17.76745 -22.76212,27.20101 0.38667,90.63348 74.2317,164.24907 164.95384,164.24907 2.61343,0 5.2296,-0.0649 7.84302,-0.18922 7.1291,-6.87224 13.70792,-14.09276 19.63131,-21.5939 70.15114,-88.8336 27.51364,-228.16052 27.51364,-228.16052 z"
       style="fill:#acabb1" /><path
       inkscape:connector-curvature="0"
       id="path19"
       d="m 226.22407,198.46309 c -0.14991,0.14991 -0.29068,0.30257 -0.43968,0.45248 -1.53204,8.44633 -2.33554,17.14586 -2.33554,26.03462 0,80.06277 64.90417,144.96785 144.96786,144.96785 9.65477,0 19.08559,-0.95249 28.21292,-2.75328 69.09261,-88.87382 26.77504,-227.19523 26.77504,-227.19523 0,0 -117.14159,-21.54727 -197.1806,58.49356 z"
       style="fill:#d8d7da" /><g
       transform="matrix(0.91410466,0,0,0.91410466,28.497754,0)"
       id="g21"><circle
         id="circle23"
         r="10.937"
         cy="54.686001"
         cx="246.077"
         style="fill:#ffffff" /><path
         inkscape:connector-curvature="0"
         id="path25"
         d="m 243.53,256.956 -14.494,-7.686 c 2.857,-5.388 6.153,-10.641 9.8,-15.612 l 13.23,9.702 c -3.179,4.333 -6.051,8.907 -8.536,13.596 z m 18.393,-25.324 -11.853,-11.343 c 31.947,-33.385 73.266,-43.481 75.01,-43.894 l 3.785,15.964 -1.892,-7.982 1.904,7.979 c -0.381,0.091 -38.461,9.501 -66.954,39.276 z"
         style="fill:#ffffff" /></g><rect
       id="rect27"
       height="14.996801"
       width="19.995127"
       y="172.4614"
       x="343.41776" /><path
       inkscape:connector-curvature="0"
       id="path29"
       d="m 242.0783,411.65789 c 2.22859,-10.21146 8.58253,-28.35461 26.66352,-46.4356 l -10.60361,-10.60453 c -31.81724,31.81724 -32.25236,63.98458 -32.25601,65.33929 l -0.0174,7.52765 7.52765,-0.0128 c 1.7624,-0.003 43.52235,-0.43785 75.34051,-32.25601 l -10.60362,-10.60453 c -19.25927,19.25836 -43.37426,25.2101 -56.05107,27.04653 z" /><path
       inkscape:connector-curvature="0"
       id="path31"
       d="m 493.38853,52.487889 -12.49764,0 0,-52.487889 -14.9968,0 0,52.487889 -12.49764,0 0,14.996801 12.49764,0 0,32.492765 c 0,6.891435 -5.60621,12.497635 -12.49764,12.497635 -6.89144,0 -12.49764,-5.6062 -12.49764,-12.497635 l -14.9968,0 c 0,15.159515 12.3331,27.493525 27.49352,27.493525 15.16043,0 27.49353,-12.33401 27.49353,-27.493525 l 0,-32.492765 12.49764,0 0,-14.996801 z" /><path
       inkscape:connector-curvature="0"
       id="path33"
       d="m 343.42234,117.47342 c 15.16043,0 27.49353,-12.33402 27.49353,-27.493528 0,-15.159512 -12.3331,-27.493526 -27.49353,-27.493526 -15.16042,0 -27.49352,12.334014 -27.49352,27.493526 0,15.159508 12.33219,27.493528 27.49352,27.493528 z m 0,-39.991167 c 6.89144,0 12.49764,5.606204 12.49764,12.497639 0,6.891435 -5.6062,12.497638 -12.49764,12.497638 -6.89143,0 -12.49763,-5.606203 -12.49763,-12.497638 0,-6.891435 5.6062,-12.497639 12.49763,-12.497639 z" /><path
       inkscape:connector-curvature="0"
       id="path35"
       d="m 238.44565,117.47342 c 28.94238,0 52.48789,-23.546424 52.48789,-52.487892 0,-28.941467 -23.54551,-52.487889 -52.48789,-52.487889 -28.94238,0 -52.48789,23.546422 -52.48789,52.487889 0,28.941468 23.54551,52.487892 52.48789,52.487892 z m 0,-89.979894 c 20.67339,0 37.492,16.818611 37.492,37.492002 0,20.673391 -16.81861,37.492002 -37.492,37.492002 -20.67339,0 -37.492,-16.818611 -37.492,-37.492002 0,-20.673391 16.81861,-37.492002 37.492,-37.492002 z" /><path
       inkscape:connector-curvature="0"
       id="path37"
       d="m 430.64621,138.01335 c -0.0338,-0.11152 -0.0576,-0.19196 -0.0722,-0.23767 l -1.33277,-4.35571 -4.48094,-0.8236 c -1.24135,-0.22853 -30.85469,-5.53765 -70.80746,-0.84098 -1.59328,0.18739 -3.22587,0.39946 -4.87766,0.62525 -36.7141,5.00929 -87.13063,19.75745 -128.15382,60.78064 -0.1554,0.1554 -0.3044,0.31263 -0.45888,0.46894 l -1.63899,1.64265 -0.007,0.0402 c -31.53387,32.49093 -48.03803,71.30199 -62.62897,105.63576 -4.41238,10.38057 -8.63646,20.31963 -13.02233,29.46616 -2.46809,-2.0613 -4.83287,-4.22225 -7.07883,-6.46729 -21.89769,-21.89736 -33.27098,-52.17799 -31.22613,-83.12043 8.28544,-59.22484 41.50583,-93.28895 41.83034,-93.61711 l 12.79929,-12.80021 -18.10018,0 c -33.8301,0 -48.006034,13.06804 -55.689998,22.59667 -3.690241,-11.46105 -1.850148,-28.44054 -0.583199,-34.83745 L 89.973121,97.884155 72.460704,115.39657 c -23.97148,23.9724 -36.129073,54.90935 -35.157379,89.46434 0.546634,19.42564 5.065968,34.81825 7.432585,41.63564 -28.473446,47.39724 -4.203967,124.15826 13.042445,147.33813 35.459948,47.66233 85.704625,73.30845 145.301505,74.16679 0.98083,0.0137 1.95709,0.021 2.94067,0.021 71.71974,0 149.43509,-37.48743 194.77011,-94.03578 l 0.0384,-0.008 0.64262,-0.82635 c 0.0996,-0.12524 0.20476,-0.24681 0.30348,-0.37296 29.80804,-37.74978 44.21798,-90.43054 41.66946,-152.35016 -1.84649,-44.90448 -11.76818,-78.98322 -12.79838,-82.41568 z m -6.43712,146.55931 c -0.27698,1.4644 -0.56949,2.93154 -0.87663,4.39959 -0.0155,0.075 -0.0311,0.149 -0.0466,0.22395 -0.30165,1.43606 -0.61976,2.87304 -0.95158,4.31184 -0.0247,0.10786 -0.0503,0.21572 -0.075,0.32359 -0.32725,1.40772 -0.67004,2.81636 -1.02745,4.22591 -0.0347,0.13894 -0.0713,0.2788 -0.10604,0.41774 -0.35376,1.38213 -0.72214,2.76425 -1.10607,4.14638 -0.0457,0.16454 -0.0914,0.32908 -0.13803,0.4927 -0.38118,1.35836 -0.77607,2.71672 -1.1865,4.07325 -0.0567,0.18831 -0.11427,0.37479 -0.17185,0.56309 -0.4077,1.33551 -0.83184,2.66919 -1.2697,4.00195 -0.0676,0.20659 -0.13711,0.41409 -0.20567,0.62068 -0.43786,1.31631 -0.88942,2.63079 -1.35745,3.94253 -0.0777,0.21939 -0.15814,0.43786 -0.23675,0.65541 -0.46893,1.29986 -0.9525,2.59698 -1.45251,3.89226 -0.0878,0.22761 -0.17825,0.45523 -0.26692,0.68284 -0.50184,1.28432 -1.0174,2.56772 -1.55123,3.84472 -0.0978,0.23401 -0.19837,0.46802 -0.29617,0.70112 -0.53658,1.27152 -1.08779,2.54121 -1.65636,3.80542 -0.10512,0.23401 -0.21299,0.46619 -0.31902,0.7002 -0.57498,1.26238 -1.16366,2.5211 -1.77154,3.77525 -0.11061,0.22853 -0.22578,0.45797 -0.33822,0.6865 -0.6161,1.25598 -1.24592,2.50739 -1.89585,3.75331 -0.11426,0.21939 -0.23218,0.43694 -0.34736,0.6545 -0.6609,1.25232 -1.33551,2.5019 -2.03297,3.74234 -0.11518,0.20385 -0.2331,0.40678 -0.34827,0.61063 -0.71026,1.25232 -1.43606,2.50007 -2.18289,3.74051 -0.10969,0.18191 -0.22304,0.36199 -0.33364,0.5439 -0.76602,1.25872 -1.54758,2.51104 -2.35382,3.75514 -0.0978,0.15082 -0.19928,0.30074 -0.298,0.45065 -0.83001,1.27061 -1.67647,2.53573 -2.54853,3.78805 -0.0786,0.11335 -0.15996,0.22487 -0.23858,0.33822 -0.90039,1.28797 -1.82181,2.5668 -2.76882,3.83375 -0.0128,0.0174 -0.0256,0.0338 -0.0393,0.0512 -7.90426,1.39036 -15.96301,2.09513 -23.99799,2.09513 -75.80121,0 -137.46945,-61.66915 -137.46945,-137.46946 0,-7.49748 0.61062,-15.01691 1.81724,-22.38916 0.4278,-0.42049 0.85743,-0.83823 1.28888,-1.25232 0.61154,-0.58869 1.22399,-1.17737 1.83918,-1.75417 0.63713,-0.59691 1.27884,-1.18011 1.91962,-1.76331 0.62342,-0.56674 1.24684,-1.13532 1.87392,-1.69018 0.64079,-0.56766 1.28706,-1.1216 1.9315,-1.67738 0.63622,-0.54664 1.27061,-1.0951 1.90957,-1.62985 0.64444,-0.54023 1.29345,-1.06767 1.94247,-1.59603 0.64627,-0.52561 1.29163,-1.05396 1.94064,-1.56769 0.6481,-0.51281 1.29986,-1.01374 1.9507,-1.51558 0.65541,-0.5055 1.31174,-1.01283 1.97081,-1.50645 0.64993,-0.48721 1.30169,-0.96072 1.95436,-1.43697 0.66729,-0.4863 1.33276,-0.97443 2.00189,-1.44885 0.64901,-0.46071 1.30168,-0.90862 1.95252,-1.35836 0.67644,-0.46802 1.35288,-0.93696 2.03297,-1.3931 0.6481,-0.43511 1.29895,-0.85743 1.94887,-1.28249 0.68558,-0.44791 1.37207,-0.89948 2.05948,-1.33642 0.64902,-0.41226 1.29894,-0.81172 1.94887,-1.21393 0.69289,-0.42871 1.38579,-0.86017 2.07959,-1.27792 0.64444,-0.38758 1.29163,-0.76328 1.9379,-1.1408 0.70295,-0.41135 1.40498,-0.82544 2.10884,-1.22581 0.64262,-0.36565 1.28706,-0.71849 1.93059,-1.07591 0.7066,-0.39215 1.41412,-0.78613 2.12164,-1.16639 0.64079,-0.34462 1.2834,-0.67827 1.92419,-1.01375 0.713,-0.37386 1.426,-0.74956 2.13809,-1.11246 0.63713,-0.32359 1.27335,-0.6353 1.91048,-0.95067 0.71757,-0.35559 1.43697,-0.71483 2.15454,-1.05945 0.63165,-0.30348 1.2633,-0.59508 1.89586,-0.89125 0.72214,-0.33822 1.44337,-0.67918 2.16551,-1.00551 0.62982,-0.28612 1.25964,-0.55944 1.88854,-0.83824 0.72214,-0.31902 1.44337,-0.64079 2.16369,-0.94975 0.6289,-0.26875 1.25598,-0.52561 1.88397,-0.78796 0.7194,-0.29983 1.43971,-0.60422 2.1582,-0.894 0.62616,-0.2532 1.24958,-0.49361 1.87482,-0.73859 0.71758,-0.28155 1.43606,-0.56766 2.15181,-0.84006 0.62707,-0.23859 1.25141,-0.46528 1.87665,-0.69564 0.71026,-0.26235 1.42052,-0.52926 2.12713,-0.78156 0.62799,-0.22487 1.2514,-0.43694 1.87757,-0.6545 0.70203,-0.24406 1.40498,-0.49178 2.10335,-0.72671 0.63073,-0.21207 1.25781,-0.41317 1.88671,-0.61793 0.68741,-0.22396 1.37664,-0.45249 2.06222,-0.67004 0.63622,-0.20111 1.26787,-0.39033 1.90043,-0.58412 0.67369,-0.20567 1.3483,-0.41683 2.01834,-0.61519 0.6417,-0.19013 1.27883,-0.36747 1.91779,-0.5512 0.65359,-0.18739 1.30991,-0.37936 1.95984,-0.55852 0.6545,-0.18099 1.30352,-0.35102 1.95527,-0.5247 0.62799,-0.16819 1.25781,-0.34096 1.88032,-0.50184 0.67003,-0.17277 1.33185,-0.33365 1.9964,-0.50002 0.59782,-0.149 1.19931,-0.30256 1.79347,-0.44608 0.70478,-0.17002 1.40133,-0.32816 2.10062,-0.48905 0.54389,-0.12614 1.09052,-0.25686 1.63076,-0.37752 0.75779,-0.17002 1.50644,-0.32725 2.25784,-0.48813 0.4735,-0.10055 0.95249,-0.2075 1.42326,-0.30623 0.81264,-0.16819 1.61522,-0.3245 2.41963,-0.48264 0.39947,-0.0786 0.80624,-0.16272 1.20388,-0.23859 0.90313,-0.17276 1.79439,-0.33364 2.68472,-0.49361 0.28886,-0.0521 0.58412,-0.10878 0.87206,-0.15997 1.05488,-0.18556 2.09878,-0.36016 3.13538,-0.52927 0.117,-0.0192 0.23675,-0.0411 0.35376,-0.0594 3.47542,-0.55944 6.83841,-1.02654 10.0716,-1.4123 28.67364,-3.42515 52.11128,-1.31813 61.89494,-0.0768 0.11884,0.0146 0.24498,0.0311 0.36016,0.0448 1.60882,6.10896 4.48277,18.06911 6.92343,33.70304 l -27.42863,45.71346 12.85871,7.71504 17.53893,-29.23124 c 0.46802,5.25611 0.84006,10.72154 1.07316,16.35334 0.76876,18.56272 0.0832,40.72427 -4.22042,63.5321 -0.005,0.042 -0.011,0.0795 -0.0183,0.117 z M 48.56418,325.03185 C 43.865682,294.8664 47.6711,268.77419 59.282057,251.56434 l 2.272464,-3.36847 -1.580487,-3.74235 c -0.251378,-0.59416 -21.800482,-53.16432 8.554192,-100.48112 0.467107,11.1731 3.06225,23.57293 11.004906,31.51467 l 5.301807,5.30181 5.302721,-5.30272 c 1.591456,-1.59146 3.008318,-3.49188 4.508364,-5.50474 5.1199,-6.8695 11.735276,-15.74637 29.825406,-19.15689 -11.67129,16.32408 -28.699229,46.31494 -34.500137,88.20195 l -0.05302,0.5183 c -2.419635,35.35391 10.543287,69.98203 35.565987,95.00473 3.33282,3.33465 6.91245,6.48648 10.66028,9.45093 -14.75547,26.12693 -32.86663,42.24717 -68.088906,38.33572 C 61.049022,371.48939 52.468321,350.09203 48.56418,325.03185 Z m 154.73141,127.97282 c -34.98827,-0.50275 -83.38554,-10.85042 -122.900457,-55.13239 35.530337,-0.86474 54.616837,-21.8535 67.953617,-44.99497 l 0.13072,0.0932 3.37853,-6.4618 c 0.20019,-0.37753 0.40404,-0.75597 0.60148,-1.13441 l -0.007,-0.003 0,0 c 6.14827,-11.7627 11.68043,-24.77772 17.5371,-38.55876 11.75173,-27.65258 24.78869,-58.31896 46.00414,-85.44868 -0.0283,1.19565 -0.0439,2.3913 -0.0439,3.58695 0,84.07021 68.39605,152.46626 152.46625,152.46626 3.26793,0 6.53951,-0.11609 9.80561,-0.32451 -44.12292,46.81953 -112.19538,76.84512 -174.92581,75.91182 z" /></g><g
     id="g39" /><g
     id="g41" /><g
     id="g43" /><g
     id="g45" /><g
     id="g47" /><g
     id="g49" /><g
     id="g51" /><g
     id="g53" /><g
     id="g55" /><g
     id="g57" /><g
     id="g59" /><g
     id="g61" /><g
     id="g63" /><g
     id="g65" /><g
     id="g67" /><circle
     style="opacity:1;fill:#07ff00;fill-opacity:1;fill-rule:nonzero;stroke:#ffffff;stroke-width:30;stroke-linecap:butt;stroke-linejoin:miter;stroke-miterlimit:4;stroke-dasharray:none;stroke-opacity:1"
     id="path8111"
     cx="412.87949"
     cy="412.87949"
     r="84.12149" /></svg>