<?xml version="1.0" encoding="UTF-8" standalone="no"?>
<!-- Generator: Adobe Illustrator 19.0.0, SVG Export Plug-In . SVG Version: 6.00 Build 0)  -->

<svg
   xmlns:dc="http://purl.org/dc/elements/1.1/"
   xmlns:cc="http://creativecommons.org/ns#"
   xmlns:rdf="http://www.w3.org/1999/02/22-rdf-syntax-ns#"
   xmlns:svg="http://www.w3.org/2000/svg"
   xmlns="http://www.w3.org/2000/svg"
   xmlns:sodipodi="http://sodipodi.sourceforge.net/DTD/sodipodi-0.dtd"
   xmlns:inkscape="http://www.inkscape.org/namespaces/inkscape"
   version="1.1"
   id="Layer_1"
   x="0px"
   y="0px"
   viewBox="0 0 512.00002 512.00002"
   xml:space="preserve"
   sodipodi:docname="marker-route-day5-contents.svg"
   inkscape:version="0.91 r13725"
   width="512"
   height="512"><metadata
     id="metadata62"><rdf:RDF><cc:Work
         rdf:about=""><dc:format>image/svg+xml</dc:format><dc:type
           rdf:resource="http://purl.org/dc/dcmitype/StillImage" /><dc:title /></cc:Work></rdf:RDF></metadata><defs
     id="defs60" /><sodipodi:namedview
     pagecolor="#ffffff"
     bordercolor="#666666"
     borderopacity="1"
     objecttolerance="10"
     gridtolerance="10"
     guidetolerance="10"
     inkscape:pageopacity="0"
     inkscape:pageshadow="2"
     inkscape:window-width="1920"
     inkscape:window-height="1017"
     id="namedview58"
     showgrid="false"
     inkscape:zoom="0.89039805"
     inkscape:cx="299.67509"
     inkscape:cy="199.84057"
     inkscape:window-x="1912"
     inkscape:window-y="-8"
     inkscape:window-maximized="1"
     inkscape:current-layer="Layer_1" /><g
     id="g27"
     transform="translate(0,246.95001)" /><g
     id="g29"
     transform="translate(0,246.95001)" /><g
     id="g31"
     transform="translate(0,246.95001)" /><g
     id="g33"
     transform="translate(0,246.95001)" /><g
     id="g35"
     transform="translate(0,246.95001)" /><g
     id="g37"
     transform="translate(0,246.95001)" /><g
     id="g39"
     transform="translate(0,246.95001)" /><g
     id="g41"
     transform="translate(0,246.95001)" /><g
     id="g43"
     transform="translate(0,246.95001)" /><g
     id="g45"
     transform="translate(0,246.95001)" /><g
     id="g47"
     transform="translate(0,246.95001)" /><g
     id="g49"
     transform="translate(0,246.95001)" /><g
     id="g51"
     transform="translate(0,246.95001)" /><g
     id="g53"
     transform="translate(0,246.95001)" /><g
     id="g55"
     transform="translate(0,246.95001)" /><g
     id="g8093"
     transform="matrix(1.7542401,0,0,1.7542401,23.519331,-0.00175424)"><g
       id="g20"><path
         style="fill:#2d213f"
         d="m 265.05,38.776 0,187.499 c 0,21.384 -17.326,38.775 -38.582,38.775 l -187.918,0 C 17.294,265.05 0,247.66 0,226.275 L 0,38.776 C 0,17.392 17.294,0.001 38.55,0.001 l 187.918,0 c 21.255,0 38.582,17.391 38.582,38.775 z m -16.393,187.499 0,-134.263 -232.265,0 0,134.264 c 0,12.302 9.951,22.286 22.157,22.286 l 187.918,0 c 12.239,-0.001 22.19,-9.985 22.19,-22.287 z m 0,-150.72 0,-36.779 c 0,-12.302 -9.951,-22.286 -22.189,-22.286 l -187.918,0 c -12.206,0 -22.157,9.984 -22.157,22.286 l 0,36.778 z"
         id="path2"
         inkscape:connector-curvature="0" /><path
         style="fill:#c5cbcf"
         d="m 248.657,92.012 0,134.264 c 0,12.302 -9.951,22.286 -22.189,22.286 l -187.918,0 c -12.206,0 -22.157,-9.984 -22.157,-22.286 l 0,-134.264 z m -62.607,43.638 0,-14.235 -46.086,0 -4.541,44.347 16.393,0.902 c 0.547,-1.578 1.61,-2.898 3.092,-3.961 1.481,-1.063 3.446,-1.578 5.861,-1.578 3.349,0 5.797,1.256 7.343,3.768 1.546,2.48 2.319,5.894 2.319,10.241 0,4.122 -0.644,7.246 -1.997,9.307 -1.32,2.061 -3.671,3.092 -7.053,3.092 -2.898,0 -5.217,-0.805 -6.956,-2.383 -1.739,-1.61 -2.609,-3.8 -2.609,-6.57 l -17.906,1.063 -0.064,0.322 c -0.193,6.538 2.448,11.787 7.987,15.748 5.539,3.961 12.045,5.926 19.549,5.926 9.404,0 16.328,-2.512 20.74,-7.568 4.38,-5.056 6.57,-11.401 6.57,-19.033 0,-8.534 -1.965,-15.136 -5.894,-19.806 -3.961,-4.638 -9.597,-6.892 -16.908,-6.763 -2.705,0.064 -5.185,0.451 -7.472,1.095 -2.287,0.644 -4.154,1.514 -5.636,2.544 l 1.997,-16.457 c 0,-0.001 31.271,-0.001 31.271,-0.001 z m -61.093,64.86 0,-14.138 -30.37,0 -0.129,-0.258 9.565,-11.529 c 6.924,-7.504 11.691,-13.204 14.267,-17.069 2.609,-3.865 3.897,-8.277 3.897,-13.269 0,-7.472 -2.351,-13.333 -7.021,-17.584 -4.67,-4.251 -11.336,-6.377 -19.935,-6.377 -8.212,0 -14.814,2.544 -19.774,7.633 -4.96,5.088 -7.375,11.272 -7.182,18.615 l 0.097,0.322 17.874,0 c 0,-3.639 0.805,-6.602 2.351,-8.953 1.578,-2.319 3.8,-3.51 6.634,-3.51 3.027,0 5.217,0.902 6.602,2.705 1.353,1.803 2.029,4.219 2.029,7.311 0,2.126 -0.741,4.638 -2.254,7.536 -1.513,2.898 -3.897,6.183 -7.15,9.887 l -24.186,26.73 0,11.948 z"
         id="path4"
         inkscape:connector-curvature="0" /><path
         style="fill:#eaeeef"
         d="m 230.706,92.012 -214.314,0 0,134.264 c 0,1.359 0.142,2.686 0.374,3.977 1.246,0.219 2.525,0.357 3.832,0.357 l 187.918,0 c 12.238,0 22.189,-9.984 22.189,-22.286 z m -105.749,108.498 -54.685,0 0,-11.948 24.186,-26.73 c 3.253,-3.704 5.636,-6.989 7.15,-9.887 1.514,-2.898 2.254,-5.41 2.254,-7.536 0,-3.092 -0.676,-5.507 -2.029,-7.311 -1.385,-1.803 -3.575,-2.705 -6.602,-2.705 -2.834,0 -5.056,1.192 -6.634,3.51 -1.546,2.351 -2.351,5.314 -2.351,8.953 l -17.874,0 -0.097,-0.322 c -0.193,-7.343 2.222,-13.526 7.182,-18.615 4.96,-5.088 11.562,-7.633 19.774,-7.633 8.599,0 15.265,2.126 19.935,6.377 4.67,4.251 7.021,10.112 7.021,17.584 0,4.992 -1.288,9.404 -3.897,13.269 -2.576,3.865 -7.343,9.565 -14.267,17.069 l -9.565,11.529 0.129,0.258 30.37,0 c 0,0 0,14.138 0,14.138 z m 57.164,-6.44 c -4.412,5.056 -11.336,7.568 -20.74,7.568 -7.504,0 -14.009,-1.965 -19.549,-5.926 -5.539,-3.961 -8.18,-9.211 -7.987,-15.748 l 0.064,-0.322 17.906,-1.063 c 0,2.77 0.87,4.96 2.609,6.57 1.739,1.578 4.058,2.383 6.956,2.383 3.382,0 5.733,-1.031 7.053,-3.092 1.353,-2.061 1.997,-5.185 1.997,-9.307 0,-4.348 -0.773,-7.761 -2.319,-10.241 -1.546,-2.512 -3.993,-3.768 -7.343,-3.768 -2.415,0 -4.38,0.515 -5.861,1.578 -1.481,1.063 -2.544,2.383 -3.092,3.961 l -16.392,-0.902 4.541,-44.347 46.086,0 0,14.235 -31.271,0 -1.997,16.457 c 1.481,-1.031 3.349,-1.9 5.636,-2.544 2.287,-0.644 4.766,-1.031 7.472,-1.095 7.311,-0.129 12.947,2.126 16.908,6.763 3.929,4.67 5.894,11.272 5.894,19.806 -0.001,7.633 -2.191,13.978 -6.571,19.034 z"
         id="path6"
         inkscape:connector-curvature="0" /><path
         style="fill:#ef685e"
         d="m 248.657,38.776 0,36.778 -232.265,0 0,-36.778 c 0,-12.302 9.951,-22.286 22.157,-22.286 l 187.918,0 c 12.239,0 22.19,9.984 22.19,22.286 z m -20.837,10.66 c 0,-6.248 -5.056,-11.304 -11.272,-11.304 -6.248,0 -11.272,5.056 -11.272,11.304 0,6.28 5.024,11.336 11.272,11.336 6.216,0 11.272,-5.056 11.272,-11.336 z m -166.34,0 c 0,-6.248 -5.056,-11.304 -11.272,-11.304 -6.216,0 -11.272,5.056 -11.272,11.304 0,6.28 5.056,11.336 11.272,11.336 6.216,0 11.272,-5.056 11.272,-11.336 z"
         id="path8"
         inkscape:connector-curvature="0" /><path
         style="fill:#f47c6d"
         d="m 234.368,58.631 0,-14.225 c 0,-12.302 -9.951,-22.286 -22.189,-22.286 l -187.919,0 c -0.135,0 -0.267,0.019 -0.403,0.019 -4.567,4.084 -7.465,10.016 -7.465,16.637 l 0,36.778 210.294,0 c 4.703,-4.131 7.682,-10.173 7.682,-16.923 z m -184.16,2.141 c -6.216,0 -11.272,-5.056 -11.272,-11.336 0,-6.248 5.056,-11.304 11.272,-11.304 6.216,0 11.272,5.056 11.272,11.304 0,6.28 -5.056,11.336 -11.272,11.336 z M 205.277,49.436 c 0,-6.248 5.024,-11.304 11.272,-11.304 6.216,0 11.272,5.056 11.272,11.304 0,6.28 -5.056,11.336 -11.272,11.336 -6.248,0 -11.272,-5.056 -11.272,-11.336 z"
         id="path10"
         inkscape:connector-curvature="0" /><path
         style="fill:#2d213f"
         d="m 216.548,38.132 c 6.216,0 11.272,5.056 11.272,11.304 0,6.28 -5.056,11.336 -11.272,11.336 -6.248,0 -11.272,-5.056 -11.272,-11.336 10e-4,-6.248 5.025,-11.304 11.272,-11.304 z"
         id="path12"
         inkscape:connector-curvature="0" /><path
         style="fill:#2d213f"
         d="m 186.05,121.415 0,14.235 -31.271,0 -1.997,16.457 c 1.481,-1.031 3.349,-1.9 5.636,-2.544 2.287,-0.644 4.766,-1.031 7.472,-1.095 7.311,-0.129 12.947,2.126 16.908,6.763 3.929,4.67 5.894,11.272 5.894,19.806 0,7.633 -2.19,13.977 -6.57,19.033 -4.412,5.056 -11.336,7.568 -20.74,7.568 -7.504,0 -14.009,-1.965 -19.549,-5.926 -5.539,-3.961 -8.18,-9.211 -7.987,-15.748 l 0.064,-0.322 17.906,-1.063 c 0,2.77 0.87,4.96 2.609,6.57 1.739,1.578 4.058,2.383 6.956,2.383 3.382,0 5.733,-1.031 7.053,-3.092 1.353,-2.061 1.997,-5.185 1.997,-9.307 0,-4.348 -0.773,-7.761 -2.319,-10.241 -1.546,-2.512 -3.993,-3.768 -7.343,-3.768 -2.415,0 -4.38,0.515 -5.861,1.578 -1.481,1.063 -2.544,2.383 -3.092,3.961 l -16.392,-0.902 4.541,-44.347 c -0.001,0.001 46.085,0.001 46.085,0.001 z"
         id="path14"
         inkscape:connector-curvature="0" /><path
         style="fill:#2d213f"
         d="m 124.957,186.372 0,14.138 -54.685,0 0,-11.948 24.186,-26.73 c 3.253,-3.704 5.636,-6.989 7.15,-9.887 1.514,-2.898 2.254,-5.41 2.254,-7.536 0,-3.092 -0.676,-5.507 -2.029,-7.311 -1.385,-1.803 -3.575,-2.705 -6.602,-2.705 -2.834,0 -5.056,1.192 -6.634,3.51 -1.546,2.351 -2.351,5.314 -2.351,8.953 l -17.874,0 -0.097,-0.322 c -0.193,-7.343 2.222,-13.526 7.182,-18.615 4.96,-5.088 11.562,-7.633 19.774,-7.633 8.599,0 15.265,2.126 19.935,6.377 4.67,4.251 7.021,10.112 7.021,17.584 0,4.992 -1.288,9.404 -3.897,13.269 -2.576,3.865 -7.343,9.565 -14.267,17.069 l -9.565,11.529 0.129,0.258 c 0,0 30.37,0 30.37,0 z"
         id="path16"
         inkscape:connector-curvature="0" /><path
         style="fill:#2d213f"
         d="m 50.208,38.132 c 6.216,0 11.272,5.056 11.272,11.304 0,6.28 -5.056,11.336 -11.272,11.336 -6.216,0 -11.272,-5.056 -11.272,-11.336 0,-6.248 5.056,-11.304 11.272,-11.304 z"
         id="path18"
         inkscape:connector-curvature="0" /></g><rect
       ry="21.865871"
       y="92.012001"
       x="15.597854"
       height="148.56491"
       width="226.7879"
       id="rect4572"
       style="fill:#eaeeef;fill-opacity:1;stroke:none;stroke-width:8.54937363;stroke-miterlimit:4;stroke-dasharray:none;stroke-opacity:1" /><g
       id="text4576"
       style="font-style:normal;font-weight:normal;font-size:75.85772705px;line-height:1.25;font-family:sans-serif;letter-spacing:0px;word-spacing:0px;fill:#2d213f;fill-opacity:1;stroke:none;stroke-width:1.89644349"
       aria-label="5"><path
         id="path6413"
         style="font-style:normal;font-variant:normal;font-weight:normal;font-stretch:normal;font-size:182.05856323px;font-family:'Eras Bold ITC';-inkscape-font-specification:'Eras Bold ITC';fill:#2d213f;fill-opacity:1;stroke-width:1.89644349"
         d="m 86.654769,226.60598 -0.62227,-8.97847 q -0.266687,-4.3559 -0.622271,-7.91173 -0.266687,-3.55583 -1.155645,-11.55645 18.401427,5.24485 30.491257,5.24485 6.48939,0 11.91203,-2.0446 5.51154,-2.04461 8.4451,-5.77823 2.93356,-3.73362 2.93356,-8.17841 0,-6.48939 -6.04491,-9.77854 -5.95602,-3.37804 -18.75701,-3.37804 -5.68933,0 -11.20087,0.44448 -5.422643,0.35559 -14.7567,1.60013 l 4.533685,-57.42668 q 0.266687,-4.267 0.533375,-11.82314 22.31284,0.17779 42.93666,0.17779 26.13536,0 43.55894,-0.17779 -0.80007,9.24516 -0.97786,14.66781 l -0.44448,12.08982 -11.82314,-0.44448 -5.51153,-0.0889 -8.62289,0 q -5.51154,-0.0889 -13.68996,-0.0889 -2.75576,0 -9.06737,0.17779 l -1.77791,20.35714 q 5.95602,-0.44448 9.24516,-0.44448 13.86774,0 24.44634,4.44479 10.5786,4.35589 15.46787,12.26762 4.88927,7.91172 4.88927,17.86805 0,9.68964 -4.97817,18.66811 -4.97816,8.88958 -13.68995,14.22333 -8.62289,5.24485 -20.09045,7.64504 -11.37866,2.31129 -23.37959,2.31129 -4.53368,0 -10.75639,-0.62227 -6.2227,-0.53338 -10.489699,-1.24455 -4.266998,-0.71116 -10.934182,-2.22239 z"
         inkscape:connector-curvature="0" /></g><rect
       ry="0"
       y="92.012001"
       x="204.6048"
       height="36.590214"
       width="37.780964"
       id="rect4572-5"
       style="fill:#eaeeef;fill-opacity:1;stroke:none;stroke-width:1.73175013;stroke-miterlimit:4;stroke-dasharray:none;stroke-opacity:1" /></g><circle
     style="opacity:1;fill:#07ff00;fill-opacity:1;fill-rule:nonzero;stroke:#ffffff;stroke-width:30;stroke-linecap:butt;stroke-linejoin:miter;stroke-miterlimit:4;stroke-dasharray:none;stroke-opacity:1"
     id="path8111"
     cx="412.87851"
     cy="412.87851"
     r="84.12149" /></svg>