<?xml version="1.0" encoding="UTF-8" standalone="no"?>
<!-- Generator: Adobe Illustrator 19.0.0, SVG Export Plug-In . SVG Version: 6.00 Build 0)  -->

<svg
   xmlns:dc="http://purl.org/dc/elements/1.1/"
   xmlns:cc="http://creativecommons.org/ns#"
   xmlns:rdf="http://www.w3.org/1999/02/22-rdf-syntax-ns#"
   xmlns:svg="http://www.w3.org/2000/svg"
   xmlns="http://www.w3.org/2000/svg"
   xmlns:sodipodi="http://sodipodi.sourceforge.net/DTD/sodipodi-0.dtd"
   xmlns:inkscape="http://www.inkscape.org/namespaces/inkscape"
   version="1.1"
   id="Layer_1"
   x="0px"
   y="0px"
   viewBox="0 0 512 512"
   style="enable-background:new 0 0 512 512;"
   xml:space="preserve"
   inkscape:version="0.91 r13725"
   sodipodi:docname="marker-fooddrink-greatfood.svg"><metadata
     id="metadata8129"><rdf:RDF><cc:Work
         rdf:about=""><dc:format>image/svg+xml</dc:format><dc:type
           rdf:resource="http://purl.org/dc/dcmitype/StillImage" /><dc:title></dc:title></cc:Work></rdf:RDF></metadata><defs
     id="defs8127" /><sodipodi:namedview
     pagecolor="#ffffff"
     bordercolor="#666666"
     borderopacity="1"
     objecttolerance="10"
     gridtolerance="10"
     guidetolerance="10"
     inkscape:pageopacity="0"
     inkscape:pageshadow="2"
     inkscape:window-width="1920"
     inkscape:window-height="1017"
     id="namedview8125"
     showgrid="false"
     inkscape:zoom="0.84667969"
     inkscape:cx="361.86571"
     inkscape:cy="103.45484"
     inkscape:window-x="1912"
     inkscape:window-y="-8"
     inkscape:window-maximized="1"
     inkscape:current-layer="Layer_1" /><g
     id="g12664"
     transform="translate(21.259515,0)"><circle
       id="circle8069"
       r="227.13525"
       cy="234.74048"
       cx="234.74048"
       style="fill:#ffa037" /><circle
       id="circle8071"
       r="154.1273"
       cy="234.74048"
       cx="234.74048"
       style="fill:#ffc850" /><path
       inkscape:connector-curvature="0"
       id="path8073"
       d="m 113.06055,234.74049 c 0,-107.28282 74.40357,-197.132497 174.4076,-220.916476 C 270.53933,9.7976639 252.90078,7.6052249 234.74049,7.6052249 109.29645,7.6052249 7.6052249,109.29645 7.6052249,234.74049 c 0,125.44311 101.6921451,227.13525 227.1352651,227.13525 18.16029,0 35.79884,-2.19336 52.72766,-6.21879 C 187.46412,431.87297 113.06055,342.0233 113.06055,234.74049 Z"
       style="fill:#ff8c32" /><path
       inkscape:connector-curvature="0"
       id="path8075"
       d="M 155.6632,366.85628 C 128.93579,329.6224 113.06055,284.08 113.06055,234.74049 c 0,-49.33953 15.87524,-94.88192 42.60082,-132.1158 -44.90054,26.93647 -75.048187,75.94404 -75.048187,132.1158 0,56.17266 30.147647,105.18024 75.050017,132.11579 z"
       style="fill:#ffb23c" /><path
       inkscape:connector-curvature="0"
       id="path8077"
       d="m 332.18438,183.33782 c -3.39457,3.39457 -9.26584,3.0287 -12.6604,-0.36678 l -1.13886,-1.13886 c -3.39457,-3.39457 -3.75951,-9.264 -0.36403,-12.65856 L 307.26337,158.4159 c -3.39457,3.39457 -9.2484,3.04704 -12.64389,-0.34844 l 0,0 c -3.39456,-3.39457 -3.75401,-9.2585 -0.35853,-12.65398 L 284.03874,141.521 c -7.67584,7.67216 -8.76059,39.45566 -8.76059,39.45566 L 111.73372,332.11561 c -9.00359,9.00358 -9.00359,23.60058 0,32.60417 9.00358,9.00357 23.60058,9.00357 32.60417,0 L 295.29344,201.37616 c 0,0 33.13875,-0.18981 40.77607,-7.82163 l -3.88513,-10.21671 z"
       style="fill:#ffffff" /><path
       inkscape:connector-curvature="0"
       id="path8079"
       d="m 252.85585,202.25002 -76.59784,70.48725 14.69695,14.69695 c 4.45366,4.45273 9.75916,7.67674 15.49838,9.78667 l 67.74922,-73.62232 -21.34671,-21.34855 z"
       style="fill:#faf0c3" /><path
       inkscape:connector-curvature="0"
       id="path8081"
       d="m 121.15543,104.96567 227.81473,227.81564 c 9.00358,9.00359 9.00358,23.6006 0,32.60417 l 0,0 c -9.00359,9.00359 -23.60059,9.00359 -32.60417,0 l -54.70188,-54.70186 c -5.60259,-5.60259 -6.84781,-13.91204 -3.73475,-20.71677 1.63952,-3.58438 1.36901,-7.73176 -1.41762,-10.51931 l -9.22273,-9.22273 c -3.6018,-3.6018 -9.44005,-3.6018 -13.04185,0 l 0,0 c -7.20268,7.20268 -18.88102,7.20268 -26.08278,0 L 151.09951,213.15995 C 86.085571,148.14784 121.15543,104.96567 121.15543,104.96567 Z"
       style="fill:#ffffff" /><path
       inkscape:connector-curvature="0"
       id="path8083"
       d="m 126.53245,99.588655 c -1.52306,-1.523064 -3.62472,-2.322651 -5.76947,-2.217201 -2.15027,0.111867 -4.1529,1.12969 -5.5109,2.800376 -0.42364,0.52267 -10.38635,13.0226 -11.10525,34.25377 -0.92337,27.30051 13.06295,55.60049 41.57475,84.11229 l 57.06485,57.06486 c 4.91947,4.91947 11.46103,7.62907 18.42071,7.62907 6.95786,0 13.49941,-2.7096 18.41888,-7.62907 0.39154,-0.39154 0.83718,-0.47315 1.14345,-0.47315 0.30534,0 0.75098,0.0825 1.14252,0.47315 l 9.22274,9.22274 c 0.35302,0.35302 0.20722,1.26264 -0.12197,1.97787 -4.50133,9.84351 -2.38316,21.60254 5.27342,29.2582 l 54.70094,54.70187 c 5.97763,5.97763 13.82861,8.96598 21.67958,8.96598 7.85097,0 15.70285,-2.98835 21.67956,-8.96598 11.95527,-11.95434 11.95527,-31.40571 0,-43.35914 L 126.53245,99.588655 Z M 343.59313,360.00846 c -6.02348,6.02348 -15.8248,6.02348 -21.84921,0 l -54.70094,-54.70187 c -3.18734,-3.18733 -4.07036,-8.07929 -2.19611,-12.17625 3.06905,-6.71302 1.9091,-14.19354 -2.95718,-19.05891 l -9.22273,-9.22273 c -3.17817,-3.17817 -7.40442,-4.92863 -11.89841,-4.92863 -4.49492,0 -8.72024,1.75138 -11.89841,4.92863 -2.04756,2.04756 -4.76908,3.1745 -7.66392,3.1745 -2.89482,0 -5.61726,-1.12786 -7.66482,-3.1745 l -57.06486,-57.06486 c -44.15872,-44.15872 -39.31811,-76.33558 -33.60365,-90.34391 l 220.72024,220.71933 c 6.0244,6.02439 6.0244,15.82573 0,21.8492 z" /><path
       inkscape:connector-curvature="0"
       id="path8085"
       d="m 301.9377,174.5158 c 1.48455,1.48455 3.43124,2.2282 5.37702,2.2282 1.94578,0 3.89248,-0.74182 5.37703,-2.2282 l 48.53535,-48.53627 c 2.97001,-2.97002 2.97001,-7.78587 0,-10.75404 -2.97003,-2.97003 -7.78587,-2.97003 -10.75405,0 l -48.53535,48.53534 c -2.97094,2.97001 -2.97094,7.78495 0,10.75497 z" /><path
       inkscape:connector-curvature="0"
       id="path8087"
       d="m 259.30754,205.18886 c 1.94578,0 3.89248,-0.74182 5.37703,-2.2282 L 280.624,187.02122 c 1.38093,-1.38093 2.17776,-3.24143 2.22545,-5.19455 l 0.41263,-17.19565 c 0.12654,-5.27157 3.05345,-11.27121 7.83079,-16.04946 l 49.4734,-49.473397 c 2.97001,-2.970014 2.97001,-7.785862 0,-10.754045 -2.97003,-2.970018 -7.78587,-2.970018 -10.75405,0 l -49.4734,49.473392 c -7.58505,7.58414 -12.06162,17.22041 -12.2817,26.43856 l -0.33926,14.15229 -13.78734,13.78734 c -2.97002,2.97001 -2.97002,7.78586 0,10.75404 1.48455,1.48638 3.43032,2.22912 5.37702,2.22912 z" /><path
       inkscape:connector-curvature="0"
       id="path8089"
       d="m 199.80358,298.50004 -60.84271,60.84271 c -2.91868,2.91867 -6.7974,4.52517 -10.92461,4.52517 -4.12721,0 -8.00685,-1.60742 -10.9246,-4.52517 -2.91867,-2.91866 -4.52517,-6.7983 -4.52517,-10.9246 0,-4.12722 1.60742,-8.00686 4.52517,-10.9246 l 58.73097,-58.73097 c 2.97002,-2.97002 2.97002,-7.78586 0,-10.75405 -2.97002,-2.97002 -7.78586,-2.97002 -10.75405,0 l -58.73096,58.73097 c -5.79058,5.79057 -8.979748,13.49024 -8.979748,21.67957 0,8.19024 3.190088,15.88899 8.979748,21.67956 5.78965,5.79058 13.49024,8.97975 21.67956,8.97975 8.18933,0 15.88808,-3.19009 21.67957,-8.97975 l 60.84272,-60.84271 c 2.97001,-2.97002 2.97001,-7.78587 0,-10.75405 -2.97094,-2.97186 -7.78587,-2.97186 -10.75589,-0.002 z" /><path
       inkscape:connector-curvature="0"
       id="path8091"
       d="m 389.23732,137.02793 c -2.97002,-2.97003 -7.78586,-2.97003 -10.75405,0 l -49.47155,49.47155 c -4.70032,4.70031 -10.72379,7.43284 -16.2081,7.37416 l -17.87696,-0.27143 c -2.03564,-0.0284 -4.03918,0.77208 -5.49256,2.22637 l -15.94035,15.94035 c -2.97001,2.97001 -2.97001,7.78586 0,10.75405 1.48456,1.48455 3.43125,2.22819 5.37703,2.22819 1.94577,0 3.89247,-0.74181 5.37702,-2.22819 l 13.66446,-13.66447 14.66028,0.22191 c 9.6317,0.14762 19.53206,-4.16481 27.19322,-11.82689 l 49.47156,-49.47156 c 2.97002,-2.97002 2.97002,-7.78495 0,-10.75404 z" /><path
       inkscape:connector-curvature="0"
       id="path8093"
       d="M 400.72676,68.754204 C 356.39108,24.416678 297.44187,0 234.74049,0 172.0391,0 113.0899,24.416678 68.754204,68.754204 24.418512,113.09173 0,172.0391 0,234.74049 c 0,62.70138 24.416678,121.65059 68.754204,165.98627 44.337526,44.3357 103.284896,68.75421 165.986286,68.75421 62.70138,0 121.65059,-24.41668 165.98627,-68.75421 44.3357,-44.33752 68.75421,-103.28489 68.75421,-165.98627 0,-62.70139 -24.41668,-121.65059 -68.75421,-165.986286 z M 389.97272,389.97272 c -41.46471,41.46378 -96.59296,64.29872 -155.23223,64.29872 -58.63928,0 -113.76753,-22.83494 -155.232238,-64.29872 -41.462871,-41.46471 -64.298719,-96.59388 -64.298719,-155.23223 0,-58.63836 22.835848,-113.76753 64.298719,-155.232238 41.464708,-41.462871 96.593878,-64.298719 155.232238,-64.298719 58.63835,0 113.76752,22.834931 155.23223,64.298719 41.46378,41.464708 64.29872,96.593878 64.29872,155.232238 0,58.63835 -22.83586,113.76752 -64.29872,155.23223 z" /></g><g
     id="g8095" /><g
     id="g8097" /><g
     id="g8099" /><g
     id="g8101" /><g
     id="g8103" /><g
     id="g8105" /><g
     id="g8107" /><g
     id="g8109" /><g
     id="g8111" /><g
     id="g8113" /><g
     id="g8115" /><g
     id="g8117" /><g
     id="g8119" /><g
     id="g8121" /><g
     id="g8123" /></svg>