<?xml version="1.0" encoding="UTF-8" standalone="no"?>
<!-- Generator: Adobe Illustrator 19.0.0, SVG Export Plug-In . SVG Version: 6.00 Build 0)  -->

<svg
   xmlns:dc="http://purl.org/dc/elements/1.1/"
   xmlns:cc="http://creativecommons.org/ns#"
   xmlns:rdf="http://www.w3.org/1999/02/22-rdf-syntax-ns#"
   xmlns:svg="http://www.w3.org/2000/svg"
   xmlns="http://www.w3.org/2000/svg"
   xmlns:sodipodi="http://sodipodi.sourceforge.net/DTD/sodipodi-0.dtd"
   xmlns:inkscape="http://www.inkscape.org/namespaces/inkscape"
   version="1.1"
   id="Layer_1"
   x="0px"
   y="0px"
   viewBox="0 0 512.00001 512.00001"
   xml:space="preserve"
   inkscape:version="0.92.2 (5c3e80d, 2017-08-06)"
   sodipodi:docname="marker-areainterest-story-contents.svg"
   width="512"
   height="512"><metadata
     id="metadata77"><rdf:RDF><cc:Work
         rdf:about=""><dc:format>image/svg+xml</dc:format><dc:type
           rdf:resource="http://purl.org/dc/dcmitype/StillImage" /><dc:title></dc:title></cc:Work></rdf:RDF></metadata><defs
     id="defs75" /><sodipodi:namedview
     pagecolor="#ffffff"
     bordercolor="#666666"
     borderopacity="1"
     objecttolerance="10"
     gridtolerance="10"
     guidetolerance="10"
     inkscape:pageopacity="0"
     inkscape:pageshadow="2"
     inkscape:window-width="1920"
     inkscape:window-height="1017"
     id="namedview73"
     showgrid="false"
     inkscape:zoom="0.7528861"
     inkscape:cx="143.28272"
     inkscape:cy="307.92324"
     inkscape:window-x="-8"
     inkscape:window-y="-8"
     inkscape:window-maximized="1"
     inkscape:current-layer="Layer_1" /><g
     id="g43"
     transform="translate(0,68.700012)" /><g
     id="g45"
     transform="translate(0,68.700012)" /><g
     id="g47"
     transform="translate(0,68.700012)" /><g
     id="g49"
     transform="translate(0,68.700012)" /><g
     id="g51"
     transform="translate(0,68.700012)" /><g
     id="g53"
     transform="translate(0,68.700012)" /><g
     id="g55"
     transform="translate(0,68.700012)" /><g
     id="g57"
     transform="translate(0,68.700012)" /><g
     id="g59"
     transform="translate(0,68.700012)" /><g
     id="g61"
     transform="translate(0,68.700012)" /><g
     id="g63"
     transform="translate(0,68.700012)" /><g
     id="g65"
     transform="translate(0,68.700012)" /><g
     id="g67"
     transform="translate(0,68.700012)" /><g
     id="g69"
     transform="translate(0,68.700012)" /><g
     id="g71"
     transform="translate(0,68.700012)" /><g
     id="g978"
     transform="matrix(0.98357334,0,0,1.0574543,4.4239277,-15.267087)"><path
       id="path893"
       d="m 272.622,279.163 c -9.668,9.061 -17.337,16.472 -22.277,21.413 -21.155,21.155 -24.063,51.146 -23.12,71.223 0.584,12.711 2.706,21.435 2.706,21.435 0,0 58.108,14.137 92.658,-20.413 3.47,-3.47 8.152,-8.275 13.777,-14.182 l 0.011,65.99 c 0,20.279 -16.439,36.729 -36.74,36.729 H 50.23 c 23.086,0 41.804,-18.718 41.804,-41.804 V 391.09 87.369 c 0,-20.279 16.45,-36.729 36.729,-36.729 23.097,0 41.815,18.718 41.815,41.804 v 28.464 h 165.789 v 101.36 c -24.647,20.975 -47.138,41.355 -63.745,56.895 z"
       style="fill:#f7b239"
       inkscape:connector-curvature="0" /><path
       id="path895"
       d="M 127.254,51.943 H 336.368 V 145.14 H 92.079 V 87.118 c 0,-19.426 15.749,-35.175 35.175,-35.175 z"
       style="fill:#e09b2d"
       inkscape:connector-curvature="0" /><path
       id="path897"
       d="m 336.367,358.639 c -5.626,5.906 -10.308,10.712 -13.777,14.182 -34.55,34.55 -92.658,20.413 -92.658,20.413 0,0 -2.122,-8.725 -2.706,-21.435 -0.943,-20.077 1.965,-50.068 23.12,-71.223 4.941,-4.941 12.61,-12.351 22.277,-21.413 16.607,-15.54 39.098,-35.92 63.744,-56.895 61.353,-52.19 136.101,-108.063 166.822,-102.292 8.478,45.206 -116.507,185.754 -166.822,238.663 z"
       style="fill:#2ba5f7"
       inkscape:connector-curvature="0" /><path
       id="path899"
       d="M 50.23,461.358 C 27.144,461.358 8.426,442.64 8.426,419.554 V 391.09 h 83.608 v 28.464 c 0,23.086 -18.718,41.804 -41.804,41.804 z"
       style="fill:#e09b2d"
       inkscape:connector-curvature="0" /><path
       id="path901"
       d="m 414.899,92.444 v 28.464 H 336.367 170.577 V 92.444 c 0,-23.086 -18.718,-41.804 -41.815,-41.804 h 244.322 c 23.097,0 41.815,18.718 41.815,41.804 z"
       style="fill:#f7b239"
       inkscape:connector-curvature="0" /><path
       id="path903"
       d="m 386.828,101.258 c -4.651,0 -8.421,-3.771 -8.421,-8.421 v -0.393 c 0,-2.928 -2.387,-5.311 -5.322,-5.311 -4.651,0 -8.421,-3.771 -8.421,-8.421 0,-4.651 3.771,-8.421 8.421,-8.421 12.222,0 22.165,9.938 22.165,22.154 v 0.393 c -10e-4,4.65 -3.771,8.42 -8.422,8.42 z"
       style="fill:#ffffff"
       inkscape:connector-curvature="0" /><path
       id="path905"
       d="m 336.367,358.639 c -5.626,5.906 -10.308,10.712 -13.777,14.182 -34.55,34.55 -92.658,20.413 -92.658,20.413 L 503.19,119.976 c 8.477,45.206 -116.508,185.754 -166.823,238.663 z"
       style="fill:#2197d8"
       inkscape:connector-curvature="0" /><g
       id="g913"><path
         id="path907"
         d="m 136.751,194.957 h 154.898 c 4.651,0 8.421,-3.771 8.421,-8.421 0,-4.651 -3.771,-8.421 -8.421,-8.421 H 136.751 c -4.651,0 -8.421,3.771 -8.421,8.421 0,4.651 3.77,8.421 8.421,8.421 z"
         style="fill:#333333"
         inkscape:connector-curvature="0" /><path
         id="path909"
         d="m 136.751,241.273 h 154.898 c 4.651,0 8.421,-3.771 8.421,-8.421 0,-4.65 -3.771,-8.421 -8.421,-8.421 H 136.751 c -4.651,0 -8.421,3.771 -8.421,8.421 0,4.65 3.77,8.421 8.421,8.421 z"
         style="fill:#333333"
         inkscape:connector-curvature="0" /><path
         id="path911"
         d="m 511.469,118.421 c -0.64,-3.415 -3.311,-6.085 -6.725,-6.726 -24.275,-4.549 -69.786,20.146 -139.12,75.509 -6.956,5.555 -13.929,11.253 -20.839,16.998 v -74.876 h 70.111 c 4.651,0 8.421,-3.771 8.421,-8.421 V 92.448 c 0,-27.695 -22.532,-50.228 -50.228,-50.228 H 128.767 c -24.896,0 -45.15,20.254 -45.15,45.15 v 295.3 H 8.421 C 3.77,382.67 0,386.441 0,391.091 v 28.458 c 0,27.697 22.533,50.23 50.23,50.23 h 249.414 c 24.897,0 45.151,-20.255 45.151,-45.152 L 344.785,362 c 23.796,-25.138 59.741,-65.093 91.175,-104.458 55.362,-69.333 80.062,-114.839 75.509,-139.121 z M 373.09,59.064 c 18.408,0 33.385,14.977 33.385,33.385 v 20.035 H 178.995 V 92.448 c 0,-12.803 -4.817,-24.504 -12.731,-33.385 -0.001,10e-4 206.826,10e-4 206.826,10e-4 z M 50.23,452.936 c -18.409,0 -33.387,-14.977 -33.387,-33.387 v -20.036 h 66.774 v 20.038 c 0,18.408 -14.976,33.385 -33.384,33.385 z m 249.414,0 H 87.716 c 7.918,-8.882 12.743,-20.577 12.743,-33.385 V 87.371 c 0,-15.609 12.698,-28.307 28.307,-28.307 18.408,0 33.385,14.977 33.385,33.385 v 28.456 c 0,4.651 3.771,8.421 8.421,8.421 h 157.369 v 89.079 C 305.954,237.2 285.43,255.704 269.295,270.743 H 136.753 c -4.651,0 -8.421,3.771 -8.421,8.421 0,4.651 3.771,8.421 8.421,8.421 h 114.794 c -2.676,2.596 -5.084,4.962 -7.159,7.037 -6.867,6.867 -11.992,14.512 -15.79,22.432 h -91.845 c -4.651,0 -8.421,3.771 -8.421,8.421 0,4.651 3.771,8.421 8.421,8.421 h 85.695 c -2.717,10.291 -3.719,20.463 -3.84,29.479 h -81.855 c -4.651,0 -8.421,3.771 -8.421,8.421 0,4.651 3.771,8.421 8.421,8.421 h 82.604 c 0.427,4.194 0.961,7.689 1.419,10.257 l -35.651,35.651 c -3.289,3.289 -3.289,8.621 0,11.909 1.644,1.644 3.8,2.467 5.954,2.467 2.155,0 4.311,-0.822 5.954,-2.467 l 35.661,-35.661 c 5.185,0.912 14.196,2.144 25.082,2.144 1.902,0 3.865,-0.038 5.871,-0.121 26.474,-1.103 48.676,-9.772 64.295,-25.06 l 0.007,45.288 c 0.003,15.613 -12.697,28.312 -28.305,28.312 z m 16.987,-86.07 c -12.701,12.701 -30.612,19.66 -53.24,20.686 -5.712,0.258 -11.024,0.084 -15.604,-0.266 L 462.262,172.811 c 3.289,-3.289 3.289,-8.621 0,-11.909 -3.289,-3.289 -8.621,-3.289 -11.909,0 l -214.48,214.48 c -1.4,-18.3 0.053,-48.476 20.425,-68.848 20.106,-20.106 70.419,-66.708 119.835,-106.167 26.952,-21.522 89.297,-68.967 118.907,-72.242 -3.275,29.61 -50.72,91.955 -72.242,118.908 -39.459,49.414 -86.061,99.727 -106.167,119.833 z"
         style="fill:#333333"
         inkscape:connector-curvature="0" /></g><g
       id="g915" /><g
       id="g917" /><g
       id="g919" /><g
       id="g921" /><g
       id="g923" /><g
       id="g925" /><g
       id="g927" /><g
       id="g929" /><g
       id="g931" /><g
       id="g933" /><g
       id="g935" /><g
       id="g937" /><g
       id="g939" /><g
       id="g941" /><g
       id="g943" /></g><circle
     style="opacity:1;fill:#07ff00;fill-opacity:1;fill-rule:nonzero;stroke:#ffffff;stroke-width:30;stroke-linecap:butt;stroke-linejoin:miter;stroke-miterlimit:4;stroke-dasharray:none;stroke-opacity:1"
     id="path8111"
     cx="412.87851"
     cy="412.87851"
     r="84.12149" /></svg>