<?xml version="1.0" encoding="UTF-8" standalone="no"?>
<!-- Generator: Adobe Illustrator 19.0.0, SVG Export Plug-In . SVG Version: 6.00 Build 0)  -->

<svg
   xmlns:dc="http://purl.org/dc/elements/1.1/"
   xmlns:cc="http://creativecommons.org/ns#"
   xmlns:rdf="http://www.w3.org/1999/02/22-rdf-syntax-ns#"
   xmlns:svg="http://www.w3.org/2000/svg"
   xmlns="http://www.w3.org/2000/svg"
   xmlns:sodipodi="http://sodipodi.sourceforge.net/DTD/sodipodi-0.dtd"
   xmlns:inkscape="http://www.inkscape.org/namespaces/inkscape"
   version="1.1"
   id="Layer_1"
   x="0px"
   y="0px"
   viewBox="0 0 386 158"
   xml:space="preserve"
   inkscape:version="0.91 r13725"
   sodipodi:docname="bridge-foot.svg"
   width="386"
   height="158"><metadata
     id="metadata43"><rdf:RDF><cc:Work
         rdf:about=""><dc:format>image/svg+xml</dc:format><dc:type
           rdf:resource="http://purl.org/dc/dcmitype/StillImage" /><dc:title></dc:title></cc:Work></rdf:RDF></metadata><defs
     id="defs41" /><sodipodi:namedview
     pagecolor="#ffffff"
     bordercolor="#666666"
     borderopacity="1"
     objecttolerance="10"
     gridtolerance="10"
     guidetolerance="10"
     inkscape:pageopacity="0"
     inkscape:pageshadow="2"
     inkscape:window-width="1920"
     inkscape:window-height="1017"
     id="namedview39"
     showgrid="false"
     inkscape:zoom="1.8437644"
     inkscape:cx="135.59893"
     inkscape:cy="137.19392"
     inkscape:window-x="1912"
     inkscape:window-y="-8"
     inkscape:window-maximized="1"
     inkscape:current-layer="Layer_1" /><g
     id="g9"
     transform="translate(0,-353.996)" /><g
     id="g11"
     transform="translate(0,-353.996)" /><g
     id="g13"
     transform="translate(0,-353.996)" /><g
     id="g15"
     transform="translate(0,-353.996)" /><g
     id="g17"
     transform="translate(0,-353.996)" /><g
     id="g19"
     transform="translate(0,-353.996)" /><g
     id="g21"
     transform="translate(0,-353.996)" /><g
     id="g23"
     transform="translate(0,-353.996)" /><g
     id="g25"
     transform="translate(0,-353.996)" /><g
     id="g27"
     transform="translate(0,-353.996)" /><g
     id="g29"
     transform="translate(0,-353.996)" /><g
     id="g31"
     transform="translate(0,-353.996)" /><g
     id="g33"
     transform="translate(0,-353.996)" /><g
     id="g35"
     transform="translate(0,-353.996)" /><g
     id="g37"
     transform="translate(0,-353.996)" /><rect
     style="opacity:1;fill:#004032;fill-opacity:1;fill-rule:nonzero;stroke:none;stroke-width:20;stroke-linejoin:round;stroke-miterlimit:4;stroke-dasharray:none;stroke-opacity:1"
     id="rect8082"
     width="333.06903"
     height="127.75044"
     x="26.238426"
     y="15.088687"
     ry="0" /><rect
     style="opacity:1;fill:#ffffff;fill-opacity:1;fill-rule:nonzero;stroke:none;stroke-width:20;stroke-linejoin:round;stroke-miterlimit:4;stroke-dasharray:none;stroke-opacity:1"
     id="rect8082-3"
     width="362.77762"
     height="91.704811"
     x="8.3432741"
     y="32.704689"
     ry="0" /><path
     style="opacity:1;fill:#004032;fill-opacity:1;fill-rule:nonzero;stroke:none;stroke-width:20;stroke-linejoin:round;stroke-miterlimit:4;stroke-dasharray:none;stroke-opacity:1"
     d="M 29.451418,15.091971 C 13.302928,15.078471 7.6733046,8.5344504 2.2779528,0.4725103 1.5428248,-0.0718097 0.10417024,0.3193003 0.09870024,1.2146903 0.09944684,14.526791 7.5962321,32.619496 26.48875,32.619466 c 1.327797,-4.48828 3.997585,-13.327075 2.962488,-17.527495 z"
     id="path8099"
     inkscape:connector-curvature="0"
     sodipodi:nodetypes="cccccc" /><path
     style="opacity:1;fill:#004032;fill-opacity:1;fill-rule:nonzero;stroke:none;stroke-width:20;stroke-linejoin:round;stroke-miterlimit:4;stroke-dasharray:none;stroke-opacity:1"
     d="m 356.36566,15.097541 c 16.35516,-0.0135 22.05684,-6.5575306 27.52125,-14.6194607 0.7445,-0.54433 2.20155,-0.15322 2.20712,0.74218 -7.5e-4,13.3120907 -7.80203,31.3817737 -26.93634,31.3817537 -1.34478,-4.48829 -3.84019,-13.304053 -2.79108,-17.504473 z"
     id="path8099-0"
     inkscape:connector-curvature="0"
     sodipodi:nodetypes="cccccc" /><path
     style="opacity:1;fill:#004032;fill-opacity:1;fill-rule:nonzero;stroke:none;stroke-width:20;stroke-linejoin:round;stroke-miterlimit:4;stroke-dasharray:none;stroke-opacity:1"
     d="m 29.55368,142.968 c -16.187859,0.0135 -21.8312133,6.55755 -27.2397138,14.61946 -0.7368898,0.54435 -2.1790368,0.15321 -2.18456596,-0.74218 7.3315e-4,-13.31207 7.17907146,-32.48954 26.11765176,-32.48948 1.331027,4.48828 4.344069,14.4118 3.305997,18.6122 z"
     id="path8099-0-3"
     inkscape:connector-curvature="0"
     sodipodi:nodetypes="cccccc" /><path
     style="opacity:1;fill:#004032;fill-opacity:1;fill-rule:nonzero;stroke:none;stroke-width:20;stroke-linejoin:round;stroke-miterlimit:4;stroke-dasharray:none;stroke-opacity:1"
     d="m 356.28587,142.94151 c 16.35495,0.0135 22.05656,6.55753 27.52089,14.61947 0.7445,0.54435 2.20153,0.15321 2.2071,-0.74218 -7.5e-4,-13.3121 -7.80629,-32.48954 -26.94035,-32.48949 -1.34476,4.48829 -3.83578,14.41181 -2.7867,18.6122 z"
     id="path8099-0-8"
     inkscape:connector-curvature="0"
     sodipodi:nodetypes="cccccc" /><rect
     style="opacity:1;fill:#004032;fill-opacity:1;fill-rule:nonzero;stroke:none;stroke-width:20;stroke-linejoin:round;stroke-miterlimit:4;stroke-dasharray:none;stroke-opacity:1"
     id="rect8093"
     width="37.905804"
     height="33.659927"
     x="63.000504"
     y="60.730011" /><rect
     style="opacity:1;fill:#004032;fill-opacity:1;fill-rule:nonzero;stroke:none;stroke-width:20;stroke-linejoin:round;stroke-miterlimit:4;stroke-dasharray:none;stroke-opacity:1"
     id="rect8093-8"
     width="37.905804"
     height="33.659927"
     x="118.19801"
     y="60.730011" /><rect
     style="opacity:1;fill:#004032;fill-opacity:1;fill-rule:nonzero;stroke:none;stroke-width:20;stroke-linejoin:round;stroke-miterlimit:4;stroke-dasharray:none;stroke-opacity:1"
     id="rect8093-5"
     width="37.905804"
     height="33.659927"
     x="173.3956"
     y="60.730011" /><rect
     style="opacity:1;fill:#004032;fill-opacity:1;fill-rule:nonzero;stroke:none;stroke-width:20;stroke-linejoin:round;stroke-miterlimit:4;stroke-dasharray:none;stroke-opacity:1"
     id="rect8093-3"
     width="37.905804"
     height="33.659927"
     x="228.59314"
     y="60.730011" /><rect
     style="opacity:1;fill:#004032;fill-opacity:1;fill-rule:nonzero;stroke:none;stroke-width:20;stroke-linejoin:round;stroke-miterlimit:4;stroke-dasharray:none;stroke-opacity:1"
     id="rect8093-2"
     width="37.905804"
     height="33.659927"
     x="283.79059"
     y="60.730011" /></svg>