<?xml version="1.0" encoding="UTF-8" standalone="no"?>
<!-- Generator: Adobe Illustrator 19.0.0, SVG Export Plug-In . SVG Version: 6.00 Build 0)  -->

<svg
   xmlns:dc="http://purl.org/dc/elements/1.1/"
   xmlns:cc="http://creativecommons.org/ns#"
   xmlns:rdf="http://www.w3.org/1999/02/22-rdf-syntax-ns#"
   xmlns:svg="http://www.w3.org/2000/svg"
   xmlns="http://www.w3.org/2000/svg"
   xmlns:sodipodi="http://sodipodi.sourceforge.net/DTD/sodipodi-0.dtd"
   xmlns:inkscape="http://www.inkscape.org/namespaces/inkscape"
   version="1.1"
   id="Layer_1"
   x="0px"
   y="0px"
   viewBox="0 0 511.999 511.999"
   style="enable-background:new 0 0 511.999 511.999;"
   xml:space="preserve"
   inkscape:version="0.91 r13725"
   sodipodi:docname="marker-activity-walk-contents.svg"><metadata
     id="metadata89"><rdf:RDF><cc:Work
         rdf:about=""><dc:format>image/svg+xml</dc:format><dc:type
           rdf:resource="http://purl.org/dc/dcmitype/StillImage" /><dc:title /></cc:Work></rdf:RDF></metadata><defs
     id="defs87" /><sodipodi:namedview
     pagecolor="#ffffff"
     bordercolor="#666666"
     borderopacity="1"
     objecttolerance="10"
     gridtolerance="10"
     guidetolerance="10"
     inkscape:pageopacity="0"
     inkscape:pageshadow="2"
     inkscape:window-width="1920"
     inkscape:window-height="1017"
     id="namedview85"
     showgrid="false"
     inkscape:zoom="1.3037307"
     inkscape:cx="90.90717"
     inkscape:cy="237.94577"
     inkscape:window-x="1912"
     inkscape:window-y="-8"
     inkscape:window-maximized="1"
     inkscape:current-layer="Layer_1" /><g
     id="g8155"
     transform="matrix(1.0039928,0,0,1.0032495,14.460488,0)"><path
       inkscape:connector-curvature="0"
       id="path3"
       d="m 215.14605,66.127595 c -13.19341,-8.72905 -30.97291,-5.601455 -40.34023,7.095177 l -56.96298,77.210638 c -9.96845,13.51173 -6.56976,32.54468 7.471,41.83434 l 31.58984,20.90011 92.00076,-124.704521 -33.75839,-22.335744 z"
       style="fill:#b9e578" /><path
       inkscape:connector-curvature="0"
       id="path5"
       d="m 215.14605,66.127595 c -13.19341,-8.72905 -30.97291,-5.601455 -40.34023,7.095177 l -6.868,9.308096 c 8.90648,-3.773952 19.47607,-3.132204 28.09174,2.56791 l 33.75931,22.335742 -76.32569,103.45587 3.44142,2.27655 92.00077,-124.704523 -33.75932,-22.334822 z"
       style="fill:#ceff86" /><path
       inkscape:connector-curvature="0"
       id="path7"
       d="m 348.45424,98.916622 0,0 0,0 -7.9021,-32.592629 -8.51811,-22.738681 -4.50527,1.344349 -0.34377,-4.316116 0.8743,-0.06915 c -8.82936,-6.278242 -19.64051,-9.986728 -31.33062,-9.986728 -11.65944,0 -22.44737,3.681747 -31.26001,9.931403 l -0.0706,0.05532 0.87523,0.06915 -0.3447,4.317038 -4.5062,-1.344349 -8.51811,22.73868 -7.90211,32.59263 9.4e-4,0 0.0335,0.114334 c 6.53908,22.209417 27.2007,38.436587 51.69305,38.436587 24.51092,0 45.18462,-16.25114 51.70793,-38.486378 l 0.0167,-0.06546 0,0 0,0 z"
       style="fill:#f0c19c" /><path
       inkscape:connector-curvature="0"
       id="path9"
       d="m 117.82705,425.46807 -29.832892,14.64954 -31.584264,-14.64954 68.166226,-88.46426 0,-104.94775 57.35042,0 0,116.73616 c 0,7.54699 -3.02147,14.78508 -8.39917,20.1219 l -55.70032,56.55395 z"
       style="fill:#70bbd6" /><polygon
       transform="matrix(0.92911294,0,0,0.92205019,3.4904079,0)"
       id="polygon11"
       points="233.276,95.941 134.256,231.189 224.534,299.426 323.554,164.179 "
       style="fill:#ff6465" /><path
       inkscape:connector-curvature="0"
       id="path13"
       d="m 357.1907,464.97516 c -0.51194,0 -1.02946,-0.0268 -1.5507,-0.083 -7.87236,-0.83997 -13.56876,-7.85402 -12.72327,-15.66838 l 32.70385,-301.89583 c 0.84642,-7.81346 7.91976,-13.46839 15.78842,-12.62656 7.87236,0.83999 13.56876,7.85495 12.72326,15.6684 l -32.70385,301.89583 c -0.78974,7.2971 -7.00644,12.70954 -14.23771,12.70954 z"
       style="fill:#946c55" /><path
       inkscape:connector-curvature="0"
       id="path15"
       d="m 301.90662,7.1145393 -10.35776,0 c -22.96023,0 -41.57315,18.4714317 -41.57315,41.2571357 l 0,0 93.50592,0 0,0 C 343.48071,25.585971 324.86778,7.1145393 301.90662,7.1145393 Z"
       style="fill:#ff6465" /><path
       inkscape:connector-curvature="0"
       id="path17"
       d="m 307.72007,7.5239295 c -1.90004,-0.2637063 -3.84003,-0.4103123 -5.81345,-0.4103123 l -10.35776,0 c -22.96023,0 -41.57315,18.4714318 -41.57315,41.2571358 l 0,0 21.98467,0 0,0 c -9.3e-4,-20.825426 15.55335,-38.039181 35.75969,-40.8468235 z"
       style="fill:#ff8080" /><g
       transform="matrix(0.92911294,0,0,0.92205019,3.4904079,0)"
       id="g19"><path
         inkscape:connector-curvature="0"
         id="path21"
         d="m 349.331,43.973 -0.942,0.075 2.571,32.453 c 1.073,13.558 9.113,24.889 20.323,30.781 1.488,-5.133 2.301,-10.552 2.301,-16.164 10e-4,-19.438 -9.574,-36.627 -24.253,-47.145 z"
         style="fill:#5a4146" /><path
         inkscape:connector-curvature="0"
         id="path23"
         d="m 257.636,91.115 c 0,5.612 0.814,11.032 2.301,16.164 11.21,-5.892 19.249,-17.223 20.322,-30.78 l 2.571,-32.453 -0.942,-0.075 c -14.677,10.52 -24.252,27.709 -24.252,47.144 z"
         style="fill:#5a4146" /></g><path
       inkscape:connector-curvature="0"
       id="path25"
       d="m 343.48071,37.388213 -93.50593,0 c -6.11263,0 -11.0676,4.917294 -11.0676,10.984384 0,6.06709 4.95497,10.984383 11.0676,10.984383 l 93.50593,0 c 6.11263,0 11.06851,-4.917293 11.06851,-10.984383 0,-6.06709 -4.95495,-10.984384 -11.06851,-10.984384 z"
       style="fill:#7dd2f0" /><path
       inkscape:connector-curvature="0"
       id="path27"
       d="m 260.89092,48.371675 c 0,-6.067091 4.95496,-10.984384 11.06853,-10.984384 l -21.98467,0 c -6.11263,0 -11.06853,4.918216 -11.06853,10.984384 0,6.066168 4.95496,10.984384 11.06853,10.984384 l 21.98467,0 c -6.11263,0 -11.06853,-4.918216 -11.06853,-10.984384 z"
       style="fill:#8ce1ff" /><path
       inkscape:connector-curvature="0"
       id="path29"
       d="m 353.56251,158.93379 0,0 c -9.98797,-2.39271 -19.80962,-5.55351 -29.41571,-9.50265 -24.16809,-9.93417 -45.80063,-24.2785 -64.29834,-42.63468 l -14.6168,-14.505691 c -10.26391,-10.185888 -26.90711,-10.188654 -37.17381,0 -10.26484,10.186821 -10.26577,26.703491 0,36.891231 l 14.6168,14.50569 c 23.4025,23.22645 50.77417,41.37516 81.3522,53.94455 12.74929,5.24093 25.7996,9.38831 39.07663,12.46151 l 21.08622,-23.38873 -10.62719,-27.77123 z"
       style="fill:#ff8080" /><path
       inkscape:connector-curvature="0"
       id="path31"
       d="m 206.55454,93.922798 c -0.36142,0.424143 -0.70984,0.853819 -1.03967,1.294558 -0.0176,0.02397 -0.0362,0.04519 -0.0538,0.06916 -0.3447,0.464713 -0.6671,0.942335 -0.97743,1.422723 -0.0744,0.1171 -0.14772,0.233279 -0.22113,0.351301 -0.28337,0.455492 -0.55468,0.916518 -0.80647,1.38492 -0.0186,0.0332 -0.038,0.06546 -0.0567,0.09958 -0.26945,0.506206 -0.51752,1.021631 -0.75167,1.54166 -0.0483,0.10881 -0.0967,0.21853 -0.144,0.32825 -0.21276,0.4933 -0.41531,0.98936 -0.59648,1.49189 -0.0112,0.0312 -0.025,0.0627 -0.0353,0.094 -0.1942,0.54494 -0.36701,1.0954 -0.52402,1.64955 -0.026,0.0914 -0.0492,0.1835 -0.0744,0.27479 -0.14401,0.53294 -0.27502,1.06865 -0.38559,1.60897 -0.004,0.0204 -0.009,0.0396 -0.013,0.0609 -0.11707,0.57812 -0.20998,1.15995 -0.28803,1.74268 -0.008,0.0645 -0.0149,0.13001 -0.0241,0.19455 -0.0706,0.57075 -0.12543,1.14427 -0.15887,1.7187 0,0.005 -9.4e-4,0.012 -9.4e-4,0.0185 -0.0335,0.60302 -0.0447,1.20788 -0.0371,1.81183 0,0.035 0.002,0.0692 0.003,0.10327 0.0214,1.21249 0.12543,2.42406 0.31497,3.62458 9.3e-4,0.008 0.003,0.0175 0.005,0.0258 0.29267,1.83119 0.78047,3.63565 1.46707,5.38293 0,9.2e-4 9.3e-4,0.002 9.3e-4,0.004 1.28218,-3.26314 3.24447,-6.32435 5.89987,-8.96049 10.26577,-10.18773 26.90896,-10.18588 37.17381,0 l 14.6168,14.5057 c 18.49771,18.35617 40.12932,32.70143 64.29834,42.63468 9.60609,3.94913 19.42867,7.11084 29.41572,9.50265 l 0,0 c 2.62474,0.62884 5.2662,1.18391 7.91324,1.70579 l -7.91324,-20.67698 0,0 c -9.98797,-2.39272 -19.80963,-5.55352 -29.41572,-9.50265 -24.1681,-9.93417 -45.80063,-24.2785 -64.29834,-42.63468 L 245.2298,92.289847 c -10.26391,-10.185888 -26.90712,-10.188654 -37.1738,0 -0.42369,0.420455 -0.8232,0.854742 -1.21157,1.295481 -0.0958,0.111567 -0.19326,0.22498 -0.28989,0.33747 z"
       style="fill:#ff9c9c" /><path
       inkscape:connector-curvature="0"
       id="path33"
       d="m 399.99121,164.40247 c -15.76147,0 -31.28695,-1.84226 -46.4287,-5.46868 l -10.4581,51.15996 c 18.56925,4.29768 37.5882,6.48202 56.88588,6.48202 14.51738,0 26.28553,-11.6787 26.28553,-26.08573 0,-14.40704 -11.76815,-26.08757 -26.28461,-26.08757 z"
       style="fill:#7dd2f0" /><path
       inkscape:connector-curvature="0"
       id="path35"
       d="m 353.56251,158.93379 -3.68951,18.05098 c 1.22737,0.31902 2.4575,0.62607 3.68951,0.92113 l 0,0 c 15.14082,3.62642 30.6663,5.46868 46.4287,5.46868 11.14285,0 20.66068,6.88494 24.48584,16.60059 0.14123,-0.35961 0.27502,-0.72381 0.40045,-1.09079 0.006,-0.0175 0.0112,-0.0332 0.0176,-0.0507 0.11987,-0.3513 0.23135,-0.70444 0.33542,-1.06127 0.0121,-0.0414 0.0241,-0.084 0.0362,-0.1254 0.0967,-0.33562 0.18675,-0.6731 0.26944,-1.01426 0.0186,-0.0729 0.0344,-0.1466 0.052,-0.22036 0.0734,-0.31442 0.14309,-0.62976 0.20533,-0.94787 0.0223,-0.11157 0.0399,-0.22591 0.0614,-0.3384 0.052,-0.28491 0.1022,-0.57075 0.14401,-0.85935 0.0241,-0.16044 0.0408,-0.32271 0.0623,-0.485 0.0316,-0.24894 0.065,-0.49513 0.09,-0.74594 0.0223,-0.22866 0.0362,-0.45825 0.0529,-0.68876 0.013,-0.19087 0.0317,-0.37989 0.0408,-0.57075 0.0214,-0.42783 0.0326,-0.85659 0.0326,-1.28903 0,-14.40703 -11.76909,-26.08572 -26.28554,-26.08572 -7.88073,0 -15.70293,-0.4601 -23.4471,-1.37478 -7.74508,-0.91467 -15.41212,-2.28022 -22.98253,-4.09298 l 0,0 z"
       style="fill:#8ce1ff" /><path
       inkscape:connector-curvature="0"
       id="path37"
       d="m 368.3382,214.56753 -2.556,23.59619 c 9.48624,1.18022 19.0431,1.86808 28.61668,2.0617 l 2.56621,-23.69391 c -9.62097,-0.11435 -19.16946,-0.77085 -28.62689,-1.96398 z"
       style="opacity:0.1;enable-background:new" /><path
       inkscape:connector-curvature="0"
       id="path39"
       d="m 261.39636,296.26302 -120.48364,-100.28586 0,0 c -22.90636,20.01678 -22.47525,55.57658 0.9096,75.04105 l 72.4708,60.32144 0,94.12842 27.59281,17.0819 29.75855,-17.0819 0,-107.40225 c -9.4e-4,-8.4137 -3.75176,-16.3959 -10.24812,-21.8028 z"
       style="fill:#7dd2f0" /><g
       transform="matrix(0.92911294,0,0,0.92205019,3.4904079,0)"
       id="g41"><path
         inkscape:connector-curvature="0"
         id="path43"
         d="m 292.989,461.437 -66.103,0 0,37.052 96.669,0 0,-6.486 c -0.001,-16.88 -13.685,-30.566 -30.566,-30.566 z"
         style="fill:#946c55" /><path
         inkscape:connector-curvature="0"
         id="path45"
         d="m 123.06,461.437 -66.103,0 0,37.052 96.669,0 0,-6.486 c 0,-16.88 -13.685,-30.566 -30.566,-30.566 z"
         style="fill:#946c55" /></g><ellipse
       ry="6.2478118"
       rx="6.2956691"
       id="circle47"
       cy="79.619949"
       cx="278.14362" /><ellipse
       ry="6.2478118"
       rx="6.2956691"
       id="circle49"
       cy="79.619949"
       cx="315.3165" /><path
       inkscape:connector-curvature="0"
       id="path51"
       d="m 314.28797,94.241827 c -3.0001,-2.564221 -7.52768,-2.228594 -10.10967,0.750549 -0.74422,0.858429 -3.42565,2.220297 -7.44963,2.220297 -4.02399,0 -6.70541,-1.361868 -7.44962,-2.221219 -2.58387,-2.9773 -7.10958,-3.314769 -10.10968,-0.751471 -3.00105,2.5633 -3.34017,7.055527 -0.75724,10.032827 3.893,4.48854 10.74055,7.16802 18.31747,7.16802 7.57598,0 14.42262,-2.67856 18.31467,-7.16618 2.58201,-2.97729 2.24381,-7.469523 -0.7563,-10.032823 z" /><path
       inkscape:connector-curvature="0"
       id="path53"
       d="m 433.44578,190.48727 c 0,-14.69564 -9.67392,-27.18389 -23.03086,-31.54242 0.83249,-7.68621 1.92513,-14.79336 -2.61266,-21.62576 -3.94222,-5.93524 -10.73497,-9.81614 -17.94209,-9.81614 -7.07985,0 -13.80013,3.64947 -17.76465,9.44732 -3.61518,5.28704 -3.79914,11.4491 -4.46438,17.58442 -4.15407,-0.70814 -8.28491,-1.53798 -12.38601,-2.51996 -9.65534,-2.3125 -19.19547,-5.39492 -28.3556,-9.16057 -2.25681,-0.92759 -4.48389,-1.90772 -6.68682,-2.91091 1.68262,0.7192 7.14581,-3.50012 8.51254,-4.33734 17.12262,-10.48001 28.28032,-29.54616 29.00783,-49.492877 0.28524,-7.806077 -1.00159,-15.662866 -3.71181,-22.993165 4.65486,-3.282499 7.70699,-8.664506 7.70699,-14.750037 0,-8.694934 -6.21205,-15.971754 -14.46072,-17.703364 C 340.00582,12.3859 322.03677,0 301.90662,0 l -10.35776,0 c -20.13015,0 -38.0992,12.3859 -45.34999,30.668311 -8.24866,1.731611 -14.46073,9.00843 -14.46073,17.703364 0,6.086453 3.05214,11.467538 7.707,14.750037 -1.06569,2.882329 -1.9084,5.845798 -2.5244,8.85998 L 219.12358,60.207111 c -16.4295,-10.869127 -38.43647,-6.998361 -50.10056,8.812034 l -12.7242,17.246027 c -2.33856,3.17093 -1.64546,7.621667 1.54976,9.943389 3.19337,2.319878 7.68005,1.633873 10.01955,-1.537981 l 12.72421,-17.246948 c 7.11979,-9.650177 20.55198,-12.01247 30.57989,-5.378318 l 9.20008,6.087374 c -0.0121,0.0018 -0.0241,0.0055 -0.0362,0.0083 -16.11174,3.097167 -28.13261,18.591298 -27.06041,34.816612 l -57.37086,77.76387 -6.61157,-4.37513 c -5.14729,-3.40513 -8.57665,-8.6101 -9.65721,-14.65599 -1.08055,-6.04496 0.33821,-12.10283 3.9924,-17.05608 l 27.09759,-36.72987 c 2.33858,-3.17001 1.64546,-7.62167 -1.54977,-9.94339 -3.19429,-2.31988 -7.68004,-1.63387 -10.01955,1.53798 l -27.09758,36.72988 c -5.98813,8.11588 -8.31091,18.04082 -6.54281,27.94456 1.7681,9.90282 7.38738,18.43179 15.82094,24.01111 l 5.16307,3.41712 c -6.36628,9.41875 -9.80213,20.60598 -9.66184,32.18601 0.0297,2.42407 0.2332,4.82139 0.5677,7.19199 l 0,93.61391 -66.692668,86.55101 c -0.02508,0.0323 -0.04274,0.0683 -0.06783,0.10142 -0.895664,1.20144 -1.406677,2.72374 -1.406677,4.22022 l 0,34.16381 c 0,3.92886 3.210086,7.11455 7.169036,7.11455 l 89.816419,0 c 3.95895,0 7.16904,-3.18569 7.16904,-7.11455 l 0,-5.98042 c 0,-14.47342 -8.82658,-26.93401 -21.41606,-32.37503 l 46.61825,-47.33252 c 6.77044,-6.71898 10.49804,-15.6518 10.49804,-25.15261 l 0,-29.13955 18.02851,15.00544 0,90.81088 0,34.16381 c 0,3.92886 3.21009,7.11455 7.16904,7.11455 l 89.81641,0 c 3.95895,0 7.16904,-3.18569 7.16904,-7.11455 l 0,-5.98042 c 0,-18.42533 -14.30184,-33.58844 -32.46506,-35.155 l 0,-100.4288 c 0,-10.54455 -4.66973,-20.47872 -12.81061,-27.25395 l -34.6169,-28.81407 49.58676,-67.21193 c 3.9636,2.04234 7.98016,3.99709 12.06268,5.8412 3.60402,1.62742 7.85379,0.0479 9.4946,-3.52777 1.64082,-3.57571 0.0483,-7.79409 -3.55479,-9.42244 -26.41468,-11.9304 -50.71097,-28.64993 -71.2295,-49.02171 -7.56299,-7.50548 -19.16017,-14.64216 -20.13295,-26.26737 -0.83343,-9.95169 6.53352,-19.123315 16.51312,-20.431704 5.20024,-0.681396 10.61976,0.74686 14.84908,4.296754 0.40696,0.342081 0.80926,0.691538 1.17812,1.056669 10.59932,10.493851 20.98123,21.286441 32.76424,30.502341 7.34556,5.74529 15.09157,10.99822 23.16185,15.69053 0.009,0.006 0.0195,0.0111 0.0362,0.0213 15.68528,8.60365 31.76172,15.83621 49.07017,20.60137 l -7.61781,37.27111 c -3.56871,-0.94418 -7.17274,-1.98425 -10.76748,-3.11007 -3.77777,-1.18299 -7.80269,0.89623 -8.99474,4.64344 -1.19206,3.74721 0.90309,7.74338 4.67901,8.92638 5.85899,1.8358 11.74678,3.45768 17.55188,4.83707 6.76208,1.56933 13.56969,2.90077 20.43212,3.95467 l -24.67724,227.81549 c -1.26731,11.70082 7.29353,22.24445 19.08398,23.50213 0.76559,0.0812 1.54604,0.12356 2.31721,0.12356 11.00255,0 20.18869,-8.19518 21.36588,-19.06247 l 24.86213,-229.51212 c 16.84296,-1.70948 30.02707,-15.86848 30.02707,-33.02692 z M 301.44206,130.11603 c -3.29371,-1.96765 -6.52794,-4.03397 -9.69622,-6.1971 -0.0344,-0.0231 -0.0688,-0.0461 -0.10313,-0.0701 -1.49866,-1.03178 -33.27061,-25.86443 -31.94848,-27.268712 6.52516,-6.931973 10.56773,-15.870329 11.33424,-25.482701 l 0.36887,-4.626849 50.65709,0 0.36885,4.625926 c 0.99417,12.465197 7.37066,23.596186 17.37164,30.813996 -6.45641,15.28944 -20.93199,26.47667 -38.35286,28.20551 z M 343.4231,84.012603 c 0,0.655578 -0.0195,1.306544 -0.0465,1.955668 -3.81216,-4.424918 -6.17862,-9.978427 -6.65803,-15.994805 l -0.27874,-3.502868 3.51577,0 c 2.30235,5.556275 3.46745,11.438032 3.46745,17.542005 z m 0.0586,-39.510773 c 2.1509,0 3.89949,1.73622 3.89949,3.869845 0,2.134547 -1.74952,3.869844 -3.89949,3.869844 l -14.80263,0 -63.90346,0 -14.80076,0 c -2.1509,0 -3.89949,-1.73622 -3.89949,-3.869844 0,-2.134546 1.74952,-3.869845 3.89949,-3.869845 l 1.50144,0 90.5021,0 1.50331,0 z m -86.74481,25.47348 c -0.35584,4.457191 -1.77087,8.701388 -4.07321,12.423705 l -2.5049,-1.656924 c 0.34285,-4.937579 1.45406,-9.715643 3.34388,-14.270571 l 3.51484,0 -0.28061,3.50379 z m 34.81201,-55.746232 10.35776,0 c 12.04316,0 22.99368,6.275474 29.16764,16.044596 l -68.6949,0 c 6.17582,-9.769122 17.12634,-16.044596 29.1695,-16.044596 z m -152.52224,438.288252 -75.447692,0 0,-19.93564 54.247182,0 0,0 c 11.32496,9.3e-4 20.60587,8.84431 21.20051,19.93564 z m 35.73182,-144.79968 0,41.07366 c 0,5.70103 -2.23637,11.05998 -6.35606,15.15019 l -53.5931,54.41296 -43.893147,0 59.354517,-77.029 c 0.95606,-1.24108 1.47358,-2.75969 1.47358,-4.32165 l 0,-65.73849 c 0.1245,0.13461 0.26107,0.2591 0.38651,0.39279 1.59435,1.70026 3.28905,3.31846 5.08318,4.81034 l 37.54452,31.2492 z m 122.15141,144.79968 -75.44769,0 0,-19.93564 50.18232,0 4.0658,0 c 11.3231,9.3e-4 20.60494,8.84431 21.19957,19.93564 z m -32.43533,-134.45151 0,100.28864 -43.01329,0 0,-87.01481 c 0,-2.10411 -0.93747,-4.09851 -2.56156,-5.45023 -14.28512,-11.89076 -28.56651,-23.78613 -42.85162,-35.67505 -18.6538,-15.52548 -44.53796,-29.08607 -44.87151,-56.59452 -0.11893,-9.70273 3.10973,-19.04401 9.02448,-26.56426 0.61042,-0.23236 1.19019,-0.55323 1.72443,-0.94971 l 24.27866,20.20857 c 0,0 50.82711,42.30644 50.8299,42.30827 l 39.75581,33.09147 c 4.88435,4.06439 7.6847,10.02453 7.6847,16.35163 z m 3.85675,-130.23313 -47.95617,65.00177 -69.716,-58.02831 6.1721,-8.36576 42.10926,-57.07583 c -1.02852,1.46976 16.90615,17.60839 18.66496,19.35292 0.026,0.0259 0.0538,0.0507 0.079,0.0756 15.1046,14.97503 32.07949,28.03217 50.40717,38.893 0.0818,0.0479 0.15981,0.0986 0.23972,0.14661 z m 113.51715,-31.41518 0.90217,-8.32888 c 0.41996,-3.87998 3.92178,-6.73741 7.89468,-6.31235 3.93014,0.41954 6.78437,3.93347 6.3607,7.83467 l -0.82598,7.62166 c -2.14532,-0.0396 -4.28785,-0.11433 -6.43039,-0.22866 -2.63682,-0.14201 -5.27272,-0.33564 -7.90118,-0.58644 z M 364.3012,451.50585 c -0.39303,3.62274 -3.44887,6.35477 -7.10958,6.35477 -0.26108,0 -0.52495,-0.0138 -0.78417,-0.0414 -3.93015,-0.41953 -6.78437,-3.93347 -6.3607,-7.83467 l 24.65029,-227.54907 c 0.1022,0.0102 0.20533,0.0157 0.30753,0.0258 4.60933,0.45826 9.23167,0.7441 13.85772,0.9617 0.0492,0.002 0.0985,0.006 0.14681,0.008 L 364.3012,451.5058 Z m 35.69001,-242.04648 c -16.25389,0 -32.52638,-1.6145 -48.45603,-4.82324 l 7.60201,-37.18813 c -0.0585,0.26279 16.91357,2.67579 18.45868,2.84269 7.43941,0.77267 14.91319,1.22447 22.39534,1.22447 10.54079,0 19.1165,8.51053 19.1165,18.97119 0,10.46251 -8.57571,18.97302 -19.1165,18.97302 z" /></g><g
     id="g55" /><g
     id="g57" /><g
     id="g59" /><g
     id="g61" /><g
     id="g63" /><g
     id="g65" /><g
     id="g67" /><g
     id="g69" /><g
     id="g71" /><g
     id="g73" /><g
     id="g75" /><g
     id="g77" /><g
     id="g79" /><g
     id="g81" /><g
     id="g83" /><circle
     style="opacity:1;fill:#07ff00;fill-opacity:1;fill-rule:nonzero;stroke:#ffffff;stroke-width:30;stroke-linecap:butt;stroke-linejoin:miter;stroke-miterlimit:4;stroke-dasharray:none;stroke-opacity:1"
     id="path8111"
     cx="412.8775"
     cy="412.8775"
     r="84.12149" /></svg>