<?xml version="1.0" encoding="UTF-8" standalone="no"?>
<!-- Generator: Adobe Illustrator 19.0.0, SVG Export Plug-In . SVG Version: 6.00 Build 0)  -->

<svg
   xmlns:dc="http://purl.org/dc/elements/1.1/"
   xmlns:cc="http://creativecommons.org/ns#"
   xmlns:rdf="http://www.w3.org/1999/02/22-rdf-syntax-ns#"
   xmlns:svg="http://www.w3.org/2000/svg"
   xmlns="http://www.w3.org/2000/svg"
   xmlns:sodipodi="http://sodipodi.sourceforge.net/DTD/sodipodi-0.dtd"
   xmlns:inkscape="http://www.inkscape.org/namespaces/inkscape"
   version="1.1"
   id="Layer_1"
   x="0px"
   y="0px"
   viewBox="0 0 288 288"
   xml:space="preserve"
   inkscape:version="0.91 r13725"
   sodipodi:docname="marker-blank.svg"
   width="288"
   height="288"><metadata
     id="metadata61"><rdf:RDF><cc:Work
         rdf:about=""><dc:format>image/svg+xml</dc:format><dc:type
           rdf:resource="http://purl.org/dc/dcmitype/StillImage" /><dc:title></dc:title></cc:Work></rdf:RDF></metadata><defs
     id="defs59" /><sodipodi:namedview
     pagecolor="#ffffff"
     bordercolor="#666666"
     borderopacity="1"
     objecttolerance="10"
     gridtolerance="10"
     guidetolerance="10"
     inkscape:pageopacity="0"
     inkscape:pageshadow="2"
     inkscape:window-width="1920"
     inkscape:window-height="1017"
     id="namedview57"
     showgrid="false"
     inkscape:zoom="0.92187505"
     inkscape:cx="204.4698"
     inkscape:cy="164.29006"
     inkscape:window-x="3832"
     inkscape:window-y="-8"
     inkscape:window-maximized="1"
     inkscape:current-layer="Layer_1" /><g
     id="g27"
     transform="translate(0,-224)" /><g
     id="g29"
     transform="translate(0,-224)" /><g
     id="g31"
     transform="translate(0,-224)" /><g
     id="g33"
     transform="translate(0,-224)" /><g
     id="g35"
     transform="translate(0,-224)" /><g
     id="g37"
     transform="translate(0,-224)" /><g
     id="g39"
     transform="translate(0,-224)" /><g
     id="g41"
     transform="translate(0,-224)" /><g
     id="g43"
     transform="translate(0,-224)" /><g
     id="g45"
     transform="translate(0,-224)" /><g
     id="g47"
     transform="translate(0,-224)" /><g
     id="g49"
     transform="translate(0,-224)" /><g
     id="g51"
     transform="translate(0,-224)" /><g
     id="g53"
     transform="translate(0,-224)" /><g
     id="g55"
     transform="translate(0,-224)" /><ellipse
     style="fill:#d78f3a;fill-opacity:1;stroke-width:9.62970924;stroke-miterlimit:4;stroke-dasharray:none"
     cx="144.34827"
     cy="144.34882"
     id="circle3"
     rx="138.28767"
     ry="138.28819" /><ellipse
     style="fill:none;fill-opacity:1;stroke:#ffffff;stroke-width:9.60125542;stroke-miterlimit:4;stroke-dasharray:none;stroke-opacity:1"
     cx="143.99988"
     cy="144.00043"
     id="circle3-5"
     rx="139.19925"
     ry="139.19978" /><g
     aria-label="?"
     style="font-style:normal;font-weight:normal;font-size:268.2739563px;line-height:1.25;font-family:sans-serif;letter-spacing:0px;word-spacing:0px;fill:#ffffff;fill-opacity:1;stroke:none;stroke-width:6.7068491"
     id="text4508-1"
     transform="matrix(0.82961831,0,0,0.82962147,27.424821,5.0878657)"><path
       d="m 124.1273,243.97287 0,-26.06764 27.37757,0 0,26.06764 z m 2.48887,-69.29537 q 0,-24.36473 12.05137,-37.46404 11.26541,-8.51456 22.39982,-17.1601 12.05137,-9.5625 12.05137,-25.412673 0,-10.479451 -9.69349,-18.077054 -9.03853,-6.942636 -19.77996,-6.942636 -29.21147,0 -29.21147,33.534243 l -22.006852,0 q 0,-25.019689 13.361302,-40.0839 13.88527,-15.457191 37.85702,-15.457191 20.17294,0 36.2851,13.3613 17.1601,14.016267 17.1601,33.796231 0,20.04195 -12.44435,33.14127 -11.65839,9.56249 -23.31678,19.12499 Q 148.885,158.43435 148.885,174.6775 l 0,16.89811 -22.26883,0 z"
       style="font-style:normal;font-variant:normal;font-weight:normal;font-stretch:normal;font-family:Shruti;-inkscape-font-specification:Shruti;fill:#ffffff;fill-opacity:1;stroke-width:6.7068491"
       id="path4500"
       inkscape:connector-curvature="0" /></g><ellipse
     style="fill:none;fill-opacity:1;stroke:none;stroke-width:0.80151439;stroke-miterlimit:4;stroke-dasharray:none;stroke-opacity:1"
     cx="-19.951069"
     cy="202.11687"
     id="circle3-5-0"
     transform="matrix(-0.77474227,0.63227717,0.63227427,0.77474463,0,0)"
     rx="111.57039"
     ry="111.57047" /><g
     transform="matrix(0.99611767,0.08803172,-0.08803172,0.99611767,-107.90385,-34.055087)"
     style="font-style:normal;font-weight:normal;font-size:55.36193848px;line-height:125%;font-family:sans-serif;letter-spacing:0px;word-spacing:0px;fill:#ffffff;fill-opacity:1;stroke:none;stroke-width:1px;stroke-linecap:butt;stroke-linejoin:miter;stroke-opacity:1"
     id="text8118"><path
       d="m 229.6823,261.11758 q -0.10546,0.1888 -0.27896,0.27767 -0.16031,0.0653 -0.42544,0.041 -0.26513,-0.0242 -0.66909,-0.18797 -0.40397,-0.16372 -0.97037,-0.4801 -0.59,-0.32956 -0.94124,-0.58768 -0.35123,-0.25812 -0.5345,-0.48435 -0.15967,-0.21304 -0.18816,-0.38377 -0.0153,-0.19433 0.0902,-0.38313 l 7.21084,-12.90921 q 0.7514,-1.3452 1.13498,-2.58622 0.38358,-1.24103 0.31259,-2.33345 -0.071,-1.09241 -0.63611,-1.96542 -0.56512,-0.873 -1.65072,-1.4794 -1.3452,-0.7514 -3.29403,-0.47759 -1.92523,0.287 -4.67415,1.3834 l -8.29181,14.84441 q -0.10546,0.1888 -0.27895,0.27767 -0.16032,0.0653 -0.44905,0.0279 -0.26513,-0.0242 -0.66909,-0.18797 -0.40397,-0.16372 -0.97037,-0.4801 -0.5428,-0.3032 -0.91763,-0.5745 -0.35124,-0.25812 -0.53451,-0.48434 -0.15967,-0.21305 -0.18816,-0.38378 0.008,-0.18115 0.11376,-0.36995 l 7.21084,-12.9092 q 0.75141,-1.3452 1.11138,-2.59941 0.35998,-1.25421 0.28899,-2.34663 -0.071,-1.09241 -0.63611,-1.96542 -0.54152,-0.85982 -1.62712,-1.46622 -1.3452,-0.7514 -3.29403,-0.47759 -1.94883,0.27382 -4.67415,1.38341 l -8.29181,14.8444 q -0.10546,0.1888 -0.27895,0.27767 -0.16031,0.0653 -0.42544,0.041 -0.26514,-0.0242 -0.6691,-0.18796 -0.40397,-0.16372 -0.99397,-0.49329 -0.5664,-0.31638 -0.91763,-0.5745 -0.35124,-0.25812 -0.53451,-0.48434 -0.15967,-0.21305 -0.18815,-0.38378 0.008,-0.18114 0.11375,-0.36994 l 11.86428,-21.24002 q 0.10546,-0.1888 0.24217,-0.26725 0.14989,-0.10205 0.41502,-0.0778 0.27832,6.4e-4 0.6219,0.1616 0.35676,0.13736 0.89957,0.44055 0.5192,0.29002 0.82323,0.52177 0.34082,0.22134 0.46371,0.4448 0.13607,0.19986 0.12777,0.38101 0.0285,0.17073 -0.077,0.35953 l -1.56872,2.8084 q 2.91411,-1.00413 5.10383,-0.98857 2.2265,0.005 3.94931,0.96747 1.3216,0.73822 2.18862,1.62505 0.89063,0.90002 1.37665,1.91462 0.4992,0.99101 0.63058,2.08619 0.14456,1.07158 -0.005,2.2265 1.70794,-0.56319 3.10015,-0.83829 1.41581,-0.26191 2.56584,-0.26976 1.17363,0.005 2.11828,0.25433 0.98142,0.23857 1.83102,0.71314 2.0532,1.14688 3.03695,2.65625 0.99692,1.48577 1.17421,3.16394 0.20089,1.69135 -0.3547,3.51749 -0.51881,1.81572 -1.52068,3.60932 l -7.50086,13.42841 z"
       style="font-style:normal;font-variant:normal;font-weight:normal;font-stretch:normal;font-family:Calibri;-inkscape-font-specification:Calibri;letter-spacing:2.8599999px;fill:#ffffff;fill-opacity:1"
       id="path12741"
       inkscape:connector-curvature="0" /><path
       d="m 258.63224,266.30928 q -0.053,0.32002 -0.29291,0.44467 -0.23987,0.12465 -0.62648,0.14277 -0.38662,0.0181 -1.10667,-0.10122 -0.69338,-0.11492 -1.10681,-0.26565 -0.38676,-0.14631 -0.54692,-0.33726 -0.16016,-0.19095 -0.10712,-0.51097 l 0.39782,-2.40016 q -1.85191,1.41932 -3.9534,2.03004 -2.07483,0.61514 -4.23497,0.25711 -1.89345,-0.31384 -3.35623,-1.07691 -1.44054,-0.73198 -2.37923,-1.8466 -0.91203,-1.1102 -1.29998,-2.57195 -0.36127,-1.45733 -0.074,-3.19077 0.33594,-2.0268 1.41018,-3.3832 1.07425,-1.3564 2.78457,-2.08676 1.71031,-0.73036 4.03001,-0.8391 2.32413,-0.1354 5.12431,0.32872 l 3.30688,0.5481 0.30941,-1.86678 q 0.22985,-1.38676 0.1133,-2.50212 -0.11654,-1.11535 -0.66833,-1.91923 -0.52069,-0.82614 -1.5033,-1.34521 -0.97818,-0.54575 -2.49828,-0.7977 -1.62677,-0.26963 -2.99982,-0.0862 -1.34196,0.16119 -2.40826,0.47767 -1.0352,0.29424 -1.76821,0.58376 -0.70193,0.26727 -1.02195,0.21423 -0.21334,-0.0354 -0.35567,-0.16856 -0.14233,-0.13319 -0.24031,-0.36864 -0.0713,-0.23103 -0.0716,-0.55989 0.004,-0.35553 0.0704,-0.75555 0.1105,-0.66671 0.25239,-1.02681 0.17298,-0.38234 0.57713,-0.67157 0.43082,-0.2848 1.38602,-0.5923 0.95962,-0.33417 2.16824,-0.51745 1.21304,-0.20996 2.61291,-0.22455 1.40429,-0.0412 2.79104,0.1886 2.58683,0.42875 4.30304,1.31603 1.7162,0.88728 2.64621,2.21966 0.93442,1.30572 1.16265,3.06981 0.22823,1.76409 -0.14307,4.00424 l -2.68305,16.18769 z m -2.55692,-11.6856 -3.76024,-0.62325 q -1.81344,-0.30057 -3.1999,-0.20156 -1.38204,0.0723 -2.36377,0.53985 -0.9773,0.44084 -1.54543,1.2235 -0.53706,0.76042 -0.71828,1.85382 -0.30942,1.86679 0.67834,3.18135 1.01885,1.29231 3.15232,1.64592 1.73345,0.28731 3.34607,-0.34963 1.6393,-0.63253 3.56664,-2.17635 l 0.84425,-5.09365 z"
       style="font-style:normal;font-variant:normal;font-weight:normal;font-stretch:normal;font-family:Calibri;-inkscape-font-specification:Calibri;letter-spacing:2.8599999px;fill:#ffffff;fill-opacity:1"
       id="path12743"
       inkscape:connector-curvature="0" /><path
       d="m 282.22241,242.75269 q 0.0397,0.59338 0.0398,0.99976 1.1e-4,0.40638 -0.0646,0.65454 -0.0665,0.2212 -0.1923,0.36508 -0.10066,0.11511 -0.31644,0.12956 -0.21577,0.0144 -0.54666,-0.0718 -0.30571,-0.115 -0.71751,-0.1958 -0.38664,-0.10958 -0.87935,-0.18497 -0.49272,-0.0754 -1.05913,-0.0375 -0.67429,0.0451 -1.30356,0.35819 -0.62927,0.31306 -1.31598,0.98216 -0.65974,0.66729 -1.37331,1.74459 -0.71357,1.07729 -1.55828,2.62393 l 1.0689,15.96733 q 0.0144,0.21577 -0.0826,0.38482 -0.0989,0.14208 -0.33438,0.26622 -0.23553,0.12414 -0.66346,0.20697 -0.42794,0.0828 -1.10224,0.12797 -0.64732,0.0433 -1.08248,0.0183 -0.43516,-0.025 -0.7121,-0.11488 -0.24997,-0.0916 -0.36689,-0.21928 -0.0918,-0.15641 -0.10619,-0.37219 l -1.62502,-24.27464 q -0.0144,-0.21578 0.0575,-0.35605 0.0701,-0.16725 0.3056,-0.29139 0.23372,-0.15111 0.60952,-0.20336 0.37399,-0.0792 0.99435,-0.12075 0.59338,-0.0397 0.97459,-0.0111 0.40639,-1.1e-4 0.63119,0.1203 0.223,0.0934 0.31475,0.24986 0.11691,0.12763 0.13135,0.34341 l 0.23654,3.53331 q 0.90045,-1.52329 1.70216,-2.49811 0.82868,-0.97662 1.57656,-1.54145 0.74607,-0.5918 1.48864,-0.83116 0.76774,-0.26813 1.54992,-0.3205 0.35064,-0.0235 0.7858,0.002 0.46032,-0.004 0.95304,0.0717 0.49272,0.0754 0.87935,0.18497 0.4136,0.10777 0.58446,0.2318 0.17086,0.12403 0.23383,0.25527 0.0612,0.10428 0.10078,0.29128 0.0666,0.18519 0.0919,0.56279 0.0504,0.34883 0.092,0.96919 z"
       style="font-style:normal;font-variant:normal;font-weight:normal;font-stretch:normal;font-family:Calibri;-inkscape-font-specification:Calibri;letter-spacing:2.8599999px;fill:#ffffff;fill-opacity:1"
       id="path12745"
       inkscape:connector-curvature="0" /><path
       d="m 310.66546,258.31744 q 0.0606,0.20758 0.002,0.39358 -0.0583,0.18601 -0.28748,0.36559 -0.20321,0.17201 -0.62917,0.35275 -0.42595,0.18074 -1.1006,0.3778 -0.70059,0.20464 -1.18281,0.28918 -0.4487,0.10289 -0.78281,0.116 -0.34169,-0.0128 -0.59475,-0.10789 -0.23469,-0.12858 -0.45859,-0.31664 l -13.63468,-10.04195 3.78205,12.94802 q 0.0606,0.20758 0.002,0.39358 -0.0659,0.16006 -0.26911,0.33207 -0.20322,0.172 -0.60323,0.34516 -0.40001,0.17317 -1.0487,0.36265 -0.62275,0.1819 -1.05308,0.25127 -0.43032,0.0694 -0.72012,0.0414 -0.26385,-0.0356 -0.40554,-0.135 -0.12332,-0.13295 -0.18395,-0.34054 l -10.12588,-34.66642 q -0.0606,-0.20758 -0.0283,-0.38601 0.0583,-0.186 0.26153,-0.35801 0.22916,-0.17958 0.62917,-0.35274 0.40001,-0.17317 1.02276,-0.35507 0.6487,-0.18948 1.07902,-0.25885 0.43033,-0.0694 0.69418,-0.0338 0.26384,0.0356 0.41311,0.16095 0.14927,0.12537 0.2099,0.33296 l 6.16952,21.1216 5.98765,-12.28147 q 0.13179,-0.32011 0.31984,-0.54401 0.18048,-0.24985 0.46154,-0.44459 0.29943,-0.22827 0.73296,-0.38307 0.42596,-0.18074 1.04871,-0.36264 0.64869,-0.18948 1.10497,-0.26644 0.44869,-0.1029 0.73849,-0.0749 0.30816,-0.006 0.45743,0.11985 0.16764,0.0918 0.23585,0.32537 0.091,0.31138 2.7e-4,0.67581 -0.0647,0.35685 -0.33269,0.8857 l -5.98819,10.92986 13.09709,9.55126 q 0.46617,0.34258 0.67928,0.59011 0.23148,0.214 0.29969,0.44754 z"
       style="font-style:normal;font-variant:normal;font-weight:normal;font-stretch:normal;font-family:Calibri;-inkscape-font-specification:Calibri;letter-spacing:2.8599999px;fill:#ffffff;fill-opacity:1"
       id="path12747"
       inkscape:connector-curvature="0" /><path
       d="m 327.28995,233.49941 q 0.54237,0.90405 0.31517,1.57625 -0.21792,0.63512 -0.79744,0.98279 l -13.67655,8.20502 q 1.04301,1.73854 2.22513,2.92078 1.18211,1.18223 2.59143,1.69226 1.40931,0.51003 3.02728,0.2644 1.61797,-0.24563 3.4956,-1.37208 1.48356,-0.89003 2.50352,-1.81718 1.00606,-0.95033 1.65977,-1.75232 0.67689,-0.8159 1.07098,-1.36756 0.40336,-0.58875 0.68153,-0.75563 0.16226,-0.0974 0.33379,-0.0742 0.1808,-0.0139 0.34769,0.10664 0.16689,0.12054 0.37086,0.40799 0.21324,0.25035 0.46357,0.6676 0.18079,0.30135 0.29667,0.54706 0.10198,0.22253 0.16688,0.43579 0.0742,0.17617 0.0649,0.37088 0.0139,0.18081 -0.0417,0.40333 -0.0464,0.18544 -0.49146,0.86227 -0.45899,0.65365 -1.28888,1.52981 -0.82988,0.87616 -2.02601,1.87747 -1.15905,1.01059 -2.64261,1.90063 -2.57305,1.54365 -4.95133,1.99323 -2.3551,0.43566 -4.52471,-0.18567 -2.16961,-0.62133 -4.12127,-2.35064 -1.95166,-1.72932 -3.6483,-4.55736 -1.61318,-2.68895 -2.19719,-5.23876 -0.59792,-2.57301 -0.18984,-4.83534 0.41735,-2.29943 1.79897,-4.20012 1.36771,-1.92386 3.66259,-3.30064 2.45714,-1.47412 4.64534,-1.71508 2.21138,-0.25487 4.13064,0.42208 1.90536,0.65376 3.50006,2.1559 1.60398,1.46505 2.82778,3.50494 l 0.4172,0.69542 z m -4.52941,1.17268 q -1.73835,-3.0552 -4.18147,-3.92225 -2.41994,-0.88095 -5.17843,0.77396 -1.41401,0.84831 -2.16047,2.02118 -0.74645,1.17287 -0.93659,2.48484 -0.19014,1.31198 0.12504,2.7306 0.30127,1.39545 1.01978,2.69819 l 11.31214,-6.78652 z"
       style="font-style:normal;font-variant:normal;font-weight:normal;font-stretch:normal;font-family:Calibri;-inkscape-font-specification:Calibri;letter-spacing:2.8599999px;fill:#ffffff;fill-opacity:1"
       id="path12749"
       inkscape:connector-curvature="0" /><path
       d="m 335.4195,212.27253 q 0.41735,0.42367 0.68265,0.73151 0.26529,0.30784 0.37825,0.53807 0.094,0.21097 0.0926,0.40211 -10e-4,0.15292 -0.15522,0.30468 -0.15406,0.15176 -0.46103,0.30238 -0.30669,0.11238 -0.67144,0.31991 -0.36446,0.16929 -0.78699,0.43373 -0.42252,0.26443 -0.82693,0.66281 -0.48145,0.47426 -0.75393,1.12213 -0.27249,0.64787 -0.35613,1.603 -0.0644,0.93616 0.098,2.2181 0.1624,1.28194 0.53175,3.00508 l 11.23047,11.40063 q 0.15176,0.15407 0.18855,0.3455 0.0178,0.17217 -0.0796,0.41993 -0.0974,0.24777 -0.36763,0.58981 -0.27018,0.34204 -0.75163,0.8163 -0.46219,0.45529 -0.80825,0.7203 -0.34607,0.26501 -0.61453,0.37768 -0.2492,0.0937 -0.42108,0.0733 -0.1716,-0.0586 -0.32336,-0.2127 l -17.07335,-17.33205 q -0.15177,-0.15406 -0.18884,-0.30726 -0.056,-0.17246 0.0414,-0.42022 0.0785,-0.26703 0.3291,-0.55187 0.23167,-0.3041 0.6746,-0.74042 0.42368,-0.41735 0.73123,-0.64442 0.30783,-0.2653 0.55675,-0.32077 0.22994,-0.0747 0.40154,-0.0161 0.17188,0.0204 0.32364,0.17447 l 2.48513,2.52278 q -0.31187,-1.74183 -0.34061,-3.00365 -0.009,-1.28079 0.18856,-2.19683 0.17907,-0.93529 0.58549,-1.60127 0.40672,-0.7042 0.96519,-1.25434 0.25035,-0.24662 0.59642,-0.51163 0.34635,-0.30324 0.76888,-0.56767 0.42252,-0.26444 0.78698,-0.43374 0.38372,-0.18826 0.59412,-0.2058 0.2104,-0.0175 0.34377,0.0408 0.11439,0.0391 0.26644,0.15492 0.17131,0.0969 0.4369,0.36648 0.26587,0.23138 0.70219,0.67431 z"
       style="font-style:normal;font-variant:normal;font-weight:normal;font-stretch:normal;font-family:Calibri;-inkscape-font-specification:Calibri;letter-spacing:2.8599999px;fill:#ffffff;fill-opacity:1"
       id="path12751"
       inkscape:connector-curvature="0" /></g><circle
     style="opacity:1;fill:none;fill-opacity:1;fill-rule:nonzero;stroke:none;stroke-width:4.16343546;stroke-linecap:butt;stroke-linejoin:miter;stroke-miterlimit:4;stroke-dasharray:none;stroke-opacity:1"
     id="path12735"
     cx="-55.657574"
     cy="304.67722"
     r="111.18778"
     transform="matrix(-0.65001641,0.75992017,0.75992017,0.65001641,0,0)" /></svg>