<?xml version="1.0" encoding="UTF-8" standalone="no"?>
<!-- Generator: Adobe Illustrator 19.0.0, SVG Export Plug-In . SVG Version: 6.00 Build 0)  -->

<svg
   xmlns:dc="http://purl.org/dc/elements/1.1/"
   xmlns:cc="http://creativecommons.org/ns#"
   xmlns:rdf="http://www.w3.org/1999/02/22-rdf-syntax-ns#"
   xmlns:svg="http://www.w3.org/2000/svg"
   xmlns="http://www.w3.org/2000/svg"
   xmlns:sodipodi="http://sodipodi.sourceforge.net/DTD/sodipodi-0.dtd"
   xmlns:inkscape="http://www.inkscape.org/namespaces/inkscape"
   version="1.1"
   id="Layer_1"
   x="0px"
   y="0px"
   viewBox="0 0 386 158"
   xml:space="preserve"
   inkscape:version="0.91 r13725"
   sodipodi:docname="bridge-lift.svg"
   width="386"
   height="158"><metadata
     id="metadata43"><rdf:RDF><cc:Work
         rdf:about=""><dc:format>image/svg+xml</dc:format><dc:type
           rdf:resource="http://purl.org/dc/dcmitype/StillImage" /><dc:title /></cc:Work></rdf:RDF></metadata><defs
     id="defs41" /><sodipodi:namedview
     pagecolor="#ffffff"
     bordercolor="#666666"
     borderopacity="1"
     objecttolerance="10"
     gridtolerance="10"
     guidetolerance="10"
     inkscape:pageopacity="0"
     inkscape:pageshadow="2"
     inkscape:window-width="1920"
     inkscape:window-height="1017"
     id="namedview39"
     showgrid="false"
     inkscape:zoom="1.8437644"
     inkscape:cx="164.41329"
     inkscape:cy="9.3207304"
     inkscape:window-x="1912"
     inkscape:window-y="-8"
     inkscape:window-maximized="1"
     inkscape:current-layer="Layer_1" /><g
     id="g9"
     transform="translate(0,-353.996)" /><g
     id="g11"
     transform="translate(0,-353.996)" /><g
     id="g13"
     transform="translate(0,-353.996)" /><g
     id="g15"
     transform="translate(0,-353.996)" /><g
     id="g17"
     transform="translate(0,-353.996)" /><g
     id="g19"
     transform="translate(0,-353.996)" /><g
     id="g21"
     transform="translate(0,-353.996)" /><g
     id="g23"
     transform="translate(0,-353.996)" /><g
     id="g25"
     transform="translate(0,-353.996)" /><g
     id="g27"
     transform="translate(0,-353.996)" /><g
     id="g29"
     transform="translate(0,-353.996)" /><g
     id="g31"
     transform="translate(0,-353.996)" /><g
     id="g33"
     transform="translate(0,-353.996)" /><g
     id="g35"
     transform="translate(0,-353.996)" /><g
     id="g37"
     transform="translate(0,-353.996)" /><rect
     style="opacity:1;fill:#004032;fill-opacity:1;fill-rule:nonzero;stroke:none;stroke-width:20;stroke-linejoin:round;stroke-miterlimit:4;stroke-dasharray:none;stroke-opacity:1"
     id="rect8082"
     width="333.06903"
     height="127.75044"
     x="-359.95432"
     y="15.088687"
     ry="0"
     transform="scale(-1,1)" /><rect
     style="opacity:1;fill:#ffffff;fill-opacity:1;fill-rule:nonzero;stroke:none;stroke-width:20;stroke-linejoin:round;stroke-miterlimit:4;stroke-dasharray:none;stroke-opacity:1"
     id="rect8082-3"
     width="362.77762"
     height="91.704811"
     x="-377.84946"
     y="32.704689"
     ry="0"
     transform="scale(-1,1)" /><path
     style="opacity:1;fill:#004032;fill-opacity:1;fill-rule:nonzero;stroke:none;stroke-width:20;stroke-linejoin:round;stroke-miterlimit:4;stroke-dasharray:none;stroke-opacity:1"
     d="m 356.74131,15.091971 c 16.14849,-0.0135 21.77812,-6.5575206 27.17347,-14.6194607 0.73513,-0.54432 2.17378,-0.15321 2.17925,0.74218 -7.5e-4,13.3121007 -7.49753,31.4048057 -26.39005,31.4047757 -1.3278,-4.48828 -3.99758,-13.327075 -2.96249,-17.527495 z"
     id="path8099"
     inkscape:connector-curvature="0"
     sodipodi:nodetypes="cccccc" /><path
     style="opacity:1;fill:#004032;fill-opacity:1;fill-rule:nonzero;stroke:none;stroke-width:20;stroke-linejoin:round;stroke-miterlimit:4;stroke-dasharray:none;stroke-opacity:1"
     d="M 29.82707,15.097541 C 13.47191,15.084041 7.7702302,8.5400104 2.3058202,0.4780803 c -0.7445,-0.54433 -2.20154996,-0.15322 -2.20711996,0.74218 7.5e-4,13.3120907 7.80202996,31.3817737 26.93633976,31.3817537 1.34478,-4.48829 3.84019,-13.304053 2.79108,-17.504473 z"
     id="path8099-0"
     inkscape:connector-curvature="0"
     sodipodi:nodetypes="cccccc" /><path
     style="opacity:1;fill:#004032;fill-opacity:1;fill-rule:nonzero;stroke:none;stroke-width:20;stroke-linejoin:round;stroke-miterlimit:4;stroke-dasharray:none;stroke-opacity:1"
     d="m 356.63905,142.968 c 16.18786,0.0135 21.83121,6.55755 27.23971,14.61946 0.73689,0.54435 2.17904,0.15321 2.18457,-0.74218 -7.3e-4,-13.31207 -7.17907,-32.48954 -26.11765,-32.48948 -1.33103,4.48828 -4.34407,14.4118 -3.306,18.6122 z"
     id="path8099-0-3"
     inkscape:connector-curvature="0"
     sodipodi:nodetypes="cccccc" /><path
     style="opacity:1;fill:#004032;fill-opacity:1;fill-rule:nonzero;stroke:none;stroke-width:20;stroke-linejoin:round;stroke-miterlimit:4;stroke-dasharray:none;stroke-opacity:1"
     d="m 29.90686,142.94151 c -16.35495,0.0135 -22.0565598,6.55753 -27.5208898,14.61947 -0.7445,0.54435 -2.20152996,0.15321 -2.20709996,-0.74218 7.5e-4,-13.3121 7.80628996,-32.48954 26.94034976,-32.48949 1.34476,4.48829 3.83578,14.41181 2.7867,18.6122 z"
     id="path8099-0-8"
     inkscape:connector-curvature="0"
     sodipodi:nodetypes="cccccc" /><rect
     style="opacity:1;fill:#004032;fill-opacity:1;fill-rule:nonzero;stroke:none;stroke-width:20;stroke-linejoin:round;stroke-miterlimit:4;stroke-dasharray:none;stroke-opacity:1"
     id="rect8093"
     width="112.75268"
     height="111.21864"
     x="-337.87015"
     y="21.469532"
     transform="scale(-1,1)" /><rect
     style="opacity:1;fill:#004032;fill-opacity:1;fill-rule:nonzero;stroke:none;stroke-width:20;stroke-linejoin:round;stroke-miterlimit:4;stroke-dasharray:none;stroke-opacity:1"
     id="rect8095"
     width="12.272402"
     height="30.681004"
     x="-46.400616"
     y="42.45039"
     transform="scale(-1,1)" /><rect
     style="opacity:1;fill:#004032;fill-opacity:1;fill-rule:nonzero;stroke:none;stroke-width:20;stroke-linejoin:round;stroke-miterlimit:4;stroke-dasharray:none;stroke-opacity:1"
     id="rect8095-8"
     width="12.272402"
     height="30.681004"
     x="-46.400616"
     y="83.869759"
     transform="scale(-1,1)" /></svg>