<?xml version="1.0" encoding="UTF-8" standalone="no"?>
<!-- Generator: Adobe Illustrator 19.0.0, SVG Export Plug-In . SVG Version: 6.00 Build 0)  -->

<svg
   xmlns:dc="http://purl.org/dc/elements/1.1/"
   xmlns:cc="http://creativecommons.org/ns#"
   xmlns:rdf="http://www.w3.org/1999/02/22-rdf-syntax-ns#"
   xmlns:svg="http://www.w3.org/2000/svg"
   xmlns="http://www.w3.org/2000/svg"
   xmlns:sodipodi="http://sodipodi.sourceforge.net/DTD/sodipodi-0.dtd"
   xmlns:inkscape="http://www.inkscape.org/namespaces/inkscape"
   version="1.1"
   id="Layer_1"
   x="0px"
   y="0px"
   viewBox="0 0 502 502"
   style="enable-background:new 0 0 502 502;"
   xml:space="preserve"
   width="512"
   height="512"
   inkscape:version="0.91 r13725"
   sodipodi:docname="marker-fooddrink-greatdrink.svg"><metadata
     id="metadata29"><rdf:RDF><cc:Work
         rdf:about=""><dc:format>image/svg+xml</dc:format><dc:type
           rdf:resource="http://purl.org/dc/dcmitype/StillImage" /><dc:title></dc:title></cc:Work></rdf:RDF></metadata><defs
     id="defs27" /><sodipodi:namedview
     pagecolor="#ffffff"
     bordercolor="#666666"
     borderopacity="1"
     objecttolerance="10"
     gridtolerance="10"
     guidetolerance="10"
     inkscape:pageopacity="0"
     inkscape:pageshadow="2"
     inkscape:window-width="1920"
     inkscape:window-height="1017"
     id="namedview25"
     showgrid="false"
     inkscape:zoom="0.921875"
     inkscape:cx="60.992255"
     inkscape:cy="110.806"
     inkscape:window-x="1912"
     inkscape:window-y="-8"
     inkscape:window-maximized="1"
     inkscape:current-layer="Layer_1" /><g
     id="g8099"
     transform="matrix(0.91448319,0,0,0.91448319,21.464255,0)"><g
       id="g3"><polygon
         id="polygon5"
         points="94.968,454.921 106.297,436.383 335.968,436.383 346.267,454.921 346.267,492 94.968,492 "
         style="fill:#e6e6e6" /><g
         id="g7"><path
           id="path9"
           d="m 382.314,413.727 -115.35,0 c -11.376,0 -20.598,-9.222 -20.598,-20.598 l 0,-230.702 c 0,-11.376 9.222,-20.598 20.598,-20.598 l 115.35,0 c 31.803,0 57.675,25.873 57.675,57.675 l 0,156.547 c 0,31.803 -25.872,57.676 -57.675,57.676 z m -94.752,-41.197 94.752,0 c 9.086,0 16.479,-7.392 16.479,-16.479 l 0,-156.547 c 0,-9.086 -7.392,-16.479 -16.479,-16.479 l -94.752,0 0,189.505 z"
           style="fill:#e6e6e6"
           inkscape:connector-curvature="0" /></g><polygon
         id="polygon11"
         points="106.297,436.383 94.968,105.782 346.267,105.782 335.968,436.383 "
         style="fill:#fbb03b" /><path
         id="path13"
         d="m 346.782,105.782 c 18.486,0 33.472,-14.986 33.472,-33.472 0,-18.486 -14.986,-33.472 -33.472,-33.472 -3.49,0 -6.855,0.536 -10.018,1.527 C 329.767,22.588 312.457,10 292.197,10 c -17.866,0 -33.436,9.791 -41.668,24.293 -7.682,-7.986 -18.47,-12.963 -30.426,-12.963 -12.998,0 -24.62,5.877 -32.366,15.115 C 179.868,20.766 163.655,10 144.919,10 c -19.841,0 -36.864,12.066 -44.132,29.26 -1.728,-0.275 -3.499,-0.422 -5.304,-0.422 -18.486,0 -33.472,14.986 -33.472,33.472 0,18.486 14.986,33.472 33.472,33.472 l 251.299,0 z"
         style="fill:#e6e6e6"
         inkscape:connector-curvature="0" /></g><path
       d="m 382.314,131.829 -26.854,0 0.531,-17.038 c 19.561,-4.237 34.262,-21.671 34.262,-42.481 0,-23.971 -19.501,-43.472 -43.472,-43.472 -1.466,0 -2.925,0.073 -4.374,0.219 C 332.198,11.168 313.284,0 292.196,0 c -16.831,0 -32.685,7.373 -43.565,19.791 -8.4,-5.511 -18.215,-8.462 -28.528,-8.462 -11.058,0 -21.662,3.477 -30.449,9.793 C 178.807,7.859 162.569,0 144.919,0 124.049,0 105.091,11.113 94.826,28.843 71.158,29.195 52.011,48.559 52.011,72.31 c 0,20.45 14.198,37.637 33.252,42.248 L 96.2,433.729 86.435,449.707 c -0.959,1.57 -1.467,3.375 -1.467,5.215 l 0,37.078 c 0,5.522 4.477,10 10,10 l 251.3,0 c 5.522,0 10,-4.478 10,-10 l 0,-37.079 c 0,-1.699 -0.434,-3.371 -1.259,-4.857 l -8.96,-16.126 0.318,-10.211 35.948,0 c 37.316,0 67.675,-30.358 67.675,-67.675 l 0,-156.548 c -0.001,-37.316 -30.359,-67.675 -67.676,-67.675 z m -276.998,-16.047 230.635,0 -9.677,310.602 -210.314,0 -10.644,-310.602 z m 248.238,77.243 28.76,0 c 3.572,0 6.479,2.906 6.479,6.479 l 0,156.548 c 0,3.572 -2.906,6.479 -6.479,6.479 l -34.041,0 5.281,-169.506 z M 72.011,72.31 c 0,-12.942 10.53,-23.472 23.472,-23.472 1.233,0 2.49,0.101 3.736,0.298 4.545,0.728 8.989,-1.747 10.779,-5.982 C 115.943,29.088 129.65,20 144.919,20 c 14.419,0 27.401,8.02 33.88,20.93 1.51,3.009 4.433,5.057 7.777,5.447 3.349,0.383 6.661,-0.929 8.823,-3.508 6.149,-7.334 15.153,-11.54 24.703,-11.54 8.834,0 17.081,3.515 23.219,9.896 2.188,2.273 5.32,3.382 8.453,2.989 3.131,-0.393 5.894,-2.241 7.451,-4.985 C 265.958,27.368 278.591,20 292.196,20 c 15.676,0 29.518,9.431 35.263,24.027 1.921,4.881 7.285,7.45 12.295,5.879 2.264,-0.709 4.628,-1.068 7.028,-1.068 12.942,0 23.472,10.529 23.472,23.472 0,12.943 -10.529,23.473 -23.472,23.473 l -0.515,0 -250.784,0 C 82.541,95.782 72.011,85.252 72.011,72.31 Z M 336.268,482 l -231.3,0 0,-24.266 6.937,-11.351 218.179,0 6.184,11.129 0,24.488 z m 93.721,-125.948 c 0,26.288 -21.387,47.675 -47.675,47.675 l -35.324,0 0.66,-21.196 34.664,0 c 14.601,0 26.479,-11.878 26.479,-26.479 l 0,-156.548 c 0,-14.601 -11.878,-26.479 -26.479,-26.479 l -28.137,0 0.66,-21.196 27.477,0 c 26.288,0 47.675,21.387 47.675,47.675 l 0,156.548 z"
       id="path17"
       inkscape:connector-curvature="0" /><path
       d="m 219.587,151.397 c -5.523,0 -10,4.478 -10,10 l 0,223.491 c 0,5.522 4.477,10 10,10 5.523,0 10,-4.478 10,-10 l 0,-223.491 c 0,-5.522 -4.477,-10 -10,-10 z"
       id="path19"
       inkscape:connector-curvature="0" /><path
       d="m 157.793,151.397 c -5.523,0 -10,4.478 -10,10 l 0,223.491 c 0,5.522 4.477,10 10,10 5.523,0 10,-4.478 10,-10 l 0,-223.491 c 0,-5.522 -4.477,-10 -10,-10 z"
       id="path21"
       inkscape:connector-curvature="0" /><path
       d="m 282.412,151.397 c -5.522,0 -10,4.478 -10,10 l 0,223.491 c 0,5.522 4.478,10 10,10 5.522,0 10,-4.478 10,-10 l 0,-223.491 c 0,-5.522 -4.477,-10 -10,-10 z"
       id="path23"
       inkscape:connector-curvature="0" /></g></svg>