<?xml version="1.0" encoding="UTF-8" standalone="no"?>
<!-- Generator: Adobe Illustrator 19.0.0, SVG Export Plug-In . SVG Version: 6.00 Build 0)  -->

<svg
   xmlns:dc="http://purl.org/dc/elements/1.1/"
   xmlns:cc="http://creativecommons.org/ns#"
   xmlns:rdf="http://www.w3.org/1999/02/22-rdf-syntax-ns#"
   xmlns:svg="http://www.w3.org/2000/svg"
   xmlns="http://www.w3.org/2000/svg"
   xmlns:sodipodi="http://sodipodi.sourceforge.net/DTD/sodipodi-0.dtd"
   xmlns:inkscape="http://www.inkscape.org/namespaces/inkscape"
   version="1.1"
   id="Capa_1"
   x="0px"
   y="0px"
   viewBox="0 0 512 512"
   style="enable-background:new 0 0 512 512;"
   xml:space="preserve"
   inkscape:version="0.91 r13725"
   sodipodi:docname="marker-farmshop.svg"><metadata
     id="metadata97"><rdf:RDF><cc:Work
         rdf:about=""><dc:format>image/svg+xml</dc:format><dc:type
           rdf:resource="http://purl.org/dc/dcmitype/StillImage" /><dc:title></dc:title></cc:Work></rdf:RDF></metadata><defs
     id="defs95" /><sodipodi:namedview
     pagecolor="#ffffff"
     bordercolor="#666666"
     borderopacity="1"
     objecttolerance="10"
     gridtolerance="10"
     guidetolerance="10"
     inkscape:pageopacity="0"
     inkscape:pageshadow="2"
     inkscape:window-width="1920"
     inkscape:window-height="1017"
     id="namedview93"
     showgrid="false"
     inkscape:zoom="0.4609375"
     inkscape:cx="256"
     inkscape:cy="256"
     inkscape:window-x="1912"
     inkscape:window-y="-8"
     inkscape:window-maximized="1"
     inkscape:current-layer="Capa_1" /><g
     id="g8157"
     transform="matrix(0.90893702,0,0,0.90893702,23.312123,0)"><path
       id="path3"
       d="m 326.001,103 c 0,19.33 15.67,35 35,35 19.33,0 35,-15.67 35,-35 l -70,0 z"
       style="fill:#ef7159"
       inkscape:connector-curvature="0" /><g
       id="g5"><path
         id="path7"
         d="m 396.002,103 c 0,19.33 15.67,35 35,35 19.33,0 35,-15.67 35,-35 l -70,0 z"
         style="fill:#ffc943"
         inkscape:connector-curvature="0" /><path
         id="path9"
         d="m 256,103 c 0,19.33 15.67,35 35,35 19.33,0 35,-15.67 35,-35 l -70,0 z"
         style="fill:#ffc943"
         inkscape:connector-curvature="0" /></g><path
       id="path11"
       d="m 185.999,103 c 0,19.33 15.67,35 35,35 19.33,0 35,-15.67 35,-35 l -70,0 z"
       style="fill:#ef7159"
       inkscape:connector-curvature="0" /><path
       id="path13"
       d="m 115.998,103 c 0,19.33 15.67,35 35,35 19.33,0 35,-15.67 35,-35 l -70,0 z"
       style="fill:#ffc943"
       inkscape:connector-curvature="0" /><path
       id="path15"
       d="m 115.998,103 c 0,19.33 -15.67,35 -35,35 -19.33,0 -35,-15.67 -35,-35 l 70,0 z"
       style="fill:#ef7159"
       inkscape:connector-curvature="0" /><polygon
       id="polygon17"
       points="466.003,103 45.997,103 79.876,10 432.124,10 "
       style="fill:#acd670" /><g
       id="g19"><path
         id="path21"
         d="m 140,218 0,0 c -11.046,0 -20,8.954 -20,20 l 0,28 40,0 0,-28 c 0,-11.046 -8.954,-20 -20,-20 z"
         style="fill:#ef7159"
         inkscape:connector-curvature="0" /><path
         id="path23"
         d="m 180,218 0,0 c -11.046,0 -20,8.954 -20,20 l 0,28 40,0 0,-28 c 0,-11.046 -8.954,-20 -20,-20 z"
         style="fill:#ef7159"
         inkscape:connector-curvature="0" /><path
         id="path25"
         d="m 220,218 0,0 c -11.046,0 -20,8.954 -20,20 l 0,28 40,0 0,-28 c 0,-11.046 -8.954,-20 -20,-20 z"
         style="fill:#ef7159"
         inkscape:connector-curvature="0" /></g><rect
       id="rect27"
       height="64"
       width="152"
       style="fill:#a766b2"
       y="266"
       x="104" /><g
       id="g29"><circle
         id="circle31"
         r="24"
         cy="306"
         cx="305.01001"
         style="fill:#acd670" /><circle
         id="circle33"
         r="24"
         cy="306"
         cx="353.01001"
         style="fill:#acd670" /></g><g
       id="g35"><circle
         id="circle37"
         r="24"
         cy="264.42001"
         cx="329.01001"
         style="fill:#30995b" /><circle
         id="circle39"
         r="24"
         cy="264.42001"
         cx="377.01001"
         style="fill:#30995b" /></g><circle
       id="circle41"
       r="24"
       cy="306"
       cx="401.01001"
       style="fill:#acd670" /><rect
       id="rect43"
       height="172"
       width="384"
       style="fill:#dfdce5"
       y="330"
       x="64" /><circle
       id="circle45"
       r="32"
       cy="443.06"
       cx="217.10001"
       style="fill:#acd670" /><path
       id="path47"
       d="m 277.736,396.759 c -5.251,-10.496 -16.102,-17.702 -28.636,-17.702 -17.673,0 -32,14.327 -32,32 0,0 24.271,2.105 35.086,29.274 10.064,-26.081 25.55,-43.572 25.55,-43.572 z"
       style="fill:#a766b2"
       inkscape:connector-curvature="0" /><path
       id="path49"
       d="m 330.579,437.347 c 12.105,-12.105 11.344,-32.492 -1.699,-45.535 -13.043,-13.043 -33.43,-13.804 -45.535,-1.699 -12.105,12.105 -47.665,69.641 -35.037,82.27 12.63,12.629 70.167,-22.931 82.271,-35.036 z"
       style="fill:#ef7159"
       inkscape:connector-curvature="0" /><path
       id="path51"
       d="m 475.993,103.385 c 0.001,-0.129 0.01,-0.256 0.01,-0.385 -0.003,0 -0.006,0 -0.009,0.001 0,-1.138 -0.183,-2.293 -0.595,-3.424 l -33.879,-93 C 440.081,2.628 436.327,0 432.124,0 L 79.876,0 C 75.673,0 71.918,2.628 70.48,6.577 l -33.879,93 c -0.412,1.13 -0.595,2.284 -0.595,3.421 -0.003,10e-4 -0.006,10e-4 -0.009,0.002 0,0.129 0.009,0.256 0.01,0.385 0.002,0.052 0.001,0.104 0.004,0.156 0.292,24.564 20.354,44.459 44.987,44.459 14.125,0 26.744,-6.547 35,-16.76 8.256,10.213 20.875,16.76 35,16.76 14.125,0 26.744,-6.547 35,-16.76 8.256,10.213 20.875,16.76 35,16.76 14.125,0 26.744,-6.547 35,-16.76 8.256,10.213 20.875,16.76 35,16.76 14.125,0 26.744,-6.547 35,-16.76 8.256,10.213 20.875,16.76 35,16.76 14.125,0 26.744,-6.547 35,-16.76 8.256,10.213 20.875,16.76 35,16.76 24.632,0 44.694,-19.895 44.987,-44.459 0.007,-0.052 0.006,-0.104 0.008,-0.156 z m -24.268,-10.364 -45.723,0 0,-73.021 19.122,0 26.601,73.021 z M 125.998,20 l 50.001,0 0,73.021 -50.001,0 c 0,0 0,-73.021 0,-73.021 z m 70.001,0 50.001,0 0,73.021 -50.001,0 0,-73.021 z m 70.001,0 50.001,0 0,73.021 -50.001,0 L 266,20 Z m 70.001,0 50.001,0 0,73.021 -50.001,0 0,-73.021 z m -249.125,0 19.122,0 0,73.021 -45.723,0 L 86.876,20 Z m -5.878,108 c -10.222,0 -19.027,-6.17 -22.897,-14.979 l 45.794,0 C 100.024,121.83 91.22,128 80.998,128 Z m 70.001,0 c -10.222,0 -19.027,-6.17 -22.897,-14.979 l 45.794,0 C 170.025,121.83 161.221,128 150.999,128 Z M 221,128 c -10.222,0 -19.027,-6.17 -22.897,-14.979 l 45.794,0 C 240.026,121.83 231.222,128 221,128 Z m 70,0 c -10.222,0 -19.027,-6.17 -22.897,-14.979 l 45.794,0 C 310.027,121.83 301.223,128 291,128 Z m 70.001,0 c -10.222,0 -19.027,-6.17 -22.897,-14.979 l 45.794,0 C 380.028,121.83 371.224,128 361.001,128 Z m 70.001,0 c -10.222,0 -19.027,-6.17 -22.897,-14.979 l 45.795,0 C 450.029,121.83 441.225,128 431.002,128 Z"
       inkscape:connector-curvature="0" /><path
       id="path53"
       d="m 221.965,288 -0.131,0 c -5.523,0 -10,4.477 -10,10 0,5.523 4.477,10 10,10 l 0.131,0 c 5.523,0 10,-4.477 10,-10 0,-5.523 -4.477,-10 -10,-10 z"
       inkscape:connector-curvature="0" /><path
       id="path55"
       d="m 64,183.272 c 5.523,0 10,-4.477 10,-10 l 0,-0.131 c 0,-5.523 -4.477,-10 -10,-10 -5.523,0 -10,4.477 -10,10 l 0,0.131 c 0,5.523 4.477,10 10,10 z"
       inkscape:connector-curvature="0" /><path
       id="path57"
       d="m 448,183.272 c 5.523,0 10,-4.477 10,-10 l 0,-0.131 c 0,-5.523 -4.477,-10 -10,-10 -5.523,0 -10,4.477 -10,10 l 0,0.131 c 0,5.523 4.477,10 10,10 z"
       inkscape:connector-curvature="0" /><path
       id="path59"
       d="m 448,195.624 c -5.523,0 -10,4.477 -10,10 l 0,114.376 -6.018,0 c 1.939,-4.273 3.029,-9.01 3.029,-14 0,-15.686 -10.68,-28.918 -25.149,-32.824 0.746,-2.796 1.149,-5.729 1.149,-8.757 0,-18.748 -15.252,-34 -34,-34 -9.359,0 -17.846,3.802 -24,9.941 -6.154,-6.139 -14.641,-9.941 -24,-9.941 -18.748,0 -34,15.252 -34,34 0,3.027 0.403,5.961 1.149,8.757 -14.469,3.906 -25.149,17.138 -25.149,32.824 0,4.99 1.089,9.727 3.029,14 l -8.04,0 0,-54 c 0,-5.523 -4.477,-10 -10,-10 l -6,0 0,-18 c 0,-10.37 -5.29,-19.526 -13.311,-24.916 0.213,-0.019 0.427,-0.03 0.644,-0.03 l 0,0 c 5.522,0 10,-4.477 10,-10 0,-5.523 -4.477,-10 -10,-10 -0.001,0 0,0 0,0 -10.848,0 -20.507,6.475 -24.942,15.926 -4.67,1.226 -8.898,3.552 -12.391,6.683 -1.001,-0.897 -2.061,-1.731 -3.176,-2.489 0.432,-0.078 0.875,-0.12 1.325,-0.12 l 0,0 c 5.522,0 10,-4.477 10,-10 0,-5.523 -4.477,-10 -10,-10 -0.001,0 0,0 -0.001,0 -10.762,0 -20.355,6.375 -24.836,15.707 -5.034,1.151 -9.591,3.567 -13.312,6.903 -0.941,-0.844 -1.937,-1.627 -2.979,-2.348 0.623,-0.169 1.274,-0.261 1.943,-0.261 l 0,0 c 5.522,0 10,-4.477 10,-10 0,-5.523 -4.477,-10 -10,-10 -0.001,0 0,0 -0.001,0 -10.687,0 -20.222,6.285 -24.743,15.51 C 120.436,211.266 110,223.435 110,238 l 0,18 -6,0 c -5.523,0 -10,4.477 -10,10 l 0,54 -20,0 0,-114.376 c 0,-5.523 -4.477,-10 -10,-10 -5.523,0 -10,4.477 -10,10 l 0,124.366 c 0,0.003 0,0.006 0,0.01 l 0,172 c 0,5.523 4.477,10 10,10 l 384,0 c 5.523,0 10,-4.477 10,-10 l 0,-165.99 c 0,-0.003 0,-0.006 0,-0.01 l 0,-130.376 c 0,-5.523 -4.477,-10 -10,-10 z M 415.011,306 c 0,7.72 -6.28,14 -14,14 -7.72,0 -14,-6.28 -14,-14 0,-7.72 6.28,-14 14,-14 7.72,0 14,6.28 14,14 z m -76,0 c 0,-7.72 6.28,-14 14,-14 7.72,0 14,6.28 14,14 0,7.72 -6.28,14 -14,14 -7.72,0 -14,-6.28 -14,-14 z m 38,-55.581 c 7.72,0 14,6.28 14,14 0,7.72 -6.28,14 -14,14 -7.72,0 -14,-6.28 -14,-14 0,-7.72 6.281,-14 14,-14 z m -48,0 c 7.72,0 14,6.28 14,14 0,7.72 -6.28,14 -14,14 -7.72,0 -14,-6.28 -14,-14 0,-7.72 6.281,-14 14,-14 z m -38,55.581 c 0,-7.72 6.28,-14 14,-14 7.72,0 14,6.28 14,14 0,7.72 -6.28,14 -14,14 -7.72,0 -14,-6.28 -14,-14 z m -71.015,-78 c 0.006,0 0.011,0.001 0.017,0.001 0.003,0 0.006,0 0.009,0 5.504,0.012 9.979,4.492 9.979,9.999 l 0,18 -20,0 0,-18 c -0.001,-5.513 4.482,-9.997 9.995,-10 z M 180,228 c 5.514,0 10,4.486 10,10 l 0,18 -20,0 0,-18 c 0,-5.514 4.486,-10 10,-10 z m -50,10 c 0,-5.514 4.486,-10 10,-10 5.514,0 10,4.486 10,10 l 0,18 -20,0 0,-18 z m -16,70 75.483,0 c 5.523,0 10,-4.477 10,-10 0,-5.523 -4.477,-10 -10,-10 l -75.483,0 0,-12 132,0 0,44 -132,0 0,-12 z m 324,184 -364,0 0,-152 30,0 152,0 182,0 0,152 z"
       inkscape:connector-curvature="0" /><path
       id="path61"
       d="m 330.109,379.811 c -15.937,-11.351 -37.318,-11.067 -51.634,1.211 -7.707,-7.568 -18.138,-11.965 -29.376,-11.965 -0.568,0 -1.132,0.021 -1.695,0.043 -5.535,-10.599 -16.813,-17.645 -29.218,-17.342 -5.521,0.128 -9.893,4.708 -9.765,10.229 0.128,5.521 4.706,9.884 10.229,9.765 3.294,-0.069 6.388,1.235 8.656,3.413 -9.639,5.874 -16.73,15.524 -19.223,26.876 -18.839,4.138 -32.985,20.952 -32.985,41.015 0,23.159 18.841,42 42,42 8.482,0 16.379,-2.535 22.989,-6.876 0.364,0.438 0.742,0.866 1.15,1.274 3.756,3.757 8.773,5.645 15.221,5.645 9.372,0 21.765,-3.991 37.689,-12.032 16.825,-8.496 35.934,-21.08 43.502,-28.649 12.331,-12.331 14.685,-31.078 7.354,-46.773 2.198,0.479 4.28,1.556 5.955,3.231 1.953,1.953 4.512,2.929 7.071,2.929 2.559,0 5.118,-0.977 7.071,-2.929 3.905,-3.905 3.906,-10.237 0,-14.142 -9.281,-9.284 -23.264,-11.757 -34.991,-6.923 z m -64.529,16.666 c -4.664,6.694 -9.631,14.685 -14.012,22.622 -5.443,-7.806 -13.463,-13.681 -22.82,-16.387 3.294,-8.004 11.174,-13.656 20.352,-13.656 6.435,0 12.366,2.753 16.48,7.421 z m -48.48,68.579 c -12.131,0 -22,-9.869 -22,-22 0,-12.131 9.869,-22 22,-22 12.131,0 22,9.869 22,22 0,1.777 -0.217,3.504 -0.617,5.16 -0.256,0.813 -0.5,1.615 -0.722,2.4 -3.09,8.418 -11.186,14.44 -20.661,14.44 z m 106.408,-34.781 c -4.046,4.046 -15.094,11.905 -27.704,19.163 l -7.637,-7.637 c -3.905,-3.905 -10.237,-3.905 -14.143,0 -3.905,3.905 -3.905,10.237 0,14.143 l 3.076,3.076 c -12.221,5.391 -18.911,6.296 -21.461,6.033 -0.156,-1.509 0.106,-4.483 1.45,-9.173 0.153,-0.476 0.293,-0.958 0.429,-1.442 1.643,-5.276 4.556,-12.477 9.558,-21.977 5.478,-10.405 11.893,-20.489 16.992,-27.483 l 7.294,7.294 c 1.953,1.953 4.512,2.929 7.071,2.929 2.559,0 5.119,-0.977 7.071,-2.929 3.905,-3.905 3.906,-10.237 0,-14.142 l -6.018,-6.018 c 7.433,-1.823 16.05,0.498 22.322,6.77 9.125,9.124 9.887,23.207 1.7,31.393 z"
       inkscape:connector-curvature="0" /></g><g
     id="g63" /><g
     id="g65" /><g
     id="g67" /><g
     id="g69" /><g
     id="g71" /><g
     id="g73" /><g
     id="g75" /><g
     id="g77" /><g
     id="g79" /><g
     id="g81" /><g
     id="g83" /><g
     id="g85" /><g
     id="g87" /><g
     id="g89" /><g
     id="g91" /></svg>