<?xml version="1.0" encoding="UTF-8" standalone="no"?>
<!-- Generator: Adobe Illustrator 19.0.0, SVG Export Plug-In . SVG Version: 6.00 Build 0)  -->

<svg
   xmlns:dc="http://purl.org/dc/elements/1.1/"
   xmlns:cc="http://creativecommons.org/ns#"
   xmlns:rdf="http://www.w3.org/1999/02/22-rdf-syntax-ns#"
   xmlns:svg="http://www.w3.org/2000/svg"
   xmlns="http://www.w3.org/2000/svg"
   xmlns:sodipodi="http://sodipodi.sourceforge.net/DTD/sodipodi-0.dtd"
   xmlns:inkscape="http://www.inkscape.org/namespaces/inkscape"
   version="1.1"
   id="Layer_1"
   x="0px"
   y="0px"
   viewBox="0 0 512.001 512.001"
   style="enable-background:new 0 0 512.001 512.001;"
   xml:space="preserve"
   inkscape:version="0.91 r13725"
   sodipodi:docname="marker-activity-playpark-contents.svg"><metadata
     id="metadata97"><rdf:RDF><cc:Work
         rdf:about=""><dc:format>image/svg+xml</dc:format><dc:type
           rdf:resource="http://purl.org/dc/dcmitype/StillImage" /><dc:title /></cc:Work></rdf:RDF></metadata><defs
     id="defs95" /><sodipodi:namedview
     pagecolor="#ffffff"
     bordercolor="#666666"
     borderopacity="1"
     objecttolerance="10"
     gridtolerance="10"
     guidetolerance="10"
     inkscape:pageopacity="0"
     inkscape:pageshadow="2"
     inkscape:window-width="1920"
     inkscape:window-height="1017"
     id="namedview93"
     showgrid="false"
     inkscape:zoom="0.92187324"
     inkscape:cx="46.337595"
     inkscape:cy="139.68249"
     inkscape:window-x="1912"
     inkscape:window-y="-8"
     inkscape:window-maximized="1"
     inkscape:current-layer="Layer_1" /><g
     id="g8163"
     transform="matrix(1,0,0,1.004624,16.269497,0)"><path
       inkscape:connector-curvature="0"
       id="path3"
       d="m 320.52567,456.04637 c 0,0 -36.59448,-14.49337 -66.06141,-66.0614 l 58.93477,-58.93477 c 0,0 49.11215,3.68383 91.90223,58.93477 l -84.77559,66.0614 z"
       style="fill:#f59f3f" /><ellipse
       id="ellipse5"
       ry="56.954304"
       rx="44.749352"
       cy="207.04037"
       cx="-506.51926"
       style="fill:#fcde76"
       transform="matrix(-0.313106,-0.94971819,0.94971819,-0.313106,0,0)" /><path
       inkscape:connector-curvature="0"
       id="path7"
       d="m 158.93502,456.04637 c 0,0 36.59448,-14.49337 66.0614,-66.0614 l -58.93476,-58.93568 c 0,0 -49.11215,3.68382 -91.902238,58.93476 l 84.775598,66.06232 z"
       style="fill:#f59f3f" /><ellipse
       id="ellipse9"
       ry="56.954304"
       rx="44.749352"
       cy="-248.27341"
       cx="356.396"
       style="fill:#fcde76"
       transform="matrix(-0.313106,0.94971819,-0.94971819,-0.313106,0,0)" /><ellipse
       id="ellipse11"
       ry="110.50371"
       rx="88.402603"
       cy="279.48123"
       cx="239.72714"
       style="fill:#f2821c" /><path
       inkscape:connector-curvature="0"
       id="path13"
       d="m 266.94894,384.63884 c -68.44947,-7.24485 -86.15382,-53.58955 -86.15382,-53.58955 16.81638,-22.42184 25.10223,-113.08514 28.10244,-155.15862 -33.61993,15.64159 -57.57028,56.11691 -57.57028,103.59058 0,61.0296 39.57911,110.50372 88.4026,110.50372 9.49822,0 18.64455,-1.8804 27.21906,-5.34613 z"
       style="fill:#e57712" /><circle
       id="circle15"
       r="36.834572"
       cy="65.841476"
       cx="350.23083"
       style="fill:#f2821c" /><circle
       id="circle17"
       r="14.733461"
       cy="65.841476"
       cx="350.23083"
       style="fill:#fcde76" /><circle
       id="circle19"
       r="36.834572"
       cy="65.841476"
       cx="129.22433"
       style="fill:#e57712" /><circle
       id="circle21"
       r="14.733461"
       cy="65.841476"
       cx="129.22433"
       style="fill:#fccf6f" /><path
       inkscape:connector-curvature="0"
       id="path23"
       d="m 306.03229,189.25232 c 0,0 88.40261,66.30241 88.40261,117.87044 0,26.5611 -44.2013,58.93476 -73.66914,22.10111 -29.46784,-36.83365 -29.46784,-132.60391 -29.46784,-132.60391 l 14.73437,-7.36764 z"
       style="fill:#f59f3f" /><path
       inkscape:connector-curvature="0"
       id="path25"
       d="m 335.50013,316.31582 c -25.18287,-31.47836 -28.84378,-105.98873 -29.3762,-126.99386 -0.055,-0.0412 -0.0907,-0.0687 -0.0907,-0.0687 l -14.73346,7.36673 c 0,0 0,95.76934 29.46784,132.60391 21.98565,27.48206 52.16826,16.437 66.08065,-1.97387 -15.22739,8.66065 -35.43527,8.95847 -51.34811,-10.93418 z"
       style="fill:#f58d2f" /><path
       inkscape:connector-curvature="0"
       id="path27"
       d="m 173.42839,191.07865 c 0,0 -88.402605,66.30241 -88.402605,117.87044 0,26.56111 44.201305,58.93477 73.669145,22.10111 29.46784,-36.83365 29.46784,-132.6039 29.46784,-132.6039 l -14.73438,-7.36765 z"
       style="fill:#f59f3f" /><path
       inkscape:connector-curvature="0"
       id="path29"
       d="m 107.12598,308.94909 c 0,-41.65928 57.68483,-92.92582 79.8565,-111.09294 l -13.55409,-6.7775 c 0,0 -88.402605,66.30241 -88.402605,117.87044 0,20.90341 27.376675,45.39809 53.402615,36.93354 -17.40561,-5.3223 -31.30242,-22.04063 -31.30242,-36.93354 z"
       style="fill:#f58d2f" /><ellipse
       id="ellipse31"
       ry="100.64078"
       rx="110.50371"
       cy="107.54749"
       cx="239.72714"
       style="fill:#f59f3f" /><path
       inkscape:connector-curvature="0"
       id="path33"
       d="m 261.83099,198.44538 c -61.02959,0 -110.50371,-45.05811 -110.50371,-100.638946 0,-35.887956 20.63033,-67.382816 51.67525,-85.199876 -42.97336,13.78868 -73.77544,51.085103 -73.77544,94.939102 0,55.58175 49.47412,100.63894 110.50371,100.63894 21.62368,0 41.79215,-5.66135 58.82846,-15.43815 -11.49316,3.68657 -23.85138,5.69893 -36.72827,5.69893 z"
       style="fill:#f2821c" /><path
       inkscape:connector-curvature="0"
       id="path35"
       d="m 239.7308,208.18369 c 24.84382,0 47.77058,-7.46753 66.22635,-20.07134 -1.55234,-35.24008 -30.60414,-63.33611 -66.22635,-63.33611 -35.62221,0 -64.67493,28.09603 -66.22635,63.33611 18.45394,12.60381 41.38162,20.07134 66.22635,20.07134 z"
       style="fill:#fcde76" /><path
       inkscape:connector-curvature="0"
       id="path37"
       d="m 179.0256,164.43874 c -3.20731,7.29984 -5.15185,15.27962 -5.52207,23.67452 18.45577,12.60381 41.38345,20.07134 66.22635,20.07134 21.62277,0 41.79124,-5.66135 58.82664,-15.43815 -11.49134,3.68749 -23.84956,5.69985 -36.72553,5.69985 -32.96839,-9.2e-4 -62.55902,-13.15455 -82.80539,-34.00756 z"
       style="fill:#fccf6f" /><circle
       id="circle39"
       r="14.733461"
       cy="161.61081"
       cx="239.72714"
       style="fill:#787485" /><path
       inkscape:connector-curvature="0"
       id="path41"
       d="m 239.7308,250.01341 c -20.94923,-20.94922 -36.4726,2.48979 -25.00968,19.06517 7.20178,10.41459 25.00968,22.1011 25.00968,22.1011 0,0 17.8079,-11.6856 25.00968,-22.1011 11.46201,-16.57446 -4.17592,-39.89893 -25.00968,-19.06517 z"
       style="fill:#f082a6" /><path
       inkscape:connector-curvature="0"
       id="path43"
       d="m 239.7308,353.1504 c 20.34259,0 36.83457,-16.49199 36.83457,-36.83458 l -73.66914,0 c 0,20.34259 16.49015,36.83458 36.83457,36.83458 z"
       style="fill:#fcde76" /><path
       inkscape:connector-curvature="0"
       id="path45"
       d="m 217.62969,316.31582 -14.73346,0 c 0,20.34259 16.49198,36.83458 36.83457,36.83458 2.52278,0 4.98599,-0.25476 7.36673,-0.7386 -16.81363,-3.41258 -29.46784,-18.27617 -29.46784,-36.09598 z"
       style="fill:#fccf6f" /><g
       transform="matrix(0.91637404,0,0,0.91637404,5.1372123,0)"
       id="g47"><ellipse
         id="ellipse49"
         ry="32.157001"
         rx="36.175999"
         cy="345.18201"
         cx="131.39101"
         style="fill:#fcde76" /><ellipse
         id="ellipse51"
         ry="32.157001"
         rx="36.175999"
         cy="345.18201"
         cx="380.60599"
         style="fill:#fcde76" /></g><path
       inkscape:connector-curvature="0"
       id="path53"
       d="m 415.90371,396.20531 c -1.98395,-6.01508 -5.34704,-11.5124 -9.70074,-16.10527 -10.2753,-12.33348 -21.58244,-22.89011 -33.77938,-31.54159 4.69459,-2.23138 8.84576,-5.2774 12.21894,-8.93832 10.07095,-8.85584 16.69816,-21.01154 16.69816,-32.49737 0,-20.26653 -11.92019,-44.27644 -35.43068,-71.36171 -2.5017,-2.88017 -6.86456,-3.18807 -9.74289,-0.68912 -2.88016,2.49987 -3.18898,6.86181 -0.68911,9.74381 15.8157,18.22118 26.00394,34.956 30.05706,49.20745 -7.33557,-8.55985 -18.7765,-14.08192 -31.61857,-14.08192 -18.14054,0 -33.49438,11.01024 -38.40615,26.05527 -14.62441,-35.44627 -16.89427,-89.9467 -17.24341,-105.25381 2.22129,-1.17479 4.39401,-2.41831 6.52092,-3.71956 5.67602,4.46732 18.95886,15.26312 33.23597,29.30014 2.87283,2.8261 7.68196,2.53561 10.2139,-0.58648 2.2103,-2.72438 1.96746,-6.80682 -0.53149,-9.26362 -12.56257,-12.35089 -24.21061,-22.14876 -31.10449,-27.70474 4.4829,-3.56469 8.6634,-7.43821 12.51401,-11.57747 l 10.66109,5.33055 c 5.35438,2.67764 11.45559,-2.56402 9.67691,-8.24645 -1.10698,-3.53629 -4.76331,-4.7404 -7.7681,-6.24234 -1.20412,-0.60206 -2.40915,-1.20412 -3.61326,-1.80709 2.44672,-3.42816 4.6845,-6.99102 6.69961,-10.67484 l 9.74014,4.86961 c 2.95255,1.47628 6.64371,0.60481 8.61758,-2.03802 1.75394,-2.34775 1.82358,-5.6302 0.16678,-8.04851 -0.96128,-1.40297 -2.34225,-2.13607 -3.80845,-2.86825 -1.6898,-0.84398 -3.37959,-1.68979 -5.06938,-2.53377 -1.28201,-0.64055 -2.56402,-1.28201 -3.84511,-1.92256 1.11065,-2.90399 2.09392,-5.86296 2.93331,-8.87416 l 8.37291,4.18599 c 3.59769,1.79885 8.06685,0.0568 9.52663,-3.67741 1.28109,-3.27787 -0.20344,-7.10556 -3.34843,-8.67714 l -11.72134,-5.86021 c 0.46368,-3.63892 0.72852,-7.33283 0.78441,-11.07255 21.10868,-3.3411 36.85474,-21.653003 36.85474,-43.191459 0,-24.118048 -19.62232,-43.741282 -43.74129,-43.741282 -9.99306,0 -19.59482,3.398831 -27.33635,9.606349 C 301.6227,12.133709 272.19427,0 239.7308,0 207.26825,0 177.84348,12.131876 156.56986,31.702876 148.82924,25.488944 139.26138,22.101109 129.228,22.101109 c -24.11805,0 -43.741279,19.622318 -43.741279,43.741282 0,21.488972 15.943079,39.849439 36.854729,43.186879 0.055,3.74155 0.31982,7.43729 0.78442,11.07804 l -11.72134,5.86022 c -3.14958,1.57433 -4.62311,5.39652 -3.34843,8.67714 1.45245,3.73789 5.93444,5.47259 9.52662,3.67741 l 8.37291,-4.186 c 0.83848,3.01121 1.82267,5.97018 2.93331,8.87417 l -10.11676,5.05838 c -3.14958,1.57433 -4.62311,5.39653 -3.34844,8.67715 1.45246,3.73789 5.93444,5.47259 9.52663,3.67741 l 9.74014,-4.86961 c 2.01511,3.68382 4.25289,7.24668 6.69961,10.67484 l -7.88357,3.94132 c -3.14957,1.57433 -4.6231,5.39653 -3.34843,8.67715 1.45246,3.73789 5.93444,5.47258 9.52663,3.67741 l 10.66109,-5.33055 c 4.175,4.48932 8.74588,8.65974 13.66039,12.4691 -19.59757,15.61227 -85.885323,71.92345 -85.885323,119.28808 0,15.39325 11.900949,31.98787 28.046543,40.22882 -11.881705,8.54977 -22.914849,18.91762 -32.941814,30.95603 -4.337198,4.58462 -7.689294,10.07278 -9.667746,16.07137 -8.919068,27.05227 11.032227,58.03213 44.4753,69.05794 8.07142,2.66115 16.19508,3.92025 24.01175,3.92025 10.61711,0 20.65324,-2.33034 29.17735,-6.62721 0.0852,-0.0302 0.17227,-0.0541 0.2575,-0.088 1.55783,-0.61672 37.87007,-15.45831 67.89323,-66.2685 6.87189,0.91362 13.84825,0.91821 20.72014,0.003 30.02316,50.80927 66.33357,65.64995 67.8914,66.26667 0.0825,0.033 0.16678,0.0559 0.25017,0.0852 8.52503,4.29963 18.56391,6.62997 29.18468,6.62997 7.81392,0 15.94308,-1.26002 24.01175,-3.92025 33.44124,-11.02948 53.39253,-42.00842 44.47255,-69.0607 z M 353.91742,293.7547 c 14.47138,0 26.24495,10.12135 26.24495,22.56112 0,5.09504 -1.97753,9.79971 -5.30305,13.58067 -3.65542,3.04053 -7.88174,5.53306 -12.3848,7.11289 -2.63916,0.92554 -6.11954,1.77044 -10.09111,1.82634 -13.75936,-0.68637 -24.71003,-10.52273 -24.71003,-22.5199 -9.1e-4,-12.43977 11.77266,-22.56112 26.24404,-22.56112 z M 239.7308,169.43848 c -4.31612,0 -7.82767,-3.51155 -7.82767,-7.82767 0,-4.31612 3.51155,-7.82767 7.82767,-7.82767 4.31612,0 7.82767,3.51155 7.82767,7.82767 0,4.31612 -3.51338,7.82767 -7.82767,7.82767 z m 6.90579,12.6762 c 8.55436,-2.88933 14.73347,-10.98549 14.73347,-20.50387 0,-11.93211 -9.70807,-21.64017 -21.64018,-21.64017 -11.9321,0 -21.64017,9.70806 -21.64017,21.64017 0,9.51838 6.17911,17.61454 14.73346,20.50387 l 0,18.9497 c -19.27684,-1.15372 -37.12598,-7.09824 -52.10869,-16.52772 3.25588,-29.93428 28.45799,-52.85371 59.0154,-52.85371 30.55741,0 55.75953,22.91943 59.01541,52.85279 -14.98272,9.42949 -32.83277,15.37401 -52.1087,16.52772 l 0,-18.94878 z M 345.02768,60.011503 c 1.42404,-1.275592 3.25496,-1.997695 5.20592,-1.997695 4.31612,0 7.82766,3.511545 7.82766,7.827667 0,4.006387 -3.0277,7.315414 -6.91495,7.769019 -1.70538,-4.683588 -3.75439,-9.225137 -6.11863,-13.598991 z m 35.13378,5.829972 c 0,14.25878 -10.08012,26.45022 -23.80832,29.297395 -0.34822,-2.761952 -0.80916,-5.490914 -1.38189,-8.18597 9.6595,-2.167224 16.90252,-10.805883 16.90252,-21.111425 0,-11.932106 -9.70807,-21.640173 -21.64017,-21.640173 -4.60112,0 -8.97772,1.433209 -12.60656,4.042126 -1.6174,-2.232287 -3.32094,-4.405927 -5.1097,-6.518169 5.11428,-3.763548 11.29797,-5.81256 17.71717,-5.81256 16.50207,9.16e-4 29.92695,13.426712 29.92695,29.928776 z m -251.848,7.769019 c -3.88634,-0.453605 -6.91496,-3.762632 -6.91496,-7.769019 0,-4.316122 3.51155,-7.827667 7.82767,-7.827667 1.95738,0 3.78463,0.718437 5.20684,1.994946 -2.36333,4.37477 -4.41418,8.917236 -6.11955,13.60174 z M 99.299227,65.841475 c 0,-16.502064 13.424883,-29.92786 29.927863,-29.92786 6.44394,0 12.60655,2.045347 17.71717,5.811644 -1.78876,2.111326 -3.49322,4.284965 -5.1097,6.517252 -3.62243,-2.608 -7.98712,-4.040293 -12.60747,-4.040293 -11.93211,0 -21.64018,9.708067 -21.64018,21.640173 0,10.304626 7.24211,18.944201 16.90252,21.111426 -0.57181,2.692306 -1.03458,5.420352 -1.38097,8.178638 C 109.49847,92.280699 99.299227,80.062684 99.299227,65.841475 Z M 136.1338,107.54566 c 0,-51.684415 46.47299,-93.732238 103.597,-93.732238 57.12401,0 103.59609,42.047823 103.59609,93.732238 0,26.62799 -12.33715,50.69839 -32.10975,67.77777 -7.1972,-33.05728 -36.49185,-57.45299 -71.48726,-57.45299 -34.9954,0 -64.29097,24.39571 -71.48725,57.45299 -19.77352,-17.08121 -32.10883,-41.15069 -32.10883,-67.77777 z m -2.05176,128.04586 c 18.12954,-18.90663 36.50467,-33.5732 41.90761,-37.77111 1.71729,1.01993 3.46207,2.00503 5.23891,2.94431 -0.20251,12.12638 -1.95737,69.21374 -16.952,106.27832 -4.52689,-15.57928 -20.17397,-27.10085 -38.7333,-27.10085 -12.3628,0 -23.4326,5.11337 -30.786499,13.13256 5.463419,-16.52589 18.784749,-36.0639 39.325279,-57.48323 z m -8.53878,103.28543 c -14.47138,0 -26.244949,-10.12135 -26.244949,-22.56113 0,-12.43977 11.773569,-22.56112 26.244949,-22.56112 14.47138,0 26.24496,10.12135 26.24496,22.56112 0,12.43978 -11.77358,22.56113 -26.24496,22.56113 z m -13.18754,113.26842 c -26.20921,-8.64233 -42.215515,-31.79635 -35.681768,-51.61385 0.708357,-2.14707 1.677881,-4.20524 2.864585,-6.13055 1.227941,-1.99036 2.930564,-3.79195 4.42792,-5.5853 11.28148,-11.30164 31.810093,-15.2393 52.091283,-8.55435 26.20921,8.64233 42.21552,31.79635 35.68177,51.61385 -2.55118,7.73328 -8.17131,13.82442 -15.62509,17.87388 -0.34639,0.15487 -0.67904,0.32806 -0.98602,0.5315 -11.56006,5.8767 -27.24105,6.98552 -42.77268,1.86482 z m 74.29228,-23.9247 c 3.11476,-24.90704 -16.0732,-51.12175 -46.26406,-61.07633 -10.27347,-3.38691 -20.63858,-4.49573 -30.33198,-3.63342 3.9789,-3.07718 8.06134,-5.93077 12.24551,-8.53786 0.32073,-0.19977 0.61213,-0.42703 0.88796,-0.66803 1.47903,0.15303 2.95256,0.23825 4.41418,0.23734 11.28331,0 21.99297,-4.53697 31.05958,-13.23886 12.92637,25.76936 33.1929,44.04644 56.51004,51.64868 -9.46981,15.23471 -19.48578,26.74895 -28.52123,35.26848 z m -18.30732,-98.82544 c 21.90226,-34.25956 25.86008,-99.13701 26.57118,-122.45506 13.81709,5.24716 28.95376,8.15023 44.81802,8.15023 15.88626,0 31.04401,-2.9104 44.87759,-8.17222 0.86597,24.8823 5.216,88.14876 26.98447,121.37282 -14.26886,33.84444 -41.64646,54.78726 -71.86114,54.78726 -29.73267,0 -56.99388,-20.54328 -71.39012,-53.68303 z m 95.94528,63.55146 c 9.43132,-3.07994 18.45394,-7.92572 26.75262,-14.45764 12.42512,-9.77954 22.79939,-22.95058 30.36406,-38.42448 8.93739,8.3271 19.42346,12.65513 30.4566,12.65421 0.49576,0 0.99335,-0.0156 1.49186,-0.033 5.52574,3.2064 10.88469,6.82058 16.06404,10.82605 -9.69707,-0.86323 -20.06493,0.24467 -30.33931,3.6325 -30.19086,9.95458 -49.37882,36.16837 -46.26406,61.07633 -9.03637,-8.52044 -19.05417,-20.03743 -28.52581,-35.27398 z m 102.81808,59.19868 c -15.54812,5.12436 -31.2456,4.01005 -42.81024,-1.88132 -0.29691,-0.19427 -0.61397,-0.36105 -0.9457,-0.51134 -7.45562,-4.05037 -13.07849,-10.14151 -15.62784,-17.87662 -6.53467,-19.81751 9.47164,-42.97336 35.68177,-51.61385 16.36919,-5.39744 36.9482,-4.83387 50.49129,7.04508 2.03893,1.78785 3.73148,3.99356 5.35621,6.15437 1.59449,2.11866 2.7088,4.55988 3.53629,7.06983 6.53374,19.8175 -9.47256,42.97152 -35.68178,51.61385 z" /><path
       inkscape:connector-curvature="0"
       id="path55"
       d="m 269.19772,116.94949 0.92096,0 c 3.81486,0 6.90671,-3.09185 6.90671,-6.90671 0,-3.81395 -3.09093,-6.90671 -6.90671,-6.90671 l -0.92096,0 c -3.81486,0 -6.90671,3.09184 -6.90671,6.90671 0,3.81395 3.09185,6.90671 6.90671,6.90671 z" /><path
       inkscape:connector-curvature="0"
       id="path57"
       d="m 210.26296,116.94949 0.92096,0 c 3.81486,0 6.90671,-3.09185 6.90671,-6.90671 0,-3.81395 -3.09093,-6.90671 -6.90671,-6.90671 l -0.92096,0 c -3.81487,0 -6.90671,3.09184 -6.90671,6.90671 0,3.81395 3.09184,6.90671 6.90671,6.90671 z" /><path
       inkscape:connector-curvature="0"
       id="path59"
       d="m 235.93976,296.95467 c 2.27719,1.49369 5.30214,1.49369 7.57841,0 0.77251,-0.50767 19.02301,-12.55524 26.90108,-23.94577 7.75161,-11.20908 6.57132,-26.0406 -2.68864,-33.76471 -6.24051,-5.20592 -16.52681,-7.05608 -27.99889,1.60548 -11.5005,-8.70005 -21.79413,-6.87097 -28.02822,-1.66963 -9.26637,7.73053 -10.43842,22.58954 -2.66573,33.82795 7.87898,11.39053 26.1304,23.43901 26.90199,23.94668 z m -15.38684,-47.16852 c 0.89988,-0.75051 2.00136,-1.11614 3.25222,-1.11614 3.04694,0 6.98002,2.16722 11.04047,6.22676 2.69781,2.69689 7.07074,2.69689 9.76763,0 5.7869,-5.78782 11.12203,-7.6728 14.26978,-5.04555 3.29436,2.7482 4.15117,9.55136 0.17502,15.29978 -4.18508,6.05173 -13.39647,13.35706 -19.32907,17.63012 -5.93352,-4.27397 -15.144,-11.57839 -19.32908,-17.63104 -3.99631,-5.77957 -3.14683,-12.61022 0.15303,-15.36393 z" /><path
       inkscape:connector-curvature="0"
       id="path61"
       d="m 276.56445,309.40911 -73.66914,0 c -3.81486,0 -6.90671,3.09185 -6.90671,6.90671 0,24.11805 19.62232,43.74129 43.74128,43.74129 24.11897,0 43.74129,-19.62232 43.74129,-43.74129 0,-3.81394 -3.09185,-6.90671 -6.90672,-6.90671 z m -36.83365,36.83457 c -14.12591,0 -25.99753,-9.83727 -29.1242,-23.02114 l 58.2484,0 c -3.12667,13.18387 -14.99829,23.02114 -29.1242,23.02114 z" /></g><g
     id="g63" /><g
     id="g65" /><g
     id="g67" /><g
     id="g69" /><g
     id="g71" /><g
     id="g73" /><g
     id="g75" /><g
     id="g77" /><g
     id="g79" /><g
     id="g81" /><g
     id="g83" /><g
     id="g85" /><g
     id="g87" /><g
     id="g89" /><g
     id="g91" /><circle
     style="opacity:1;fill:#07ff00;fill-opacity:1;fill-rule:nonzero;stroke:#ffffff;stroke-width:30;stroke-linecap:butt;stroke-linejoin:miter;stroke-miterlimit:4;stroke-dasharray:none;stroke-opacity:1"
     id="path8111"
     cx="412.87949"
     cy="412.87949"
     r="84.12149" /></svg>