<?xml version="1.0" encoding="UTF-8" standalone="no"?>
<!-- Generator: Adobe Illustrator 19.0.0, SVG Export Plug-In . SVG Version: 6.00 Build 0)  -->

<svg
   xmlns:dc="http://purl.org/dc/elements/1.1/"
   xmlns:cc="http://creativecommons.org/ns#"
   xmlns:rdf="http://www.w3.org/1999/02/22-rdf-syntax-ns#"
   xmlns:svg="http://www.w3.org/2000/svg"
   xmlns="http://www.w3.org/2000/svg"
   xmlns:sodipodi="http://sodipodi.sourceforge.net/DTD/sodipodi-0.dtd"
   xmlns:inkscape="http://www.inkscape.org/namespaces/inkscape"
   version="1.1"
   id="Layer_1"
   x="0px"
   y="0px"
   viewBox="0 0 512 512"
   xml:space="preserve"
   inkscape:version="0.91 r13725"
   sodipodi:docname="marker-areainterest-scenic.svg"
   width="512"
   height="512"><metadata
     id="metadata109"><rdf:RDF><cc:Work
         rdf:about=""><dc:format>image/svg+xml</dc:format><dc:type
           rdf:resource="http://purl.org/dc/dcmitype/StillImage" /><dc:title></dc:title></cc:Work></rdf:RDF></metadata><defs
     id="defs107" /><sodipodi:namedview
     pagecolor="#ffffff"
     bordercolor="#666666"
     borderopacity="1"
     objecttolerance="10"
     gridtolerance="10"
     guidetolerance="10"
     inkscape:pageopacity="0"
     inkscape:pageshadow="2"
     inkscape:window-width="1920"
     inkscape:window-height="1017"
     id="namedview105"
     showgrid="false"
     inkscape:zoom="0.52678571"
     inkscape:cx="224"
     inkscape:cy="224"
     inkscape:window-x="1912"
     inkscape:window-y="-8"
     inkscape:window-maximized="1"
     inkscape:current-layer="Layer_1" /><g
     id="g8169"
     transform="matrix(1.0939444,0,0,1.1032024,24.454895,1.3559325)"><path
       inkscape:connector-curvature="0"
       id="path3"
       d="m 380.73181,138.81716 c -5.19384,0 -10.10438,2.07753 -13.88172,5.94931 -1.1332,1.1332 -1.6998,1.1332 -2.07753,1.1332 l 0,0 c -0.18887,0 -0.47217,0 -0.75547,-0.0944 -0.84991,-0.37774 -1.88868,-1.41651 -2.17197,-2.17197 -3.68291,-11.70975 -14.44832,-19.92546 -26.44136,-19.92546 l -13.50399,0 31.91851,54.7714 26.91353,0 c 10.95428,0 19.83102,-8.87675 19.83102,-19.83103 0,-10.95427 -8.97118,-19.83102 -19.83102,-19.83102 z"
       style="fill:#d9cdc1" /><path
       inkscape:connector-curvature="0"
       id="path5"
       d="m 282.9932,77.057689 33.99603,58.926471 -31.72963,0 4.5328,-12.84295 c 0.75547,-2.2664 0,-4.53281 -0.75547,-6.79921 -2.2664,-2.2664 -4.5328,-3.02187 -6.79921,-3.02187 l -16.62028,0 17.37576,-36.262441 z"
       style="fill:#fff8ef" /><path
       inkscape:connector-curvature="0"
       id="path7"
       d="m 357.78448,241.74961 0,-15.10935 -22.66403,0 0,15.10935 22.66403,0 z m -127.67401,-52.12725 28.70776,-61.19288 12.84295,0 -4.53281,12.84295 c -0.75546,2.26641 0,4.53281 0.75547,6.79921 1.51093,2.2664 3.77734,3.02187 6.04374,3.02187 l 51.37179,0 56.66007,98.21078 -125.40761,0 -3.77734,-7.55468 67.23661,0 0,-15.10935 -73.28035,0 -16.62028,-37.0179 z"
       style="fill:#67bc34" /><path
       inkscape:connector-curvature="0"
       id="path9"
       d="m 224.91663,77.529857 c -1.98311,-8.876744 -9.72665,-15.014917 -18.98112,-15.014917 -7.83798,0 -14.82606,4.721672 -17.94236,11.898613 l -0.0944,0.188867 -0.0944,0.188866 c -0.18887,0.566602 -0.66103,1.133202 -1.03876,1.322069 -1.41651,0 -2.92744,-0.566601 -3.21075,-0.849901 l -2.2664,-2.266402 -7.6491,5.382706 6.79921,14.353883 4.24949,1.227635 23.4195,0 c 2.64414,0 4.8161,-1.133202 6.61034,-1.983103 l 0.66104,-0.377733 0.37773,-0.377734 c 0,0 0,0 0.0944,0 0.5666,-0.283301 1.41651,-0.755468 2.36084,-1.605369 l 1.03876,-1.038768 c 2.36084,-1.510935 3.49404,-3.777337 4.34395,-5.477139 l 0.47216,-1.038768 0,-0.377734 c 0.28331,-0.661034 0.75547,-1.699802 0.75547,-3.02187 l 0,-0.472168 0.0944,-0.661033 z"
       style="fill:#fff8ef" /><path
       inkscape:connector-curvature="0"
       id="path11"
       d="m 221.80032,75.546754 c 0,1.510935 0,2.266403 -0.75547,3.777338 -1.51093,-6.799208 -7.55468,-11.332014 -14.35388,-11.332014 -6.04374,0 -11.33201,3.777339 -13.59841,9.065611 -0.75547,2.266403 -3.02188,3.777338 -5.28828,4.532805 -2.2664,0.755468 -5.28827,0 -6.7992,-2.266402 l -1.51095,-1.510935 -0.75546,-0.755468 -6.04374,-8.876743 3.77734,-0.188868 c 0.75546,0 0.75546,0 0.75546,0 0,0 0.75547,0.755468 1.51094,1.510936 l 1.51094,1.510935 c 1.51093,1.510935 4.5328,2.266403 6.7992,2.266403 2.2664,0 4.53281,-2.266403 5.28828,-4.532806 2.2664,-5.288273 7.55467,-9.06561 13.59842,-9.06561 9.06561,0.755468 15.86481,7.554676 15.86481,15.864818 z"
       style="fill:#d9cdc1" /><path
       inkscape:connector-curvature="0"
       id="path13"
       d="m 214.24565,407.95248 c -27.9523,0 -55.14913,-6.04375 -80.83504,-15.86483 7.55468,-1.51093 12.84296,-5.28827 16.6203,-7.55467 5.28826,-3.77734 9.82108,-6.04374 18.88669,-6.04374 9.0656,0 12.84294,3.02187 18.13121,6.04374 6.04375,3.77734 13.59842,9.06561 26.44136,9.06561 13.59843,0 21.1531,-5.28827 27.19684,-9.06561 5.28827,-3.77734 9.06561,-6.04374 18.13122,-6.04374 9.06561,0 13.59842,3.02187 18.13122,6.04374 4.5328,3.02187 9.06561,6.04374 16.62028,7.55467 -24.17496,9.82108 -51.37178,15.86483 -79.32408,15.86483 z"
       style="fill:#b37d4d" /><path
       inkscape:connector-curvature="0"
       id="path15"
       d="m 138.69889,25.685896 36.26244,80.079554 -33.24057,0 4.53281,-12.842942 c 0.75547,-2.266403 0,-4.532806 -0.75547,-6.799208 -2.26641,-2.266403 -4.53281,-3.02187 -6.79921,-3.02187 l -27.19683,0 27.19683,-57.415534 z"
       style="fill:#fff8ef" /><path
       inkscape:connector-curvature="0"
       id="path17"
       d="m 214.24565,332.40572 c -12.84296,0 -18.88669,-3.02187 -25.6859,-6.79921 -7.55467,-3.77734 -15.86482,-8.31014 -32.48511,-8.31014 -16.62028,0 -24.93043,4.5328 -32.4851,8.31014 -6.79921,3.77734 -12.84295,6.79921 -25.685895,6.79921 -12.842949,0 -18.131222,-3.02187 -25.685897,-6.79921 -7.554676,-3.77734 -15.864819,-8.31014 -32.485104,-8.31014 -5.288273,-7.55468 -9.821079,-15.10936 -13.598416,-22.66403 l 374.711902,0 c -3.77734,7.55467 -9.06561,15.10935 -13.59841,22.66403 -15.86483,0 -24.93044,4.5328 -32.48511,8.31014 -6.04374,3.77734 -12.08748,6.79921 -24.93043,6.79921 -12.84295,0 -18.88669,-3.02187 -25.6859,-6.79921 -7.55467,-3.77734 -15.86481,-8.31014 -32.4851,-8.31014 -16.62029,0 -24.93043,4.5328 -32.4851,8.31014 -6.04375,3.77734 -12.08748,6.79921 -24.93043,6.79921 z"
       style="fill:#7ac943" /><path
       inkscape:connector-curvature="0"
       id="path19"
       d="m 100.92551,181.31221 c 0,0.75547 -0.75546,2.2664 -0.75546,3.02187 0,-0.75547 0,-2.2664 0.75546,-3.02187 z"
       style="fill:#fff8ef" /><path
       inkscape:connector-curvature="0"
       id="path21"
       d="m 214.24565,347.51507 c 16.62028,0 24.93043,-4.53281 32.4851,-8.31014 6.79921,-3.77734 12.84294,-6.79921 25.6859,-6.79921 12.84295,0 18.88668,3.02187 25.68589,6.79921 7.55468,3.77733 15.86482,8.31014 32.48511,8.31014 16.62028,0 24.93043,-4.53281 32.48511,-8.31014 3.77733,-2.26641 7.55467,-3.77734 12.08748,-5.28828 -9.06562,10.57655 -19.64216,20.39763 -30.21871,28.70777 -9.82108,1.51094 -15.86481,5.28827 -21.15309,8.31014 -5.28827,3.77734 -9.82108,6.79921 -18.88669,6.79921 -9.06561,0 -13.59842,-3.02187 -18.88669,-6.04374 -5.28827,-3.77734 -12.84294,-9.06561 -26.44137,-9.06561 -13.59841,0 -21.15308,5.28827 -27.19682,9.06561 -5.28827,3.02187 -9.06562,6.04374 -18.13122,6.04374 -9.06561,0 -12.84296,-3.02187 -18.13122,-6.04374 -6.04375,-3.77734 -13.59842,-9.06561 -27.19683,-9.06561 -13.59843,0 -21.15309,5.28827 -27.19684,9.06561 -5.28827,3.02187 -9.06561,6.04374 -18.13122,6.04374 -9.06561,0 -13.59842,-3.02187 -18.88669,-6.04374 -4.5328,-3.02187 -10.576544,-7.55467 -21.153089,-8.31014 -11.332013,-8.31015 -21.153092,-18.13122 -30.218701,-28.70777 4.532805,1.51093 8.310142,3.02188 12.08748,5.28828 7.554676,3.77733 15.864818,8.31013 32.485105,8.31013 16.620285,0 24.930435,-4.5328 32.485105,-8.31013 6.79921,-3.77735 12.84294,-6.79921 25.68589,-6.79921 12.84296,0 18.88669,3.02186 25.6859,6.79921 7.55467,3.02186 15.86482,7.55467 32.48511,7.55467 z"
       style="fill:#2fb4c2" /><g
       transform="matrix(0.94433443,0,0,0.94433443,0.13009044,0)"
       id="g23"><path
         inkscape:connector-curvature="0"
         id="path25"
         d="m 111.537,190.7 c -3.1,-11.4 -13.6,-19.7 -24.8,-19.7 -6.9,0 -12.4,2.8 -15.6,5.6 -0.4,0.2 -0.8,0.3 -1,0.3 l -0.6,-0.3 -1.2,0 c -0.3,0 -1.2,-0.9 -1.8,-1.5 -5.9,-7.7 -14.6,-12.1 -23.8,-12.1 -13.7,0 -25.6,9.5 -29.6,23.6 l -0.2,0.7 0,0.7 c 0,1.5 0.5,2.6 0.9,3.3 0.2,1 0.5,1.9 0.8,2.4 0.1,1 0.5,1.7 0.7,2.3 l 0,1.3 1.3,1.3 c 0,0 0,0 0,0.1 0.2,0.4 0.5,1.1 1.1,1.8 0.9,1.7 2.1,3.8 4.3,5.2 l 2.7,2.7 c 0.4,0.4 1.4,1.3 2.7,1.8 1.1,0.8 2.2,1.3 4,1.3 l 0.8,0 c 0.7,0.3 1.8,0.8 3.2,0.8 0.2,0 0.8,0.2 1.2,0.3 1,0.2 2.2,0.5 3.6,0.5 l 48,0 c 6.4,0 12.4,-2.3 16.3,-6.3 l 2.4,-2.4 c 1,-1 1.5,-1.9 1.7,-2.5 0,0 0,0 0,-0.1 l 1.3,-1.3 0,-1.3 c 0.3,-0.7 0.8,-1.8 0.8,-3.2 l 0,-0.4 c 0,-0.1 0.1,-0.3 0.1,-0.4 0.3,-0.9 0.7,-2 0.7,-3.2 l 0,-0.7 0,-0.6 z"
         style="fill:#fff8ef" /><path
         inkscape:connector-curvature="0"
         id="path27"
         d="m 301.637,126 c 0.4,1.2 0.6,2.2 0.4,2.7 l -7.2,20.3 49.3,0 -45.1,-78.1 -25.8,54.1 25.5,0 c 0.8,0 1.7,0.1 2.9,1 z"
         style="fill:#fff8ef" /></g><path
       inkscape:connector-curvature="0"
       id="path29"
       d="m 315.28943,231.36193 0,5.66601 -70.16405,0 8.49901,16.99802 136.45633,0 -62.13721,-107.65412 -54.11036,0 c -1.03877,0 -1.51094,-0.28331 -1.79423,-0.5666 -0.37774,-1.22764 -0.75547,-2.36084 -0.5666,-3.02188 l 6.7992,-19.16999 -22.47516,0 -30.87973,65.91455 18.79225,41.73958 71.58055,0 0,0.0944 z m 24.55269,0 13.22069,0 0,5.66601 -13.22069,0 0,-5.66601 z"
       style="fill:#7ac943" /><path
       inkscape:connector-curvature="0"
       id="path31"
       d="m 279.59359,380.56677 c -4.81611,-3.21073 -10.29325,-6.7992 -20.77536,-6.7992 -10.29324,0 -15.10935,2.833 -20.77535,6.7992 l -0.94434,0.5666 c -5.66601,3.58848 -12.18191,7.64911 -23.60837,7.64911 -10.67097,0 -17.09245,-4.06063 -22.75845,-7.64911 l -1.1332,-0.75546 -0.18887,-0.0944 c -0.66104,-0.37774 -1.32207,-0.75547 -1.88867,-1.1332 -4.62723,-2.73858 -9.34891,-5.57158 -18.60338,-5.57158 -9.91552,0 -15.39265,2.45527 -21.4364,6.7992 -0.47216,0.28331 -0.94433,0.5666 -1.51093,0.94434 -3.49404,2.17197 -7.74355,4.8161 -13.40955,5.9493 l -16.05369,3.21075 15.29822,5.85487 c 28.04674,10.76541 55.81016,16.14812 82.53483,16.14812 26.91353,0 54.96026,-5.57158 81.11833,-16.24255 l 14.54275,-5.94931 -15.39265,-3.1163 c -6.79922,-1.03878 -10.57655,-3.58847 -15.01492,-6.61035 z"
       style="fill:#b37d4d" /><path
       inkscape:connector-curvature="0"
       id="path33"
       d="m 141.43746,88.767437 c 0.37774,1.133201 0.56661,2.077535 0.37774,2.549702 l -6.79921,19.169991 47.21672,0 -43.43939,-96.038813 -34.7515,73.374785 34.65707,0 c 0.75547,0 1.60537,0.09444 2.73857,0.944335 z"
       style="fill:#fff8ef" /><path
       inkscape:connector-curvature="0"
       id="path35"
       d="m 18.485119,289.91067 3.399604,6.79921 c 3.87177,7.74354 8.593443,15.58152 13.976149,23.23062 l 1.416502,1.98311 2.45527,0 c 14.82605,0 22.286292,3.6829 29.463233,7.3658 l 2.171969,1.03877 c 7.176943,3.58847 13.315116,6.70478 26.630232,6.70478 13.503982,0 20.397632,-3.21074 27.857872,-7.36581 l 0.84989,-0.47217 c 7.17695,-3.58847 14.63719,-7.36581 29.46324,-7.36581 14.82605,0 22.28629,3.68291 29.46324,7.36581 l 0.84989,0.47217 c 7.46024,4.15507 14.35388,7.36581 27.85787,7.36581 14.07058,0 20.96423,-3.49404 27.19683,-7.36581 l 0.75546,-0.37774 c 7.17695,-3.58847 14.63719,-7.3658 29.46324,-7.3658 14.82605,0 22.2863,3.6829 29.46324,7.3658 l 0.8499,0.47217 c 7.46024,4.15507 14.35388,7.36581 27.85786,7.36581 14.07059,0 20.96423,-3.49403 27.19684,-7.36581 7.27137,-3.6829 15.58151,-7.74354 30.2187,-7.74354 l 2.64413,0 1.4165,-2.2664 c 1.51094,-2.45527 3.11631,-5.00497 4.62724,-7.46024 3.21074,-5.00498 6.51591,-10.29325 9.16005,-15.48709 l 3.39961,-6.79921 -390.104561,0 0,-0.0944 z"
       style="fill:#7ac943" /><path
       inkscape:connector-curvature="0"
       id="path37"
       d="m 360.80635,335.04985 -0.75547,0.37774 c -7.17694,3.58847 -14.63719,7.36581 -29.46323,7.36581 -14.82605,0 -22.28629,-3.68291 -29.46324,-7.36581 l -0.84989,-0.47217 c -7.46025,-4.15507 -14.35389,-7.36581 -27.85787,-7.36581 -13.50398,0 -20.39763,3.21074 -27.85787,7.36581 l -0.8499,0.47217 c -7.17695,3.58847 -14.63719,7.36581 -29.46323,7.36581 -13.50398,0 -21.05866,-3.11631 -27.669,-5.94931 -0.94433,-0.37773 -1.88868,-0.75547 -2.73857,-1.1332 -7.46024,-4.15508 -14.25945,-7.27137 -27.76344,-7.27137 -13.50397,0 -20.39761,3.21073 -27.85786,7.3658 l -0.8499,0.37773 c -7.17695,3.58848 -14.63719,7.36581 -29.463235,7.36581 -14.826051,0 -22.286293,-3.6829 -29.463235,-7.36581 l -0.755468,-0.37773 c -4.438372,-2.64413 -8.876744,-4.24951 -12.842948,-5.666 l -16.148118,-5.28828 11.048712,12.93738 c 10.38768,12.18192 20.58649,21.81413 30.97417,29.46324 l 1.1332,0.8499 1.322069,0.0944 c 8.593443,0.66103 13.787283,4.06064 17.942353,6.89364 l 1.1332,0.75546 1.22764,0.75547 c 5.09941,2.92744 10.48211,6.04374 20.11432,6.04374 9.25447,0 13.97615,-2.833 18.60339,-5.57158 0.66103,-0.37773 1.22763,-0.75546 1.88867,-1.1332 l 0.0944,0 1.1332,-0.75546 c 5.66601,-3.58847 12.18192,-7.64911 23.60837,-7.64911 11.42644,0 17.94235,4.06064 23.60836,7.64911 l 1.03876,0.66103 0.18887,0.0944 c 0.66104,0.37774 1.32206,0.75547 1.88866,1.1332 4.62724,2.73858 9.34892,5.57158 18.6034,5.57158 9.25447,0 13.97615,-2.833 18.60339,-5.57158 0.66103,-0.37773 1.22763,-0.75546 1.88867,-1.1332 l 0.0944,0 1.1332,-0.75546 c 5.66602,-3.58847 12.18192,-7.64911 23.60836,-7.64911 12.27636,0 18.8867,4.72168 23.7028,8.21571 l 0.18887,0.0944 1.32207,0.75547 c 5.09941,2.92744 10.48212,6.04374 20.11432,6.04374 10.76541,0 16.43142,-3.9662 21.4364,-7.55467 l 0.84989,-0.47217 c 5.00497,-2.833 10.10439,-5.85487 18.41452,-7.08251 l 1.22764,-0.18887 0.94433,-0.75546 c 11.52088,-9.06562 22.19187,-19.16999 30.87974,-29.3688 l 11.14314,-12.93739 -16.14812,5.38271 c -4.06063,1.1332 -8.40457,2.73857 -12.84294,5.3827 z"
       style="fill:#2fb4c2" /><g
       transform="matrix(0.94433443,0,0,0.94433443,0.13009044,0)"
       id="g39"><path
         inkscape:connector-curvature="0"
         id="path41"
         d="m 194.737,123 -56.8,0 c -1.1,0 -1.6,-0.3 -1.9,-0.6 -0.4,-1.3 -0.8,-2.5 -0.6,-3.2 l 7.2,-20.3 -35.9,0 -27.1,58 7.9,0 c 16.7,0 30.2,13.9 30.2,31 0,17.4 -13.6,31 -31,31 l -42,0 -10.8,18 139.8,0 0,6 -142.6,0 -15.6,26 245.4,0 -66.2,-145.9 z m 5,120 0,-6 14,0 0,6 -14,0 z"
         style="fill:#7ac943" /><path
         inkscape:connector-curvature="0"
         id="path43"
         d="m 194.737,232 0,16 24,0 0,-16 -24,0 z m -108,-8 c 20,0 36,-16 36,-36 0,-20 -16,-36 -35.2,-36 l 22.4,-48 25.6,0 -4.8,13.6 c -0.8,2.4 0,4.8 0.8,7.2 1.6,2.4 4,3.2 6.4,3.2 l 53.6,0 61.6,136 -226.4,0 -2.4,0 9.6,-16 144.8,0 0,-16 -136,0 4.8,-8 35.2,0 c 0.8,0 0.8,0 1.6,0 0.8,0 1.6,0 2.4,0 z"
         style="fill:#7ac943" /></g><g
       transform="matrix(0.94433443,0,0,0.94433443,0.13009044,0)"
       id="g45"><path
         inkscape:connector-curvature="0"
         id="path47"
         d="m 22.737,196.8 c 0.8,1.6 2.4,3.2 3.2,4 -1.6,-0.8 -2.4,-2.4 -3.2,-4 z"
         style="fill:#d9cdc1" /><path
         inkscape:connector-curvature="0"
         id="path49"
         d="m 21.137,194.4 c 0.8,0.8 0.8,1.6 1.6,2.4 -0.8,-0.8 -0.8,-1.6 -1.6,-2.4 z"
         style="fill:#d9cdc1" /><path
         inkscape:connector-curvature="0"
         id="path51"
         d="m 19.537,190.4 c 0,0.8 0,1.6 0.8,2.4 0,-1.6 -0.8,-1.6 -0.8,-2.4 z"
         style="fill:#d9cdc1" /><path
         inkscape:connector-curvature="0"
         id="path53"
         d="m 41.537,157 c 8,0 15.2,4.6 20,11 1.6,1.6 3.1,3.8 5.5,3.8 2.4,0 3.2,-0.1 4.8,-1.7 2.4,-2.4 8.8,-3.2 14.4,-3.2 11.2,0 20,8.8 20,20 0,1.6 0,2.4 0,4 -1.6,-8.8 -9.6,-16 -20,-16 -5.6,0 -9.6,2.4 -12.8,4.8 -1.6,1.6 -4,2.4 -6.4,1.6 -2.4,-0.8 -4,-1.6 -5.6,-3.2 -4.8,-6.4 -12,-10.4 -20,-10.4 -12,0 -21.6,8.8 -23.2,20 -0.8,-1.6 -0.8,-2.4 -0.8,-4 0.1,-12.8 10.5,-26.7 24.1,-26.7 z"
         style="fill:#d9cdc1" /></g><g
       transform="matrix(0.94433443,0,0,0.94433443,0.13009044,0)"
       id="g55"><polygon
         id="polygon57"
         points="254.737,264 192.337,128 170.737,128 195.537,232 218.737,232 218.737,248 198.737,248 202.737,264 "
         style="fill:#67bc34" /><polygon
         id="polygon59"
         points="202.837,269 266.537,269 199.537,123 168.437,123 195.637,237 217.737,237 217.737,243 196.337,243 "
         style="fill:#67bc34" /></g><polygon
       transform="matrix(0.94433443,0,0,0.94433443,0.13009044,0)"
       id="polygon61"
       points="167.537,117 196.937,117 156.737,22 144.037,18 "
       style="fill:#d9cdc1" /><g
       transform="matrix(0.94433443,0,0,0.94433443,0.13009044,0)"
       id="g63"><path
         inkscape:connector-curvature="0"
         id="path65"
         d="m 353.037,155 -32.1,0 35.1,114 62.8,0 -65.8,-114 z m 11.7,96 0,-6 14,0 0,6 -14,0 z"
         style="fill:#67bc34" /><path
         inkscape:connector-curvature="0"
         id="path67"
         d="m 322.737,160 32,104 50.4,0 -60,-104 -22.4,0 z m 32,80 24,0 0,16 -24,0 0,-16 z"
         style="fill:#67bc34" /></g><polygon
       transform="matrix(0.94433443,0,0,0.94433443,0.13009044,0)"
       id="polygon69"
       points="335.537,144 299.537,81.6 317.937,144 "
       style="fill:#d9cdc1" /><path
       inkscape:connector-curvature="0"
       id="path71"
       d="m 397.35209,162.61439 c -1.9831,-8.87675 -6.70477,-15.29822 -18.50896,-15.29822 -4.91053,0 -7.9324,5.0994 -13.40954,6.51591 -7.27138,1.88867 -9.53778,-4.24951 -12.27635,-9.25448 -1.32207,-2.45527 -3.02187,-4.72167 -5.00497,-6.70477 -4.15507,-3.87178 -9.53778,-5.47714 -15.10935,-5.47714 l -8.97118,0 27.3857,47.21672 26.91353,0 c 9.16004,0 16.99802,-6.13817 18.98112,-15.01492 l 0.18887,-1.03877 -0.18887,-0.94433 z"
       style="fill:#fff8ef" /><path
       inkscape:connector-curvature="0"
       id="path73"
       d="m 335.12045,226.64026 22.66403,0 0,15.10935 -22.66403,0 0,-15.10935 z m -151.0935,-7.55467 22.66402,0 0,15.10934 -22.66402,0 0,-15.10934 z M 168.9176,377.73377 c -9.06561,0 -13.59843,3.02187 -18.88669,6.04375 -4.53281,3.02186 -9.06562,6.04373 -16.6203,7.55467 25.68591,10.57654 52.88274,16.62029 80.83504,16.62029 27.9523,0 55.14912,-6.04375 80.83503,-15.86483 -7.55468,-1.51093 -12.84296,-5.28827 -16.62029,-7.55467 -6.04374,-3.77734 -9.82108,-6.79921 -18.8867,-6.79921 -9.0656,0 -13.59841,3.02187 -18.13121,6.04375 -6.04375,3.77733 -13.59842,9.0656 -27.19683,9.0656 -13.59842,0 -21.15309,-5.28827 -26.44137,-9.0656 -6.04374,-3.02188 -9.82108,-6.04375 -18.88668,-6.04375 z m 181.3122,0 c -38.52884,28.70777 -86.1233,45.32805 -135.98415,45.32805 -49.86086,0 -97.45532,-16.62028 -135.984162,-45.32805 l 0,0 0,0 C 48.798254,355.06974 23.867825,325.60651 8.0030066,290.09953 c -0.7554676,-2.2664 -0.7554676,-5.28827 0.7554675,-7.55467 0.7554676,-1.51093 3.7773379,-3.02187 6.0437409,-3.02187 l 398.886865,0 c 2.2664,0 5.28827,1.51094 6.04373,3.77734 1.51095,2.2664 1.51095,4.5328 0.75548,7.55467 -15.86483,34.75151 -40.03979,64.21474 -70.25849,86.87877 l 0,0 0,0 z m -135.98415,-30.2187 c -16.62029,0 -24.93044,-4.53281 -32.48511,-8.31014 -6.79921,-3.77734 -12.84294,-6.79921 -25.6859,-6.79921 -12.84295,0 -18.88668,3.02187 -25.68589,6.79921 -7.55467,3.77733 -15.86482,8.31014 -32.485105,8.31014 -16.620287,0 -24.930429,-4.53281 -32.485105,-8.31014 -3.777338,-2.26641 -7.554675,-3.77734 -12.08748,-5.28828 9.065609,10.57655 19.642156,20.39763 30.218701,28.70777 9.821078,1.51094 15.864818,5.28827 21.153089,8.31014 5.28827,3.77734 9.82108,6.04374 18.88669,6.04374 9.06561,0 12.84295,-3.02186 18.13122,-6.04374 6.04375,-3.77734 13.59841,-9.0656 27.19684,-9.0656 13.59841,0 21.15308,5.28826 26.44136,9.0656 5.28827,3.77734 9.06561,6.04374 18.13121,6.04374 9.06562,0 13.59843,-3.02186 18.13123,-6.04374 6.04374,-3.77734 13.59841,-9.0656 27.19683,-9.0656 13.59842,0 21.15309,5.28826 27.19683,9.0656 5.28827,3.77734 9.82108,6.04374 18.88669,6.04374 9.06561,0 13.59842,-3.02186 18.13122,-6.04374 5.28827,-3.02187 11.33201,-7.55467 21.15309,-8.31014 11.33202,-8.31014 21.1531,-18.13122 30.21871,-28.70777 -4.53281,1.51094 -8.31015,3.02187 -12.08749,5.28828 -7.55467,3.77733 -15.86481,8.31014 -32.4851,8.31014 -16.62029,0 -24.93043,-4.53281 -32.4851,-8.31014 -6.79921,-3.77734 -12.84295,-6.79921 -25.6859,-6.79921 -12.84295,0 -18.88669,3.02187 -25.6859,6.79921 -6.7992,3.77733 -15.10935,8.31014 -31.72963,8.31014 z M 98.659112,332.40572 c 12.842948,0 18.886688,-3.02187 25.685898,-6.79921 7.55467,-3.77734 15.86482,-8.31014 32.48511,-8.31014 16.62028,0 24.93042,4.5328 32.48509,8.31014 6.79922,3.77734 12.84295,6.79921 25.68591,6.79921 12.84294,0 18.88668,-3.02187 25.68589,-6.79921 7.55467,-3.77734 15.86482,-8.31014 32.48511,-8.31014 16.62028,0 24.93042,4.5328 32.4851,8.31014 6.79921,3.77734 12.84295,6.79921 25.6859,6.79921 12.84294,0 18.88668,-3.02187 25.68589,-6.79921 7.55468,-3.77734 15.86482,-8.31014 32.48511,-8.31014 5.28827,-7.55468 9.82108,-15.10936 13.59841,-22.66403 l -376.222835,0 c 4.532805,7.55467 9.06561,15.10935 13.598416,22.66403 15.864818,0 24.930429,4.5328 32.485105,8.31014 6.799207,3.77734 12.842948,6.79921 25.685896,6.79921 z M 288.28147,116.342 c 1.51093,2.2664 1.51093,4.53281 1.51093,6.79921 l -4.5328,12.84295 31.72963,0 -33.99603,-58.926471 -17.37576,36.262441 16.62028,0 c 2.26641,0 4.53281,0.75547 6.04375,3.02187 z m 91.7893,57.41553 c 7.36581,0 13.88172,-5.0994 15.20379,-12.27634 1.79423,-9.53778 -5.57158,-17.94235 -14.82606,-17.94235 -3.77733,0 -8.31014,1.51093 -10.57654,4.5328 -2.2664,2.2664 -4.5328,3.02187 -7.55468,2.2664 -2.2664,-0.75547 -4.5328,-3.02187 -5.28827,-5.28827 -3.02187,-9.82108 -12.08748,-16.62029 -21.90856,-16.62029 l -5.28827,0 26.44136,45.32805 23.79723,0 z m -123.51894,75.54676 125.40761,0 -56.66007,-98.21078 -50.61632,0 c -2.2664,0 -4.53281,-0.75547 -6.04374,-3.02187 -1.51094,-2.2664 -1.51094,-4.5328 -1.51094,-6.79921 l 4.53281,-12.84295 -12.84295,0 -28.70776,61.19288 16.62028,37.0179 73.28035,0 0,15.10935 -66.48114,0 3.02187,7.55468 z M 210.37388,91.033839 c 3.02187,-1.227635 5.76044,-3.116304 7.83797,-5.571573 6.61034,-7.743542 3.30517,-19.547722 -5.9493,-23.230628 -1.79424,-0.661033 -3.68291,-1.038768 -5.57158,-1.038768 -6.04374,0 -11.33201,3.777339 -13.59841,9.065611 -0.75547,2.266403 -3.02188,3.777339 -5.28828,4.532805 -2.2664,0.755468 -5.28827,0 -6.7992,-2.266402 l -1.51095,-1.510935 c -0.75546,-0.755468 -1.51093,-1.510935 -1.51093,-1.510935 0,0 0,0 -0.75547,0 l -2.2664,0 3.77734,8.310143 6.79921,14.353884 21.15309,0 c 1.22763,-0.283301 2.45527,-0.661035 3.68291,-1.133202 z m -98.87182,-7.932409 27.19683,0 c 2.2664,0 4.5328,0.755467 6.04374,3.02187 1.51094,2.266402 1.51094,4.532805 1.51094,6.799208 l -4.53281,12.842942 33.24057,0 -36.26244,-80.079554 -27.19683,57.415534 z m 4.53281,96.22768 c -0.94434,18.13122 -16.33699,32.2018 -34.468212,32.2018 l -1.699801,0 c -0.755468,0 -0.755468,0 -1.510936,0 l -33.335005,0 -4.532805,7.55468 128.429489,0 0,15.10934 -136.739632,0 -9.065611,15.10936 2.266403,0 215.30825,0 -58.171,-128.42948 -51.3718,0 c -2.2664,0 -4.5328,-0.75548 -6.04373,-3.02188 -1.51094,-2.2664 -1.51094,-4.5328 -1.51094,-6.7992 l 4.53281,-12.842949 -24.17497,0 -21.153087,45.328059 c 18.697827,0 34.184907,16.05368 33.240577,35.79027 z M 30.5726,194.34403 c 2.455269,0.94433 5.288272,1.32206 7.554675,1.60537 13.692849,1.88867 27.857866,0.47216 41.645148,0.47216 3.02187,0 5.854874,-0.0944 8.687877,-1.1332 5.193839,-1.88867 9.06561,-6.13817 10.576546,-11.42644 3.116304,-11.23759 -4.721673,-23.98611 -16.525853,-25.11931 -6.32704,-0.66102 -10.670979,1.88868 -14.070583,4.43838 -1.510936,1.51093 -3.777338,2.2664 -6.043741,1.51093 -2.266401,-0.75547 -3.777337,-1.51093 -5.288272,-3.02187 -2.266403,-6.7992 -9.065611,-10.57654 -16.620286,-10.57654 -14.165016,0 -26.06363,14.07058 -21.625259,28.04673 0.944335,2.92744 1.888669,5.38271 3.682905,7.83797 1.510935,2.17198 3.210736,4.24951 5.288272,5.85488 0.849902,0.66103 1.794236,1.1332 2.738571,1.51094 z M 184.78241,55.14913 c 7.08251,-7.082508 16.14812,-11.048712 26.06363,-9.537777 14.44832,2.171969 25.68589,14.542751 26.06364,29.179933 0.37773,16.99802 -13.31512,30.974164 -30.21871,30.974164 l -15.10935,0 30.2187,65.72568 53.6382,-114.075597 c 1.51093,-2.266403 3.77733,-3.777337 6.7992,-4.532805 3.02188,0 5.28828,1.510936 6.79921,3.777338 l 32.48511,56.660064 13.59841,0 c 13.59842,0 25.6859,6.7992 32.48511,18.13122 2.45527,-1.4165 5.19384,-2.2664 8.21571,-2.73856 17.84792,-2.36084 34.56263,10.29324 35.50697,28.33002 0.94433,17.37576 -13.03182,31.82408 -30.2187,31.82408 l -15.10935,0 34.7515,60.4374 17.47019,0 0,15.10935 -22.66403,0 -143.53883,0 -226.64026,0 -15.109351,0 c -3.02187,0 -5.2882726,-1.51093 -6.7992077,-3.77734 -1.510935,-2.2664 -1.510935,-5.28827 0,-7.55467 L 28.40063,209.26451 C 13.29128,204.73171 2.7147337,190.37782 2.7147337,173.75753 c 0,-21.15309 16.6202863,-37.77337 37.7733773,-37.77337 9.06561,0 18.131221,3.77733 24.930429,9.06561 L 131.89968,3.7773377 C 133.41061,1.5109351 136.43249,0 138.69889,0 c 3.02187,0 5.28827,1.5109351 6.79921,4.5328053 l 21.90855,48.3499227 9.06562,0 c 3.77734,0 6.04374,0.755468 8.31014,2.266402 z"
       style="fill:#42210b" /></g><g
     id="g75"
     transform="translate(0,64)" /><g
     id="g77"
     transform="translate(0,64)" /><g
     id="g79"
     transform="translate(0,64)" /><g
     id="g81"
     transform="translate(0,64)" /><g
     id="g83"
     transform="translate(0,64)" /><g
     id="g85"
     transform="translate(0,64)" /><g
     id="g87"
     transform="translate(0,64)" /><g
     id="g89"
     transform="translate(0,64)" /><g
     id="g91"
     transform="translate(0,64)" /><g
     id="g93"
     transform="translate(0,64)" /><g
     id="g95"
     transform="translate(0,64)" /><g
     id="g97"
     transform="translate(0,64)" /><g
     id="g99"
     transform="translate(0,64)" /><g
     id="g101"
     transform="translate(0,64)" /><g
     id="g103"
     transform="translate(0,64)" /></svg>