<?xml version="1.0" encoding="UTF-8" standalone="no"?>
<!-- Generator: Adobe Illustrator 19.0.0, SVG Export Plug-In . SVG Version: 6.00 Build 0)  -->

<svg
   xmlns:dc="http://purl.org/dc/elements/1.1/"
   xmlns:cc="http://creativecommons.org/ns#"
   xmlns:rdf="http://www.w3.org/1999/02/22-rdf-syntax-ns#"
   xmlns:svg="http://www.w3.org/2000/svg"
   xmlns="http://www.w3.org/2000/svg"
   xmlns:sodipodi="http://sodipodi.sourceforge.net/DTD/sodipodi-0.dtd"
   xmlns:inkscape="http://www.inkscape.org/namespaces/inkscape"
   version="1.1"
   id="Layer_1"
   x="0px"
   y="0px"
   viewBox="0 0 512 512"
   style="enable-background:new 0 0 512 512;"
   xml:space="preserve"
   inkscape:version="0.91 r13725"
   sodipodi:docname="lock.svg"><metadata
     id="metadata39"><rdf:RDF><cc:Work
         rdf:about=""><dc:format>image/svg+xml</dc:format><dc:type
           rdf:resource="http://purl.org/dc/dcmitype/StillImage" /><dc:title /></cc:Work></rdf:RDF></metadata><defs
     id="defs37" /><sodipodi:namedview
     pagecolor="#ffffff"
     bordercolor="#666666"
     borderopacity="1"
     objecttolerance="10"
     gridtolerance="10"
     guidetolerance="10"
     inkscape:pageopacity="0"
     inkscape:pageshadow="2"
     inkscape:window-width="1920"
     inkscape:window-height="1017"
     id="namedview35"
     showgrid="false"
     inkscape:zoom="0.46093752"
     inkscape:cx="521.26845"
     inkscape:cy="51.210235"
     inkscape:window-x="1912"
     inkscape:window-y="-8"
     inkscape:window-maximized="1"
     inkscape:current-layer="Layer_1" /><g
     id="g5" /><g
     id="g7" /><g
     id="g9" /><g
     id="g11" /><g
     id="g13" /><g
     id="g15" /><g
     id="g17" /><g
     id="g19" /><g
     id="g21" /><g
     id="g23" /><g
     id="g25" /><g
     id="g27" /><g
     id="g29" /><g
     id="g31" /><g
     id="g33" /><path
     style="fill:#3e3e3e;fill-opacity:1"
     d="m 505.81099,134.79965 c -8.28828,-36.09578 -50.6652,-26.65338 -63.11569,-14.5543 L 255.38658,276.21431 68.067852,120.24646 c -10.283,-8.57477 -46.658912,-24.23292 -60.08046,16.36753 -14.917057,88.96757 -3.05706,57.42491 10.67658,71.75018 L 242.19161,376.1551 c 4.138,3.4497 9.05,5.1751 13.964,5.1751 4.912,0 9.826,-1.7254 13.964,-5.1751 L 495.93633,202.73787 c 11.6223,-10.29948 25.96851,39.50279 9.87466,-67.93822 z"
     id="path3-2-1"
     inkscape:connector-curvature="0"
     sodipodi:nodetypes="cccccccsccc" /><path
     style="fill:#0970c8;fill-opacity:1"
     d="m 501.87334,166.23617 c -26.12175,-33.60293 -49.1471,-13.74877 -59.4281,-5.17511 L 255.13652,317.03002 67.817792,161.06217 c -10.283,-8.57477 -32.53931,-26.72012 -57.8940301,5.1751 -22.2865899,36.16 -1.7918399,74.37007 8.4901601,82.94261 L 241.94155,416.97081 c 4.138,3.4497 9.05,5.1751 13.964,5.1751 4.912,0 9.826,-1.7254 13.964,-5.1751 L 495.68627,243.55358 c 10.28,-8.57366 30.00672,-42.86177 6.18707,-77.31741 z"
     id="path3-0"
     inkscape:connector-curvature="0"
     sodipodi:nodetypes="cccccccsccc" /><path
     style="opacity:1;fill:#3e3e3e;fill-opacity:1;fill-rule:nonzero;stroke:none;stroke-width:20;stroke-linejoin:round;stroke-miterlimit:4;stroke-dasharray:none;stroke-opacity:1"
     d="m 240.70458,274.89071 30.54602,0 c 1.0998,0 1.98519,0.68864 1.98519,1.54404 l 0,138.04563 c 0,0.8554 -9.65147,7.48853 -17.90109,7.87205 l 0.16263,0 c -8.01503,-0.84977 -16.77794,-7.01665 -16.77794,-7.87205 l 0,-138.04563 c 0,-0.8554 0.88539,-1.54404 1.98519,-1.54404 z"
     id="rect8165-5"
     inkscape:connector-curvature="0"
     sodipodi:nodetypes="ssssccsss" /></svg>