<?xml version="1.0" encoding="UTF-8" standalone="no"?>
<!-- Generator: Adobe Illustrator 19.1.0, SVG Export Plug-In . SVG Version: 6.00 Build 0)  -->

<svg
   xmlns:dc="http://purl.org/dc/elements/1.1/"
   xmlns:cc="http://creativecommons.org/ns#"
   xmlns:rdf="http://www.w3.org/1999/02/22-rdf-syntax-ns#"
   xmlns:svg="http://www.w3.org/2000/svg"
   xmlns="http://www.w3.org/2000/svg"
   xmlns:sodipodi="http://sodipodi.sourceforge.net/DTD/sodipodi-0.dtd"
   xmlns:inkscape="http://www.inkscape.org/namespaces/inkscape"
   version="1.1"
   id="Capa_1"
   x="0px"
   y="0px"
   viewBox="0 0 512.00001 512.00001"
   xml:space="preserve"
   inkscape:version="0.91 r13725"
   sodipodi:docname="marker-fooddrink-greatcafe.svg"
   width="512"
   height="512"><metadata
     id="metadata48"><rdf:RDF><cc:Work
         rdf:about=""><dc:format>image/svg+xml</dc:format><dc:type
           rdf:resource="http://purl.org/dc/dcmitype/StillImage" /><dc:title></dc:title></cc:Work></rdf:RDF></metadata><defs
     id="defs46" /><sodipodi:namedview
     pagecolor="#ffffff"
     bordercolor="#666666"
     borderopacity="1"
     objecttolerance="10"
     gridtolerance="10"
     guidetolerance="10"
     inkscape:pageopacity="0"
     inkscape:pageshadow="2"
     inkscape:window-width="1920"
     inkscape:window-height="1017"
     id="namedview44"
     showgrid="false"
     inkscape:zoom="0.90709224"
     inkscape:cx="22.823789"
     inkscape:cy="242.71353"
     inkscape:window-x="1912"
     inkscape:window-y="-8"
     inkscape:window-maximized="1"
     inkscape:current-layer="Capa_1" /><g
     id="g8131"
     transform="matrix(1.0601368,0,0,1.0601368,-18.158085,-18.089757)"><path
       inkscape:connector-curvature="0"
       d="m 412.95811,240.58414 -32.91919,0 0,-27.56473 c 0,-75.80302 -316.994516,-75.80302 -316.994516,0 l 0,133.90259 c 0,55.74278 63.433416,107.28883 128.782506,107.28883 l 79.86193,0 c 43.51783,0 81.73633,-27.56473 102.43055,-55.12946 l 38.83872,0 c 31.2653,0 49.77501,-29.73546 49.77501,-65.03899 l 0,-34.3181 c -0.007,-35.30353 -18.51661,-59.14014 -49.77501,-59.14014 z"
       style="fill:#edc951"
       id="path-1_66_" /><path
       inkscape:connector-curvature="0"
       d="m 106.18345,222.68757 c 14.99522,51.67009 231.14408,51.67009 246.13241,0 -14.98143,-51.67009 -231.13719,-51.67009 -246.13241,0 z"
       style="fill:#99746a"
       id="path-2_66_" /><path
       inkscape:connector-curvature="0"
       d="m 263.96767,460.27203 -79.86882,0 c -72.27473,0 -135.673624,-53.35844 -135.673624,-114.18002 l 0,-137.34818 c 0,-49.58896 90.949844,-67.18904 168.833994,-67.18904 77.88416,0 168.834,17.60008 168.834,67.18904 l 0,17.22796 19.13682,0 c 36.23384,0 63.55739,31.34799 63.55739,72.9225 l 0,34.32499 c 0,41.67787 -26.73091,71.92328 -63.55739,71.92328 l -33.80126,0 c -22.17582,27.38556 -60.99386,55.12947 -107.46111,55.12947 z M 217.25922,162.22834 c -83.0801,0 -148.160443,20.43236 -148.160443,46.51549 l 0,137.34818 c 0,48.93429 54.812473,93.50647 115.000073,93.50647 l 79.86193,0 c 41.24373,0 76.49903,-27.46826 94.16113,-50.99476 l 3.10103,-4.13471 44.0071,0 c 25.2493,0 42.88384,-21.07324 42.88384,-51.24973 l 0,-34.32499 c 0,-30.26608 -18.03423,-52.24895 -42.88384,-52.24895 l -39.81037,0 0,-37.90151 c 0,-26.08313 -65.08034,-46.51549 -148.16045,-46.51549 z"
       id="path-3_66_" /><path
       inkscape:connector-curvature="0"
       d="m 365.41967,373.58783 0,-113.16013 32.6711,0 c 20.41169,0 36.24074,24.01578 36.24074,44.67555 l 0,27.55095 c 0,21.76925 -17.40024,40.86472 -37.24685,40.86472 l -31.66499,0.0689 z m 20.67355,-92.48658 0,71.77168 10.97077,-0.0276 c 7.48382,0 16.59397,-9.31688 16.59397,-20.19117 l 0,-27.55095 c 0,-11.90797 -9.06191,-24.002 -15.56719,-24.002 l -11.99755,0 z"
       id="path-4_66_" /><path
       inkscape:connector-curvature="0"
       d="m 222.62746,269.84106 c -57.80325,0 -123.104107,-12.12848 -132.992956,-46.20539 l -0.833833,-2.88051 0.833833,-2.88052 c 9.888849,-34.07001 75.189706,-46.20538 132.992956,-46.20538 57.81703,0 123.11788,12.13537 132.99295,46.20538 l 0.83383,2.88052 -0.83383,2.88051 c -9.86818,34.07691 -75.17592,46.20539 -132.99295,46.20539 z m -111.8508,-49.0859 c 8.69667,14.42325 50.78113,28.41235 111.8508,28.41235 61.07656,0 103.16102,-13.9891 111.85769,-28.41235 -8.69667,-14.41636 -50.78113,-28.41235 -111.85769,-28.41235 -61.06967,0 -103.15413,13.99599 -111.8508,28.41235 z"
       id="path-5_66_" /><path
       inkscape:connector-curvature="0"
       d="m 278.21174,232.76649 c -4.46548,0 -8.57263,-2.90808 -9.90952,-7.40802 -4.66533,-15.73946 -44.15181,-154.962046 3.0459,-196.915571 4.25876,-3.797043 10.80538,-3.404245 14.58864,0.854506 3.79704,4.272534 3.40425,10.805376 -0.8614,14.595527 -31.75457,28.219397 -8.56574,136.328288 3.04591,175.601138 1.61942,5.47849 -1.50917,11.22574 -6.98077,12.84517 -0.97855,0.28943 -1.9571,0.42725 -2.92876,0.42725 z"
       id="path-6_59_" /><path
       inkscape:connector-curvature="0"
       d="m 154.52189,232.76649 c -4.4586,0 -8.57263,-2.90808 -9.90263,-7.40802 -4.65844,-15.73946 -44.14492,-154.962046 3.0459,-196.915571 4.26564,-3.797043 10.80538,-3.404245 14.59553,0.854506 3.79015,4.272534 3.41113,10.805376 -0.8614,14.595527 -31.74768,28.219397 -8.56574,136.328288 3.0459,175.608028 1.61254,5.4716 -1.50917,11.21885 -6.98077,12.83828 -0.97854,0.28943 -1.96398,0.42725 -2.94253,0.42725 z"
       id="path-7_50_" /><path
       inkscape:connector-curvature="0"
       d="m 220.00881,232.76649 c -4.23808,0 -8.21429,-2.62554 -9.73035,-6.85673 -4.73425,-13.21729 -44.84783,-130.112433 3.61098,-165.712287 4.60331,-3.383572 11.06035,-2.391241 14.44392,2.205178 3.38357,4.603311 2.39124,11.074132 -2.21207,14.450812 -30.51416,22.410129 -7.01523,112.346967 3.61787,142.096207 1.92264,5.36823 -0.87518,11.28087 -6.25031,13.2104 -1.15771,0.40658 -2.32922,0.60642 -3.48004,0.60642 z"
       id="path-8_41_" /></g><g
     id="g14"
     transform="translate(0,446.957)" /><g
     id="g16"
     transform="translate(0,446.957)" /><g
     id="g18"
     transform="translate(0,446.957)" /><g
     id="g20"
     transform="translate(0,446.957)" /><g
     id="g22"
     transform="translate(0,446.957)" /><g
     id="g24"
     transform="translate(0,446.957)" /><g
     id="g26"
     transform="translate(0,446.957)" /><g
     id="g28"
     transform="translate(0,446.957)" /><g
     id="g30"
     transform="translate(0,446.957)" /><g
     id="g32"
     transform="translate(0,446.957)" /><g
     id="g34"
     transform="translate(0,446.957)" /><g
     id="g36"
     transform="translate(0,446.957)" /><g
     id="g38"
     transform="translate(0,446.957)" /><g
     id="g40"
     transform="translate(0,446.957)" /><g
     id="g42"
     transform="translate(0,446.957)" /></svg>