<?xml version="1.0" encoding="UTF-8" standalone="no"?>
<!-- Generator: Adobe Illustrator 19.0.0, SVG Export Plug-In . SVG Version: 6.00 Build 0)  -->

<svg
   xmlns:dc="http://purl.org/dc/elements/1.1/"
   xmlns:cc="http://creativecommons.org/ns#"
   xmlns:rdf="http://www.w3.org/1999/02/22-rdf-syntax-ns#"
   xmlns:svg="http://www.w3.org/2000/svg"
   xmlns="http://www.w3.org/2000/svg"
   xmlns:sodipodi="http://sodipodi.sourceforge.net/DTD/sodipodi-0.dtd"
   xmlns:inkscape="http://www.inkscape.org/namespaces/inkscape"
   version="1.1"
   id="Capa_1"
   x="0px"
   y="0px"
   viewBox="0 0 512 512"
   xml:space="preserve"
   inkscape:version="0.91 r13725"
   sodipodi:docname="marker-fooddrink-dogfriendly.svg"
   width="512"
   height="512"><metadata
     id="metadata61"><rdf:RDF><cc:Work
         rdf:about=""><dc:format>image/svg+xml</dc:format><dc:type
           rdf:resource="http://purl.org/dc/dcmitype/StillImage" /><dc:title></dc:title></cc:Work></rdf:RDF></metadata><defs
     id="defs59" /><sodipodi:namedview
     pagecolor="#ffffff"
     bordercolor="#666666"
     borderopacity="1"
     objecttolerance="10"
     gridtolerance="10"
     guidetolerance="10"
     inkscape:pageopacity="0"
     inkscape:pageshadow="2"
     inkscape:window-width="1920"
     inkscape:window-height="1017"
     id="namedview57"
     showgrid="false"
     inkscape:zoom="0.69524635"
     inkscape:cx="240.62178"
     inkscape:cy="194.15097"
     inkscape:window-x="1912"
     inkscape:window-y="-8"
     inkscape:window-maximized="1"
     inkscape:current-layer="Capa_1" /><g
     id="g8121"
     transform="matrix(0.96404874,0,0,0.96404874,24.603338,4.3002921)"><path
       id="path3"
       d="m 184.011,224.037 0,-96 -8,-8 -24,0 -24,16 -16,-16 40,-56 32,0 16,32 96,0 16,-32 24,0 32,48 -16,24 -24,-16 -16,0 -16,16 0,112 16,0 24,-24 24,40 0,18.288 0,21.712 c -1.04,3.456 -4.272,12.808 -12.032,21.704 -3.184,3.656 -7.056,7.232 -11.968,10.296 -9.44,5.88 -18.6,7.496 -24,8 l 16,16 21.92,0 44.888,-48 C 459.667,242.013 485.707,165.621 465.083,108.277 451.363,70.125 406.867,12.213 341.131,8.357 289.827,5.349 251.243,54.245 240.011,64.237 l -0.816,-0.2 c -11.232,-10 -49,-58.888 -100.304,-55.88 -65.736,3.856 -110.232,61.768 -123.952,99.92 -18.304,50.904 0.168,116.816 49.896,179.968 l 18.168,25.088 c 28.608,-65.192 92.472,-86.44 101.008,-89.096 z"
       style="fill:#a9cb73"
       inkscape:connector-curvature="0" /><path
       id="path5"
       d="m 232.011,472.037 32,0 0,-64.024 0,-63.976 c -5.4,-0.504 -14.56,-2.12 -24,-8 -3.312,-2.064 -6.072,-4.392 -8.576,-6.784 -10.248,-9.824 -14.248,-21.296 -15.424,-25.216 l 0,-3.824 0,-17.888 0,-18.288 24,-40 24,24 32,0 0,-112 16,-16 16,0 24,16 16,-24 -32,-48 -24,0 -16,32 -96,0 -16,-32 -32,0 -40,56 16,16 24,-16 24,0 8,8 0,96 c -8.536,2.656 -72.4,23.904 -101.008,89.088 -1,2.296 -2.08,4.504 -2.992,6.912 -20.048,52.672 -4.68,99.264 0,112 l -40,-24 0,-32 c 0,-13.184 -15.056,-20.712 -25.6,-12.8 -4.032,3.024 -6.4,7.76 -6.4,12.8 l 0,56 64,40 160,0 z"
       style="fill:#f4cd57"
       inkscape:connector-curvature="0" /><path
       id="path7"
       d="m 312.011,344.037 c 5.4,-0.504 14.56,-2.12 24,-8 4.912,-3.064 8.784,-6.64 11.968,-10.296 7.76,-8.896 10.992,-18.248 12.032,-21.704 l 0,-21.712 0,-18.288 -24,-40 -24,24 -16,0 -32,0 -24,-24 -24,40 0,18.288 0,17.888 0,3.824 c 1.176,3.92 5.176,15.392 15.424,25.216 2.504,2.392 5.264,4.72 8.576,6.784 9.44,5.88 18.6,7.496 24,8 l 0,63.976 0,64.024 40,0 48,0 80,0 32,-16 c 0.944,-1.704 17.648,-33.072 0,-64 -15.472,-27.12 -44.592,-31.544 -48,-32 l -66.08,0 -21.92,0 -16,-16 z"
       style="fill:#eaeaea"
       inkscape:connector-curvature="0" /><g
       id="g9"><path
         id="path11"
         d="m 34.747,354.573 c -8.192,-4.096 -17.824,-3.216 -25.144,2.272 -6.008,4.512 -9.592,11.688 -9.592,19.192 l 0,56 c 0,2.76 1.424,5.32 3.76,6.784 l 64,40 c 1.272,0.792 2.736,1.216 4.24,1.216 l 160,0 32,0 168,0 c 1.24,0 2.472,-0.288 3.576,-0.84 l 32,-16 c 1.448,-0.72 2.632,-1.864 3.416,-3.272 0.832,-1.488 19.968,-36.784 -0.048,-71.848 -16.888,-29.616 -47.84,-35.16 -53.88,-35.968 -0.352,-0.048 -0.704,-0.072 -1.064,-0.072 l -84.688,0 -3.352,-3.352 c 4.312,-1.504 8.44,-3.472 12.264,-5.856 3.928,-2.448 7.264,-5.2 10.216,-8.056 l 31.36,8.96 4.392,-15.384 -25.088,-7.168 c 3.312,-5.656 5.392,-10.976 6.552,-14.832 0.224,-0.752 0.344,-1.528 0.344,-2.312 l 0,-16.44 19.152,-8.208 -6.296,-14.704 -12.856,5.512 0,-6.16 c 0,-1.448 -0.392,-2.872 -1.144,-4.12 l -24,-40 c -1.264,-2.112 -3.44,-3.52 -5.88,-3.824 -2.408,-0.264 -4.88,0.536 -6.632,2.288 l -21.656,21.656 -4.688,0 0,-100.688 11.312,-11.312 10.264,0 21.984,14.656 c 3.68,2.456 8.64,1.456 11.096,-2.216 l 16,-24 c 1.792,-2.688 1.792,-6.184 0,-8.872 l -32,-48 c -1.488,-2.232 -3.984,-3.568 -6.656,-3.568 l -24,0 c -3.032,0 -5.8,1.712 -7.16,4.424 l -13.784,27.576 -86.112,0 -13.792,-27.576 c -1.352,-2.712 -4.12,-4.424 -7.152,-4.424 l -32,0 c -2.584,0 -5.008,1.248 -6.504,3.352 l -40,56 c -2.272,3.176 -1.912,7.536 0.848,10.304 l 16,16 c 2.696,2.704 6.92,3.104 10.096,1 l 21.984,-14.656 18.264,0 3.312,3.312 0,86.96 c -21.12,7.672 -78.784,33.992 -103.48,98.888 -14.568,38.288 -11.336,74.032 -5.968,97.448 l -18.552,-11.136 0,-27.472 c 0,-9.152 -5.088,-17.376 -13.264,-21.464 z m 277.264,-98.536 c 2.128,0 4.16,-0.84 5.656,-2.344 l 16.76,-16.752 17.584,29.312 0,10.8 -27.152,11.632 6.296,14.704 20.856,-8.936 0,8.36 c -1.2,3.688 -3.352,8.712 -6.928,13.784 l -14.872,-4.248 -4.392,15.384 5.744,1.64 c -6.104,3.752 -12.92,6.016 -20.288,6.704 -3.088,0.288 -5.736,2.336 -6.784,5.248 -1.056,2.92 -0.328,6.176 1.864,8.368 l 16,16 c 1.496,1.504 3.528,2.344 5.656,2.344 l 87.432,0 c 4.576,0.696 28.76,5.408 41.624,27.968 13.168,23.08 4.168,47.024 0.96,54.08 l -27.904,13.952 -72.352,0 -5.76,-17.296 0,-20.28 10.24,-15.36 c 1.272,-1.92 3.416,-3.064 5.712,-3.064 3.456,0 5.232,2.28 5.832,3.256 0.608,0.984 1.848,3.592 0.304,6.672 l -5.248,10.496 c -1.536,3.08 -0.936,6.8 1.504,9.232 l 8,8 c 1.496,1.504 3.528,2.344 5.656,2.344 l 40,0 0,-16 -36.688,0 -1.576,-1.576 2.672,-5.336 c 3.568,-7.136 3.184,-15.456 -1.008,-22.24 -4.192,-6.784 -11.472,-10.848 -19.448,-10.848 -7.656,0 -14.768,3.808 -19.024,10.176 l -11.584,17.384 c -0.872,1.32 -1.344,2.864 -1.344,4.44 l 0,24 c 0,0.856 0.144,1.712 0.416,2.528 l 4.488,13.472 -28.904,0 0,-56 -16,0 0,56 -24,0 0,-56.024 0,-63.976 c 0,-4.128 -3.144,-7.584 -7.256,-7.968 -5.856,-0.544 -11.352,-2.112 -16.432,-4.608 l 10.504,-3.936 -5.624,-14.984 -19.68,7.384 c -5.192,-6.128 -8.048,-12.608 -9.512,-17.112 l 0,-2.608 0,-5.76 20.848,8.936 6.296,-14.704 -27.144,-11.624 0,-10.8 17.584,-29.312 16.76,16.752 c 1.496,1.504 3.528,2.344 5.656,2.344 l 32,0 16,0 z M 75.891,438.893 c 2.904,1.744 6.6,1.472 9.216,-0.696 2.608,-2.168 3.576,-5.736 2.408,-8.92 -5.984,-16.288 -17.968,-59.264 -0.032,-106.4 1.176,-3.096 2.512,-6.008 3.848,-8.912 l 0.016,0.008 c 26.936,-58.536 83.888,-78.832 95.04,-82.304 3.352,-1.032 5.624,-4.128 5.624,-7.632 l 0,-96 c 0,-2.12 -0.84,-4.16 -2.344,-5.656 l -8,-8 c -1.496,-1.504 -3.528,-2.344 -5.656,-2.344 l -24,0 c -1.576,0 -3.128,0.472 -4.44,1.344 l -18.544,12.36 -6.568,-6.568 33.672,-47.136 22.936,0 13.792,27.576 c 1.352,2.712 4.12,4.424 7.152,4.424 l 96,0 c 3.032,0 5.8,-1.712 7.16,-4.424 l 13.784,-27.576 14.776,0 26.664,40 -8.6,12.904 -17.344,-11.56 c -1.312,-0.872 -2.864,-1.344 -4.44,-1.344 l -16,0 c -2.128,0 -4.16,0.84 -5.656,2.344 l -16,16 c -1.504,1.496 -2.344,3.536 -2.344,5.656 l 0,104 -20.688,0 -21.656,-21.656 c -1.744,-1.752 -4.2,-2.576 -6.632,-2.288 -2.448,0.304 -4.616,1.712 -5.88,3.824 l -24,40 c -0.752,1.248 -1.144,2.672 -1.144,4.12 l 0,6.16 -12.848,-5.504 -6.296,14.704 19.144,8.2 0,12.616 0,3.824 c 0,0.784 0.12,1.56 0.344,2.312 1.472,4.896 4.376,12.112 9.536,19.44 l -28.688,10.76 5.624,14.984 34.832,-13.064 c 1.888,1.52 3.928,2.984 6.136,4.36 6.136,3.824 13.016,6.56 20.224,8.08 l 0,49.08 -47.376,-0.152 -0.048,16 47.416,0.152 0,48.048 -16,0 c 0,-17.648 -14.352,-32 -32,-32 l -16,0 c 0,-39.696 -32.296,-72 -72,-72 l -8,0 0,16 8,0 c 30.872,0 56,25.12 56,56 l 0,8 c 0,4.416 3.576,8 8,8 l 24,0 c 8.824,0 16,7.176 16,16 l -149.704,0 -58.296,-36.432 0,-51.568 c 0,-2.504 1.192,-4.896 3.192,-6.4 2.48,-1.856 5.608,-2.144 8.384,-0.752 2.768,1.384 4.424,4.056 4.424,7.152 l 0,32 c 0,2.808 1.48,5.416 3.88,6.856 l 40,24 z"
         style="fill:#2d2d2d"
         inkscape:connector-curvature="0" /><path
         id="path13"
         d="M 71.123,283.093 C 22.867,221.813 5.131,159.005 22.475,110.781 c 12.96,-36.048 54.792,-91 116.888,-94.64 40.08,-2.248 72.072,30.856 87.44,46.816 2.936,3.04 5.312,5.496 7.072,7.056 0.968,0.864 2.144,1.48 3.4,1.792 l 0.824,0.2 c 2.552,0.632 5.272,-0.032 7.24,-1.792 1.704,-1.512 4,-3.864 6.84,-6.784 15.624,-16.048 48.24,-49.368 88.488,-47.096 62.104,3.648 103.928,58.6 116.888,94.648 19.72,54.816 -5.928,127.944 -68.6,195.616 l 11.736,10.872 C 467.507,245.325 494.395,166.109 472.619,105.565 458.211,65.525 411.443,4.461 341.603,0.365 294.131,-2.491 257.995,34.517 240.707,52.277 c -0.336,0.344 -0.672,0.688 -0.992,1.016 -0.448,-0.456 -0.904,-0.936 -1.392,-1.44 -17.024,-17.68 -52.72,-54.544 -99.896,-51.68 -69.84,4.096 -116.608,65.152 -131.016,105.2 -19.24,53.52 -0.608,121.904 51.128,187.616 l 12.584,-9.896 z"
         style="fill:#2d2d2d"
         inkscape:connector-curvature="0" /><rect
         id="rect15"
         height="16"
         width="16"
         style="fill:#2d2d2d"
         y="136.037"
         x="208.011" /><rect
         id="rect17"
         height="16"
         width="16"
         style="fill:#2d2d2d"
         y="136.037"
         x="256.01099" /><rect
         id="rect19"
         height="16"
         width="32"
         style="fill:#2d2d2d"
         y="168.037"
         x="224.011" /><rect
         id="rect21"
         height="16"
         width="16"
         style="fill:#2d2d2d"
         y="272.03699"
         x="256.01099" /><rect
         id="rect23"
         height="16"
         width="16"
         style="fill:#2d2d2d"
         y="272.03699"
         x="304.01099" /><rect
         id="rect25"
         height="16"
         width="16"
         style="fill:#2d2d2d"
         y="296.03699"
         x="280.01099" /></g></g><g
     id="g27"
     transform="translate(0,31.947996)" /><g
     id="g29"
     transform="translate(0,31.947996)" /><g
     id="g31"
     transform="translate(0,31.947996)" /><g
     id="g33"
     transform="translate(0,31.947996)" /><g
     id="g35"
     transform="translate(0,31.947996)" /><g
     id="g37"
     transform="translate(0,31.947996)" /><g
     id="g39"
     transform="translate(0,31.947996)" /><g
     id="g41"
     transform="translate(0,31.947996)" /><g
     id="g43"
     transform="translate(0,31.947996)" /><g
     id="g45"
     transform="translate(0,31.947996)" /><g
     id="g47"
     transform="translate(0,31.947996)" /><g
     id="g49"
     transform="translate(0,31.947996)" /><g
     id="g51"
     transform="translate(0,31.947996)" /><g
     id="g53"
     transform="translate(0,31.947996)" /><g
     id="g55"
     transform="translate(0,31.947996)" /></svg>