<?xml version="1.0" encoding="UTF-8" standalone="no"?>
<!-- Created with Inkscape (http://www.inkscape.org/) -->

<svg
   xmlns:dc="http://purl.org/dc/elements/1.1/"
   xmlns:cc="http://creativecommons.org/ns#"
   xmlns:rdf="http://www.w3.org/1999/02/22-rdf-syntax-ns#"
   xmlns:svg="http://www.w3.org/2000/svg"
   xmlns="http://www.w3.org/2000/svg"
   xmlns:sodipodi="http://sodipodi.sourceforge.net/DTD/sodipodi-0.dtd"
   xmlns:inkscape="http://www.inkscape.org/namespaces/inkscape"
   width="512"
   height="512"
   viewBox="0 0 512.00002 512.00002"
   id="svg2"
   version="1.1"
   inkscape:version="0.91 r13725"
   sodipodi:docname="marker-cart-contents.svg">
  <defs
     id="defs4" />
  <sodipodi:namedview
     id="base"
     pagecolor="#ffffff"
     bordercolor="#666666"
     borderopacity="1.0"
     inkscape:pageopacity="0.0"
     inkscape:pageshadow="2"
     inkscape:zoom="1.4"
     inkscape:cx="253.70034"
     inkscape:cy="212.70227"
     inkscape:document-units="px"
     inkscape:current-layer="layer1"
     showgrid="false"
     units="px"
     inkscape:window-width="1920"
     inkscape:window-height="1017"
     inkscape:window-x="1912"
     inkscape:window-y="-8"
     inkscape:window-maximized="1" />
  <metadata
     id="metadata7">
    <rdf:RDF>
      <cc:Work
         rdf:about="">
        <dc:format>image/svg+xml</dc:format>
        <dc:type
           rdf:resource="http://purl.org/dc/dcmitype/StillImage" />
        <dc:title />
      </cc:Work>
    </rdf:RDF>
  </metadata>
  <g
     inkscape:label="Layer 1"
     inkscape:groupmode="layer"
     id="layer1"
     transform="translate(0,-540.36208)">
    <g
       id="g17086"
       transform="matrix(1.6979677,0,0,1.6979677,1.3215592,-670.00858)">
      <path
         sodipodi:nodetypes="cccccccccccccccccccccccccccccccccccccc"
         inkscape:connector-curvature="0"
         id="path8092"
         d="m 227.79238,802.88207 c -19.67266,0.0437 -38.13194,18.97793 -34.1655,39.03655 2.82783,23.24306 20.23299,41.22916 38.62214,54.07208 6.83869,4.95803 16.27534,10.34044 15.23004,20.2278 0.0975,2.60119 -1.40338,6.19093 -4.06951,3.23386 -8.33128,-8.35149 -18.85033,-14.27286 -26.79667,-23.02519 -13.89325,-13.36181 -29.1912,-26.52194 -47.69294,-32.8628 -11.74083,-3.29728 -24.15143,-1.55693 -36.15016,-1.10851 -17.98068,1.31103 -35.052905,8.05429 -50.033913,17.87762 -6.459052,3.62741 -14.797788,8.29988 -15.817866,16.33904 2.840838,3.22626 -3.054894,3.5385 -4.966969,5.56172 -3.152755,1.91342 -6.725705,6.08957 -2.581546,8.83823 5.869906,4.26874 13.865773,2.83794 20.292095,5.99233 6.033649,1.45398 4.312167,3.36716 -0.76956,3.82649 -17.547589,2.92478 -35.047202,-4.21642 -51.684194,-9.19635 -6.501879,-2.72633 -13.551079,-9.87814 -21.1106855,-6.85996 -3.9766337,2.24414 -1.396675,7.34131 0.7738247,9.42659 -4.9183448,5.20067 0.668758,12.74109 3.7361708,17.40483 5.724494,9.31776 14.868643,18.4008 22.597293,24.43282 -10.920306,1.30143 -24.2232266,6.18693 -26.9346171,18.15395 0.7068988,7.73162 10.9061441,8.05364 16.6894431,8.42466 21.174327,1.49113 41.894103,8.05332 63.287739,5.81664 25.573855,-1.85049 51.291315,-5.5509 76.602475,-1.71416 29.71587,3.13611 59.67854,5.87354 89.53047,3.11562 14.13372,0.39875 31.71011,2.97846 42.60082,-8.48861 4.7176,-6.84449 -2.91666,-13.90957 -8.45663,-17.13498 -2.55583,-5.30389 3.12418,-10.36593 4.05245,-15.59373 5.33737,-15.14011 2.64837,-33.10448 -8.80838,-44.80505 -14.14741,-15.79588 -33.43557,-25.98165 -47.03699,-42.39191 -4.87044,-5.92035 -10.48302,-13.52515 -9.47134,-21.45176 3.48912,-2.64826 5.41601,4.17251 6.90046,6.13943 1.56228,5.1874 9.86661,8.34475 12.19999,2.1552 0.49969,-3.57632 2.69225,-5.69518 5.57878,-7.45899 2.42018,-1.09516 1.38328,-6.95929 4.28481,-4.63016 4.12106,2.27932 11.21401,0.13166 9.53743,-5.49563 -3.55694,-15.99595 -19.51017,-28.48339 -35.96896,-27.85767 z m 21.83841,27.78006 c 11.49167,18.42112 -1.813,-3.81089 0,0 z"
         style="fill:#8831ff;fill-opacity:1;fill-rule:evenodd;stroke:#ffffff;stroke-width:9.44900036;stroke-linecap:butt;stroke-linejoin:miter;stroke-miterlimit:4;stroke-dasharray:none;stroke-opacity:1" />
      <path
         sodipodi:nodetypes="ccccccccc"
         inkscape:connector-curvature="0"
         id="path8067"
         d="m 244.71899,850.21519 c 0,-2.89416 2.75634,-7.71775 2.75634,-7.71775 1.17144,-1.58489 3.02217,0.64527 5.64069,0.0251 3.31126,-2.92542 4.06831,-3.90542 7.30286,-0.11679 1.66563,2.3325 0.77759,4.36892 1.53558,8.29671 0.68909,3.23869 7.81618,17.33329 9.08004,19.16372 0.41345,1.58489 1.77287,2.54125 -0.70783,1.92108 -2.96306,-0.96472 -16.71849,-12.47614 -20.09501,-15.50812 -3.3076,-2.82525 -5.37485,-5.03031 -5.51267,-6.06394 z"
         style="fill:#8831ff;fill-opacity:1;fill-rule:evenodd;stroke:none;stroke-width:9.44900036;stroke-linecap:butt;stroke-linejoin:miter;stroke-miterlimit:4;stroke-dasharray:none;stroke-opacity:1" />
    </g>
    <circle
       style="opacity:1;fill:#07ff00;fill-opacity:1;fill-rule:nonzero;stroke:#ffffff;stroke-width:30;stroke-linecap:butt;stroke-linejoin:miter;stroke-miterlimit:4;stroke-dasharray:none;stroke-opacity:1"
       id="path8111"
       cx="412.87851"
       cy="953.2406"
       r="84.12149" />
  </g>
</svg>
