<?xml version="1.0" encoding="UTF-8" standalone="no"?>
<!-- Generator: Adobe Illustrator 18.0.0, SVG Export Plug-In . SVG Version: 6.00 Build 0)  -->

<svg
   xmlns:dc="http://purl.org/dc/elements/1.1/"
   xmlns:cc="http://creativecommons.org/ns#"
   xmlns:rdf="http://www.w3.org/1999/02/22-rdf-syntax-ns#"
   xmlns:svg="http://www.w3.org/2000/svg"
   xmlns="http://www.w3.org/2000/svg"
   xmlns:sodipodi="http://sodipodi.sourceforge.net/DTD/sodipodi-0.dtd"
   xmlns:inkscape="http://www.inkscape.org/namespaces/inkscape"
   version="1.1"
   id="Capa_1"
   x="0px"
   y="0px"
   viewBox="0 0 512 512"
   xml:space="preserve"
   inkscape:version="0.91 r13725"
   sodipodi:docname="marker-fooddrink-greatbakery-contents.svg"
   width="512"
   height="512"><metadata
     id="metadata229"><rdf:RDF><cc:Work
         rdf:about=""><dc:format>image/svg+xml</dc:format><dc:type
           rdf:resource="http://purl.org/dc/dcmitype/StillImage" /><dc:title /></cc:Work></rdf:RDF></metadata><defs
     id="defs227" /><sodipodi:namedview
     pagecolor="#ffffff"
     bordercolor="#666666"
     borderopacity="1"
     objecttolerance="10"
     gridtolerance="10"
     guidetolerance="10"
     inkscape:pageopacity="0"
     inkscape:pageshadow="2"
     inkscape:window-width="1920"
     inkscape:window-height="1017"
     id="namedview225"
     showgrid="false"
     inkscape:zoom="0.75406588"
     inkscape:cx="-137.25591"
     inkscape:cy="156.485"
     inkscape:window-x="1912"
     inkscape:window-y="-8"
     inkscape:window-maximized="1"
     inkscape:current-layer="Capa_1" /><g
     id="g3"
     transform="matrix(1.6186445,0,0,1.6186445,2.6522417,-5.672136)"><g
       id="g5"><path
         style="fill:#fdd44b"
         d="m 61.832,73.47 c 0.753,-0.729 1.523,-1.453 2.321,-2.166 -0.798,0.714 -1.567,1.437 -2.321,2.166 z"
         id="path7"
         inkscape:connector-curvature="0" /><path
         style="fill:#fdd44b"
         d="m 100.797,50.901 c -2.062,0.662 -4.083,1.373 -6.062,2.129 1.979,-0.756 4.001,-1.467 6.062,-2.129 z"
         id="path9"
         inkscape:connector-curvature="0" /><path
         style="fill:#fdd44b"
         d="m 61.198,74.071 c -0.937,0.928 -1.834,1.869 -2.697,2.822 0.863,-0.953 1.76,-1.894 2.697,-2.822 z"
         id="path11"
         inkscape:connector-curvature="0" /><path
         style="fill:#fdd44b"
         d="m 87.158,56.248 c 2.056,-0.97 4.164,-1.89 6.332,-2.748 -2.169,0.857 -4.276,1.778 -6.332,2.748 z"
         id="path13"
         inkscape:connector-curvature="0" /><path
         style="fill:#fdd44b"
         d="m 183.475,36.811 c -0.926,-0.12 -1.866,-0.222 -2.802,-0.329 0.936,0.106 1.876,0.209 2.802,0.329 z"
         id="path15"
         inkscape:connector-curvature="0" /><path
         style="fill:#fdd44b"
         d="m 108.926,48.584 c -2.349,0.587 -4.665,1.221 -6.929,1.922 2.263,-0.701 4.58,-1.335 6.929,-1.922 z"
         id="path17"
         inkscape:connector-curvature="0" /><path
         style="fill:#fdd44b"
         d="m 175.569,35.961 c -0.974,-0.086 -1.95,-0.169 -2.934,-0.241 0.983,0.072 1.96,0.155 2.934,0.241 z"
         id="path19"
         inkscape:connector-curvature="0" /><path
         style="fill:#fdd44b"
         d="m 72.13,64.999 c 0.811,-0.571 1.645,-1.132 2.489,-1.689 -0.843,0.557 -1.678,1.118 -2.489,1.689 z"
         id="path21"
         inkscape:connector-curvature="0" /><path
         style="fill:#fdd44b"
         d="m 79.709,60.131 c 1.961,-1.143 4.017,-2.207 6.113,-3.234 -2.096,1.027 -4.151,2.091 -6.113,3.234 z"
         id="path23"
         inkscape:connector-curvature="0" /><path
         style="fill:#fdd44b"
         d="m 65.264,70.346 c 0.68,-0.586 1.37,-1.167 2.081,-1.741 -0.711,0.574 -1.401,1.156 -2.081,1.741 z"
         id="path25"
         inkscape:connector-curvature="0" /><path
         style="fill:#fdd44b"
         d="m 75.822,62.513 c 1.263,-0.809 2.554,-1.605 3.887,-2.383 -1.333,0.778 -2.624,1.575 -3.887,2.383 z"
         id="path27"
         inkscape:connector-curvature="0" /><path
         style="fill:#fdd44b"
         d="m 68.623,67.597 c 0.712,-0.552 1.439,-1.099 2.179,-1.639 -0.74,0.541 -1.467,1.087 -2.179,1.639 z"
         id="path29"
         inkscape:connector-curvature="0" /><path
         style="fill:#fdd44b"
         d="m 191.047,37.938 c -0.66,-0.114 -1.34,-0.204 -2.006,-0.31 0.666,0.106 1.346,0.196 2.006,0.31 z"
         id="path31"
         inkscape:connector-curvature="0" /><path
         style="fill:#fdd44b"
         d="m 49.229,90.26 c -0.519,1.037 -1.002,2.083 -1.444,3.137 0.442,-1.055 0.925,-2.1 1.444,-3.137 z"
         id="path33"
         inkscape:connector-curvature="0" /><path
         style="fill:#fdd44b"
         d="m 61.229,205.138 c -0.786,-0.11 -1.592,-0.272 -2.424,-0.495 0.832,0.224 1.638,0.385 2.424,0.495 z"
         id="path35"
         inkscape:connector-curvature="0" /><path
         style="fill:#fdd44b"
         d="m 200.339,39.828 c -0.711,-0.164 -1.406,-0.344 -2.125,-0.5 0.718,0.156 1.414,0.336 2.125,0.5 z"
         id="path37"
         inkscape:connector-curvature="0" /><path
         style="fill:#fdd44b"
         d="m 61.592,205.184 c 0.803,0.096 1.589,0.144 2.358,0.129 -0.769,0.016 -1.555,-0.033 -2.358,-0.129 z"
         id="path39"
         inkscape:connector-curvature="0" /><path
         style="fill:#fdd44b"
         d="m 58.42,204.531 c -0.869,-0.25 -1.759,-0.544 -2.694,-0.924 0.936,0.38 1.826,0.674 2.694,0.924 z"
         id="path41"
         inkscape:connector-curvature="0" /><path
         style="fill:#fdd44b"
         d="m 45.594,99.933 c 0.177,-0.685 0.377,-1.365 0.586,-2.044 -0.209,0.679 -0.408,1.359 -0.586,2.044 z"
         id="path43"
         inkscape:connector-curvature="0" /><path
         style="fill:#fdd44b"
         d="m 46.571,96.633 c 0.273,-0.807 0.578,-1.608 0.896,-2.407 -0.318,0.799 -0.623,1.6 -0.896,2.407 z"
         id="path45"
         inkscape:connector-curvature="0" /><path
         style="fill:#fdd44b"
         d="m 56.014,79.81 c 0.557,-0.69 1.142,-1.373 1.737,-2.052 -0.595,0.679 -1.18,1.361 -1.737,2.052 z"
         id="path47"
         inkscape:connector-curvature="0" /><path
         style="fill:#fdd44b"
         d="m 49.758,89.269 c 0.379,-0.719 0.767,-1.437 1.183,-2.147 -0.417,0.711 -0.804,1.428 -1.183,2.147 z"
         id="path49"
         inkscape:connector-curvature="0" /><path
         style="fill:#fdd44b"
         d="m 207.881,41.765 c -0.871,-0.248 -1.74,-0.498 -2.624,-0.732 0.884,0.234 1.753,0.485 2.624,0.732 z"
         id="path51"
         inkscape:connector-curvature="0" /><path
         style="fill:#fdd44b"
         d="m 164.512,35.264 c 0.873,0.032 1.731,0.084 2.597,0.126 -0.867,-0.042 -1.724,-0.094 -2.597,-0.126 z"
         id="path53"
         inkscape:connector-curvature="0" /><path
         style="fill:#fdd44b"
         d="m 53.741,82.812 c 0.447,-0.628 0.912,-1.25 1.389,-1.869 -0.476,0.619 -0.942,1.242 -1.389,1.869 z"
         id="path55"
         inkscape:connector-curvature="0" /><path
         style="fill:#fdd44b"
         d="m 52.898,84.027 c -0.425,0.629 -0.83,1.262 -1.225,1.899 0.395,-0.636 0.801,-1.27 1.225,-1.899 z"
         id="path57"
         inkscape:connector-curvature="0" /></g><g
       id="g59"><path
         style="fill:#fdd44b"
         d="m 107.994,64.389 c -0.808,0.239 -1.6,0.498 -2.397,0.754 0.797,-0.256 1.59,-0.515 2.397,-0.754 z"
         id="path61"
         inkscape:connector-curvature="0" /><path
         style="fill:#fdd44b"
         d="m 94.931,69.243 c -0.644,0.292 -1.301,0.569 -1.933,0.875 0.632,-0.305 1.29,-0.582 1.933,-0.875 z"
         id="path63"
         inkscape:connector-curvature="0" /><path
         style="fill:#fdd44b"
         d="m 99.101,67.459 c 0.767,-0.304 1.545,-0.595 2.325,-0.882 -0.781,0.288 -1.558,0.578 -2.325,0.882 z"
         id="path65"
         inkscape:connector-curvature="0" /><path
         style="fill:#fdd44b"
         d="m 114.858,159.088 c -0.732,-0.147 -1.443,-0.303 -2.16,-0.456 0.717,0.153 1.428,0.309 2.16,0.456 z"
         id="path67"
         inkscape:connector-curvature="0" /><path
         style="fill:#fdd44b"
         d="m 109.943,158.016 c -0.699,-0.164 -1.393,-0.33 -2.076,-0.501 0.683,0.171 1.376,0.336 2.076,0.501 z"
         id="path69"
         inkscape:connector-curvature="0" /><path
         style="fill:#fdd44b"
         d="m 95.318,153.579 c -0.445,-0.174 -0.878,-0.353 -1.309,-0.532 0.431,0.179 0.864,0.357 1.309,0.532 z"
         id="path71"
         inkscape:connector-curvature="0" /><path
         style="fill:#fdd44b"
         d="m 91.524,151.956 c -0.359,-0.167 -0.727,-0.332 -1.075,-0.501 0.348,0.169 0.715,0.333 1.075,0.501 z"
         id="path73"
         inkscape:connector-curvature="0" /><path
         style="fill:#fdd44b"
         d="m 105.023,156.762 c -0.549,-0.151 -1.112,-0.297 -1.648,-0.453 0.536,0.156 1.098,0.301 1.648,0.453 z"
         id="path75"
         inkscape:connector-curvature="0" /><path
         style="fill:#fdd44b"
         d="m 99.307,155.037 c -0.404,-0.136 -0.782,-0.28 -1.177,-0.419 0.395,0.139 0.773,0.283 1.177,0.419 z"
         id="path77"
         inkscape:connector-curvature="0" /><path
         style="fill:#fdd44b"
         d="m 163.202,60.439 c -1.074,-0.141 -2.139,-0.301 -3.22,-0.417 1.08,0.116 2.147,0.276 3.22,0.417 z"
         id="path79"
         inkscape:connector-curvature="0" /><path
         style="fill:#fdd44b"
         d="m 170.39,61.587 c -1.132,-0.215 -2.261,-0.426 -3.406,-0.611 1.143,0.185 2.275,0.396 3.406,0.611 z"
         id="path81"
         inkscape:connector-curvature="0" /><path
         style="fill:#fdd44b"
         d="m 114.727,62.6 c -0.684,0.159 -1.349,0.348 -2.027,0.518 0.678,-0.169 1.343,-0.36 2.027,-0.518 z"
         id="path83"
         inkscape:connector-curvature="0" /><path
         style="fill:#fdd44b"
         d="m 153.289,59.46 c -0.92,-0.053 -1.843,-0.063 -2.766,-0.099 0.922,0.036 1.847,0.045 2.766,0.099 z"
         id="path85"
         inkscape:connector-curvature="0" /><path
         style="fill:#fdd44b"
         d="m 177.246,63.077 c -1.116,-0.278 -2.24,-0.534 -3.372,-0.782 1.13,0.248 2.257,0.504 3.372,0.782 z"
         id="path87"
         inkscape:connector-curvature="0" /><path
         style="fill:#fdd44b"
         d="m 183.854,64.92 c -1.052,-0.33 -2.127,-0.62 -3.197,-0.922 1.07,0.301 2.146,0.591 3.197,0.922 z"
         id="path89"
         inkscape:connector-curvature="0" /><path
         style="fill:#fdd44b"
         d="m 131.399,59.914 c -0.961,0.094 -1.921,0.18 -2.877,0.294 0.955,-0.114 1.917,-0.2 2.877,-0.294 z"
         id="path91"
         inkscape:connector-curvature="0" /><path
         style="fill:#fdd44b"
         d="m 123.427,60.932 c -0.64,0.102 -1.287,0.179 -1.923,0.29 0.636,-0.111 1.284,-0.189 1.923,-0.29 z"
         id="path93"
         inkscape:connector-curvature="0" /><path
         style="fill:#fdd44b"
         d="m 142.925,59.267 c 1.047,-0.015 2.094,-0.038 3.142,-0.031 -1.049,-0.007 -2.094,0.016 -3.142,0.031 z"
         id="path95"
         inkscape:connector-curvature="0" /><path
         style="fill:#fdd44b"
         d="m 138.789,59.382 c -1.045,0.047 -2.085,0.105 -3.127,0.174 1.041,-0.069 2.083,-0.128 3.127,-0.174 z"
         id="path97"
         inkscape:connector-curvature="0" /></g><g
       id="g99"><path
         style="fill:#fdd44b"
         d="m 205.095,133.244 c -1.324,0.618 -2.673,1.207 -4.055,1.752 1.383,-0.545 2.731,-1.134 4.055,-1.752 z"
         id="path101"
         inkscape:connector-curvature="0" /><path
         style="fill:#fdd44b"
         d="m 190.739,138.261 c 1.361,-0.338 2.705,-0.709 4.033,-1.108 -1.328,0.4 -2.672,0.77 -4.033,1.108 z"
         id="path103"
         inkscape:connector-curvature="0" /><path
         style="fill:#fdd44b"
         d="m 196.066,136.757 c 1.55,-0.494 3.081,-1.016 4.573,-1.595 -1.492,0.579 -3.024,1.101 -4.573,1.595 z"
         id="path105"
         inkscape:connector-curvature="0" /><path
         style="fill:#fdd44b"
         d="m 229.737,112.358 c -0.9,1.525 -1.923,3.016 -3.065,4.469 1.143,-1.453 2.165,-2.944 3.065,-4.469 z"
         id="path107"
         inkscape:connector-curvature="0" /><path
         style="fill:#fdd44b"
         d="m 210.379,60.124 c -1.974,-1.15 -4.04,-2.222 -6.151,-3.254 2.11,1.032 4.177,2.104 6.151,3.254 z"
         id="path109"
         inkscape:connector-curvature="0" /><path
         style="fill:#fdd44b"
         d="m 220.729,123.096 c -1.496,1.33 -3.108,2.615 -4.832,3.851 1.724,-1.236 3.336,-2.521 4.832,-3.851 z"
         id="path111"
         inkscape:connector-curvature="0" /><path
         style="fill:#fdd44b"
         d="m 206.215,132.71 c 1.427,-0.698 2.83,-1.423 4.177,-2.208 1.945,-1.133 3.782,-2.32 5.505,-3.556 -1.724,1.236 -3.56,2.422 -5.505,3.556 -1.347,0.786 -2.75,1.511 -4.177,2.208 z"
         id="path113"
         inkscape:connector-curvature="0" /><path
         style="fill:#fdd44b"
         d="m 156.826,140.527 c 1.125,0.116 2.253,0.213 3.385,0.291 -1.132,-0.078 -2.26,-0.175 -3.385,-0.291 z"
         id="path115"
         inkscape:connector-curvature="0" /><path
         style="fill:#fdd44b"
         d="m 166.718,141.071 c -1.569,-0.007 -3.137,-0.054 -4.702,-0.133 1.565,0.079 3.133,0.125 4.702,0.133 z"
         id="path117"
         inkscape:connector-curvature="0" /><path
         style="fill:#fdd44b"
         d="m 197.52,53.894 c 1.607,0.653 3.183,1.337 4.728,2.052 -1.545,-0.715 -3.12,-1.399 -4.728,-2.052 z"
         id="path119"
         inkscape:connector-curvature="0" /><path
         style="fill:#fdd44b"
         d="m 189.313,50.904 c 2.042,0.656 4.043,1.36 6.004,2.109 -1.962,-0.748 -3.962,-1.453 -6.004,-2.109 z"
         id="path121"
         inkscape:connector-curvature="0" /><path
         style="fill:#fdd44b"
         d="m 179.749,140.288 c 1.295,-0.162 2.582,-0.348 3.862,-0.56 -1.279,0.212 -2.567,0.398 -3.862,0.56 z"
         id="path123"
         inkscape:connector-curvature="0" /><path
         style="fill:#fdd44b"
         d="m 168.358,141.053 c 1.203,-0.013 2.405,-0.047 3.606,-0.102 -1.201,0.055 -2.403,0.088 -3.606,0.102 z"
         id="path125"
         inkscape:connector-curvature="0" /><path
         style="fill:#fdd44b"
         d="m 185.118,139.471 c 1.603,-0.292 3.195,-0.615 4.764,-0.988 -1.569,0.373 -3.161,0.695 -4.764,0.988 z"
         id="path127"
         inkscape:connector-curvature="0" /><path
         style="fill:#fdd44b"
         d="m 173.669,140.865 c 1.603,-0.101 3.202,-0.234 4.791,-0.411 -1.589,0.177 -3.188,0.31 -4.791,0.411 z"
         id="path129"
         inkscape:connector-curvature="0" /></g><g
       id="g131"><path
         style="fill:#fdd44b"
         d="m 167.02,103.072 c -0.149,0 -0.297,-0.002 -0.445,-0.004 0.15,0.002 0.295,0.004 0.445,0.004 z"
         id="path133"
         inkscape:connector-curvature="0" /><path
         style="fill:#fdd44b"
         d="m 169.183,102.972 c -0.704,0.071 -1.434,0.099 -2.163,0.099 0.73,-0.001 1.458,-0.027 2.163,-0.099 z"
         id="path135"
         inkscape:connector-curvature="0" /><path
         style="fill:#fdd44b"
         d="m 162.236,102.385 c 1.334,0.442 2.826,0.652 4.339,0.682 -1.509,-0.033 -3.009,-0.238 -4.339,-0.682 z"
         id="path137"
         inkscape:connector-curvature="0" /><path
         style="fill:#fdd44b"
         d="m 162.015,102.309 c 0.073,0.026 0.146,0.051 0.221,0.076 -0.075,-0.025 -0.148,-0.05 -0.221,-0.076 z"
         id="path139"
         inkscape:connector-curvature="0" /><path
         style="fill:#fdd44b"
         d="m 170.766,102.754 c -0.488,0.085 -0.996,0.157 -1.518,0.212 0.522,-0.054 1.03,-0.127 1.518,-0.212 z"
         id="path141"
         inkscape:connector-curvature="0" /><path
         style="fill:#fdd44b"
         d="m 177.685,116.518 c 0.244,-0.081 0.481,-0.164 0.718,-0.25 -0.236,0.086 -0.475,0.169 -0.718,0.25 z"
         id="path143"
         inkscape:connector-curvature="0" /><path
         style="fill:#fdd44b"
         d="m 170.517,118.022 c 0.274,-0.027 0.542,-0.057 0.814,-0.09 -0.27,0.033 -0.541,0.063 -0.814,0.09 z"
         id="path145"
         inkscape:connector-curvature="0" /><path
         style="fill:#fdd44b"
         d="m 264.388,77.762 c -0.08,-0.09 -0.149,-0.184 -0.224,-0.277 -0.049,-0.06 -0.104,-0.114 -0.152,-0.176 -12.354,-16.186 -30.939,-28.007 -54.195,-34.963 -12.18,-2.442 -25.389,-3.715 -39.489,-3.715 -18.316,0 -36.17,2.827 -52.41,8.006 -2.427,0.437 -4.806,0.955 -7.161,1.508 10.791,-2.537 22.375,-3.89 34.294,-3.89 15.292,0 30.056,2.19 43.264,6.311 -0.022,-0.006 -0.042,-0.015 -0.064,-0.022 13.463,2.622 25.846,7.055 36.249,13.115 15.563,9.066 24.135,21.562 24.135,35.186 0,13.625 -8.571,26.12 -24.135,35.186 -20.323,11.844 -50.31,13.74 -73.741,5.701 1.409,0.235 2.83,0.432 4.258,0.605 -11.274,-1.368 -22.063,-4.636 -30.985,-9.834 -10.829,-6.306 -16.793,-15.135 -16.793,-24.859 0,-9.723 5.964,-18.55 16.792,-24.857 13.5,-7.866 35.319,-10.724 51.424,-3.689 -0.118,-0.052 -0.227,-0.12 -0.346,-0.17 7.991,0.833 15.633,3.31 21.734,7.855 6.385,4.757 9.826,11.781 9.205,18.79 -0.57,6.436 -4.501,11.93 -10.785,15.071 -7.469,3.734 -19.463,4.65 -28.187,-0.431 -8.628,-0.008 -17.631,-3.29 -22.094,-11.859 -1.92,-3.684 -0.489,-8.226 3.195,-10.145 3.681,-1.921 8.225,-0.49 10.144,3.195 0.739,1.419 2.087,2.332 3.694,2.905 -0.672,-0.241 -1.304,-0.536 -1.857,-0.913 0.589,-0.658 1.296,-1.228 2.126,-1.66 3.518,-1.836 7.817,-0.605 9.867,2.722 -0.436,0.111 -0.9,0.21 -1.384,0.296 1.482,-0.26 2.777,-0.649 3.661,-1.091 1.575,-0.787 2.425,-1.778 2.529,-2.944 0.152,-1.716 -1.108,-3.837 -3.208,-5.401 -0.786,-0.586 -1.646,-1.101 -2.539,-1.581 -9.055,-0.451 -18.847,1.698 -25.5,5.575 -5.925,3.45 -9.322,7.772 -9.322,11.86 0,4.088 3.398,8.411 9.322,11.861 2.59,1.509 5.429,2.806 8.435,3.911 16.869,2.555 35.752,0.093 48.675,-7.438 10.746,-6.26 16.665,-14.14 16.665,-22.189 0,-8.049 -5.919,-15.929 -16.665,-22.189 -5.664,-3.3 -11.98,-5.985 -18.682,-8.111 -28.219,-5.253 -60.399,-1.384 -82.75,11.638 -18.145,10.569 -28.137,24.18 -28.138,38.324 0,14.145 9.992,27.757 28.138,38.328 3.763,2.192 8.44,4.148 13.828,5.846 18.215,3.604 40.991,4.947 64.012,3.402 41.086,-2.759 74.585,-14.088 90.267,-29.651 20.367,-20.213 -2.946,-52.728 -5.107,-55.142 z"
         id="path147"
         inkscape:connector-curvature="0" /><path
         style="fill:#fdd44b"
         d="m 179.247,78.99 c -0.299,-0.171 -0.614,-0.317 -0.918,-0.48 0.304,0.164 0.62,0.309 0.918,0.48 z"
         id="path149"
         inkscape:connector-curvature="0" /><path
         style="fill:#fdd44b"
         d="m 191.984,97.421 c 0.047,0.872 0.033,1.748 -0.045,2.625 0.078,-0.877 0.092,-1.754 0.045,-2.625 z"
         id="path151"
         inkscape:connector-curvature="0" /></g><g
       id="g153"><path
         style="fill:#fdd44b"
         d="m 293.517,119.122 c -1.984,10.25 -7.417,18.307 -13.261,24.292 -18.219,18.658 -54.675,31.105 -100.02,34.15 -6.747,0.453 -13.455,0.675 -20.043,0.675 -33.373,0 -63.666,-5.663 -80.484,-15.46 -22.963,-13.378 -35.608,-31.606 -35.608,-51.326 0,-3.439 0.409,-6.829 1.166,-10.16 -0.071,0.313 -0.161,0.624 -0.226,0.938 -15.497,21.92 -16.05,34.732 -14.852,41.11 1.729,9.214 10.754,12.459 10.799,12.484 12.106,6.41 14.266,18.51 16,28.244 1.731,9.714 3.249,16.38 9.461,20.985 4.339,-0.739 8.482,-3.107 13.772,-6.363 7.912,-4.872 17.747,-10.926 30.985,-7.753 2.83,0.484 5.213,1.437 7.252,2.727 -0.034,-0.021 -0.06,-0.051 -0.094,-0.073 2.208,0.026 4.52,0.291 6.95,0.874 14.488,2.479 17.547,16.948 20.01,28.593 2.51,11.871 4.796,20.617 11.899,25.22 17.962,-1.299 21.017,-11.898 24.378,-28.9 2.289,-11.584 5.133,-25.978 19.667,-28.438 13.241,-3.168 23.068,2.884 30.979,7.754 9.276,5.71 15.017,8.771 24.5,4.919 8.789,-4.446 10.692,-12.225 12.765,-24.456 1.761,-10.387 3.954,-23.27 17.129,-27.348 0.249,-0.091 8.698,-2.094 10.6,-10.17 0.969,-4.114 1.365,-11.152 -3.724,-22.518 z"
         id="path155"
         inkscape:connector-curvature="0" /><path
         style="fill:#fdd44b"
         d="m 130.393,215.729 c 0.054,0.242 0.108,0.482 0.161,0.724 -0.054,-0.243 -0.107,-0.48 -0.161,-0.724 z"
         id="path157"
         inkscape:connector-curvature="0" /><path
         style="fill:#fdd44b"
         d="m 129.479,211.964 c 0.042,0.162 0.088,0.324 0.13,0.486 -0.042,-0.163 -0.087,-0.324 -0.13,-0.486 z"
         id="path159"
         inkscape:connector-curvature="0" /><path
         style="fill:#fdd44b"
         d="m 66.239,205.096 c -0.717,0.113 -1.438,0.191 -2.173,0.211 0.735,-0.019 1.456,-0.098 2.173,-0.211 z"
         id="path161"
         inkscape:connector-curvature="0" /><path
         style="fill:#fdd44b"
         d="m 66.472,205.073 c -0.008,-0.006 -0.014,-0.013 -0.023,-0.019 -0.071,0.012 -0.14,0.031 -0.211,0.042 0.078,-0.012 0.158,-0.01 0.234,-0.023 z"
         id="path163"
         inkscape:connector-curvature="0" /><path
         style="fill:#fdd44b"
         d="m 128.481,208.497 c 0.039,0.121 0.073,0.244 0.111,0.366 -0.038,-0.123 -0.072,-0.245 -0.111,-0.366 z"
         id="path165"
         inkscape:connector-curvature="0" /><path
         style="fill:#fdd44b"
         d="m 123.546,198.41 c 0.107,0.142 0.206,0.29 0.31,0.434 -0.104,-0.145 -0.203,-0.293 -0.31,-0.434 z"
         id="path167"
         inkscape:connector-curvature="0" /><path
         style="fill:#fdd44b"
         d="m 121.412,195.998 c -0.128,-0.123 -0.265,-0.237 -0.396,-0.357 0.132,0.12 0.269,0.234 0.396,0.357 z"
         id="path169"
         inkscape:connector-curvature="0" /><path
         style="fill:#fdd44b"
         d="m 127.097,204.745 c 0.08,0.192 0.161,0.384 0.238,0.577 -0.077,-0.194 -0.157,-0.385 -0.238,-0.577 z"
         id="path171"
         inkscape:connector-curvature="0" /><path
         style="fill:#fdd44b"
         d="m 125.575,201.548 c 0.024,0.043 0.051,0.083 0.075,0.127 -0.024,-0.043 -0.052,-0.083 -0.075,-0.127 z"
         id="path173"
         inkscape:connector-curvature="0" /></g><g
       id="g175"><path
         style="fill:#ef8829"
         d="m 31.904,198.427 c -0.374,-0.952 -0.719,-1.908 -1.026,-2.866 0.307,0.958 0.651,1.914 1.026,2.866 z"
         id="path177"
         inkscape:connector-curvature="0" /><path
         style="fill:#ef8829"
         d="m 34.676,204.058 c -0.34,-0.566 -0.656,-1.14 -0.959,-1.716 0.303,0.577 0.618,1.149 0.959,1.716 z"
         id="path179"
         inkscape:connector-curvature="0" /><path
         style="fill:#ef8829"
         d="m 33.157,201.269 c -0.311,-0.641 -0.592,-1.287 -0.865,-1.936 0.273,0.648 0.553,1.295 0.865,1.936 z"
         id="path181"
         inkscape:connector-curvature="0" /><path
         style="fill:#ef8829"
         d="m 39.667,210.432 c 0.534,0.529 1.117,1.039 1.706,1.547 -0.589,-0.508 -1.172,-1.018 -1.706,-1.547 z"
         id="path183"
         inkscape:connector-curvature="0" /><path
         style="fill:#ef8829"
         d="m 45.107,214.805 c -0.969,-0.632 -1.887,-1.285 -2.74,-1.965 0.853,0.679 1.771,1.333 2.74,1.965 z"
         id="path185"
         inkscape:connector-curvature="0" /><path
         style="fill:#ef8829"
         d="m 263.188,217.208 c -0.146,0.072 -0.294,0.139 -0.443,0.201 -17.192,7.138 -28.941,-0.094 -38.383,-5.908 -7.757,-4.777 -12.865,-7.616 -19.771,-5.89 -0.224,0.056 -0.449,0.101 -0.678,0.136 -3.78,0.584 -5.202,4.643 -7.555,16.546 -3.124,15.804 -7.845,39.687 -39.79,41.113 -0.113,0.005 -0.555,0.006 -0.664,10e-4 -31.07,-1.358 -36.085,-25.073 -39.404,-40.766 -2.381,-11.257 -3.852,-16.259 -7.958,-16.899 -0.223,-0.035 -0.444,-0.079 -0.663,-0.134 -6.906,-1.721 -12.014,1.114 -19.773,5.89 -9.441,5.811 -21.188,13.043 -38.375,5.907 -0.15,-0.062 -0.299,-0.129 -0.443,-0.202 -1.359,-0.671 -2.622,-1.383 -3.8,-2.131 0.002,0.001 0.003,0.003 0.005,0.004 14.436,35.089 60.46,61.152 115.542,62.707 65.696,-1.714 118.618,-38.278 120.597,-83.503 -2.603,8.698 -7.465,17.512 -18.444,22.928 z"
         id="path187"
         inkscape:connector-curvature="0" /><path
         style="fill:#ef8829"
         d="m 36.507,206.778 c -0.394,-0.529 -0.769,-1.065 -1.124,-1.606 0.355,0.542 0.73,1.076 1.124,1.606 z"
         id="path189"
         inkscape:connector-curvature="0" /><path
         style="fill:#ef8829"
         d="m 38.704,209.412 c -0.469,-0.507 -0.928,-1.018 -1.352,-1.542 0.425,0.523 0.883,1.034 1.352,1.542 z"
         id="path191"
         inkscape:connector-curvature="0" /></g><path
       style="fill:#3f2d20"
       d="M 310.984,123.101 C 306.599,107.717 294.745,89.149 275.756,67.915 246.174,36.057 209.6,20.062 156.22,20.062 c -49.022,0 -92.583,16.806 -121.822,47.609 -47.957,50.292 -35.29,80.702 -23.818,91.688 1.578,1.51 3.298,2.852 5.122,4.017 l 0,28.281 c 0,27.552 14.966,53.273 42.142,72.425 26.376,18.59 61.314,28.827 98.376,28.827 37.061,0 71.998,-10.237 98.375,-28.827 27.176,-19.152 42.143,-44.874 42.143,-72.425 l 0,-27.769 c 0.023,-0.012 0.04,-0.019 0.063,-0.031 3.979,-2.104 7.464,-5.027 10.079,-8.451 4.42,-5.793 8.722,-16.099 4.104,-32.305 z M 49.288,217.204 c 0.145,0.072 0.294,0.139 0.443,0.202 17.186,7.136 28.933,-0.096 38.375,-5.907 7.76,-4.776 12.868,-7.611 19.773,-5.89 0.219,0.055 0.44,0.1 0.663,0.134 4.105,0.64 5.577,5.641 7.958,16.899 3.319,15.692 8.333,39.408 39.404,40.766 0.109,0.005 0.551,0.004 0.664,-0.001 31.945,-1.426 36.666,-25.309 39.79,-41.113 2.353,-11.904 3.775,-15.963 7.555,-16.546 0.228,-0.035 0.453,-0.08 0.678,-0.136 6.906,-1.726 12.014,1.113 19.771,5.89 9.442,5.814 21.191,13.046 38.383,5.908 0.15,-0.063 0.298,-0.129 0.444,-0.201 10.979,-5.417 15.841,-14.231 18.444,-22.928 -2.027,46.327 -57.502,83.586 -125.412,83.586 -67.283,0 -122.359,-36.575 -125.342,-82.306 2.614,8.168 7.453,16.237 18.409,21.643 z m 247.954,-75.566 c -1.903,8.076 -10.352,10.078 -10.601,10.17 -13.175,4.078 -15.369,16.961 -17.129,27.348 -2.073,12.231 -3.976,20.01 -12.765,24.456 -9.483,3.852 -15.224,0.791 -24.5,-4.919 -7.912,-4.87 -17.738,-10.922 -30.979,-7.754 -14.533,2.461 -17.377,16.854 -19.667,28.438 -3.424,17.323 -6.492,28.023 -25.373,28.987 -18.193,-0.92 -21.364,-11.577 -25.012,-28.834 -2.463,-11.644 -5.522,-26.114 -20.01,-28.593 -13.238,-3.173 -23.073,2.881 -30.985,7.753 -9.276,5.71 -15.013,8.769 -24.494,4.917 -9.131,-4.603 -10.835,-11.782 -12.846,-23.066 -1.734,-9.734 -3.895,-21.834 -16,-28.244 -0.045,-0.026 -9.07,-3.271 -10.799,-12.485 -1.536,-8.184 -0.197,-26.959 31.912,-61.986 0.033,-0.036 0.062,-0.077 0.094,-0.115 0.019,-0.022 0.041,-0.039 0.06,-0.062 22.606,-26.244 64.016,-42.548 108.073,-42.548 48.738,0 87.018,14.989 107.792,42.205 0.048,0.063 0.103,0.117 0.152,0.176 0.076,0.093 0.144,0.187 0.224,0.277 2.161,2.414 25.475,34.929 5.107,55.143 -15.682,15.563 -49.181,26.893 -90.267,29.651 -37.547,2.519 -74.501,-2.613 -91.947,-12.776 -18.146,-10.571 -28.138,-24.183 -28.138,-38.328 0.001,-14.144 9.993,-27.755 28.138,-38.324 31.854,-18.559 83.684,-18.559 115.539,0 10.746,6.26 16.665,14.141 16.665,22.189 0,8.05 -5.919,15.93 -16.665,22.189 -19.299,11.246 -51.913,11.248 -71.218,-0.001 -5.923,-3.45 -9.322,-7.774 -9.322,-11.861 0,-4.088 3.397,-8.41 9.322,-11.86 11.328,-6.602 31.761,-8.205 42.147,-0.467 2.101,1.565 3.36,3.685 3.208,5.402 -0.104,1.165 -0.954,2.156 -2.529,2.944 -3.516,1.759 -13.498,2.747 -16.107,-2.259 -1.919,-3.686 -6.463,-5.117 -10.144,-3.195 -3.684,1.919 -5.115,6.46 -3.195,10.145 7.145,13.717 25.923,13.888 36.174,8.763 6.284,-3.142 10.215,-8.635 10.785,-15.071 0.621,-7.01 -2.82,-14.034 -9.205,-18.79 -16.134,-12.018 -43.033,-9.599 -58.704,-0.468 -10.828,6.307 -16.792,15.134 -16.792,24.857 0,9.724 5.964,18.553 16.793,24.859 24.215,14.108 62.149,14.11 86.36,0 15.563,-9.066 24.135,-21.561 24.135,-35.186 0,-13.624 -8.571,-26.12 -24.135,-35.186 -17.574,-10.238 -40.78,-15.877 -65.342,-15.877 -24.563,0 -47.767,5.639 -65.34,15.877 -22.962,13.376 -35.607,31.602 -35.608,51.32 0,19.72 12.645,37.949 35.608,51.326 16.818,9.797 47.11,15.461 80.484,15.461 6.587,0 13.295,-0.221 20.043,-0.675 45.345,-3.044 81.801,-15.492 100.02,-34.15 5.844,-5.984 11.277,-14.042 13.261,-24.292 5.086,11.369 4.69,18.407 3.722,22.519 z"
       id="path193"
       inkscape:connector-curvature="0" /></g><g
     id="g195"
     transform="translate(0,199.03)" /><g
     id="g197"
     transform="translate(0,199.03)" /><g
     id="g199"
     transform="translate(0,199.03)" /><g
     id="g201"
     transform="translate(0,199.03)" /><g
     id="g203"
     transform="translate(0,199.03)" /><g
     id="g205"
     transform="translate(0,199.03)" /><g
     id="g207"
     transform="translate(0,199.03)" /><g
     id="g209"
     transform="translate(0,199.03)" /><g
     id="g211"
     transform="translate(0,199.03)" /><g
     id="g213"
     transform="translate(0,199.03)" /><g
     id="g215"
     transform="translate(0,199.03)" /><g
     id="g217"
     transform="translate(0,199.03)" /><g
     id="g219"
     transform="translate(0,199.03)" /><g
     id="g221"
     transform="translate(0,199.03)" /><g
     id="g223"
     transform="translate(0,199.03)" /><circle
     style="opacity:1;fill:#07ff00;fill-opacity:1;fill-rule:nonzero;stroke:#ffffff;stroke-width:30;stroke-linecap:butt;stroke-linejoin:miter;stroke-miterlimit:4;stroke-dasharray:none;stroke-opacity:1"
     id="path8111"
     cx="412.87851"
     cy="412.87851"
     r="84.12149" /></svg>