<?xml version="1.0" encoding="UTF-8" standalone="no"?>
<!-- Generator: Adobe Illustrator 19.0.0, SVG Export Plug-In . SVG Version: 6.00 Build 0)  -->

<svg
   xmlns:dc="http://purl.org/dc/elements/1.1/"
   xmlns:cc="http://creativecommons.org/ns#"
   xmlns:rdf="http://www.w3.org/1999/02/22-rdf-syntax-ns#"
   xmlns:svg="http://www.w3.org/2000/svg"
   xmlns="http://www.w3.org/2000/svg"
   xmlns:sodipodi="http://sodipodi.sourceforge.net/DTD/sodipodi-0.dtd"
   xmlns:inkscape="http://www.inkscape.org/namespaces/inkscape"
   version="1.1"
   id="Layer_1"
   x="0px"
   y="0px"
   viewBox="0 0 511.999 511.999"
   style="enable-background:new 0 0 511.999 511.999;"
   xml:space="preserve"
   inkscape:version="0.91 r13725"
   sodipodi:docname="marker-areainterest-feature.svg"><metadata
     id="metadata71"><rdf:RDF><cc:Work
         rdf:about=""><dc:format>image/svg+xml</dc:format><dc:type
           rdf:resource="http://purl.org/dc/dcmitype/StillImage" /><dc:title></dc:title></cc:Work></rdf:RDF></metadata><defs
     id="defs69" /><sodipodi:namedview
     pagecolor="#ffffff"
     bordercolor="#666666"
     borderopacity="1"
     objecttolerance="10"
     gridtolerance="10"
     guidetolerance="10"
     inkscape:pageopacity="0"
     inkscape:pageshadow="2"
     inkscape:window-width="1920"
     inkscape:window-height="1017"
     id="namedview67"
     showgrid="false"
     inkscape:zoom="0.46093841"
     inkscape:cx="255.9995"
     inkscape:cy="255.9995"
     inkscape:window-x="1912"
     inkscape:window-y="-8"
     inkscape:window-maximized="1"
     inkscape:current-layer="Layer_1" /><g
     id="g8137"
     transform="translate(15.63984,1.2502051e-4)"><g
       transform="matrix(0.91942495,0,0,0.91942495,4.9874442,-1.0072611e-5)"
       id="g3"><polygon
         id="polygon5"
         points="361.171,335.434 281.818,368.812 342.388,503.93 371.094,462.768 420.922,468.726 "
         style="fill:#ff507d" /><polygon
         id="polygon7"
         points="91.408,468.726 141.236,462.768 169.941,503.93 230.512,368.812 151.159,335.434 "
         style="fill:#ff507d" /></g><g
       transform="matrix(0.91942495,0,0,0.91942495,4.9874442,-1.0072611e-5)"
       id="g9"><path
         inkscape:connector-curvature="0"
         id="path11"
         d="m 190.11,351.818 -38.951,-16.384 -59.751,133.292 48.918,-5.849 33.081,-73.795 c 5.846,2.684 12.242,4.198 18.821,4.198 2.346,0 4.711,-0.185 7.03,-0.55 l 17.789,-2.799 3.139,1.914 10.326,-23.033 -40.402,-16.994 z"
         style="fill:#d23c69" /><path
         inkscape:connector-curvature="0"
         id="path13"
         d="m 338.868,388.96 c 6.852,-3.203 12.924,-8.049 17.473,-14.306 l 10.58,-14.546 4.789,-1.159 -10.542,-23.515 -38.951,16.384 -40.402,16.994 60.571,135.119 28.707,-41.163 0.91,0.109 -33.135,-73.917 z"
         style="fill:#d23c69" /></g><path
       inkscape:connector-curvature="0"
       id="path15"
       d="m 408.77682,187.75392 -9.76062,16.00812 c -2.20202,3.61149 -3.05065,7.88773 -2.39234,12.06652 l 2.90906,18.49055 c 1.04171,6.61987 -1.71288,13.2673 -7.13381,17.20889 l -15.12915,11.00459 c -3.42486,2.49164 -5.85398,6.11969 -6.84972,10.23596 l -4.40588,18.20461 c -1.57405,6.50126 -6.6502,11.5774 -13.15145,13.15054 l -18.20369,4.40496 c -4.11627,0.99574 -7.74617,3.42394 -10.23688,6.84972 l -11.00184,15.12546 c -3.94249,5.42001 -10.58903,8.1746 -17.21072,7.13382 l -18.48319,-2.90906 c -4.1788,-0.65739 -8.45596,0.19032 -12.06838,2.39234 l -16.00535,9.75969 c -5.70594,3.48003 -12.8793,3.48003 -18.58525,0 l -16.00812,-9.76061 c -3.6115,-2.20202 -7.88774,-3.05065 -12.06652,-2.39234 l -18.49056,2.90906 c -6.61986,1.0417 -13.2673,-1.71289 -17.20888,-7.13382 l -11.00459,-15.12914 c -2.49164,-3.42486 -6.1197,-5.85398 -10.23597,-6.84971 l -18.2046,-4.40589 c -6.50126,-1.57406 -11.5774,-6.6502 -13.15054,-13.15145 l -4.40496,-18.2037 c -0.99574,-4.11626 -3.42394,-7.74616 -6.84972,-10.23688 L 88.317685,251.52432 C 82.897676,247.58183 80.143079,240.9353 81.183868,234.3136 l 2.909061,-18.4832 c 0.657388,-4.17879 -0.190321,-8.45595 -2.392345,-12.06836 l -9.759696,-16.00628 c -3.480022,-5.70595 -3.480022,-12.8793 0,-18.58525 l 9.760616,-16.00811 c 2.202023,-3.61151 3.050652,-7.88775 2.392344,-12.06654 l -2.909061,-18.49055 c -1.041708,-6.61986 1.712889,-13.2673 7.133819,-17.20888 L 103.44774,94.391834 c 3.42487,-2.491643 5.85399,-6.119693 6.84972,-10.235958 l 4.40589,-18.204615 c 1.57404,-6.501254 6.65019,-11.577399 13.15144,-13.150535 l 18.20371,-4.404965 c 4.11626,-0.995736 7.74615,-3.423938 10.23779,-6.849715 l 11.00184,-15.125461 c 3.94249,-5.42001 10.58901,-8.174607 17.21071,-7.133817 l 18.48321,2.90906 c 4.17878,0.657389 8.45594,-0.190321 12.06836,-2.392344 l 16.00444,-9.759696 c 5.70595,-3.4800233 12.8793,-3.4800233 18.58525,0 l 16.00811,9.760616 c 3.6115,2.202022 7.88775,3.050651 12.06653,2.392344 l 18.49056,-2.909062 c 6.61985,-1.041708 13.2673,1.712889 17.20887,7.133819 l 11.0046,15.129138 c 2.49164,3.424858 6.1197,5.853978 10.23596,6.849715 l 18.20462,4.405884 c 6.50125,1.574057 11.5774,6.650201 13.15053,13.151455 l 4.40496,18.203695 c 0.99574,4.116266 3.42394,7.746155 6.84971,10.237797 l 15.12547,11.001841 c 5.42002,3.94249 8.17461,10.58901 7.13382,17.21072 l -2.90906,18.48319 c -0.65739,4.17878 0.19032,8.45595 2.39234,12.06838 l 9.7597,16.00442 c 3.4791,5.70779 3.4791,12.87931 0,18.58618 z"
       style="fill:#ffc850" /><path
       inkscape:connector-curvature="0"
       id="path17"
       d="m 137.49037,142.85289 c 0,-47.442334 17.79364,-90.710472 47.03594,-123.563365 l -0.0185,-0.0027 c -6.62078,-1.042628 -13.26821,1.711968 -17.20979,7.132898 l -11.00092,15.12546 c -2.49164,3.424858 -6.12061,5.853979 -10.23779,6.849716 l -18.20371,4.404965 c -6.50124,1.573136 -11.5774,6.649282 -13.15145,13.150535 l -4.40588,18.204614 c -0.99574,4.116266 -3.42395,7.744317 -6.84972,10.235959 L 88.318606,105.39551 c -5.41909,3.94157 -8.174608,10.5881 -7.133819,17.20888 l 2.909061,18.48964 c 0.657389,4.17878 -0.19124,8.45503 -2.392344,12.06653 l -9.761535,16.00627 c -3.480023,5.70595 -3.480023,12.8793 0,18.58526 l 9.759697,16.00442 c 2.202942,3.61243 3.050651,7.88958 2.392342,12.06838 l -2.90906,18.48504 c -1.042628,6.62078 1.71197,13.26821 7.132899,17.20978 l 15.125453,11.00185 c 3.42486,2.49164 5.85398,6.12061 6.84972,10.23779 l 4.40496,18.2037 c 1.57315,6.50125 6.64929,11.57739 13.15054,13.15145 l 18.20462,4.40589 c 4.11626,0.99573 7.74431,3.42395 10.23595,6.84971 l 11.00368,15.12914 c 3.9425,5.41909 10.5881,8.17461 17.20888,7.13383 l 18.48964,-2.90907 c 4.17878,-0.65739 8.45503,0.19032 12.06744,2.39234 l 16.00812,9.76062 c 5.70687,3.48003 12.8793,3.48003 18.58525,0 l 16.00444,-9.7597 c 3.61242,-2.20294 7.88957,-3.05065 12.06836,-2.39234 l 18.48412,2.90906 c 6.62078,1.04263 13.26822,-1.71197 17.2098,-7.1329 l 1.39293,-1.91516 C 216.12235,324.07521 137.49037,242.65738 137.49037,142.85289 Z"
       style="fill:#e1a546" /><circle
       id="circle19"
       r="126.60666"
       cy="178.46497"
       cx="240.35562"
       style="fill:#ffdc64" /><path
       inkscape:connector-curvature="0"
       id="path21"
       d="m 268.9424,239.49365 c -44.85047,-8.92579 -80.72643,-44.82105 -89.62738,-89.67612 -2.84287,-14.32832 -2.90723,-28.25302 -0.72911,-41.42469 0.82472,-4.98881 -5.25636,-8.06795 -8.92853,-4.59161 -22.71531,21.49799 -35.64611,53.21816 -31.34596,87.82531 5.70686,45.94366 42.93347,83.17211 88.87621,88.88265 34.60992,4.30291 66.33192,-8.62881 87.83358,-31.34504 3.47543,-3.67217 0.39721,-9.75326 -4.5916,-8.92853 -13.1919,2.17995 -27.13867,2.11285 -41.48721,-0.74197 z"
       style="fill:#ffc850" /><path
       inkscape:connector-curvature="0"
       id="path23"
       d="m 240.35839,227.8243 -42.84703,23.98412 c -4.4583,2.49531 -9.79188,-1.38005 -8.79614,-6.39092 l 9.56938,-48.16224 -36.05158,-33.33927 c -3.75034,-3.469 -1.71289,-9.73855 3.35957,-10.33985 l 48.76263,-5.78135 20.56661,-44.58935 c 2.13951,-4.638503 8.7327,-4.638503 10.8722,0 l 20.56662,44.58935 48.76263,5.78135 c 5.07338,0.6013 7.11082,6.8727 3.35958,10.33985 l -36.05158,33.33927 9.56938,48.16224 c 0.99574,5.01087 -4.33786,8.88623 -8.79614,6.39092 L 240.35839,227.8243 Z"
       style="fill:#ffffff" /><path
       inkscape:connector-curvature="0"
       id="path25"
       d="m 240.35839,107.24447 4.78193,-4.78193 c -2.53393,-3.696084 -8.23069,-3.566446 -10.21849,0.74198 l -20.56661,44.58935 -48.76354,5.78135 c -5.07339,0.6013 -7.11084,6.87177 -3.35958,10.33985 l 36.05157,33.33927 -9.5703,48.16223 c -0.99574,5.01088 4.33786,8.88625 8.79615,6.39094 l 11.28961,-6.31921 16.35934,-47.8524 c 1.76437,-5.15981 0.74656,-10.86668 -2.69208,-15.0988 l -2.90723,-3.57748 c -2.0779,-2.55784 -0.83208,-6.4084 2.35189,-7.26161 l 2.73161,-0.73279 c 6.45896,-1.73311 11.13056,-7.33793 11.6721,-14.00284 l 4.04363,-49.71791 z"
       style="fill:#fffab4" /><path
       inkscape:connector-curvature="0"
       id="path27"
       d="m 293.76043,71.898103 c 3.65564,1.849882 8.11852,0.380641 9.96657,-3.275912 1.84804,-3.656553 0.38156,-8.118522 -3.27591,-9.966567 C 248.67091,32.490629 186.29621,42.494892 145.24296,83.549055 97.529405,131.26169 92.753911,207.34043 134.13539,260.51445 c 1.4628,1.87931 3.6492,2.86309 5.8595,2.86309 1.59244,0 3.19684,-0.51028 4.55114,-1.56486 3.23363,-2.51646 3.81471,-7.17703 1.29915,-10.41065 -36.79446,-47.27867 -32.54212,-114.92995 9.89026,-157.362337 36.50853,-36.512203 91.97651,-45.410398 138.02499,-22.14159 z" /><path
       inkscape:connector-curvature="0"
       id="path29"
       d="m 349.72215,114.62837 c -3.65655,1.84713 -5.12487,6.30818 -3.27775,9.96657 23.25134,46.04112 14.34855,101.50084 -22.15354,138.00201 -42.4333,42.43146 -110.08367,46.68289 -157.36234,9.89026 -3.23454,-2.51555 -7.89418,-1.93447 -10.41065,1.29914 -2.51646,3.23362 -1.93447,7.89419 1.29914,10.41065 24.22134,18.84913 53.19334,28.12153 82.0734,28.12153 34.52257,0 68.91273,-13.24984 94.89293,-39.23002 41.04313,-41.04313 51.05199,-103.40588 24.9063,-155.18146 -1.84804,-3.65748 -6.3091,-5.12395 -9.96749,-3.27868 z" /><path
       inkscape:connector-curvature="0"
       id="path31"
       d="m 318.85431,88.925852 c 1.85263,1.636577 3.68229,3.357741 5.43838,5.112923 1.75427,1.756101 3.47543,3.584838 5.11293,5.437474 1.46556,1.658641 3.50853,2.505431 5.5616,2.505431 1.74599,0 3.49841,-0.61325 4.90973,-1.85907 3.06997,-2.713224 3.35866,-7.400452 0.64635,-10.470412 -1.83792,-2.07974 -3.76872,-4.133734 -5.73904,-6.103143 -1.97034,-1.970328 -4.0234,-3.901121 -6.10314,-5.739051 -3.06997,-2.714142 -7.75904,-2.423603 -10.47042,0.645438 -2.71597,3.069039 -2.42728,7.758107 0.64361,10.47041 z" /><path
       inkscape:connector-curvature="0"
       id="path33"
       d="m 415.10982,165.30708 -9.7597,-16.00443 c -1.28535,-2.10916 -1.78277,-4.61368 -1.39844,-7.05199 l 2.90906,-18.4832 c 1.48303,-9.4195 -2.38683,-18.75444 -10.09713,-24.363845 L 381.63816,88.40178 c -1.99976,-1.454531 -3.42118,-3.578402 -4.00319,-5.981779 L 373.23001,64.216307 C 370.99396,54.96965 363.86015,47.836751 354.61441,45.598871 L 336.4098,41.192987 c -2.40338,-0.581996 -4.52817,-2.002509 -5.98178,-4.003177 L 319.42435,22.060672 c -5.6085,-7.710298 -14.94434,-11.581995 -24.3611,-10.098044 l -18.48963,2.90906 c -2.43831,0.383401 -4.94374,-0.113089 -7.05106,-1.398444 L 253.51537,3.710789 c -8.11484,-4.9483451 -18.19542,-4.9474256 -26.31027,0 l -16.00444,9.759695 c -2.10823,1.286277 -4.61091,1.781847 -7.05198,1.398446 l -18.48504,-2.90906 c -9.41675,-1.482114 -18.75351,2.387746 -24.362,10.098044 L 150.2998,37.183373 c -1.45453,1.99975 -3.57932,3.421181 -5.9827,4.003177 l -18.20369,4.404965 c -9.24482,2.236042 -16.37956,9.36986 -18.61744,18.615597 l -4.40588,18.204614 c -0.582,2.403377 -2.00251,4.528168 -4.003179,5.981779 L 83.956854,99.397181 C 76.246555,105.00475 72.377616,114.33875 73.858809,123.75826 l 2.909061,18.49057 c 0.3834,2.43922 -0.113089,4.94374 -1.398446,7.05106 L 65.607891,165.308 c -4.946508,8.11484 -4.946508,18.19542 9.18e-4,26.30934 l 9.759697,16.00443 c 1.286275,2.10916 1.782764,4.61368 1.398444,7.052 l -2.90906,18.48504 c -1.483032,9.41859 2.386827,18.75442 10.097125,24.36292 l 15.125459,11.00183 c 1.999756,1.45361 3.421186,3.57841 4.003176,5.98179 l 4.40497,18.20369 c 2.23603,9.24666 9.36986,16.37956 18.61558,18.61744 l 7.60181,1.83977 -51.445496,114.7571 c -1.093196,2.43924 -0.790705,5.27658 0.793464,7.42987 1.58325,2.15329 4.200853,3.28879 6.856152,2.97066 l 41.39436,-4.94926 23.84619,34.19434 c 1.39569,1.99974 3.67402,3.17477 6.08292,3.17477 0.23078,0 0.46432,-0.011 0.69601,-0.0322 2.66081,-0.25009 4.98237,-1.91333 6.07556,-4.35072 l 52.54054,-117.20738 6.65755,4.05926 c 4.05742,2.47418 8.60674,3.71081 13.15513,3.71081 4.5484,0 9.09772,-1.23754 13.15514,-3.71081 l 6.89752,-4.20544 52.60674,117.35356 c 1.09319,2.43923 3.41382,4.10063 6.07556,4.35072 0.23261,0.0221 0.46522,0.0322 0.696,0.0322 2.40982,0 4.68815,-1.17503 6.08292,-3.17477 l 23.8462,-34.19434 41.39436,4.94926 c 2.65346,0.31536 5.2729,-0.81737 6.85615,-2.97066 1.58325,-2.15329 1.88758,-4.99063 0.79346,-7.42987 l -51.47216,-114.82054 7.31587,-1.7699 c 9.2448,-2.23603 16.37955,-9.36987 18.61743,-18.6156 l 4.40588,-18.20461 c 0.58199,-2.40339 2.00251,-4.52817 4.00317,-5.98177 l 15.12915,-11.00369 c 7.71029,-5.60757 11.57923,-14.94157 10.09804,-24.36107 l -2.90906,-18.49057 c -0.38341,-2.43923 0.11308,-4.94375 1.39844,-7.05106 l 9.76153,-16.00812 0,0 c 4.94743,-8.11484 4.94743,-18.19633 -9.1e-4,-26.30934 z M 159.82597,448.33642 140.9281,421.23729 c -1.5667,-2.24707 -4.2459,-3.44968 -6.96556,-3.12236 l -32.80416,3.92226 46.87135,-104.55976 c 0.85691,0.62981 1.62555,1.38465 2.25903,2.25719 l 11.00368,15.12913 c 1.04539,1.43707 2.22041,2.73989 3.50118,3.90019 l -24.67093,55.03403 c -1.6752,3.73839 -0.004,8.12772 3.7347,9.80384 0.98562,0.44224 2.01539,0.65095 3.0295,0.65095 2.83367,0 5.54045,-1.63291 6.77342,-4.38566 l 24.58357,-54.83819 c 2.41902,0.33191 4.90973,0.32641 7.40965,-0.0672 l 18.48963,-2.90907 c 1.10699,-0.17377 2.22594,-0.15814 3.31545,0.0221 L 159.82597,448.3364 Z m 187.23537,-30.22149 c -2.72242,-0.3264 -5.39886,0.87529 -6.96556,3.12236 l -18.89787,27.09913 -47.65287,-106.303 c 0.99941,-0.13607 2.01906,-0.13607 3.02766,0.0221 l 18.4832,2.90906 c 2.60106,0.40914 5.19292,0.39626 7.70387,0.0221 l 24.60196,54.88231 c 1.23479,2.75368 3.93975,4.38566 6.77341,4.38566 1.01412,0 2.04481,-0.20872 3.0295,-0.65096 3.73839,-1.67519 5.41083,-6.06544 3.73471,-9.80382 l -24.76471,-55.24365 c 1.19342,-1.10882 2.29857,-2.33626 3.28326,-3.68966 l 11.00185,-15.12546 c 0.69324,-0.95344 1.54279,-1.77081 2.49715,-2.43188 l 46.94768,104.72894 -32.80324,-3.92318 z m 55.38156,-234.2226 -9.76154,16.00811 c -3.11316,5.10649 -4.31669,11.17286 -3.38716,17.08109 l 2.90906,18.48963 c 0.61142,3.88825 -0.98654,7.74156 -4.16867,10.05666 l -15.13006,11.0046 c -4.84261,3.52325 -8.28677,8.66927 -9.69533,14.49015 l -4.40589,18.2046 c -0.92402,3.81653 -3.86802,6.76146 -7.68546,7.68547 l -18.20462,4.40498 c -5.82179,1.40855 -10.96874,4.85272 -14.49197,9.69625 l -11.00185,15.12546 c -2.31511,3.18397 -6.1675,4.78009 -10.05758,4.16776 l -18.48412,-2.90906 c -5.90915,-0.92954 -11.97644,0.27306 -17.08384,3.38715 l -16.00443,9.75969 c -3.34946,2.04114 -7.51262,2.04114 -10.86025,0 l -16.0081,-9.7606 c -3.98112,-2.42821 -8.54514,-3.69334 -13.16342,-3.69334 -1.30559,0 -2.6176,0.1011 -3.91859,0.30618 l -18.49055,2.90906 c -3.88917,0.61233 -7.74156,-0.98655 -10.05667,-4.16868 l -11.00459,-15.12914 c -3.52324,-4.84261 -8.66927,-8.28678 -14.49015,-9.69533 l -18.20461,-4.40588 c -3.81744,-0.92403 -6.76145,-3.86803 -7.68547,-7.68548 l -4.40497,-18.20369 c -1.40855,-5.82181 -4.85181,-10.96966 -9.69625,-14.4929 L 92.681277,245.52232 c -3.183049,-2.31512 -4.78009,-6.16935 -4.167753,-10.0576 l 2.90906,-18.48504 c 0.929539,-5.90914 -0.273069,-11.97551 -3.387161,-17.08292 L 78.275727,183.8905 c -2.042963,-3.34947 -2.042963,-7.51171 0,-10.86026 l 9.761534,-16.0081 c 3.113174,-5.10648 4.316701,-11.17285 3.387163,-17.08107 l -2.909061,-18.48964 c -0.611417,-3.88824 0.986542,-7.74156 4.168672,-10.05667 l 15.130055,-11.0046 c 4.84262,-3.523235 8.28679,-8.669256 9.69534,-14.490135 l 4.40588,-18.204614 c 0.92402,-3.816533 3.86802,-6.761452 7.68548,-7.685473 l 18.20461,-4.404965 c 5.8218,-1.40856 10.96873,-4.852726 14.49198,-9.696256 l 11.00183,-15.12546 c 2.31512,-3.183049 6.16751,-4.78193 10.0576,-4.168673 l 18.48504,2.90906 c 5.91005,0.931378 11.97734,-0.273069 17.08383,-3.387161 l 16.00443,-9.759696 c 3.34947,-2.041123 7.51262,-2.041123 10.86024,0 l 16.00812,9.760616 c 5.10648,3.115012 11.17469,4.318538 17.08199,3.38808 l 18.49056,-2.90906 c 3.88732,-0.609578 7.74155,0.986543 10.05667,4.168673 l 11.0046,15.129137 c 3.52323,4.842612 8.66925,8.286777 14.49013,9.695337 l 18.20461,4.405884 c 3.81746,0.924022 6.76146,3.868021 7.68548,7.685472 l 4.40496,18.203695 c 1.40856,5.821799 4.85181,10.96966 9.69626,14.492899 l 15.12546,11.00184 c 3.18305,2.3151 4.78009,6.16934 4.16775,10.05758 l -2.90906,18.48505 c -0.92953,5.90914 0.27307,11.9755 3.38716,17.08291 l 9.7597,16.00626 c 2.04112,3.34948 2.04112,7.51171 -0.002,10.86117 z" /><path
       inkscape:connector-curvature="0"
       id="path35"
       d="m 157.19548,169.36266 33.00277,30.52032 -8.76028,44.09011 c -1.03068,5.19106 0.98838,10.34719 5.27014,13.4567 2.362,1.71565 5.10281,2.5845 7.86109,2.5845 2.24247,0 4.49506,-0.57372 6.56469,-1.7322 l 39.2245,-21.95496 39.22451,21.95496 c 4.61828,2.58542 10.14494,2.25903 14.42578,-0.85139 4.28176,-3.11042 6.30081,-8.26747 5.26922,-13.45761 l -8.76028,-44.08919 33.00276,-30.52032 c 3.88549,-3.59219 5.28301,-8.95153 3.64828,-13.98446 -1.63474,-5.03291 -5.91466,-8.54696 -11.17009,-9.17033 l -44.639,-5.29313 -18.82799,-40.81787 c -2.21674,-4.80492 -6.88098,-7.790293 -12.17319,-7.790293 -5.2922,0 -9.95645,2.985373 -12.17317,7.790293 l -18.828,40.81879 -44.639,5.29313 c -5.25543,0.62336 -9.53628,4.1374 -11.17009,9.17034 -1.63381,5.0311 -0.23629,10.39041 3.64735,13.98261 z m 58.03319,-14.20143 c 2.56152,-0.30342 4.78193,-1.91701 5.86318,-4.25878 l 19.26654,-41.77039 19.26655,41.77039 c 1.08125,2.34177 3.30074,3.95536 5.86317,4.25878 l 45.68072,5.41633 -33.77325,31.23195 c -1.894,1.75151 -2.74172,4.36175 -2.23971,6.892 l 8.96439,45.11711 L 243.98,221.35063 c -1.12537,-0.62981 -2.37394,-0.94517 -3.62345,-0.94517 -1.24949,0 -2.49715,0.31444 -3.62345,0.94517 l -40.14025,22.46799 8.96439,-45.11711 c 0.50384,-2.53118 -0.34478,-5.14049 -2.23971,-6.892 l -33.77141,-31.23195 45.68255,-5.41633 z" /></g><g
     id="g37" /><g
     id="g39" /><g
     id="g41" /><g
     id="g43" /><g
     id="g45" /><g
     id="g47" /><g
     id="g49" /><g
     id="g51" /><g
     id="g53" /><g
     id="g55" /><g
     id="g57" /><g
     id="g59" /><g
     id="g61" /><g
     id="g63" /><g
     id="g65" /></svg>