<?xml version="1.0" encoding="UTF-8" standalone="no"?>
<!-- Generator: Adobe Illustrator 19.0.0, SVG Export Plug-In . SVG Version: 6.00 Build 0)  -->

<svg
   xmlns:dc="http://purl.org/dc/elements/1.1/"
   xmlns:cc="http://creativecommons.org/ns#"
   xmlns:rdf="http://www.w3.org/1999/02/22-rdf-syntax-ns#"
   xmlns:svg="http://www.w3.org/2000/svg"
   xmlns="http://www.w3.org/2000/svg"
   xmlns:sodipodi="http://sodipodi.sourceforge.net/DTD/sodipodi-0.dtd"
   xmlns:inkscape="http://www.inkscape.org/namespaces/inkscape"
   version="1.1"
   id="Capa_1"
   x="0px"
   y="0px"
   viewBox="0 0 512 512"
   style="enable-background:new 0 0 512 512;"
   xml:space="preserve"
   inkscape:version="0.91 r13725"
   sodipodi:docname="allroutes.svg"><metadata
     id="metadata125"><rdf:RDF><cc:Work
         rdf:about=""><dc:format>image/svg+xml</dc:format><dc:type
           rdf:resource="http://purl.org/dc/dcmitype/StillImage" /><dc:title></dc:title></cc:Work></rdf:RDF></metadata><defs
     id="defs123" /><sodipodi:namedview
     pagecolor="#ffffff"
     bordercolor="#666666"
     borderopacity="1"
     objecttolerance="10"
     gridtolerance="10"
     guidetolerance="10"
     inkscape:pageopacity="0"
     inkscape:pageshadow="2"
     inkscape:window-width="1920"
     inkscape:window-height="1017"
     id="namedview121"
     showgrid="false"
     inkscape:zoom="0.4609375"
     inkscape:cx="-292.88136"
     inkscape:cy="223.75301"
     inkscape:window-x="1912"
     inkscape:window-y="-8"
     inkscape:window-maximized="1"
     inkscape:current-layer="text9013" /><g
     id="g91" /><g
     id="g93" /><g
     id="g95" /><g
     id="g97" /><g
     id="g99" /><g
     id="g101" /><g
     id="g103" /><g
     id="g105" /><g
     id="g107" /><g
     id="g109" /><g
     id="g111" /><g
     id="g113" /><g
     id="g115" /><g
     id="g117" /><g
     id="g119" /><g
     transform="matrix(1.1007942,0,0,1.1007942,-53.326264,-96.70441)"
     style="font-style:normal;font-weight:normal;font-size:228.63841248px;line-height:125%;font-family:sans-serif;letter-spacing:0px;word-spacing:0px;fill:#7b88d1;fill-opacity:1;stroke:none;stroke-width:1px;stroke-linecap:butt;stroke-linejoin:miter;stroke-opacity:1"
     id="flowRoot9005"><path
       d="M 171.65157,286.47247 H 104.44438 L 93.838599,316.83851 H 50.633977 l 61.736833,-166.6783 h 51.24269 l 61.73684,166.6783 h -43.20462 z m -56.48976,-30.92424 h 45.6607 l -22.77453,-66.31407 z"
       style="font-style:normal;font-variant:normal;font-weight:bold;font-stretch:normal;font-family:sans-serif;-inkscape-font-specification:'sans-serif Bold';fill:#7b88d1;fill-opacity:1"
       id="path8095"
       inkscape:connector-curvature="0" /><path
       d="m 247.34339,150.16021 h 42.98135 v 134.1911 h 75.46853 v 32.4872 H 247.34339 Z"
       style="font-style:normal;font-variant:normal;font-weight:bold;font-stretch:normal;font-family:sans-serif;-inkscape-font-specification:'sans-serif Bold';fill:#7b88d1;fill-opacity:1"
       id="path8097"
       inkscape:connector-curvature="0" /><path
       d="m 392.92176,150.16021 h 42.98135 v 134.1911 h 75.46853 v 32.4872 H 392.92176 Z"
       style="font-style:normal;font-variant:normal;font-weight:bold;font-stretch:normal;font-family:sans-serif;-inkscape-font-specification:'sans-serif Bold';fill:#7b88d1;fill-opacity:1"
       id="path8099"
       inkscape:connector-curvature="0" /></g><g
     style="font-style:normal;font-weight:normal;font-size:148.0431366px;line-height:125%;font-family:sans-serif;letter-spacing:0px;word-spacing:0px;fill:#7b88d1;fill-opacity:1;stroke:none;stroke-width:1px;stroke-linecap:butt;stroke-linejoin:miter;stroke-opacity:1"
     id="text9013"
     transform="translate(0,-17.66965)"><g
       style="font-style:normal;font-weight:normal;font-size:158.88601685px;line-height:125%;font-family:sans-serif;letter-spacing:0px;word-spacing:0px;fill:#7b88d1;fill-opacity:1;stroke:none;stroke-width:1px;stroke-linecap:butt;stroke-linejoin:miter;stroke-opacity:1"
       id="text8089"><path
         d="m 68.67774,354.51803 q -2.405013,-1.39646 -5.275512,-2.0171 -2.792918,-0.69823 -6.206485,-0.69823 -12.102646,0 -18.619455,7.91326 -6.439228,7.83569 -6.439228,22.57609 l 0,45.77283 -14.352497,0 0,-86.89079 14.352497,0 0,13.4991 q 4.499701,-7.91326 11.71474,-11.71474 7.215039,-3.87905 17.53332,-3.87905 1.474041,0 3.258405,0.23274 1.784364,0.15517 3.956634,0.54307 l 0.07758,14.66282 z"
         style=""
         id="path8094" /><path
         d="m 114.06266,351.18205 q -11.482,0 -18.153967,8.9994 -6.671972,8.92182 -6.671972,24.51562 0,15.59379 6.594391,24.59319 6.671968,8.92183 18.231548,8.92183 11.40442,0 18.07639,-8.99941 6.67197,-8.9994 6.67197,-24.51561 0,-15.43864 -6.67197,-24.43804 -6.67197,-9.07698 -18.07639,-9.07698 z m 0,-12.10265 q 18.61946,0 29.24806,12.10265 10.62861,12.10264 10.62861,33.51502 0,21.33479 -10.62861,33.51502 -10.6286,12.10264 -29.24806,12.10264 -18.697035,0 -29.32564,-12.10264 -10.551025,-12.18023 -10.551025,-33.51502 0,-21.41238 10.551025,-33.51502 10.628605,-12.10265 29.32564,-12.10265 z"
         style=""
         id="path8096" /><path
         d="m 176.04994,393.77405 0,-52.59996 14.27492,0 0,52.05689 q 0,12.33539 4.81002,18.54188 4.81003,6.1289 14.43008,6.1289 11.55958,0 18.23155,-7.3702 6.74955,-7.3702 6.74955,-20.0935 l 0,-49.26397 14.27492,0 0,86.89079 -14.27492,0 0,-13.34394 q -5.19793,7.91327 -12.10264,11.79232 -6.82714,3.80147 -15.90412,3.80147 -14.97315,0 -22.73125,-9.30973 -7.75811,-9.30972 -7.75811,-27.23095 z m 35.92003,-54.69465 0,0 z"
         style=""
         id="path8098" /><path
         d="m 292.49911,316.50331 0,24.67078 29.40322,0 0,11.09409 -29.40322,0 0,47.16929 q 0,10.6286 2.8705,13.65427 2.94808,3.02566 11.8699,3.02566 l 14.66282,0 0,11.94748 -14.66282,0 q -16.52476,0 -22.80883,-6.1289 -6.28407,-6.20649 -6.28407,-22.49851 l 0,-47.16929 -10.47344,0 0,-11.09409 10.47344,0 0,-24.67078 14.3525,0 z"
         style=""
         id="path8100" /><path
         d="m 415.0772,381.05076 0,6.98229 -65.63358,0 q 0.93097,14.7404 8.84424,22.49851 7.99085,7.68053 22.18819,7.68053 8.22359,0 15.90411,-2.01711 7.75811,-2.01711 15.36105,-6.05133 l 0,13.49911 q -7.68052,3.2584 -15.74895,4.96519 -8.06843,1.70678 -16.36961,1.70678 -20.79172,0 -32.97195,-12.10264 -12.10264,-12.10265 -12.10264,-32.73921 0,-21.3348 11.48199,-33.82535 11.55958,-12.56813 31.11001,-12.56813 17.53332,0 27.69644,11.32684 10.2407,11.24925 10.2407,30.64452 z m -14.27492,-4.18938 q -0.15516,-11.71474 -6.59439,-18.69704 -6.36164,-6.98229 -16.91267,-6.98229 -11.94748,0 -19.16252,6.74955 -7.13746,6.74955 -8.22359,19.00736 l 50.89317,-0.0776 z"
         style=""
         id="path8102" /><path
         d="m 493.89956,343.73426 0,13.49911 q -6.05133,-3.10324 -12.56814,-4.65486 -6.51681,-1.55163 -13.4991,-1.55163 -10.62861,0 -15.9817,3.25841 -5.27551,3.2584 -5.27551,9.77521 0,4.96519 3.80147,7.83569 3.80147,2.79292 15.28347,5.35309 l 4.88761,1.08614 q 15.20588,3.2584 21.56753,9.23215 6.43923,5.89616 6.43923,16.52476 0,12.10265 -9.62005,19.16252 -9.54247,7.05988 -26.29998,7.05988 -6.9823,0 -14.58524,-1.39646 -7.52537,-1.31888 -15.90412,-4.03421 l 0,-14.74041 q 7.91327,4.1118 15.59379,6.20649 7.68053,2.01711 15.20589,2.01711 10.08554,0 15.51621,-3.41357 5.43068,-3.49115 5.43068,-9.77521 0,-5.81858 -3.95664,-8.92183 -3.87905,-3.10324 -17.14541,-5.97374 l -4.96519,-1.16371 q -13.26636,-2.79292 -19.16252,-8.53392 -5.89616,-5.81858 -5.89616,-15.90412 0,-12.25781 8.68908,-18.92978 8.68908,-6.67197 24.67078,-6.67197 7.91326,0 14.89556,1.16372 6.9823,1.16371 12.87846,3.49114 z"
         style=""
         id="path8104" /></g></g><rect
     style="opacity:0.93999999;fill:#7b88d1;fill-opacity:1;fill-rule:nonzero;stroke:#7b88d1;stroke-width:10.84141827;stroke-linecap:butt;stroke-linejoin:miter;stroke-miterlimit:4;stroke-dasharray:none;stroke-opacity:1"
     id="rect8094"
     width="497.7179"
     height="6.3280725"
     x="6.8020654"
     y="273.13245"
     ry="3.1640363" /></svg>