<?xml version="1.0" encoding="UTF-8" standalone="no"?>
<!-- Generator: Adobe Illustrator 19.0.0, SVG Export Plug-In . SVG Version: 6.00 Build 0)  -->

<svg
   xmlns:dc="http://purl.org/dc/elements/1.1/"
   xmlns:cc="http://creativecommons.org/ns#"
   xmlns:rdf="http://www.w3.org/1999/02/22-rdf-syntax-ns#"
   xmlns:svg="http://www.w3.org/2000/svg"
   xmlns="http://www.w3.org/2000/svg"
   xmlns:sodipodi="http://sodipodi.sourceforge.net/DTD/sodipodi-0.dtd"
   xmlns:inkscape="http://www.inkscape.org/namespaces/inkscape"
   version="1.1"
   id="Capa_1"
   x="0px"
   y="0px"
   viewBox="0 0 469.333 469.333"
   style="enable-background:new 0 0 469.333 469.333;"
   xml:space="preserve"
   inkscape:version="0.91 r13725"
   sodipodi:docname="boat_grey.svg"><metadata
     id="metadata47"><rdf:RDF><cc:Work
         rdf:about=""><dc:format>image/svg+xml</dc:format><dc:type
           rdf:resource="http://purl.org/dc/dcmitype/StillImage" /><dc:title></dc:title></cc:Work></rdf:RDF></metadata><defs
     id="defs45" /><sodipodi:namedview
     pagecolor="#ffffff"
     bordercolor="#666666"
     borderopacity="1"
     objecttolerance="10"
     gridtolerance="10"
     guidetolerance="10"
     inkscape:pageopacity="0"
     inkscape:pageshadow="2"
     inkscape:window-width="1920"
     inkscape:window-height="1017"
     id="namedview43"
     showgrid="false"
     inkscape:zoom="0.50284126"
     inkscape:cx="234.6665"
     inkscape:cy="234.6665"
     inkscape:window-x="-8"
     inkscape:window-y="-8"
     inkscape:window-maximized="1"
     inkscape:current-layer="Capa_1" /><g
     id="g3"
     style="fill:#ebebeb;fill-opacity:1"><g
       id="g5"
       style="fill:#ebebeb;fill-opacity:1"><g
         id="g7"
         style="fill:#ebebeb;fill-opacity:1"><path
           d="M62.825,384h1.173c34.133,0,64.533-18.773,85.333-42.667c20.8,23.893,51.2,42.667,85.333,42.667     s64.533-18.773,85.333-42.667C340.905,365.227,371.092,384,405.332,384h1.173l40.427-142.613c1.813-5.44,1.28-11.413-1.28-16.533     c-2.667-5.12-7.253-8.96-12.8-10.56l-27.52-9.067v-98.56c0-23.573-19.093-42.667-42.667-42.667h-64V0h-128v64h-64     c-23.573,0-42.667,19.093-42.667,42.667v98.56l-27.413,8.96c-5.547,1.707-10.133,5.44-12.8,10.56     c-2.667,5.12-3.093,11.093-1.28,16.533L62.825,384z M106.665,106.667h256v84.587l-128-41.92l-128,41.92V106.667z"
           id="path9"
           style="fill:#ebebeb;fill-opacity:1" /><path
           d="M319.998,398.4c-52.053,36.48-118.613,36.48-170.667,0c-26.027,18.24-55.68,28.267-85.333,28.267H21.332v42.667h42.667     c29.333,0,58.453-7.36,85.333-21.227c53.76,27.627,116.907,27.627,170.667,0c26.88,13.76,56,21.227,85.333,21.227h42.667v-42.667     h-42.667C375.678,426.667,346.025,416.64,319.998,398.4z"
           id="path11"
           style="fill:#ebebeb;fill-opacity:1" /></g></g></g><g
     id="g13" /><g
     id="g15" /><g
     id="g17" /><g
     id="g19" /><g
     id="g21" /><g
     id="g23" /><g
     id="g25" /><g
     id="g27" /><g
     id="g29" /><g
     id="g31" /><g
     id="g33" /><g
     id="g35" /><g
     id="g37" /><g
     id="g39" /><g
     id="g41" /></svg>