<?xml version="1.0" encoding="UTF-8" standalone="no"?>
<!-- Generator: Adobe Illustrator 18.0.0, SVG Export Plug-In . SVG Version: 6.00 Build 0)  -->

<svg
   xmlns:dc="http://purl.org/dc/elements/1.1/"
   xmlns:cc="http://creativecommons.org/ns#"
   xmlns:rdf="http://www.w3.org/1999/02/22-rdf-syntax-ns#"
   xmlns:svg="http://www.w3.org/2000/svg"
   xmlns="http://www.w3.org/2000/svg"
   xmlns:sodipodi="http://sodipodi.sourceforge.net/DTD/sodipodi-0.dtd"
   xmlns:inkscape="http://www.inkscape.org/namespaces/inkscape"
   version="1.1"
   id="Capa_1"
   x="0px"
   y="0px"
   viewBox="0 0 112.197 112.197"
   xml:space="preserve"
   inkscape:version="0.91 r13725"
   sodipodi:docname="cart_twitter.svg"
   width="112.197"
   height="112.197"><metadata
     id="metadata45"><rdf:RDF><cc:Work
         rdf:about=""><dc:format>image/svg+xml</dc:format><dc:type
           rdf:resource="http://purl.org/dc/dcmitype/StillImage" /><dc:title /></cc:Work></rdf:RDF></metadata><defs
     id="defs43" /><sodipodi:namedview
     pagecolor="#ffffff"
     bordercolor="#666666"
     borderopacity="1"
     objecttolerance="10"
     gridtolerance="10"
     guidetolerance="10"
     inkscape:pageopacity="0"
     inkscape:pageshadow="2"
     inkscape:window-width="1920"
     inkscape:window-height="1017"
     id="namedview41"
     showgrid="false"
     inkscape:zoom="2.9747178"
     inkscape:cx="145.91049"
     inkscape:cy="-5.5737733"
     inkscape:window-x="1912"
     inkscape:window-y="-8"
     inkscape:window-maximized="1"
     inkscape:current-layer="Capa_1" /><circle
     id="circle5"
     cy="56.098499"
     cx="56.098499"
     style="fill:#a9c8ff;stroke:#a9c8ff;stroke-width:3.862;stroke-miterlimit:4;stroke-dasharray:none;stroke-opacity:1;fill-opacity:1"
     r="54.167332" /><g
     id="g11" /><g
     id="g13" /><g
     id="g15" /><g
     id="g17" /><g
     id="g19" /><g
     id="g21" /><g
     id="g23" /><g
     id="g25" /><g
     id="g27" /><g
     id="g29" /><g
     id="g31" /><g
     id="g33" /><g
     id="g35" /><g
     id="g37" /><g
     id="g39" /><g
     id="g8088"
     transform="matrix(0.90434259,0,0,0.90434259,5.624629,6.9153324)"
     style="fill:#ffffff;fill-opacity:1"><path
       sodipodi:nodetypes="cccccccccccccccccccccccccccccccccccccc"
       inkscape:connector-curvature="0"
       id="path8092"
       d="m 77.653346,23.099363 c -5.673926,0.01266 -10.997884,5.473545 -9.853896,11.258798 0.815582,6.703687 5.835525,11.891182 11.13927,15.595302 1.972398,1.429978 4.694082,2.98236 4.392599,5.834045 0.02817,0.750221 -0.404761,1.785568 -1.173715,0.932696 -2.402876,-2.40871 -5.436752,-4.116538 -7.728609,-6.640859 -4.007058,-3.853765 -8.419231,-7.649377 -13.755433,-9.478188 -3.386258,-0.950991 -6.965678,-0.449046 -10.426316,-0.319707 -5.185933,0.378122 -10.109851,2.322993 -14.430632,5.156205 -1.8629,1.046211 -4.267932,2.393822 -4.56214,4.71246 0.819345,0.930507 -0.881083,1.020555 -1.432559,1.604087 -0.909307,0.551864 -1.939807,1.756337 -0.744561,2.549102 1.69298,1.231172 3.999124,0.818505 5.852583,1.72829 1.740207,0.419353 1.243703,0.971145 -0.221953,1.10362 -5.061022,0.843559 -10.108207,-1.216083 -14.906597,-2.652381 -1.875252,-0.786316 -3.908361,-2.849023 -6.088678,-1.978529 -1.146928,0.647249 -0.402825,2.117358 0.223183,2.718785 -1.418533,1.499967 0.192881,3.674746 1.077575,5.019848 1.651042,2.687399 4.288368,5.307106 6.517442,7.046839 -3.149601,0.375352 -6.986388,1.78442 -7.7684,5.235909 0.203883,2.229928 3.145517,2.322804 4.813519,2.429811 6.107034,0.430064 12.082968,2.32271 18.253255,1.677615 7.375939,-0.53371 14.793278,-1.600975 22.093445,-0.494384 8.570553,0.904506 17.212284,1.694028 25.822085,0.898589 4.076407,0.11503 9.145735,0.859038 12.28681,-2.448249 1.36063,-1.974067 -0.84122,-4.011756 -2.43904,-4.942025 -0.737148,-1.529732 0.90107,-2.98971 1.1688,-4.497489 1.53939,-4.36667 0.76383,-9.547893 -2.540499,-12.922541 -4.080348,-4.555797 -9.643385,-7.493542 -13.566264,-12.226547 -1.404712,-1.707532 -3.023473,-3.900879 -2.731695,-6.187043 0.670163,-0.763807 1.520053,-0.645495 1.948188,-0.0782 0.912825,0.445613 2.383467,2.53282 3.560706,2.470507 0.14412,-1.031466 0.776493,-1.642584 1.609022,-2.151299 0.698019,-0.315861 1.743628,-0.95666 2.580476,-0.284902 0.306144,-1.10747 1.091244,-1.432738 1.406084,-2.635541 -1.02588,-4.613513 -5.627061,-8.215099 -10.374055,-8.034624 z m 6.298571,8.012233 c 3.314388,5.312964 -0.522904,-1.099123 0,0 z"
       style="fill:#ffffff;fill-opacity:1;fill-rule:evenodd;stroke:none;stroke-width:2.30281472;stroke-linecap:butt;stroke-linejoin:miter;stroke-miterlimit:4;stroke-dasharray:none;stroke-opacity:1" /><path
       sodipodi:nodetypes="ccccccccc"
       inkscape:connector-curvature="0"
       id="path8067"
       d="m 80.392204,33.907275 c 0,-1.14968 1.013272,-3.065828 1.013272,-3.065828 0.430636,-0.629583 1.110987,0.256332 2.073592,0.0098 1.217271,-1.1621 1.495571,-1.551407 2.684634,-0.04646 0.612307,0.926583 0.285858,1.735529 0.564506,3.295819 0.253321,1.28655 2.873335,6.885558 3.337939,7.612679 0.152002,0.629582 0.651738,1.0095 -0.2602,0.763144 -1.089266,-0.38321 -6.145944,-4.95606 -7.387198,-6.16049 -1.215927,-1.122311 -1.975878,-1.998267 -2.026545,-2.408861 z"
       style="fill:#ffffff;fill-opacity:1;fill-rule:evenodd;stroke:none;stroke-width:9.44900036;stroke-linecap:butt;stroke-linejoin:miter;stroke-miterlimit:4;stroke-dasharray:none;stroke-opacity:1" /></g></svg>