<?xml version="1.0" encoding="UTF-8" standalone="no"?>
<!-- Generator: Adobe Illustrator 19.0.0, SVG Export Plug-In . SVG Version: 6.00 Build 0)  -->

<svg
   xmlns:dc="http://purl.org/dc/elements/1.1/"
   xmlns:cc="http://creativecommons.org/ns#"
   xmlns:rdf="http://www.w3.org/1999/02/22-rdf-syntax-ns#"
   xmlns:svg="http://www.w3.org/2000/svg"
   xmlns="http://www.w3.org/2000/svg"
   xmlns:sodipodi="http://sodipodi.sourceforge.net/DTD/sodipodi-0.dtd"
   xmlns:inkscape="http://www.inkscape.org/namespaces/inkscape"
   version="1.1"
   id="Layer_1"
   x="0px"
   y="0px"
   viewBox="0 0 512 512"
   style="enable-background:new 0 0 512 512;"
   xml:space="preserve"
   inkscape:version="0.91 r13725"
   sodipodi:docname="chat.svg"><metadata
     id="metadata55"><rdf:RDF><cc:Work
         rdf:about=""><dc:format>image/svg+xml</dc:format><dc:type
           rdf:resource="http://purl.org/dc/dcmitype/StillImage" /></cc:Work></rdf:RDF></metadata><defs
     id="defs53" /><sodipodi:namedview
     pagecolor="#ffffff"
     bordercolor="#666666"
     borderopacity="1"
     objecttolerance="10"
     gridtolerance="10"
     guidetolerance="10"
     inkscape:pageopacity="0"
     inkscape:pageshadow="2"
     inkscape:window-width="1920"
     inkscape:window-height="1017"
     id="namedview51"
     showgrid="false"
     inkscape:zoom="0.4609375"
     inkscape:cx="-70.716559"
     inkscape:cy="280.6558"
     inkscape:window-x="-8"
     inkscape:window-y="-8"
     inkscape:window-maximized="1"
     inkscape:current-layer="Layer_1" /><path
     style="fill:#78D0E8;"
     d="M165.064,432.6l202.232-305.192l144.216,144.211C511.823,266.451,512,261.246,512,256  C512,114.615,397.385,0,256,0S0,114.615,0,256c0,137.423,108.285,249.542,244.182,255.718L165.064,432.6z"
     id="path3" /><path
     style="fill:#78d0e8;fill-opacity:1"
     d="m 154.32556,430.93652 81.57033,80.27751 c 4.03944,0.18061 8.0995,0.28615 12.18431,0.28615 140.35874,0 255.10754,-107.82949 263.4318,-243.90393 L 362.82591,121.27176 154.32556,430.93652 Z"
     id="path5"
     inkscape:connector-curvature="0" /><g
     id="g8128"
     transform="matrix(1.6574552,0,0,1.6574552,-1067.2673,209.19628)"><circle
       id="circle9"
       r="87.5"
       cy="28.238302"
       cx="798.37286"
       style="fill:#e6e5e5" /><path
       style="fill:#333333"
       d="m 758.94088,40.426305 c 0,21.776 17.656,39.432 39.432,39.432 21.776,0 39.432,-17.656 39.432,-39.432 l -78.864,0 0,0 z"
       id="path13"
       inkscape:connector-curvature="0" /><circle
       style="fill:#333333"
       cx="767.18286"
       cy="3.3483021"
       r="15.232"
       id="circle15" /><circle
       style="fill:#333333"
       cx="829.56287"
       cy="3.3483021"
       r="15.232"
       id="circle17" /></g><g
     id="g21" /><g
     id="g23" /><g
     id="g25" /><g
     id="g27" /><g
     id="g29" /><g
     id="g31" /><g
     id="g33" /><g
     id="g35" /><g
     id="g37" /><g
     id="g39" /><g
     id="g41" /><g
     id="g43" /><g
     id="g45" /><g
     id="g47" /><g
     id="g49" /></svg>