<?xml version="1.0" encoding="UTF-8" standalone="no"?>
<!-- Created with Inkscape (http://www.inkscape.org/) -->

<svg
   xmlns:dc="http://purl.org/dc/elements/1.1/"
   xmlns:cc="http://creativecommons.org/ns#"
   xmlns:rdf="http://www.w3.org/1999/02/22-rdf-syntax-ns#"
   xmlns:svg="http://www.w3.org/2000/svg"
   xmlns="http://www.w3.org/2000/svg"
   xmlns:sodipodi="http://sodipodi.sourceforge.net/DTD/sodipodi-0.dtd"
   xmlns:inkscape="http://www.inkscape.org/namespaces/inkscape"
   version="1.1"
   id="svg815"
   width="300"
   height="300"
   viewBox="0 0 300 300"
   sodipodi:docname="crt_reportproblem.svg"
   inkscape:version="0.92.2 (5c3e80d, 2017-08-06)">
  <metadata
     id="metadata821">
    <rdf:RDF>
      <cc:Work
         rdf:about="">
        <dc:format>image/svg+xml</dc:format>
        <dc:type
           rdf:resource="http://purl.org/dc/dcmitype/StillImage" />
        <dc:title />
      </cc:Work>
    </rdf:RDF>
  </metadata>
  <defs
     id="defs819" />
  <sodipodi:namedview
     pagecolor="#ffffff"
     bordercolor="#666666"
     borderopacity="1"
     objecttolerance="10"
     gridtolerance="10"
     guidetolerance="10"
     inkscape:pageopacity="0"
     inkscape:pageshadow="2"
     inkscape:window-width="1920"
     inkscape:window-height="1017"
     id="namedview817"
     showgrid="false"
     inkscape:zoom="2.1439737"
     inkscape:cx="88.716338"
     inkscape:cy="176.15263"
     inkscape:window-x="-8"
     inkscape:window-y="-8"
     inkscape:window-maximized="1"
     inkscape:current-layer="svg815" />
  <path
     style="fill:#ffffff;stroke-width:0.15332039;fill-opacity:1"
     d="m 43.242175,226.91902 c -2.891255,-0.7011 -5.168749,-3.11956 -6.016667,-6.38904 -0.361347,-1.39333 -0.400623,-4.22178 -0.07756,-5.58612 0.980558,-4.14117 4.375648,-6.98075 8.346413,-6.98075 1.64179,0 3.339751,0.62066 4.452888,1.62765 l 0.597348,0.5404 0.15334,-0.5854 c 0.08437,-0.32197 0.199109,-0.77526 0.255049,-1.00731 0.09378,-0.38888 0.160374,-0.42191 0.851184,-0.42191 h 0.749486 v 3.46084 3.46084 l -0.642627,-0.0471 c -0.614301,-0.0452 -0.656494,-0.0812 -0.957613,-0.81919 -1.183093,-2.89966 -2.927405,-4.45237 -5.207693,-4.63566 -3.888475,-0.31255 -6.452709,3.21157 -6.165257,8.47313 0.150414,2.75335 0.755307,4.45335 2.066341,5.80738 1.734051,1.79091 4.265381,2.2184 6.542053,1.10484 1.42648,-0.69771 2.623791,-2.37436 3.080334,-4.31351 l 0.267964,-1.13819 h 0.738074 c 0.693115,0 0.738073,0.0244 0.738073,0.39978 0,0.68068 -0.460491,2.23828 -0.969486,3.27927 -0.93593,1.91416 -2.839283,3.37655 -4.975239,3.82257 -1.051567,0.21959 -2.803573,0.19556 -3.826383,-0.0525 z m 69.231975,-0.0119 c -1.03982,-0.29225 -1.67007,-0.67896 -2.36905,-1.4537 -0.80261,-0.88958 -1.05892,-1.58558 -1.07386,-2.916 -0.0232,-2.06036 0.96765,-3.45943 3.31555,-4.68193 0.61095,-0.31808 1.13663,-0.59988 1.16818,-0.62619 0.0316,-0.0263 -0.1274,-0.26772 -0.35323,-0.53646 -0.22583,-0.26875 -0.59504,-0.84125 -0.8205,-1.27223 -0.55342,-1.05798 -0.58905,-2.90149 -0.0748,-3.87173 0.47424,-0.89481 1.62099,-1.85458 2.54374,-2.12896 2.20092,-0.65449 4.31575,0.12142 5.11888,1.87807 0.43928,0.9608 0.43326,2.03064 -0.0168,2.97331 -0.34695,0.72678 -1.41714,1.78751 -2.38271,2.36163 -0.42445,0.25238 -0.77308,0.49499 -0.77476,0.53916 -0.002,0.0442 0.34367,0.45839 0.76745,0.92053 0.73836,0.80521 2.2487,2.72626 2.77329,3.52748 l 0.24961,0.38123 0.31816,-0.38355 c 0.3599,-0.43387 1.65339,-2.68376 2.04797,-3.56218 l 0.26063,-0.58026 h -1.06503 -1.06503 v -0.6904 -0.69041 h 2.91113 2.91113 v 0.69041 0.6904 h -1.04155 -1.04156 l -0.7986,1.57259 c -0.43924,0.86493 -1.21198,2.14716 -1.71722,2.8494 l -0.9186,1.27681 0.5646,0.85175 c 1.14255,1.72363 2.2733,1.87071 3.19207,0.4152 0.2345,-0.37146 0.48982,-0.67539 0.56744,-0.67539 0.12154,0 0.71557,0.26906 0.85898,0.38908 0.10154,0.085 -0.72354,1.54752 -1.10447,1.95783 -0.86456,0.93124 -2.42354,1.27511 -3.58387,0.79048 -0.65193,-0.27225 -1.44423,-0.99106 -1.89541,-1.71953 l -0.30964,-0.49995 -0.71446,0.63628 c -0.39299,0.34996 -1.21676,0.87716 -1.83066,1.17156 -0.95483,0.45791 -1.30913,0.54349 -2.45148,0.59214 -0.88896,0.0378 -1.61282,-0.0212 -2.16555,-0.17647 z m 4.35424,-1.89502 c 0.50562,-0.2426 1.18291,-0.67405 1.50511,-0.95878 l 0.5858,-0.51768 -0.64305,-0.99725 c -0.67931,-1.05348 -2.3645,-3.10474 -3.25634,-3.96369 l -0.53124,-0.51166 -0.51553,0.26419 c -2.64073,1.35329 -3.40199,4.25185 -1.60341,6.10494 0.72805,0.75012 1.33693,0.98378 2.62004,1.00548 0.71872,0.0121 1.1199,-0.0807 1.83862,-0.42555 z m -0.39751,-9.02472 c 1.21849,-0.91615 1.7024,-1.70738 1.80284,-2.94775 0.15847,-1.95724 -1.53681,-3.20728 -3.16972,-2.33722 -1.61895,0.86262 -1.56566,3.15893 0.1169,5.03658 0.31622,0.35289 0.60293,0.64631 0.63711,0.65205 0.0342,0.006 0.30997,-0.17591 0.61287,-0.40366 z m 29.80065,10.70818 c -1.09993,-0.50021 -1.31404,-1.05375 -1.48209,-3.83174 -0.24659,-4.07663 -0.38305,-4.21063 -4.36687,-4.28829 l -2.64603,-0.0516 0.0413,3.34967 0.0412,3.34968 1.49387,0.044 1.49388,0.0439 v 0.68485 0.68485 h -4.2135 -4.21348 v -0.6904 -0.69042 h 1.53218 1.53217 v -7.74787 -7.74787 h -1.53217 -1.53218 v -0.69041 -0.6904 l 5.09449,0.003 c 5.35149,0.003 6.38958,0.10069 7.82928,0.7384 0.97406,0.43145 1.85153,1.29265 2.24117,2.1996 0.27976,0.6512 0.33016,1.01074 0.28645,2.04386 -0.0454,1.0734 -0.11911,1.3602 -0.51268,1.99468 -0.56453,0.9101 -1.67622,1.69809 -2.861,2.02794 -0.85813,0.2389 -1.18439,0.50346 -0.62469,0.50659 0.53294,0.003 1.8125,0.731 2.36663,1.34654 0.68633,0.76238 0.84977,1.32615 1.02796,3.54583 0.15786,1.96658 0.37871,2.47044 1.08276,2.47044 0.34072,0 0.54982,-0.13807 0.87127,-0.57533 0.23262,-0.31643 0.43407,-0.59517 0.44764,-0.61943 0.0137,-0.0243 0.20598,0.0386 0.42756,0.13969 0.52182,0.23806 0.50803,0.53659 -0.0647,1.40249 -0.82211,1.24283 -2.37849,1.67664 -3.76054,1.04814 z m -3.45144,-9.76578 c 1.6802,-0.49963 2.57565,-1.94941 2.44061,-3.95148 -0.11956,-1.77309 -0.90997,-2.7044 -2.56134,-3.01799 -0.45195,-0.0858 -1.74311,-0.15605 -2.86925,-0.15605 h -2.04752 v 3.68215 3.68216 h 2.11723 c 1.47,0 2.36273,-0.0729 2.92027,-0.23879 z m 32.50081,9.7797 c -1.03226,-0.3422 -2.01274,-0.97656 -2.50099,-1.61808 -2.64584,-3.47655 -1.63971,-8.76556 2.00974,-10.56468 0.92609,-0.45655 1.14938,-0.5032 2.40319,-0.50206 1.12101,0.002 1.53358,0.0695 2.1831,0.36258 0.8861,0.39976 1.84243,1.34424 2.32986,2.30098 0.3934,0.77216 0.77103,2.33512 0.77406,3.20362 l 0.002,0.65205 h -4.45678 -4.45678 l 0.10043,0.65205 c 0.44742,2.90463 1.7236,4.2524 4.02999,4.25598 1.54161,0.002 2.62081,-0.61772 3.2681,-1.87792 0.26605,-0.51798 0.35594,-0.57534 0.90148,-0.57534 0.58083,0 0.6,0.0157 0.46233,0.37833 -0.88889,2.3411 -2.45033,3.47589 -4.90496,3.56471 -0.95182,0.0344 -1.52915,-0.0281 -2.14504,-0.23222 z m 4.90296,-7.91234 c 0,-1.40331 -1.03669,-3.12868 -2.08876,-3.47637 -0.8478,-0.28016 -1.96529,-0.10971 -2.70815,0.4131 -0.75035,0.52808 -1.43959,1.77046 -1.58326,2.85388 l -0.0966,0.72876 h 3.23839 3.23839 z m 50.93851,7.91186 c -0.34057,-0.16025 -0.80426,-0.51159 -1.03044,-0.78074 -0.77474,-0.92193 -0.87845,-1.66061 -0.87845,-6.25604 v -4.1913 h -0.9959 -0.99593 v -0.6904 -0.69041 h 2.06844 2.06844 l 0.002,4.41092 c 0,2.72843 0.065,4.64225 0.16902,5.01742 0.0925,0.33357 0.39546,0.83412 0.67329,1.11231 0.44033,0.44092 0.60618,0.50583 1.29265,0.50583 1.32295,0 2.46935,-0.81214 3.24859,-2.30135 0.34189,-0.65341 0.36387,-0.86922 0.41027,-4.02737 l 0.049,-3.33695 h -1.08323 -1.08323 v -0.6904 -0.69041 h 2.14504 2.14505 v 5.59995 5.59994 h 1.07252 1.07252 v 0.69042 0.6904 h -2.14504 -2.14505 v -1.4744 -1.4744 l -0.67566,0.91906 c -1.1213,1.52524 -2.22619,2.19681 -3.76643,2.28936 -0.75441,0.0453 -1.14787,-0.011 -1.61635,-0.23144 z m 11.42104,-2.0994 v -2.37805 h 0.66523 c 0.63902,0 0.6722,0.0233 0.84196,0.59065 0.40674,1.35943 1.83934,2.67161 3.19858,2.92973 0.9095,0.17271 2.1479,-0.0748 2.64985,-0.52967 0.42692,-0.38691 0.61871,-1.18807 0.43973,-1.83711 -0.2154,-0.78121 -0.922,-1.22996 -3.00174,-1.90645 -2.00207,-0.65123 -2.60572,-0.91994 -3.39302,-1.51046 -1.03816,-0.77863 -1.37482,-2.39503 -0.77485,-3.7202 0.40764,-0.90036 0.81345,-1.32162 1.74913,-1.81577 0.65284,-0.34476 0.95863,-0.40477 2.06844,-0.40593 1.40032,-0.002 2.13946,0.24287 2.79363,0.92347 0.39214,0.40798 0.57716,0.35802 0.57716,-0.1558 0,-0.68095 0.15365,-0.84732 0.78248,-0.84732 h 0.59648 v 2.14792 2.14793 h -0.61067 c -0.58975,0 -0.6259,-0.0302 -1.05568,-0.88275 -0.78063,-1.5485 -1.66831,-2.20645 -2.99298,-2.21837 -1.34159,-0.0121 -2.23546,0.66465 -2.23546,1.69242 0,1.2036 0.71969,1.74047 3.52654,2.63077 2.14573,0.6806 3.22739,1.31639 3.60967,2.12176 0.8656,1.82354 0.086,3.90628 -1.83642,4.90604 -0.66989,0.3484 -0.97433,0.40651 -2.15884,0.41207 -1.177,0.006 -1.50237,-0.0522 -2.22165,-0.39384 -0.46348,-0.22016 -1.02951,-0.57675 -1.25785,-0.7924 -0.45934,-0.43381 -0.46125,-0.43175 -0.65093,0.69409 -0.0929,0.55147 -0.12206,0.57533 -0.70286,0.57533 h -0.60593 z m 14.87649,2.18915 c -0.71336,-0.24065 -1.44384,-1.01072 -1.66734,-1.75766 -0.12665,-0.42329 -0.18565,-2.01678 -0.18565,-5.01362 v -4.39313 h -1.30235 -1.30235 v -0.69041 -0.6904 h 1.30235 1.30235 v -1.67825 -1.67827 l 0.72778,-0.0945 c 0.40028,-0.052 0.88292,-0.12655 1.07253,-0.16573 0.34233,-0.0707 0.34473,-0.0584 0.34473,1.77273 v 1.844 h 2.06844 2.06844 v 0.6904 0.69041 h -2.06844 -2.06844 v 4.22407 c 0,4.48703 0.0804,5.0741 0.74304,5.42924 0.94563,0.50678 2.07086,-0.0607 2.57481,-1.2985 0.25173,-0.61832 0.32481,-0.68435 0.66581,-0.60154 0.61783,0.15006 0.67979,0.31184 0.4002,1.04493 -0.35254,0.92437 -0.9705,1.69754 -1.68052,2.10259 -0.69511,0.39655 -2.20696,0.52962 -2.99539,0.26362 z M 56.843724,226.66299 c -0.776298,-0.23404 -1.488141,-0.82858 -1.855549,-1.54971 -0.259938,-0.5102 -0.309906,-0.83998 -0.264306,-1.74422 0.04889,-0.96974 0.117469,-1.19151 0.526078,-1.70166 0.860462,-1.07429 2.195514,-1.59553 5.270998,-2.05796 1.679685,-0.25255 1.685997,-0.25843 1.682029,-1.56415 -0.006,-2.11456 -0.707404,-2.87129 -2.659702,-2.87129 -0.878657,0 -2.239899,0.34507 -2.239899,0.56781 0,0.0408 0.137899,0.24973 0.306439,0.46429 0.728725,0.92767 0.03456,2.34322 -1.149137,2.34322 -0.725529,0 -1.455567,-0.68162 -1.455567,-1.35903 0,-1.9988 2.506261,-3.43465 5.587777,-3.2013 1.840169,0.13937 2.870364,0.7422 3.467131,2.02884 0.253756,0.54712 0.284997,1.04121 0.288003,4.55435 0.002,2.16737 0.06703,4.10832 0.144824,4.31324 0.272873,0.71867 1.203613,0.60815 1.616821,-0.19198 0.23526,-0.45554 0.252924,-0.46182 0.620894,-0.22039 0.480781,0.31544 0.47553,0.4006 -0.07404,1.20039 -0.738405,1.07467 -2.040632,1.46427 -3.085645,0.92315 -0.56767,-0.29395 -1.056266,-1.06902 -1.059201,-1.68021 l -0.002,-0.46027 -0.652346,0.70816 c -0.935149,1.01518 -2.070068,1.55265 -3.404647,1.61242 -0.589885,0.0264 -1.313841,-0.0248 -1.608787,-0.1137 z m 3.569911,-1.61071 c 0.630974,-0.31866 1.302167,-0.9448 1.576553,-1.47073 0.142169,-0.27249 0.216143,-0.91678 0.216143,-1.88237 0,-1.44196 -0.006,-1.46675 -0.344734,-1.39446 -0.189611,0.0404 -0.758424,0.15119 -1.264042,0.24603 -1.676289,0.31442 -2.467676,0.60456 -2.957855,1.08444 -0.980146,0.95956 -0.781348,2.92482 0.353151,3.49104 0.4856,0.24237 1.878764,0.19981 2.420784,-0.0739 z m 25.233998,1.64843 c -0.793853,-0.26225 -1.37545,-0.65083 -1.791394,-1.19689 -0.394501,-0.51791 -0.429269,-0.67212 -0.429269,-1.90371 0,-1.26121 0.02745,-1.37488 0.46556,-1.92974 0.720379,-0.91227 2.095558,-1.51456 4.360798,-1.9099 2.766511,-0.48284 2.605335,-0.37714 2.601328,-1.70598 -0.006,-2.12457 -0.704378,-2.88049 -2.659692,-2.88049 -0.900911,0 -2.2399,0.34667 -2.2399,0.57991 0,0.0475 0.109264,0.20723 0.242804,0.35499 0.133552,0.14778 0.280078,0.54686 0.325617,0.88686 0.07244,0.54067 0.02425,0.67685 -0.384241,1.08588 -1.288761,1.29048 -3.130702,-0.29955 -2.266302,-1.95637 0.750869,-1.4392 2.962423,-2.31873 5.371635,-2.13628 1.840169,0.13937 2.870363,0.7422 3.46712,2.02884 0.253767,0.54712 0.285008,1.04121 0.288004,4.55435 0.002,2.16737 0.06703,4.10832 0.144832,4.31324 0.272874,0.71867 1.203604,0.60815 1.616823,-0.19198 0.23526,-0.45554 0.252924,-0.46182 0.620883,-0.22039 0.480781,0.31544 0.475531,0.4006 -0.07404,1.20039 -0.738394,1.07467 -2.040631,1.46427 -3.085635,0.92315 -0.56812,-0.29418 -1.056526,-1.06953 -1.058429,-1.68021 l -9.99e-4,-0.46027 -0.684979,0.72433 c -0.965729,1.02119 -2.005422,1.51279 -3.356685,1.58718 -0.599171,0.033 -1.262228,0.003 -1.473441,-0.0669 z m 3.338398,-1.63904 c 0.662295,-0.27703 1.347897,-0.88987 1.655848,-1.48012 0.142158,-0.27249 0.216143,-0.91678 0.216143,-1.88237 0,-1.44406 -0.006,-1.46674 -0.344734,-1.38737 -0.189611,0.0443 -0.895101,0.18351 -1.567756,0.30919 -1.638304,0.3061 -2.734077,0.85273 -3.051307,1.52215 -0.488165,1.03011 -0.163209,2.48064 0.655542,2.92617 0.534575,0.29091 1.731486,0.28714 2.436264,-0.008 z m 74.148079,0.7369 c -0.2186,-0.56959 -0.71254,-1.8641 -1.09767,-2.87669 -0.38511,-1.01259 -1.17491,-3.08381 -1.7551,-4.6027 l -1.05491,-2.76161 -0.8594,-0.0461 -0.85938,-0.046 v -0.68275 -0.68275 h 3.14097 3.14096 v 0.69041 0.6904 h -1.08892 c -0.80449,0 -1.07153,0.0501 -1.02235,0.19177 1.5037,4.33188 3.09765,8.69075 3.1565,8.63181 0.1668,-0.16702 3.35028,-8.66687 3.27447,-8.74279 -0.0443,-0.0444 -0.48288,-0.0808 -0.97446,-0.0808 h -0.89376 v -0.6904 -0.69041 h 2.52809 2.52809 v 0.69041 0.6904 h -0.73545 -0.73543 l -2.27058,5.67666 -2.27056,5.67666 h -0.87683 -0.87682 z m -95.411943,0.19178 v -0.69042 h 1.072528 1.072517 v -4.90954 -4.90954 h -1.072517 -1.072528 v -0.6904 -0.69041 h 2.145045 2.145046 v 1.55111 1.55111 l 0.675671,-0.91905 c 1.072437,-1.45877 2.183189,-2.16629 3.600961,-2.29374 1.186671,-0.10669 2.107462,0.17677 2.788073,0.85831 0.948264,0.94952 1.055825,1.5952 1.055825,6.33758 v 4.11457 h 1.072527 1.072528 v 0.69042 0.6904 H 79.13688 75.995918 v -0.6904 -0.69042 h 0.995918 0.995907 v -3.61421 c 0,-2.15709 -0.06914,-3.88908 -0.171435,-4.29598 -0.50619,-2.01296 -2.968586,-2.22353 -4.618392,-0.39494 -1.088268,1.20621 -1.103778,1.27275 -1.158064,4.96818 l -0.049,3.33695 h 0.930019 0.930019 v 0.69042 0.6904 h -3.064353 -3.064353 z m 28.498463,0 v -0.69042 h 1.225746 1.225737 v -8.13143 -8.13143 H 97.446376 96.22063 v -0.76712 -0.76711 h 2.298263 2.298257 v 8.89854 8.89855 h 1.14914 1.14913 v 0.69042 0.6904 H 99.668026 96.22063 Z m 55.00511,0.24268 c 0,-0.87011 0.089,-0.9331 1.31874,-0.9331 h 1.13273 v -4.90954 -4.90954 h -1.14913 -1.14913 v -0.6904 -0.69041 h 2.22166 2.22166 v 5.59995 5.59994 h 1.14912 1.14914 v 0.69042 0.6904 h -3.4474 -3.44739 z m 32.02247,-0.23568 v -0.68339 l 1.03421,-0.0454 1.03423,-0.0453 0.0404,-4.87119 0.0404,-4.87119 h -1.07469 -1.07466 v -0.6904 -0.69041 h 2.14505 2.14504 v 1.32547 1.32547 l 0.55181,-0.82685 c 0.9004,-1.34915 1.88829,-1.957 3.20202,-1.97021 1.71514,-0.0172 2.66913,1.95754 1.50756,3.12067 -0.88916,0.89036 -2.50347,0.21653 -2.50347,-1.04496 0,-0.603 -0.11737,-0.65595 -0.73541,-0.33173 -0.62169,0.32613 -1.35426,1.15623 -1.70405,1.93088 -0.28377,0.6285 -0.31203,1.00337 -0.31509,4.18078 l -0.003,3.49037 h 1.22574 1.22575 v 0.69042 0.6904 h -3.3708 -3.37078 z m 19.1522,-0.002 v -0.6852 l 1.64708,-0.0435 1.64709,-0.0435 0.0397,-7.72174 0.0396,-7.72174 -1.97767,0.0506 c -1.71759,0.0439 -2.02292,0.0909 -2.3218,0.35743 -0.40475,0.36087 -0.94314,1.52742 -1.20374,2.6082 -0.48239,2.00044 -0.43855,1.91779 -1.01729,1.91779 h -0.53037 v -3.14518 -3.14517 h 8.12053 8.12054 v 3.14517 3.14518 h -0.53036 c -0.5848,0 -0.49059,0.18642 -1.0809,-2.13872 -0.31603,-1.24488 -0.71754,-2.03823 -1.23966,-2.44949 -0.36206,-0.28516 -0.61263,-0.32134 -2.22594,-0.32134 h -1.81793 v 7.74787 7.74788 h 1.60877 1.60879 v 0.69041 0.6904 h -4.44331 -4.4433 z m 13.9428,0.002 v -0.68339 l 1.03422,-0.0454 1.03422,-0.0453 0.0404,-4.87119 0.0404,-4.87119 h -1.07468 -1.07466 v -0.6904 -0.69041 h 2.14505 2.14504 v 1.32547 1.32547 l 0.55181,-0.82685 c 0.9004,-1.34915 1.88828,-1.957 3.20202,-1.97021 1.71513,-0.0172 2.66912,1.95754 1.50755,3.12067 -0.88915,0.89036 -2.50347,0.21653 -2.50347,-1.04496 0,-0.603 -0.11736,-0.65595 -0.7354,-0.33173 -0.62169,0.32613 -1.35427,1.15623 -1.70405,1.93088 -0.28377,0.6285 -0.31203,1.00337 -0.3151,4.18078 l -0.003,3.49037 h 1.22574 1.22574 v 0.69042 0.6904 h -3.37079 -3.37077 z m -62.45808,-14.81106 c -0.51123,-0.20658 -0.82079,-0.7741 -0.82079,-1.50475 0,-1.60059 2.12142,-2.17874 2.84602,-0.77564 0.72722,1.40816 -0.56976,2.86853 -2.02523,2.28039 z M 0,173.51958 v -20.17515 l 26.774771,0.008 26.77477,0.008 -1.378957,0.50468 c -4.584895,1.67806 -6.804075,3.79981 -6.948087,6.64309 -0.07374,1.45602 0.241132,2.27773 1.226439,3.20061 1.792655,1.67908 5.340323,2.60804 12.29309,3.21897 6.847882,0.60173 9.998083,1.81379 11.221414,4.31754 0.788282,1.61335 0.482704,3.94695 -0.67539,5.15791 -1.689414,1.76652 -5.528922,2.90889 -12.750766,3.79375 -6.528056,0.79983 -10.267027,2.42744 -11.082652,4.82439 -1.099191,3.23025 1.134368,6.06941 6.334257,8.05173 l 1.607433,0.61277 -26.698161,0.005 L 0,193.69587 Z m 212.28325,19.65808 c 3.75028,-1.3643 6.24355,-3.33564 6.81822,-5.39095 0.28508,-1.01957 0.125,-2.51924 -0.35678,-3.34243 -1.35879,-2.32173 -4.48841,-3.50194 -11.67115,-4.4013 -6.06645,-0.75959 -9.66646,-1.79596 -11.51914,-3.31612 -1.47651,-1.21151 -1.9589,-3.62278 -1.08668,-5.43191 0.49839,-1.03375 0.62275,-1.18676 1.52046,-1.87061 1.67605,-1.27679 4.70201,-2.08705 9.32336,-2.49652 7.31165,-0.64783 10.75689,-1.51518 12.6581,-3.18671 1.14012,-1.00237 1.62404,-2.99608 1.05704,-4.35492 -0.81259,-1.9474 -3.64461,-3.80963 -8.14401,-5.3552 l -1.97052,-0.67688 5.51584,-0.003 5.51583,-0.003 2.06844,0.59784 c 3.45381,0.99826 6.43583,2.42552 7.91287,3.78728 0.26501,0.24432 0.6787,0.74986 0.91931,1.12343 0.3899,0.6053 0.43718,0.81394 0.43483,1.91779 -0.002,0.96887 -0.074,1.37222 -0.33071,1.85228 -1.26833,2.37266 -4.91304,3.53678 -13.45623,4.29793 -5.3854,0.47982 -8.14249,1.29803 -9.89035,2.93513 -1.08999,1.02094 -1.43183,1.83868 -1.43375,3.42986 -0.002,1.11709 0.0573,1.4176 0.40909,2.09562 1.19975,2.31246 4.97287,3.70665 12.60041,4.65594 7.77321,0.96742 11.1741,2.44008 11.97057,5.18354 0.53103,1.82914 -0.0362,3.53888 -1.66333,5.0133 -1.09681,0.99389 -3.6621,2.34176 -5.67425,2.98141 l -1.49569,0.47548 -5.70553,-0.008 -5.70551,-0.008 1.37926,-0.50175 z m 35.76074,-0.0999 c 3.36353,-1.28236 5.24785,-2.64353 6.26077,-4.52261 0.35091,-0.65098 0.41352,-0.95294 0.41352,-1.9945 0,-1.03483 -0.0646,-1.35106 -0.41225,-2.01566 -1.20594,-2.30581 -4.89936,-3.72831 -11.68601,-4.50079 -7.32929,-0.83421 -11.52947,-2.38538 -12.63148,-4.66492 -0.45486,-0.94085 -0.56849,-2.43464 -0.2647,-3.4795 0.86708,-2.98213 3.9808,-4.31205 11.82366,-5.05 7.99638,-0.7524 11.43032,-1.86209 12.75739,-4.12259 0.36812,-0.62705 0.41932,-0.87352 0.41932,-2.01836 0,-1.11048 -0.0622,-1.43099 -0.4192,-2.15882 -0.96441,-1.9664 -3.10573,-3.50465 -6.62881,-4.76199 l -1.22574,-0.43745 26.77477,-0.003 26.77477,-0.003 v 20.17517 20.17515 l -26.77477,-0.005 -26.77477,-0.005 1.59353,-0.60754 z M 0,105.09776 V 62.834566 L 1.3406519,62.435471 C 14.147617,58.623034 25.562671,53.063754 39.530135,43.836682 c 4.862589,-3.21229 7.57284,-5.103529 15.858012,-11.065897 6.855396,-4.933429 9.764866,-6.944584 12.97815,-8.971088 C 88.659703,11.001363 110.84873,3.182501 133.91215,0.70297394 139.80978,0.06892558 141.45257,-0.00216858 150.15321,4.8719882e-5 159.27146,0.00205572 161.09978,0.09827222 168.00305,0.93612186 193.71744,4.0571318 218.08511,13.765619 240.19229,29.697532 c 13.32105,9.60003 19.19742,13.662852 24.94359,17.245602 10.86807,6.776259 20.96386,11.583041 30.88047,14.702766 1.47471,0.463949 2.97434,0.921626 3.33248,1.01708 L 300,62.836532 v 42.262188 42.26221 h -26.81071 -26.81074 l 0.6137,-0.80548 c 0.81596,-1.07092 2.17997,-3.84853 2.73115,-5.56159 1.13676,-3.53294 1.58724,-6.34592 1.59703,-9.97251 0.0148,-5.41542 -0.98773,-9.66109 -3.47733,-14.72863 -2.56337,-5.21772 -7.08074,-11.21788 -12.65229,-16.805281 -2.75004,-2.757874 -5.14147,-4.853165 -11.11012,-9.734292 -6.78764,-5.550913 -9.34433,-7.809903 -13.10479,-11.578917 -4.2809,-4.290632 -6.79177,-7.52036 -8.27191,-10.640166 -1.07554,-2.267007 -1.28831,-3.180355 -1.29439,-5.556421 -0.005,-1.953113 0.006,-2.020595 0.49848,-3.022023 0.5771,-1.173847 1.55006,-2.122913 2.45455,-2.394266 0.91076,-0.27323 2.36926,-0.221731 3.25403,0.114908 1.19586,0.455009 1.99987,1.227363 3.34243,3.210916 1.47357,2.17704 2.86097,3.520866 4.57719,4.433402 0.67448,0.358621 1.29278,0.652048 1.37397,0.652048 0.0845,0 0.11907,-0.345207 0.0809,-0.806677 -0.12102,-1.461233 0.11753,-1.938686 1.92551,-3.853964 2.46435,-2.610599 3.2931,-4.237367 2.91823,-5.728157 -0.16584,-0.659452 -0.55385,-1.146717 -1.63974,-2.059172 -0.40503,-0.340331 -0.4811,-0.510802 -0.4811,-1.078181 0,-0.849448 0.31119,-1.299049 1.0532,-1.521652 0.83675,-0.251037 1.40129,0.08849 2.16792,1.304025 1.03694,1.644095 2.64673,2.910436 4.78419,3.763486 1.55339,0.619942 2.17198,0.714694 2.64398,0.405004 0.47968,-0.314707 0.47833,-0.59203 -0.01,-2.057828 -2.40618,-7.223592 -8.36241,-13.127699 -15.64324,-15.506403 -6.05689,-1.978838 -13.23238,-1.48454 -18.75306,1.291834 -7.28307,3.662684 -11.52156,10.58069 -11.89762,19.419151 -0.27509,6.464823 2.14029,12.83656 7.31852,19.306189 1.601,2.000268 4.58002,5.026164 7.57505,7.694242 4.56628,4.067808 10.8013,10.433856 14.18715,14.485325 6.53903,7.8245 10.15672,15.55817 8.94443,19.12081 -0.6963,2.04625 -2.78589,2.97114 -5.35124,2.36851 -3.16223,-0.74285 -6.65261,-3.14582 -10.97267,-7.55426 -2.51928,-2.57082 -3.8831,-4.16185 -7.34211,-8.56526 -3.95531,-5.03521 -5.57444,-6.882658 -8.73522,-9.967006 -7.45125,-7.271069 -17.30292,-12.643625 -28.11543,-15.332611 -2.54466,-0.632835 -5.74762,-1.207166 -8.81001,-1.579733 -2.78564,-0.338897 -11.91287,-0.387667 -14.7855,-0.07896 -13.3439,1.433813 -24.50187,5.378817 -35.13641,12.422837 -3.445947,2.282508 -9.009884,6.71566 -10.859391,8.652389 -0.651775,0.682524 -1.004905,1.539884 -0.827107,2.008164 0.205733,0.54183 0.476793,0.70353 1.848856,1.10297 1.558698,0.45376 1.996574,0.82616 1.996574,1.69803 0,0.86163 -0.359573,1.16799 -2.232396,1.90205 -4.953717,1.94161 -8.610749,3.98594 -9.647516,5.3931 -0.406025,0.55106 -0.4857,1.29615 -0.181105,1.69342 0.412147,0.53752 0.808171,0.59393 4.11583,0.58629 7.055577,-0.0164 11.938987,1.46816 16.350475,4.97029 l 0.97426,0.77342 -0.5146,0.26342 c -1.85861,0.95144 -7.011483,2.44416 -10.243915,2.96756 -3.773299,0.61096 -9.30636,0.74206 -13.221626,0.31326 -4.487014,-0.49142 -11.33659,-2.10845 -16.579193,-3.914 -6.120799,-2.10798 -10.23223,-4.16995 -14.632275,-7.33835 -0.463485,-0.33375 -0.994304,-0.65001 -1.179596,-0.70282 -0.443066,-0.12624 -0.965448,0.39132 -0.965448,0.95653 0,1.04658 1.744772,3.49293 4.299618,6.02849 1.939333,1.9247 2.164293,2.22689 2.032736,2.73064 -0.208007,0.79648 -1.472349,0.62888 -3.922933,-0.52002 -2.259508,-1.05931 -2.732563,-1.1614 -3.080023,-0.66468 -0.34284,0.49015 -0.3172,0.71952 0.212656,1.90205 1.384288,3.08946 4.936805,8.26967 8.466448,12.34559 4.020331,4.64257 9.19971,9.2139 14.109903,12.45343 l 1.357415,0.89557 H 35.256808 0 Z M 236.07935,83.535779 c 0.3213,-0.471864 0.35688,-0.666465 0.29782,-1.628173 -0.0719,-1.170766 -0.10843,-1.25398 -1.67548,-3.817293 -2.46507,-4.032281 -3.41476,-6.134716 -3.88666,-8.60442 -0.34104,-1.784869 -0.26849,-4.610897 0.14737,-5.740648 0.0563,-0.153054 -0.14807,-0.384306 -0.61025,-0.690404 -0.85016,-0.563064 -1.66254,-1.523879 -2.07184,-2.450411 -0.16879,-0.382128 -0.34045,-0.694768 -0.38143,-0.694768 -0.0409,0 -0.41261,0.171545 -0.82584,0.381215 -1.16224,0.589753 -2.69895,1.137788 -4.29469,1.531635 -1.88669,0.465654 -1.96235,0.500067 -2.22733,1.013167 -0.32639,0.632042 -0.2752,1.896126 0.14379,3.550093 0.49364,1.948548 1.003,2.906814 2.22548,4.1868 1.1997,1.256178 2.13901,2.55928 3.15178,4.372572 1.69091,3.027442 4.05403,5.85951 6.28237,7.529048 1.14794,0.860063 2.76778,1.706712 3.13557,1.638888 0.12345,-0.02277 0.38865,-0.28254 0.58934,-0.577301 z"
     id="path4514"
     inkscape:connector-curvature="0" />
  <rect
     style="fill:#ffffff;fill-opacity:1;stroke:#ffffff;stroke-width:0.99296904;stroke-opacity:0.02512566"
     id="rect4516"
     width="299.00296"
     height="104.786"
     x="0.49851865"
     y="194.71548"
     ry="0" />
  <g
     transform="matrix(1.0775202,0,0,1.0775202,-9.4957594,-22.861643)"
     id="g4580">
    <g
       id="g4599"
       transform="translate(-5.8945316)">
      <flowRoot
         xml:space="preserve"
         id="flowRoot4526"
         style="font-style:normal;font-weight:normal;font-size:40px;line-height:1.25;font-family:sans-serif;letter-spacing:0px;word-spacing:0px;fill:#000000;fill-opacity:1;stroke:none"
         transform="matrix(1.0487481,0,0,1.0487481,70.46085,-117.51666)"><flowRegion
           id="flowRegion4528"><rect
             id="rect4530"
             width="272.42413"
             height="71.898865"
             x="11.213585"
             y="305.93661" /></flowRegion><flowPara
           style="font-style:normal;font-variant:normal;font-weight:bold;font-stretch:normal;font-size:45.76885605px;font-family:'Times New Roman';-inkscape-font-specification:'Times New Roman,  Bold'"
           id="flowPara4534">Report</flowPara></flowRoot>      <flowRoot
         xml:space="preserve"
         id="flowRoot4526-6"
         style="font-style:normal;font-weight:normal;font-size:40px;line-height:1.25;font-family:sans-serif;letter-spacing:0px;word-spacing:0px;fill:#000000;fill-opacity:1;stroke:none"
         transform="matrix(1.0487481,0,0,1.0487481,54.62882,-69.201194)"><flowRegion
           id="flowRegion4528-9"><rect
             id="rect4530-2"
             width="272.42413"
             height="71.898865"
             x="11.213585"
             y="305.93661" /></flowRegion><flowPara
           style="font-style:normal;font-variant:normal;font-weight:bold;font-stretch:normal;font-size:45.76885605px;font-family:'Times New Roman';-inkscape-font-specification:'Times New Roman,  Bold'"
           id="flowPara4534-5">Problem</flowPara></flowRoot>    </g>
  </g>
</svg>
