<?xml version="1.0" encoding="UTF-8" standalone="no"?>
<!-- Generator: Adobe Illustrator 19.0.0, SVG Export Plug-In . SVG Version: 6.00 Build 0)  -->

<svg
   xmlns:dc="http://purl.org/dc/elements/1.1/"
   xmlns:cc="http://creativecommons.org/ns#"
   xmlns:rdf="http://www.w3.org/1999/02/22-rdf-syntax-ns#"
   xmlns:svg="http://www.w3.org/2000/svg"
   xmlns="http://www.w3.org/2000/svg"
   xmlns:sodipodi="http://sodipodi.sourceforge.net/DTD/sodipodi-0.dtd"
   xmlns:inkscape="http://www.inkscape.org/namespaces/inkscape"
   version="1.1"
   id="Capa_1"
   x="0px"
   y="0px"
   viewBox="0 0 99.999999 99.999999"
   xml:space="preserve"
   inkscape:version="0.91 r13725"
   sodipodi:docname="favourite_disable.svg"
   width="100"
   height="100"><metadata
     id="metadata39"><rdf:RDF><cc:Work
         rdf:about=""><dc:format>image/svg+xml</dc:format><dc:type
           rdf:resource="http://purl.org/dc/dcmitype/StillImage" /><dc:title /></cc:Work></rdf:RDF></metadata><defs
     id="defs37" /><sodipodi:namedview
     pagecolor="#ffffff"
     bordercolor="#666666"
     borderopacity="1"
     objecttolerance="10"
     gridtolerance="10"
     guidetolerance="10"
     inkscape:pageopacity="0"
     inkscape:pageshadow="2"
     inkscape:window-width="1920"
     inkscape:window-height="1017"
     id="namedview35"
     showgrid="false"
     inkscape:zoom="4.2243184"
     inkscape:cx="-13.412982"
     inkscape:cy="28.825005"
     inkscape:window-x="1912"
     inkscape:window-y="-8"
     inkscape:window-maximized="1"
     inkscape:current-layer="Capa_1" /><g
     id="g5"
     transform="translate(0,44.132999)" /><g
     id="g7"
     transform="translate(0,44.132999)" /><g
     id="g9"
     transform="translate(0,44.132999)" /><g
     id="g11"
     transform="translate(0,44.132999)" /><g
     id="g13"
     transform="translate(0,44.132999)" /><g
     id="g15"
     transform="translate(0,44.132999)" /><g
     id="g17"
     transform="translate(0,44.132999)" /><g
     id="g19"
     transform="translate(0,44.132999)" /><g
     id="g21"
     transform="translate(0,44.132999)" /><g
     id="g23"
     transform="translate(0,44.132999)" /><g
     id="g25"
     transform="translate(0,44.132999)" /><g
     id="g27"
     transform="translate(0,44.132999)" /><g
     id="g29"
     transform="translate(0,44.132999)" /><g
     id="g31"
     transform="translate(0,44.132999)" /><g
     id="g33"
     transform="translate(0,44.132999)" /><g
     id="g8081"
     transform="translate(-0.14181668,0.14089847)"><path
       id="path8123"
       d="M 78.211881,95.538102 50.127508,81.57532 22.114198,95.696326 26.013805,63.182669 4.6365299,39.418741 35.130992,33.286979 49.932416,4.4790541 64.879427,33.203073 95.404483,39.16273 74.14778,63.046908 Z"
       inkscape:transform-center-y="-4.8331708"
       inkscape:transform-center-x="0.039903856"
       style="opacity:1;fill:#ffffff;fill-opacity:1;fill-rule:nonzero;stroke:none;stroke-width:35.56407547;stroke-linecap:butt;stroke-linejoin:miter;stroke-miterlimit:4;stroke-dasharray:none;stroke-opacity:1"
       inkscape:connector-curvature="0" /><path
       style="fill:#adadad;fill-opacity:1;stroke:#adadad;stroke-width:1.00283933;stroke-miterlimit:4;stroke-dasharray:none;stroke-opacity:1"
       inkscape:connector-curvature="0"
       id="path3"
       d="m 20.643454,99.355315 c -0.366802,0 -0.733603,-0.119016 -1.041926,-0.355202 -0.545771,-0.416577 -0.818655,-1.121411 -0.703477,-1.818807 L 24.375247,63.672857 1.1782305,39.94468 C 0.69625102,39.449993 0.52259735,38.711684 0.72991854,38.040325 0.93901276,37.367107 1.4936433,36.87614 2.1616806,36.773854 L 34.216836,31.884648 48.553941,1.3982454 c 0.297694,-0.6360245 0.914343,-1.03772421 1.587697,-1.03772421 l 0,0 c 0.675124,0 1.291774,0.40169971 1.587695,1.03772421 l 14.335335,30.4864026 32.056927,4.889206 c 0.668037,0.102285 1.220896,0.591392 1.431762,1.266471 0.207324,0.671359 0.03544,1.411528 -0.448313,1.904355 l -23.197015,23.731897 5.475425,33.50659 c 0.113405,0.697394 -0.15948,1.402234 -0.703478,1.818811 -0.545771,0.420287 -1.270512,0.47422 -1.86767,0.141339 L 50.141638,83.324527 21.467424,99.143317 c -0.258708,0.141339 -0.542226,0.211998 -0.82397,0.211998 z M 6.223063,39.911204 27.515199,61.694114 c 0.416415,0.425875 0.60779,1.043304 0.508559,1.645853 L 22.996645,94.09603 49.317666,79.575329 c 0.515647,-0.286396 1.130524,-0.286396 1.649715,0 L 77.28486,94.09603 72.259517,63.339967 c -0.09923,-0.602549 0.09214,-1.218117 0.50856,-1.645853 L 94.060212,39.911204 64.636451,35.423698 c -0.577667,-0.08741 -1.075592,-0.46865 -1.334303,-1.017267 L 50.141638,6.4250708 36.981128,34.40829 c -0.25871,0.548618 -0.756637,0.929861 -1.334302,1.017267 L 6.223063,39.911204 Z" /></g></svg>