<?xml version="1.0" encoding="UTF-8" standalone="no"?>
<!-- Generator: Adobe Illustrator 19.0.0, SVG Export Plug-In . SVG Version: 6.00 Build 0)  -->

<svg
   xmlns:dc="http://purl.org/dc/elements/1.1/"
   xmlns:cc="http://creativecommons.org/ns#"
   xmlns:rdf="http://www.w3.org/1999/02/22-rdf-syntax-ns#"
   xmlns:svg="http://www.w3.org/2000/svg"
   xmlns="http://www.w3.org/2000/svg"
   xmlns:sodipodi="http://sodipodi.sourceforge.net/DTD/sodipodi-0.dtd"
   xmlns:inkscape="http://www.inkscape.org/namespaces/inkscape"
   version="1.1"
   id="Capa_1"
   x="0px"
   y="0px"
   viewBox="0 0 99.999999 99.999999"
   xml:space="preserve"
   inkscape:version="0.91 r13725"
   sodipodi:docname="favourite_enable.svg"
   width="100"
   height="100"><metadata
     id="metadata39"><rdf:RDF><cc:Work
         rdf:about=""><dc:format>image/svg+xml</dc:format><dc:type
           rdf:resource="http://purl.org/dc/dcmitype/StillImage" /><dc:title /></cc:Work></rdf:RDF></metadata><defs
     id="defs37" /><sodipodi:namedview
     pagecolor="#ffffff"
     bordercolor="#666666"
     borderopacity="1"
     objecttolerance="10"
     gridtolerance="10"
     guidetolerance="10"
     inkscape:pageopacity="0"
     inkscape:pageshadow="2"
     inkscape:window-width="1920"
     inkscape:window-height="1017"
     id="namedview35"
     showgrid="false"
     inkscape:zoom="2.9870442"
     inkscape:cx="103.84506"
     inkscape:cy="-12.958293"
     inkscape:window-x="1912"
     inkscape:window-y="-8"
     inkscape:window-maximized="1"
     inkscape:current-layer="Capa_1" /><path
     inkscape:connector-curvature="0"
     style="opacity:1;fill:#ffe830;fill-opacity:1;fill-rule:nonzero;stroke:none;stroke-width:35.56407547;stroke-linecap:butt;stroke-linejoin:miter;stroke-miterlimit:4;stroke-dasharray:none;stroke-opacity:1"
     inkscape:transform-center-x="0.039790521"
     inkscape:transform-center-y="-4.8195144"
     d="M 78.07119,95.407284 49.986415,81.484155 21.972703,95.565058 25.872367,63.143736 4.494786,39.447296 34.989684,33.332947 49.79132,4.6068332 64.738545,33.249279 95.264038,39.192012 74.00703,63.00836 Z"
     id="path8123" /><path
     d="m 20.501933,99.213658 c -0.366806,0 -0.733612,-0.118684 -1.041941,-0.354198 -0.545778,-0.415394 -0.818667,-1.118227 -0.703487,-1.813643 L 24.23378,63.632529 1.0364315,39.971736 C 0.5544455,39.478454 0.38078877,38.742243 0.58811363,38.07279 0.7972105,37.401484 1.3518488,36.911911 2.0198957,36.809916 L 34.07551,31.934596 48.41282,1.53477 c 0.297698,-0.63421818 0.914357,-1.03477718 1.587721,-1.03477718 l 0,0 c 0.675133,0 1.291792,0.400559 1.587717,1.03477718 l 14.33554,30.399826 32.057386,4.87532 c 0.668047,0.101994 1.220912,0.589712 1.431781,1.262874 0.207328,0.669453 0.03544,1.407519 -0.448318,1.898946 l -23.197348,23.664501 5.475504,33.411435 c 0.113407,0.695415 -0.159483,1.398248 -0.703488,1.813643 -0.545779,0.4191 -1.270531,0.472881 -1.867696,0.140937 L 50.000541,83.22839 21.325915,99.002252 c -0.258711,0.140938 -0.542233,0.211406 -0.823982,0.211406 z M 6.0813366,39.938356 27.373778,61.659405 c 0.41642,0.424667 0.607797,1.040341 0.508565,1.641179 L 22.855159,93.969302 49.176556,79.48984 c 0.515654,-0.285583 1.130541,-0.285583 1.649738,0 L 77.144149,93.969302 72.118736,63.300584 c -0.09923,-0.600838 0.09214,-1.214657 0.508565,-1.641179 L 93.919742,39.938356 64.49556,35.463594 c -0.577674,-0.08716 -1.075608,-0.467319 -1.334321,-1.014378 L 50.000541,6.5473199 36.839841,34.451071 c -0.258713,0.547059 -0.756648,0.927218 -1.334321,1.014378 L 6.0813366,39.938356 Z"
     id="path3"
     inkscape:connector-curvature="0"
     style="fill:#014463;fill-opacity:1;stroke:#014463;stroke-width:1.00142157;stroke-miterlimit:4;stroke-dasharray:none;stroke-opacity:1" /><g
     id="g5"
     transform="translate(0,44.132999)" /><g
     id="g7"
     transform="translate(0,44.132999)" /><g
     id="g9"
     transform="translate(0,44.132999)" /><g
     id="g11"
     transform="translate(0,44.132999)" /><g
     id="g13"
     transform="translate(0,44.132999)" /><g
     id="g15"
     transform="translate(0,44.132999)" /><g
     id="g17"
     transform="translate(0,44.132999)" /><g
     id="g19"
     transform="translate(0,44.132999)" /><g
     id="g21"
     transform="translate(0,44.132999)" /><g
     id="g23"
     transform="translate(0,44.132999)" /><g
     id="g25"
     transform="translate(0,44.132999)" /><g
     id="g27"
     transform="translate(0,44.132999)" /><g
     id="g29"
     transform="translate(0,44.132999)" /><g
     id="g31"
     transform="translate(0,44.132999)" /><g
     id="g33"
     transform="translate(0,44.132999)" /></svg>