<?xml version="1.0" encoding="UTF-8" standalone="no"?>
<!-- Generator: Adobe Illustrator 19.0.0, SVG Export Plug-In . SVG Version: 6.00 Build 0)  -->

<svg
   xmlns:dc="http://purl.org/dc/elements/1.1/"
   xmlns:cc="http://creativecommons.org/ns#"
   xmlns:rdf="http://www.w3.org/1999/02/22-rdf-syntax-ns#"
   xmlns:svg="http://www.w3.org/2000/svg"
   xmlns="http://www.w3.org/2000/svg"
   xmlns:sodipodi="http://sodipodi.sourceforge.net/DTD/sodipodi-0.dtd"
   xmlns:inkscape="http://www.inkscape.org/namespaces/inkscape"
   version="1.1"
   id="Layer_1"
   x="0px"
   y="0px"
   viewBox="0 0 508 508"
   xml:space="preserve"
   inkscape:version="0.91 r13725"
   sodipodi:docname="filter_selectone.svg"
   width="508"
   height="508"><metadata
     id="metadata49"><rdf:RDF><cc:Work
         rdf:about=""><dc:format>image/svg+xml</dc:format><dc:type
           rdf:resource="http://purl.org/dc/dcmitype/StillImage" /><dc:title></dc:title></cc:Work></rdf:RDF></metadata><defs
     id="defs47" /><sodipodi:namedview
     pagecolor="#ffffff"
     bordercolor="#666666"
     borderopacity="1"
     objecttolerance="10"
     gridtolerance="10"
     guidetolerance="10"
     inkscape:pageopacity="0"
     inkscape:pageshadow="2"
     inkscape:window-width="1920"
     inkscape:window-height="1017"
     id="namedview45"
     showgrid="false"
     inkscape:zoom="0.16424921"
     inkscape:cx="1029.818"
     inkscape:cy="959.70325"
     inkscape:window-x="1912"
     inkscape:window-y="-8"
     inkscape:window-maximized="1"
     inkscape:current-layer="Layer_1" /><circle
     style="fill:#1bab00;fill-opacity:1"
     cx="254"
     cy="254"
     r="254"
     id="circle3" /><g
     id="g15" /><g
     id="g17" /><g
     id="g19" /><g
     id="g21" /><g
     id="g23" /><g
     id="g25" /><g
     id="g27" /><g
     id="g29" /><g
     id="g31" /><g
     id="g33" /><g
     id="g35" /><g
     id="g37" /><g
     id="g39" /><g
     id="g41" /><g
     id="g43" /><g
     id="g12830"
     transform="matrix(0.65554371,0,0,0.65554371,95.413326,95.413507)"><g
       id="g12788"><g
         id="g12790"><path
           id="path12792"
           d="m 469.535,27.155 -2.432,-2.432 C 458.527,16.178 446.91,11.539 434.847,11.795 422.784,12.02 411.356,17.202 403.164,26.1 l -247.392,269.855 -4.864,2.079 -4.736,-2.176 -61.379,-71.68 C 75.9,213.841 63.161,207.666 49.532,207.123 c -13.635,-0.543 -26.88,4.669 -36.511,14.269 -15.36,15.391 -17.377,39.613 -4.736,57.313 l 126.623,177.311 c 7.199,10.081 18.816,16.031 31.201,16.031 l 11.039,0 c 20.833,0 40.32,-10.173 52.127,-27.295 L 475.162,89.619 c 13.445,-19.425 11.013,-45.732 -5.627,-62.464 z"
           inkscape:connector-curvature="0"
           style="fill:#ffffff" /></g></g><g
       id="g12794" /><g
       id="g12796" /><g
       id="g12798" /><g
       id="g12800" /><g
       id="g12802" /><g
       id="g12804" /><g
       id="g12806" /><g
       id="g12808" /><g
       id="g12810" /><g
       id="g12812" /><g
       id="g12814" /><g
       id="g12816" /><g
       id="g12818" /><g
       id="g12820" /><g
       id="g12822" /></g></svg>