<?xml version="1.0" encoding="UTF-8" ?>
<!DOCTYPE svg PUBLIC "-//W3C//DTD SVG 1.1//EN" "http://www.w3.org/Graphics/SVG/1.1/DTD/svg11.dtd">
<svg width="491pt" height="491pt" viewBox="0 0 491 491" version="1.1" xmlns="http://www.w3.org/2000/svg">
<g id="#ffffffff">
<path fill="#ffffff" opacity="1.00" d=" M 341.17 126.17 C 343.86 120.62 351.68 118.74 356.64 122.37 C 360.35 124.80 361.20 129.44 362.49 133.36 C 370.48 159.05 378.51 184.72 386.57 210.39 C 387.24 212.82 387.90 215.44 387.08 217.93 C 385.67 223.49 379.30 227.09 373.81 225.32 C 369.89 223.92 367.07 220.69 363.89 218.15 C 356.90 212.37 350.17 206.28 343.01 200.71 C 345.37 211.85 348.10 222.91 350.63 234.01 C 351.15 236.62 351.43 239.50 350.13 241.95 C 347.66 247.23 340.47 249.61 335.39 246.68 C 332.54 244.94 330.36 242.36 327.98 240.06 C 308.86 221.17 289.66 202.35 270.55 183.45 C 266.63 179.88 265.90 173.43 269.22 169.22 C 272.76 164.15 280.76 163.50 285.10 167.92 C 297.39 179.81 309.45 191.95 321.70 203.88 C 319.69 194.24 317.23 184.70 315.17 175.07 C 314.00 170.55 316.13 165.52 320.12 163.15 C 323.82 160.85 328.94 160.95 332.39 163.70 C 340.19 169.83 347.37 176.73 355.34 182.66 C 351.36 168.61 346.69 154.76 342.41 140.80 C 341.00 136.15 338.50 130.85 341.17 126.17 Z" />
<path fill="#ffffff" opacity="1.00" d=" M 233.22 190.23 C 235.91 188.60 238.84 186.84 242.12 187.22 C 247.55 187.49 252.19 192.53 251.94 197.98 C 252.01 201.86 249.57 205.35 246.30 207.28 C 238.20 212.27 230.05 217.20 221.92 222.13 C 221.14 222.74 219.35 223.45 220.33 224.70 C 223.59 230.49 227.20 236.10 230.72 241.74 C 239.83 236.26 248.85 230.61 257.99 225.18 C 262.30 222.46 268.41 223.38 271.65 227.34 C 275.84 231.98 274.63 240.09 269.19 243.23 C 260.14 248.90 250.87 254.22 241.79 259.86 C 245.45 265.90 248.88 272.12 252.91 277.92 C 262.59 272.91 271.47 266.43 281.05 261.21 C 285.30 258.83 291.07 260.16 294.04 263.96 C 296.80 267.26 297.17 272.27 295.01 275.97 C 293.65 278.32 291.28 279.82 289.04 281.22 C 278.06 287.82 267.17 294.56 256.23 301.22 C 253.53 302.88 250.27 304.13 247.08 303.27 C 243.51 302.66 240.98 299.80 239.24 296.84 C 224.88 273.16 210.37 249.58 196.00 225.91 C 192.81 221.18 194.18 214.14 199.11 211.17 C 210.39 204.05 221.91 197.31 233.22 190.23 Z" />
<path fill="#ffffff" opacity="1.00" d=" M 161.43 234.33 C 165.43 230.58 172.42 230.79 176.08 234.91 C 178.33 237.44 179.85 240.49 181.64 243.35 C 194.15 263.86 206.64 284.38 219.21 304.87 C 221.63 308.72 224.76 313.14 223.20 317.94 C 221.77 323.90 214.68 327.37 209.05 325.00 C 185.97 316.04 163.13 306.44 139.96 297.71 C 148.74 312.60 157.94 327.23 166.89 342.02 C 168.97 345.20 169.70 349.42 167.96 352.91 C 165.85 357.85 159.66 360.40 154.66 358.46 C 151.81 357.51 149.84 355.12 148.34 352.64 C 134.00 329.03 119.56 305.49 105.19 281.90 C 102.68 278.19 102.45 272.94 105.27 269.34 C 108.04 265.39 113.54 263.98 117.96 265.82 C 140.98 274.80 163.81 284.28 186.89 293.09 C 177.88 277.85 168.40 262.89 159.34 247.68 C 156.75 243.46 157.62 237.53 161.43 234.33 Z" />
</g>
<g id="#a9c8ffff">
<path fill="#a9c8ff" opacity="1.00" d=" M 236.67 0.00 L 243.57 0.00 C 257.10 3.07 266.18 14.40 274.25 24.82 C 279.51 32.32 285.23 40.00 293.38 44.55 C 296.66 45.36 300.09 44.15 303.31 43.45 C 312.07 41.35 319.54 36.09 327.84 32.81 C 336.76 29.12 346.50 25.58 356.27 27.60 C 364.10 29.18 370.59 34.94 373.92 42.08 C 378.06 50.88 379.44 60.66 380.67 70.21 C 381.32 78.74 382.92 87.41 387.11 94.97 C 389.23 98.28 393.62 98.60 397.12 99.40 C 412.32 101.97 428.43 100.83 442.80 107.22 C 451.79 111.09 458.29 120.16 458.43 130.04 C 458.76 144.21 451.93 157.09 447.05 170.02 C 445.23 175.41 442.31 181.02 443.34 186.84 C 448.03 195.17 456.11 200.90 464.05 205.92 C 474.38 213.16 485.56 221.04 489.99 233.43 C 490.42 237.80 490.43 242.21 490.00 246.58 C 485.65 258.93 474.95 267.26 464.95 274.96 C 458.31 279.50 451.94 284.67 447.35 291.36 C 446.70 292.44 445.83 293.55 445.93 294.89 C 446.37 304.27 450.66 312.84 454.91 321.02 C 459.43 331.10 464.39 341.75 463.58 353.09 C 462.99 362.12 456.82 370.10 448.72 373.84 C 437.54 379.12 424.98 380.06 412.87 381.54 C 407.02 382.46 401.22 384.16 395.99 386.96 C 393.05 388.45 392.43 392.00 391.72 394.89 C 388.83 409.74 389.91 425.33 384.74 439.73 C 382.10 447.22 376.58 454.01 368.95 456.76 C 360.18 460.02 350.58 458.06 341.97 455.26 C 331.45 451.90 321.59 446.74 310.94 443.78 C 308.10 443.14 304.72 442.28 302.19 444.23 C 295.14 449.17 289.74 456.06 285.25 463.33 C 277.94 473.89 269.99 485.28 257.46 489.97 C 252.86 490.44 248.24 490.42 243.64 489.94 C 231.25 485.12 222.81 474.30 215.06 464.02 C 210.70 457.56 205.52 451.55 199.05 447.14 C 197.87 446.37 196.55 445.62 195.09 445.87 C 189.05 446.37 183.17 448.25 177.70 450.79 C 166.99 456.14 156.08 461.86 144.07 463.49 C 135.14 464.76 125.54 461.36 120.09 454.02 C 113.41 445.08 111.89 433.59 110.28 422.86 C 109.50 413.74 108.24 404.40 103.84 396.22 C 102.34 393.07 98.56 392.40 95.51 391.67 C 80.08 388.72 63.76 390.06 49.01 383.99 C 40.95 380.76 34.35 373.65 32.77 364.98 C 30.92 355.23 34.05 345.47 37.37 336.40 C 40.51 327.92 44.50 319.74 46.89 311.00 C 47.49 308.25 48.38 304.98 46.63 302.47 C 41.49 294.93 34.00 289.46 26.32 284.73 C 15.27 277.05 3.03 268.21 0.00 254.23 L 0.00 246.49 C 3.54 233.16 14.73 224.18 25.18 216.17 C 32.62 210.90 40.41 205.17 44.66 196.89 C 44.79 190.61 42.60 184.49 40.20 178.77 C 34.77 167.71 28.81 156.51 27.14 144.14 C 25.80 135.05 29.39 125.28 36.95 119.86 C 45.81 113.44 57.02 111.92 67.56 110.33 C 76.87 109.51 86.43 108.23 94.76 103.69 C 97.54 102.23 98.18 98.87 98.87 96.10 C 101.72 81.85 100.81 66.98 105.21 53.01 C 107.28 46.33 111.15 39.91 117.21 36.17 C 123.17 32.31 130.60 31.61 137.48 32.66 C 152.07 34.94 165.02 42.57 179.06 46.69 C 182.07 47.39 185.71 48.55 188.45 46.46 C 194.06 42.48 198.79 37.30 202.54 31.55 C 208.08 22.99 213.93 14.44 221.59 7.61 C 225.84 3.79 231.16 1.38 236.67 0.00 M 341.17 126.17 C 338.50 130.85 341.00 136.15 342.41 140.80 C 346.69 154.76 351.36 168.61 355.34 182.66 C 347.37 176.73 340.19 169.83 332.39 163.70 C 328.94 160.95 323.82 160.85 320.12 163.15 C 316.13 165.52 314.00 170.55 315.17 175.07 C 317.23 184.70 319.69 194.24 321.70 203.88 C 309.45 191.95 297.39 179.81 285.10 167.92 C 280.76 163.50 272.76 164.15 269.22 169.22 C 265.90 173.43 266.63 179.88 270.55 183.45 C 289.66 202.35 308.86 221.17 327.98 240.06 C 330.36 242.36 332.54 244.94 335.39 246.68 C 340.47 249.61 347.66 247.23 350.13 241.95 C 351.43 239.50 351.15 236.62 350.63 234.01 C 348.10 222.91 345.37 211.85 343.01 200.71 C 350.17 206.28 356.90 212.37 363.89 218.15 C 367.07 220.69 369.89 223.92 373.81 225.32 C 379.30 227.09 385.67 223.49 387.08 217.93 C 387.90 215.44 387.24 212.82 386.57 210.39 C 378.51 184.72 370.48 159.05 362.49 133.36 C 361.20 129.44 360.35 124.80 356.64 122.37 C 351.68 118.74 343.86 120.62 341.17 126.17 M 233.22 190.23 C 221.91 197.31 210.39 204.05 199.11 211.17 C 194.18 214.14 192.81 221.18 196.00 225.91 C 210.37 249.58 224.88 273.16 239.24 296.84 C 240.98 299.80 243.51 302.66 247.08 303.27 C 250.27 304.13 253.53 302.88 256.23 301.22 C 267.17 294.56 278.06 287.82 289.04 281.22 C 291.28 279.82 293.65 278.32 295.01 275.97 C 297.17 272.27 296.80 267.26 294.04 263.96 C 291.07 260.16 285.30 258.83 281.05 261.21 C 271.47 266.43 262.59 272.91 252.91 277.92 C 248.88 272.12 245.45 265.90 241.79 259.86 C 250.87 254.22 260.14 248.90 269.19 243.23 C 274.63 240.09 275.84 231.98 271.65 227.34 C 268.41 223.38 262.30 222.46 257.99 225.18 C 248.85 230.61 239.83 236.26 230.72 241.74 C 227.20 236.10 223.59 230.49 220.33 224.70 C 219.35 223.45 221.14 222.74 221.92 222.13 C 230.05 217.20 238.20 212.27 246.30 207.28 C 249.57 205.35 252.01 201.86 251.94 197.98 C 252.19 192.53 247.55 187.49 242.12 187.22 C 238.84 186.84 235.91 188.60 233.22 190.23 M 161.43 234.33 C 157.62 237.53 156.75 243.46 159.34 247.68 C 168.40 262.89 177.88 277.85 186.89 293.09 C 163.81 284.28 140.98 274.80 117.96 265.82 C 113.54 263.98 108.04 265.39 105.27 269.34 C 102.45 272.94 102.68 278.19 105.19 281.90 C 119.56 305.49 134.00 329.03 148.34 352.64 C 149.84 355.12 151.81 357.51 154.66 358.46 C 159.66 360.40 165.85 357.85 167.96 352.91 C 169.70 349.42 168.97 345.20 166.89 342.02 C 157.94 327.23 148.74 312.60 139.96 297.71 C 163.13 306.44 185.97 316.04 209.05 325.00 C 214.68 327.37 221.77 323.90 223.20 317.94 C 224.76 313.14 221.63 308.72 219.21 304.87 C 206.64 284.38 194.15 263.86 181.64 243.35 C 179.85 240.49 178.33 237.44 176.08 234.91 C 172.42 230.79 165.43 230.58 161.43 234.33 Z" />
</g>
<g id="#cacbcbc5">
<path fill="#cacbcb" opacity="0.77" d=" M 490.00 0.00 L 491.00 0.00 L 491.00 491.00 L 0.00 491.00 L 0.00 489.15 C 1.90 489.99 3.99 490.02 6.03 490.01 C 85.23 489.94 164.44 490.09 243.64 489.94 C 248.24 490.42 252.86 490.44 257.46 489.97 C 334.97 490.02 412.48 490.01 489.98 489.98 C 490.02 408.85 489.99 327.71 490.00 246.58 C 490.43 242.21 490.42 237.80 489.99 233.43 C 490.01 155.62 489.99 77.81 490.00 0.00 Z" />
</g>
</svg>
