<?xml version="1.0" encoding="UTF-8" standalone="no"?>
<!-- Generator: Adobe Illustrator 19.0.0, SVG Export Plug-In . SVG Version: 6.00 Build 0)  -->

<svg
   xmlns:dc="http://purl.org/dc/elements/1.1/"
   xmlns:cc="http://creativecommons.org/ns#"
   xmlns:rdf="http://www.w3.org/1999/02/22-rdf-syntax-ns#"
   xmlns:svg="http://www.w3.org/2000/svg"
   xmlns="http://www.w3.org/2000/svg"
   xmlns:sodipodi="http://sodipodi.sourceforge.net/DTD/sodipodi-0.dtd"
   xmlns:inkscape="http://www.inkscape.org/namespaces/inkscape"
   version="1.1"
   id="Layer_1"
   x="0px"
   y="0px"
   viewBox="0 0 508 508"
   style="enable-background:new 0 0 508 508;"
   xml:space="preserve"
   inkscape:version="0.91 r13725"
   sodipodi:docname="filter_favourite.svg"><metadata
     id="metadata49"><rdf:RDF><cc:Work
         rdf:about=""><dc:format>image/svg+xml</dc:format><dc:type
           rdf:resource="http://purl.org/dc/dcmitype/StillImage" /><dc:title /></cc:Work></rdf:RDF></metadata><defs
     id="defs47" /><sodipodi:namedview
     pagecolor="#ffffff"
     bordercolor="#666666"
     borderopacity="1"
     objecttolerance="10"
     gridtolerance="10"
     guidetolerance="10"
     inkscape:pageopacity="0"
     inkscape:pageshadow="2"
     inkscape:window-width="1920"
     inkscape:window-height="1017"
     id="namedview45"
     showgrid="false"
     inkscape:zoom="0.46456693"
     inkscape:cx="42.7954"
     inkscape:cy="-64.149195"
     inkscape:window-x="-8"
     inkscape:window-y="-8"
     inkscape:window-maximized="1"
     inkscape:current-layer="Layer_1" /><circle
     style="fill:#a9c8ff;fill-opacity:1"
     cx="254"
     cy="254"
     r="254"
     id="circle3" /><g
     id="g15" /><g
     id="g17" /><g
     id="g19" /><g
     id="g21" /><g
     id="g23" /><g
     id="g25" /><g
     id="g27" /><g
     id="g29" /><g
     id="g31" /><g
     id="g33" /><g
     id="g35" /><g
     id="g37" /><g
     id="g39" /><g
     id="g41" /><g
     id="g43" /><g
     id="g8287"
     transform="matrix(0.91712057,0,0,0.91712057,-5.5998303,9.7652346)"
     style="fill:#ffffff;fill-opacity:1;stroke:#ffffff;stroke-width:19.62664604;stroke-miterlimit:4;stroke-dasharray:none;stroke-opacity:1"><path
       id="path8123"
       d="m 375.94903,406.22975 -92.93691,-46.20412 -92.70177,46.7277 12.90458,-107.59076 -70.74176,-78.63707 100.91239,-20.2906 48.98096,-95.32812 49.46273,95.05048 101.01363,19.72107 -70.3428,79.03501 z"
       inkscape:transform-center-y="-15.788642"
       inkscape:transform-center-x="0.13035787"
       style="opacity:1;fill:#ffffff;fill-opacity:1;fill-rule:nonzero;stroke:#ffffff;stroke-width:19.62664604;stroke-linecap:butt;stroke-linejoin:miter;stroke-miterlimit:4;stroke-dasharray:none;stroke-opacity:1"
       inkscape:connector-curvature="0" /><path
       style="fill:#ffffff;fill-opacity:1;stroke:#ffffff;stroke-width:19.62664604;stroke-miterlimit:4;stroke-dasharray:none;stroke-opacity:1"
       inkscape:connector-curvature="0"
       id="path3"
       d="m 185.44335,418.86128 c -1.21381,0 -2.42763,-0.39386 -3.44793,-1.17541 -1.80607,-1.37847 -2.7091,-3.71084 -2.32799,-6.01859 l 18.1252,-110.88264 -76.76366,-78.51877 c -1.59499,-1.63697 -2.16965,-4.0801 -1.48357,-6.30171 0.69191,-2.22773 2.52732,-3.85238 4.73798,-4.19086 L 230.36046,195.59447 277.80484,94.712058 c 0.98516,-2.10465 3.02576,-3.43391 5.25402,-3.43391 l 0,0 c 2.23412,0 4.27477,1.32926 5.25401,3.43391 l 47.43856,100.882412 106.08295,16.17883 c 2.21065,0.33848 4.04016,1.95697 4.73797,4.19086 0.68606,2.22161 0.11733,4.6709 -1.48355,6.30171 l -76.76366,78.53109 18.11928,110.87649 c 0.3753,2.30773 -0.52772,4.64009 -2.32794,6.01856 -1.80609,1.3908 -4.20439,1.56928 -6.1805,0.46769 l -94.87712,-52.34584 -94.8888,52.34584 c -0.85615,0.46774 -1.79437,0.70158 -2.72671,0.70158 z m -47.72002,-196.7062 70.46005,72.08172 c 1.37797,1.40927 2.01129,3.4524 1.6829,5.44629 l -16.63573,101.77466 87.10161,-48.05035 c 1.7064,-0.94765 3.74114,-0.94765 5.45926,0 l 87.08992,48.05035 -16.62989,-101.77466 c -0.32835,-1.99389 0.30499,-4.03087 1.68293,-5.44629 l 70.46002,-72.08172 -97.36922,-14.84956 c -1.91163,-0.28927 -3.55935,-1.55083 -4.4155,-3.36623 l -43.55082,-92.59298 -43.55082,92.59913 c -0.85611,1.81542 -2.50386,3.077 -4.41546,3.36623 l -97.36925,14.84341 z" /></g></svg>