<?xml version="1.0" encoding="UTF-8" standalone="no"?>
<!-- Generator: Adobe Illustrator 19.0.0, SVG Export Plug-In . SVG Version: 6.00 Build 0)  -->

<svg
   xmlns:dc="http://purl.org/dc/elements/1.1/"
   xmlns:cc="http://creativecommons.org/ns#"
   xmlns:rdf="http://www.w3.org/1999/02/22-rdf-syntax-ns#"
   xmlns:svg="http://www.w3.org/2000/svg"
   xmlns="http://www.w3.org/2000/svg"
   xmlns:sodipodi="http://sodipodi.sourceforge.net/DTD/sodipodi-0.dtd"
   xmlns:inkscape="http://www.inkscape.org/namespaces/inkscape"
   version="1.1"
   id="Layer_1"
   x="0px"
   y="0px"
   viewBox="0 0 508 508"
   xml:space="preserve"
   inkscape:version="0.91 r13725"
   sodipodi:docname="filterpoi_justitems.svg"
   width="508"
   height="508"><metadata
     id="metadata49"><rdf:RDF><cc:Work
         rdf:about=""><dc:format>image/svg+xml</dc:format><dc:type
           rdf:resource="http://purl.org/dc/dcmitype/StillImage" /><dc:title></dc:title></cc:Work></rdf:RDF></metadata><defs
     id="defs47" /><sodipodi:namedview
     pagecolor="#ffffff"
     bordercolor="#666666"
     borderopacity="1"
     objecttolerance="10"
     gridtolerance="10"
     guidetolerance="10"
     inkscape:pageopacity="0"
     inkscape:pageshadow="2"
     inkscape:window-width="1920"
     inkscape:window-height="1017"
     id="namedview45"
     showgrid="false"
     inkscape:zoom="0.65699684"
     inkscape:cx="20.62075"
     inkscape:cy="200.24907"
     inkscape:window-x="1912"
     inkscape:window-y="-8"
     inkscape:window-maximized="1"
     inkscape:current-layer="Layer_1" /><circle
     style="fill:#a9c8ff;fill-opacity:1"
     cx="254"
     cy="254"
     r="254"
     id="circle3" /><g
     id="g8136"
     transform="matrix(0.54832723,0,0,0.54832723,104.2538,118.0848)"><g
       id="g8096"><path
         id="path8098"
         d="M 266.667,0 C 119.391,0 0,37.309 0,83.333 l 0,50 200,200 0,166.667 c 0,18.409 29.847,33.333 66.667,33.333 36.818,0 66.667,-14.924 66.667,-33.333 l 0,-166.667 200,-200 0,-50 C 533.333,37.309 413.942,0 266.667,0 Z M 49.158,72.304 C 61.629,65.19 79.149,58.439 99.824,52.779 145.629,40.239 204.88,33.333 266.667,33.333 c 61.786,0 121.039,6.906 166.843,19.446 20.675,5.66 38.194,12.411 50.666,19.525 8.226,4.69 12.669,8.659 14.738,11.029 -2.069,2.371 -6.514,6.337 -14.738,11.029 -12.472,7.114 -29.991,13.865 -50.666,19.525 -45.803,12.54 -105.056,19.446 -166.843,19.446 -61.787,0 -121.038,-6.906 -166.843,-19.446 C 79.149,108.226 61.629,101.475 49.158,94.362 40.933,89.671 36.489,85.704 34.419,83.333 c 2.07,-2.37 6.514,-6.337 14.739,-11.029 z"
         inkscape:connector-curvature="0"
         style="fill:#ffffff" /></g><g
       id="g8100" /><g
       id="g8102" /><g
       id="g8104" /><g
       id="g8106" /><g
       id="g8108" /><g
       id="g8110" /><g
       id="g8112" /><g
       id="g8114" /><g
       id="g8116" /><g
       id="g8118" /><g
       id="g8120" /><g
       id="g8122" /><g
       id="g8124" /><g
       id="g8126" /><g
       id="g8128" /></g><g
     id="g15" /><g
     id="g17" /><g
     id="g19" /><g
     id="g21" /><g
     id="g23" /><g
     id="g25" /><g
     id="g27" /><g
     id="g29" /><g
     id="g31" /><g
     id="g33" /><g
     id="g35" /><g
     id="g37" /><g
     id="g39" /><g
     id="g41" /><g
     id="g43" /></svg>