<?xml version="1.0" encoding="UTF-8" ?>
<!DOCTYPE svg PUBLIC "-//W3C//DTD SVG 1.1//EN" "http://www.w3.org/Graphics/SVG/1.1/DTD/svg11.dtd">
<svg width="491pt" height="491pt" viewBox="0 0 491 491" version="1.1" xmlns="http://www.w3.org/2000/svg">
<g id="#ffffffff">
</g>
<g id="#a9c8ffff">
<path fill="#a9c8ff" opacity="1.00" d=" M 237.07 0.00 L 243.52 0.00 C 257.81 3.23 267.04 15.51 275.51 26.46 C 280.31 33.79 286.34 40.56 293.98 44.99 C 300.55 44.55 307.00 42.71 312.97 39.97 C 323.48 34.58 334.29 29.09 346.08 27.27 C 355.31 25.80 365.36 29.31 370.85 37.05 C 377.71 46.60 379.02 58.71 380.69 70.02 C 381.18 78.89 383.10 87.82 387.46 95.63 C 389.03 97.66 391.81 98.11 394.15 98.79 C 409.08 101.92 424.78 100.69 439.33 105.78 C 446.36 108.22 452.88 113.01 456.02 119.92 C 459.42 127.13 458.87 135.49 456.90 143.01 C 453.89 155.14 447.89 166.22 444.22 178.12 C 443.45 180.93 442.63 183.90 443.20 186.83 C 448.07 194.79 455.59 200.76 463.51 205.52 C 473.93 212.96 485.59 220.77 489.92 233.48 C 490.39 237.83 490.41 242.23 489.92 246.59 C 485.73 259.01 474.86 267.21 464.96 275.00 C 457.45 279.99 450.30 286.04 445.80 293.97 C 446.20 300.35 447.99 306.61 450.60 312.43 C 456.04 323.13 461.61 334.13 463.43 346.12 C 464.89 355.27 461.43 365.22 453.81 370.72 C 444.32 377.63 432.23 378.95 420.95 380.65 C 412.10 381.18 403.18 383.01 395.34 387.29 C 393.07 388.71 392.62 391.66 391.92 394.04 C 388.70 409.36 390.07 425.56 384.49 440.39 C 381.71 447.92 375.88 454.57 368.10 457.06 C 359.21 460.02 349.70 457.81 341.09 454.97 C 330.67 451.55 320.87 446.41 310.25 443.61 C 307.83 443.21 304.98 442.28 302.79 443.80 C 295.75 448.72 290.06 455.36 285.70 462.72 C 278.18 473.40 270.29 485.33 257.38 489.90 C 252.85 490.41 248.29 490.41 243.77 489.86 C 231.17 485.31 222.87 474.17 214.97 463.98 C 210.31 456.78 204.32 450.31 196.95 445.83 C 188.01 446.04 179.43 449.52 171.71 453.85 C 161.38 458.62 150.59 463.95 138.93 463.67 C 130.06 463.51 121.76 458.10 117.64 450.32 C 112.65 441.00 111.30 430.30 109.91 419.98 C 109.48 412.27 107.81 404.60 104.54 397.59 C 102.53 391.60 95.05 391.83 89.93 390.79 C 77.49 389.11 64.68 389.24 52.62 385.37 C 46.16 383.28 39.98 379.50 36.28 373.68 C 32.37 367.77 31.58 360.32 32.61 353.44 C 34.41 341.67 39.76 330.90 43.94 319.87 C 45.57 315.35 47.42 310.79 47.68 305.94 C 47.98 303.32 45.78 301.47 44.39 299.55 C 39.60 293.59 33.38 289.06 26.88 285.15 C 15.64 277.25 2.82 268.35 0.00 253.91 L 0.00 246.50 C 1.50 242.62 2.71 238.56 5.22 235.16 C 11.01 227.06 19.00 220.89 26.85 214.91 C 33.98 210.21 40.51 204.28 44.88 196.87 C 44.38 190.12 42.50 183.48 39.58 177.39 C 34.70 168.03 30.13 158.36 27.76 148.02 C 25.96 140.17 26.84 131.34 31.92 124.84 C 37.65 117.25 47.18 114.08 56.15 112.27 C 68.50 109.31 81.80 110.36 93.37 104.41 C 97.13 103.40 98.13 99.36 98.88 96.04 C 101.21 84.23 101.01 72.08 103.37 60.26 C 104.96 52.18 107.87 43.77 114.35 38.28 C 120.13 33.21 128.18 31.52 135.68 32.43 C 151.02 34.29 164.52 42.45 179.17 46.71 C 181.77 47.28 184.64 48.23 187.25 47.26 C 194.43 42.53 200.17 35.84 204.51 28.46 C 209.82 20.64 215.38 12.77 222.70 6.68 C 226.81 3.22 231.88 1.20 237.07 0.00 M 340.33 133.99 C 345.40 150.39 350.51 166.78 355.72 183.13 C 347.78 176.83 340.22 170.05 332.38 163.63 C 328.70 160.82 323.21 160.85 319.49 163.58 C 315.88 166.07 314.02 170.86 315.15 175.12 C 317.36 184.74 319.60 194.35 321.79 203.97 C 309.52 191.97 297.37 179.86 285.08 167.88 C 280.75 163.48 272.73 164.17 269.21 169.24 C 265.93 173.42 266.61 179.91 270.53 183.45 C 291.19 203.82 311.87 224.17 332.54 244.53 C 335.78 248.07 341.41 249.00 345.59 246.61 C 349.70 244.56 352.05 239.57 350.82 235.11 C 348.28 223.59 345.45 212.13 342.96 200.60 C 352.07 207.95 360.86 215.71 369.88 223.19 C 373.05 225.93 377.87 226.56 381.60 224.60 C 386.11 222.41 388.58 216.81 387.03 212.01 C 378.33 184.01 369.56 156.02 360.78 128.03 C 359.28 122.75 353.35 119.36 348.04 120.80 C 342.36 122.02 338.59 128.43 340.33 133.99 M 235.69 188.78 C 223.50 196.23 211.27 203.61 199.13 211.13 C 194.19 214.11 192.76 221.26 196.03 225.98 C 210.80 250.17 225.53 274.40 240.37 298.56 C 243.26 303.42 250.23 305.02 254.97 301.94 C 267.02 294.67 279.00 287.28 291.02 279.96 C 295.84 277.27 297.92 270.69 295.24 265.80 C 292.80 260.75 286.04 258.46 281.08 261.13 C 271.61 266.61 262.46 272.63 252.97 278.08 C 249.06 272.20 245.47 266.05 241.85 259.97 C 250.97 253.96 260.63 248.72 269.83 242.81 C 275.25 239.15 275.64 230.41 270.59 226.28 C 267.25 223.19 261.88 222.75 258.03 225.14 C 248.90 230.63 239.84 236.23 230.71 241.73 C 226.95 235.90 223.47 229.90 219.80 224.02 L 220.11 223.31 C 229.19 217.62 238.46 212.22 247.49 206.46 C 252.81 202.96 253.45 194.56 248.79 190.25 C 245.43 186.83 239.73 186.19 235.69 188.78 M 163.13 233.10 C 158.09 235.84 156.29 242.88 159.34 247.72 C 168.51 262.93 177.87 278.02 187.05 293.22 C 163.96 284.23 141.01 274.88 117.95 265.81 C 114.47 264.39 110.26 264.88 107.31 267.25 C 103.07 270.39 101.94 276.79 104.79 281.22 C 119.54 305.45 134.33 329.65 149.13 353.85 C 151.77 358.53 158.15 360.50 162.94 358.04 C 168.30 355.62 170.63 348.41 167.62 343.34 C 158.49 327.94 148.79 312.87 139.82 297.39 C 161.16 306.05 182.60 314.45 203.97 323.01 C 208.01 324.71 212.58 326.96 216.94 324.95 C 222.81 322.83 225.44 315.07 222.15 309.79 C 207.43 285.55 192.61 261.36 177.84 237.15 C 175.12 232.07 168.06 229.99 163.13 233.10 Z" />
</g>
<g id="#cbd2c9df">
<path fill="#cbd2c9" opacity="0.87" d=" M 490.00 0.00 L 491.00 0.00 L 491.00 491.00 L 0.00 491.00 L 0.00 491.00 C 1.27 490.42 2.59 490.08 3.97 490.01 C 59.64 490.01 115.32 490.01 170.99 490.01 C 195.25 489.91 219.51 490.20 243.77 489.86 C 248.29 490.41 252.85 490.41 257.38 489.90 C 334.90 490.11 412.43 490.01 489.95 489.95 C 490.02 408.83 490.08 327.71 489.92 246.59 C 490.41 242.23 490.39 237.83 489.92 233.48 C 490.12 155.65 489.96 77.83 490.00 0.00 Z" />
</g>
<g id="#f1f188ff">
<path fill="#f1f188" opacity="1.00" d=" M 340.33 133.99 C 338.59 128.43 342.36 122.02 348.04 120.80 C 353.35 119.36 359.28 122.75 360.78 128.03 C 369.56 156.02 378.33 184.01 387.03 212.01 C 388.58 216.81 386.11 222.41 381.60 224.60 C 377.87 226.56 373.05 225.93 369.88 223.19 C 360.86 215.71 352.07 207.95 342.96 200.60 C 345.45 212.13 348.28 223.59 350.82 235.11 C 352.05 239.57 349.70 244.56 345.59 246.61 C 341.41 249.00 335.78 248.07 332.54 244.53 C 311.87 224.17 291.19 203.82 270.53 183.45 C 266.61 179.91 265.93 173.42 269.21 169.24 C 272.73 164.17 280.75 163.48 285.08 167.88 C 297.37 179.86 309.52 191.97 321.79 203.97 C 319.60 194.35 317.36 184.74 315.15 175.12 C 314.02 170.86 315.88 166.07 319.49 163.58 C 323.21 160.85 328.70 160.82 332.38 163.63 C 340.22 170.05 347.78 176.83 355.72 183.13 C 350.51 166.78 345.40 150.39 340.33 133.99 Z" />
<path fill="#f1f188" opacity="1.00" d=" M 235.69 188.78 C 239.73 186.19 245.43 186.83 248.79 190.25 C 253.45 194.56 252.81 202.96 247.49 206.46 C 238.46 212.22 229.19 217.62 220.11 223.31 L 219.80 224.02 C 223.47 229.90 226.95 235.90 230.71 241.73 C 239.84 236.23 248.90 230.63 258.03 225.14 C 261.88 222.75 267.25 223.19 270.59 226.28 C 275.64 230.41 275.25 239.15 269.83 242.81 C 260.63 248.72 250.97 253.96 241.85 259.97 C 245.47 266.05 249.06 272.20 252.97 278.08 C 262.46 272.63 271.61 266.61 281.08 261.13 C 286.04 258.46 292.80 260.75 295.24 265.80 C 297.92 270.69 295.84 277.27 291.02 279.96 C 279.00 287.28 267.02 294.67 254.97 301.94 C 250.23 305.02 243.26 303.42 240.37 298.56 C 225.53 274.40 210.80 250.17 196.03 225.98 C 192.76 221.26 194.19 214.11 199.13 211.13 C 211.27 203.61 223.50 196.23 235.69 188.78 Z" />
<path fill="#f1f188" opacity="1.00" d=" M 163.13 233.10 C 168.06 229.99 175.12 232.07 177.84 237.15 C 192.61 261.36 207.43 285.55 222.15 309.79 C 225.44 315.07 222.81 322.83 216.94 324.95 C 212.58 326.96 208.01 324.71 203.97 323.01 C 182.60 314.45 161.16 306.05 139.82 297.39 C 148.79 312.87 158.49 327.94 167.62 343.34 C 170.63 348.41 168.30 355.62 162.94 358.04 C 158.15 360.50 151.77 358.53 149.13 353.85 C 134.33 329.65 119.54 305.45 104.79 281.22 C 101.94 276.79 103.07 270.39 107.31 267.25 C 110.26 264.88 114.47 264.39 117.95 265.81 C 141.01 274.88 163.96 284.23 187.05 293.22 C 177.87 278.02 168.51 262.93 159.34 247.72 C 156.29 242.88 158.09 235.84 163.13 233.10 Z" />
</g>
</svg>
