<?xml version="1.0" encoding="UTF-8" standalone="no"?>
<!-- Generator: Adobe Illustrator 19.0.0, SVG Export Plug-In . SVG Version: 6.00 Build 0)  -->

<svg
   xmlns:dc="http://purl.org/dc/elements/1.1/"
   xmlns:cc="http://creativecommons.org/ns#"
   xmlns:rdf="http://www.w3.org/1999/02/22-rdf-syntax-ns#"
   xmlns:svg="http://www.w3.org/2000/svg"
   xmlns="http://www.w3.org/2000/svg"
   xmlns:sodipodi="http://sodipodi.sourceforge.net/DTD/sodipodi-0.dtd"
   xmlns:inkscape="http://www.inkscape.org/namespaces/inkscape"
   version="1.1"
   id="Layer_1"
   x="0px"
   y="0px"
   viewBox="0 0 508 508"
   xml:space="preserve"
   inkscape:version="0.91 r13725"
   sodipodi:docname="filterpoi_created_on.svg"
   width="508"
   height="508"><metadata
     id="metadata49"><rdf:RDF><cc:Work
         rdf:about=""><dc:format>image/svg+xml</dc:format><dc:type
           rdf:resource="http://purl.org/dc/dcmitype/StillImage" /><dc:title /></cc:Work></rdf:RDF></metadata><defs
     id="defs47" /><sodipodi:namedview
     pagecolor="#ffffff"
     bordercolor="#666666"
     borderopacity="1"
     objecttolerance="10"
     gridtolerance="10"
     guidetolerance="10"
     inkscape:pageopacity="0"
     inkscape:pageshadow="2"
     inkscape:window-width="1920"
     inkscape:window-height="1017"
     id="namedview45"
     showgrid="false"
     inkscape:zoom="0.46456693"
     inkscape:cx="-925.11488"
     inkscape:cy="66.239405"
     inkscape:window-x="1912"
     inkscape:window-y="-8"
     inkscape:window-maximized="1"
     inkscape:current-layer="Layer_1" /><circle
     style="fill:#a9c8ff;fill-opacity:1"
     cx="254"
     cy="254"
     r="254"
     id="circle3" /><g
     id="g15" /><g
     id="g17" /><g
     id="g19" /><g
     id="g21" /><g
     id="g23" /><g
     id="g25" /><g
     id="g27" /><g
     id="g29" /><g
     id="g31" /><g
     id="g33" /><g
     id="g35" /><g
     id="g37" /><g
     id="g39" /><g
     id="g41" /><g
     id="g43" /><g
     id="g8183"
     transform="matrix(0.86333935,0,0,0.86333935,90.054447,90.054447)"
     style="fill:#f1f188;fill-opacity:1"><path
       id="path8145"
       d="m 305.901,163.69 0,-47.686 C 305.901,52.039 253.862,0 189.897,0 125.932,0 73.893,52.039 73.893,116.004 l 0,47.236 c -7.213,2.752 -14.349,8.96 -14.349,21.258 l 0,64.942 c 0,71.877 58.477,130.354 130.354,130.354 71.877,0 130.352,-58.477 130.352,-130.354 l 0,-64.942 c 0,-11.669 -6.961,-17.855 -14.349,-20.808 z m -91.228,139.542 c 0.408,2.162 -1.058,3.931 -3.258,3.931 l -42.545,0 c -2.2,0 -3.666,-1.769 -3.258,-3.931 l 6.814,-36.114 c -5.201,-4.743 -8.465,-11.574 -8.465,-19.167 0,-14.324 11.612,-25.936 25.936,-25.936 14.324,0 25.936,11.612 25.936,25.936 0,7.387 -3.093,14.047 -8.049,18.771 l 6.889,36.51 z m 51.228,-141.857 -152.008,0 0,-45.371 C 113.893,74.096 147.988,40 189.897,40 c 41.908,0 76.004,34.096 76.004,76.004 l 0,45.371 z"
       inkscape:connector-curvature="0"
       style="fill:#f1f188;fill-opacity:1" /><g
       id="g8147"
       style="fill:#f1f188;fill-opacity:1" /><g
       id="g8149"
       style="fill:#f1f188;fill-opacity:1" /><g
       id="g8151"
       style="fill:#f1f188;fill-opacity:1" /><g
       id="g8153"
       style="fill:#f1f188;fill-opacity:1" /><g
       id="g8155"
       style="fill:#f1f188;fill-opacity:1" /><g
       id="g8157"
       style="fill:#f1f188;fill-opacity:1" /><g
       id="g8159"
       style="fill:#f1f188;fill-opacity:1" /><g
       id="g8161"
       style="fill:#f1f188;fill-opacity:1" /><g
       id="g8163"
       style="fill:#f1f188;fill-opacity:1" /><g
       id="g8165"
       style="fill:#f1f188;fill-opacity:1" /><g
       id="g8167"
       style="fill:#f1f188;fill-opacity:1" /><g
       id="g8169"
       style="fill:#f1f188;fill-opacity:1" /><g
       id="g8171"
       style="fill:#f1f188;fill-opacity:1" /><g
       id="g8173"
       style="fill:#f1f188;fill-opacity:1" /><g
       id="g8175"
       style="fill:#f1f188;fill-opacity:1" /></g></svg>