<?xml version="1.0" encoding="UTF-8" standalone="no"?>
<!-- Generator: Adobe Illustrator 19.0.0, SVG Export Plug-In . SVG Version: 6.00 Build 0)  -->

<svg
   xmlns:dc="http://purl.org/dc/elements/1.1/"
   xmlns:cc="http://creativecommons.org/ns#"
   xmlns:rdf="http://www.w3.org/1999/02/22-rdf-syntax-ns#"
   xmlns:svg="http://www.w3.org/2000/svg"
   xmlns="http://www.w3.org/2000/svg"
   xmlns:sodipodi="http://sodipodi.sourceforge.net/DTD/sodipodi-0.dtd"
   xmlns:inkscape="http://www.inkscape.org/namespaces/inkscape"
   version="1.1"
   id="Layer_1"
   x="0px"
   y="0px"
   viewBox="0 0 508 508"
   style="enable-background:new 0 0 508 508;"
   xml:space="preserve"
   inkscape:version="0.91 r13725"
   sodipodi:docname="filter_all.svg"><metadata
     id="metadata49"><rdf:RDF><cc:Work
         rdf:about=""><dc:format>image/svg+xml</dc:format><dc:type
           rdf:resource="http://purl.org/dc/dcmitype/StillImage" /><dc:title /></cc:Work></rdf:RDF></metadata><defs
     id="defs47" /><sodipodi:namedview
     pagecolor="#ffffff"
     bordercolor="#666666"
     borderopacity="1"
     objecttolerance="10"
     gridtolerance="10"
     guidetolerance="10"
     inkscape:pageopacity="0"
     inkscape:pageshadow="2"
     inkscape:window-width="1251"
     inkscape:window-height="862"
     id="namedview45"
     showgrid="false"
     inkscape:zoom="0.65699684"
     inkscape:cx="-10.025767"
     inkscape:cy="291.68139"
     inkscape:window-x="60"
     inkscape:window-y="58"
     inkscape:window-maximized="0"
     inkscape:current-layer="Layer_1" /><circle
     style="fill:#a9c8ff;fill-opacity:1"
     cx="254"
     cy="254"
     r="254"
     id="circle3" /><g
     id="g15" /><g
     id="g17" /><g
     id="g19" /><g
     id="g21" /><g
     id="g23" /><g
     id="g25" /><g
     id="g27" /><g
     id="g29" /><g
     id="g31" /><g
     id="g33" /><g
     id="g35" /><g
     id="g37" /><g
     id="g39" /><g
     id="g41" /><g
     id="g43" /><path
     inkscape:connector-curvature="0"
     d="m 118.04983,148.26098 30.21115,0 0,-30.21115 c -16.61614,0 -30.21115,13.59501 -30.21115,30.21115 z m 0,120.8446 30.21115,0 0,-30.21115 -30.21115,0 0,30.21115 z m 60.4223,120.84459 30.21115,0 0,-30.21115 -30.21115,0 0,30.21115 z m -60.4223,-181.26689 30.21115,0 0,-30.21115 -30.21115,0 0,30.21115 z m 151.05575,-90.63345 -30.21115,0 0,30.21115 30.21115,0 0,-30.21115 z m 90.63344,0 0,30.21115 30.21115,0 c 0,-16.61614 -13.59501,-30.21115 -30.21115,-30.21115 z m -211.47804,271.90034 0,-30.21115 -30.21115,0 c 0,16.61614 13.59501,30.21115 30.21115,30.21115 z m -30.21115,-60.4223 30.21115,0 0,-30.21115 -30.21115,0 0,30.21115 z m 90.63345,-211.47804 -30.21115,0 0,30.21115 30.21115,0 0,-30.21115 z m 30.21115,271.90034 30.21115,0 0,-30.21115 -30.21115,0 0,30.21115 z m 120.84459,-120.84459 30.21115,0 0,-30.21115 -30.21115,0 0,30.21115 z m 0,120.84459 c 16.61614,0 30.21115,-13.59501 30.21115,-30.21115 l -30.21115,0 0,30.21115 z m 0,-181.26689 30.21115,0 0,-30.21115 -30.21115,0 0,30.21115 z m 0,120.84459 30.21115,0 0,-30.21115 -30.21115,0 0,30.21115 z m -60.4223,60.4223 30.21115,0 0,-30.21115 -30.21115,0 0,30.21115 z m 0,-241.68919 30.21115,0 0,-30.21115 -30.21115,0 0,30.21115 z m -120.84459,181.26689 151.05574,0 0,-151.05574 -151.05574,0 0,151.05574 z m 30.21115,-120.84459 90.63344,0 0,90.63344 -90.63344,0 0,-90.63344 z"
     id="path6"
     style="fill:#ffffff;fill-opacity:1;stroke:#ffffff;stroke-opacity:1;stroke-width:7.7;stroke-miterlimit:4;stroke-dasharray:none" /></svg>