<?xml version="1.0" encoding="UTF-8" standalone="no"?>
<!-- Generator: Adobe Illustrator 19.0.0, SVG Export Plug-In . SVG Version: 6.00 Build 0)  -->

<svg
   xmlns:dc="http://purl.org/dc/elements/1.1/"
   xmlns:cc="http://creativecommons.org/ns#"
   xmlns:rdf="http://www.w3.org/1999/02/22-rdf-syntax-ns#"
   xmlns:svg="http://www.w3.org/2000/svg"
   xmlns="http://www.w3.org/2000/svg"
   xmlns:sodipodi="http://sodipodi.sourceforge.net/DTD/sodipodi-0.dtd"
   xmlns:inkscape="http://www.inkscape.org/namespaces/inkscape"
   version="1.1"
   id="Layer_1"
   x="0px"
   y="0px"
   viewBox="0 0 2500 508"
   xml:space="preserve"
   inkscape:version="0.91 r13725"
   sodipodi:docname="filter_selectone_bak.svg"
   width="2500"
   height="508"><metadata
     id="metadata49"><rdf:RDF><cc:Work
         rdf:about=""><dc:format>image/svg+xml</dc:format><dc:type
           rdf:resource="http://purl.org/dc/dcmitype/StillImage" /><dc:title></dc:title></cc:Work></rdf:RDF></metadata><defs
     id="defs47" /><sodipodi:namedview
     pagecolor="#ffffff"
     bordercolor="#666666"
     borderopacity="1"
     objecttolerance="10"
     gridtolerance="10"
     guidetolerance="10"
     inkscape:pageopacity="0"
     inkscape:pageshadow="2"
     inkscape:window-width="1920"
     inkscape:window-height="1017"
     id="namedview45"
     showgrid="false"
     inkscape:zoom="0.23228346"
     inkscape:cx="2701.9486"
     inkscape:cy="665.96999"
     inkscape:window-x="1912"
     inkscape:window-y="-8"
     inkscape:window-maximized="1"
     inkscape:current-layer="Layer_1" /><g
     id="g8133"
     style="fill:#ffffff;fill-opacity:1"><circle
       r="176.56097"
       cy="254"
       cx="176.56097"
       id="path8129"
       style="opacity:1;fill:#ffffff;fill-opacity:1;fill-rule:nonzero;stroke:none;stroke-width:7;stroke-linecap:butt;stroke-linejoin:miter;stroke-miterlimit:4;stroke-dasharray:none;stroke-opacity:1" /><rect
       ry="2.7808912"
       y="77.386475"
       x="168.02542"
       height="353.12201"
       width="2050.2966"
       id="rect8131"
       style="opacity:1;fill:#ffffff;fill-opacity:1;fill-rule:nonzero;stroke:none;stroke-width:7;stroke-linecap:butt;stroke-linejoin:miter;stroke-miterlimit:4;stroke-dasharray:none;stroke-opacity:1" /></g><circle
     style="fill:#1bab00;fill-opacity:1"
     cx="2246"
     cy="254"
     r="254"
     id="circle3" /><g
     id="g8136"
     transform="matrix(0.54832723,0,0,0.54832723,2096.2538,118.0848)"><g
       id="g8096"><path
         id="path8098"
         d="M 266.667,0 C 119.391,0 0,37.309 0,83.333 l 0,50 200,200 0,166.667 c 0,18.409 29.847,33.333 66.667,33.333 36.818,0 66.667,-14.924 66.667,-33.333 l 0,-166.667 200,-200 0,-50 C 533.333,37.309 413.942,0 266.667,0 Z M 49.158,72.304 C 61.629,65.19 79.149,58.439 99.824,52.779 145.629,40.239 204.88,33.333 266.667,33.333 c 61.786,0 121.039,6.906 166.843,19.446 20.675,5.66 38.194,12.411 50.666,19.525 8.226,4.69 12.669,8.659 14.738,11.029 -2.069,2.371 -6.514,6.337 -14.738,11.029 -12.472,7.114 -29.991,13.865 -50.666,19.525 -45.803,12.54 -105.056,19.446 -166.843,19.446 -61.787,0 -121.038,-6.906 -166.843,-19.446 C 79.149,108.226 61.629,101.475 49.158,94.362 40.933,89.671 36.489,85.704 34.419,83.333 c 2.07,-2.37 6.514,-6.337 14.739,-11.029 z"
         inkscape:connector-curvature="0"
         style="fill:#ffffff" /></g><g
       id="g8100" /><g
       id="g8102" /><g
       id="g8104" /><g
       id="g8106" /><g
       id="g8108" /><g
       id="g8110" /><g
       id="g8112" /><g
       id="g8114" /><g
       id="g8116" /><g
       id="g8118" /><g
       id="g8120" /><g
       id="g8122" /><g
       id="g8124" /><g
       id="g8126" /><g
       id="g8128" /></g><g
     id="g15" /><g
     id="g17" /><g
     id="g19" /><g
     id="g21" /><g
     id="g23" /><g
     id="g25" /><g
     id="g27" /><g
     id="g29" /><g
     id="g31" /><g
     id="g33" /><g
     id="g35" /><g
     id="g37" /><g
     id="g39" /><g
     id="g41" /><g
     id="g43" /><g
     transform="translate(106.8259,34.196052)"
     style="font-style:normal;font-weight:normal;font-size:40px;line-height:125%;font-family:sans-serif;letter-spacing:0px;word-spacing:0px;fill:#000000;fill-opacity:1;stroke:none;stroke-width:1px;stroke-linecap:butt;stroke-linejoin:miter;stroke-opacity:1"
     id="flowRoot8119"><path
       d="m 122.89063,162.09831 0,14.42871 q -8.42286,-4.02832 -15.89356,-6.00586 -7.470703,-1.97754 -14.428711,-1.97754 -12.084961,0 -18.676757,4.6875 -6.518555,4.6875 -6.518555,13.33008 0,7.25098 4.321289,10.98633 4.394531,3.66211 16.552734,5.93262 l 8.935547,1.83105 q 16.552733,3.14942 24.389653,11.13281 7.91015,7.91016 7.91015,21.24024 0,15.89355 -10.69336,24.09668 -10.62011,8.20312 -31.201169,8.20312 -7.763672,0 -16.552735,-1.75781 -8.71582,-1.75781 -18.09082,-5.20019 l 0,-15.23438 q 9.008789,5.05371 17.651367,7.61719 8.642578,2.56348 16.992188,2.56348 12.670899,0 19.555659,-4.98047 6.88477,-4.98047 6.88477,-14.20899 0,-8.05664 -4.98047,-12.59765 -4.90722,-4.54102 -16.186522,-6.81153 l -9.008789,-1.75781 q -16.552734,-3.2959 -23.950195,-10.32715 -7.397461,-7.03125 -7.397461,-19.55566 0,-14.50196 10.180664,-22.85157 10.253906,-8.3496 28.198242,-8.3496 7.69043,0 15.673831,1.3916 7.9834,1.3916 16.33301,4.1748 z"
       style="font-size:150px"
       id="path8107" /><path
       d="m 222.13379,223.47526 0,6.5918 -61.96289,0 q 0.8789,13.91602 8.34961,21.24024 7.54394,7.25097 20.94726,7.25097 7.76368,0 15.01465,-1.90429 7.32422,-1.9043 14.50195,-5.71289 l 0,12.74414 q -7.25097,3.07617 -14.86816,4.6875 -7.61719,1.61132 -15.4541,1.61132 -19.62891,0 -31.12793,-11.42578 -11.42578,-11.42578 -11.42578,-30.9082 0,-20.1416 10.83984,-31.93359 10.91309,-11.86524 29.37012,-11.86524 16.55273,0 26.14746,10.69336 9.66797,10.62012 9.66797,28.93066 z m -13.47656,-3.95507 q -0.14649,-11.05957 -6.22559,-17.65137 -6.00586,-6.5918 -15.9668,-6.5918 -11.27929,0 -18.09082,6.37207 -6.73828,6.37207 -7.76367,17.94434 l 48.04688,-0.0732 z"
       style="font-size:150px"
       id="path8109" /><path
       d="m 244.25293,153.89519 13.47656,0 0,113.96484 -13.47656,0 0,-113.96484 z"
       style="font-size:150px"
       id="path8111" /><path
       d="m 356.02051,223.47526 0,6.5918 -61.96289,0 q 0.8789,13.91602 8.34961,21.24024 7.54394,7.25097 20.94726,7.25097 7.76367,0 15.01465,-1.90429 7.32422,-1.9043 14.50195,-5.71289 l 0,12.74414 q -7.25097,3.07617 -14.86816,4.6875 -7.61719,1.61132 -15.4541,1.61132 -19.62891,0 -31.12793,-11.42578 -11.42578,-11.42578 -11.42578,-30.9082 0,-20.1416 10.83984,-31.93359 10.91309,-11.86524 29.37012,-11.86524 16.55273,0 26.14746,10.69336 9.66797,10.62012 9.66797,28.93066 z m -13.47656,-3.95507 q -0.14649,-11.05957 -6.22559,-17.65137 -6.00586,-6.5918 -15.9668,-6.5918 -11.27929,0 -18.09082,6.37207 -6.73828,6.37207 -7.76367,17.94434 l 48.04688,-0.0732 z"
       style="font-size:150px"
       id="path8113" /><path
       d="m 437.17285,188.97819 0,12.59766 q -5.71289,-3.14941 -11.49902,-4.6875 -5.71289,-1.61133 -11.57227,-1.61133 -13.11035,0 -20.36133,8.34961 -7.25097,8.27637 -7.25097,23.29102 0,15.01465 7.25097,23.36426 7.25098,8.27636 20.36133,8.27636 5.85938,0 11.57227,-1.53808 5.78613,-1.61133 11.49902,-4.76075 l 0,12.45118 q -5.63965,2.63672 -11.71875,3.95507 -6.00586,1.31836 -12.81738,1.31836 -18.53027,0 -29.44336,-11.6455 -10.91309,-11.64551 -10.91309,-31.4209 0,-20.06836 10.98633,-31.56739 11.05957,-11.49902 30.24902,-11.49902 6.22559,0 12.15821,1.31836 5.93262,1.24512 11.49902,3.80859 z"
       style="font-size:150px"
       id="path8115" /><path
       d="m 474.08691,162.53776 0,23.29102 27.75879,0 0,10.47363 -27.75879,0 0,44.53125 q 0,10.03418 2.70996,12.89063 2.78321,2.85644 11.20606,2.85644 l 13.84277,0 0,11.2793 -13.84277,0 q -15.60059,0 -21.5332,-5.78613 -5.93262,-5.85938 -5.93262,-21.24024 l 0,-44.53125 -9.8877,0 0,-10.47363 9.8877,0 0,-23.29102 13.5498,0 z"
       style="font-size:150px"
       id="path8117" /><path
       d="m 599.18457,195.27702 q -10.83984,0 -17.13867,8.4961 -6.29883,8.42285 -6.29883,23.14453 0,14.72168 6.22559,23.21777 6.29882,8.42285 17.21191,8.42285 10.7666,0 17.06543,-8.49609 6.29883,-8.49609 6.29883,-23.14453 0,-14.5752 -6.29883,-23.07129 -6.29883,-8.56934 -17.06543,-8.56934 z m 0,-11.42578 q 17.57813,0 27.6123,11.42578 10.03418,11.42578 10.03418,31.64063 0,20.1416 -10.03418,31.64062 -10.03417,11.42578 -27.6123,11.42578 -17.65137,0 -27.68555,-11.42578 -9.96093,-11.49902 -9.96093,-31.64062 0,-20.21485 9.96093,-31.64063 10.03418,-11.42578 27.68555,-11.42578 z"
       style="font-size:150px"
       id="path8119" /><path
       d="m 727.28516,218.34831 0,49.51172 -13.47657,0 0,-49.07227 q 0,-11.6455 -4.54101,-17.43164 -4.54102,-5.78613 -13.62305,-5.78613 -10.91308,0 -17.21191,6.95801 -6.29883,6.95801 -6.29883,18.96973 l 0,46.3623 -13.54981,0 0,-82.03125 13.54981,0 0,12.74414 q 4.83398,-7.39746 11.35254,-11.05957 6.59179,-3.66211 15.16113,-3.66211 14.13574,0 21.38672,8.78906 7.25098,8.71582 7.25098,25.70801 z"
       style="font-size:150px"
       id="path8121" /><path
       d="m 824.47754,223.47526 0,6.5918 -61.96289,0 q 0.8789,13.91602 8.34961,21.24024 7.54394,7.25097 20.94726,7.25097 7.76368,0 15.01465,-1.90429 7.32422,-1.9043 14.50195,-5.71289 l 0,12.74414 q -7.25097,3.07617 -14.86816,4.6875 -7.61719,1.61132 -15.4541,1.61132 -19.62891,0 -31.12793,-11.42578 -11.42578,-11.42578 -11.42578,-30.9082 0,-20.1416 10.83984,-31.93359 10.91309,-11.86524 29.37012,-11.86524 16.55273,0 26.14746,10.69336 9.66797,10.62012 9.66797,28.93066 z m -13.47656,-3.95507 q -0.14649,-11.05957 -6.22559,-17.65137 -6.00586,-6.5918 -15.9668,-6.5918 -11.27929,0 -18.09082,6.37207 -6.73828,6.37207 -7.76367,17.94434 l 48.04688,-0.0732 z"
       style="font-size:150px"
       id="path8123" /><path
       d="m 894.35059,185.82878 13.47656,0 0,82.03125 -13.47656,0 0,-82.03125 z m 0,-31.93359 13.47656,0 0,17.06543 -13.47656,0 0,-17.06543 z"
       style="font-size:150px"
       id="path8125" /><path
       d="m 949.28223,162.53776 0,23.29102 27.75879,0 0,10.47363 -27.75879,0 0,44.53125 q 0,10.03418 2.70996,12.89063 2.7832,2.85644 11.20605,2.85644 l 13.84278,0 0,11.2793 -13.84278,0 q -15.60058,0 -21.5332,-5.78613 -5.93262,-5.85938 -5.93262,-21.24024 l 0,-44.53125 -9.88769,0 0,-10.47363 9.88769,0 0,-23.29102 13.54981,0 z"
       style="font-size:150px"
       id="path8127" /><path
       d="m 1065.0049,223.47526 0,6.5918 -61.9629,0 q 0.8789,13.91602 8.3496,21.24024 7.5439,7.25097 20.9473,7.25097 7.7636,0 15.0146,-1.90429 7.3242,-1.9043 14.502,-5.71289 l 0,12.74414 q -7.251,3.07617 -14.8682,4.6875 -7.6172,1.61132 -15.4541,1.61132 -19.6289,0 -31.1279,-11.42578 -11.42581,-11.42578 -11.42581,-30.9082 0,-20.1416 10.83985,-31.93359 10.91306,-11.86524 29.37016,-11.86524 16.5527,0 26.1474,10.69336 9.668,10.62012 9.668,28.93066 z m -13.4766,-3.95507 q -0.1465,-11.05957 -6.2256,-17.65137 -6.0058,-6.5918 -15.9668,-6.5918 -11.2793,0 -18.0908,6.37207 -6.7383,6.37207 -7.7637,17.94434 l 48.0469,-0.0732 z"
       style="font-size:150px"
       id="path8130" /><path
       d="m 1150.9912,201.57585 q 5.0537,-9.08203 12.085,-13.40332 7.0312,-4.32129 16.5527,-4.32129 12.8174,0 19.7754,9.00879 6.958,8.93555 6.958,25.48828 l 0,49.51172 -13.5498,0 0,-49.07227 q 0,-11.79199 -4.1748,-17.50488 -4.1748,-5.71289 -12.7441,-5.71289 -10.4737,0 -16.5528,6.95801 -6.0791,6.95801 -6.0791,18.96973 l 0,46.3623 -13.5498,0 0,-49.07227 q 0,-11.86523 -4.1748,-17.50488 -4.1748,-5.71289 -12.8906,-5.71289 -10.3272,0 -16.4063,7.03125 -6.0791,6.95801 -6.0791,18.89649 l 0,46.3623 -13.5498,0 0,-82.03125 13.5498,0 0,12.74414 q 4.6143,-7.54394 11.0596,-11.13281 6.4453,-3.58887 15.3076,-3.58887 8.9356,0 15.1612,4.54102 6.2988,4.54101 9.3017,13.18359 z"
       style="font-size:150px"
       id="path8132" /></g></svg>