<?xml version="1.0" encoding="UTF-8" standalone="no"?>
<!-- Generator: Adobe Illustrator 19.0.0, SVG Export Plug-In . SVG Version: 6.00 Build 0)  -->

<svg
   xmlns:dc="http://purl.org/dc/elements/1.1/"
   xmlns:cc="http://creativecommons.org/ns#"
   xmlns:rdf="http://www.w3.org/1999/02/22-rdf-syntax-ns#"
   xmlns:svg="http://www.w3.org/2000/svg"
   xmlns="http://www.w3.org/2000/svg"
   xmlns:sodipodi="http://sodipodi.sourceforge.net/DTD/sodipodi-0.dtd"
   xmlns:inkscape="http://www.inkscape.org/namespaces/inkscape"
   version="1.1"
   id="Layer_1"
   x="0px"
   y="0px"
   viewBox="0 0 508 508"
   xml:space="preserve"
   inkscape:version="0.91 r13725"
   sodipodi:docname="filterpoi_tick_on.svg"
   width="508"
   height="508"><metadata
     id="metadata49"><rdf:RDF><cc:Work
         rdf:about=""><dc:format>image/svg+xml</dc:format><dc:type
           rdf:resource="http://purl.org/dc/dcmitype/StillImage" /><dc:title /></cc:Work></rdf:RDF></metadata><defs
     id="defs47" /><sodipodi:namedview
     pagecolor="#ffffff"
     bordercolor="#666666"
     borderopacity="1"
     objecttolerance="10"
     gridtolerance="10"
     guidetolerance="10"
     inkscape:pageopacity="0"
     inkscape:pageshadow="2"
     inkscape:window-width="1920"
     inkscape:window-height="1017"
     id="namedview45"
     showgrid="false"
     inkscape:zoom="0.92913384"
     inkscape:cx="-217.19855"
     inkscape:cy="91.637096"
     inkscape:window-x="1912"
     inkscape:window-y="-8"
     inkscape:window-maximized="1"
     inkscape:current-layer="Layer_1" /><circle
     style="fill:#a9c8ff;fill-opacity:1"
     cx="254"
     cy="254"
     r="254"
     id="circle3" /><g
     id="g15" /><g
     id="g17" /><g
     id="g19" /><g
     id="g21" /><g
     id="g23" /><g
     id="g25" /><g
     id="g27" /><g
     id="g29" /><g
     id="g31" /><g
     id="g33" /><g
     id="g35" /><g
     id="g37" /><g
     id="g39" /><g
     id="g41" /><g
     id="g43" /><g
     id="g8146"
     transform="matrix(5.866065,0,0,5.866065,119.08051,119.08051)"
     style="fill:#f1f188;fill-opacity:1"><g
       id="g8100"
       style="fill:#f1f188;fill-opacity:1"><g
         id="g8102"
         style="fill:#f1f188;fill-opacity:1"><path
           id="path8104"
           d="M 35.822,0 10.178,0 C 4.557,0 0,4.557 0,10.178 L 0,35.824 C 0,41.443 4.557,46 10.178,46 l 25.645,0 C 41.443,46 46,41.443 46,35.822 L 46,10.178 C 46,4.557 41.443,0 35.822,0 Z M 40,35.822 C 40,38.126 38.126,40 35.822,40 L 10.178,40 C 7.874,40 6,38.126 6,35.822 L 6,10.178 C 6,7.874 7.874,6 10.178,6 L 35.823,6 C 38.126,6 40,7.874 40,10.178 l 0,25.644 z"
           inkscape:connector-curvature="0"
           style="fill:#f1f188;fill-opacity:1" /><g
           id="g8106"
           style="fill:#f1f188;fill-opacity:1"><path
             id="path8108"
             d="m 21.925,33.298 c -0.609,0.609 -1.437,0.952 -2.298,0.952 -0.861,0 -1.689,-0.343 -2.298,-0.952 l -7.122,-7.122 c -1.269,-1.269 -1.269,-3.327 0,-4.596 1.27,-1.27 3.327,-1.27 4.597,0 l 4.243,4.242 c 0.321,0.32 0.84,0.32 1.161,0 L 31.697,14.333 c 1.27,-1.27 3.326,-1.27 4.597,0 1.271,1.27 1.271,3.327 0,4.597 L 21.925,33.298 Z"
             inkscape:connector-curvature="0"
             style="fill:#f1f188;fill-opacity:1" /></g></g></g><g
       id="g8110"
       style="fill:#f1f188;fill-opacity:1" /><g
       id="g8112"
       style="fill:#f1f188;fill-opacity:1" /><g
       id="g8114"
       style="fill:#f1f188;fill-opacity:1" /><g
       id="g8116"
       style="fill:#f1f188;fill-opacity:1" /><g
       id="g8118"
       style="fill:#f1f188;fill-opacity:1" /><g
       id="g8120"
       style="fill:#f1f188;fill-opacity:1" /><g
       id="g8122"
       style="fill:#f1f188;fill-opacity:1" /><g
       id="g8124"
       style="fill:#f1f188;fill-opacity:1" /><g
       id="g8126"
       style="fill:#f1f188;fill-opacity:1" /><g
       id="g8128"
       style="fill:#f1f188;fill-opacity:1" /><g
       id="g8130"
       style="fill:#f1f188;fill-opacity:1" /><g
       id="g8132"
       style="fill:#f1f188;fill-opacity:1" /><g
       id="g8134"
       style="fill:#f1f188;fill-opacity:1" /><g
       id="g8136"
       style="fill:#f1f188;fill-opacity:1" /><g
       id="g8138"
       style="fill:#f1f188;fill-opacity:1" /></g></svg>