<?xml version="1.0" encoding="UTF-8" standalone="no"?>
<!-- Generator: Adobe Illustrator 19.0.0, SVG Export Plug-In . SVG Version: 6.00 Build 0)  -->

<svg
   xmlns:dc="http://purl.org/dc/elements/1.1/"
   xmlns:cc="http://creativecommons.org/ns#"
   xmlns:rdf="http://www.w3.org/1999/02/22-rdf-syntax-ns#"
   xmlns:svg="http://www.w3.org/2000/svg"
   xmlns="http://www.w3.org/2000/svg"
   xmlns:sodipodi="http://sodipodi.sourceforge.net/DTD/sodipodi-0.dtd"
   xmlns:inkscape="http://www.inkscape.org/namespaces/inkscape"
   version="1.1"
   id="Layer_1"
   x="0px"
   y="0px"
   viewBox="0 0 508 508"
   style="enable-background:new 0 0 508 508;"
   xml:space="preserve"
   inkscape:version="0.91 r13725"
   sodipodi:docname="filter_boattrader.svg"><metadata
     id="metadata49"><rdf:RDF><cc:Work
         rdf:about=""><dc:format>image/svg+xml</dc:format><dc:type
           rdf:resource="http://purl.org/dc/dcmitype/StillImage" /><dc:title /></cc:Work></rdf:RDF></metadata><defs
     id="defs47" /><sodipodi:namedview
     pagecolor="#ffffff"
     bordercolor="#666666"
     borderopacity="1"
     objecttolerance="10"
     gridtolerance="10"
     guidetolerance="10"
     inkscape:pageopacity="0"
     inkscape:pageshadow="2"
     inkscape:window-width="817"
     inkscape:window-height="386"
     id="namedview45"
     showgrid="false"
     inkscape:zoom="0.23228346"
     inkscape:cx="-1607.6039"
     inkscape:cy="67.588201"
     inkscape:window-x="1998"
     inkscape:window-y="78"
     inkscape:window-maximized="0"
     inkscape:current-layer="Layer_1" /><circle
     style="fill:#a9c8ff;fill-opacity:1"
     cx="254"
     cy="254"
     r="254"
     id="circle3" /><g
     id="g15" /><g
     id="g17" /><g
     id="g19" /><g
     id="g21" /><g
     id="g23" /><g
     id="g25" /><g
     id="g27" /><g
     id="g29" /><g
     id="g31" /><g
     id="g33" /><g
     id="g35" /><g
     id="g37" /><g
     id="g39" /><g
     id="g41" /><g
     id="g43" /><path
     inkscape:connector-curvature="0"
     style="fill:#ffffff;fill-opacity:1;stroke:#ffffff;stroke-width:7;stroke-miterlimit:4;stroke-dasharray:none;stroke-opacity:1"
     d="m 403.18713,196.12383 c -1.37232,-1.62294 -3.38699,-2.56421 -5.51779,-2.56421 l -21.66691,0 0,-43.46479 c 0,-4.00602 -3.22812,-7.24381 -7.22214,-7.24381 l -36.1118,0 0,-21.7321 c 0,-4.00601 -3.22809,-7.24381 -7.22211,-7.24381 l -28.88907,0 -72.22422,0 c -3.99402,0 -7.22212,3.2378 -7.22212,7.24381 l 0,28.97591 c -23.89888,0 -43.33391,19.49345 -43.33391,43.46417 l -19.74598,0 -7.16503,-40.00847 C 145.03881,143.14795 136.0906,135.6072 125.60378,135.6072 l -16.8282,0 c -11.94542,-6.3e-4 -21.666964,9.75015 -21.666964,21.73207 0,11.98194 9.721544,21.7321 21.666964,21.7321 11.9454,0 21.66694,-9.75079 21.66694,-21.7321 0,-2.07928 -0.38295,-4.04959 -0.93163,-5.95456 1.58146,1.06517 2.7806,2.68003 3.14185,4.70887 l 33.22257,172.26359 c -8.22635,5.10727 -13.76583,14.16953 -13.76583,24.5721 0,15.98047 12.9571,28.9759 28.88906,28.9759 l 187.78051,0 c 3.99401,0 7.22214,-3.2378 7.22214,-7.24383 0,-4.00601 -3.22813,-7.24382 -7.22214,-7.24382 l -187.77988,0 c -7.9663,0 -14.44484,-6.49802 -14.44484,-14.48825 0,-7.99025 6.47854,-14.48826 14.44484,-14.48826 l 176.36949,0 c 14.14883,0 26.41202,-10.59059 28.49929,-24.50673 l 18.92237,-111.92063 c 0.35379,-2.10168 -0.23088,-4.25317 -1.60319,-5.88982 z M 108.77558,164.58309 c -3.98656,0 -7.22212,-3.24529 -7.22212,-7.24382 0,-3.99855 3.23556,-7.24381 7.22212,-7.24381 3.98655,0 7.2221,3.24526 7.2221,7.24381 0,3.99853 -3.23555,7.24382 -7.2221,7.24382 z m 223.8923,-7.24382 28.88908,0 0,36.22035 -28.88908,0 0,-36.22035 z m -28.88907,-28.97652 14.44484,0 0,21.73208 0,43.46417 -14.44484,0 0,-65.19625 z m -72.2236,24.2023 0,-24.2023 57.77876,0 0,65.19625 -14.44485,0 -14.44485,0 c 0,-18.62439 -11.96031,-34.94539 -29.00513,-40.92174 0.044,-0.0287 0.0725,-0.043 0.11607,-0.0722 z m -14.44424,12.01804 c 2.07304,0 3.99401,0.18863 5.79955,0.57958 13.37542,2.70928 23.08953,14.65449 23.08953,28.39633 l -57.77876,0 c 0,-15.97985 12.9571,-28.97591 28.88968,-28.97591 z M 371.6037,311.65146 c -1.05449,7.01222 -7.17923,12.30065 -14.23504,12.30065 l -177.66234,0 -22.92382,-115.90484 232.3353,0 -17.5141,103.60419 z"
     id="path37" /><g
     id="g13"
     style="fill:#ffffff;fill-opacity:1;stroke:#ffffff;stroke-width:11.26122952;stroke-miterlimit:4;stroke-dasharray:none;stroke-opacity:1"
     transform="matrix(0.62066967,0,0,0.62253523,87.108616,106.63067)"><circle
       style="fill:#ffffff;fill-opacity:1;stroke:#ffffff;stroke-width:11.26122952;stroke-miterlimit:4;stroke-dasharray:none;stroke-opacity:1"
       cx="186.18201"
       cy="477.091"
       r="23.273001"
       id="circle15" /><circle
       style="fill:#ffffff;fill-opacity:1;stroke:#ffffff;stroke-width:11.26122952;stroke-miterlimit:4;stroke-dasharray:none;stroke-opacity:1"
       cx="395.63599"
       cy="477.091"
       r="23.273001"
       id="circle17" /></g><path
     style="fill:#ffffff;fill-opacity:1;stroke:#ffffff;stroke-width:0.84500003;stroke-miterlimit:4;stroke-dasharray:none;stroke-opacity:1"
     d="m 152.18925,209.8655 23.12231,119.2543 179.1994,0 c 7.12432,0 13.29343,-5.44113 14.35706,-12.65604 l 17.66669,-106.59826 -234.34546,0 z m 54.02986,18.44361 c 4.02856,0 7.28552,3.33153 7.28552,7.45332 l 0,59.62777 c 6.3e-4,4.1218 -3.25696,7.45332 -7.28552,7.45332 -4.02857,0 -7.28431,-3.33152 -7.28431,-7.45332 l 0,-59.62777 c 0,-4.12179 3.25574,-7.45332 7.28431,-7.45332 z m 43.70951,0 c 4.02857,0 7.28433,3.33153 7.28433,7.45332 l 0,59.62777 c 6.1e-4,4.1218 -3.25576,7.45332 -7.28433,7.45332 -4.02855,0 -7.28552,-3.33152 -7.28552,-7.45332 l 0,-59.62777 c 0,-4.12179 3.25697,-7.45332 7.28552,-7.45332 z m 43.70953,0 c 4.02855,0 7.2843,3.33153 7.2843,7.45332 l 0,59.62777 c 0,4.1218 -3.25636,7.45332 -7.2843,7.45332 -4.02856,0 -7.28553,-3.33152 -7.28553,-7.45332 l 0,-59.62777 c 0,-4.12179 3.25697,-7.45332 7.28553,-7.45332 z m 43.7083,0 c 4.02856,0 7.2843,3.33153 7.2843,7.45332 l 0,59.62777 c 0,4.1218 -3.25574,7.45332 -7.2843,7.45332 -4.02857,0 -7.28431,-3.33152 -7.28431,-7.45332 l 0,-59.62777 c 0,-4.12179 3.25574,-7.45332 7.28431,-7.45332 z"
     id="path19-4"
     inkscape:connector-curvature="0" /><circle
     style="opacity:1;fill:#ffffff;fill-opacity:1;fill-rule:nonzero;stroke:none;stroke-width:9.75374317;stroke-linecap:butt;stroke-linejoin:miter;stroke-miterlimit:4;stroke-dasharray:none;stroke-opacity:1"
     id="path8091"
     cx="110.54239"
     cy="156.37288"
     r="17.99601" /><path
     id="path31"
     d="m 204.09723,311.7746 c -6.41578,0 -11.60125,-4.01051 -11.60125,-8.97256 l 0,-71.78281 c 0,-4.96205 5.18547,-8.97256 11.60125,-8.97256 6.41579,0 11.60126,4.01051 11.60126,8.97256 l 0,71.78281 c 0.001,4.96205 -5.18547,8.97256 -11.60126,8.97256 z"
     style="fill:#a9c8ff;fill-opacity:1;stroke:none;stroke-width:3.5999999;stroke-miterlimit:4;stroke-dasharray:none;stroke-opacity:1"
     inkscape:connector-curvature="0" /><path
     id="path31-6"
     d="m 342.07778,311.7746 c -6.41578,0 -11.60125,-4.01051 -11.60125,-8.97256 l 0,-71.78281 c 0,-4.96205 5.18547,-8.97256 11.60125,-8.97256 6.41579,0 11.60126,4.01051 11.60126,8.97256 l 0,71.78281 c 0.001,4.96205 -5.18547,8.97256 -11.60126,8.97256 z"
     style="fill:#a9c8ff;fill-opacity:1;stroke:none;stroke-width:3.5999999;stroke-miterlimit:4;stroke-dasharray:none;stroke-opacity:1"
     inkscape:connector-curvature="0" /><path
     id="path31-0"
     d="m 296.08427,311.7746 c -6.41578,0 -11.60125,-4.01051 -11.60125,-8.97256 l 0,-71.78281 c 0,-4.96205 5.18547,-8.97256 11.60125,-8.97256 6.41579,0 11.60126,4.01051 11.60126,8.97256 l 0,71.78281 c 10e-4,4.96205 -5.18547,8.97256 -11.60126,8.97256 z"
     style="fill:#a9c8ff;fill-opacity:1;stroke:none;stroke-width:3.5999999;stroke-miterlimit:4;stroke-dasharray:none;stroke-opacity:1"
     inkscape:connector-curvature="0" /><path
     id="path31-7"
     d="m 250.09074,311.7746 c -6.41578,0 -11.60125,-4.01051 -11.60125,-8.97256 l 0,-71.78281 c 0,-4.96205 5.18547,-8.97256 11.60125,-8.97256 6.41579,0 11.60126,4.01051 11.60126,8.97256 l 0,71.78281 c 10e-4,4.96205 -5.18547,8.97256 -11.60126,8.97256 z"
     style="fill:#a9c8ff;fill-opacity:1;stroke:none;stroke-width:3.5999999;stroke-miterlimit:4;stroke-dasharray:none;stroke-opacity:1"
     inkscape:connector-curvature="0" /><circle
     style="opacity:1;fill:#ffffff;fill-opacity:1;fill-rule:nonzero;stroke:none;stroke-width:7;stroke-linecap:butt;stroke-linejoin:miter;stroke-miterlimit:4;stroke-dasharray:none;stroke-opacity:1"
     id="path8138"
     cx="334.25424"
     cy="401.6102"
     r="21.525425" /><circle
     style="opacity:1;fill:#ffffff;fill-opacity:1;fill-rule:nonzero;stroke:none;stroke-width:7;stroke-linecap:butt;stroke-linejoin:miter;stroke-miterlimit:4;stroke-dasharray:none;stroke-opacity:1"
     id="path8138-7"
     cx="204.02542"
     cy="401.6102"
     r="21.525425" /><rect
     style="opacity:1;fill:#ffffff;fill-opacity:1;fill-rule:nonzero;stroke:none;stroke-width:7;stroke-linecap:butt;stroke-linejoin:miter;stroke-miterlimit:4;stroke-dasharray:none;stroke-opacity:1"
     id="rect8155"
     width="24.754238"
     height="69.957626"
     x="300.88983"
     y="128.23729" /></svg>