<?xml version="1.0" encoding="UTF-8" standalone="no"?>
<!-- Generator: Adobe Illustrator 18.0.0, SVG Export Plug-In . SVG Version: 6.00 Build 0)  -->

<svg
   xmlns:dc="http://purl.org/dc/elements/1.1/"
   xmlns:cc="http://creativecommons.org/ns#"
   xmlns:rdf="http://www.w3.org/1999/02/22-rdf-syntax-ns#"
   xmlns:svg="http://www.w3.org/2000/svg"
   xmlns="http://www.w3.org/2000/svg"
   xmlns:sodipodi="http://sodipodi.sourceforge.net/DTD/sodipodi-0.dtd"
   xmlns:inkscape="http://www.inkscape.org/namespaces/inkscape"
   version="1.1"
   id="Capa_1"
   x="0px"
   y="0px"
   viewBox="0 0 70 54"
   xml:space="preserve"
   inkscape:version="0.91 r13725"
   sodipodi:docname="goto.svg"
   width="70"
   height="54"><metadata
     id="metadata47"><rdf:RDF><cc:Work
         rdf:about=""><dc:format>image/svg+xml</dc:format><dc:type
           rdf:resource="http://purl.org/dc/dcmitype/StillImage" /><dc:title /></cc:Work></rdf:RDF></metadata><defs
     id="defs45" /><sodipodi:namedview
     pagecolor="#ffffff"
     bordercolor="#666666"
     borderopacity="1"
     objecttolerance="10"
     gridtolerance="10"
     guidetolerance="10"
     inkscape:pageopacity="0"
     inkscape:pageshadow="2"
     inkscape:window-width="1920"
     inkscape:window-height="1017"
     id="namedview43"
     showgrid="false"
     inkscape:zoom="4.3703704"
     inkscape:cx="-73.206762"
     inkscape:cy="28.108383"
     inkscape:window-x="1912"
     inkscape:window-y="-8"
     inkscape:window-maximized="1"
     inkscape:current-layer="Capa_1" /><path
     style="fill:#4fba6f"
     d="m 44,53 0,0 C 29.641,53 18,41.359 18,27 l 0,0 C 18,12.641 29.641,1 44,1 l 0,0 c 14.359,0 26,11.641 26,26 l 0,0 C 70,41.359 58.359,53 44,53 Z"
     id="path7"
     inkscape:connector-curvature="0" /><path
     style="fill:#4fba6f"
     d="M 43,54 C 28.112,54 16,41.888 16,27 16,12.112 28.112,0 43,0 57.888,0 70,12.112 70,27 70,41.888 57.888,54 43,54 Z M 43,2 C 29.215,2 18,13.215 18,27 18,40.785 29.215,52 43,52 56.785,52 68,40.785 68,27 68,13.215 56.785,2 43,2 Z"
     id="path9"
     inkscape:connector-curvature="0" /><g
     id="g13" /><g
     id="g15" /><g
     id="g17" /><g
     id="g19" /><g
     id="g21" /><g
     id="g23" /><g
     id="g25" /><g
     id="g27" /><g
     id="g29" /><g
     id="g31" /><g
     id="g33" /><g
     id="g35" /><g
     id="g37" /><g
     id="g39" /><g
     id="g41" /><rect
     style="opacity:1;fill:#4fba6f;fill-opacity:1;fill-rule:nonzero;stroke:none;stroke-width:25;stroke-linecap:butt;stroke-linejoin:miter;stroke-miterlimit:4;stroke-dasharray:none;stroke-opacity:1"
     id="rect8107"
     width="42.613277"
     height="54"
     x="0"
     y="0" /><path
     inkscape:connector-curvature="0"
     id="path11"
     d="m 10.412645,40 c -0.256001,0 -0.5120006,-0.098 -0.7070006,-0.293 -0.391,-0.391 -0.391,-1.023 0,-1.414 L 20.998652,27 9.7056444,15.707 c -0.391,-0.391 -0.391,-1.023 0,-1.414 0.3909996,-0.391 1.0230016,-0.391 1.4140016,0 l 11.498006,11.498 c 0.667,0.667 0.667,1.751 0,2.418 L 11.119646,39.707 C 10.924646,39.902 10.668645,40 10.412645,40 Z"
     style="fill:#ffffff" /></svg>