<?xml version="1.0" encoding="UTF-8" standalone="no"?>
<!-- Generator: Adobe Illustrator 18.0.0, SVG Export Plug-In . SVG Version: 6.00 Build 0)  -->

<svg
   xmlns:dc="http://purl.org/dc/elements/1.1/"
   xmlns:cc="http://creativecommons.org/ns#"
   xmlns:rdf="http://www.w3.org/1999/02/22-rdf-syntax-ns#"
   xmlns:svg="http://www.w3.org/2000/svg"
   xmlns="http://www.w3.org/2000/svg"
   xmlns:sodipodi="http://sodipodi.sourceforge.net/DTD/sodipodi-0.dtd"
   xmlns:inkscape="http://www.inkscape.org/namespaces/inkscape"
   version="1.1"
   id="Capa_1"
   x="0px"
   y="0px"
   viewBox="0 0 96.965625 96.965625"
   xml:space="preserve"
   width="100"
   height="100"
   inkscape:version="0.91 r13725"
   sodipodi:docname="ishirer.svg"><metadata
     id="metadata43"><rdf:RDF><cc:Work
         rdf:about=""><dc:format>image/svg+xml</dc:format><dc:type
           rdf:resource="http://purl.org/dc/dcmitype/StillImage" /><dc:title /></cc:Work></rdf:RDF></metadata><defs
     id="defs41" /><sodipodi:namedview
     pagecolor="#ffffff"
     bordercolor="#666666"
     borderopacity="1"
     objecttolerance="10"
     gridtolerance="10"
     guidetolerance="10"
     inkscape:pageopacity="0"
     inkscape:pageshadow="2"
     inkscape:window-width="1920"
     inkscape:window-height="1017"
     id="namedview39"
     showgrid="false"
     inkscape:zoom="5.2149125"
     inkscape:cx="16.608712"
     inkscape:cy="51.245308"
     inkscape:window-x="1912"
     inkscape:window-y="-8"
     inkscape:window-maximized="1"
     inkscape:current-layer="Capa_1" /><path
     style="fill:#ffffff;fill-opacity:1"
     inkscape:connector-curvature="0"
     id="path7"
     d="m 48.545313,97.04134 c 26.77575,0 48.485208,-21.704742 48.485208,-48.481788 0,-26.779781 -21.709458,-48.48383952 -48.485208,-48.48383952 -26.77575,0 -48.48042036,21.70405852 -48.48042036,48.48383952 0,26.776704 21.70501236,48.481788 48.48042036,48.481788 z"
     sodipodi:nodetypes="sssss" /><g
     id="g9"
     transform="translate(0,-399.49839)" /><g
     id="g11"
     transform="translate(0,-399.49839)" /><g
     id="g13"
     transform="translate(0,-399.49839)" /><g
     id="g15"
     transform="translate(0,-399.49839)" /><g
     id="g17"
     transform="translate(0,-399.49839)" /><g
     id="g19"
     transform="translate(0,-399.49839)" /><g
     id="g21"
     transform="translate(0,-399.49839)" /><g
     id="g23"
     transform="translate(0,-399.49839)" /><g
     id="g25"
     transform="translate(0,-399.49839)" /><g
     id="g27"
     transform="translate(0,-399.49839)" /><g
     id="g29"
     transform="translate(0,-399.49839)" /><g
     id="g31"
     transform="translate(0,-399.49839)" /><g
     id="g33"
     transform="translate(0,-399.49839)" /><g
     id="g35"
     transform="translate(0,-399.49839)" /><g
     id="g37"
     transform="translate(0,-399.49839)" /><path
     inkscape:connector-curvature="0"
     style="fill:#004e64;fill-opacity:1;stroke:none"
     d="m 905.04102,-463.51214 c 0,48.87068 -88.82052,191.60408 -88.82052,191.60408 -3.87862,0 -88.82051,-142.7334 -88.82051,-191.60408 0,-48.87068 39.56197,-88.82052 88.82051,-88.82052 49.25854,0 88.82052,39.56198 88.82052,88.82052 z"
     id="path11" /><circle
     style="opacity:1;fill:#f1f188;fill-opacity:1;fill-rule:nonzero;stroke:none;stroke-width:10;stroke-linejoin:round;stroke-miterlimit:4;stroke-dasharray:none;stroke-opacity:1"
     id="path8105"
     cx="48.547707"
     cy="48.558525"
     r="31.981527" /><path
     style="fill:#004e64;fill-opacity:1"
     inkscape:connector-curvature="0"
     id="path7-5"
     d="m 48.545624,90.719411 c 23.284318,0 42.162965,-18.874547 42.162965,-42.159994 0,-23.287826 -18.878647,-42.161776 -42.162965,-42.161776 -23.284319,0 -42.1587989,18.87395 -42.1587989,42.161776 0,23.285148 18.8747789,42.159994 42.1587989,42.159994 z M 20.242819,40.032868 c 0.305365,-0.944322 1.12127,-1.629669 2.105755,-1.772983 l 15.131881,-2.201733 c 0.850683,-0.121013 1.588978,-0.656505 1.96571,-1.425106 l 6.767432,-13.715859 c 0.439165,-0.890506 1.346049,-1.451272 2.336194,-1.451272 0.990731,0 1.903562,0.560766 2.337973,1.451272 l 6.771303,13.715859 c 0.380887,0.768601 1.115611,1.304093 1.965709,1.425106 l 15.130686,2.201733 c 0.985978,0.143016 1.802172,0.828661 2.106353,1.772983 0.309532,0.94432 0.05297,1.979924 -0.657421,2.673002 L 65.246861,53.378848 c -0.609247,0.601501 -0.893806,1.463759 -0.74454,2.30907 l 2.583578,15.07258 c 0.169484,0.978217 -0.236982,1.967734 -1.038308,2.550204 -0.80073,0.584552 -1.864309,0.661858 -2.742949,0.200401 L 49.76174,66.393009 c -0.758514,-0.396343 -1.66658,-0.396343 -2.424496,0 l -13.5325,7.118094 c -0.883392,0.458484 -1.946673,0.382071 -2.747413,-0.200401 -0.803106,-0.584552 -1.203925,-1.571987 -1.033843,-2.550204 l 2.579124,-15.07258 c 0.149254,-0.845311 -0.13054,-1.707271 -0.744541,-2.30907 L 20.899045,42.70587 C 20.19524,42.012792 19.934481,40.977188 20.242819,40.032868 Z" /></svg>