<?xml version="1.0" encoding="UTF-8" standalone="no"?>
<!-- Generator: Adobe Illustrator 19.0.0, SVG Export Plug-In . SVG Version: 6.00 Build 0)  -->

<svg
   xmlns:dc="http://purl.org/dc/elements/1.1/"
   xmlns:cc="http://creativecommons.org/ns#"
   xmlns:rdf="http://www.w3.org/1999/02/22-rdf-syntax-ns#"
   xmlns:svg="http://www.w3.org/2000/svg"
   xmlns="http://www.w3.org/2000/svg"
   xmlns:sodipodi="http://sodipodi.sourceforge.net/DTD/sodipodi-0.dtd"
   xmlns:inkscape="http://www.inkscape.org/namespaces/inkscape"
   version="1.1"
   id="Capa_1"
   x="0px"
   y="0px"
   viewBox="0 0 512 512"
   style="enable-background:new 0 0 512 512;"
   xml:space="preserve"
   inkscape:version="0.91 r13725"
   sodipodi:docname="item_boattrader.svg"><metadata
     id="metadata73"><rdf:RDF><cc:Work
         rdf:about=""><dc:format>image/svg+xml</dc:format><dc:type
           rdf:resource="http://purl.org/dc/dcmitype/StillImage" /><dc:title /></cc:Work></rdf:RDF></metadata><defs
     id="defs71" /><sodipodi:namedview
     pagecolor="#ffffff"
     bordercolor="#666666"
     borderopacity="1"
     objecttolerance="10"
     gridtolerance="10"
     guidetolerance="10"
     inkscape:pageopacity="0"
     inkscape:pageshadow="2"
     inkscape:window-width="1920"
     inkscape:window-height="1017"
     id="namedview69"
     showgrid="false"
     inkscape:zoom="0.65186406"
     inkscape:cx="60.059947"
     inkscape:cy="325.17916"
     inkscape:window-x="1912"
     inkscape:window-y="-8"
     inkscape:window-maximized="1"
     inkscape:current-layer="Capa_1" /><path
     inkscape:connector-curvature="0"
     style="fill:#7a7a7a;fill-opacity:1;stroke:none;stroke-width:3.59464121;stroke-miterlimit:4;stroke-dasharray:none;stroke-opacity:1"
     d="m 509.26488,143.75477 c -2.2044,-2.60702 -5.44071,-4.11904 -8.86346,-4.11904 l -34.80477,0 0,-69.819769 c 0,-6.435071 -5.18547,-11.636128 -11.60126,-11.636128 l -58.00828,0 0,-34.909384 c 0,-6.435071 -5.18547,-11.636128 -11.60126,-11.636128 l -46.40603,0 -116.01756,0 c -6.41579,0 -11.60126,5.201057 -11.60126,11.636128 l 0,46.545512 c -38.39003,0 -69.60954,31.313349 -69.60954,69.818769 l -31.71901,0 L 97.522918,75.367022 C 94.587708,58.656838 80.213753,46.543705 63.368201,46.543705 l -27.032048,0 c -19.188536,-0.001 -34.8047702,15.662172 -34.8047702,34.909384 0,19.247211 15.6162342,34.909381 34.8047702,34.909381 19.188537,0 34.804771,-15.66317 34.804771,-34.909381 0,-3.340037 -0.615158,-6.505071 -1.496519,-9.565105 2.540393,1.711019 4.466624,4.305047 5.046886,7.564083 L 128.05847,356.16811 c -13.21442,8.20409 -22.11278,22.76125 -22.11278,39.47144 0,25.67028 20.81367,46.54551 46.40603,46.54551 l 301.64168,0 c 6.41579,0 11.60126,-5.20106 11.60126,-11.63613 0,-6.43507 -5.18547,-11.63613 -11.60126,-11.63613 l -301.64068,0 c -12.79668,0 -23.20351,-10.43811 -23.20351,-23.27325 0,-12.83515 10.40683,-23.27326 23.20351,-23.27326 l 283.31157,0 c 22.72794,0 42.42694,-17.01219 45.7799,-39.36643 l 30.39598,-179.78398 c 0.56829,-3.37604 -0.37089,-6.83208 -2.57529,-9.46111 z M 36.336153,93.089217 c -6.403822,0 -11.601258,-5.213057 -11.601258,-11.636128 0,-6.42307 5.197436,-11.636128 11.601258,-11.636128 6.403823,0 11.601258,5.213058 11.601258,11.636128 0,6.423071 -5.197435,11.636128 -11.601258,11.636128 z m 359.649957,-11.636128 46.40603,0 0,58.182641 -46.40603,0 0,-58.182641 z m -46.40603,-46.546512 23.20352,0 0,34.909384 0,69.818769 -23.20352,0 0,-104.728153 z m -116.01656,38.877428 0,-38.877428 92.81305,0 0,104.728153 -23.20351,0 -23.20351,0 c 0,-29.91733 -19.21247,-56.134618 -46.59247,-65.734724 0.0708,-0.046 0.11665,-0.069 0.18644,-0.116001 z M 210.361,93.089217 c 3.33003,0 6.41579,0.303003 9.3161,0.93101 21.48566,4.352048 37.08993,23.540263 37.08993,45.614503 l -92.81305,0 c 0,-25.66928 20.81367,-46.545513 46.40702,-46.545513 z M 458.53081,329.33282 c -1.69393,11.26412 -11.53246,19.75921 -22.86652,19.75921 l -285.38835,0 -36.82373,-186.18404 373.21235,0 -28.13375,166.42483 z"
     id="path37" /><g
     id="g13"
     style="fill:#7a7a7a;fill-opacity:1;stroke:none;stroke-width:3.5999999;stroke-miterlimit:4;stroke-dasharray:none;stroke-opacity:1"
     transform="matrix(0.99701425,0,0,1.000011,1.5313828,-0.00280684)"><circle
       style="fill:#7a7a7a;fill-opacity:1;stroke:none;stroke-width:3.5999999;stroke-miterlimit:4;stroke-dasharray:none;stroke-opacity:1"
       cx="186.18201"
       cy="477.091"
       r="23.273001"
       id="circle15" /><circle
       style="fill:#7a7a7a;fill-opacity:1;stroke:none;stroke-width:3.5999999;stroke-miterlimit:4;stroke-dasharray:none;stroke-opacity:1"
       cx="395.63599"
       cy="477.091"
       r="23.273001"
       id="circle17" /></g><g
     id="g39" /><g
     id="g41" /><g
     id="g43" /><g
     id="g45" /><g
     id="g47" /><g
     id="g49" /><g
     id="g51" /><g
     id="g53" /><g
     id="g55" /><g
     id="g57" /><g
     id="g59" /><g
     id="g61" /><g
     id="g63" /><g
     id="g65" /><g
     id="g67" /><path
     style="fill:#7a7a7a;fill-opacity:1;stroke:none;stroke-width:1.38245046;stroke-miterlimit:4;stroke-dasharray:none;stroke-opacity:1"
     d="m 108.91883,160.79046 37.82894,195.10433 293.17666,0 c 11.65564,0 21.74853,-8.90189 23.48867,-20.70574 l 28.90334,-174.39859 -383.39761,0 z m 88.3948,30.17441 c 6.59087,0 11.91937,5.4505 11.91937,12.1939 l 0,97.55318 c 0.001,6.74341 -5.3285,12.1939 -11.91937,12.1939 -6.59089,0 -11.91739,-5.45049 -11.91739,-12.1939 l 0,-97.55318 c 0,-6.7434 5.3265,-12.1939 11.91739,-12.1939 z m 71.51033,0 c 6.59089,0 11.91743,5.4505 11.91743,12.1939 l 0,97.55318 c 10e-4,6.74341 -5.32654,12.1939 -11.91743,12.1939 -6.59085,0 -11.91937,-5.45049 -11.91937,-12.1939 l 0,-97.55318 c 0,-6.7434 5.32852,-12.1939 11.91937,-12.1939 z m 71.51037,0 c 6.59085,0 11.91738,5.4505 11.91738,12.1939 l 0,97.55318 c 0,6.74341 -5.32753,12.1939 -11.91738,12.1939 -6.59087,0 -11.91939,-5.45049 -11.91939,-12.1939 l 0,-97.55318 c 0,-6.7434 5.32852,-12.1939 11.91939,-12.1939 z m 71.50834,0 c 6.59087,0 11.91738,5.4505 11.91738,12.1939 l 0,97.55318 c 0,6.74341 -5.32651,12.1939 -11.91738,12.1939 -6.59088,0 -11.91739,-5.45049 -11.91739,-12.1939 l 0,-97.55318 c 0,-6.7434 5.32651,-12.1939 11.91739,-12.1939 z"
     id="path19-4"
     inkscape:connector-curvature="0" /></svg>