<?xml version="1.0" encoding="UTF-8" standalone="no"?>
<!-- Created with Inkscape (http://www.inkscape.org/) -->

<svg
   xmlns:dc="http://purl.org/dc/elements/1.1/"
   xmlns:cc="http://creativecommons.org/ns#"
   xmlns:rdf="http://www.w3.org/1999/02/22-rdf-syntax-ns#"
   xmlns:svg="http://www.w3.org/2000/svg"
   xmlns="http://www.w3.org/2000/svg"
   xmlns:sodipodi="http://sodipodi.sourceforge.net/DTD/sodipodi-0.dtd"
   xmlns:inkscape="http://www.inkscape.org/namespaces/inkscape"
   width="290"
   height="290"
   viewBox="0 0 290.00001 290.00001"
   id="svg8152"
   version="1.1"
   inkscape:version="0.91 r13725"
   sodipodi:docname="item_widebeamboat.svg">
  <defs
     id="defs8154" />
  <sodipodi:namedview
     id="base"
     pagecolor="#ffffff"
     bordercolor="#666666"
     borderopacity="1.0"
     inkscape:pageopacity="0.0"
     inkscape:pageshadow="2"
     inkscape:zoom="1.4"
     inkscape:cx="14.288144"
     inkscape:cy="191.83451"
     inkscape:document-units="px"
     inkscape:current-layer="layer1"
     showgrid="false"
     units="px"
     inkscape:window-width="1920"
     inkscape:window-height="1017"
     inkscape:window-x="1912"
     inkscape:window-y="-8"
     inkscape:window-maximized="1" />
  <metadata
     id="metadata8157">
    <rdf:RDF>
      <cc:Work
         rdf:about="">
        <dc:format>image/svg+xml</dc:format>
        <dc:type
           rdf:resource="http://purl.org/dc/dcmitype/StillImage" />
        <dc:title></dc:title>
      </cc:Work>
    </rdf:RDF>
  </metadata>
  <g
     inkscape:label="Layer 1"
     inkscape:groupmode="layer"
     id="layer1"
     transform="translate(0,-762.36226)">
    <g
       id="g8155"
       transform="matrix(1.0475167,0,0,0.87510671,-539.95314,117.97312)"
       style="fill:#7a7a7a;fill-opacity:1">
      <path
         inkscape:export-ydpi="15.4"
         inkscape:export-xdpi="15.4"
         inkscape:export-filename="C:\Users\Mike\OneDrive\Projects\RaspPI\Source\Android\cancam-android\app\src\main\res\mipmap-hdpi\ic_launcher_round.png"
         inkscape:connector-curvature="0"
         id="path6-5-7-5-5-2-8-8-9"
         d="m 630.31756,768.11781 c -0.0584,8.71167 -0.0986,17.42243 -0.14289,26.13411 l -66.80283,0 c -8.28602,36.34555 -16.52962,72.69907 -24.79721,109.05135 20.99503,-2.18273 42.03351,-3.94513 63.10233,-5.05986 0.14778,-24.47735 0.32585,-48.94882 0.49803,-73.42618 35.5987,0.2336 71.19725,0.27385 106.79596,0.5409 0.1045,24.52408 0.31985,49.05459 0.47964,73.58537 20.84741,1.35504 41.64512,3.41758 62.39408,6.0008 -6.63128,-36.91294 -13.45885,-73.79278 -20.1578,-110.69238 l -71.43814,0 c -0.0501,-8.58497 -0.1041,-17.16977 -0.1041,-25.75243 -16.60533,-0.31154 -33.21643,-0.24134 -49.82707,-0.38168 z"
         style="opacity:1;fill:#7a7a7a;fill-opacity:1;stroke:none;stroke-width:2.0617466;stroke-miterlimit:4;stroke-dasharray:none;stroke-opacity:1" />
      <path
         inkscape:export-ydpi="15.4"
         inkscape:export-xdpi="15.4"
         inkscape:export-filename="C:\Users\Mike\OneDrive\Projects\RaspPI\Source\Android\cancam-android\app\src\main\res\mipmap-hdpi\ic_launcher_round.png"
         id="path6-5-6-0-1-9-0-5"
         d="m 626.35616,886.3937 c 0.0978,-11.30853 0.1418,-22.61701 0.24,-33.9255 19.09422,0.12447 38.18841,0.0624 57.27648,0.33844 0,11.13578 0.14198,22.27848 0.19065,33.41428 -17.10728,-12.51047 -40.67977,-12.55886 -57.70707,0.17394 z"
         style="opacity:1;fill:#7a7a7a;fill-opacity:1;stroke:none;stroke-width:2.0617466;stroke-miterlimit:4;stroke-dasharray:none;stroke-opacity:1"
         inkscape:connector-curvature="0" />
      <path
         inkscape:export-ydpi="15.4"
         inkscape:export-xdpi="15.4"
         inkscape:export-filename="C:\Users\Mike\OneDrive\Projects\RaspPI\Source\Android\cancam-android\app\src\main\res\mipmap-hdpi\ic_launcher_round.png"
         id="path8-5-5-9-1-5-2-6"
         d="m 650.32015,903.00309 c 7.3141,-1.39493 15.15109,0.1844 21.33334,4.3443 7.30796,4.8236 12.27225,12.95924 13.31185,21.64178 1.06424,8.12339 -1.19945,16.65223 -6.29917,23.09199 -4.9396,6.37211 -12.57974,10.6365 -20.6567,11.23871 -8.68587,0.78028 -17.56249,-2.73438 -23.48633,-9.10037 -6.97578,-7.23236 -9.86081,-17.99182 -7.73243,-27.76809 2.28836,-11.53368 11.86008,-21.36526 23.52944,-23.44832 z"
         style="opacity:1;fill:#7a7a7a;fill-opacity:1;stroke:none;stroke-width:2.0617466;stroke-miterlimit:4;stroke-dasharray:none;stroke-opacity:1"
         inkscape:connector-curvature="0" />
      <path
         inkscape:export-ydpi="15.4"
         inkscape:export-xdpi="15.4"
         inkscape:export-filename="C:\Users\Mike\OneDrive\Projects\RaspPI\Source\Android\cancam-android\app\src\main\res\mipmap-hdpi\ic_launcher_round.png"
         inkscape:connector-curvature="0"
         id="path10-7-6-3-0-1-2-61"
         d="m 600.96055,918.28691 c -19.55387,1.21504 -39.08239,3.15668 -58.54459,5.83752 -8.17073,1.52361 -16.39273,2.57695 -24.56859,4.05564 1.43958,22.15246 2.88262,44.30542 4.32507,66.45788 4.96709,-0.86788 10.16223,-1.44191 26.26679,-6.53965 14.95747,-4.73466 23.74632,-10.68138 29.81419,-14.21414 4.03639,-2.35004 9.31279,-7.68622 11.73423,-7.70919 2.73336,-0.026 3.45281,2.3997 2.97387,4.81899 -0.47895,2.4193 -10.58281,17.71881 -19.25768,24.06039 -13.43758,9.82315 -22.53265,13.71075 -29.5754,16.32875 -2.76066,1.0262 -14.62474,4.2588 -19.10255,4.8904 l -3.41066,0 0,19.7067 263.65778,0 0,-15.4715 c 0.0899,-1.379 0.17961,-2.7582 0.26943,-4.1372 -0.0671,0.01 -0.18053,-3e-4 -0.26943,0 l 0,-0.098 -1.16955,0 c -4.47778,-0.6315 -16.34191,-3.8642 -19.10257,-4.8904 -7.04274,-2.6179 -16.13981,-6.5056 -29.57742,-16.32875 -8.67486,-6.34155 -18.77668,-21.64105 -19.25564,-24.06035 -0.47895,-2.41932 0.23848,-4.84504 2.97183,-4.81901 2.42143,0.0229 7.69781,5.35916 11.73421,7.70919 6.06788,3.53276 14.85671,9.47949 29.81422,14.21415 16.10453,5.09774 21.30171,5.67175 26.26882,6.53965 1.44244,-22.15247 2.88551,-44.30542 4.32507,-66.45789 -8.17587,-1.47867 -16.39786,-2.53203 -24.56861,-4.05564 -19.46219,-2.68084 -38.9907,-4.62248 -58.54457,-5.83752 0.10795,6.66677 -0.80323,14.89016 -1.74514,21.49266 -1.79705,13.34639 -6.3007,24.29575 -14.54277,32.95545 -3.58395,3.9152 -7.80076,6.73362 -12.0465,9.26655 2.79485,3.91521 5.87419,7.48524 8.89302,11.12394 7.15565,8.40247 14.78682,16.32337 22.96431,23.14797 l -114.25613,0 c 8.17771,-6.8246 15.8105,-14.7453 22.96633,-23.14797 3.01884,-3.6387 6.09819,-7.20873 8.89304,-11.12394 -4.24575,-2.53293 -8.46258,-5.35135 -12.04651,-9.26655 -8.24208,-8.6597 -12.74573,-19.60906 -14.54277,-32.95545 -0.94191,-6.6025 -1.85308,-14.82589 -1.74513,-21.49266 z"
         style="opacity:1;fill:#7a7a7a;fill-opacity:1;stroke:none;stroke-width:2.0617466;stroke-miterlimit:4;stroke-dasharray:none;stroke-opacity:1" />
    </g>
  </g>
</svg>
