<?xml version="1.0" encoding="UTF-8" standalone="no"?>
<!-- Generator: Adobe Illustrator 16.0.0, SVG Export Plug-In . SVG Version: 6.00 Build 0)  -->

<svg
   xmlns:dc="http://purl.org/dc/elements/1.1/"
   xmlns:cc="http://creativecommons.org/ns#"
   xmlns:rdf="http://www.w3.org/1999/02/22-rdf-syntax-ns#"
   xmlns:svg="http://www.w3.org/2000/svg"
   xmlns="http://www.w3.org/2000/svg"
   xmlns:sodipodi="http://sodipodi.sourceforge.net/DTD/sodipodi-0.dtd"
   xmlns:inkscape="http://www.inkscape.org/namespaces/inkscape"
   version="1.1"
   id="Capa_1"
   x="0px"
   y="0px"
   width="386.17001"
   height="502.255"
   viewBox="0 0 384.66154 500.29307"
   xml:space="preserve"
   inkscape:version="0.91 r13725"
   sodipodi:docname="keyboard_show.svg"><metadata
     id="metadata42"><rdf:RDF><cc:Work
         rdf:about=""><dc:format>image/svg+xml</dc:format><dc:type
           rdf:resource="http://purl.org/dc/dcmitype/StillImage" /><dc:title /></cc:Work></rdf:RDF></metadata><defs
     id="defs40" /><sodipodi:namedview
     pagecolor="#ffffff"
     bordercolor="#666666"
     borderopacity="1"
     objecttolerance="10"
     gridtolerance="10"
     guidetolerance="10"
     inkscape:pageopacity="0"
     inkscape:pageshadow="2"
     inkscape:window-width="1920"
     inkscape:window-height="1017"
     id="namedview38"
     showgrid="false"
     inkscape:zoom="1.3037281"
     inkscape:cx="-44.439109"
     inkscape:cy="201.39209"
     inkscape:window-x="-8"
     inkscape:window-y="-8"
     inkscape:window-maximized="1"
     inkscape:current-layer="Capa_1" /><g
     id="g8"
     transform="translate(0,-9.7069411)" /><g
     id="g10"
     transform="translate(0,-9.7069411)" /><g
     id="g12"
     transform="translate(0,-9.7069411)" /><g
     id="g14"
     transform="translate(0,-9.7069411)" /><g
     id="g16"
     transform="translate(0,-9.7069411)" /><g
     id="g18"
     transform="translate(0,-9.7069411)" /><g
     id="g20"
     transform="translate(0,-9.7069411)" /><g
     id="g22"
     transform="translate(0,-9.7069411)" /><g
     id="g24"
     transform="translate(0,-9.7069411)" /><g
     id="g26"
     transform="translate(0,-9.7069411)" /><g
     id="g28"
     transform="translate(0,-9.7069411)" /><g
     id="g30"
     transform="translate(0,-9.7069411)" /><g
     id="g32"
     transform="translate(0,-9.7069411)" /><g
     id="g34"
     transform="translate(0,-9.7069411)" /><g
     id="g36"
     transform="translate(0,-9.7069411)" /><path
     d="m 346.19491,384.66092 -307.72881,0 C 17.30974,384.66092 0,367.35117 0,346.19482 l 0,-192.3305 c 0,-21.15636 17.30974,-38.4661 38.4661,-38.4661 l 307.72881,0 c 21.15635,0 38.4661,17.30974 38.4661,38.4661 l 0,192.3305 c 0,21.15635 -17.30975,38.4661 -38.4661,38.4661 z m -173.09745,-57.69916 38.4661,0 0,-38.4661 -38.4661,0 0,38.4661 z m 0,-57.69915 38.4661,0 0,-38.46609 -38.4661,0 0,38.46609 z m -57.69915,57.69915 38.46609,0 0,-38.4661 -38.46609,0 0,38.4661 z m 0,-57.69915 38.46609,0 0,-38.46609 -38.46609,0 0,38.46609 z m -19.23306,-38.46609 -38.4661,0 0,38.46609 38.4661,0 0,-38.46609 z m 0,57.69914 -38.4661,0 0,38.4661 38.4661,0 0,-38.4661 z m 173.09746,-134.63134 -153.8644,0 0,38.4661 153.8644,0 0,-38.4661 z m 0,76.9322 -38.46611,0 0,38.46609 38.46611,0 0,-38.46609 z m 0,57.69914 -38.46611,0 0,38.4661 38.46611,0 0,-38.4661 z m 57.69915,-57.69914 -38.46609,0 0,38.46609 38.46609,0 0,-38.46609 z m 0,57.69914 -38.46609,0 0,38.4661 38.46609,0 0,-38.4661 z M 192.3305,2.5136261e-5 269.26271,76.93219 l -153.8644,0 L 192.3305,2.5136261e-5 Z"
     id="path6-5"
     inkscape:connector-curvature="0"
     style="fill:#ffffff" /></svg>