<?xml version="1.0" encoding="UTF-8" standalone="no"?>
<!-- Generator: Adobe Illustrator 19.0.0, SVG Export Plug-In . SVG Version: 6.00 Build 0)  -->

<svg
   xmlns:dc="http://purl.org/dc/elements/1.1/"
   xmlns:cc="http://creativecommons.org/ns#"
   xmlns:rdf="http://www.w3.org/1999/02/22-rdf-syntax-ns#"
   xmlns:svg="http://www.w3.org/2000/svg"
   xmlns="http://www.w3.org/2000/svg"
   xmlns:sodipodi="http://sodipodi.sourceforge.net/DTD/sodipodi-0.dtd"
   xmlns:inkscape="http://www.inkscape.org/namespaces/inkscape"
   version="1.1"
   id="Layer_1"
   x="0px"
   y="0px"
   viewBox="0 0 508 508"
   style="enable-background:new 0 0 508 508;"
   xml:space="preserve"
   inkscape:version="0.91 r13725"
   sodipodi:docname="location_waiting.svg"
   inkscape:export-filename="C:\Users\Mike\OneDrive\Projects\RaspPI\Source\Android\cancam-android\app\src\main\res\drawable\ic_location_waiting.png"
   inkscape:export-xdpi="17.716536"
   inkscape:export-ydpi="17.716536"><metadata
     id="metadata49"><rdf:RDF><cc:Work
         rdf:about=""><dc:format>image/svg+xml</dc:format><dc:type
           rdf:resource="http://purl.org/dc/dcmitype/StillImage" /><dc:title /></cc:Work></rdf:RDF></metadata><defs
     id="defs47" /><sodipodi:namedview
     pagecolor="#ffffff"
     bordercolor="#666666"
     borderopacity="1"
     objecttolerance="10"
     gridtolerance="10"
     guidetolerance="10"
     inkscape:pageopacity="0"
     inkscape:pageshadow="2"
     inkscape:window-width="1920"
     inkscape:window-height="1017"
     id="namedview45"
     showgrid="false"
     inkscape:zoom="0.32849843"
     inkscape:cx="-825.24645"
     inkscape:cy="182.95915"
     inkscape:window-x="1912"
     inkscape:window-y="-8"
     inkscape:window-maximized="1"
     inkscape:current-layer="Layer_1"
     showguides="true"
     inkscape:guide-bbox="true" /><g
     id="g15" /><g
     id="g17" /><g
     id="g19" /><g
     id="g21" /><g
     id="g23" /><g
     id="g25" /><g
     id="g27" /><g
     id="g29" /><g
     id="g31" /><g
     id="g33" /><g
     id="g35" /><g
     id="g37" /><g
     id="g39" /><g
     id="g41" /><g
     id="g43" /><circle
     style="opacity:1;fill:#a9c8ff;fill-opacity:1;fill-rule:nonzero;stroke:none;stroke-width:5.0240531;stroke-linejoin:round;stroke-miterlimit:4;stroke-dasharray:none;stroke-opacity:1"
     id="path12750"
     cx="254.18643"
     cy="253.81357"
     inkscape:export-filename="C:\Users\Mike\OneDrive\Projects\RaspPI\Source\Android\cancam-android\app\src\main\res\mipmap-hdpi\ic_launcher_round.png"
     inkscape:export-xdpi="15.4"
     inkscape:export-ydpi="15.4"
     r="254" /><path
     style="opacity:1;fill:#ffffff;fill-opacity:1;stroke:none;stroke-width:3;stroke-miterlimit:4;stroke-dasharray:none;stroke-opacity:1"
     d="m 228.37862,72.839137 c -0.071,10.587025 -0.11976,21.172895 -0.17364,31.759903 l -81.18326,0 c -10.06973,44.16955 -20.08791,88.34877 -30.13522,132.5265 25.51455,-2.6526 51.08193,-4.7944 76.68617,-6.14909 0.17958,-29.7465 0.39598,-59.48587 0.60524,-89.23238 43.26192,0.28387 86.52364,0.33279 129.78557,0.65732 0.127,29.80331 0.38871,59.61443 0.5829,89.42586 25.33516,1.64675 50.60994,4.15327 75.82546,7.29258 -8.05879,-44.85907 -16.35611,-89.67791 -24.49711,-134.52079 l -86.81641,0 c -0.0608,-10.433008 -0.1265,-20.865828 -0.1265,-31.296048 -20.17991,-0.378612 -40.36684,-0.293294 -60.55319,-0.463855 z"
     id="path6-5-7-5-5-2-8-8-9"
     inkscape:connector-curvature="0"
     inkscape:export-filename="C:\Users\Mike\OneDrive\Projects\RaspPI\Source\Android\cancam-android\app\src\main\res\mipmap-hdpi\ic_launcher_round.png"
     inkscape:export-xdpi="15.4"
     inkscape:export-ydpi="15.4" /><path
     inkscape:connector-curvature="0"
     style="opacity:1;fill:#ffffff;fill-opacity:1;stroke:none;stroke-width:3;stroke-miterlimit:4;stroke-dasharray:none;stroke-opacity:1"
     d="m 223.56448,216.5759 c 0.11887,-13.74289 0.1723,-27.48571 0.29167,-41.22853 23.20455,0.15125 46.4091,0.0757 69.6062,0.41129 0,13.53294 0.17253,27.0743 0.23167,40.60725 -20.7899,-15.20356 -49.43676,-15.26235 -70.12948,0.2114 z"
     id="path6-5-6-0-1-9-0-5"
     inkscape:export-filename="C:\Users\Mike\OneDrive\Projects\RaspPI\Source\Android\cancam-android\app\src\main\res\mipmap-hdpi\ic_launcher_round.png"
     inkscape:export-xdpi="15.4"
     inkscape:export-ydpi="15.4" /><path
     inkscape:connector-curvature="0"
     style="opacity:1;fill:#ffffff;fill-opacity:1;stroke:none;stroke-width:3;stroke-miterlimit:4;stroke-dasharray:none;stroke-opacity:1"
     d="m 252.6871,236.76073 c 8.88858,-1.69521 18.41263,0.22409 25.92572,5.27948 8.88111,5.86198 14.91404,15.74894 16.17744,26.30056 1.29335,9.87207 -1.45766,20.2369 -7.65515,28.06292 -6.00295,7.74381 -15.28777,12.92619 -25.10342,13.65802 -10.55566,0.94826 -21.3431,-3.32299 -28.54217,-11.05936 -8.47743,-8.78928 -11.98351,-21.86487 -9.39696,-33.74565 2.78098,-14.01651 14.41317,-25.96449 28.59454,-28.49597 z"
     id="path8-5-5-9-1-5-2-6"
     inkscape:export-filename="C:\Users\Mike\OneDrive\Projects\RaspPI\Source\Android\cancam-android\app\src\main\res\mipmap-hdpi\ic_launcher_round.png"
     inkscape:export-xdpi="15.4"
     inkscape:export-ydpi="15.4" /><path
     style="opacity:1;fill:#ffffff;fill-opacity:1;stroke:none;stroke-width:3;stroke-miterlimit:4;stroke-dasharray:none;stroke-opacity:1"
     d="m 192.70203,255.33466 c -23.76317,1.47659 -47.49553,3.8362 -71.14729,7.09414 -9.92962,1.85159 -19.92155,3.13169 -29.857392,4.92868 1.74946,26.92116 3.50314,53.84291 5.25611,80.76406 6.036332,-1.05471 12.349822,-1.75229 31.921152,-7.94741 18.17732,-5.75388 28.85811,-12.98074 36.2322,-17.27399 4.9053,-2.85592 11.31752,-9.3408 14.26022,-9.36872 3.32175,-0.0316 4.19608,2.91627 3.61404,5.85637 -0.58205,2.9401 -12.86093,21.53308 -23.40322,29.23977 -16.33024,11.93779 -27.38318,16.6623 -35.94199,19.84375 -3.35494,1.24714 -17.77297,5.17566 -23.21471,5.94321 l -4.144862,0 0,23.94892 320.414552,0 0,-18.80195 c 0.10922,-1.67593 0.21826,-3.35195 0.32742,-5.02791 -0.0815,0.009 -0.21938,-3.4e-4 -0.32742,0 l 0,-0.119 -1.42131,0 c -5.44171,-0.76753 -19.85977,-4.69606 -23.21471,-5.9432 -8.55882,-3.18146 -19.61418,-7.90597 -35.94447,-19.84375 -10.54227,-7.70669 -22.81868,-26.29967 -23.40074,-29.23977 -0.58204,-2.9401 0.28982,-5.888 3.61157,-5.85638 2.94269,0.0279 9.35489,6.5128 14.2602,9.36873 7.37409,4.29325 18.05487,11.5201 36.23222,17.27398 19.57132,6.19512 25.88728,6.89271 31.92363,7.94742 1.75296,-26.92116 3.50666,-53.84291 5.25611,-80.76407 -9.93584,-1.79698 -19.92777,-3.07709 -29.85741,-4.92867 -23.65175,-3.25795 -47.3841,-5.61756 -71.14728,-7.09415 0.13119,8.10189 -0.97613,18.09552 -2.1208,26.11933 -2.1839,16.21941 -7.65703,29.5258 -17.67334,40.04965 -4.35545,4.75802 -9.48,8.18313 -14.63972,11.26133 3.39649,4.75802 7.13871,9.09656 10.80739,13.51856 8.69604,10.21122 17.96994,19.83732 27.90776,28.13099 l -138.85168,0 c 9.9381,-8.29381 19.21398,-17.91951 27.91023,-28.13099 3.66869,-4.422 7.41092,-8.76054 10.80741,-13.51856 -5.15973,-3.0782 -10.28428,-6.50331 -14.63972,-11.26133 -10.01633,-10.52385 -15.48946,-23.83024 -17.67335,-40.04965 -1.14468,-8.02381 -2.25199,-18.01744 -2.1208,-26.11933 z"
     id="path10-7-6-3-0-1-2-61"
     inkscape:connector-curvature="0"
     inkscape:export-filename="C:\Users\Mike\OneDrive\Projects\RaspPI\Source\Android\cancam-android\app\src\main\res\mipmap-hdpi\ic_launcher_round.png"
     inkscape:export-xdpi="15.4"
     inkscape:export-ydpi="15.4" /></svg>