<?xml version="1.0" encoding="UTF-8" standalone="no"?>
<!-- Generator: Adobe Illustrator 19.0.0, SVG Export Plug-In . SVG Version: 6.00 Build 0)  -->

<svg
   xmlns:dc="http://purl.org/dc/elements/1.1/"
   xmlns:cc="http://creativecommons.org/ns#"
   xmlns:rdf="http://www.w3.org/1999/02/22-rdf-syntax-ns#"
   xmlns:svg="http://www.w3.org/2000/svg"
   xmlns="http://www.w3.org/2000/svg"
   xmlns:sodipodi="http://sodipodi.sourceforge.net/DTD/sodipodi-0.dtd"
   xmlns:inkscape="http://www.inkscape.org/namespaces/inkscape"
   version="1.1"
   id="Layer_1"
   x="0px"
   y="0px"
   viewBox="0 0 300.00001 300.00001"
   xml:space="preserve"
   inkscape:version="0.91 r13725"
   sodipodi:docname="missing_contents.svg"
   width="300"
   height="300"><metadata
     id="metadata41"><rdf:RDF><cc:Work
         rdf:about=""><dc:format>image/svg+xml</dc:format><dc:type
           rdf:resource="http://purl.org/dc/dcmitype/StillImage" /><dc:title></dc:title></cc:Work></rdf:RDF></metadata><defs
     id="defs39" /><sodipodi:namedview
     pagecolor="#ffffff"
     bordercolor="#666666"
     borderopacity="1"
     objecttolerance="10"
     gridtolerance="10"
     guidetolerance="10"
     inkscape:pageopacity="0"
     inkscape:pageshadow="2"
     inkscape:window-width="1920"
     inkscape:window-height="1017"
     id="namedview37"
     showgrid="false"
     inkscape:zoom="0.47565494"
     inkscape:cx="248.07899"
     inkscape:cy="248.07899"
     inkscape:window-x="1912"
     inkscape:window-y="-8"
     inkscape:window-maximized="1"
     inkscape:current-layer="Layer_1" /><g
     id="g12622"
     transform="matrix(0.6046461,0,0,0.60465341,0,118.60578)"><path
       inkscape:connector-curvature="0"
       id="path3"
       d="m 496.158,51.92701 c 0,-137.022 -111.069,-248.082 -248.075,-248.082 -137.013,0 -248.083,111.06 -248.083,248.082 0,137.001 111.07,248.07 248.083,248.07 137.006,0 248.075,-111.069 248.075,-248.07 z"
       style="fill:#25b7d3" /><path
       inkscape:connector-curvature="0"
       id="path5"
       d="m 138.216,-22.56599 c 0,-13.915 4.467,-28.015 13.403,-42.297 8.933,-14.282 21.973,-26.11 39.111,-35.486 17.139,-9.373 37.134,-14.062 59.985,-14.062 21.238,0 39.99,3.921 56.25,11.755 16.26,7.838 28.818,18.495 37.683,31.97 8.861,13.479 13.293,28.125 13.293,43.945 0,12.452 -2.527,23.3670005 -7.581,32.7390005 -5.054,9.3759995 -11.062,17.4689995 -18.018,24.2789995 -6.959,6.812 -19.446,18.275 -37.463,34.388 -4.981,4.542 -8.975,8.535 -11.975,11.976 -3.004,3.443 -5.239,6.592 -6.702,9.447 -1.466,2.857 -2.603,5.713 -3.406,8.57 -0.807,2.855 -2.015,7.875 -3.625,15.051 -2.784,15.236 -11.501,22.852 -26.147,22.852 -7.618,0 -14.028,-2.489 -19.226,-7.471 -5.201,-4.979 -7.8,-12.377 -7.8,-22.192 0,-12.305 1.902,-22.962 5.713,-31.97 3.808,-9.01 8.861,-16.92 15.161,-23.73 6.296,-6.812 14.794,-14.904 25.488,-24.28 9.373,-8.202 16.15,-14.3919995 20.325,-18.5669995 4.175,-4.175 7.69,-8.823 10.547,-13.953 2.856,-5.1260005 4.285,-10.6910005 4.285,-16.6990005 0,-11.718 -4.36,-21.605 -13.074,-29.663 -8.717,-8.054 -19.961,-12.085 -33.728,-12.085 -16.116,0 -27.981,4.065 -35.596,12.195 -7.618,8.13 -14.062,20.105 -19.336,35.925 -4.981,16.5550005 -14.43,24.8290005 -28.345,24.8290005 -8.206,0 -15.127,-2.891 -20.764,-8.679 -5.639,-5.786 -8.458,-12.0480005 -8.458,-18.7870005 z m 107.226,240.82 c -8.937,0 -16.737,-2.895 -23.401,-8.68 -6.667,-5.784 -9.998,-13.877 -9.998,-24.279 0,-9.229 3.22,-16.991 9.668,-23.291 6.444,-6.297 14.354,-9.448 23.73,-9.448 9.229,0 16.991,3.151 23.291,9.448 6.296,6.3 9.448,14.062 9.448,23.291 0,10.255 -3.296,18.312 -9.888,24.17 -6.592,5.858 -14.208,8.789 -22.85,8.789 z"
       style="fill:#ffffff" /></g><g
     id="g7"
     transform="translate(0,-196.15799)" /><g
     id="g9"
     transform="translate(0,-196.15799)" /><g
     id="g11"
     transform="translate(0,-196.15799)" /><g
     id="g13"
     transform="translate(0,-196.15799)" /><g
     id="g15"
     transform="translate(0,-196.15799)" /><g
     id="g17"
     transform="translate(0,-196.15799)" /><g
     id="g19"
     transform="translate(0,-196.15799)" /><g
     id="g21"
     transform="translate(0,-196.15799)" /><g
     id="g23"
     transform="translate(0,-196.15799)" /><g
     id="g25"
     transform="translate(0,-196.15799)" /><g
     id="g27"
     transform="translate(0,-196.15799)" /><g
     id="g29"
     transform="translate(0,-196.15799)" /><g
     id="g31"
     transform="translate(0,-196.15799)" /><g
     id="g33"
     transform="translate(0,-196.15799)" /><g
     id="g35"
     transform="translate(0,-196.15799)" /><circle
     style="opacity:1;fill:#07ff00;fill-opacity:1;fill-rule:nonzero;stroke:#ffffff;stroke-width:16.99967003;stroke-linecap:butt;stroke-linejoin:miter;stroke-miterlimit:4;stroke-dasharray:none;stroke-opacity:1"
     id="path8111"
     cx="243.83224"
     cy="243.83224"
     r="47.667919" /></svg>