<?xml version="1.0" encoding="iso-8859-1"?>
<!-- Generator: Adobe Illustrator 19.0.0, SVG Export Plug-In . SVG Version: 6.00 Build 0)  -->
<svg xmlns="http://www.w3.org/2000/svg" xmlns:xlink="http://www.w3.org/1999/xlink" version="1.1" id="Layer_1" x="0px" y="0px" viewBox="0 0 455 455" style="enable-background:new 0 0 455 455;" xml:space="preserve" width="512px" height="512px">
<g>
	<path d="M367.702,351.4c-16.542,0-30,13.458-30,30c0,16.542,13.458,30,30,30c16.542,0,30-13.458,30-30   C397.702,364.858,384.244,351.4,367.702,351.4z" fill="#dedede"/>
	<path d="M367.702,43.6c-48.136,0-87.298,39.162-87.298,87.298c0,20.397,7.031,39.181,18.798,54.058l68.5,86.124l68.5-86.124   C447.968,170.078,455,151.294,455,130.898C455,82.761,415.838,43.6,367.702,43.6z M367.702,150.898c-11.028,0-20-8.972-20-20   s8.972-20,20-20s20,8.972,20,20S378.73,150.898,367.702,150.898z" fill="#dedede"/>
	<rect x="142.399" y="366.4" width="40" height="30" fill="#dedede"/>
	<rect x="207.5" y="366.4" width="40" height="30" fill="#dedede"/>
	<rect x="272.601" y="366.4" width="40" height="30" fill="#dedede"/>
	<path d="M155.799,184.956c11.766-14.877,18.798-33.661,18.798-54.058c0-48.136-39.162-87.298-87.298-87.298   C39.162,43.6,0,82.761,0,130.898c0,20.397,7.032,39.181,18.798,54.058l68.5,86.124L155.799,184.956z M67.298,130.898   c0-11.028,8.972-20,20-20c11.028,0,20,8.972,20,20s-8.972,20-20,20C76.27,150.898,67.298,141.926,67.298,130.898z" fill="#dedede"/>
	<path d="M87.298,351.4c-16.542,0-30,13.458-30,30c0,16.542,13.458,30,30,30c16.542,0,30-13.458,30-30   C117.298,364.858,103.84,351.4,87.298,351.4z" fill="#dedede"/>
</g>
<g>
</g>
<g>
</g>
<g>
</g>
<g>
</g>
<g>
</g>
<g>
</g>
<g>
</g>
<g>
</g>
<g>
</g>
<g>
</g>
<g>
</g>
<g>
</g>
<g>
</g>
<g>
</g>
<g>
</g>
</svg>
