<?xml version="1.0" encoding="UTF-8" standalone="no"?>
<!-- Generator: Adobe Illustrator 16.0.0, SVG Export Plug-In . SVG Version: 6.00 Build 0)  -->

<svg
   xmlns:dc="http://purl.org/dc/elements/1.1/"
   xmlns:cc="http://creativecommons.org/ns#"
   xmlns:rdf="http://www.w3.org/1999/02/22-rdf-syntax-ns#"
   xmlns:svg="http://www.w3.org/2000/svg"
   xmlns="http://www.w3.org/2000/svg"
   xmlns:sodipodi="http://sodipodi.sourceforge.net/DTD/sodipodi-0.dtd"
   xmlns:inkscape="http://www.inkscape.org/namespaces/inkscape"
   version="1.1"
   id="Capa_1"
   x="0px"
   y="0px"
   width="700"
   height="300"
   viewBox="0 0 700 300"
   xml:space="preserve"
   inkscape:version="0.91 r13725"
   sodipodi:docname="review.svg"><metadata
     id="metadata41"><rdf:RDF><cc:Work
         rdf:about=""><dc:format>image/svg+xml</dc:format><dc:type
           rdf:resource="http://purl.org/dc/dcmitype/StillImage" /><dc:title></dc:title></cc:Work></rdf:RDF></metadata><defs
     id="defs39" /><sodipodi:namedview
     pagecolor="#ffffff"
     bordercolor="#666666"
     borderopacity="1"
     objecttolerance="10"
     gridtolerance="10"
     guidetolerance="10"
     inkscape:pageopacity="0"
     inkscape:pageshadow="2"
     inkscape:window-width="1920"
     inkscape:window-height="1017"
     id="namedview37"
     showgrid="false"
     inkscape:zoom="0.65186406"
     inkscape:cx="-57.356748"
     inkscape:cy="93.748691"
     inkscape:window-x="1912"
     inkscape:window-y="-8"
     inkscape:window-maximized="1"
     inkscape:current-layer="Capa_1" /><g
     id="g7"
     transform="translate(0,-212)" /><g
     id="g9"
     transform="translate(0,-212)" /><g
     id="g11"
     transform="translate(0,-212)" /><g
     id="g13"
     transform="translate(0,-212)" /><g
     id="g15"
     transform="translate(0,-212)" /><g
     id="g17"
     transform="translate(0,-212)" /><g
     id="g19"
     transform="translate(0,-212)" /><g
     id="g21"
     transform="translate(0,-212)" /><g
     id="g23"
     transform="translate(0,-212)" /><g
     id="g25"
     transform="translate(0,-212)" /><g
     id="g27"
     transform="translate(0,-212)" /><g
     id="g29"
     transform="translate(0,-212)" /><g
     id="g31"
     transform="translate(0,-212)" /><g
     id="g33"
     transform="translate(0,-212)" /><g
     id="g35"
     transform="translate(0,-212)" /><g
     id="g3"
     style="fill:#7a7a7a;fill-opacity:1"
     transform="matrix(0.84944386,0,0,0.91674977,265.08474,-81.367902)"><path
       d="M 256,96 C 144.341,96 47.559,161.021 0,256 47.559,350.979 144.341,416 256,416 367.656,416 464.439,350.979 512,256 464.441,161.021 367.656,96 256,96 Z m 126.225,84.852 c 30.082,19.187 55.572,44.887 74.719,75.148 -19.146,30.261 -44.639,55.961 -74.719,75.148 C 344.428,355.257 300.779,368 256,368 211.22,368 167.572,355.257 129.775,331.148 99.695,311.96 74.205,286.26 55.058,256 c 19.146,-30.262 44.637,-55.962 74.717,-75.148 1.959,-1.25 3.938,-2.461 5.929,-3.65 C 130.725,190.866 128,205.613 128,221 c 0,70.691 57.308,128 128,128 70.691,0 128,-57.309 128,-128 0,-15.387 -2.725,-30.134 -7.703,-43.799 1.988,1.189 3.969,2.401 5.928,3.651 z M 256,205 c 0,26.51 -21.49,48 -48,48 -26.51,0 -48,-21.49 -48,-48 0,-26.51 21.49,-48 48,-48 26.51,0 48,21.49 48,48 z"
       id="path5"
       style="fill:#7a7a7a;fill-opacity:1"
       inkscape:connector-curvature="0" /></g></svg>