<?xml version="1.0" encoding="UTF-8" standalone="no"?>
<!-- Generator: Adobe Illustrator 19.0.0, SVG Export Plug-In . SVG Version: 6.00 Build 0)  -->

<svg
   xmlns:dc="http://purl.org/dc/elements/1.1/"
   xmlns:cc="http://creativecommons.org/ns#"
   xmlns:rdf="http://www.w3.org/1999/02/22-rdf-syntax-ns#"
   xmlns:svg="http://www.w3.org/2000/svg"
   xmlns="http://www.w3.org/2000/svg"
   xmlns:sodipodi="http://sodipodi.sourceforge.net/DTD/sodipodi-0.dtd"
   xmlns:inkscape="http://www.inkscape.org/namespaces/inkscape"
   version="1.1"
   id="Capa_1"
   x="0px"
   y="0px"
   viewBox="0 0 512 512"
   style="enable-background:new 0 0 512 512;"
   xml:space="preserve"
   inkscape:version="0.91 r13725"
   sodipodi:docname="shopping_enable.svg"><metadata
     id="metadata73"><rdf:RDF><cc:Work
         rdf:about=""><dc:format>image/svg+xml</dc:format><dc:type
           rdf:resource="http://purl.org/dc/dcmitype/StillImage" /><dc:title></dc:title></cc:Work></rdf:RDF></metadata><defs
     id="defs71" /><sodipodi:namedview
     pagecolor="#ffffff"
     bordercolor="#666666"
     borderopacity="1"
     objecttolerance="10"
     gridtolerance="10"
     guidetolerance="10"
     inkscape:pageopacity="0"
     inkscape:pageshadow="2"
     inkscape:window-width="834"
     inkscape:window-height="480"
     id="namedview69"
     showgrid="false"
     inkscape:zoom="0.4609375"
     inkscape:cx="256"
     inkscape:cy="256"
     inkscape:window-x="450"
     inkscape:window-y="358"
     inkscape:window-maximized="0"
     inkscape:current-layer="Capa_1" /><path
     style="fill:#F04D4E;"
     d="M279.273,139.636h46.545V34.909h-93.091v38.877C260.189,83.479,279.273,109.801,279.273,139.636z"
     id="path3" /><rect
     x="349.091"
     y="34.909"
     style="fill:#DE333F;"
     width="23.273"
     height="104.727"
     id="rect5" /><rect
     x="395.636"
     y="81.455"
     style="fill:#70B7E5;"
     width="46.545"
     height="58.182"
     id="rect7" /><path
     style="fill:#4C9CD6;"
     d="M407.273,139.636c2.246,0,4.503,0.652,6.458,1.955l5.178,3.456V81.455h-23.273v63.581l5.19-3.456  C402.781,140.288,405.027,139.636,407.273,139.636z"
     id="path9" /><path
     style="fill:#DD353F;"
     d="M301.917,160.14c0.372-2.909,0.628-5.853,0.628-8.867c0-31.942-21.469-58.799-50.735-67.107  c16.815,12.893,27.462,33.199,27.462,55.471c0,1.769-0.07,3.526-0.209,5.271L301.917,160.14z"
     id="path11" /><g
     id="g13"><circle
       style="fill:#014463;"
       cx="186.182"
       cy="477.091"
       r="23.273"
       id="circle15" /><circle
       style="fill:#014463;"
       cx="395.636"
       cy="477.091"
       r="23.273"
       id="circle17" /></g><path
     style="fill:#FFCA5D;"
     d="M435.433,349.091c11.38,0,21.236-8.495,22.935-19.759l28.218-166.423h-374.33l36.934,186.182H435.433  z"
     id="path19" /><path
     style="fill:#F5B445;"
     d="M464.454,162.909L439.459,306.06c-1.687,11.264-11.555,19.759-22.924,19.759H145.222l4.154,23.273  h286.057c11.38,0,21.236-8.495,22.935-19.759l28.486-166.423H464.454z"
     id="path21" /><g
     id="g23"><path
       style="fill:#014463;"
       d="M407.273,302.545c-6.435,0-11.636-5.201-11.636-11.636v-93.091c0-6.435,5.201-11.636,11.636-11.636   s11.636,5.201,11.636,11.636v93.091C418.909,297.344,413.708,302.545,407.273,302.545z"
       id="path25" /><path
       style="fill:#014463;"
       d="M337.455,302.545c-6.435,0-11.636-5.201-11.636-11.636v-93.091c0-6.435,5.201-11.636,11.636-11.636   s11.636,5.201,11.636,11.636v93.091C349.091,297.344,343.889,302.545,337.455,302.545z"
       id="path27" /><path
       style="fill:#014463;"
       d="M267.636,302.545c-6.435,0-11.636-5.201-11.636-11.636v-93.091c0-6.435,5.201-11.636,11.636-11.636   s11.636,5.201,11.636,11.636v93.091C279.273,297.344,274.071,302.545,267.636,302.545z"
       id="path29" /><path
       style="fill:#014463;"
       d="M197.818,302.545c-6.435,0-11.636-5.201-11.636-11.636v-93.091c0-6.435,5.201-11.636,11.636-11.636   s11.636,5.201,11.636,11.636v93.091C209.455,297.344,204.253,302.545,197.818,302.545z"
       id="path31" /></g><circle
     style="fill:#FFCA5D;"
     cx="34.909"
     cy="81.455"
     r="11.636"
     id="circle33" /><path
     style="fill:#D98B37;"
     d="M218.799,94.022c-2.909-0.628-6.004-0.931-9.344-0.931c-25.67,0-46.545,20.876-46.545,46.545H256  C256,117.562,240.349,98.374,218.799,94.022z"
     id="path35" /><path
     style="fill:#014463;"
     d="M509.254,143.756c-2.211-2.607-5.457-4.119-8.89-4.119h-34.909V69.818  c0-6.435-5.201-11.636-11.636-11.636h-58.182V23.273c0-6.435-5.201-11.636-11.636-11.636h-46.545H221.091  c-6.435,0-11.636,5.201-11.636,11.636v46.545c-38.505,0-69.818,31.313-69.818,69.818h-31.814L96.279,75.369  c-2.944-16.71-17.361-28.823-34.257-28.823H34.909C15.663,46.545,0,62.208,0,81.455s15.663,34.909,34.909,34.909  s34.909-15.663,34.909-34.909c0-3.34-0.617-6.505-1.501-9.565c2.548,1.711,4.48,4.305,5.062,7.564l53.527,276.713  c-13.254,8.204-22.179,22.761-22.179,39.471c0,25.67,20.876,46.545,46.545,46.545h302.545c6.435,0,11.636-5.201,11.636-11.636  c0-6.435-5.201-11.636-11.636-11.636H151.273c-12.835,0-23.273-10.438-23.273-23.273c0-12.835,10.438-23.273,23.273-23.273h284.16  c22.796,0,42.554-17.012,45.917-39.366l30.487-179.782C512.407,149.841,511.465,146.385,509.254,143.756z M34.909,93.091  c-6.423,0-11.636-5.213-11.636-11.636c0-6.423,5.213-11.636,11.636-11.636s11.636,5.213,11.636,11.636  C46.545,87.878,41.332,93.091,34.909,93.091z M395.636,81.455h46.545v58.182h-46.545V81.455z M349.091,34.909h23.273v34.909v69.818  h-23.273V34.909z M232.727,73.786V34.909h93.091v104.727h-23.273h-23.273c0-29.917-19.27-56.134-46.732-65.734  C232.611,73.856,232.657,73.833,232.727,73.786z M209.455,93.091c3.34,0,6.435,0.303,9.344,0.931  C240.349,98.374,256,117.562,256,139.636h-93.091C162.909,113.967,183.785,93.091,209.455,93.091z M458.368,329.332  c-1.699,11.264-11.567,19.759-22.935,19.759H149.19l-36.934-186.182h374.33L458.368,329.332z"
     id="path37" /><g
     id="g39" /><g
     id="g41" /><g
     id="g43" /><g
     id="g45" /><g
     id="g47" /><g
     id="g49" /><g
     id="g51" /><g
     id="g53" /><g
     id="g55" /><g
     id="g57" /><g
     id="g59" /><g
     id="g61" /><g
     id="g63" /><g
     id="g65" /><g
     id="g67" /></svg>