<?xml version="1.0" encoding="UTF-8" standalone="no"?>
<!-- Generator: Adobe Illustrator 19.0.0, SVG Export Plug-In . SVG Version: 6.00 Build 0)  -->

<svg
   xmlns:dc="http://purl.org/dc/elements/1.1/"
   xmlns:cc="http://creativecommons.org/ns#"
   xmlns:rdf="http://www.w3.org/1999/02/22-rdf-syntax-ns#"
   xmlns:svg="http://www.w3.org/2000/svg"
   xmlns="http://www.w3.org/2000/svg"
   xmlns:sodipodi="http://sodipodi.sourceforge.net/DTD/sodipodi-0.dtd"
   xmlns:inkscape="http://www.inkscape.org/namespaces/inkscape"
   version="1.1"
   id="Capa_1"
   x="0px"
   y="0px"
   viewBox="0 0 512 512"
   style="enable-background:new 0 0 512 512;"
   xml:space="preserve"
   inkscape:version="0.91 r13725"
   sodipodi:docname="shopping_disable.svg"><metadata
     id="metadata73"><rdf:RDF><cc:Work
         rdf:about=""><dc:format>image/svg+xml</dc:format><dc:type
           rdf:resource="http://purl.org/dc/dcmitype/StillImage" /><dc:title /></cc:Work></rdf:RDF></metadata><defs
     id="defs71" /><sodipodi:namedview
     pagecolor="#ffffff"
     bordercolor="#666666"
     borderopacity="1"
     objecttolerance="10"
     gridtolerance="10"
     guidetolerance="10"
     inkscape:pageopacity="0"
     inkscape:pageshadow="2"
     inkscape:window-width="1920"
     inkscape:window-height="1017"
     id="namedview69"
     showgrid="false"
     inkscape:zoom="1.3037281"
     inkscape:cx="188.03521"
     inkscape:cy="302.78369"
     inkscape:window-x="1912"
     inkscape:window-y="-8"
     inkscape:window-maximized="1"
     inkscape:current-layer="Capa_1" /><path
     inkscape:connector-curvature="0"
     style="fill:#ffffff;fill-opacity:1"
     d="m 279.29891,139.48295 46.545,0 0,-104.727006 -93.091,0 0,38.877 c 27.462,9.693 46.546,36.015006 46.546,65.850006 z"
     id="path3" /><rect
     x="349.11691"
     y="34.755943"
     style="fill:#ffffff;fill-opacity:1"
     width="23.273001"
     height="104.727"
     id="rect5" /><rect
     x="395.6619"
     y="81.301949"
     style="fill:#ffffff;fill-opacity:1"
     width="46.544998"
     height="58.181999"
     id="rect7" /><path
     inkscape:connector-curvature="0"
     style="fill:#ffffff;fill-opacity:1"
     d="m 435.45891,348.93795 c 11.38,0 21.236,-8.495 22.935,-19.759 l 28.218,-166.423 -374.33,0 36.934,186.182 286.243,0 z"
     id="path19" /><circle
     style="fill:#ffffff;fill-opacity:1"
     cx="34.93491"
     cy="81.301949"
     r="11.636"
     id="circle33" /><path
     inkscape:connector-curvature="0"
     style="fill:#ffffff;fill-opacity:1"
     d="m 218.82491,93.868944 c -2.909,-0.628 -6.004,-0.931 -9.344,-0.931 -25.67,0 -46.545,20.876006 -46.545,46.545006 l 93.09,0 c 0,-22.074 -15.651,-41.262006 -37.201,-45.614006 z"
     id="path35" /><path
     style="fill:#adadad;fill-opacity:1"
     d="M509.254,143.756c-2.211-2.607-5.457-4.119-8.89-4.119h-34.909V69.818  c0-6.435-5.201-11.636-11.636-11.636h-58.182V23.273c0-6.435-5.201-11.636-11.636-11.636h-46.545H221.091  c-6.435,0-11.636,5.201-11.636,11.636v46.545c-38.505,0-69.818,31.313-69.818,69.818h-31.814L96.279,75.369  c-2.944-16.71-17.361-28.823-34.257-28.823H34.909C15.663,46.545,0,62.208,0,81.455s15.663,34.909,34.909,34.909  s34.909-15.663,34.909-34.909c0-3.34-0.617-6.505-1.501-9.565c2.548,1.711,4.48,4.305,5.062,7.564l53.527,276.713  c-13.254,8.204-22.179,22.761-22.179,39.471c0,25.67,20.876,46.545,46.545,46.545h302.545c6.435,0,11.636-5.201,11.636-11.636  c0-6.435-5.201-11.636-11.636-11.636H151.273c-12.835,0-23.273-10.438-23.273-23.273c0-12.835,10.438-23.273,23.273-23.273h284.16  c22.796,0,42.554-17.012,45.917-39.366l30.487-179.782C512.407,149.841,511.465,146.385,509.254,143.756z M34.909,93.091  c-6.423,0-11.636-5.213-11.636-11.636c0-6.423,5.213-11.636,11.636-11.636s11.636,5.213,11.636,11.636  C46.545,87.878,41.332,93.091,34.909,93.091z M395.636,81.455h46.545v58.182h-46.545V81.455z M349.091,34.909h23.273v34.909v69.818  h-23.273V34.909z M232.727,73.786V34.909h93.091v104.727h-23.273h-23.273c0-29.917-19.27-56.134-46.732-65.734  C232.611,73.856,232.657,73.833,232.727,73.786z M209.455,93.091c3.34,0,6.435,0.303,9.344,0.931  C240.349,98.374,256,117.562,256,139.636h-93.091C162.909,113.967,183.785,93.091,209.455,93.091z M458.368,329.332  c-1.699,11.264-11.567,19.759-22.935,19.759H149.19l-36.934-186.182h374.33L458.368,329.332z"
     id="path37" /><g
     id="g13"
     style="fill:#adadad;fill-opacity:1"><circle
       style="fill:#adadad;fill-opacity:1"
       cx="186.182"
       cy="477.091"
       r="23.273"
       id="circle15" /><circle
       style="fill:#adadad;fill-opacity:1"
       cx="395.636"
       cy="477.091"
       r="23.273"
       id="circle17" /></g><g
     id="g23"
     style="fill:#adadad;fill-opacity:1"><path
       style="fill:#adadad;fill-opacity:1"
       d="M407.273,302.545c-6.435,0-11.636-5.201-11.636-11.636v-93.091c0-6.435,5.201-11.636,11.636-11.636   s11.636,5.201,11.636,11.636v93.091C418.909,297.344,413.708,302.545,407.273,302.545z"
       id="path25" /><path
       style="fill:#adadad;fill-opacity:1"
       d="M337.455,302.545c-6.435,0-11.636-5.201-11.636-11.636v-93.091c0-6.435,5.201-11.636,11.636-11.636   s11.636,5.201,11.636,11.636v93.091C349.091,297.344,343.889,302.545,337.455,302.545z"
       id="path27" /><path
       style="fill:#adadad;fill-opacity:1"
       d="M267.636,302.545c-6.435,0-11.636-5.201-11.636-11.636v-93.091c0-6.435,5.201-11.636,11.636-11.636   s11.636,5.201,11.636,11.636v93.091C279.273,297.344,274.071,302.545,267.636,302.545z"
       id="path29" /><path
       style="fill:#adadad;fill-opacity:1"
       d="M197.818,302.545c-6.435,0-11.636-5.201-11.636-11.636v-93.091c0-6.435,5.201-11.636,11.636-11.636   s11.636,5.201,11.636,11.636v93.091C209.455,297.344,204.253,302.545,197.818,302.545z"
       id="path31" /></g><g
     id="g39" /><g
     id="g41" /><g
     id="g43" /><g
     id="g45" /><g
     id="g47" /><g
     id="g49" /><g
     id="g51" /><g
     id="g53" /><g
     id="g55" /><g
     id="g57" /><g
     id="g59" /><g
     id="g61" /><g
     id="g63" /><g
     id="g65" /><g
     id="g67" /></svg>