<?xml version="1.0" encoding="UTF-8" standalone="no"?>
<!-- Generator: Adobe Illustrator 19.0.0, SVG Export Plug-In . SVG Version: 6.00 Build 0)  -->

<svg
   xmlns:dc="http://purl.org/dc/elements/1.1/"
   xmlns:cc="http://creativecommons.org/ns#"
   xmlns:rdf="http://www.w3.org/1999/02/22-rdf-syntax-ns#"
   xmlns:svg="http://www.w3.org/2000/svg"
   xmlns="http://www.w3.org/2000/svg"
   xmlns:sodipodi="http://sodipodi.sourceforge.net/DTD/sodipodi-0.dtd"
   xmlns:inkscape="http://www.inkscape.org/namespaces/inkscape"
   version="1.1"
   id="Layer_1"
   x="0px"
   y="0px"
   viewBox="0 0 512 512"
   style="enable-background:new 0 0 512 512;"
   xml:space="preserve"
   inkscape:version="0.91 r13725"
   sodipodi:docname="socialmedia_enable.svg"><metadata
     id="metadata69"><rdf:RDF><cc:Work
         rdf:about=""><dc:format>image/svg+xml</dc:format><dc:type
           rdf:resource="http://purl.org/dc/dcmitype/StillImage" /></cc:Work></rdf:RDF></metadata><defs
     id="defs67" /><sodipodi:namedview
     pagecolor="#ffffff"
     bordercolor="#666666"
     borderopacity="1"
     objecttolerance="10"
     gridtolerance="10"
     guidetolerance="10"
     inkscape:pageopacity="0"
     inkscape:pageshadow="2"
     inkscape:window-width="1920"
     inkscape:window-height="1017"
     id="namedview65"
     showgrid="false"
     inkscape:zoom="0.921875"
     inkscape:cx="-458.71012"
     inkscape:cy="316.65191"
     inkscape:window-x="-8"
     inkscape:window-y="-8"
     inkscape:window-maximized="1"
     inkscape:current-layer="Layer_1" /><circle
     style="opacity:1;fill:#ffffff;fill-opacity:1;fill-rule:nonzero;stroke:none;stroke-width:6;stroke-linecap:butt;stroke-linejoin:miter;stroke-miterlimit:4;stroke-dasharray:none;stroke-opacity:1"
     id="path8099-2"
     cx="116.33897"
     cy="293.96613"
     r="40.677967" /><circle
     style="opacity:1;fill:#ffffff;fill-opacity:1;fill-rule:nonzero;stroke:none;stroke-width:6;stroke-linecap:butt;stroke-linejoin:miter;stroke-miterlimit:4;stroke-dasharray:none;stroke-opacity:1"
     id="path8099-2-7"
     cx="402.16949"
     cy="296.67798"
     r="40.677967" /><circle
     style="opacity:1;fill:#ffffff;fill-opacity:1;fill-rule:nonzero;stroke:none;stroke-width:6;stroke-linecap:butt;stroke-linejoin:miter;stroke-miterlimit:4;stroke-dasharray:none;stroke-opacity:1"
     id="path8099-2-3"
     cx="273.08475"
     cy="63.457619"
     r="40.677967" /><path
     inkscape:connector-curvature="0"
     id="path23"
     d="m 268.88635,112.11179 c -27.75491,0 -50.3419,-22.583062 -50.3419,-50.341898 0,-27.758834 22.58699,-50.341892 50.3419,-50.341892 27.75884,0 50.34189,22.583058 50.34189,50.341892 0,27.758836 -22.58305,50.341898 -50.34189,50.341898 z m 0,-76.711086 c -14.54147,0 -26.36919,11.830345 -26.36919,26.369188 0,14.538844 11.82772,26.369189 26.36919,26.369189 14.54146,0 26.36919,-11.830345 26.36919,-26.369189 0,-14.538843 -11.82773,-26.369188 -26.36919,-26.369188 z"
     style="fill:#242d3c" /><path
     inkscape:connector-curvature="0"
     id="path23-8"
     d="m 114.8552,345.64321 c -27.754928,0 -50.341918,-22.58305 -50.341918,-50.34188 0,-27.75884 22.58699,-50.34189 50.341918,-50.34189 27.75884,0 50.34189,22.58305 50.34189,50.34189 0,27.75883 -22.58305,50.34188 -50.34189,50.34188 z m 0,-76.71108 c -14.54149,0 -26.369211,11.83036 -26.369211,26.3692 0,14.53884 11.827721,26.36919 26.369211,26.36919 14.54146,0 26.36919,-11.83035 26.36919,-26.36919 0,-14.53884 -11.82773,-26.3692 -26.36919,-26.3692 z"
     style="fill:#242d3c" /><path
     inkscape:connector-curvature="0"
     id="path23-8-6"
     d="m 397.15621,344.56983 c -27.75492,0 -50.34191,-22.58305 -50.34191,-50.34189 0,-27.75883 22.58699,-50.34189 50.34191,-50.34189 27.75884,0 50.34188,22.58306 50.34188,50.34189 0,27.75884 -22.58304,50.34189 -50.34188,50.34189 z m 0,-76.71107 c -14.54149,0 -26.3692,11.83035 -26.3692,26.36918 0,14.53884 11.82771,26.3692 26.3692,26.3692 14.54146,0 26.36919,-11.83036 26.36919,-26.3692 0,-14.53883 -11.82773,-26.36918 -26.36919,-26.36918 z"
     style="fill:#242d3c" /><path
     style="fill:#f96232"
     d="m 256.008,285.3905 c -39.37689,0 -71.41692,-32.03062 -71.41692,-71.41691 0,-39.36905 32.03846,-71.40439 71.41692,-71.40439 39.37845,0 71.41692,32.03064 71.41692,71.40439 0,39.38472 -32.04003,71.41691 -71.41692,71.41691 z"
     id="path3"
     inkscape:connector-curvature="0" /><path
     inkscape:connector-curvature="0"
     id="path7"
     d="m 64.11643,146.70624 c -24.458655,0 -44.363429,-19.89902 -44.363429,-44.36343 0,-24.464408 19.899022,-44.359595 44.363429,-44.359595 24.458653,0 44.3596,19.899022 44.3596,44.359595 0,24.46058 -19.899027,44.36343 -44.3596,44.36343 z"
     style="fill:#3b5998;fill-opacity:1" /><path
     inkscape:connector-curvature="0"
     id="path9"
     d="m 451.65719,147.77164 c -25.35746,0 -45.97804,-20.62057 -45.97804,-45.97208 0,-25.331635 20.62058,-45.958172 45.97804,-45.958172 25.34556,0 45.96812,20.620576 45.96812,45.958172 0,25.35151 -20.62058,45.97208 -45.96812,45.97208 z"
     style="fill:#55acee;fill-opacity:1" /><path
     inkscape:connector-curvature="0"
     id="path11"
     d="m 255.46993,478.91281 c -24.45866,0 -44.36343,-19.90478 -44.36343,-44.36343 0,-24.44523 19.89902,-44.34426 44.36343,-44.34426 24.4644,0 44.35959,19.89903 44.35959,44.34426 0,24.45865 -19.90094,44.36343 -44.35959,44.36343 z"
     style="fill:#3f729b;fill-opacity:1" /><path
     inkscape:connector-curvature="0"
     id="path15"
     d="m 256.54239,295.48035 c -45.82808,0 -83.11454,-37.28349 -83.11454,-83.11454 0,-45.82511 37.28349,-83.10662 83.11454,-83.10662 45.83105,0 83.11453,37.28151 83.11453,83.10662 0,45.83105 -37.28348,83.11454 -83.11453,83.11454 z m 0,-148.12662 c -35.84967,0 -65.02,29.16242 -65.02,65.01208 0,35.85264 29.16935,65.02 65.02,65.02 35.84768,0 65.02,-29.16736 65.02,-65.02 0,-35.84966 -29.17232,-65.01208 -65.02,-65.01208 z"
     style="fill:#242d3c;stroke:#242d3c;stroke-opacity:1;stroke-width:6;stroke-miterlimit:4;stroke-dasharray:none" /><path
     inkscape:connector-curvature="0"
     id="path17"
     d="m 64.115502,162.16303 c -33.574735,0 -60.8926762,-27.31498 -60.8926762,-60.89268 0,-33.577704 27.3179412,-60.890696 60.8926762,-60.890696 33.574736,0 60.890708,27.312992 60.890708,60.890696 0,33.5777 -27.314983,60.89268 -60.890708,60.89268 z m 0,-103.68884 c -23.59632,0 -42.798139,19.201819 -42.798139,42.79814 0,23.59632 19.19885,42.79814 42.798139,42.79814 23.599289,0 42.798148,-19.20182 42.798148,-42.79814 0,-23.596321 -19.198859,-42.79814 -42.798148,-42.79814 z"
     style="fill:#242d3c;stroke:#242d3c;stroke-width:5.9371767;stroke-miterlimit:4;stroke-dasharray:none;stroke-opacity:1" /><path
     inkscape:connector-curvature="0"
     id="path19"
     d="m 448.97124,162.16303 c -33.5777,0 -60.89565,-27.31498 -60.89565,-60.89268 0,-33.572756 27.31795,-60.885749 60.89565,-60.885749 33.57275,0.003 60.8907,27.312993 60.8907,60.885749 0,33.5777 -27.31795,60.89268 -60.8907,60.89268 z m 0,-103.680924 c -23.59929,0 -42.80111,19.196872 -42.80111,42.791214 0,23.59632 19.20182,42.79814 42.80111,42.79814 23.59928,0 42.79814,-19.20182 42.79814,-42.79814 -0.002,-23.594342 -19.19886,-42.791214 -42.79814,-42.791214 z"
     style="fill:#242d3c;stroke:#242d3c;stroke-width:5.9371767;stroke-miterlimit:4;stroke-dasharray:none;stroke-opacity:1" /><path
     inkscape:connector-curvature="0"
     id="path21"
     d="m 256.54239,495.45041 c -33.5777,0 -60.89268,-27.31497 -60.89268,-60.89267 0,-33.57276 27.31498,-60.88279 60.89268,-60.88279 33.57275,0 60.8907,27.31003 60.8907,60.88279 0,33.5777 -27.31795,60.89267 -60.8907,60.89267 z m 0,-103.68389 c -23.59929,0 -42.79814,19.19687 -42.79814,42.79122 0,23.59631 19.19686,42.79813 42.79814,42.79813 23.60126,0 42.79814,-19.19885 42.79814,-42.79813 0,-23.59138 -19.19886,-42.79122 -42.79814,-42.79122 z"
     style="fill:#242d3c;stroke:#242d3c;stroke-width:5.9371767;stroke-miterlimit:4;stroke-dasharray:none;stroke-opacity:1" /><rect
     id="rect29"
     height="96.287155"
     width="18.094536"
     style="fill:#242d3c;stroke:#242d3c;stroke-opacity:1;stroke-width:6;stroke-miterlimit:4;stroke-dasharray:none"
     y="286.4212"
     x="247.49905" /><rect
     id="rect31"
     height="96.282066"
     width="18.091169"
     style="fill:#242d3c;stroke:#242d3c;stroke-opacity:1;stroke-width:6.00000001;stroke-miterlimit:4;stroke-dasharray:none"
     transform="matrix(-0.500011,-0.86601905,0.86601905,-0.500011,0,0)"
     y="190.05382"
     x="-321.24405" /><rect
     id="rect33"
     height="18.094137"
     width="96.282066"
     style="fill:#242d3c;stroke:#242d3c;stroke-opacity:1;stroke-width:6.00000001;stroke-miterlimit:4;stroke-dasharray:none"
     transform="matrix(-0.86601905,-0.500011,0.500011,-0.86601905,0,0)"
     y="-64.673775"
     x="-254.27043" /><g
     id="g35" /><g
     id="g37" /><g
     id="g39" /><g
     id="g41" /><g
     id="g43" /><g
     id="g45" /><g
     id="g47" /><g
     id="g49" /><g
     id="g51" /><g
     id="g53" /><g
     id="g55" /><g
     id="g57" /><g
     id="g59" /><g
     id="g61" /><g
     id="g63" /></svg>