<?xml version="1.0" encoding="UTF-8" standalone="no"?>
<!-- Generator: Adobe Illustrator 19.0.0, SVG Export Plug-In . SVG Version: 6.00 Build 0)  -->

<svg
   xmlns:dc="http://purl.org/dc/elements/1.1/"
   xmlns:cc="http://creativecommons.org/ns#"
   xmlns:rdf="http://www.w3.org/1999/02/22-rdf-syntax-ns#"
   xmlns:svg="http://www.w3.org/2000/svg"
   xmlns="http://www.w3.org/2000/svg"
   xmlns:sodipodi="http://sodipodi.sourceforge.net/DTD/sodipodi-0.dtd"
   xmlns:inkscape="http://www.inkscape.org/namespaces/inkscape"
   version="1.1"
   id="Layer_1"
   x="0px"
   y="0px"
   viewBox="0 0 280.688 177.92"
   xml:space="preserve"
   inkscape:version="0.91 r13725"
   sodipodi:docname="update_due.svg"
   width="280.68799"
   height="177.92"
   inkscape:export-filename="C:\Users\Mike\OneDrive\Projects\RaspPI\Source\Android\cancam-android\app\src\main\res\drawable\ic_not_available.png"
   inkscape:export-xdpi="35.16"
   inkscape:export-ydpi="35.16"><metadata
     id="metadata57"><rdf:RDF><cc:Work
         rdf:about=""><dc:format>image/svg+xml</dc:format><dc:type
           rdf:resource="http://purl.org/dc/dcmitype/StillImage" /><dc:title></dc:title></cc:Work></rdf:RDF></metadata><defs
     id="defs55" /><sodipodi:namedview
     pagecolor="#ffffff"
     bordercolor="#666666"
     borderopacity="1"
     objecttolerance="10"
     gridtolerance="10"
     guidetolerance="10"
     inkscape:pageopacity="0"
     inkscape:pageshadow="2"
     inkscape:window-width="1920"
     inkscape:window-height="1017"
     id="namedview53"
     showgrid="false"
     inkscape:zoom="0.84256225"
     inkscape:cx="205.59786"
     inkscape:cy="209.22804"
     inkscape:window-x="1912"
     inkscape:window-y="-8"
     inkscape:window-maximized="1"
     inkscape:current-layer="Layer_1" /><g
     id="g23"
     transform="translate(0,-102.17799)" /><g
     id="g25"
     transform="translate(0,-102.17799)" /><g
     id="g27"
     transform="translate(0,-102.17799)" /><g
     id="g29"
     transform="translate(0,-102.17799)" /><g
     id="g31"
     transform="translate(0,-102.17799)" /><g
     id="g33"
     transform="translate(0,-102.17799)" /><g
     id="g35"
     transform="translate(0,-102.17799)" /><g
     id="g37"
     transform="translate(0,-102.17799)" /><g
     id="g39"
     transform="translate(0,-102.17799)" /><g
     id="g41"
     transform="translate(0,-102.17799)" /><g
     id="g43"
     transform="translate(0,-102.17799)" /><g
     id="g45"
     transform="translate(0,-102.17799)" /><g
     id="g47"
     transform="translate(0,-102.17799)" /><g
     id="g49"
     transform="translate(0,-102.17799)" /><g
     id="g51"
     transform="translate(0,-102.17799)" /><g
     id="g8172"
     transform="matrix(0.97929582,0,0,0.97929582,12.230937,-11.62283)"><g
       transform="matrix(0.88623732,0,0,0.62335691,25.926894,11.868559)"
       id="g3"><path
         inkscape:connector-curvature="0"
         id="path5"
         d="M 0.031,0.07 69.784,26.323 140.097,0.07 210.06,26.323 280.067,0.07 l 0,253.775 -70.182,26.253 -70.051,-26.253 -69.928,26.253 -69.867,-26.253 0,-253.775 -0.008,0 z"
         style="fill:#26a6d1" /><polygon
         id="polygon7"
         points="140.044,0.026 70.037,26.165 70.037,279.984 139.834,253.784 140.044,253.862 "
         style="fill:#2295bc" /><polygon
         id="polygon9"
         points="280.067,0.009 210.06,26.261 210.06,279.966 280.067,253.784 "
         style="fill:#2295bc" /><path
         inkscape:connector-curvature="0"
         id="path11"
         d="M 210.06,26.261 140.097,0.009 113.17,10.055 c -45.321,52.19 -28.397,96.058 31.678,150.48 50.676,45.898 103.059,72.763 135.209,49.486 L 280.057,0 c 10e-4,0 -69.997,26.261 -69.997,26.261 z"
         style="fill:#efc75e" /><path
         inkscape:connector-curvature="0"
         id="path13"
         d="M 280.067,0.009 210.06,26.261 140.097,0.009 140.001,0.044 c -62.367,52.864 -31.809,83.107 22.682,133.267 44.008,40.525 79.239,64.056 117.384,41.724 -0.394,-17.467 0,-174.93 0,-175.026 z"
         style="fill:#3db39e" /><path
         inkscape:connector-curvature="0"
         id="path15"
         d="m 210.06,26.261 0,180.749 c 27.163,13.293 51.823,16.189 70.007,3.019 l 0,-210.02 -70.007,26.252 z"
         style="fill:#d7b354" /><path
         inkscape:connector-curvature="0"
         id="path17"
         d="M 140.044,0.026 125.308,5.53 113.171,10.063 C 69.11,60.792 84.004,103.688 140.045,156.027 140.044,156.028 140.044,0.026 140.044,0.026 Z"
         style="fill:#d7b354" /><path
         inkscape:connector-curvature="0"
         id="path19"
         d="m 280.067,0.009 -70.007,26.252 0,144.485 c 24.056,14.351 46.485,18.053 70.007,4.279 -0.394,-17.457 0,-174.92 0,-175.016 z"
         style="fill:#37a18e" /><path
         inkscape:connector-curvature="0"
         id="path21"
         d="M 140.044,0.026 140.018,0.035 140,0.044 c -53.03,44.944 -38.863,73.542 0.044,111.923 0,0 0,-111.941 0,-111.941 z"
         style="fill:#37a18e" /></g><g
       transform="matrix(0.71264455,0,0,0.71264455,-40.000999,21.451083)"
       id="g8164"><circle
         style="opacity:1;fill:#ffffff;fill-opacity:1;fill-rule:nonzero;stroke:none;stroke-width:7;stroke-linejoin:round;stroke-miterlimit:4;stroke-dasharray:none;stroke-opacity:1"
         id="path8162"
         cx="140.15205"
         cy="139.94594"
         r="101.54729" /><g
         id="g8129"
         transform="translate(-1.782185,-0.59286403)"><circle
           id="circle3"
           r="68.994461"
           cy="140.64337"
           cx="141.83121"
           style="fill:#f0f0f0" /><path
           id="path5-3"
           d="m 141.83118,48.650894 c -50.805653,0 -91.992488,41.186455 -91.992488,91.992496 0,50.80603 41.186835,91.99249 91.992488,91.99249 50.80565,0 91.99249,-41.18379 91.99249,-91.99249 0,-50.802987 -41.18684,-91.992496 -91.99249,-91.992496 z M 72.836718,140.64339 c 0,-15.63873 5.212022,-30.05569 13.977118,-41.626685 l 96.640974,96.644025 c -11.56794,8.77083 -25.98489,13.98018 -41.62363,13.98018 -38.10491,-0.006 -68.994462,-30.89262 -68.994462,-68.99752 z M 199.24015,178.91514 103.55943,83.237082 c 10.95284,-7.316142 24.11365,-11.588162 38.27175,-11.588162 38.10491,0 68.99446,30.88955 68.99446,68.99447 0,14.16115 -4.26897,27.31891 -11.58549,38.27175 z"
           style="fill:#d32f2f"
           inkscape:connector-curvature="0" /><path
           id="path7"
           d="m 141.83118,71.64892 c -38.10491,0 -68.994462,30.88955 -68.994462,68.99447 0,19.01084 7.689938,36.22221 20.126092,48.69846 L 190.52965,91.772337 C 178.05035,79.338858 160.83896,71.64892 141.83118,71.64892 Z"
           style="fill:#ffffff"
           inkscape:connector-curvature="0" /><path
           id="path9"
           d="m 49.838692,140.64339 c 0,25.36102 10.26292,48.32468 26.861894,64.96107 L 92.96319,189.34185 C 80.527036,176.86256 72.837098,159.65423 72.837098,140.64339 c 0,-15.63873 5.212021,-30.05569 13.977124,-41.626685 l 48.235718,48.235735 16.2626,-16.26261 -47.75311,-47.752748 c 10.95284,-7.316142 24.11365,-11.588162 38.27175,-11.588162 19.00778,0 36.22489,7.689938 48.69847,20.123417 L 206.78919,75.509733 C 190.15013,58.913813 167.18953,48.64784 141.82813,48.64784 91.025527,48.65111 49.838692,89.840403 49.838692,140.64339 Z"
           style="fill:#ef5350"
           inkscape:connector-curvature="0" /></g></g></g><circle
     style="fill:#b150ef;fill-opacity:1"
     cx="71.213562"
     cy="107.08057"
     r="64.320999"
     id="circle3-5" /><path
     id="path13-6"
     d="m 33.86586,108.76552 -9.18875,0 c 0,4.62088 0.676638,9.18598 2.010565,13.56893 l 8.790507,-2.67565 c -1.069856,-3.51484 -1.612322,-7.17994 -1.612322,-10.89328 z"
     style="fill:#f5f5f5"
     inkscape:connector-curvature="0" /><path
     id="path15-1"
     d="m 39.256346,128.10609 -7.85633,4.76561 c 2.088706,3.44349 4.621637,6.60933 7.527936,9.40985 l 6.375667,-6.61662 c -2.335441,-2.25077 -4.370127,-4.79375 -6.047273,-7.55884 z"
     style="fill:#f5f5f5"
     inkscape:connector-curvature="0" /><path
     id="path17-8"
     d="m 50.030784,150.21175 c 3.980929,2.03821 8.227186,3.48646 12.620681,4.30405 l 1.680915,-9.03347 c -3.520625,-0.65528 -6.923661,-1.81559 -10.113882,-3.44927 l -4.187714,8.17869 z"
     style="fill:#f5f5f5"
     inkscape:connector-curvature="0" /><path
     id="path19-0"
     d="m 73.940228,146.0165 0.659803,9.16513 c 4.670381,-0.33593 9.24076,-1.3691 13.582998,-3.07012 l -3.351779,-8.55583 c -3.479921,1.36308 -7.144265,2.19097 -10.891022,2.46082 z"
     style="fill:#f5f5f5"
     inkscape:connector-curvature="0" /><path
     id="path21-8"
     d="m 94.407691,138.04233 5.711089,7.19829 c 4.04676,-3.21057 7.51085,-7.04125 10.2963,-11.38475 l -7.73498,-4.96008 c -2.2372,3.48872 -5.02063,6.56638 -8.272409,9.14654 z"
     style="fill:#f5f5f5"
     inkscape:connector-curvature="0" /><path
     id="path23"
     d="m 71.214583,62.228046 c -4.667617,0 -7.49113,-0.199183 -11.912514,1.160624 L 55.101813,50.472596 36.596803,77.75351 66.662724,84.07279 62.6955,72.202228 c 2.497,-0.518094 5.939419,-0.785181 8.519083,-0.785181 20.594097,0 37.348467,16.754375 37.348467,37.348473 0,2.9666 -0.34824,5.91787 -1.03468,8.77191 l 8.93373,2.14901 c 0.85553,-3.55681 1.28945,-7.2312 1.28945,-10.92117 C 117.7518,83.104556 96.875294,62.228046 71.214583,62.228046 Z"
     style="fill:#f5f5f5"
     inkscape:connector-curvature="0"
     sodipodi:nodetypes="scccccssccss" /></svg>