<?xml version="1.0" encoding="UTF-8" standalone="no"?>
<!-- Generator: Adobe Illustrator 19.0.0, SVG Export Plug-In . SVG Version: 6.00 Build 0)  -->

<svg
   xmlns:dc="http://purl.org/dc/elements/1.1/"
   xmlns:cc="http://creativecommons.org/ns#"
   xmlns:rdf="http://www.w3.org/1999/02/22-rdf-syntax-ns#"
   xmlns:svg="http://www.w3.org/2000/svg"
   xmlns="http://www.w3.org/2000/svg"
   xmlns:sodipodi="http://sodipodi.sourceforge.net/DTD/sodipodi-0.dtd"
   xmlns:inkscape="http://www.inkscape.org/namespaces/inkscape"
   version="1.1"
   id="Layer_1"
   x="0px"
   y="0px"
   viewBox="0 0 280.688 177.92"
   xml:space="preserve"
   inkscape:version="0.91 r13725"
   sodipodi:docname="update_due.svg"
   width="280.68799"
   height="177.92"
   inkscape:export-filename="C:\Users\Mike\OneDrive\Projects\RaspPI\Source\Android\cancam-android\app\src\main\res\drawable\ic_not_available.png"
   inkscape:export-xdpi="35.16"
   inkscape:export-ydpi="35.16"><metadata
     id="metadata57"><rdf:RDF><cc:Work
         rdf:about=""><dc:format>image/svg+xml</dc:format><dc:type
           rdf:resource="http://purl.org/dc/dcmitype/StillImage" /><dc:title /></cc:Work></rdf:RDF></metadata><defs
     id="defs55"><filter
       style="color-interpolation-filters:sRGB;"
       inkscape:label="Drop Shadow"
       id="filter8400"><feFlood
         flood-opacity="1"
         flood-color="rgb(5,0,0)"
         result="flood"
         id="feFlood8402" /><feComposite
         in="flood"
         in2="SourceGraphic"
         operator="in"
         result="composite1"
         id="feComposite8404" /><feGaussianBlur
         in="composite1"
         stdDeviation="2.1"
         result="blur"
         id="feGaussianBlur8406" /><feOffset
         dx="3.90625"
         dy="4.7"
         result="offset"
         id="feOffset8408" /><feComposite
         in="SourceGraphic"
         in2="offset"
         operator="over"
         result="composite2"
         id="feComposite8410" /></filter><filter
       style="color-interpolation-filters:sRGB"
       inkscape:label="Drop Shadow"
       id="filter8400-7"><feFlood
         flood-opacity="1"
         flood-color="rgb(5,0,0)"
         result="flood"
         id="feFlood8402-7" /><feComposite
         in="flood"
         in2="SourceGraphic"
         operator="in"
         result="composite1"
         id="feComposite8404-8" /><feGaussianBlur
         in="composite1"
         stdDeviation="2.1"
         result="blur"
         id="feGaussianBlur8406-8" /><feOffset
         dx="3.90625"
         dy="4.7"
         result="offset"
         id="feOffset8408-7" /><feComposite
         in="SourceGraphic"
         in2="offset"
         operator="over"
         result="composite2"
         id="feComposite8410-7" /></filter></defs><sodipodi:namedview
     pagecolor="#ffffff"
     bordercolor="#666666"
     borderopacity="1"
     objecttolerance="10"
     gridtolerance="10"
     guidetolerance="10"
     inkscape:pageopacity="0"
     inkscape:pageshadow="2"
     inkscape:window-width="1920"
     inkscape:window-height="1017"
     id="namedview53"
     showgrid="false"
     inkscape:zoom="1.6851245"
     inkscape:cx="222.92013"
     inkscape:cy="82.794328"
     inkscape:window-x="1912"
     inkscape:window-y="-8"
     inkscape:window-maximized="1"
     inkscape:current-layer="Layer_1" /><g
     id="g23"
     transform="translate(0,-102.17799)" /><g
     id="g25"
     transform="translate(0,-102.17799)" /><g
     id="g27"
     transform="translate(0,-102.17799)" /><g
     id="g29"
     transform="translate(0,-102.17799)" /><g
     id="g31"
     transform="translate(0,-102.17799)" /><g
     id="g33"
     transform="translate(0,-102.17799)" /><g
     id="g35"
     transform="translate(0,-102.17799)" /><g
     id="g37"
     transform="translate(0,-102.17799)" /><g
     id="g39"
     transform="translate(0,-102.17799)" /><g
     id="g41"
     transform="translate(0,-102.17799)" /><g
     id="g43"
     transform="translate(0,-102.17799)" /><g
     id="g45"
     transform="translate(0,-102.17799)" /><g
     id="g47"
     transform="translate(0,-102.17799)" /><g
     id="g49"
     transform="translate(0,-102.17799)" /><g
     id="g51"
     transform="translate(0,-102.17799)" /><g
     id="g3"
     transform="matrix(0.8678885,0,0,0.61045082,37.621036,2.1812338e-7)"><path
       style="fill:#26a6d1"
       d="M 0.031,0.07 69.784,26.323 140.097,0.07 210.06,26.323 280.067,0.07 l 0,253.775 -70.182,26.253 -70.051,-26.253 -69.928,26.253 -69.867,-26.253 0,-253.775 -0.008,0 z"
       id="path5"
       inkscape:connector-curvature="0" /><polygon
       style="fill:#2295bc"
       points="70.037,279.984 139.834,253.784 140.044,253.862 140.044,0.026 70.037,26.165 "
       id="polygon7" /><polygon
       style="fill:#2295bc"
       points="210.06,279.966 280.067,253.784 280.067,0.009 210.06,26.261 "
       id="polygon9" /><path
       style="fill:#efc75e"
       d="M 210.06,26.261 140.097,0.009 113.17,10.055 c -45.321,52.19 -28.397,96.058 31.678,150.48 50.676,45.898 103.059,72.763 135.209,49.486 L 280.057,0 c 10e-4,0 -69.997,26.261 -69.997,26.261 z"
       id="path11"
       inkscape:connector-curvature="0" /><path
       style="fill:#3db39e"
       d="M 280.067,0.009 210.06,26.261 140.097,0.009 140.001,0.044 c -62.367,52.864 -31.809,83.107 22.682,133.267 44.008,40.525 79.239,64.056 117.384,41.724 -0.394,-17.467 0,-174.93 0,-175.026 z"
       id="path13"
       inkscape:connector-curvature="0" /><path
       style="fill:#d7b354"
       d="m 210.06,26.261 0,180.749 c 27.163,13.293 51.823,16.189 70.007,3.019 l 0,-210.02 -70.007,26.252 z"
       id="path15"
       inkscape:connector-curvature="0" /><path
       style="fill:#d7b354"
       d="M 140.044,0.026 125.308,5.53 113.171,10.063 C 69.11,60.792 84.004,103.688 140.045,156.027 140.044,156.028 140.044,0.026 140.044,0.026 Z"
       id="path17"
       inkscape:connector-curvature="0" /><path
       style="fill:#37a18e"
       d="m 280.067,0.009 -70.007,26.252 0,144.485 c 24.056,14.351 46.485,18.053 70.007,4.279 -0.394,-17.457 0,-174.92 0,-175.016 z"
       id="path19"
       inkscape:connector-curvature="0" /><path
       style="fill:#37a18e"
       d="M 140.044,0.026 140.018,0.035 140,0.044 c -53.03,44.944 -38.863,73.542 0.044,111.923 0,0 0,-111.941 0,-111.941 z"
       id="path21"
       inkscape:connector-curvature="0" /></g><g
     transform="matrix(0.9300843,0,0,0.9300843,24.496123,8.343501)"
     style="font-style:normal;font-weight:normal;font-size:67.08348846px;line-height:125%;font-family:sans-serif;letter-spacing:0px;word-spacing:0px;fill:#fff643;fill-opacity:1;stroke:none;stroke-width:1px;stroke-linecap:butt;stroke-linejoin:miter;stroke-opacity:1;filter:url(#filter8400)"
     id="text8114"><path
       d="m 25.732806,31.357205 6.649389,0 0,29.709337 q 0,7.861347 2.849738,11.333441 2.849738,3.439339 9.237082,3.439339 6.354588,0 9.204326,-3.439339 2.849738,-3.472094 2.849738,-11.333441 l 0,-29.709337 6.649389,0 0,30.528228 q 0,9.564638 -4.749564,14.445223 -4.716807,4.880586 -13.953889,4.880586 -9.269838,0 -14.019401,-4.880586 -4.716808,-4.880585 -4.716808,-14.445223 l 0,-30.528228 z"
       style=""
       id="path8114" /><path
       d="m 81.188054,74.758387 0,19.456832 -6.059788,0 0,-50.640172 6.059788,0 0,5.568454 q 1.899825,-3.275561 4.782319,-4.847831 2.915249,-1.605025 6.944189,-1.605025 6.682144,0 10.842108,5.306409 4.19272,5.306409 4.19272,13.95389 0,8.647481 -4.19272,13.95389 -4.159964,5.306408 -10.842108,5.306408 -4.02894,0 -6.944189,-1.572269 -2.882494,-1.605025 -4.782319,-4.880586 z M 101.69307,61.950944 q 0,-6.649389 -2.751476,-10.416284 -2.718715,-3.799651 -7.501034,-3.799651 -4.782319,0 -7.533791,3.799651 -2.718715,3.766895 -2.718715,10.416284 0,6.649389 2.718715,10.449039 2.751472,3.766895 7.533791,3.766895 4.782319,0 7.501034,-3.766895 2.751476,-3.79965 2.751476,-10.449039 z"
       style=""
       id="path8116" /><path
       d="m 142.08073,49.143501 0,-19.8499 6.02703,0 0,50.967729 -6.02703,0 0,-5.502943 q -1.89983,3.275561 -4.81507,4.880586 -2.8825,1.572269 -6.94419,1.572269 -6.64939,0 -10.84211,-5.306408 -4.15996,-5.306409 -4.15996,-13.95389 0,-8.647481 4.15996,-13.95389 4.19272,-5.306409 10.84211,-5.306409 4.06169,0 6.94419,1.605025 2.91524,1.57227 4.81507,4.847831 z m -20.53777,12.807443 q 0,6.649389 2.71872,10.449039 2.75147,3.766895 7.53379,3.766895 4.78232,0 7.53379,-3.766895 2.75147,-3.79965 2.75147,-10.449039 0,-6.649389 -2.75147,-10.416284 -2.75147,-3.799651 -7.53379,-3.799651 -4.78232,0 -7.53379,3.799651 -2.71872,3.766895 -2.71872,10.416284 z"
       style=""
       id="path8118" /><path
       d="m 177.19475,61.819921 q -7.3045,0 -10.12148,1.670537 -2.81699,1.670536 -2.81699,5.699476 0,3.210049 2.09636,5.109875 2.12912,1.867069 5.76499,1.867069 5.01161,0 8.02512,-3.537605 3.04628,-3.570362 3.04628,-9.466372 l 0,-1.34298 -5.99428,0 z m 12.02131,-2.489426 0,20.930835 -6.02703,0 0,-5.568454 q -2.06361,3.341072 -5.14263,4.946097 -3.07903,1.572269 -7.53379,1.572269 -5.63397,0 -8.97504,-3.144538 -3.30832,-3.177294 -3.30832,-8.483703 0,-6.19081 4.12721,-9.335349 4.15996,-3.144538 12.38162,-3.144538 l 8.45095,0 0,-0.589601 q 0,-4.159963 -2.75148,-6.4201 -2.71871,-2.292892 -7.66481,-2.292892 -3.14454,0 -6.1253,0.753379 -2.98076,0.753379 -5.73223,2.260137 l 0,-5.568454 q 3.30832,-1.277469 6.4201,-1.899825 3.11178,-0.655113 6.05979,-0.655113 7.95961,0 11.89029,4.127207 3.93067,4.127207 3.93067,12.512643 z"
       style=""
       id="path8120" /><path
       d="m 207.6247,33.158763 0,10.416284 12.41438,0 0,4.684052 -12.41438,0 0,19.915411 q 0,4.487518 1.21196,5.764987 1.24471,1.277469 5.01161,1.277469 l 6.19081,0 0,5.044364 -6.19081,0 q -6.97695,0 -9.63015,-2.587694 -2.65321,-2.620448 -2.65321,-9.499126 l 0,-19.915411 -4.422,0 0,-4.684052 4.422,0 0,-10.416284 6.05979,0 z"
       style=""
       id="path8122" /><path
       d="m 259.37857,60.41143 0,2.948005 -27.71125,0 q 0.39307,6.223566 3.73414,9.499127 3.37383,3.242805 9.3681,3.242805 3.4721,0 6.7149,-0.851646 3.27556,-0.851645 6.48561,-2.554937 l 0,5.699476 q -3.2428,1.375736 -6.64938,2.096359 -3.40659,0.720623 -6.91144,0.720623 -8.7785,0 -13.92113,-5.109875 -5.10988,-5.109875 -5.10988,-13.822867 0,-9.007793 4.84783,-14.281446 4.88059,-5.306409 13.135,-5.306409 7.40277,0 11.69376,4.782319 4.32374,4.749564 4.32374,12.938466 z m -6.02704,-1.768803 q -0.0655,-4.946097 -2.78422,-7.894102 -2.68596,-2.948004 -7.14073,-2.948004 -5.04436,0 -8.09063,2.849738 -3.01352,2.849738 -3.4721,8.025124 l 21.48768,-0.03276 z"
       style=""
       id="path8124" /></g><g
     transform="matrix(0.9300843,0,0,0.9300843,24.496123,8.343501)"
     style="font-style:normal;font-weight:normal;font-size:67.08348846px;line-height:125%;font-family:sans-serif;letter-spacing:0px;word-spacing:0px;fill:#fff643;fill-opacity:1;stroke:none;stroke-width:1px;stroke-linecap:butt;stroke-linejoin:miter;stroke-opacity:1;filter:url(#filter8400-7)"
     id="text8114-5"><path
       d="m 140.97373,95.397839 0,38.029261 7.99237,0 q 10.12148,0 14.80553,-4.58578 4.71681,-4.58579 4.71681,-14.47798 0,-9.82669 -4.71681,-14.379716 -4.68405,-4.585785 -14.80553,-4.585785 l -7.99237,0 z m -6.61664,-5.437432 13.59358,0 q 14.21594,0 20.86533,5.928766 6.64938,5.896007 6.64938,18.474167 0,12.64366 -6.68214,18.57243 -6.68214,5.92876 -20.83257,5.92876 l -13.59358,0 0,-48.904123 z"
       style=""
       id="path8127" /><path
       d="m 185.09553,124.38655 0,-22.2083 6.02704,0 0,21.97901 q 0,5.20815 2.03084,7.82859 2.03085,2.5877 6.09255,2.5877 4.88058,0 7.69756,-3.11179 2.84974,-3.11178 2.84974,-8.4837 l 0,-20.79981 6.02704,0 0,36.68628 -6.02704,0 0,-5.63396 q -2.19462,3.34107 -5.10987,4.97885 -2.8825,1.60503 -6.7149,1.60503 -6.32183,0 -9.5974,-3.93068 -3.27556,-3.93067 -3.27556,-11.49722 z m 15.16585,-23.0927 0,0 z"
       style=""
       id="path8129" /><path
       d="m 259.68005,119.01463 0,2.94801 -27.71124,0 q 0.39307,6.22356 3.73414,9.49912 3.37383,3.24281 9.3681,3.24281 3.4721,0 6.7149,-0.85165 3.27556,-0.85164 6.48561,-2.55493 l 0,5.69947 q -3.2428,1.37574 -6.64939,2.09636 -3.40658,0.72063 -6.91143,0.72063 -8.7785,0 -13.92113,-5.10988 -5.10988,-5.10988 -5.10988,-13.82287 0,-9.00779 4.84783,-14.28144 4.88059,-5.30641 13.135,-5.30641 7.40277,0 11.69375,4.78232 4.32374,4.74956 4.32374,12.93846 z m -6.02703,-1.7688 q -0.0655,-4.9461 -2.78422,-7.8941 -2.68596,-2.94801 -7.14073,-2.94801 -5.04436,0 -8.09063,2.84974 -3.01352,2.84974 -3.4721,8.02513 l 21.48768,-0.0328 z"
       style=""
       id="path8131" /></g></svg>