<?xml version="1.0" encoding="UTF-8" standalone="no"?>
<!-- Generator: Adobe Illustrator 16.0.0, SVG Export Plug-In . SVG Version: 6.00 Build 0)  -->

<svg
   xmlns:dc="http://purl.org/dc/elements/1.1/"
   xmlns:cc="http://creativecommons.org/ns#"
   xmlns:rdf="http://www.w3.org/1999/02/22-rdf-syntax-ns#"
   xmlns:svg="http://www.w3.org/2000/svg"
   xmlns="http://www.w3.org/2000/svg"
   xmlns:sodipodi="http://sodipodi.sourceforge.net/DTD/sodipodi-0.dtd"
   xmlns:inkscape="http://www.inkscape.org/namespaces/inkscape"
   version="1.1"
   id="Capa_1"
   x="0px"
   y="0px"
   width="492.664px"
   height="492.664px"
   viewBox="0 0 492.664 492.664"
   style="enable-background:new 0 0 492.664 492.664;"
   xml:space="preserve"
   inkscape:version="0.91 r13725"
   sodipodi:docname="website.svg"><metadata
     id="metadata75"><rdf:RDF><cc:Work
         rdf:about=""><dc:format>image/svg+xml</dc:format><dc:type
           rdf:resource="http://purl.org/dc/dcmitype/StillImage" /></cc:Work></rdf:RDF></metadata><defs
     id="defs73" /><sodipodi:namedview
     pagecolor="#ffffff"
     bordercolor="#666666"
     borderopacity="1"
     objecttolerance="10"
     gridtolerance="10"
     guidetolerance="10"
     inkscape:pageopacity="0"
     inkscape:pageshadow="2"
     inkscape:window-width="1920"
     inkscape:window-height="1017"
     id="namedview71"
     showgrid="false"
     inkscape:zoom="0.4790283"
     inkscape:cx="246.332"
     inkscape:cy="246.332"
     inkscape:window-x="1912"
     inkscape:window-y="-8"
     inkscape:window-maximized="1"
     inkscape:current-layer="Capa_1" /><path
     d="M 246.332,0 C 110.286,0 0,110.286 0,246.332 0,382.377 110.286,492.664 246.332,492.664 382.378,492.664 492.664,382.377 492.664,246.332 492.664,110.286 382.378,0 246.332,0 Z m 0,448.686 c -111.581,0 -202.354,-90.773 -202.354,-202.354 0,-111.578 90.773,-202.354 202.354,-202.354 111.581,0 202.354,90.773 202.354,202.354 0,111.581 -90.773,202.354 -202.354,202.354 z"
     id="path7"
     inkscape:connector-curvature="0"
     style="fill:#aba600;fill-opacity:1" /><path
     d="m 141.828,186.987 -50.681,0 c -5.008,13.052 -8.429,26.875 -9.994,41.258 l 56.5,0 c 0.646,-14.113 2.056,-27.925 4.175,-41.258 z"
     id="path9"
     inkscape:connector-curvature="0"
     style="fill:#aba600;fill-opacity:1" /><path
     d="m 110.47,150.812 39.201,0 c 4.32,-15.437 9.689,-29.842 16.085,-42.789 1.669,-3.38 3.413,-6.587 5.188,-9.716 -24.173,12.365 -44.929,30.463 -60.474,52.505 z"
     id="path11"
     inkscape:connector-curvature="0"
     style="fill:#aba600;fill-opacity:1" /><path
     d="m 350.836,305.678 50.681,0 c 5.009,-13.052 8.43,-26.875 9.992,-41.258 l -56.497,0 c -0.646,14.112 -2.057,27.924 -4.176,41.258 z"
     id="path13"
     inkscape:connector-curvature="0"
     style="fill:#aba600;fill-opacity:1" /><path
     d="m 355.012,228.245 56.5,0 c -1.562,-14.383 -4.984,-28.206 -9.992,-41.258 l -50.682,0 c 2.117,13.333 3.528,27.145 4.174,41.258 z"
     id="path15"
     inkscape:connector-curvature="0"
     style="fill:#aba600;fill-opacity:1" /><path
     d="m 326.909,384.639 c -1.67,3.381 -3.414,6.588 -5.188,9.717 24.176,-12.361 44.93,-30.459 60.475,-52.502 l -39.2,0 c -4.322,15.431 -9.692,29.839 -16.087,42.785 z"
     id="path17"
     inkscape:connector-curvature="0"
     style="fill:#aba600;fill-opacity:1" /><path
     d="m 342.99,150.812 39.201,0 c -15.545,-22.043 -36.3,-40.141 -60.475,-52.502 1.775,3.129 3.521,6.335 5.188,9.715 6.4,12.946 11.77,27.354 16.086,42.787 z"
     id="path19"
     inkscape:connector-curvature="0"
     style="fill:#aba600;fill-opacity:1" /><path
     d="m 149.673,341.854 -39.203,0 c 15.545,22.043 36.299,40.141 60.475,52.502 -1.775,-3.129 -3.52,-6.336 -5.188,-9.717 -6.397,-12.946 -11.766,-27.354 -16.084,-42.785 z"
     id="path21"
     inkscape:connector-curvature="0"
     style="fill:#aba600;fill-opacity:1" /><path
     d="m 137.653,264.42 -56.5,0 c 1.563,14.383 4.983,28.206 9.991,41.258 l 50.682,0 c -2.117,-13.334 -3.527,-27.146 -4.173,-41.258 z"
     id="path23"
     inkscape:connector-curvature="0"
     style="fill:#aba600;fill-opacity:1" /><path
     d="m 264.42,86.158 0,64.654 40.894,0 C 294.986,119.049 280.05,96.339 264.42,86.158 Z"
     id="path25"
     inkscape:connector-curvature="0"
     style="fill:#aba600;fill-opacity:1" /><path
     d="m 187.352,150.812 40.894,0 0,-64.654 c -15.632,10.181 -30.569,32.891 -40.894,64.654 z"
     id="path27"
     inkscape:connector-curvature="0"
     style="fill:#aba600;fill-opacity:1" /><path
     d="m 178.435,305.678 49.811,0 0,-41.258 -54.396,0 c 0.719,14.57 2.3,28.368 4.585,41.258 z"
     id="path29"
     inkscape:connector-curvature="0"
     style="fill:#aba600;fill-opacity:1" /><path
     d="m 173.849,228.245 54.396,0 0,-41.258 -49.811,0 c -2.284,12.889 -3.865,26.687 -4.585,41.258 z"
     id="path31"
     inkscape:connector-curvature="0"
     style="fill:#aba600;fill-opacity:1" /><path
     d="m 264.42,186.987 0,41.258 54.396,0 c -0.722,-14.571 -2.306,-28.369 -4.587,-41.258 l -49.809,0 z"
     id="path33"
     inkscape:connector-curvature="0"
     style="fill:#aba600;fill-opacity:1" /><path
     d="m 264.42,305.678 49.811,0 c 2.281,-12.887 3.865,-26.686 4.587,-41.258 l -54.396,0 -0.002,41.258 0,0 z"
     id="path35"
     inkscape:connector-curvature="0"
     style="fill:#aba600;fill-opacity:1" /><path
     d="m 228.245,406.507 0,-64.653 -40.893,0 c 10.325,31.762 25.262,54.472 40.893,64.653 z"
     id="path37"
     inkscape:connector-curvature="0"
     style="fill:#aba600;fill-opacity:1" /><path
     d="m 264.42,406.507 c 15.63,-10.179 30.566,-32.889 40.894,-64.653 l -40.894,0 0,64.653 z"
     id="path39"
     inkscape:connector-curvature="0"
     style="fill:#aba600;fill-opacity:1" /><g
     id="g41" /><g
     id="g43" /><g
     id="g45" /><g
     id="g47" /><g
     id="g49" /><g
     id="g51" /><g
     id="g53" /><g
     id="g55" /><g
     id="g57" /><g
     id="g59" /><g
     id="g61" /><g
     id="g63" /><g
     id="g65" /><g
     id="g67" /><g
     id="g69" /></svg>