<?xml version="1.0" encoding="UTF-8" standalone="no"?>
<!-- Generator: Adobe Illustrator 19.0.0, SVG Export Plug-In . SVG Version: 6.00 Build 0)  -->

<svg
   xmlns:dc="http://purl.org/dc/elements/1.1/"
   xmlns:cc="http://creativecommons.org/ns#"
   xmlns:rdf="http://www.w3.org/1999/02/22-rdf-syntax-ns#"
   xmlns:svg="http://www.w3.org/2000/svg"
   xmlns="http://www.w3.org/2000/svg"
   xmlns:sodipodi="http://sodipodi.sourceforge.net/DTD/sodipodi-0.dtd"
   xmlns:inkscape="http://www.inkscape.org/namespaces/inkscape"
   version="1.1"
   id="Layer_1"
   x="0px"
   y="0px"
   viewBox="0 0 300 300"
   xml:space="preserve"
   inkscape:version="0.92.1 r15371"
   sodipodi:docname="symbol-indian.svg"
   width="300"
   height="300"><metadata
     id="metadata53"><rdf:RDF><cc:Work
         rdf:about=""><dc:format>image/svg+xml</dc:format><dc:type
           rdf:resource="http://purl.org/dc/dcmitype/StillImage" /><dc:title /></cc:Work></rdf:RDF></metadata><defs
     id="defs51" /><sodipodi:namedview
     pagecolor="#ffffff"
     bordercolor="#666666"
     borderopacity="1"
     objecttolerance="10"
     gridtolerance="10"
     guidetolerance="10"
     inkscape:pageopacity="0"
     inkscape:pageshadow="2"
     inkscape:window-width="1366"
     inkscape:window-height="705"
     id="namedview49"
     showgrid="false"
     inkscape:zoom="2.6074563"
     inkscape:cx="95.886275"
     inkscape:cy="233.73622"
     inkscape:window-x="-4"
     inkscape:window-y="-4"
     inkscape:window-maximized="1"
     inkscape:current-layer="Layer_1" /><circle
     style="fill:#273640;fill-opacity:0.39215686;stroke:none;stroke-opacity:0.39215686"
     cx="155"
     cy="155"
     r="145"
     id="circle3-5" /><circle
     style="fill:#748993;fill-opacity:1;stroke-width:0.98413038"
     cx="142.9621"
     cy="142.9621"
     r="142.69891"
     id="circle3" /><path
     style="fill:#414d53;fill-opacity:1"
     d="M 281.44754,175.45593 181.9951,76.003464 177.03168,75.241082 156.08542,54.295945 148.27297,65.337468 132.7625,49.826445 l -10.81609,17.76532 3.75131,16.446738 28.95922,28.959247 0,19.21023 -35.50801,-35.508031 -19.172283,-1.930313 -14.646725,0 -27.177304,29.063464 64.965692,64.96566 -15.54502,15.54502 -11.470884,1.23703 -23.303656,-23.30365 -7.462968,6.69322 3.919531,19.50533 77.064687,77.06467 c 65.57342,-2.51767 119.97561,-48.57217 135.12754,-110.08445 z"
     id="path5"
     inkscape:connector-curvature="0" /><path
     style="fill:#ffd15d"
     d="m 177.65983,96.699389 c -17.55633,0 -31.84053,14.283081 -31.84053,31.839411 l 0,0.84848 -15.0126,0 c 0.27811,-1.81307 0.43727,-3.66465 0.43727,-5.55418 0,-20.15047 -16.39406,-36.545124 -36.545688,-36.545124 -20.151602,0 -36.545664,16.394084 -36.545664,36.545124 l 14.646699,0 c 0,-12.07465 9.82375,-21.8984 21.899531,-21.8984 12.075802,0 21.899552,9.82375 21.899552,21.8984 0,12.07578 -9.82375,21.89953 -21.899552,21.89953 l 0,14.6467 c 12.075802,0 21.899552,9.82375 21.899552,21.89953 0,12.07465 -9.82375,21.89953 -21.899552,21.89953 -12.075781,0 -21.899531,-9.82601 -21.899531,-21.9001 l -14.646699,0 c 0,20.1516 16.394062,36.54567 36.545664,36.54567 20.151628,0 36.545688,-16.39407 36.545688,-36.54567 0,-11.93304 -5.74902,-22.54863 -14.62291,-29.22259 3.32367,-2.49956 6.20894,-5.55305 8.51818,-9.02116 l 35.32506,0 0,-15.49517 c 0,-9.47994 7.71276,-17.19326 17.19383,-17.19326 9.47994,0 17.19326,7.71275 17.19326,17.19326 l 0,49.03322 c 0,9.48107 -7.71275,17.19383 -17.19326,17.19383 -9.48107,0 -17.19383,-7.71276 -17.19383,-17.19383 l -14.6467,0 c 0,17.55633 14.2842,31.84053 31.84053,31.84053 17.55633,0 31.84053,-14.2842 31.84053,-31.84053 l 0,-49.03322 c 5.6e-4,-17.55803 -14.2825,-31.839981 -31.83883,-31.839981 z"
     id="path7"
     inkscape:connector-curvature="0" /><path
     style="fill:#f9b54c"
     d="m 177.65983,96.699389 c -17.55633,0 -31.84053,14.283081 -31.84053,31.839411 l 0,0.84848 -4.99457,0 0,14.6467 19.6407,0 0,-15.49518 c 0,-9.47994 7.71276,-17.19326 17.19383,-17.19326 9.47994,0 17.19326,7.71275 17.19326,17.19326 l 0,49.03322 c 0,9.48108 -7.71275,17.19383 -17.19326,17.19383 -9.48107,0 -17.19383,-7.71275 -17.19383,-17.19383 l -14.64669,0 c 0,17.55633 14.28419,31.84053 31.84052,31.84053 17.55633,0 31.8394,-14.2842 31.8394,-31.84053 l 0,-49.03322 c 5.6e-4,-17.55746 -14.2825,-31.839411 -31.83883,-31.839411 z"
     id="path9"
     inkscape:connector-curvature="0" /><path
     style="fill:#ffd15d"
     d="m 150.85409,94.673914 c -5.56948,0 -11.21541,-1.323125 -16.46657,-4.115508 -17.13945,-9.11291 -23.66841,-30.470391 -14.5555,-47.609833 l 12.93162,6.876739 c -5.32082,10.007254 -1.50834,22.478387 8.50006,27.800906 10.00953,5.320821 22.47953,1.50834 27.80091,-8.500058 l 12.93163,6.876738 c -6.3211,11.887168 -18.53338,18.671016 -31.14215,18.671016 z"
     id="path11"
     inkscape:connector-curvature="0" /><g
     id="g13"
     transform="matrix(0.56640625,0,0,0.56640625,-4.3389832,-4.3389843)"><path
       style="fill:#f9b54c"
       d="m 306.145,129.705 c -9.394,17.67 -31.411,24.4 -49.083,15.007 -0.269,-0.143 -0.51,-0.315 -0.774,-0.464 l 0,27.951 c 5.832,1.746 11.792,2.61 17.706,2.61 22.261,0 43.822,-11.978 54.982,-32.963 l -22.831,-12.141 z"
       id="path15"
       inkscape:connector-curvature="0" /><path
       style="fill:#f9b54c"
       d="m 274.096,125.602 c -3.398,0 -6.723,-1.379 -9.137,-3.791 -2.413,-2.413 -3.793,-5.741 -3.793,-9.138 0,-3.412 1.379,-6.739 3.793,-9.154 2.412,-2.396 5.739,-3.775 9.137,-3.775 3.412,0 6.74,1.381 9.137,3.775 2.413,2.413 3.793,5.741 3.793,9.154 0,3.398 -1.379,6.723 -3.793,9.138 -2.395,2.414 -5.724,3.791 -9.137,3.791 z"
       id="path17"
       inkscape:connector-curvature="0" /></g><g
     id="g19"
     transform="translate(0,-212)" /><g
     id="g21"
     transform="translate(0,-212)" /><g
     id="g23"
     transform="translate(0,-212)" /><g
     id="g25"
     transform="translate(0,-212)" /><g
     id="g27"
     transform="translate(0,-212)" /><g
     id="g29"
     transform="translate(0,-212)" /><g
     id="g31"
     transform="translate(0,-212)" /><g
     id="g33"
     transform="translate(0,-212)" /><g
     id="g35"
     transform="translate(0,-212)" /><g
     id="g37"
     transform="translate(0,-212)" /><g
     id="g39"
     transform="translate(0,-212)" /><g
     id="g41"
     transform="translate(0,-212)" /><g
     id="g43"
     transform="translate(0,-212)" /><g
     id="g45"
     transform="translate(0,-212)" /><g
     id="g47"
     transform="translate(0,-212)" /><circle
     style="fill:none;fill-opacity:1;stroke:#ffffff;stroke-width:9.73153877;stroke-miterlimit:4;stroke-dasharray:none;stroke-opacity:1"
     cx="144.65387"
     cy="144.65387"
     r="141.10732"
     id="circle3-0" /></svg>