<?xml version="1.0" encoding="UTF-8" standalone="no"?>
<!-- Generator: Adobe Illustrator 19.0.0, SVG Export Plug-In . SVG Version: 6.00 Build 0)  -->

<svg
   xmlns:dc="http://purl.org/dc/elements/1.1/"
   xmlns:cc="http://creativecommons.org/ns#"
   xmlns:rdf="http://www.w3.org/1999/02/22-rdf-syntax-ns#"
   xmlns:svg="http://www.w3.org/2000/svg"
   xmlns="http://www.w3.org/2000/svg"
   xmlns:sodipodi="http://sodipodi.sourceforge.net/DTD/sodipodi-0.dtd"
   xmlns:inkscape="http://www.inkscape.org/namespaces/inkscape"
   version="1.1"
   id="Layer_1"
   x="0px"
   y="0px"
   viewBox="0 0 300.00001 300.00001"
   xml:space="preserve"
   inkscape:version="0.91 r13725"
   sodipodi:docname="symbol-store-contents.svg"
   width="300"
   height="300"><metadata
     id="metadata103"><rdf:RDF><cc:Work
         rdf:about=""><dc:format>image/svg+xml</dc:format><dc:type
           rdf:resource="http://purl.org/dc/dcmitype/StillImage" /><dc:title></dc:title></cc:Work></rdf:RDF></metadata><defs
     id="defs101" /><sodipodi:namedview
     pagecolor="#ffffff"
     bordercolor="#666666"
     borderopacity="1"
     objecttolerance="10"
     gridtolerance="10"
     guidetolerance="10"
     inkscape:pageopacity="0"
     inkscape:pageshadow="2"
     inkscape:window-width="1920"
     inkscape:window-height="1017"
     id="namedview99"
     showgrid="false"
     inkscape:zoom="1.8725589"
     inkscape:cx="86.201579"
     inkscape:cy="248.87103"
     inkscape:window-x="1912"
     inkscape:window-y="-8"
     inkscape:window-maximized="1"
     inkscape:current-layer="Layer_1" /><ellipse
     style="fill:#273640;fill-opacity:0.39215687"
     cx="155.03473"
     cy="155.0076"
     id="circle3-4"
     rx="144.96527"
     ry="144.9924" /><ellipse
     style="fill:#7c9ae8;fill-opacity:1;stroke-width:0.9779011"
     cx="142.82857"
     cy="142.85631"
     id="circle3"
     rx="141.7617"
     ry="141.78822" /><path
     style="fill:#506ebb;fill-opacity:1"
     d="M 284.6597,132.62187 210.25773,52.705353 150.67156,181.75676 90.201654,123.73806 74.544557,191.85784 65.843633,226.72309 129.45339,284.3666 c 38.81011,3.17416 153.78735,-17.63044 155.20631,-151.74473 z"
     id="path5-6-0"
     inkscape:connector-curvature="0"
     sodipodi:nodetypes="cccccccc" /><path
     style="fill:#324a5e"
     d="m 205.08542,230.27178 -131.14806,0 c -5.662607,0 -10.192808,-4.53105 -10.192808,-10.19471 l 0,-160.624142 c 0,-5.663667 4.530201,-10.19471 10.192808,-10.19471 l 131.14806,0 c 5.66261,0 10.19281,4.531043 10.19281,10.19471 l 0,160.624142 c 0.2266,5.66366 -4.3036,10.19471 -10.19281,10.19471 z"
     id="path5"
     inkscape:connector-curvature="0" /><rect
     x="77.788368"
     y="64.210793"
     style="fill:#ededed"
     width="123.44667"
     height="134.57106"
     id="rect7" /><ellipse
     style="fill:#2b3b4e"
     cx="139.625"
     cy="213.9603"
     id="circle9"
     rx="8.8338051"
     ry="8.8354578" /><path
     style="fill:#54c0eb"
     d="m 176.54522,189.94562 -73.61505,0 c -2.718,0 -4.756786,-2.03917 -4.756786,-4.75769 l 0,-47.57572 c 0,-2.71851 2.038786,-4.75769 4.756786,-4.75769 l 73.61505,0 c 2.718,0 4.75679,2.03918 4.75679,4.75769 l 0,47.57572 c 0,2.71909 -2.26481,4.75769 -4.75679,4.75769 z"
     id="path11"
     inkscape:connector-curvature="0" /><polygon
     style="fill:#2b3b4e"
     points="191.015,283.569 191.015,296.172 184.714,289.871 "
     id="polygon13"
     transform="matrix(0.57511752,0,0,0.57522516,-5.340286,-5.3403764)" /><g
     id="g15"
     transform="matrix(0.57511752,0,0,0.57522516,-5.340286,-5.3403764)"><rect
       x="196.13499"
       y="320.19699"
       style="fill:#ffffff"
       width="15.36"
       height="7.0890002"
       id="rect17" /><rect
       x="220.16"
       y="320.19699"
       style="fill:#ffffff"
       width="15.36"
       height="7.0890002"
       id="rect19" /><rect
       x="244.578"
       y="320.19699"
       style="fill:#ffffff"
       width="15.36"
       height="7.0890002"
       id="rect21" /><rect
       x="268.603"
       y="320.19699"
       style="fill:#ffffff"
       width="15.36"
       height="7.0890002"
       id="rect23" /><rect
       x="293.022"
       y="320.19699"
       style="fill:#ffffff"
       width="15.36"
       height="7.0890002"
       id="rect25" /></g><g
     id="g27"
     transform="matrix(0.57511752,0,0,0.57522516,-5.340286,-5.3403764)"><rect
       x="196.13499"
       y="289.871"
       style="fill:#324a5e"
       width="33.870998"
       height="7.0890002"
       id="rect29" /><rect
       x="196.13499"
       y="305.23099"
       style="fill:#324a5e"
       width="48.837002"
       height="7.0890002"
       id="rect31" /></g><path
     style="fill:#ffd05b"
     d="m 120.14517,156.8696 -10.19281,0 c -1.359,0 -2.71801,-1.13262 -2.71801,-2.71851 l 0,-10.19472 c 0,-1.35926 1.13241,-2.71851 2.71801,-2.71851 l 10.19281,0 c 1.359,0 2.718,1.13261 2.718,2.71851 l 0,10.19472 c 0,1.58589 -1.1324,2.71851 -2.718,2.71851 z"
     id="path33"
     inkscape:connector-curvature="0" /><g
     id="g35"
     transform="matrix(0.57511752,0,0,0.57522516,-5.340286,-5.3403764)"><polygon
       style="fill:#f9b54c"
       points="205.194,266.24 205.194,255.212 202.831,255.212 202.831,263.877 196.135,263.877 196.135,266.24 "
       id="polygon37" /><polygon
       style="fill:#f9b54c"
       points="222.917,263.877 215.828,263.877 215.828,255.212 213.465,255.212 213.465,266.24 222.917,266.24 "
       id="polygon39" /><polygon
       style="fill:#f9b54c"
       points="196.135,270.572 196.135,273.329 208.345,273.329 208.345,281.994 210.708,281.994 210.708,273.329 222.917,273.329 222.917,270.572 "
       id="polygon41" /></g><polygon
     style="fill:#ff6d3a"
     points="187.471,120.911 161.477,181.563 102.006,181.563 144.542,120.911 "
     id="polygon43"
     transform="matrix(0.57511752,0,0,0.57522516,-5.340286,-5.3403764)" /><polygon
     style="fill:#ffffff"
     points="230.4,120.911 221.735,181.563 161.871,181.563 187.471,120.911 "
     id="polygon45"
     transform="matrix(0.57511752,0,0,0.57522516,-5.340286,-5.3403764)" /><g
     id="g47"
     transform="matrix(0.57511752,0,0,0.57522516,-5.340286,-5.3403764)"><polygon
       style="fill:#ff6d3a"
       points="273.723,120.911 282.388,181.563 222.523,181.563 231.188,120.911 "
       id="polygon49" /><polygon
       style="fill:#ff6d3a"
       points="359.582,120.911 402.117,181.563 342.646,181.563 316.652,120.911 "
       id="polygon51" /></g><polygon
     style="fill:#ffffff"
     points="316.652,120.911 342.646,181.563 282.782,181.563 274.117,120.911 "
     id="polygon53"
     transform="matrix(0.57511752,0,0,0.57522516,-5.340286,-5.3403764)" /><g
     id="g55"
     transform="matrix(0.57511752,0,0,0.57522516,-5.340286,-5.3403764)"><path
       style="fill:#eb5425"
       d="m 102.006,181.563 0,14.572 c 0,16.542 13.391,29.932 29.932,29.932 16.541,0 29.932,-13.391 29.932,-29.932 l 0,-14.572 -59.864,0 z"
       id="path57"
       inkscape:connector-curvature="0" /><path
       style="fill:#eb5425"
       d="m 222.523,181.563 0,14.572 c 0,16.542 13.391,29.932 29.932,29.932 16.541,0 29.932,-13.391 29.932,-29.932 l 0,-14.572 -59.864,0 z"
       id="path59"
       inkscape:connector-curvature="0" /><path
       style="fill:#eb5425"
       d="m 342.646,181.563 0,14.572 c 0,16.542 13.391,29.932 29.932,29.932 l 0,0 c 16.542,0 29.932,-13.391 29.932,-29.932 l 0,-14.572 -59.864,0 z"
       id="path61"
       inkscape:connector-curvature="0" /></g><g
     id="g63"
     transform="matrix(0.57511752,0,0,0.57522516,-5.340286,-5.3403764)"><path
       style="fill:#d7d6d4"
       d="m 161.871,181.563 0,14.572 c 0,16.542 13.391,29.932 29.932,29.932 16.541,0 29.932,-13.391 29.932,-29.932 l 0,-14.572 -59.864,0 z"
       id="path65"
       inkscape:connector-curvature="0" /><path
       style="fill:#d7d6d4"
       d="m 282.782,181.563 0,14.572 c 0,16.542 13.391,29.932 29.932,29.932 16.542,0 29.932,-13.391 29.932,-29.932 l 0,-14.572 -59.864,0 z"
       id="path67"
       inkscape:connector-curvature="0" /></g><g
     id="g69"
     transform="translate(0,-204.12298)" /><g
     id="g71"
     transform="translate(0,-204.12298)" /><g
     id="g73"
     transform="translate(0,-204.12298)" /><g
     id="g75"
     transform="translate(0,-204.12298)" /><g
     id="g77"
     transform="translate(0,-204.12298)" /><g
     id="g79"
     transform="translate(0,-204.12298)" /><g
     id="g81"
     transform="translate(0,-204.12298)" /><g
     id="g83"
     transform="translate(0,-204.12298)" /><g
     id="g85"
     transform="translate(0,-204.12298)" /><g
     id="g87"
     transform="translate(0,-204.12298)" /><g
     id="g89"
     transform="translate(0,-204.12298)" /><g
     id="g91"
     transform="translate(0,-204.12298)" /><g
     id="g93"
     transform="translate(0,-204.12298)" /><g
     id="g95"
     transform="translate(0,-204.12298)" /><g
     id="g97"
     transform="translate(0,-204.12298)" /><ellipse
     style="fill:none;fill-opacity:1;stroke:#ffffff;stroke-width:9.71516991;stroke-miterlimit:4;stroke-dasharray:none;stroke-opacity:1"
     cx="144.86243"
     cy="144.89034"
     id="circle3-2"
     rx="140.83623"
     ry="140.86259" /><circle
     style="opacity:1;fill:#07ff00;fill-opacity:1;fill-rule:nonzero;stroke:#ffffff;stroke-width:16.99967003;stroke-linecap:butt;stroke-linejoin:miter;stroke-miterlimit:4;stroke-dasharray:none;stroke-opacity:1"
     id="path8111"
     cx="243.83224"
     cy="243.83224"
     r="47.667919" /></svg>