<?xml version="1.0" encoding="UTF-8" standalone="no"?>
<!-- Generator: Adobe Illustrator 19.0.0, SVG Export Plug-In . SVG Version: 6.00 Build 0)  -->

<svg
   xmlns:dc="http://purl.org/dc/elements/1.1/"
   xmlns:cc="http://creativecommons.org/ns#"
   xmlns:rdf="http://www.w3.org/1999/02/22-rdf-syntax-ns#"
   xmlns:svg="http://www.w3.org/2000/svg"
   xmlns="http://www.w3.org/2000/svg"
   xmlns:sodipodi="http://sodipodi.sourceforge.net/DTD/sodipodi-0.dtd"
   xmlns:inkscape="http://www.inkscape.org/namespaces/inkscape"
   version="1.1"
   id="Layer_1"
   x="0px"
   y="0px"
   viewBox="0 0 300 300"
   xml:space="preserve"
   inkscape:version="0.92.1 r15371"
   sodipodi:docname="symbol-theatre.svg"
   width="300"
   height="300"><metadata
     id="metadata43"><rdf:RDF><cc:Work
         rdf:about=""><dc:format>image/svg+xml</dc:format><dc:type
           rdf:resource="http://purl.org/dc/dcmitype/StillImage" /><dc:title /></cc:Work></rdf:RDF></metadata><defs
     id="defs41" /><sodipodi:namedview
     pagecolor="#ffffff"
     bordercolor="#666666"
     borderopacity="1"
     objecttolerance="10"
     gridtolerance="10"
     guidetolerance="10"
     inkscape:pageopacity="0"
     inkscape:pageshadow="2"
     inkscape:window-width="1366"
     inkscape:window-height="705"
     id="namedview39"
     showgrid="false"
     inkscape:zoom="1.8582677"
     inkscape:cx="80.759188"
     inkscape:cy="170.97664"
     inkscape:window-x="-4"
     inkscape:window-y="-4"
     inkscape:window-maximized="1"
     inkscape:current-layer="Layer_1" /><ellipse
     style="fill:#273640;fill-opacity:0.39215686"
     cx="155.02844"
     cy="155"
     id="circle3-7"
     rx="144.97156"
     ry="145" /><ellipse
     style="fill:#d78f3a;fill-opacity:1;stroke-width:0.97030973"
     cx="143.89449"
     cy="143.92377"
     id="circle3"
     rx="140.66731"
     ry="140.69492" /><path
     style="fill:#ac722e;fill-opacity:1"
     d="m 54.717607,186.96856 82.683893,4.21261 39.27705,21.60783 36.37245,-7.48329 20.55858,-31.48323 -8.20171,-85.104762 59.21073,59.422852 C 270.84418,269.49102 170.34006,286.36789 132.48797,284.48582 109.20704,259.60709 79.670807,219.25249 54.717607,186.96856 Z"
     id="path5-7-1"
     inkscape:connector-curvature="0"
     sodipodi:nodetypes="ccccccccc" /><path
     style="fill:#324a5e"
     d="m 226.11648,87.784204 c -15.29621,8.677154 -34.24525,16.897596 -55.249,23.747996 -21.00375,6.85039 -41.0943,10.96063 -58.67353,13.01574 1.14151,9.36221 3.19623,19.18111 6.39245,29 16.66602,51.37796 56.84711,84.48819 89.72255,73.98425 32.87544,-10.73228 46.34524,-60.9685 29.67922,-112.34645 -3.19623,-9.8189 -7.30566,-18.952728 -11.87169,-27.401536 z m -96.7999,59.598386 c 14.8396,-8.22047 33.56034,-2.9685 42.0075,11.87401 l 0,0 c -15.06791,8.44882 -33.78864,2.96851 -42.0075,-11.87401 z m 71.23011,56.17323 c -18.94903,6.16535 -39.26788,-3.19685 -47.25844,-20.77953 11.18678,6.3937 26.48299,7.99213 41.7792,3.19685 15.06791,-4.79528 26.483,-15.07087 31.96224,-26.94488 3.65282,19.1811 -7.53396,38.3622 -26.483,44.52756 z m -2.05471,-52.97638 0,0 c -2.05472,-16.89764 10.04527,-32.19685 26.93959,-34.25197 2.05472,16.89764 -10.04527,32.19685 -26.93959,34.25197 z"
     id="path5"
     inkscape:connector-curvature="0" /><path
     style="fill:#ffffff"
     d="M 184.62973,93.217275 C 165.22409,92.075543 142.62223,88.650346 119.10716,82.484991 95.592129,76.319637 74.360075,68.327511 56.780847,59.650347 52.214814,69.01255 48.333686,79.288141 45.365765,90.477117 30.297855,148.24873 48.105384,203.05188 85.090253,212.64243 c 36.984827,9.59055 79.220637,-29.22835 94.288547,-87 2.96792,-11.18897 4.79433,-21.92122 5.25093,-32.425155 z M 59.063864,91.162157 c 18.720736,1.141732 33.10374,17.354303 31.962232,36.078703 v 0 C 72.30536,126.09912 57.922356,109.88653 59.063864,91.162157 Z m 33.10374,94.535393 c -21.232054,-5.48032 -34.701852,-26.0315 -31.73393,-47.49606 6.620748,12.7874 20.090546,23.29134 36.984866,27.62992 16.89428,4.33858 33.78861,1.59842 45.88859,-6.16536 -7.99055,20.32284 -29.90751,31.74016 -51.139526,26.0315 z m 29.679176,-50.46457 v 0 c 8.21886,-16.89764 28.53771,-23.97638 45.43203,-15.7559 -8.21886,16.89763 -28.53771,23.97638 -45.43203,15.7559 z"
     id="path7"
     inkscape:connector-curvature="0" /><g
     id="g9"
     transform="translate(0,-208)" /><g
     id="g11"
     transform="translate(0,-208)" /><g
     id="g13"
     transform="translate(0,-208)" /><g
     id="g15"
     transform="translate(0,-208)" /><g
     id="g17"
     transform="translate(0,-208)" /><g
     id="g19"
     transform="translate(0,-208)" /><g
     id="g21"
     transform="translate(0,-208)" /><g
     id="g23"
     transform="translate(0,-208)" /><g
     id="g25"
     transform="translate(0,-208)" /><g
     id="g27"
     transform="translate(0,-208)" /><g
     id="g29"
     transform="translate(0,-208)" /><g
     id="g31"
     transform="translate(0,-208)" /><g
     id="g33"
     transform="translate(0,-208)" /><g
     id="g35"
     transform="translate(0,-208)" /><g
     id="g37"
     transform="translate(0,-208)" /><ellipse
     style="fill:none;fill-opacity:1;stroke:#ffffff;stroke-width:9.65918064;stroke-miterlimit:4;stroke-dasharray:none;stroke-opacity:1"
     cx="145.66342"
     cy="145.69284"
     id="circle3-2"
     rx="140.03065"
     ry="140.05812" /></svg>