<?xml version="1.0" encoding="UTF-8" standalone="no"?>
<!-- Generator: Adobe Illustrator 19.0.0, SVG Export Plug-In . SVG Version: 6.00 Build 0)  -->

<svg
   xmlns:dc="http://purl.org/dc/elements/1.1/"
   xmlns:cc="http://creativecommons.org/ns#"
   xmlns:rdf="http://www.w3.org/1999/02/22-rdf-syntax-ns#"
   xmlns:svg="http://www.w3.org/2000/svg"
   xmlns="http://www.w3.org/2000/svg"
   xmlns:sodipodi="http://sodipodi.sourceforge.net/DTD/sodipodi-0.dtd"
   xmlns:inkscape="http://www.inkscape.org/namespaces/inkscape"
   version="1.1"
   id="Layer_1"
   x="0px"
   y="0px"
   viewBox="0 0 299.99999 299.99999"
   xml:space="preserve"
   inkscape:version="0.92.2 (5c3e80d, 2017-08-06)"
   sodipodi:docname="symbol-bus-stop.svg"
   width="300"
   height="300"><metadata
     id="metadata67"><rdf:RDF><cc:Work
         rdf:about=""><dc:format>image/svg+xml</dc:format><dc:type
           rdf:resource="http://purl.org/dc/dcmitype/StillImage" /><dc:title></dc:title></cc:Work></rdf:RDF></metadata><defs
     id="defs65" /><sodipodi:namedview
     pagecolor="#ffffff"
     bordercolor="#666666"
     borderopacity="1"
     objecttolerance="10"
     gridtolerance="10"
     guidetolerance="10"
     inkscape:pageopacity="0"
     inkscape:pageshadow="2"
     inkscape:window-width="1920"
     inkscape:window-height="1017"
     id="namedview63"
     showgrid="false"
     inkscape:zoom="0.16296537"
     inkscape:cx="3165.4889"
     inkscape:cy="-117.44672"
     inkscape:window-x="-8"
     inkscape:window-y="-8"
     inkscape:window-maximized="1"
     inkscape:current-layer="Layer_1" /><ellipse
     style="fill:#273640;fill-opacity:0.39215686"
     cx="155"
     cy="155.00082"
     id="circle3-8"
     rx="145"
     ry="144.99918" /><ellipse
     style="fill:#ffa700;stroke-width:0.97381622;fill-opacity:1"
     cx="143.91528"
     cy="143.37207"
     id="circle3"
     rx="141.20335"
     ry="141.20255" /><path
     style="fill:#ff2e19;fill-opacity:1"
     d="m 283.85229,161.19431 -81.66605,-78.159943 -90.58356,48.657353 -28.994816,-27.45938 -12.991806,26.68842 1.100321,12.58603 19.152205,18.38497 h -8.255937 l -3.670313,13.20909 5.195428,5.94775 8.195778,9.34628 -3.38016,16.02193 89.87229,72.62839 c 7.13189,0.44692 19.36762,-7.47858 19.36762,-7.47858 49.45495,-20.32841 73.63902,-36.69196 86.659,-110.37231 z"
     id="path5"
     inkscape:connector-curvature="0"
     sodipodi:nodetypes="ccccccccccccccc" /><g
     id="g33"
     transform="translate(0,-212.00202)" /><g
     id="g35"
     transform="translate(0,-212.00202)" /><g
     id="g37"
     transform="translate(0,-212.00202)" /><g
     id="g39"
     transform="translate(0,-212.00202)" /><g
     id="g41"
     transform="translate(0,-212.00202)" /><g
     id="g43"
     transform="translate(0,-212.00202)" /><g
     id="g45"
     transform="translate(0,-212.00202)" /><g
     id="g47"
     transform="translate(0,-212.00202)" /><g
     id="g49"
     transform="translate(0,-212.00202)" /><g
     id="g51"
     transform="translate(0,-212.00202)" /><g
     id="g53"
     transform="translate(0,-212.00202)" /><g
     id="g55"
     transform="translate(0,-212.00202)" /><g
     id="g57"
     transform="translate(0,-212.00202)" /><g
     id="g59"
     transform="translate(0,-212.00202)" /><g
     id="g61"
     transform="translate(0,-212.00202)" /><ellipse
     style="fill:none;stroke:#ffffff;stroke-width:9.729;stroke-miterlimit:4;stroke-dasharray:none;stroke-opacity:1;fill-opacity:1"
     cx="144.60173"
     cy="144.0585"
     id="circle3-85"
     rx="141.06776"
     ry="141.06696" /><polygon
     style="fill:#2e53c8;fill-opacity:1"
     points="156.17,15 355.83,15 497,156.17 497,355.83 355.83,497 156.17,497 15,355.83 15,156.17 "
     id="polygon4532"
     transform="matrix(0.32344211,0,0,0.32006634,59.275392,62.14922)" /><polygon
     style="fill:#2549b3;fill-opacity:1"
     points="256,497 256,15 355.83,15 497,156.17 497,355.83 355.83,497 "
     id="polygon4534"
     transform="matrix(0.32175422,0,0,0.31725319,59.843085,62.462605)" /><circle
     style="opacity:1;fill:#2549b3;fill-opacity:0.01005028;stroke:#2d213f;stroke-width:10;stroke-miterlimit:4;stroke-dasharray:none;stroke-opacity:1"
     id="path4649"
     cx="142.64462"
     cy="142.98241"
     r="80.271507" /><g
     id="g4544"
     transform="matrix(0.30487533,0,0,0.30487533,64.164081,65.631336)"><path
       inkscape:connector-curvature="0"
       style="fill:#ffffff"
       d="m 147.91,258.24 c -1.58,-3.55 -3.81,-6.57 -6.7,-9.06 -2.9,-2.48 -6.42,-4.57 -10.58,-6.24 -4.17,-1.68 -8.84,-3.22 -14.02,-4.65 -3.75,-1 -7.05,-1.92 -9.89,-2.73 -2.84,-0.82 -5.2,-1.7 -7.08,-2.66 -1.88,-0.98 -3.29,-2.07 -4.27,-3.28 -0.96,-1.22 -1.44,-2.74 -1.44,-4.58 0,-5.98 4.47,-8.97 13.4,-8.97 3.24,0 6.5,0.46 9.74,1.36 3.26,0.92 6.25,1.99 8.99,3.2 2.74,1.23 5.02,2.39 6.85,3.51 1.83,1.11 2.89,1.88 3.2,2.28 l 10.96,-20.71 c -2.43,-1.42 -5.1,-2.84 -7.99,-4.27 -2.9,-1.42 -6.02,-2.68 -9.37,-3.8 -3.34,-1.11 -6.85,-2.03 -10.51,-2.74 -3.65,-0.71 -7.36,-1.07 -11.1,-1.07 -5.39,0 -10.49,0.77 -15.32,2.28 -4.81,1.53 -9.05,3.79 -12.71,6.79 -3.64,2.99 -6.54,6.67 -8.68,11.04 -2.13,4.35 -3.19,9.38 -3.19,15.07 0,4.06 0.58,7.61 1.75,10.66 1.17,3.04 2.94,5.73 5.33,8.07 2.38,2.33 5.4,4.39 9.06,6.17 3.65,1.77 7.96,3.42 12.94,4.94 3.75,1.12 7.23,2.13 10.43,3.05 3.2,0.91 5.97,1.9 8.3,2.96 2.33,1.07 4.16,2.26 5.49,3.58 1.31,1.32 1.97,3 1.97,5.03 0,5.38 -4.42,8.07 -13.24,8.07 -4.17,0 -8.28,-0.56 -12.35,-1.67 -4.05,-1.12 -7.73,-2.38 -11.03,-3.82 -3.3,-1.41 -6.07,-2.83 -8.29,-4.25 -2.24,-1.42 -3.57,-2.38 -3.97,-2.9 l -10.96,21.78 c 3.14,2.13 6.57,4.01 10.27,5.63 3.72,1.62 7.55,3.02 11.5,4.19 3.97,1.16 8.02,2.05 12.19,2.66 4.16,0.61 8.21,0.92 12.18,0.92 5.17,0 10.2,-0.59 15.07,-1.76 4.87,-1.16 9.18,-3.04 12.94,-5.62 3.76,-2.6 6.78,-6 9.06,-10.22 2.28,-4.2 3.43,-9.35 3.43,-15.45 0,-4.97 -0.78,-9.24 -2.36,-12.79 z"
       id="path4536" /><path
       inkscape:connector-curvature="0"
       style="fill:#ffffff"
       d="m 155.6,194.75 v 21.93 h 33.04 v 86.17 h 24.97 v -86.17 h 32.9 v -21.93 z"
       id="path4538" /><path
       inkscape:connector-curvature="0"
       style="fill:#ffffff"
       d="m 351.1,229.01 c -2.53,-6.6 -6.13,-12.48 -10.81,-17.66 -4.66,-5.18 -10.3,-9.35 -16.89,-12.49 -6.61,-3.15 -13.91,-4.72 -21.93,-4.72 -7.82,0 -15.03,1.49 -21.62,4.49 -6.6,3 -12.31,7.01 -17.14,12.03 -2.53,2.65 -4.78,5.5 -6.71,8.59 -0.04,0.06 -0.07,0.11 -0.11,0.17 -1.72,2.72 -3.19,5.61 -4.44,8.67 -2.69,6.61 -4.04,13.46 -4.04,20.56 0,7 1.3,13.81 3.89,20.4 1.27,3.26 2.81,6.33 4.59,9.22 0.03,0.06 0.07,0.11 0.11,0.17 1.79,2.92 3.87,5.65 6.19,8.2 4.66,5.13 10.3,9.27 16.89,12.41 6.6,3.15 13.92,4.72 21.93,4.72 7.82,0 15.03,-1.53 21.62,-4.56 6.6,-3.05 12.29,-7.09 17.06,-12.11 4.76,-5.03 8.5,-10.84 11.19,-17.43 2.69,-6.6 4.04,-13.46 4.04,-20.57 0,-6.79 -1.28,-13.5 -3.82,-20.09 z m -23.37,31.59 c -1.16,3.91 -2.91,7.42 -5.25,10.51 -2.34,3.1 -5.27,5.61 -8.83,7.53 -3.55,1.94 -7.71,2.9 -12.49,2.9 -4.56,0 -8.62,-0.91 -12.17,-2.74 -3.56,-1.83 -6.53,-4.26 -8.91,-7.31 -2.4,-3.05 -4.2,-6.52 -5.41,-10.43 -1.22,-3.91 -1.82,-7.94 -1.82,-12.11 0,-4.05 0.58,-8.04 1.74,-11.95 1.17,-3.91 2.94,-7.38 5.33,-10.43 2.38,-3.04 5.33,-5.5 8.84,-7.38 3.49,-1.88 7.63,-2.82 12.4,-2.82 4.57,0 8.61,0.89 12.1,2.67 3.51,1.77 6.48,4.16 8.92,7.15 2.43,2.99 4.25,6.44 5.48,10.35 1.22,3.91 1.82,7.95 1.82,12.11 0,4.06 -0.58,8.04 -1.75,11.95 z"
       id="path4540" /><path
       inkscape:connector-curvature="0"
       style="fill:#ffffff"
       d="m 448.18,218.04 c -1.78,-4.35 -4.22,-8.26 -7.32,-11.73 -3.09,-3.44 -6.79,-6.23 -11.1,-8.36 -4.33,-2.14 -9.07,-3.2 -14.25,-3.2 h -46.14 v 108.1 h 24.98 v -34.87 h 21.93 c 5.18,0 9.89,-1 14.15,-3.04 4.27,-2.02 7.9,-4.76 10.89,-8.21 2.99,-3.46 5.33,-7.37 7.01,-11.73 1.67,-4.37 2.51,-8.94 2.51,-13.71 0,-4.47 -0.89,-8.88 -2.66,-13.25 z m -25.82,24.37 c -2.13,2.53 -4.66,3.8 -7.61,3.8 h -20.4 v -29.53 h 19.49 c 1.42,0 2.84,0.27 4.26,0.83 1.42,0.56 2.69,1.45 3.81,2.66 1.12,1.23 2,2.74 2.67,4.58 0.65,1.82 0.98,4.01 0.98,6.54 0,4.87 -1.06,8.58 -3.2,11.12 z"
       id="path4542" /></g><g
     id="g4550"
     transform="matrix(0.30487533,0,0,0.30487533,64.164081,65.631336)"
     style="fill:#ffffff;fill-opacity:1"><path
       inkscape:connector-curvature="0"
       style="fill:#ffffff;fill-opacity:1"
       d="m 351.1,229.01 c -2.53,-6.6 -6.13,-12.48 -10.81,-17.66 -4.66,-5.18 -10.3,-9.35 -16.89,-12.49 -6.61,-3.15 -13.91,-4.72 -21.93,-4.72 -7.82,0 -15.03,1.49 -21.62,4.49 -6.6,3 -12.31,7.01 -17.14,12.03 -2.53,2.65 -4.78,5.5 -6.71,8.59 v 59.19 c 1.79,2.92 3.87,5.65 6.19,8.2 4.66,5.13 10.3,9.27 16.89,12.41 6.6,3.15 13.92,4.72 21.93,4.72 7.82,0 15.03,-1.53 21.62,-4.56 6.6,-3.05 12.29,-7.09 17.06,-12.11 4.76,-5.03 8.5,-10.84 11.19,-17.43 2.69,-6.6 4.04,-13.46 4.04,-20.57 0,-6.79 -1.28,-13.5 -3.82,-20.09 z m -23.37,31.59 c -1.16,3.91 -2.91,7.42 -5.25,10.51 -2.34,3.1 -5.27,5.61 -8.83,7.53 -3.55,1.94 -7.71,2.9 -12.49,2.9 -4.56,0 -8.62,-0.91 -12.17,-2.74 -3.56,-1.83 -6.53,-4.26 -8.91,-7.31 -2.4,-3.05 -4.2,-6.52 -5.41,-10.43 -1.22,-3.91 -1.82,-7.94 -1.82,-12.11 0,-4.05 0.58,-8.04 1.74,-11.95 1.17,-3.91 2.94,-7.38 5.33,-10.43 2.38,-3.04 5.33,-5.5 8.84,-7.38 3.49,-1.88 7.63,-2.82 12.4,-2.82 4.57,0 8.61,0.89 12.1,2.67 3.51,1.77 6.48,4.16 8.92,7.15 2.43,2.99 4.25,6.44 5.48,10.35 1.22,3.91 1.82,7.95 1.82,12.11 0,4.06 -0.58,8.04 -1.75,11.95 z"
       id="path4546" /><path
       inkscape:connector-curvature="0"
       style="fill:#ffffff;fill-opacity:1"
       d="m 448.18,218.04 c -1.78,-4.35 -4.22,-8.26 -7.32,-11.73 -3.09,-3.44 -6.79,-6.23 -11.1,-8.36 -4.33,-2.14 -9.07,-3.2 -14.25,-3.2 h -46.14 v 108.1 h 24.98 v -34.87 h 21.93 c 5.18,0 9.89,-1 14.15,-3.04 4.27,-2.02 7.9,-4.76 10.89,-8.21 2.99,-3.46 5.33,-7.37 7.01,-11.73 1.67,-4.37 2.51,-8.94 2.51,-13.71 0,-4.47 -0.89,-8.88 -2.66,-13.25 z m -25.82,24.37 c -2.13,2.53 -4.66,3.8 -7.61,3.8 h -20.4 v -29.53 h 19.49 c 1.42,0 2.84,0.27 4.26,0.83 1.42,0.56 2.69,1.45 3.81,2.66 1.12,1.23 2,2.74 2.67,4.58 0.65,1.82 0.98,4.01 0.98,6.54 0,4.87 -1.06,8.58 -3.2,11.12 z"
       id="path4548" /></g><g
     id="g4556"
     transform="matrix(0.30487533,0,0,0.30487533,68.164081,65.631336)" /><g
     id="g4558"
     transform="matrix(0.30487533,0,0,0.30487533,68.164081,65.631336)" /><g
     id="g4560"
     transform="matrix(0.30487533,0,0,0.30487533,68.164081,65.631336)" /><g
     id="g4562"
     transform="matrix(0.30487533,0,0,0.30487533,68.164081,65.631336)" /><g
     id="g4564"
     transform="matrix(0.30487533,0,0,0.30487533,68.164081,65.631336)" /><g
     id="g4566"
     transform="matrix(0.30487533,0,0,0.30487533,68.164081,65.631336)" /><g
     id="g4568"
     transform="matrix(0.30487533,0,0,0.30487533,68.164081,65.631336)" /><g
     id="g4570"
     transform="matrix(0.30487533,0,0,0.30487533,68.164081,65.631336)" /><g
     id="g4572"
     transform="matrix(0.30487533,0,0,0.30487533,68.164081,65.631336)" /><g
     id="g4574"
     transform="matrix(0.30487533,0,0,0.30487533,68.164081,65.631336)" /><g
     id="g4576"
     transform="matrix(0.30487533,0,0,0.30487533,68.164081,65.631336)" /><g
     id="g4578"
     transform="matrix(0.30487533,0,0,0.30487533,68.164081,65.631336)" /><g
     id="g4580"
     transform="matrix(0.30487533,0,0,0.30487533,68.164081,65.631336)" /><g
     id="g4582"
     transform="matrix(0.30487533,0,0,0.30487533,68.164081,65.631336)" /><g
     id="g4584"
     transform="matrix(0.30487533,0,0,0.30487533,68.164081,65.631336)" /></svg>