<?xml version="1.0" encoding="UTF-8" standalone="no"?>
<!-- Generator: Adobe Illustrator 19.0.0, SVG Export Plug-In . SVG Version: 6.00 Build 0)  -->

<svg
   xmlns:dc="http://purl.org/dc/elements/1.1/"
   xmlns:cc="http://creativecommons.org/ns#"
   xmlns:rdf="http://www.w3.org/1999/02/22-rdf-syntax-ns#"
   xmlns:svg="http://www.w3.org/2000/svg"
   xmlns="http://www.w3.org/2000/svg"
   xmlns:sodipodi="http://sodipodi.sourceforge.net/DTD/sodipodi-0.dtd"
   xmlns:inkscape="http://www.inkscape.org/namespaces/inkscape"
   version="1.1"
   id="Layer_1"
   x="0px"
   y="0px"
   viewBox="0 0 300 300"
   xml:space="preserve"
   inkscape:version="0.91 r13725"
   sodipodi:docname="symbol-library-contents.svg"
   width="300"
   height="300"><metadata
     id="metadata51"><rdf:RDF><cc:Work
         rdf:about=""><dc:format>image/svg+xml</dc:format><dc:type
           rdf:resource="http://purl.org/dc/dcmitype/StillImage" /><dc:title></dc:title></cc:Work></rdf:RDF></metadata><defs
     id="defs49" /><sodipodi:namedview
     pagecolor="#ffffff"
     bordercolor="#666666"
     borderopacity="1"
     objecttolerance="10"
     gridtolerance="10"
     guidetolerance="10"
     inkscape:pageopacity="0"
     inkscape:pageshadow="2"
     inkscape:window-width="1920"
     inkscape:window-height="1017"
     id="namedview47"
     showgrid="false"
     inkscape:zoom="1.84375"
     inkscape:cx="-182.91525"
     inkscape:cy="213.26804"
     inkscape:window-x="1912"
     inkscape:window-y="-8"
     inkscape:window-maximized="1"
     inkscape:current-layer="Layer_1" /><circle
     style="fill:#273640;fill-opacity:0.39215686;stroke:none"
     cx="155"
     cy="155"
     r="145"
     id="circle3-6-2" /><circle
     style="fill:#d78f3a;fill-opacity:1;stroke-width:0.97568673"
     cx="143.10168"
     cy="143.10168"
     r="141.47458"
     id="circle3" /><path
     style="fill:#ac722e;fill-opacity:1"
     d="m 161.44864,67.264261 -18.75484,9.647031 -24.40531,41.408858 25.1439,22.91906 -64.334714,11.83336 -11.831094,28.83914 -0.725,7.79149 93.201048,93.44343 c 55.6732,-7.74843 101.21906,-47.08648 117.94164,-99.34765 L 161.44864,67.264261 Z"
     id="path5"
     inkscape:connector-curvature="0" /><path
     style="fill:#f8ddc0"
     d="m 83.735411,186.91648 c 0.711406,-1.01727 0.783906,-1.04899 1.805703,-1.99149 1.916718,-1.75586 3.074453,-2.5964 2.890937,-5.59836 -0.117812,-1.90765 -1.744531,-3.7564 -1.48625,-5.23132 0.244688,-1.4568 1.366172,-0.89039 1.191719,-2.77539 -0.115547,-1.19852 -0.758984,-2.17274 -1.601797,-3.01329 -0.763516,-0.74765 -2.322265,-1.03086 -2.888672,-1.97336 -0.514297,-0.83148 0.0657,-2.08437 -0.147265,-3.00875 -0.634375,-2.69835 -2.798047,-3.86289 -5.192813,-4.4746 -2.983828,-0.75672 -3.584219,-0.725 -3.520781,-3.76094 0.05211,-2.50352 0.01586,-2.95664 -0.901719,-5.16336 l -0.747656,-0.96063 c -1.975625,-0.24242 -3.919531,1.4568 -5.190547,2.81844 -2.832031,3.04047 -6.12625,6.88524 -7.941016,10.59406 -1.912187,3.95125 -1.644843,9.45219 -0.704609,13.65493 1.989219,8.81554 12.023672,24.09492 22.2575,13.82937 0.894922,-0.89719 1.454531,-1.92805 2.177266,-2.94531 z"
     id="path7"
     inkscape:connector-curvature="0" /><path
     style="fill:#f7f7f8;fill-opacity:1"
     d="m 193.38036,189.4857 -0.52109,-0.76578 c -0.46219,-0.66383 -0.46219,-0.66383 -1.36844,-1.49079 l -0.34437,-0.31945 c -1.87141,-1.70828 -3.81305,-3.47773 -3.54571,-7.77562 0.0906,-1.4636 0.64117,-2.70289 1.07617,-3.7043 0.0929,-0.20391 0.20618,-0.46445 0.29454,-0.63664 -0.66836,-0.76125 -1.24157,-1.88953 -1.06938,-3.76547 0.17219,-1.81023 1.01953,-3.46867 2.52617,-4.95719 0.67969,-0.65929 1.45,-1.04445 2.06852,-1.35484 0.009,-0.009 0.0249,-0.0136 0.0317,-0.0136 -0.0589,-0.58 -0.0997,-1.305 0.0884,-2.1025 0.80429,-3.44601 3.31914,-5.72976 7.46523,-6.78328 0,0 0.60266,-0.14953 0.95156,-0.23789 l 0,-38.91437 -61.45736,18.16351 -61.457374,-18.16578 0,38.91891 c 0.353438,0.0884 0.956094,0.23789 0.956094,0.23789 4.141562,1.05351 6.649609,3.33726 7.460703,6.78328 0.192578,0.7975 0.147266,1.5225 0.08383,2.1025 0.0091,0 0.02492,0.005 0.03625,0.0136 0.618516,0.31039 1.39336,0.69555 2.06625,1.35485 1.513438,1.48625 2.360781,3.14695 2.526172,4.95719 0.178984,1.87593 -0.403281,3.00421 -1.073906,3.76546 0.09516,0.17219 0.212969,0.43274 0.301328,0.63664 0.437266,0.99915 0.985547,2.23844 1.078437,3.7043 0.267344,4.29563 -1.672031,6.06735 -3.547968,7.77563 l -0.344375,0.31945 c -0.90625,0.82695 -0.90625,0.82695 -1.368438,1.49078 l -0.518828,0.76578 c -0.530156,0.8043 -1.132812,1.71735 -2.005078,2.58508 -1.783047,1.79211 -3.679375,2.9657 -5.648203,3.64086 l 0,5.96992 61.452836,17.05789 0.002,0 61.45281,-17.05789 0,-5.96992 c -1.96883,-0.67742 -3.86742,-1.84875 -5.65047,-3.64086 -0.86547,-0.87 -1.46812,-1.78078 -1.99828,-2.58734 z"
     id="path9"
     inkscape:connector-curvature="0" /><path
     style="fill:#f8ddc0"
     d="m 219.13825,162.37749 c -1.80797,-3.70882 -5.10218,-7.55359 -7.93422,-10.59406 -1.27554,-1.36391 -3.21718,-3.06312 -5.19054,-2.81844 l -0.74539,0.96063 c -0.91532,2.20898 -0.95383,2.65984 -0.89946,5.16336 0.0634,3.03594 -0.54148,3.00422 -3.52757,3.76094 -2.38797,0.61171 -4.55164,1.77398 -5.18602,4.4746 -0.22203,0.92438 0.36023,2.17727 -0.14727,3.00875 -0.57093,0.9425 -2.12515,1.22571 -2.8932,1.97336 -0.84961,0.84055 -1.48851,1.81477 -1.6018,3.01329 -0.17218,1.885 0.94024,1.31859 1.19625,2.77539 0.24922,1.47265 -1.36843,3.32367 -1.48625,5.23132 -0.18804,2.99969 0.97649,3.84024 2.88415,5.59836 1.02406,0.9425 1.09203,0.97422 1.8125,1.99149 0.70914,1.01726 1.28007,2.04812 2.17726,2.94758 10.23156,10.26554 20.26828,-5.01383 22.25297,-13.82938 0.94477,-4.205 1.21211,-9.70367 -0.71141,-13.65719 z"
     id="path11"
     inkscape:connector-curvature="0" /><path
     style="fill:#392f37"
     d="m 150.68239,77.316839 c 0,0 4.60829,21.824785 20.56735,23.852531 0.65476,-2.582819 1.03992,-5.258544 1.03992,-8.043 0,-18.072891 -14.64953,-32.713359 -32.71789,-32.713359 -18.06609,0 -32.71109,14.642734 -32.71109,32.713359 0,1.85555 0.19257,3.668062 0.48937,5.442051 7.31344,0.541493 40.20352,1.685639 43.33234,-21.251582 z"
     id="path13"
     inkscape:connector-curvature="0" /><path
     style="fill:#f8ddc0"
     d="m 150.68239,77.316839 c -3.12882,22.937221 -36.0189,21.793075 -43.33234,21.253852 2.59641,15.469689 16.01117,27.264539 32.22172,27.264539 15.28617,0 28.08695,-10.49664 31.67797,-24.66586 -15.9568,-2.030006 -20.56735,-23.852531 -20.56735,-23.852531 z"
     id="path15"
     inkscape:connector-curvature="0" /><g
     id="g17"
     transform="translate(0,-212)" /><g
     id="g19"
     transform="translate(0,-212)" /><g
     id="g21"
     transform="translate(0,-212)" /><g
     id="g23"
     transform="translate(0,-212)" /><g
     id="g25"
     transform="translate(0,-212)" /><g
     id="g27"
     transform="translate(0,-212)" /><g
     id="g29"
     transform="translate(0,-212)" /><g
     id="g31"
     transform="translate(0,-212)" /><g
     id="g33"
     transform="translate(0,-212)" /><g
     id="g35"
     transform="translate(0,-212)" /><g
     id="g37"
     transform="translate(0,-212)" /><g
     id="g39"
     transform="translate(0,-212)" /><g
     id="g41"
     transform="translate(0,-212)" /><g
     id="g43"
     transform="translate(0,-212)" /><g
     id="g45"
     transform="translate(0,-212)" /><circle
     style="fill:none;fill-opacity:1;stroke:#ffffff;stroke-width:9.71073437;stroke-miterlimit:4;stroke-dasharray:none;stroke-opacity:1"
     cx="144.87288"
     cy="144.87288"
     r="140.80565"
     id="circle3-6" /><circle
     style="opacity:1;fill:#07ff00;fill-opacity:1;fill-rule:nonzero;stroke:#ffffff;stroke-width:16.99967003;stroke-linecap:butt;stroke-linejoin:miter;stroke-miterlimit:4;stroke-dasharray:none;stroke-opacity:1"
     id="path8111"
     cx="243.83224"
     cy="243.83224"
     r="47.667919" /></svg>