<?xml version="1.0" encoding="UTF-8" standalone="no"?>
<!-- Generator: Adobe Illustrator 19.0.0, SVG Export Plug-In . SVG Version: 6.00 Build 0)  -->

<svg
   xmlns:dc="http://purl.org/dc/elements/1.1/"
   xmlns:cc="http://creativecommons.org/ns#"
   xmlns:rdf="http://www.w3.org/1999/02/22-rdf-syntax-ns#"
   xmlns:svg="http://www.w3.org/2000/svg"
   xmlns="http://www.w3.org/2000/svg"
   xmlns:sodipodi="http://sodipodi.sourceforge.net/DTD/sodipodi-0.dtd"
   xmlns:inkscape="http://www.inkscape.org/namespaces/inkscape"
   version="1.1"
   id="Layer_1"
   x="0px"
   y="0px"
   viewBox="0 0 300 300"
   xml:space="preserve"
   inkscape:version="0.92.2 (5c3e80d, 2017-08-06)"
   sodipodi:docname="symbol-service-turning-point-45-contents.svg"
   width="300"
   height="300"><metadata
     id="metadata43"><rdf:RDF><cc:Work
         rdf:about=""><dc:format>image/svg+xml</dc:format><dc:type
           rdf:resource="http://purl.org/dc/dcmitype/StillImage" /><dc:title></dc:title></cc:Work></rdf:RDF></metadata><defs
     id="defs41"><filter
       style="color-interpolation-filters:sRGB;"
       inkscape:label="Drop Shadow"
       id="filter11078"><feFlood
         flood-opacity="1"
         flood-color="rgb(0,0,0)"
         result="flood"
         id="feFlood11080" /><feComposite
         in="flood"
         in2="SourceGraphic"
         operator="in"
         result="composite1"
         id="feComposite11082" /><feGaussianBlur
         in="composite1"
         stdDeviation="6"
         result="blur"
         id="feGaussianBlur11084" /><feOffset
         dx="1.6"
         dy="1.6"
         result="offset"
         id="feOffset11086" /><feComposite
         in="SourceGraphic"
         in2="offset"
         operator="over"
         result="composite2"
         id="feComposite11088" /></filter><filter
       style="color-interpolation-filters:sRGB;"
       inkscape:label="Drop Shadow"
       id="filter11090"><feFlood
         flood-opacity="1"
         flood-color="rgb(0,0,0)"
         result="flood"
         id="feFlood11092" /><feComposite
         in="flood"
         in2="SourceGraphic"
         operator="in"
         result="composite1"
         id="feComposite11094" /><feGaussianBlur
         in="composite1"
         stdDeviation="6"
         result="blur"
         id="feGaussianBlur11096" /><feOffset
         dx="1.6"
         dy="1.6"
         result="offset"
         id="feOffset11098" /><feComposite
         in="SourceGraphic"
         in2="offset"
         operator="over"
         result="composite2"
         id="feComposite11100" /></filter></defs><sodipodi:namedview
     pagecolor="#ffffff"
     bordercolor="#666666"
     borderopacity="1"
     objecttolerance="10"
     gridtolerance="10"
     guidetolerance="10"
     inkscape:pageopacity="0"
     inkscape:pageshadow="2"
     inkscape:window-width="1920"
     inkscape:window-height="1017"
     id="namedview39"
     showgrid="false"
     inkscape:zoom="1.4416667"
     inkscape:cx="44.813102"
     inkscape:cy="95.618096"
     inkscape:window-x="-8"
     inkscape:window-y="-8"
     inkscape:window-maximized="1"
     inkscape:current-layer="Layer_1" /><rect
     style="opacity:1;fill:#243640;fill-opacity:0.39215686;fill-rule:nonzero;stroke:none;stroke-width:9.78737259;stroke-linejoin:round;stroke-miterlimit:4;stroke-dasharray:none;stroke-opacity:0.39215686"
     id="rect8103-4"
     width="197.81223"
     height="197.81223"
     x="-108.70992"
     y="123.70222"
     ry="12.013863"
     transform="matrix(0.70720198,-0.70701157,0.70720198,0.70701157,0,0)" /><g
     id="g9"
     transform="translate(0,-211.996)" /><g
     id="g11"
     transform="translate(0,-211.996)" /><g
     id="g13"
     transform="translate(0,-211.996)" /><g
     id="g15"
     transform="translate(0,-211.996)" /><g
     id="g17"
     transform="translate(0,-211.996)" /><g
     id="g19"
     transform="translate(0,-211.996)" /><g
     id="g21"
     transform="translate(0,-211.996)" /><g
     id="g23"
     transform="translate(0,-211.996)" /><g
     id="g25"
     transform="translate(0,-211.996)" /><g
     id="g27"
     transform="translate(0,-211.996)" /><g
     id="g29"
     transform="translate(0,-211.996)" /><g
     id="g31"
     transform="translate(0,-211.996)" /><g
     id="g33"
     transform="translate(0,-211.996)" /><g
     id="g35"
     transform="translate(0,-211.996)" /><g
     id="g37"
     transform="translate(0,-211.996)" /><text
     xml:space="preserve"
     style="font-style:normal;font-weight:normal;line-height:0%;font-family:sans-serif;letter-spacing:0px;word-spacing:0px;fill:#000000;fill-opacity:1;stroke:none;stroke-width:1px;stroke-linecap:butt;stroke-linejoin:miter;stroke-opacity:1"
     x="-179.48387"
     y="46.881714"
     id="text8082"><tspan
       sodipodi:role="line"
       id="tspan8084"
       x="-179.48387"
       y="46.881714"
       style="font-size:180px;line-height:1.25"> </tspan></text>
<text
     xml:space="preserve"
     style="font-style:normal;font-weight:normal;line-height:0%;font-family:sans-serif;letter-spacing:0px;word-spacing:0px;fill:#000000;fill-opacity:1;stroke:none;stroke-width:1px;stroke-linecap:butt;stroke-linejoin:miter;stroke-opacity:1"
     x="-233.17563"
     y="6.9964142"
     id="text8086"><tspan
       sodipodi:role="line"
       id="tspan8088"
       x="-233.17563"
       y="6.9964142"
       style="font-size:90px;line-height:1.25"> </tspan></text>
<rect
     style="opacity:1;fill:#9933ff;fill-opacity:1;fill-rule:nonzero;stroke:#ffffff;stroke-width:9.86728191;stroke-linejoin:round;stroke-miterlimit:4;stroke-dasharray:none;stroke-opacity:1"
     id="rect8103"
     width="196.30305"
     height="196.30305"
     x="-93.138313"
     y="108.93875"
     ry="2.7885373"
     transform="matrix(0.70720198,-0.70701157,0.70720198,0.70701157,0,0)" /><path
     style="font-style:normal;font-weight:normal;font-size:121.50961304px;line-height:1.25;font-family:sans-serif;letter-spacing:0px;word-spacing:0px;fill:#455c73;fill-opacity:1;stroke:none;stroke-width:2.9321456"
     d="m 139.28319,100.77267 c -12.28941,0.22038 -24.58152,0.18035 -36.87139,0.0188 -8.803791,15.80711 -21.431077,29.37601 -30.62371,44.80632 -0.21724,8.51705 -0.496201,17.05797 -1.442199,25.55434 10.678792,0.18045 22.765242,-1.0403 32.659779,-0.0246 -0.4265,6.5244 -1.03394,13.035 -1.70238,19.53855 12.05924,-0.20018 24.12332,-0.30836 36.18139,0.0226 0.79132,-6.67538 -0.2453,-13.40541 0.47319,-20.07961 4.23927,0.0447 8.47275,0.28297 12.7027,0.55237 -0.19812,-8.10365 0.30972,-3.43361 0.72799,1.96055 0.44538,5.0851 0.78471,10.11124 1.10635,15.20826 20.44211,5.16834 44.85657,6.84345 62.26546,-7.24117 13.3018,-11.38726 13.39311,-36.41231 -2.89383,-45.1815 -6.56739,-3.86139 -14.37099,-5.26324 -21.84608,-5.32954 -0.0468,-3.95677 6.12297,0.12747 8.62112,-1.304 7.84609,0.0274 15.59054,0.17633 23.39955,0.6253 0.30013,-9.78014 0.62384,-19.49267 1.66279,-29.12494 -22.53858,0.23344 -45.0788,0.17718 -67.61765,0.017 -0.58685,19.00072 -2.73081,37.81947 -3.98349,56.7964 10.96966,0.17538 22.59513,-4.9418 32.96518,0.38647 -0.50055,5.79273 -8.55947,5.03103 -12.50099,4.75079 -7.48919,-0.64461 -14.62843,-3.14917 -21.87057,-4.99022 0.0494,-5.42317 0.19689,-10.79364 0.3959,-16.1866 -4.03552,0.41248 -8.08666,0.73404 -12.14656,0.69 0.36322,-13.81027 1.34309,-27.66133 2.4508,-41.49208 -0.70445,0.009 -1.4089,0.0176 -2.11335,0.0263 z"
     id="text855-5"
     inkscape:connector-curvature="0" /><g
     aria-label="45"
     style="font-style:normal;font-weight:normal;font-size:119.92569733px;line-height:1.25;font-family:sans-serif;letter-spacing:0px;word-spacing:0px;fill:#ffffff;fill-opacity:1;stroke:none;stroke-width:2.998142"
     id="text855"
     transform="matrix(0.97798753,0,0,0.97798753,3.5836056,4.9311643)"><path
       d="m 106.10311,183.4303 q 0.52702,-5.21162 0.93692,-11.06736 0.4099,-5.85575 0.58557,-9.31064 l -6.38276,0.0586 h -4.801712 l -22.017608,0.35134 0.175672,-1.81528 q 0.05856,-0.64413 0.175673,-3.80624 l 0.468459,-11.12592 q 0.05856,-1.52249 0.05856,-3.22066 5.972862,-7.20257 13.761005,-17.91858 7.846701,-10.77458 14.932151,-22.07617 9.01785,0.11712 16.22042,0.11712 6.79267,0 13.93668,-0.11712 -0.99548,12.41419 -1.58105,24.30135 -0.52702,11.82861 -0.58558,17.91859 2.81076,0.11711 6.617,0.11711 2.98643,0 3.45489,0 0.46846,-0.0585 2.28374,-0.17567 -0.23423,7.0269 -0.23423,14.81504 v 2.7522 q -3.51345,-0.23423 -10.36467,-0.23423 l -2.40086,0.0586 q -0.46846,5.68007 -0.46846,20.378 -5.79719,-0.11712 -12.00428,-0.11712 -5.79719,0 -12.76553,0.11712 z m 4.86027,-36.83265 1.22971,-26.40942 q -3.8648,6.03142 -6.32421,9.60343 -2.45941,3.572 -3.572,5.0945 l -8.490838,11.71149 z"
       style="font-style:normal;font-variant:normal;font-weight:normal;font-stretch:normal;font-family:'Eras Bold ITC';-inkscape-font-specification:'Eras Bold ITC';fill:#ffffff;fill-opacity:1;stroke-width:2.998142"
       id="path897"
       inkscape:connector-curvature="0" /><path
       d="m 157.51657,182.25915 -0.4099,-5.91431 q -0.17567,-2.86931 -0.4099,-5.21161 -0.17568,-2.3423 -0.76125,-7.61247 12.12139,3.45489 20.08521,3.45489 4.2747,0 7.8467,-1.34682 3.63056,-1.34682 5.56296,-3.80624 1.9324,-2.45941 1.9324,-5.38729 0,-4.27469 -3.98191,-6.44132 -3.92335,-2.22518 -12.35563,-2.22518 -3.74767,0 -7.37824,0.29279 -3.572,0.23423 -9.72054,1.05403 l 2.98643,-37.82812 q 0.17568,-2.81076 0.35135,-7.78815 14.69792,0.11712 28.28326,0.11712 17.21589,0 28.69316,-0.11712 -0.52702,6.08998 -0.64414,9.66198 l -0.29278,7.96382 -7.78815,-0.29279 -3.63056,-0.0585 h -5.68007 q -3.63057,-0.0586 -9.01785,-0.0586 -1.81529,0 -5.97287,0.11711 l -1.17115,13.40966 q 3.92335,-0.29278 6.08998,-0.29278 9.13497,0 16.1033,2.92787 6.96834,2.86932 10.189,8.08093 3.22067,5.21162 3.22067,11.77005 0,6.38277 -3.27922,12.29707 -3.27922,5.85575 -9.01785,9.3692 -5.68008,3.45489 -13.23399,5.03594 -7.49536,1.52249 -15.40062,1.52249 -2.98643,0 -7.08545,-0.4099 -4.09902,-0.35135 -6.90978,-0.8198 -2.81076,-0.46846 -7.20257,-1.46394 z"
       style="font-style:normal;font-variant:normal;font-weight:normal;font-stretch:normal;font-family:'Eras Bold ITC';-inkscape-font-specification:'Eras Bold ITC';fill:#ffffff;fill-opacity:1;stroke-width:2.998142"
       id="path899"
       inkscape:connector-curvature="0" /></g><circle
     style="opacity:1;fill:#07ff00;fill-opacity:1;fill-rule:nonzero;stroke:#ffffff;stroke-width:16.99967003;stroke-linecap:butt;stroke-linejoin:miter;stroke-miterlimit:4;stroke-dasharray:none;stroke-opacity:1"
     id="path8111"
     cx="243.83224"
     cy="243.83224"
     r="47.667919" /></svg>