<?xml version="1.0" encoding="UTF-8" standalone="no"?>
<!-- Generator: Adobe Illustrator 19.0.0, SVG Export Plug-In . SVG Version: 6.00 Build 0)  -->

<svg
   xmlns:dc="http://purl.org/dc/elements/1.1/"
   xmlns:cc="http://creativecommons.org/ns#"
   xmlns:rdf="http://www.w3.org/1999/02/22-rdf-syntax-ns#"
   xmlns:svg="http://www.w3.org/2000/svg"
   xmlns="http://www.w3.org/2000/svg"
   xmlns:sodipodi="http://sodipodi.sourceforge.net/DTD/sodipodi-0.dtd"
   xmlns:inkscape="http://www.inkscape.org/namespaces/inkscape"
   version="1.1"
   id="Layer_1"
   x="0px"
   y="0px"
   viewBox="0 0 300 300"
   xml:space="preserve"
   inkscape:version="0.91 r13725"
   sodipodi:docname="symbol-burger-contents.svg"
   width="300"
   height="300"><metadata
     id="metadata75"><rdf:RDF><cc:Work
         rdf:about=""><dc:format>image/svg+xml</dc:format><dc:type
           rdf:resource="http://purl.org/dc/dcmitype/StillImage" /><dc:title></dc:title></cc:Work></rdf:RDF></metadata><defs
     id="defs73" /><sodipodi:namedview
     pagecolor="#ffffff"
     bordercolor="#666666"
     borderopacity="1"
     objecttolerance="10"
     gridtolerance="10"
     guidetolerance="10"
     inkscape:pageopacity="0"
     inkscape:pageshadow="2"
     inkscape:window-width="1920"
     inkscape:window-height="1017"
     id="namedview71"
     showgrid="false"
     inkscape:zoom="2.6074563"
     inkscape:cx="43.999312"
     inkscape:cy="151.30676"
     inkscape:window-x="1912"
     inkscape:window-y="-8"
     inkscape:window-maximized="1"
     inkscape:current-layer="Layer_1" /><path
     style="fill:#273640;fill-opacity:0.39215686"
     d="M 300,155 C 300,235.08078 235.08361,300 154.9983,300 74.918091,300 10,235.08078 10,155 10,74.91639 74.918091,10 154.9983,10 235.08361,10 300,74.91639 300,155 Z"
     id="path3-5"
     inkscape:connector-curvature="0" /><path
     style="fill:#748993;fill-opacity:1;stroke-width:0.97884053"
     d="m 286.20341,142.64442 c 0,78.38632 -63.54279,141.93188 -141.93354,141.93188 -78.385779,0 -141.9302318,-63.54556 -141.9302318,-141.93188 0,-78.389111 63.5444528,-141.93190032 141.9302318,-141.93190032 78.39075,0 141.93354,63.54278932 141.93354,141.93190032 z"
     id="path3"
     inkscape:connector-curvature="0" /><path
     style="fill:#414d53;fill-opacity:1"
     d="m 202.14136,101.62538 -4.39191,-4.391928 C 187.97667,88.554961 175.66753,84.203829 163.38898,84.203829 l -44.3717,0 c -1.83856,0 -3.67145,0.10705 -5.50151,0.301328 l -0.0102,-0.01133 c -0.13197,0.01586 -0.26112,0.04361 -0.39309,0.05947 -1.19342,0.134805 -2.38683,0.30586 -3.56836,0.525059 -0.12631,0.02322 -0.25092,0.03908 -0.37722,0.06514 -1.20928,0.233359 -2.4112,0.523359 -3.60631,0.843945 -0.27244,0.0742 -0.54658,0.142168 -0.81619,0.219199 -1.14981,0.329082 -2.29112,0.700078 -3.42053,1.112422 -0.27414,0.09742 -0.54658,0.202773 -0.81902,0.307559 -1.151516,0.439531 -2.291132,0.909082 -3.416018,1.43414 -0.16256,0.07533 -0.32172,0.162559 -0.484283,0.239024 -1.06994,0.513164 -2.124022,1.067109 -3.165076,1.659004 -0.176719,0.101386 -0.354004,0.189746 -0.530723,0.294531 -1.089199,0.641172 -2.160273,1.332754 -3.214922,2.056054 -0.222031,0.150665 -0.440664,0.30586 -0.662695,0.461055 -1.042754,0.742559 -2.06625,1.524204 -3.062559,2.350597 -0.176718,0.147833 -0.347773,0.301323 -0.518828,0.449723 -1.043887,0.887566 -2.067949,1.810812 -3.052363,2.796935 -5.053477,5.056316 -8.845,10.895396 -11.372305,17.130396 -2.465,6.06847 -3.728086,12.51191 -3.77,18.97347 -0.851308,0.24809 -1.616523,0.70631 -2.215781,1.32653 -0.934004,0.934 -1.514004,2.2373 -1.514004,3.64652 0,1.69809 0.807695,3.19 2.070781,4.1427 -0.662695,0.87 -1.074472,1.90539 -1.074472,3.0263 0,0.68139 0.03908,1.3237 0.123476,1.94448 -0.704609,0.87283 -1.119219,2.00961 -1.119219,3.23191 0,0.32455 0.03795,0.64231 0.09742,0.94817 0.01756,0.10308 0.04758,0.1988 0.0708,0.29849 0.05211,0.19881 0.111582,0.39309 0.182949,0.58453 0.04758,0.12348 0.101387,0.24242 0.159727,0.3608 0.06117,0.13198 0.130273,0.25942 0.207305,0.38743 0.09289,0.15802 0.186914,0.31492 0.298496,0.46388 0.311523,0.42651 0.68875,0.80487 1.113554,1.11639 l 0.04361,0.0464 2.569218,2.56809 c -0.671191,0.82355 -1.033691,1.82383 -1.033691,2.836 0,6.97869 2.215781,13.94039 6.687559,19.76078 l 98.911544,98.91152 c 51.72591,-11.51164 93.0158,-50.63559 107.63191,-101.11881 l -78.32492,-78.32832 z"
     id="path5"
     inkscape:connector-curvature="0" /><path
     style="fill:#ff9d4d"
     d="m 213.88013,159.26288 c -0.86434,-0.86717 -2.00111,-1.30047 -3.13506,-1.30047 l -139.081076,0 c -1.138476,0 -2.275253,0.435 -3.140722,1.30047 -0.865469,0.86547 -1.300469,2.00112 -1.300469,3.13789 0,8.33014 3.178672,16.66367 9.53375,23.01705 6.356777,6.35678 14.686914,9.53205 23.020464,9.53205 l 82.857313,0 c 8.32617,0 16.65914,-3.17527 23.01705,-9.53205 6.35224,-6.35394 9.53092,-14.68691 9.53092,-23.01705 0,-1.13677 -0.435,-2.27072 -1.30217,-3.13789 z"
     id="path7"
     inkscape:connector-curvature="0" /><path
     style="fill:#9b5216;fill-opacity:1"
     d="m 218.8798,152.78263 c 0,2.85072 -2.3302,5.17808 -5.17526,5.17808 l -145.001151,0 c -2.852422,0 -5.179219,-2.32736 -5.179219,-5.17808 l 0,0 c 0,-2.84619 2.327364,-5.17922 5.179219,-5.17922 l 145.000021,0 c 2.84619,0 5.17639,2.33473 5.17639,5.17922 l 0,0 z"
     id="path9"
     inkscape:connector-curvature="0" /><path
     style="fill:#f2f9ff"
     d="m 177.94335,173.74249 c -13.95455,-11.58131 -57.81592,-21.55742 -57.81592,-21.55742 0,0 71.29809,-3.8408 90.61764,-7.23131 -9.12424,3.39051 -27.00568,33.59865 -32.80172,28.78873 z"
     id="path11"
     inkscape:connector-curvature="0" /><path
     style="fill:#ff9d4d"
     d="m 215.1823,135.98302 -147.959497,0 0,0 c 0,-13.24994 5.056309,-26.50611 15.168359,-36.617036 C 92.503213,89.253907 105.75771,84.198731 119.00935,84.198731 l 44.38756,0 c 13.25447,0 26.50441,5.056309 36.61703,15.167253 10.11092,10.111486 15.16836,23.367096 15.16836,36.617036 l 0,0 z"
     id="path13"
     inkscape:connector-curvature="0" /><path
     style="fill:#9b5216;fill-opacity:1"
     d="m 218.8798,140.45366 c 0,2.84789 -2.3302,5.17809 -5.17526,5.17809 l -145.001151,0 c -2.852422,0 -5.179219,-2.3285 -5.179219,-5.17809 l 0,0 c 0,-2.84789 2.327364,-5.17808 5.179219,-5.17808 l 145.000021,0 c 2.84619,0 5.17639,2.33019 5.17639,5.17808 l 0,0 z"
     id="path15"
     inkscape:connector-curvature="0" /><path
     style="fill:#c1d354"
     d="m 210.4715,141.96314 c -82.70664,9.46295 -113.042245,-4.10079 -139.304244,-0.56528 -2.816172,0.37836 -6.646777,2.77256 -6.646777,6.21744 0,7.42276 4.564668,10.60086 8.991699,11.41592 13.225586,2.44178 16.963301,-8.65242 27.461662,-9.31058 15.90809,-0.99745 17.22441,10.33691 30.61369,10.33691 15.03809,0 25.52453,-11.19672 51.28922,-9.47598 21.37277,1.42395 26.20592,3.18434 31.56809,1.27328 2.64908,-0.94419 4.43552,-2.67683 4.43552,-5.23585 -5.6e-4,-4.62868 -5.58023,-4.97815 -8.40886,-4.65586 z"
     id="path17"
     inkscape:connector-curvature="0" /><g
     id="g19"
     transform="matrix(0.56640625,0,0,0.56640625,-3.7966103,-5.423729)"><path
       style="fill:#f28124"
       d="m 194.957,196.485 c 0,4.114 -3.625,7.447 -8.095,7.447 -4.48,0 -8.102,-3.333 -8.102,-7.447 0,-4.106 3.62,-7.444 8.102,-7.444 4.47,0 8.095,3.34 8.095,7.444 z"
       id="path21"
       inkscape:connector-curvature="0" /><path
       style="fill:#f28124"
       d="m 233.672,182.131 c 0,3.771 -3.325,6.84 -7.437,6.84 -4.111,0 -7.444,-3.069 -7.444,-6.84 0,-3.786 3.333,-6.84 7.444,-6.84 4.111,0 7.437,3.054 7.437,6.84 z"
       id="path23"
       inkscape:connector-curvature="0" /><path
       style="fill:#f28124"
       d="m 313.779,206.141 c 0,2.675 -2.355,4.833 -5.256,4.833 -2.9,0 -5.253,-2.156 -5.253,-4.833 0,-2.668 2.353,-4.826 5.253,-4.826 2.901,0.001 5.256,2.159 5.256,4.826 z"
       id="path25"
       inkscape:connector-curvature="0" /><path
       style="fill:#f28124"
       d="m 347.932,201.318 c 0,3.771 -3.331,6.84 -7.437,6.84 -4.106,0 -7.452,-3.069 -7.452,-6.84 0,-3.786 3.346,-6.84 7.452,-6.84 4.107,0 7.437,3.054 7.437,6.84 z"
       id="path27"
       inkscape:connector-curvature="0" /><ellipse
       style="fill:#f28124"
       cx="335.02701"
       cy="232.013"
       rx="5.473"
       ry="5.0300002"
       id="ellipse29" /><path
       style="fill:#f28124"
       d="m 298.785,178.34 c 0,3.771 -3.338,6.84 -7.444,6.84 -4.106,0 -7.437,-3.069 -7.437,-6.84 0,-3.768 3.331,-6.833 7.437,-6.833 4.106,0 7.444,3.062 7.444,6.833 z"
       id="path31"
       inkscape:connector-curvature="0" /><path
       style="fill:#f28124"
       d="m 238.331,225.948 c 0,6.139 -5.404,11.103 -12.099,11.103 -6.687,0 -12.101,-4.964 -12.101,-11.103 0,-6.149 5.414,-11.136 12.101,-11.136 6.695,0 12.099,4.987 12.099,11.136 z"
       id="path33"
       inkscape:connector-curvature="0" /><path
       style="fill:#f28124"
       d="m 247.204,205.048 c 0,1.946 -1.72,3.54 -3.848,3.54 -2.117,0 -3.837,-1.595 -3.837,-3.54 0,-1.948 1.72,-3.533 3.837,-3.533 2.128,0.001 3.848,1.583 3.848,3.533 z"
       id="path35"
       inkscape:connector-curvature="0" /><path
       style="fill:#f28124"
       d="m 165.891,235.592 c 0,2.557 -2.255,4.636 -5.043,4.636 -2.772,0 -5.028,-2.079 -5.028,-4.636 0,-2.555 2.255,-4.626 5.028,-4.626 2.787,0 5.043,2.071 5.043,4.626 z"
       id="path37"
       inkscape:connector-curvature="0" /><path
       style="fill:#f28124"
       d="m 286.044,230.958 c 0,3.328 -2.934,6.034 -6.554,6.034 -3.633,0 -6.561,-2.706 -6.561,-6.034 0,-3.333 2.929,-6.016 6.561,-6.016 3.62,0.003 6.554,2.686 6.554,6.016 z"
       id="path39"
       inkscape:connector-curvature="0" /></g><g
     id="g41"
     transform="translate(0,-212)" /><g
     id="g43"
     transform="translate(0,-212)" /><g
     id="g45"
     transform="translate(0,-212)" /><g
     id="g47"
     transform="translate(0,-212)" /><g
     id="g49"
     transform="translate(0,-212)" /><g
     id="g51"
     transform="translate(0,-212)" /><g
     id="g53"
     transform="translate(0,-212)" /><g
     id="g55"
     transform="translate(0,-212)" /><g
     id="g57"
     transform="translate(0,-212)" /><g
     id="g59"
     transform="translate(0,-212)" /><g
     id="g61"
     transform="translate(0,-212)" /><g
     id="g63"
     transform="translate(0,-212)" /><g
     id="g65"
     transform="translate(0,-212)" /><g
     id="g67"
     transform="translate(0,-212)" /><g
     id="g69"
     transform="translate(0,-212)" /><path
     style="fill:none;fill-opacity:1;stroke:#ffffff;stroke-width:9.78267479;stroke-miterlimit:4;stroke-dasharray:none;stroke-opacity:1"
     d="m 287.2697,143.79381 c 0,78.34042 -63.5056,141.84878 -141.85044,141.84878 -78.339897,0 -141.8471418,-63.50836 -141.8471418,-141.84878 0,-78.343222 63.5072448,-141.8488103 141.8471418,-141.8488103 78.34484,0 141.85044,63.5055883 141.85044,141.8488103 z"
     id="path3-3"
     inkscape:connector-curvature="0" /><circle
     style="opacity:1;fill:#07ff00;fill-opacity:1;fill-rule:nonzero;stroke:#ffffff;stroke-width:16.99967003;stroke-linecap:butt;stroke-linejoin:miter;stroke-miterlimit:4;stroke-dasharray:none;stroke-opacity:1"
     id="path8111"
     cx="243.83224"
     cy="243.83224"
     r="47.667919" /></svg>