<?xml version="1.0" encoding="UTF-8" standalone="no"?>
<!-- Generator: Adobe Illustrator 19.0.0, SVG Export Plug-In . SVG Version: 6.00 Build 0)  -->

<svg
   xmlns:dc="http://purl.org/dc/elements/1.1/"
   xmlns:cc="http://creativecommons.org/ns#"
   xmlns:rdf="http://www.w3.org/1999/02/22-rdf-syntax-ns#"
   xmlns:svg="http://www.w3.org/2000/svg"
   xmlns="http://www.w3.org/2000/svg"
   xmlns:sodipodi="http://sodipodi.sourceforge.net/DTD/sodipodi-0.dtd"
   xmlns:inkscape="http://www.inkscape.org/namespaces/inkscape"
   version="1.1"
   id="Layer_1"
   x="0px"
   y="0px"
   viewBox="0 0 300 300"
   xml:space="preserve"
   inkscape:version="0.91 r13725"
   sodipodi:docname="symbol-rubbish-contents.svg"
   width="300"
   height="300"><metadata
     id="metadata63"><rdf:RDF><cc:Work
         rdf:about=""><dc:format>image/svg+xml</dc:format><dc:type
           rdf:resource="http://purl.org/dc/dcmitype/StillImage" /><dc:title></dc:title></cc:Work></rdf:RDF></metadata><defs
     id="defs61" /><sodipodi:namedview
     pagecolor="#ffffff"
     bordercolor="#666666"
     borderopacity="1"
     objecttolerance="10"
     gridtolerance="10"
     guidetolerance="10"
     inkscape:pageopacity="0"
     inkscape:pageshadow="2"
     inkscape:window-width="1920"
     inkscape:window-height="1017"
     id="namedview59"
     showgrid="false"
     inkscape:zoom="1.84375"
     inkscape:cx="-109.10953"
     inkscape:cy="178.24757"
     inkscape:window-x="1912"
     inkscape:window-y="-8"
     inkscape:window-maximized="1"
     inkscape:current-layer="Layer_1" /><circle
     style="fill:#273640;fill-opacity:0.39215687"
     cx="155"
     cy="155"
     r="145"
     id="circle3-8" /><circle
     style="fill:#7c9ae8;fill-opacity:1;stroke-width:0.97942722"
     cx="143.64406"
     cy="143.64406"
     r="142.01695"
     id="circle3" /><path
     style="fill:#506ebb;fill-opacity:1"
     d="m 160.92479,284.2212 c 61.72922,-8.63599 110.97145,-56.1167 122.25822,-116.95553 L 193.15557,77.251237 c -0.59869,-0.600391 -1.37297,-0.903418 -2.14894,-0.903418 l -22.81258,0 -11.73197,-11.730274 c -0.94817,-0.974218 -2.2492,-1.499277 -3.59895,-1.499277 l -24.38889,0 c -1.37466,0 -2.64908,0.525059 -3.60007,1.499277 -0.97592,0.950997 -1.50211,2.22711 -1.50211,3.603477 l 0,4.049805 -5.07784,0 0,2.952109 0,1.125449 -27.963497,0 c -0.802031,0 -1.553086,0.301328 -2.177832,0.903418 -0.574336,0.574336 -0.875664,1.374668 -0.875664,2.147246 l 0,2.028301 -0.499004,0 c -0.525059,0 -1.05125,0.198809 -1.45,0.598692 -0.401582,0.400449 -0.601523,0.924941 -0.601523,1.426777 l 0,15.255602 5.102754,5.103899 0,105.25414 c 0,1.02632 0.400449,2.05152 1.151503,2.85242 l 0.02322,0.0244 0.02605,0.0289 3.875918,3.87422 1.181521,1.18039 -1.177556,1.18039 66.01467,66.01408 z"
     id="path5"
     inkscape:connector-curvature="0" /><path
     style="fill:#f2f9ff"
     d="m 89.819825,209.05003 c 0,1.04275 0.400449,2.08098 1.193418,2.87508 0.792968,0.79183 1.828359,1.18889 2.872246,1.18889 l 93.556741,0 c 1.04276,0 2.08494,-0.39706 2.87565,-1.18889 0.79296,-0.7958 1.19625,-1.83402 1.19625,-2.87508 l 0,-110.337649 -101.694305,0 0,110.337649 z"
     id="path7"
     inkscape:connector-curvature="0" /><rect
     x="94.913506"
     y="213.1174"
     style="fill:#ffffff;fill-opacity:1"
     width="91.509727"
     height="5.0834961"
     id="rect9" /><path
     style="fill:#f2f9ff"
     d="m 196.59026,98.712381 -111.858463,0 0,-15.253898 c 0,-0.518828 0.202774,-1.039922 0.600391,-1.438672 0.395918,-0.397051 0.919277,-0.593027 1.432441,-0.593027 l 107.801861,0 c 0.516,0 1.03539,0.194277 1.43414,0.593027 0.39875,0.39875 0.5902,0.919277 0.5902,1.438672 l -5.7e-4,15.253898 0,0 z"
     id="path11"
     inkscape:connector-curvature="0" /><path
     style="fill:#ffffff;fill-opacity:1"
     d="m 194.05729,81.428483 -106.784028,0 0,-2.037363 c 0,-0.784473 0.298496,-1.563282 0.891524,-2.156309 0.607753,-0.597559 1.3758,-0.893223 2.167636,-0.893223 l 100.669108,0 c 0.78277,0 1.56158,0.295664 2.15631,0.893223 0.60039,0.593027 0.89888,1.371836 0.89888,2.156309 l 0,2.037363 z"
     id="path13"
     inkscape:connector-curvature="0" /><path
     style="fill:#f2f9ff"
     d="m 163.04202,76.343288 -9.15823,0 0,-8.133028 c 0,-0.159726 -0.0334,-0.461054 -0.29736,-0.720468 -0.25545,-0.265079 -0.55848,-0.298497 -0.7148,-0.298497 l -24.40928,0 c -0.15633,0 -0.46389,0.03342 -0.71764,0.298497 -0.26111,0.258281 -0.30586,0.561308 -0.30586,0.720468 l 0,8.133028 -9.14519,0 0,-4.071329 5.08519,0 0,-4.061699 c 0,-1.359941 0.52789,-2.638886 1.49078,-3.597246 0.95723,-0.96289 2.23164,-1.489082 3.59442,-1.489082 l 24.40758,0 c 1.35427,0 2.63039,0.526192 3.59045,1.489082 0.96005,0.95836 1.49757,2.237305 1.49757,3.597246 l 0,4.061699 5.0835,0 0,4.071329 -0.001,0 z"
     id="path15"
     inkscape:connector-curvature="0" /><path
     inkscape:connector-curvature="0"
     id="path19"
     d="m 104.81545,112.27669 0,85.93402 c 0,0.77995 0.30133,1.55875 0.89889,2.15631 0.5885,0.59586 1.37297,0.89492 2.14725,0.89492 0.79297,0 1.56724,-0.29849 2.1648,-0.89492 0.59756,-0.59756 0.89039,-1.3758 0.89039,-2.15631 l 0,-85.93402 -6.10133,0 z"
     style="fill:#5f6062;fill-opacity:1" /><path
     inkscape:connector-curvature="0"
     id="path21"
     d="m 126.6844,112.27669 0,85.93402 c 0,0.77995 0.29736,1.55875 0.89322,2.15631 0.60039,0.59586 1.3758,0.89492 2.15631,0.89492 0.77598,0 1.55875,-0.29849 2.15631,-0.89492 0.59303,-0.59756 0.89152,-1.3758 0.89152,-2.15631 l 0,-85.93402 -6.09736,0 z"
     style="fill:#5f6062;fill-opacity:1" /><path
     inkscape:connector-curvature="0"
     id="path23"
     d="m 148.54881,112.27669 0,85.93402 c 0,0.77995 0.29567,1.55875 0.89606,2.15631 0.59303,0.59586 1.3656,0.89492 2.14611,0.89492 0.78731,0 1.56328,-0.29849 2.16197,-0.89492 0.60039,-0.59756 0.89153,-1.3758 0.89153,-2.15631 l 0,-85.93402 -6.09567,0 z"
     style="fill:#5f6062;fill-opacity:1" /><path
     inkscape:connector-curvature="0"
     id="path25"
     d="m 170.40473,112.27669 0,85.93402 c 0,0.77995 0.30473,1.55875 0.89436,2.15631 0.59869,0.59586 1.3758,0.89492 2.1648,0.89492 0.77428,0 1.55705,-0.29849 2.15461,-0.89492 0.59586,-0.59756 0.89039,-1.3758 0.89039,-2.15631 l 0,-85.93402 -6.10416,0 z"
     style="fill:#5f6062;fill-opacity:1" /><rect
     x="89.819817"
     y="98.712402"
     style="fill:#5f6062;fill-opacity:1"
     width="101.70277"
     height="4.3499999"
     id="rect27" /><g
     id="g29"
     transform="translate(0,-212)" /><g
     id="g31"
     transform="translate(0,-212)" /><g
     id="g33"
     transform="translate(0,-212)" /><g
     id="g35"
     transform="translate(0,-212)" /><g
     id="g37"
     transform="translate(0,-212)" /><g
     id="g39"
     transform="translate(0,-212)" /><g
     id="g41"
     transform="translate(0,-212)" /><g
     id="g43"
     transform="translate(0,-212)" /><g
     id="g45"
     transform="translate(0,-212)" /><g
     id="g47"
     transform="translate(0,-212)" /><g
     id="g49"
     transform="translate(0,-212)" /><g
     id="g51"
     transform="translate(0,-212)" /><g
     id="g53"
     transform="translate(0,-212)" /><g
     id="g55"
     transform="translate(0,-212)" /><g
     id="g57"
     transform="translate(0,-212)" /><circle
     style="fill:none;fill-opacity:1;stroke:#ffffff;stroke-width:9.69265461;stroke-miterlimit:4;stroke-dasharray:none;stroke-opacity:1"
     cx="145.23712"
     cy="145.23712"
     r="140.5435"
     id="circle3-5" /><circle
     style="opacity:1;fill:#07ff00;fill-opacity:1;fill-rule:nonzero;stroke:#ffffff;stroke-width:16.99967003;stroke-linecap:butt;stroke-linejoin:miter;stroke-miterlimit:4;stroke-dasharray:none;stroke-opacity:1"
     id="path8111"
     cx="243.83224"
     cy="243.83224"
     r="47.667919" /></svg>