<?xml version="1.0" encoding="UTF-8" standalone="no"?>
<!-- Generator: Adobe Illustrator 19.0.0, SVG Export Plug-In . SVG Version: 6.00 Build 0)  -->

<svg
   xmlns:dc="http://purl.org/dc/elements/1.1/"
   xmlns:cc="http://creativecommons.org/ns#"
   xmlns:rdf="http://www.w3.org/1999/02/22-rdf-syntax-ns#"
   xmlns:svg="http://www.w3.org/2000/svg"
   xmlns="http://www.w3.org/2000/svg"
   xmlns:sodipodi="http://sodipodi.sourceforge.net/DTD/sodipodi-0.dtd"
   xmlns:inkscape="http://www.inkscape.org/namespaces/inkscape"
   version="1.1"
   id="Layer_1"
   x="0px"
   y="0px"
   viewBox="0 0 300 300"
   xml:space="preserve"
   inkscape:version="0.91 r13725"
   sodipodi:docname="symbol-advice-centre.svg"
   width="300"
   height="300"><metadata
     id="metadata77"><rdf:RDF><cc:Work
         rdf:about=""><dc:format>image/svg+xml</dc:format><dc:type
           rdf:resource="http://purl.org/dc/dcmitype/StillImage" /><dc:title /></cc:Work></rdf:RDF></metadata><defs
     id="defs75"><pattern
       y="0"
       x="0"
       height="6"
       width="6"
       patternUnits="userSpaceOnUse"
       id="EMFhbasepattern" /></defs><sodipodi:namedview
     pagecolor="#ffffff"
     bordercolor="#666666"
     borderopacity="1"
     objecttolerance="10"
     gridtolerance="10"
     guidetolerance="10"
     inkscape:pageopacity="0"
     inkscape:pageshadow="2"
     inkscape:window-width="1920"
     inkscape:window-height="1017"
     id="namedview73"
     showgrid="false"
     inkscape:zoom="0.46093753"
     inkscape:cx="-44.1093"
     inkscape:cy="39.446143"
     inkscape:window-x="1912"
     inkscape:window-y="-8"
     inkscape:window-maximized="1"
     inkscape:current-layer="Layer_1" /><ellipse
     style="fill:#273640;fill-opacity:0.39215686"
     cx="155"
     cy="155.00169"
     id="circle3-3"
     rx="145"
     ry="144.99831" /><g
     id="g43"
     transform="translate(0,-212)" /><g
     id="g45"
     transform="translate(0,-212)" /><g
     id="g47"
     transform="translate(0,-212)" /><g
     id="g49"
     transform="translate(0,-212)" /><g
     id="g51"
     transform="translate(0,-212)" /><g
     id="g53"
     transform="translate(0,-212)" /><g
     id="g55"
     transform="translate(0,-212)" /><g
     id="g57"
     transform="translate(0,-212)" /><g
     id="g59"
     transform="translate(0,-212)" /><g
     id="g61"
     transform="translate(0,-212)" /><g
     id="g63"
     transform="translate(0,-212)" /><g
     id="g65"
     transform="translate(0,-212)" /><g
     id="g67"
     transform="translate(0,-212)" /><g
     id="g69"
     transform="translate(0,-212)" /><g
     id="g71"
     transform="translate(0,-212)" /><ellipse
     style="fill:#d78f3a;fill-opacity:1;stroke-width:0.97381616"
     cx="144.38141"
     cy="142.37967"
     id="circle3"
     rx="141.20334"
     ry="141.20169" /><ellipse
     style="fill:none;fill-opacity:1;stroke:#ffffff;stroke-width:9.66624165;stroke-miterlimit:4;stroke-dasharray:none;stroke-opacity:1"
     cx="145.47464"
     cy="144.53436"
     id="circle3-32"
     rx="140.69225"
     ry="139.62912" /><path
     inkscape:connector-curvature="0"
     style="fill:#ac722e;fill-opacity:1;stroke-width:0.56189144"
     d="m 274.4932,101.41397 -44.68424,-44.840243 -89.3197,69.652523 -67.498094,99.96344 51.482854,51.56424 c 4.74782,0.48574 16.0733,1.24732 20.94822,1.27921 82.3414,0.53865 134.89689,-65.14486 135.43926,-137.95107 9e-4,-12.59241 -3.2716,-28.05375 -6.3683,-39.6681 z"
     id="path4"
     sodipodi:nodetypes="cccccscc" /><circle
     style="fill:#ffedb5;stroke-width:0.56189144"
     cx="110.85479"
     cy="192.00414"
     r="53.113914"
     id="circle6" /><circle
     id="circle8"
     r="8.8966913"
     cy="184.71938"
     cx="103.33835"
     style="fill:#386895;stroke-width:1.03522146" /><path
     id="path12"
     d="m 96.15094,207.6951 c 5.74868,9.76444 14.5035,16.00974 24.32221,16.00974 9.81872,0 18.57354,-6.2453 24.32222,-16.00974 z"
     style="fill:#386895;stroke-width:1.11867869"
     inkscape:connector-curvature="0" /><path
     inkscape:connector-curvature="0"
     style="fill:#ffffff;fill-opacity:1;stroke-width:0.56189144"
     d="m 226.91796,52.946665 -110.569,0 c -5.26942,0 -9.54091,4.271504 -9.54091,9.540915 l 0,55.00356 c 0,5.26942 4.27149,9.54091 9.54091,9.54091 l 8.98015,0 0,20.91586 c 0,4.08663 4.94128,6.1336 7.83165,3.2438 l 24.1602,-24.16022 69.59644,0 c 5.26942,0 9.54091,-4.27149 9.54091,-9.54091 l 0,-55.00356 c 9.2e-4,-5.268291 -4.27093,-9.540355 -9.54035,-9.540355 z"
     id="path16" /><path
     inkscape:connector-curvature="0"
     style="fill:#ffcebd;fill-opacity:1;stroke-width:0.56189144"
     d="m 226.91796,52.946105 -57.61804,0 0,74.085945 57.61804,0 c 5.26942,0 9.54091,-4.27149 9.54091,-9.54091 l 0,-55.002991 c 5.7e-4,-5.270549 -4.27149,-9.542044 -9.54091,-9.542044 z"
     id="path18" /><rect
     id="rect22"
     height="10.282228"
     width="92.61264"
     style="fill:#366695;stroke-width:0.74738884"
     y="94.073761"
     x="125.00723" /><rect
     id="rect22-5"
     height="10.282228"
     width="92.61264"
     style="fill:#366695;stroke-width:0.74738884"
     y="73.729774"
     x="125.00723" /><circle
     id="circle8-9"
     r="9.1678782"
     cy="184.99055"
     cx="138.22882"
     style="fill:#386895;stroke-width:1.06677675" /></svg>