<?xml version="1.0" encoding="UTF-8" standalone="no"?>
<!-- Generator: Adobe Illustrator 19.0.0, SVG Export Plug-In . SVG Version: 6.00 Build 0)  -->

<svg
   xmlns:dc="http://purl.org/dc/elements/1.1/"
   xmlns:cc="http://creativecommons.org/ns#"
   xmlns:rdf="http://www.w3.org/1999/02/22-rdf-syntax-ns#"
   xmlns:svg="http://www.w3.org/2000/svg"
   xmlns="http://www.w3.org/2000/svg"
   xmlns:sodipodi="http://sodipodi.sourceforge.net/DTD/sodipodi-0.dtd"
   xmlns:inkscape="http://www.inkscape.org/namespaces/inkscape"
   version="1.1"
   id="Layer_1"
   x="0px"
   y="0px"
   viewBox="0 0 300 300"
   xml:space="preserve"
   inkscape:version="0.91 r13725"
   sodipodi:docname="symbol-ice-cream-contents.svg"
   width="300"
   height="300"><metadata
     id="metadata67"><rdf:RDF><cc:Work
         rdf:about=""><dc:format>image/svg+xml</dc:format><dc:type
           rdf:resource="http://purl.org/dc/dcmitype/StillImage" /><dc:title></dc:title></cc:Work></rdf:RDF></metadata><defs
     id="defs65"><pattern
       y="0"
       x="0"
       height="6"
       width="6"
       patternUnits="userSpaceOnUse"
       id="EMFhbasepattern" /></defs><sodipodi:namedview
     pagecolor="#ffffff"
     bordercolor="#666666"
     borderopacity="1"
     objecttolerance="10"
     gridtolerance="10"
     guidetolerance="10"
     inkscape:pageopacity="0"
     inkscape:pageshadow="2"
     inkscape:window-width="1920"
     inkscape:window-height="1017"
     id="namedview63"
     showgrid="false"
     inkscape:zoom="1.84375"
     inkscape:cx="7.8730968"
     inkscape:cy="280.7059"
     inkscape:window-x="1912"
     inkscape:window-y="-8"
     inkscape:window-maximized="1"
     inkscape:current-layer="Layer_1" /><circle
     style="fill:#273640;fill-opacity:0.39215686;stroke:none"
     cx="155"
     cy="155"
     r="145"
     id="circle3-1" /><circle
     style="fill:#748993;fill-opacity:1;stroke-width:0.977557"
     cx="143.91525"
     cy="143.37288"
     r="141.74576"
     id="circle3" /><path
     inkscape:connector-curvature="0"
     id="path8136-2"
     d="m 196.22902,113.47295 -87.56786,111.29309 68.47891,55.82025 c 40.18775,-10.61716 86.58292,-42.34776 103.3093,-101.17338 -21.99494,-16.8668 -55.42381,-44.11791 -84.22035,-65.93996 z"
     style="fill:#414d53;fill-opacity:1;fill-rule:nonzero;stroke:none"
     sodipodi:nodetypes="ccccc" /><path
     style="fill:#84462d"
     d="m 174.93372,107.16407 c 0.68535,0 1.35484,0.0685 2.03283,0.10309 -3.07162,-17.283917 -18.13803,-30.421144 -36.30551,-30.421144 -18.62854,0 -33.99061,13.814649 -36.50545,31.749934 0.74369,-0.0419 1.47889,-0.11329 2.23277,-0.11329 14.39465,0 26.95414,7.71672 33.87223,19.21364 6.72494,-12.23551 19.72736,-20.53223 34.67313,-20.53223 z"
     id="path5"
     inkscape:connector-curvature="0" /><path
     style="fill:#9c6144"
     d="m 106.38836,108.4821 c 14.67163,0 27.44692,8.00955 34.27268,19.87293 l 0,-51.50958 c -18.62854,0 -33.99061,13.814648 -36.50545,31.74993 0.74313,-0.0419 1.47889,-0.11328 2.23277,-0.11328 z"
     id="path7"
     inkscape:connector-curvature="0" /><path
     style="fill:#fcf1e2"
     d="m 167.02442,87.945313 0,9.991985 c 0,2.913042 -2.35965,5.272692 -5.27268,5.272692 -2.91302,0 -5.27267,-2.35965 -5.27267,-5.272692 l 0,-5.272688 c 0,-2.913027 -2.35965,-5.272676 -5.27268,-5.272676 -2.91303,0 -5.27267,2.359649 -5.27267,5.272676 l 0,10.54538 c 0,2.91303 -2.35965,5.27267 -5.27268,5.27267 -2.91303,0 -5.27268,-2.35964 -5.27268,-5.27267 l 0,-10.54538 c 0,-2.913027 -2.35964,-5.272676 -5.27267,-5.272676 -2.91303,0 -5.27268,2.359649 -5.27268,5.272676 0,2.913023 -2.35965,5.272688 -5.27267,5.272688 -2.91303,0 -5.27268,-2.359665 -5.27268,-5.272688 l 0,-4.719297 c 6.55955,-6.786113 16.04233,-11.099297 26.36338,-11.099297 10.22137,0 19.73586,4.241817 26.36338,11.099297 z"
     id="path9"
     inkscape:connector-curvature="0" /><circle
     style="fill:#df2c2c"
     cx="140.66101"
     cy="66.300621"
     r="10.545352"
     id="circle11" /><path
     style="fill:#fa5655"
     d="m 130.11569,66.300665 c 0,5.823789 4.72156,10.545351 10.54535,10.545351 l 0,-21.090703 c -5.82379,0 -10.54535,4.721563 -10.54535,10.545352 z"
     id="path13"
     inkscape:connector-curvature="0" /><path
     style="fill:#ffffff"
     d="m 114.29766,87.945313 0,4.719297 c 0,2.910763 2.36192,5.272688 5.27268,5.272688 2.91302,0 5.27267,-2.361925 5.27267,-5.272688 0,-2.910762 2.36192,-5.272676 5.27268,-5.272676 2.91303,0 5.27267,2.361914 5.27267,5.272676 l 0,10.54538 c 0,2.91076 2.36192,5.27267 5.27268,5.27267 l 0,-31.636644 c -10.36354,0 -19.82535,4.334141 -26.36338,11.099297 z"
     id="path15"
     inkscape:connector-curvature="0" /><path
     style="fill:#f0f1f1"
     d="m 213.70932,171.75534 -146.096585,0 c 11.336621,19.59086 30.331633,34.16223 52.877445,39.70621 -6.45137,0.78844 -11.46576,6.22424 -11.46576,12.88914 l 0,0.13197 63.27267,0 0,-0.13197 c 0,-6.6649 -5.01439,-12.1007 -11.46576,-12.89197 22.5492,-5.54172 41.54194,-20.11309 52.87799,-39.70338 z"
     id="path17"
     inkscape:connector-curvature="0" /><path
     style="fill:#ffffff"
     d="m 109.02442,224.35069 0,0.13197 31.63662,0 0,-52.72732 -73.048305,0 c 11.336621,19.59086 30.331633,34.16223 52.877445,39.70621 -6.45137,0.78787 -11.46576,6.22424 -11.46576,12.88914 z"
     id="path19"
     inkscape:connector-curvature="0" /><path
     style="fill:#e2e4e5"
     d="m 225.02442,166.4821 c 0,2.91303 -2.35965,5.27267 -5.27268,5.27267 l -158.181427,0 c -2.913027,0 -5.272676,-2.35964 -5.272676,-5.27267 0,-2.91303 2.359649,-5.27268 5.272676,-5.27268 l 158.181997,0 c 2.91303,0 5.27211,2.35965 5.27211,5.27268 z"
     id="path21"
     inkscape:connector-curvature="0" /><path
     style="fill:#f0f1f1"
     d="m 140.66104,161.20942 -79.090727,0 c -2.910762,0 -5.272676,2.36192 -5.272676,5.27268 0,2.91076 2.361914,5.27267 5.272676,5.27267 l 79.090727,0 0,-10.54535 z"
     id="path23"
     inkscape:connector-curvature="0" /><path
     style="fill:#f99134"
     d="m 143.63467,161.20942 c 1.46303,-4.12853 2.29905,-8.55217 2.29905,-13.18197 0,-21.83949 -17.70586,-39.54535 -39.54536,-39.54535 -21.839512,0 -39.545371,17.70586 -39.545371,39.54535 0,4.62924 0.835449,9.05344 2.299043,13.18197 l 74.492638,0 z"
     id="path25"
     inkscape:connector-curvature="0" /><path
     style="fill:#ffffff"
     d="m 141.37301,129.57337 c -4.76121,0 -5.98465,3.85949 -5.98465,8.6207 l 0,4.5607 c 0,0.72784 0,2.63662 -2.63662,2.63662 -2.63662,0 -2.63662,-1.90878 -2.63662,-2.63662 l 0,-7.68783 c 0,-2.30414 -1.35767,-4.52672 -3.55363,-5.22283 -3.64086,-1.1549 -6.99172,1.53156 -6.99172,5.00137 l 0,15.81802 c 5.92404,0 10.54535,4.6451 10.54535,10.54536 l -31.636629,0 c 0,-5.8895 4.608289,-10.54536 10.545359,-10.54536 l 0,-26.36337 c 0,-2.91303 -2.35965,-5.27268 -5.27267,-5.27268 l -10.545379,0 c -2.913027,0 -5.272676,2.35965 -5.272676,5.27268 l 0,20.86923 c 0,2.30414 -1.357675,4.52672 -3.553632,5.22284 -3.64086,1.1549 -6.991719,-1.53157 -6.991719,-5.00137 l 0,-22.06379 c 0,-1.3707 0.508633,-2.71818 1.491914,-3.67768 7.521308,-7.34515 17.473631,-11.16783 27.508112,-11.16783 14.76678,5.7e-4 28.13056,8.19703 34.98521,21.09184 z"
     id="path27"
     inkscape:connector-curvature="0" /><path
     style="fill:#facb1b"
     d="m 211.69801,161.20942 c 1.77399,-4.495 2.78162,-9.37515 2.78162,-14.5 0,-21.83949 -17.70586,-39.54535 -39.54535,-39.54535 -21.83949,0 -39.54535,17.70586 -39.54535,39.54535 0,5.12485 1.00707,10.005 2.78162,14.5 l 73.52746,0 z"
     id="path29"
     inkscape:connector-curvature="0" /><path
     style="fill:#ffffff"
     d="m 211.84301,160.86675 0,0.34267 -21.0907,0 0,-0.34267 c 4.5607,-1.16 7.9093,-5.2993 7.9093,-10.20268 l 0,-22.50162 c 0,-5.02516 -4.10985,-9.135 -9.135,-9.135 -5.48112,0 -9.31965,4.31828 -9.31965,9.135 l 0,9.3457 c 0,1.45 -1.16,2.61 -2.61,2.61 l -0.0527,0 c -1.45,0 -2.61,-1.16 -2.61,-2.61 l 0,-15.8707 c 0,-1.45 -1.16,-2.61 -2.61,-2.61 l -0.0527,0 c -1.45,0 -2.61,1.16 -2.61,2.61 l 0,25.07197 c 0,2.18803 -1.76662,3.95465 -3.95465,3.95465 -2.18803,0 -3.95465,-1.76662 -3.95465,-3.95465 l 0,-12.81267 c 0,-7.975 -6.35904,-14.8693 -15.02732,-14.8693 7.1707,-7.3293 17.16267,-11.86338 28.20929,-11.86338 9.98121,0 19.19778,3.78076 25.78338,9.57 2.1093,1.8193 3.21662,4.50803 3.21662,7.25 0,0.003 0,26.68 0,26.68 -5.6e-4,4.90395 3.34746,9.04268 7.90873,10.20268 z"
     id="path31"
     inkscape:connector-curvature="0" /><g
     id="g33"
     transform="translate(0,-212)" /><g
     id="g35"
     transform="translate(0,-212)" /><g
     id="g37"
     transform="translate(0,-212)" /><g
     id="g39"
     transform="translate(0,-212)" /><g
     id="g41"
     transform="translate(0,-212)" /><g
     id="g43"
     transform="translate(0,-212)" /><g
     id="g45"
     transform="translate(0,-212)" /><g
     id="g47"
     transform="translate(0,-212)" /><g
     id="g49"
     transform="translate(0,-212)" /><g
     id="g51"
     transform="translate(0,-212)" /><g
     id="g53"
     transform="translate(0,-212)" /><g
     id="g55"
     transform="translate(0,-212)" /><g
     id="g57"
     transform="translate(0,-212)" /><g
     id="g59"
     transform="translate(0,-212)" /><g
     id="g61"
     transform="translate(0,-212)" /><circle
     style="fill:none;fill-opacity:1;stroke:#ffffff;stroke-width:9.74689293;stroke-miterlimit:4;stroke-dasharray:none;stroke-opacity:1"
     cx="144.42357"
     cy="143.8812"
     r="141.32994"
     id="circle3-9" /><circle
     style="opacity:1;fill:#07ff00;fill-opacity:1;fill-rule:nonzero;stroke:#ffffff;stroke-width:16.99967003;stroke-linecap:butt;stroke-linejoin:miter;stroke-miterlimit:4;stroke-dasharray:none;stroke-opacity:1"
     id="path8111"
     cx="243.83224"
     cy="243.83224"
     r="47.667919" /></svg>