<?xml version="1.0" encoding="UTF-8" standalone="no"?>
<!-- Generator: Adobe Illustrator 19.0.0, SVG Export Plug-In . SVG Version: 6.00 Build 0)  -->

<svg
   xmlns:dc="http://purl.org/dc/elements/1.1/"
   xmlns:cc="http://creativecommons.org/ns#"
   xmlns:rdf="http://www.w3.org/1999/02/22-rdf-syntax-ns#"
   xmlns:svg="http://www.w3.org/2000/svg"
   xmlns="http://www.w3.org/2000/svg"
   xmlns:sodipodi="http://sodipodi.sourceforge.net/DTD/sodipodi-0.dtd"
   xmlns:inkscape="http://www.inkscape.org/namespaces/inkscape"
   version="1.1"
   id="Layer_1"
   x="0px"
   y="0px"
   viewBox="0 0 300 300"
   xml:space="preserve"
   inkscape:version="0.91 r13725"
   sodipodi:docname="symbol-laundry.svg"
   width="300"
   height="300"><metadata
     id="metadata51"><rdf:RDF><cc:Work
         rdf:about=""><dc:format>image/svg+xml</dc:format><dc:type
           rdf:resource="http://purl.org/dc/dcmitype/StillImage" /><dc:title></dc:title></cc:Work></rdf:RDF></metadata><defs
     id="defs49" /><sodipodi:namedview
     pagecolor="#ffffff"
     bordercolor="#666666"
     borderopacity="1"
     objecttolerance="10"
     gridtolerance="10"
     guidetolerance="10"
     inkscape:pageopacity="0"
     inkscape:pageshadow="2"
     inkscape:window-width="1920"
     inkscape:window-height="1017"
     id="namedview47"
     showgrid="false"
     inkscape:zoom="0.23412698"
     inkscape:cx="1854.1649"
     inkscape:cy="247.67889"
     inkscape:window-x="1912"
     inkscape:window-y="-8"
     inkscape:window-maximized="1"
     inkscape:current-layer="Layer_1" /><ellipse
     style="fill:#273640;fill-opacity:0.39215686"
     cx="155.00192"
     cy="155.03639"
     id="circle3-7"
     rx="144.99808"
     ry="144.96361" /><ellipse
     style="fill:#7c9ae8;fill-opacity:1"
     cx="144.73215"
     cy="144.16269"
     id="circle3"
     rx="140.45886"
     ry="140.42548" /><path
     style="fill:#506ebb;fill-opacity:1"
     d="m 145.24669,283.59011 -71.120149,-70.7787 32.253679,-25.40507 94.22185,-113.873646 82.45724,86.429426 c -8.20229,84.43107 -62.9551,124.08982 -137.81262,123.62799 z"
     id="path5-1-0"
     inkscape:connector-curvature="0"
     sodipodi:nodetypes="cccccc" /><g
     id="g17"
     transform="translate(0,-204)" /><g
     id="g19"
     transform="translate(0,-204)" /><g
     id="g21"
     transform="translate(0,-204)" /><g
     id="g23"
     transform="translate(0,-204)" /><g
     id="g25"
     transform="translate(0,-204)" /><g
     id="g27"
     transform="translate(0,-204)" /><g
     id="g29"
     transform="translate(0,-204)" /><g
     id="g31"
     transform="translate(0,-204)" /><g
     id="g33"
     transform="translate(0,-204)" /><g
     id="g35"
     transform="translate(0,-204)" /><g
     id="g37"
     transform="translate(0,-204)" /><g
     id="g39"
     transform="translate(0,-204)" /><g
     id="g41"
     transform="translate(0,-204)" /><g
     id="g43"
     transform="translate(0,-204)" /><g
     id="g45"
     transform="translate(0,-204)" /><ellipse
     style="fill:none;fill-opacity:1;stroke:#ffffff;stroke-width:9.69738388;stroke-miterlimit:4;stroke-dasharray:none;stroke-opacity:1"
     cx="145.47707"
     cy="144.90764"
     id="circle3-2"
     rx="140.6102"
     ry="140.57678" /><g
     transform="matrix(0.28577691,0,0,0.28577691,68.047917,72.131197)"
     id="g3"><path
       inkscape:connector-curvature="0"
       style="fill:#ffffff;fill-opacity:1"
       d="M 130,317.5 C 130,252.71 182.71,200 247.5,200 l 0,-60 -227.5,0 0,355 227.5,0 0,-60 C 182.71,435 130,382.29 130,317.5 Z"
       id="path5-1" /><path
       inkscape:connector-curvature="0"
       style="fill:#44ffe8;fill-opacity:1"
       d="M 247.5,200 C 312.29,200 365,252.71 365,317.5 365,382.29 312.29,435 247.5,435 l 0,60 227.5,0 0,-355 -227.5,0 0,60 z"
       id="path7-5" /><path
       inkscape:connector-curvature="0"
       style="fill:#ebe5dd"
       d="M 247.5,0 20,0 l 0,140 227.5,0 0,-140 z M 170.333,90 80,90 l 0,-40 90.333,0 0,40 z"
       id="path9" /><path
       inkscape:connector-curvature="0"
       style="fill:#d9ccbc"
       d="m 247.5,0 0,140 227.5,0 0,-140 -227.5,0 z m 107.5,90 -40,0 0,-40 40,0 0,40 z m 60,0 -40,0 0,-40 40,0 0,40 z"
       id="path11" /><rect
       x="80"
       y="50"
       style="fill:#3d9ae2"
       width="90.333"
       height="40"
       id="rect13-6" /><rect
       x="375"
       y="50"
       style="fill:#1a6fb0"
       width="40"
       height="40"
       id="rect15-6" /><rect
       x="315"
       y="50"
       style="fill:#1a6fb0"
       width="40"
       height="40"
       id="rect17" /><path
       inkscape:connector-curvature="0"
       style="fill:#44ffe8"
       d="m 130,317.5 c 0,64.79 52.71,117.5 117.5,117.5 l 0,-235 C 182.71,200 130,252.71 130,317.5 Z"
       id="path19" /><path
       inkscape:connector-curvature="0"
       style="fill:#00e7f0"
       d="M 365,317.5 C 365,252.71 312.29,200 247.5,200 l 0,235 C 312.29,435 365,382.29 365,317.5 Z"
       id="path21" /></g></svg>