<?xml version="1.0" encoding="UTF-8" standalone="no"?>
<!-- Generator: Adobe Illustrator 19.0.0, SVG Export Plug-In . SVG Version: 6.00 Build 0)  -->

<svg
   xmlns:dc="http://purl.org/dc/elements/1.1/"
   xmlns:cc="http://creativecommons.org/ns#"
   xmlns:rdf="http://www.w3.org/1999/02/22-rdf-syntax-ns#"
   xmlns:svg="http://www.w3.org/2000/svg"
   xmlns="http://www.w3.org/2000/svg"
   xmlns:sodipodi="http://sodipodi.sourceforge.net/DTD/sodipodi-0.dtd"
   xmlns:inkscape="http://www.inkscape.org/namespaces/inkscape"
   version="1.1"
   id="Layer_1"
   x="0px"
   y="0px"
   viewBox="0 0 288 288"
   xml:space="preserve"
   inkscape:version="0.91 r13725"
   sodipodi:docname="symbol-blank-disabled.svg"
   width="288"
   height="288"><metadata
     id="metadata61"><rdf:RDF><cc:Work
         rdf:about=""><dc:format>image/svg+xml</dc:format><dc:type
           rdf:resource="http://purl.org/dc/dcmitype/StillImage" /><dc:title></dc:title></cc:Work></rdf:RDF></metadata><defs
     id="defs59" /><sodipodi:namedview
     pagecolor="#ffffff"
     bordercolor="#666666"
     borderopacity="1"
     objecttolerance="10"
     gridtolerance="10"
     guidetolerance="10"
     inkscape:pageopacity="0"
     inkscape:pageshadow="2"
     inkscape:window-width="1920"
     inkscape:window-height="1017"
     id="namedview57"
     showgrid="false"
     inkscape:zoom="0.92187505"
     inkscape:cx="-365.34228"
     inkscape:cy="-117.2333"
     inkscape:window-x="1912"
     inkscape:window-y="-8"
     inkscape:window-maximized="1"
     inkscape:current-layer="Layer_1" /><g
     id="g27"
     transform="translate(0,-224)" /><g
     id="g29"
     transform="translate(0,-224)" /><g
     id="g31"
     transform="translate(0,-224)" /><g
     id="g33"
     transform="translate(0,-224)" /><g
     id="g35"
     transform="translate(0,-224)" /><g
     id="g37"
     transform="translate(0,-224)" /><g
     id="g39"
     transform="translate(0,-224)" /><g
     id="g41"
     transform="translate(0,-224)" /><g
     id="g43"
     transform="translate(0,-224)" /><g
     id="g45"
     transform="translate(0,-224)" /><g
     id="g47"
     transform="translate(0,-224)" /><g
     id="g49"
     transform="translate(0,-224)" /><g
     id="g51"
     transform="translate(0,-224)" /><g
     id="g53"
     transform="translate(0,-224)" /><g
     id="g55"
     transform="translate(0,-224)" /><ellipse
     style="fill:#7c9ae8;fill-opacity:1;stroke-width:9.62970924;stroke-miterlimit:4;stroke-dasharray:none"
     cx="144.34827"
     cy="144.34882"
     id="circle3"
     rx="138.28767"
     ry="138.28819" /><ellipse
     style="fill:none;fill-opacity:1;stroke:#e0e0e0;stroke-width:9.60125542;stroke-miterlimit:4;stroke-dasharray:none;stroke-opacity:1"
     cx="143.99988"
     cy="144.00043"
     id="circle3-5"
     rx="139.19925"
     ry="139.19978" /><g
     aria-label="?"
     style="font-style:normal;font-weight:normal;font-size:268.2739563px;line-height:1.25;font-family:sans-serif;letter-spacing:0px;word-spacing:0px;fill:#e0e0e0;fill-opacity:1;stroke:none;stroke-width:6.7068491"
     id="text4508-1"
     transform="matrix(0.82961831,0,0,0.82962147,27.424821,5.0878657)"><path
       d="m 124.1273,243.97287 0,-26.06764 27.37757,0 0,26.06764 z m 2.48887,-69.29537 q 0,-24.36473 12.05137,-37.46404 11.26541,-8.51456 22.39982,-17.1601 12.05137,-9.5625 12.05137,-25.412673 0,-10.479451 -9.69349,-18.077054 -9.03853,-6.942636 -19.77996,-6.942636 -29.21147,0 -29.21147,33.534243 l -22.006852,0 q 0,-25.019689 13.361302,-40.0839 13.88527,-15.457191 37.85702,-15.457191 20.17294,0 36.2851,13.3613 17.1601,14.016267 17.1601,33.796231 0,20.04195 -12.44435,33.14127 -11.65839,9.56249 -23.31678,19.12499 Q 148.885,158.43435 148.885,174.6775 l 0,16.89811 -22.26883,0 z"
       style="font-style:normal;font-variant:normal;font-weight:normal;font-stretch:normal;font-family:Shruti;-inkscape-font-specification:Shruti;fill:#e0e0e0;fill-opacity:1;stroke-width:6.7068491"
       id="path4500"
       inkscape:connector-curvature="0" /></g><ellipse
     style="fill:none;fill-opacity:1;stroke:none;stroke-width:0.80151439;stroke-miterlimit:4;stroke-dasharray:none;stroke-opacity:1"
     cx="-19.951069"
     cy="202.11687"
     id="circle3-5-0"
     transform="matrix(-0.77474227,0.63227717,0.63227427,0.77474463,0,0)"
     rx="111.57039"
     ry="111.57047" /><g
     aria-label="symbol"
     transform="matrix(0.99038096,0,0,0.99038473,3.6842271,2.442064)"
     style="font-style:normal;font-weight:normal;font-size:40px;line-height:1.25;font-family:sans-serif;letter-spacing:0px;word-spacing:0px;fill:#e0e0e0;fill-opacity:1;stroke:none"
     id="text4502"><path
       inkscape:connector-curvature="0"
       d="m 79.207384,226.45087 q -2.512191,2.55888 -6.245341,2.11261 -3.716425,-0.42984 -7.37913,-4.02572 -2.07386,-2.03603 -3.337059,-4.22868 -1.230056,-2.19295 -1.826099,-3.92768 l 3.464525,-3.52891 0.167247,0.1642 q 0.388386,2.58189 1.554594,5.04061 1.182628,2.44199 2.855095,4.08395 2.07386,2.03602 3.90137,2.5164 1.827509,0.48038 3.23959,-0.95794 1.08369,-1.10383 1.006417,-2.29641 -0.07727,-1.19258 -1.489469,-3.36729 -0.521211,-0.8073 -1.41128,-2.07527 -0.873345,-1.25154 -1.529879,-2.35593 -1.818166,-3.06593 -1.62363,-5.33829 0.227681,-2.27267 2.033831,-4.11239 1.132949,-1.154 2.602832,-1.71446 1.486608,-0.54404 3.244778,-0.39449 1.708301,0.13344 3.589951,1.09395 1.914794,0.96021 3.704335,2.7171 1.672467,1.64196 2.967896,3.73487 1.328572,2.09261 1.891166,3.7945 l -3.300329,3.36166 -0.167247,-0.1642 q -0.33394,-2.06861 -1.465478,-4.36191 -1.115119,-2.31003 -2.770862,-3.93557 -1.722642,-1.69121 -3.566876,-2.18801 -1.827814,-0.51353 -3.108539,0.791 -1.132949,1.154 -0.988472,2.44541 0.127752,1.27498 1.338642,3.18636 0.672649,1.05451 1.545993,2.30606 0.89007,1.26797 1.445035,2.14126 1.698347,2.6527 1.687172,5.03939 -0.0276,2.40341 -2.030779,4.44382 z"
       style="font-size:48px;letter-spacing:4.77999926px;word-spacing:0px;fill:#e0e0e0;fill-opacity:1"
       id="path4512" /><path
       inkscape:connector-curvature="0"
       d="m 115.34889,226.15237 -30.478979,24.26444 -4.14467,-2.23934 9.480713,-7.29171 2.666862,-26.87707 4.206531,2.27276 -2.151994,20.89493 16.359347,-13.21879 z"
       style="font-size:48px;letter-spacing:4.77999926px;word-spacing:0px;fill:#e0e0e0;fill-opacity:1"
       id="path4514" /><path
       inkscape:connector-curvature="0"
       d="m 150.83366,258.13114 -4.37461,-0.52704 1.78295,-14.79924 q 0.20185,-1.67538 0.22679,-3.25404 0.0482,-1.57586 -0.32831,-2.5655 -0.41464,-1.06506 -1.35355,-1.69753 -0.9389,-0.63247 -2.82371,-0.85954 -1.83827,-0.22147 -3.78867,0.48783 -1.9476,0.68604 -3.95688,1.88399 0.005,0.5436 -0.035,1.27056 -0.0376,0.70368 -0.12166,1.40176 l -2.00443,16.6375 -4.37461,-0.52703 1.78295,-14.79924 q 0.20745,-1.72192 0.22959,-3.27732 0.0482,-1.57586 -0.3283,-2.5655 -0.41465,-1.06505 -1.35636,-1.67425 -0.9389,-0.63247 -2.82371,-0.85955 -1.79173,-0.21586 -3.71326,0.44971 -1.89826,0.66837 -3.85539,1.82539 l -2.33803,19.40655 -4.37461,-0.52704 3.13138,-25.99174 4.37462,0.52704 -0.34762,2.88539 q 2.25234,-1.45196 4.3917,-2.1621 2.16264,-0.70734 4.46629,-0.42981 2.65269,0.31959 4.3564,1.65798 1.72698,1.34119 2.39619,3.42841 2.92182,-1.91426 5.22687,-2.62805 2.30785,-0.73706 4.79766,-0.43709 4.28154,0.51582 5.99198,3.36587 1.73652,2.82958 1.17584,7.48343 z"
       style="font-size:48px;letter-spacing:4.77999926px;word-spacing:0px;fill:#e0e0e0;fill-opacity:1"
       id="path4516" /><path
       inkscape:connector-curvature="0"
       d="m 183.04361,236.76484 q 0.84953,3.16936 0.62362,5.94758 -0.20327,2.77215 -1.25887,4.89923 -1.12794,2.21926 -2.80948,3.64058 -1.6876,1.39868 -3.99671,2.01763 -2.15065,0.57647 -3.89753,0.48662 -1.74082,-0.0672 -3.53346,-0.50877 l 0.0439,1.25001 -3.98435,1.06798 -9.44192,-35.22527 4.256,-1.1408 3.37386,12.58692 q 1.394,-1.95087 3.16002,-3.4191 1.75996,-1.49087 4.27281,-2.16443 4.4824,-1.20148 7.98552,1.54779 3.52575,2.7432 5.20661,9.01403 z m -4.3615,1.29039 q -1.21361,-4.52767 -3.33276,-6.45892 -2.12521,-1.9539 -5.45305,-1.06189 -1.85634,0.49758 -3.53951,1.82228 -1.68924,1.30206 -2.97939,3.00671 l 3.88357,14.48854 q 2.02952,0.32954 3.40486,0.3006 1.39798,-0.035 3.05058,-0.47799 3.53158,-0.94662 4.90481,-3.78972 1.3898,-2.87181 0.0609,-7.82961 z"
       style="font-size:48px;letter-spacing:4.77999926px;word-spacing:0px;fill:#e0e0e0;fill-opacity:1"
       id="path4518" /><path
       inkscape:connector-curvature="0"
       d="m 208.90386,221.51658 q 3.44087,5.39448 2.66588,10.28111 -0.77499,4.88663 -5.41859,7.84854 -4.68313,2.98712 -9.44094,1.62959 -4.73806,-1.37015 -8.17892,-6.76463 -3.44087,-5.39449 -2.68564,-10.26851 0.76238,-4.90639 5.44551,-7.89351 4.6436,-2.96192 9.41402,-1.58462 4.75782,1.35754 8.19868,6.75203 z m -3.83344,2.44515 q -2.73504,-4.28792 -5.73805,-5.29139 -3.01562,-1.02324 -5.99938,0.87995 -3.02328,1.9284 -3.36687,5.09429 -0.33644,3.13353 2.39861,7.42145 2.64682,4.14961 5.70024,5.23212 3.04082,1.06275 6.04435,-0.85304 2.964,-1.89059 3.29498,-5.07624 0.33815,-3.21802 -2.33388,-7.40714 z"
       style="font-size:48px;letter-spacing:4.77999926px;word-spacing:0px;fill:#e0e0e0;fill-opacity:1"
       id="path4520" /><path
       inkscape:connector-curvature="0"
       d="m 227.39998,221.14049 -3.08446,3.14661 -26.04322,-25.52881 3.08446,-3.14661 z"
       style="font-size:48px;letter-spacing:4.77999926px;word-spacing:0px;fill:#e0e0e0;fill-opacity:1"
       id="path4522" /></g></svg>