<?xml version="1.0" encoding="UTF-8" standalone="no"?>
<!-- Generator: Adobe Illustrator 19.0.0, SVG Export Plug-In . SVG Version: 6.00 Build 0)  -->

<svg
   xmlns:dc="http://purl.org/dc/elements/1.1/"
   xmlns:cc="http://creativecommons.org/ns#"
   xmlns:rdf="http://www.w3.org/1999/02/22-rdf-syntax-ns#"
   xmlns:svg="http://www.w3.org/2000/svg"
   xmlns="http://www.w3.org/2000/svg"
   xmlns:sodipodi="http://sodipodi.sourceforge.net/DTD/sodipodi-0.dtd"
   xmlns:inkscape="http://www.inkscape.org/namespaces/inkscape"
   version="1.1"
   id="Layer_1"
   x="0px"
   y="0px"
   viewBox="0 0 300 300"
   xml:space="preserve"
   inkscape:version="0.91 r13725"
   sodipodi:docname="symbol-train-contents.svg"
   width="300"
   height="300"><metadata
     id="metadata59"><rdf:RDF><cc:Work
         rdf:about=""><dc:format>image/svg+xml</dc:format><dc:type
           rdf:resource="http://purl.org/dc/dcmitype/StillImage" /><dc:title></dc:title></cc:Work></rdf:RDF></metadata><defs
     id="defs57" /><sodipodi:namedview
     pagecolor="#ffffff"
     bordercolor="#666666"
     borderopacity="1"
     objecttolerance="10"
     gridtolerance="10"
     guidetolerance="10"
     inkscape:pageopacity="0"
     inkscape:pageshadow="2"
     inkscape:window-width="1920"
     inkscape:window-height="1017"
     id="namedview55"
     showgrid="false"
     inkscape:zoom="1.8730158"
     inkscape:cx="35.386835"
     inkscape:cy="226.0304"
     inkscape:window-x="1912"
     inkscape:window-y="-8"
     inkscape:window-maximized="1"
     inkscape:current-layer="Layer_1" /><ellipse
     style="fill:#273640;fill-opacity:0.39215687"
     cx="155"
     cy="155.03183"
     id="circle3-2"
     rx="145"
     ry="144.96817" /><ellipse
     style="fill:#ffa700;fill-opacity:1;stroke-width:0.96869564"
     cx="144.20009"
     cy="144.16725"
     id="circle3"
     rx="140.46086"
     ry="140.43004" /><path
     style="fill:#ff2e19;fill-opacity:1"
     d="M 284.4076,148.34351 196.00372,59.910531 C 174.46928,159.73664 127.55586,130.19613 75.945385,225.75888 l 59.092035,58.82144 c 72.84852,2.39989 142.28747,-48.86888 149.37018,-136.23681 z"
     id="path5-2"
     inkscape:connector-curvature="0"
     sodipodi:nodetypes="ccccc" /><polygon
     style="fill:#334a5e"
     points="356.6,403 314,313.9 297,322 316.4,362.5 179.2,362.5 198.5,322 181.5,313.9 138.9,403 155.9,411.1 169.2,383.3 326.3,383.3 339.6,411.1 "
     id="polygon5"
     transform="matrix(0.57539683,0,0,0.5752705,-5.338983,-5.3387229)" /><path
     style="fill:#273b7a;fill-opacity:1"
     d="m 195.81973,58.516236 c -52.93651,-20.652171 -105.182519,-4.257002 -117.150773,0 -1.553571,0.575271 -2.531746,2.013447 -2.531746,3.624204 l 0,120.97937 c 0,2.1285 1.726191,3.85431 3.855159,3.85431 l 114.38887,0 c 2.12897,0 3.85516,-1.72581 3.85516,-3.85431 l 0,-120.97937 c 0.0575,-1.55323 -0.92064,-3.048933 -2.41667,-3.624204 z"
     id="path7"
     inkscape:connector-curvature="0" /><rect
     x="88.393166"
     y="74.796516"
     style="fill:#71e2ef;fill-opacity:1"
     width="97.702385"
     height="45.216259"
     id="rect9" /><rect
     x="136.89026"
     y="74.636566"
     style="fill:#38c6d9;fill-opacity:1"
     width="49.164246"
     height="45.216259"
     id="rect9-7" /><ellipse
     style="fill:#71e2ef;fill-opacity:1"
     cx="137.24429"
     cy="48.276535"
     id="circle13"
     rx="14.730159"
     ry="14.726925" /><ellipse
     style="fill:#324a5e"
     cx="137.24429"
     cy="48.276535"
     id="circle15"
     rx="7.8829365"
     ry="7.8812056" /><polygon
     style="fill:#4cdbc4"
     points="141.7,237.1 141.7,253 247.8,289.7 353.9,253.1 353.9,237.1 247.8,273.7 "
     id="polygon17"
     transform="matrix(0.57539683,0,0,0.5752705,-5.338983,-5.3387229)" /><g
     id="g19"
     transform="matrix(0.57539683,0,0,0.5752705,-5.338983,-5.3387229)"><circle
       style="fill:#ffd05b"
       cx="317"
       cy="301.60001"
       r="15.6"
       id="circle21" /><circle
       style="fill:#ffd05b"
       cx="178.5"
       cy="301.60001"
       r="15.6"
       id="circle23" /></g><g
     id="g25"
     transform="translate(0,-204)" /><g
     id="g27"
     transform="translate(0,-204)" /><g
     id="g29"
     transform="translate(0,-204)" /><g
     id="g31"
     transform="translate(0,-204)" /><g
     id="g33"
     transform="translate(0,-204)" /><g
     id="g35"
     transform="translate(0,-204)" /><g
     id="g37"
     transform="translate(0,-204)" /><g
     id="g39"
     transform="translate(0,-204)" /><g
     id="g41"
     transform="translate(0,-204)" /><g
     id="g43"
     transform="translate(0,-204)" /><g
     id="g45"
     transform="translate(0,-204)" /><g
     id="g47"
     transform="translate(0,-204)" /><g
     id="g49"
     transform="translate(0,-204)" /><g
     id="g51"
     transform="translate(0,-204)" /><g
     id="g53"
     transform="translate(0,-204)" /><ellipse
     style="fill:none;fill-opacity:1;stroke:#ffffff;stroke-width:9.67959309;stroke-miterlimit:4;stroke-dasharray:none;stroke-opacity:1"
     cx="145.21201"
     cy="145.17915"
     id="circle3-0"
     rx="140.3541"
     ry="140.32329" /><circle
     style="opacity:1;fill:#07ff00;fill-opacity:1;fill-rule:nonzero;stroke:#ffffff;stroke-width:16.99967003;stroke-linecap:butt;stroke-linejoin:miter;stroke-miterlimit:4;stroke-dasharray:none;stroke-opacity:1"
     id="path8111"
     cx="243.83224"
     cy="243.83224"
     r="47.667919" /></svg>