<?xml version="1.0" encoding="UTF-8" standalone="no"?>
<!-- Generator: Adobe Illustrator 19.0.0, SVG Export Plug-In . SVG Version: 6.00 Build 0)  -->

<svg
   xmlns:dc="http://purl.org/dc/elements/1.1/"
   xmlns:cc="http://creativecommons.org/ns#"
   xmlns:rdf="http://www.w3.org/1999/02/22-rdf-syntax-ns#"
   xmlns:svg="http://www.w3.org/2000/svg"
   xmlns="http://www.w3.org/2000/svg"
   xmlns:sodipodi="http://sodipodi.sourceforge.net/DTD/sodipodi-0.dtd"
   xmlns:inkscape="http://www.inkscape.org/namespaces/inkscape"
   version="1.1"
   id="Layer_1"
   x="0px"
   y="0px"
   viewBox="0 0 300 300"
   xml:space="preserve"
   inkscape:version="0.92.3 (2405546, 2018-03-11)"
   sodipodi:docname="symbol-restaurant.svg"
   width="300"
   height="300"
   inkscape:export-filename="C:\Users\tycta\Desktop\Saving Plastic Google Map\symbol-restaurant.png"
   inkscape:export-xdpi="96"
   inkscape:export-ydpi="96"><metadata
     id="metadata67"><rdf:RDF><cc:Work
         rdf:about=""><dc:format>image/svg+xml</dc:format><dc:type
           rdf:resource="http://purl.org/dc/dcmitype/StillImage" /><dc:title /></cc:Work></rdf:RDF></metadata><defs
     id="defs65"><pattern
       y="0"
       x="0"
       height="6"
       width="6"
       patternUnits="userSpaceOnUse"
       id="EMFhbasepattern" /></defs><sodipodi:namedview
     pagecolor="#ffffff"
     bordercolor="#666666"
     borderopacity="1"
     objecttolerance="10"
     gridtolerance="10"
     guidetolerance="10"
     inkscape:pageopacity="0"
     inkscape:pageshadow="2"
     inkscape:window-width="1920"
     inkscape:window-height="1017"
     id="namedview63"
     showgrid="false"
     inkscape:zoom="1.84375"
     inkscape:cx="28.717874"
     inkscape:cy="131.54379"
     inkscape:window-x="1912"
     inkscape:window-y="-8"
     inkscape:window-maximized="1"
     inkscape:current-layer="Layer_1" /><circle
     style="fill:#273640;fill-opacity:0.39215687"
     cx="155"
     cy="155"
     r="145"
     id="circle3" /><path
     style="fill:#748993;stroke-width:0.97566479"
     d="m 143.56809,2.1694866 c -78.132023,0 -141.4714175,63.3386964 -141.4714175,141.4713234 0,75.25509 58.7592585,136.7858 132.9013475,141.21618 L 281.86467,113.69638 C 268.12647,49.946419 211.42628,2.1694866 143.56809,2.1694866 Z"
     id="path3"
     inkscape:connector-curvature="0" /><path
     style="fill:#414d53"
     d="m 285.11867,140.11857 c 0,-10.53063 -1.13281,-20.79562 -3.26477,-30.68904 L 203.16195,30.738241 182.83023,73.450217 140.11867,30.738241 136.49367,52.33063 114.90113,30.738241 110.01531,51.06982 89.683565,30.738241 84.85212,86.780597 l 26.35151,34.422253 -15.215394,128.2962 35.347174,35.34718 c 2.90623,0.17332 5.83285,0.27244 8.78326,0.27244 80.08135,0 145,-64.91927 145,-145.0001 z"
     id="path5"
     inkscape:connector-curvature="0" /><polygon
     style="fill:#a65a3a"
     points="311.652,318.887 333.913,449.113 367.304,449.113 367.304,330.017 "
     id="polygon7"
     transform="matrix(0.56640625,0,0,0.56640663,-4.8813561,-4.8813609)" /><polygon
     style="fill:#d3754f"
     points="300.522,330.017 300.522,449.113 333.913,449.113 333.913,318.887 "
     id="polygon9"
     transform="matrix(0.56640625,0,0,0.56640663,-4.8813561,-4.8813609)" /><g
     id="g11"
     transform="matrix(0.56640625,0,0,0.56640663,-4.8813561,-4.8813609)"><rect
       x="178.08701"
       y="248.175"
       style="fill:#aee6ff"
       width="44.521999"
       height="200.938"
       id="rect13" /><polygon
       style="fill:#aee6ff"
       points="166.957,176.974 144.696,154.713 144.696,62.887 166.957,62.887 "
       id="polygon15" /><rect
       x="189.217"
       y="62.887001"
       style="fill:#aee6ff"
       width="22.261"
       height="114.087"
       id="rect17" /><polygon
       style="fill:#aee6ff"
       points="256,154.713 233.739,176.974 233.739,62.887 256,62.887 "
       id="polygon19" /></g><path
     style="fill:#74c8ee"
     d="m 140.11867,95.357693 0,18.912907 c 0,17.40625 -14.11541,31.52167 -31.52164,31.52167 l -12.608794,-50.434577 44.130434,0 z"
     id="path21"
     inkscape:connector-curvature="0" /><rect
     x="77.075356"
     y="82.749146"
     style="fill:#d1f1ff"
     width="63.043282"
     height="12.608778"
     id="rect23" /><path
     style="fill:#aee6ff"
     d="m 108.59703,95.357693 0,50.434577 c -17.406258,0 -31.521668,-14.11542 -31.521668,-31.52167 l 0,-18.912907 31.521668,0 z"
     id="path25"
     inkscape:connector-curvature="0" /><polygon
     style="fill:#d1f1ff"
     points="300.522,274.365 300.522,330.017 367.304,330.017 367.304,307.757 "
     id="polygon27"
     transform="matrix(0.56640625,0,0,0.56640663,-4.8813561,-4.8813609)" /><path
     style="fill:#aee6ff"
     d="m 152.72744,81.172605 0,88.260905 12.60877,0 37.82631,-126.087131 0,-12.608138 c -27.85303,0 -50.43508,22.581901 -50.43508,50.434364 z"
     id="path29"
     inkscape:connector-curvature="0" /><path
     style="fill:#74c8ee"
     d="m 165.33621,81.172605 0,88.260905 37.82631,0 0,-126.086565 c -20.85508,0 -37.82631,16.971134 -37.82631,37.82566 z"
     id="path31"
     inkscape:connector-curvature="0" /><g
     id="g33"
     transform="translate(0,-212)" /><g
     id="g35"
     transform="translate(0,-212)" /><g
     id="g37"
     transform="translate(0,-212)" /><g
     id="g39"
     transform="translate(0,-212)" /><g
     id="g41"
     transform="translate(0,-212)" /><g
     id="g43"
     transform="translate(0,-212)" /><g
     id="g45"
     transform="translate(0,-212)" /><g
     id="g47"
     transform="translate(0,-212)" /><g
     id="g49"
     transform="translate(0,-212)" /><g
     id="g51"
     transform="translate(0,-212)" /><g
     id="g53"
     transform="translate(0,-212)" /><g
     id="g55"
     transform="translate(0,-212)" /><g
     id="g57"
     transform="translate(0,-212)" /><g
     id="g59"
     transform="translate(0,-212)" /><g
     id="g61"
     transform="translate(0,-212)" /><circle
     style="fill:none;fill-opacity:1;stroke:#ffffff;stroke-width:9.71073437;stroke-miterlimit:4;stroke-dasharray:none;stroke-opacity:1"
     cx="144.87288"
     cy="144.87288"
     r="140.80565"
     id="circle3-0" /></svg>