<?xml version="1.0" encoding="UTF-8" standalone="no"?>
<!-- Generator: Adobe Illustrator 19.0.0, SVG Export Plug-In . SVG Version: 6.00 Build 0)  -->

<svg
   xmlns:dc="http://purl.org/dc/elements/1.1/"
   xmlns:cc="http://creativecommons.org/ns#"
   xmlns:rdf="http://www.w3.org/1999/02/22-rdf-syntax-ns#"
   xmlns:svg="http://www.w3.org/2000/svg"
   xmlns="http://www.w3.org/2000/svg"
   xmlns:sodipodi="http://sodipodi.sourceforge.net/DTD/sodipodi-0.dtd"
   xmlns:inkscape="http://www.inkscape.org/namespaces/inkscape"
   version="1.1"
   id="Layer_1"
   x="0px"
   y="0px"
   viewBox="0 0 300 300"
   xml:space="preserve"
   inkscape:version="0.91 r13725"
   sodipodi:docname="symbol-information.svg"
   width="300"
   height="300"><metadata
     id="metadata51"><rdf:RDF><cc:Work
         rdf:about=""><dc:format>image/svg+xml</dc:format><dc:type
           rdf:resource="http://purl.org/dc/dcmitype/StillImage" /><dc:title /></cc:Work></rdf:RDF></metadata><defs
     id="defs49" /><sodipodi:namedview
     pagecolor="#ffffff"
     bordercolor="#666666"
     borderopacity="1"
     objecttolerance="10"
     gridtolerance="10"
     guidetolerance="10"
     inkscape:pageopacity="0"
     inkscape:pageshadow="2"
     inkscape:window-width="1920"
     inkscape:window-height="1017"
     id="namedview47"
     showgrid="false"
     inkscape:zoom="0.6622111"
     inkscape:cx="-288.44648"
     inkscape:cy="81.315251"
     inkscape:window-x="1912"
     inkscape:window-y="-8"
     inkscape:window-maximized="1"
     inkscape:current-layer="Layer_1"
     showguides="false" /><ellipse
     style="fill:#273640;fill-opacity:0.39215686"
     cx="155.00192"
     cy="155.03639"
     id="circle3-7"
     rx="144.99808"
     ry="144.96361" /><ellipse
     style="fill:#7c9ae8;fill-opacity:1;stroke-width:0.986772"
     cx="145.46373"
     cy="143.77731"
     id="circle3"
     rx="139.72728"
     ry="140.81085" /><path
     style="fill:#506ebb;fill-opacity:1"
     d="m 157.84561,280.88267 -41.29122,-43.7488 50.08515,-108.01969 -34.58775,-39.108808 48.43883,-42.305228 98.66391,120.040096 c -19.52798,75.37052 -69.10279,107.5639 -121.30892,113.14243 z"
     id="path5-1-0"
     inkscape:connector-curvature="0"
     sodipodi:nodetypes="ccccccc" /><g
     id="g17"
     transform="translate(0,-204)" /><g
     id="g19"
     transform="translate(0,-204)" /><g
     id="g21"
     transform="translate(0,-204)" /><g
     id="g23"
     transform="translate(0,-204)" /><g
     id="g25"
     transform="translate(0,-204)" /><g
     id="g27"
     transform="translate(0,-204)" /><g
     id="g29"
     transform="translate(0,-204)" /><g
     id="g31"
     transform="translate(0,-204)" /><g
     id="g33"
     transform="translate(0,-204)" /><g
     id="g35"
     transform="translate(0,-204)" /><g
     id="g37"
     transform="translate(0,-204)" /><g
     id="g39"
     transform="translate(0,-204)" /><g
     id="g41"
     transform="translate(0,-204)" /><g
     id="g43"
     transform="translate(0,-204)" /><g
     id="g45"
     transform="translate(0,-204)" /><ellipse
     style="fill:none;fill-opacity:1;stroke:#ffffff;stroke-width:9.67279148;stroke-miterlimit:4;stroke-dasharray:none;stroke-opacity:1"
     cx="145.84595"
     cy="145.27644"
     id="circle3-2"
     rx="140.25363"
     ry="140.22029" /><g
     id="g8968"
     transform="matrix(1.8216412,0,0,1.7858625,40.258025,47.585727)"
     style="fill:#ffffff;fill-opacity:1"><g
       id="g8928"
       style="fill:#ffffff;fill-opacity:1"><path
         id="path8930"
         d="m 78.962,99.536 -1.559,6.373 c -4.677,1.846 -8.413,3.251 -11.195,4.217 -2.785,0.969 -6.021,1.451 -9.708,1.451 -5.662,0 -10.066,-1.387 -13.207,-4.142 -3.141,-2.766 -4.712,-6.271 -4.712,-10.523 0,-1.646 0.114,-3.339 0.351,-5.064 0.239,-1.727 0.619,-3.672 1.139,-5.846 l 5.845,-20.688 c 0.52,-1.981 0.962,-3.858 1.316,-5.633 0.359,-1.764 0.532,-3.387 0.532,-4.848 0,-2.642 -0.547,-4.49 -1.636,-5.529 -1.089,-1.036 -3.167,-1.562 -6.252,-1.562 -1.511,0 -3.064,0.242 -4.647,0.71 -1.59,0.47 -2.949,0.924 -4.09,1.346 l 1.563,-6.378 c 3.829,-1.559 7.489,-2.894 10.99,-4.002 3.501,-1.111 6.809,-1.667 9.938,-1.667 5.623,0 9.962,1.359 13.009,4.077 3.047,2.72 4.57,6.246 4.57,10.591 0,0.899 -0.1,2.483 -0.315,4.747 -0.21,2.269 -0.601,4.348 -1.171,6.239 l -5.82,20.605 c -0.477,1.655 -0.906,3.547 -1.279,5.676 -0.385,2.115 -0.569,3.731 -0.569,4.815 0,2.736 0.61,4.604 1.833,5.597 1.232,0.993 3.354,1.487 6.368,1.487 1.415,0 3.025,-0.251 4.814,-0.744 1.784,-0.493 3.085,-0.926 3.892,-1.305 z M 80.438,13.03 c 0,3.59 -1.353,6.656 -4.072,9.177 -2.712,2.53 -5.98,3.796 -9.803,3.796 -3.835,0 -7.111,-1.266 -9.854,-3.796 -2.738,-2.522 -4.11,-5.587 -4.11,-9.177 0,-3.583 1.372,-6.654 4.11,-9.207 C 59.447,1.274 62.729,0 66.563,0 c 3.822,0 7.091,1.277 9.803,3.823 2.721,2.553 4.072,5.625 4.072,9.207 z"
         inkscape:connector-curvature="0"
         style="fill:#ffffff;fill-opacity:1" /></g><g
       id="g8932"
       style="fill:#ffffff;fill-opacity:1" /><g
       id="g8934"
       style="fill:#ffffff;fill-opacity:1" /><g
       id="g8936"
       style="fill:#ffffff;fill-opacity:1" /><g
       id="g8938"
       style="fill:#ffffff;fill-opacity:1" /><g
       id="g8940"
       style="fill:#ffffff;fill-opacity:1" /><g
       id="g8942"
       style="fill:#ffffff;fill-opacity:1" /><g
       id="g8944"
       style="fill:#ffffff;fill-opacity:1" /><g
       id="g8946"
       style="fill:#ffffff;fill-opacity:1" /><g
       id="g8948"
       style="fill:#ffffff;fill-opacity:1" /><g
       id="g8950"
       style="fill:#ffffff;fill-opacity:1" /><g
       id="g8952"
       style="fill:#ffffff;fill-opacity:1" /><g
       id="g8954"
       style="fill:#ffffff;fill-opacity:1" /><g
       id="g8956"
       style="fill:#ffffff;fill-opacity:1" /><g
       id="g8958"
       style="fill:#ffffff;fill-opacity:1" /><g
       id="g8960"
       style="fill:#ffffff;fill-opacity:1" /></g><path
     style="fill:#ffffff;fill-opacity:1"
     d="m 152.83836,60.299793 c -11.16001,-0.218118 -20.68947,13.70186 -13.70529,23.098161 7.10057,11.003744 27.66462,9.54629 31.42035,-3.550953 2.85355,-8.626973 -4.08619,-18.184147 -13.16621,-19.204619 -1.49892,-0.266611 -3.02636,-0.369061 -4.54885,-0.342589 z M 129.62571,127.8201 c -5.18828,0.19562 -10.31266,1.23085 -15.26917,2.70555 7.38503,1.88826 13.07513,8.44629 13.40906,15.95327 1.2764,12.06541 -3.55861,23.64441 -6.29421,35.20216 -4.5934,15.65693 -11.11643,31.58134 -9.7649,48.06559 2.39642,9.56877 13.47672,14.3645 22.94578,13.99933 5.90687,0.1172 11.66275,-1.04001 17.37212,-2.74594 -7.65517,-1.77688 -13.90279,-8.40462 -14.13628,-16.23072 -1.05433,-11.50261 3.28621,-22.59896 5.86454,-33.64422 4.73927,-16.15848 11.79386,-32.83822 10.09982,-49.79158 -2.14993,-9.12446 -12.28211,-13.84366 -21.23912,-13.47957 -0.99535,-0.0439 -1.9916,-0.0396 -2.98764,-0.0339 z"
     id="path8930-9"
     inkscape:connector-curvature="0" /><circle
     style="opacity:1;fill:#ffffff;fill-opacity:1;fill-rule:nonzero;stroke:#ffffff;stroke-width:51.04168701;stroke-linecap:butt;stroke-linejoin:miter;stroke-miterlimit:4;stroke-dasharray:none;stroke-opacity:1"
     id="path8178"
     cx="157.00925"
     cy="69.976036"
     r="6.7442961" /></svg>