<?xml version="1.0" encoding="UTF-8" standalone="no"?>
<!-- Generator: Adobe Illustrator 19.0.0, SVG Export Plug-In . SVG Version: 6.00 Build 0)  -->

<svg
   xmlns:dc="http://purl.org/dc/elements/1.1/"
   xmlns:cc="http://creativecommons.org/ns#"
   xmlns:rdf="http://www.w3.org/1999/02/22-rdf-syntax-ns#"
   xmlns:svg="http://www.w3.org/2000/svg"
   xmlns="http://www.w3.org/2000/svg"
   xmlns:sodipodi="http://sodipodi.sourceforge.net/DTD/sodipodi-0.dtd"
   xmlns:inkscape="http://www.inkscape.org/namespaces/inkscape"
   version="1.1"
   id="Layer_1"
   x="0px"
   y="0px"
   viewBox="0 0 300.00001 300.00001"
   xml:space="preserve"
   inkscape:version="0.92.3 (2405546, 2018-03-11)"
   sodipodi:docname="symbol-bag.svg"
   width="300"
   height="300"><metadata
     id="metadata103"><rdf:RDF><cc:Work
         rdf:about=""><dc:format>image/svg+xml</dc:format><dc:type
           rdf:resource="http://purl.org/dc/dcmitype/StillImage" /><dc:title></dc:title></cc:Work></rdf:RDF></metadata><defs
     id="defs101">
	
</defs><sodipodi:namedview
     pagecolor="#ffffff"
     bordercolor="#666666"
     borderopacity="1"
     objecttolerance="10"
     gridtolerance="10"
     guidetolerance="10"
     inkscape:pageopacity="0"
     inkscape:pageshadow="2"
     inkscape:window-width="1920"
     inkscape:window-height="1017"
     id="namedview99"
     showgrid="false"
     inkscape:zoom="0.11703493"
     inkscape:cx="-1929.2581"
     inkscape:cy="2473.7764"
     inkscape:window-x="1912"
     inkscape:window-y="-8"
     inkscape:window-maximized="1"
     inkscape:current-layer="Layer_1" /><ellipse
     style="fill:#273640;fill-opacity:0.39215687"
     cx="155.03473"
     cy="155.0076"
     id="circle3-4"
     rx="144.96527"
     ry="144.9924" /><ellipse
     style="fill:#7c9ae8;fill-opacity:1;stroke-width:0.9779011"
     cx="142.82857"
     cy="142.85631"
     id="circle3"
     rx="141.7617"
     ry="141.78822" /><path
     style="fill:#506ebb;fill-opacity:1"
     d="m 285.19373,128.88367 -62.80468,-67.03907 -71.71749,119.91216 -60.469906,-58.0187 -15.657097,68.11978 -6.435233,31.0891 69.651606,61.41966 c 38.81011,3.17416 146.01384,-21.36864 147.4328,-155.48293 z"
     id="path5-6-0"
     inkscape:connector-curvature="0"
     sodipodi:nodetypes="cccccccc" /><g
     id="g69"
     transform="translate(0,-204.12298)" /><g
     id="g71"
     transform="translate(0,-204.12298)" /><g
     id="g73"
     transform="translate(0,-204.12298)" /><g
     id="g75"
     transform="translate(0,-204.12298)" /><g
     id="g77"
     transform="translate(0,-204.12298)" /><g
     id="g79"
     transform="translate(0,-204.12298)" /><g
     id="g81"
     transform="translate(0,-204.12298)" /><g
     id="g83"
     transform="translate(0,-204.12298)" /><g
     id="g85"
     transform="translate(0,-204.12298)" /><g
     id="g87"
     transform="translate(0,-204.12298)" /><g
     id="g89"
     transform="translate(0,-204.12298)" /><g
     id="g91"
     transform="translate(0,-204.12298)" /><g
     id="g93"
     transform="translate(0,-204.12298)" /><g
     id="g95"
     transform="translate(0,-204.12298)" /><g
     id="g97"
     transform="translate(0,-204.12298)" /><ellipse
     style="fill:none;fill-opacity:1;stroke:#ffffff;stroke-width:9.71516991;stroke-miterlimit:4;stroke-dasharray:none;stroke-opacity:1"
     cx="144.86243"
     cy="144.89034"
     id="circle3-2"
     rx="140.83623"
     ry="140.86259" /><g
     id="g932"
     transform="matrix(0.32593395,0,0,0.32593395,65.651973,61.651973)"><path
       id="path862"
       d="M 24.025,0.591 H 480.887 V 394.043 H 24.418 Z"
       style="fill:#d07c3f"
       inkscape:connector-curvature="0" /><path
       id="path864"
       d="m 0.394,95.114 v 380.849 c 0,18.511 14.966,28.751 33.477,28.751 H 471.04 c 18.511,0 33.477,-10.24 33.477,-28.751 V 95.114 c 0,0.394 -503.729,0 -504.123,0 z M 71.286,32.492 24.025,0.591 V 79.36 H 71.287 Z M 480.886,0.591 433.624,32.099 V 79.36 h 47.262 z"
       style="fill:#eec65d"
       inkscape:connector-curvature="0" /><path
       id="path866"
       d="M 71.286,95.114 V 32.098 L 0,95.114 Z M 433.625,32.098 v 63.015 h 71.68 z"
       style="fill:#dca34f"
       inkscape:connector-curvature="0" /><path
       id="path868"
       d="m 112.246,185.698 c -11.815,0 -21.662,9.846 -21.662,21.662 0,11.816 9.452,21.662 21.662,21.662 11.815,0 21.662,-9.846 21.662,-21.662 0.394,-11.815 -9.453,-21.662 -21.662,-21.662 z m 263.877,0 c -11.815,0 -21.662,9.846 -21.662,21.662 0,11.816 9.452,21.662 21.662,21.662 11.815,0 21.662,-9.846 21.662,-21.662 0.393,-11.815 -9.453,-21.662 -21.662,-21.662 z"
       style="fill:#d07c3f"
       inkscape:connector-curvature="0" /><path
       id="path870"
       d="m 244.578,366.868 c -78.375,0 -141.785,-69.317 -141.785,-154.782 0,-5.908 4.332,-10.634 9.846,-10.634 5.514,0 9.846,4.726 9.846,10.634 0,73.649 54.745,133.12 122.092,133.12 67.347,0 122.092,-59.865 122.092,-133.12 0,-5.908 4.332,-10.634 9.846,-10.634 5.514,0 9.846,4.726 9.846,10.634 0.002,85.465 -63.801,154.782 -141.783,154.782 z"
       style="fill:#cba94f"
       inkscape:connector-curvature="0" /><path
       id="path872"
       d="m 244.578,354.658 c -78.375,0 -141.785,-64.197 -141.785,-143.36 0,-5.514 4.332,-9.846 9.846,-9.846 5.514,0 9.846,4.332 9.846,9.846 0,68.135 54.745,123.668 122.092,123.668 67.347,0 122.092,-55.532 122.092,-123.668 0,-5.514 4.332,-9.846 9.846,-9.846 5.514,0 9.846,4.332 9.846,9.846 0.002,79.164 -63.801,143.36 -141.783,143.36 z"
       style="fill:#ffffff"
       inkscape:connector-curvature="0" /><g
       id="g874">
</g><g
       id="g876">
</g><g
       id="g878">
</g><g
       id="g880">
</g><g
       id="g882">
</g><g
       id="g884">
</g><g
       id="g886">
</g><g
       id="g888">
</g><g
       id="g890">
</g><g
       id="g892">
</g><g
       id="g894">
</g><g
       id="g896">
</g><g
       id="g898">
</g><g
       id="g900">
</g><g
       id="g902">
</g></g><path
     id="path936"
     d="m 140.14691,85.151793 c 2.95235,2.952354 4.6348,3.066611 7.70614,0 l 22.5769,-23.141229 c 2.11973,-3.571181 0.3853,-6.49101 -3.85197,-6.49101 h -10.1517 V 33.153665 c 5.6e-4,-2.743298 -2.22622,-4.970073 -4.96952,-4.970073 h -14.9105 c -2.74358,0 -4.97008,2.226775 -4.97008,4.970073 v 22.365889 h -10.1542 c -4.23699,0 -5.97171,2.922331 -3.85196,6.49101 z"
     style="fill:#ffffff;fill-opacity:1;stroke-width:0.27799946"
     inkscape:connector-curvature="0"
     sodipodi:nodetypes="cccsccssscscc" /><g
     id="g940"
     transform="translate(-390.74207,-123.97224)">
</g><g
     id="g942"
     transform="translate(-390.74207,-123.97224)">
</g><g
     id="g944"
     transform="translate(-390.74207,-123.97224)">
</g><g
     id="g946"
     transform="translate(-390.74207,-123.97224)">
</g><g
     id="g948"
     transform="translate(-390.74207,-123.97224)">
</g><g
     id="g950"
     transform="translate(-390.74207,-123.97224)">
</g><g
     id="g952"
     transform="translate(-390.74207,-123.97224)">
</g><g
     id="g954"
     transform="translate(-390.74207,-123.97224)">
</g><g
     id="g956"
     transform="translate(-390.74207,-123.97224)">
</g><g
     id="g958"
     transform="translate(-390.74207,-123.97224)">
</g><g
     id="g960"
     transform="translate(-390.74207,-123.97224)">
</g><g
     id="g962"
     transform="translate(-390.74207,-123.97224)">
</g><g
     id="g964"
     transform="translate(-390.74207,-123.97224)">
</g><g
     id="g966"
     transform="translate(-390.74207,-123.97224)">
</g><g
     id="g968"
     transform="translate(-390.74207,-123.97224)">
</g></svg>