<?xml version="1.0" encoding="UTF-8" standalone="no"?>
<!-- Generator: Adobe Illustrator 19.0.0, SVG Export Plug-In . SVG Version: 6.00 Build 0)  -->

<svg
   xmlns:dc="http://purl.org/dc/elements/1.1/"
   xmlns:cc="http://creativecommons.org/ns#"
   xmlns:rdf="http://www.w3.org/1999/02/22-rdf-syntax-ns#"
   xmlns:svg="http://www.w3.org/2000/svg"
   xmlns="http://www.w3.org/2000/svg"
   xmlns:sodipodi="http://sodipodi.sourceforge.net/DTD/sodipodi-0.dtd"
   xmlns:inkscape="http://www.inkscape.org/namespaces/inkscape"
   version="1.1"
   id="Layer_1"
   x="0px"
   y="0px"
   viewBox="0 0 300 300"
   xml:space="preserve"
   inkscape:version="0.91 r13725"
   sodipodi:docname="symbol-service-turning-point-50-contents.svg"
   width="300"
   height="300"><metadata
     id="metadata43"><rdf:RDF><cc:Work
         rdf:about=""><dc:format>image/svg+xml</dc:format><dc:type
           rdf:resource="http://purl.org/dc/dcmitype/StillImage" /><dc:title></dc:title></cc:Work></rdf:RDF></metadata><defs
     id="defs41"><filter
       style="color-interpolation-filters:sRGB;"
       inkscape:label="Drop Shadow"
       id="filter11078"><feFlood
         flood-opacity="1"
         flood-color="rgb(0,0,0)"
         result="flood"
         id="feFlood11080" /><feComposite
         in="flood"
         in2="SourceGraphic"
         operator="in"
         result="composite1"
         id="feComposite11082" /><feGaussianBlur
         in="composite1"
         stdDeviation="6"
         result="blur"
         id="feGaussianBlur11084" /><feOffset
         dx="1.6"
         dy="1.6"
         result="offset"
         id="feOffset11086" /><feComposite
         in="SourceGraphic"
         in2="offset"
         operator="over"
         result="composite2"
         id="feComposite11088" /></filter><filter
       style="color-interpolation-filters:sRGB;"
       inkscape:label="Drop Shadow"
       id="filter11090"><feFlood
         flood-opacity="1"
         flood-color="rgb(0,0,0)"
         result="flood"
         id="feFlood11092" /><feComposite
         in="flood"
         in2="SourceGraphic"
         operator="in"
         result="composite1"
         id="feComposite11094" /><feGaussianBlur
         in="composite1"
         stdDeviation="6"
         result="blur"
         id="feGaussianBlur11096" /><feOffset
         dx="1.6"
         dy="1.6"
         result="offset"
         id="feOffset11098" /><feComposite
         in="SourceGraphic"
         in2="offset"
         operator="over"
         result="composite2"
         id="feComposite11100" /></filter></defs><sodipodi:namedview
     pagecolor="#ffffff"
     bordercolor="#666666"
     borderopacity="1"
     objecttolerance="10"
     gridtolerance="10"
     guidetolerance="10"
     inkscape:pageopacity="0"
     inkscape:pageshadow="2"
     inkscape:window-width="1920"
     inkscape:window-height="1017"
     id="namedview39"
     showgrid="false"
     inkscape:zoom="0.32593458"
     inkscape:cx="-835.47177"
     inkscape:cy="420.75885"
     inkscape:window-x="1912"
     inkscape:window-y="-8"
     inkscape:window-maximized="1"
     inkscape:current-layer="Layer_1" /><rect
     style="opacity:1;fill:#243640;fill-opacity:0.39215686;fill-rule:nonzero;stroke:none;stroke-width:9.78737259;stroke-linejoin:round;stroke-miterlimit:4;stroke-dasharray:none;stroke-opacity:0.39215686"
     id="rect8103-4"
     width="197.81223"
     height="197.81223"
     x="-108.70992"
     y="123.70222"
     ry="12.013863"
     transform="matrix(0.70720198,-0.70701157,0.70720198,0.70701157,0,0)" /><g
     id="g9"
     transform="translate(0,-211.996)" /><g
     id="g11"
     transform="translate(0,-211.996)" /><g
     id="g13"
     transform="translate(0,-211.996)" /><g
     id="g15"
     transform="translate(0,-211.996)" /><g
     id="g17"
     transform="translate(0,-211.996)" /><g
     id="g19"
     transform="translate(0,-211.996)" /><g
     id="g21"
     transform="translate(0,-211.996)" /><g
     id="g23"
     transform="translate(0,-211.996)" /><g
     id="g25"
     transform="translate(0,-211.996)" /><g
     id="g27"
     transform="translate(0,-211.996)" /><g
     id="g29"
     transform="translate(0,-211.996)" /><g
     id="g31"
     transform="translate(0,-211.996)" /><g
     id="g33"
     transform="translate(0,-211.996)" /><g
     id="g35"
     transform="translate(0,-211.996)" /><g
     id="g37"
     transform="translate(0,-211.996)" /><text
     xml:space="preserve"
     style="font-style:normal;font-weight:normal;line-height:0%;font-family:sans-serif;letter-spacing:0px;word-spacing:0px;fill:#000000;fill-opacity:1;stroke:none;stroke-width:1px;stroke-linecap:butt;stroke-linejoin:miter;stroke-opacity:1"
     x="-179.48387"
     y="46.881714"
     id="text8082"><tspan
       sodipodi:role="line"
       id="tspan8084"
       x="-179.48387"
       y="46.881714"
       style="font-size:180px;line-height:1.25"> </tspan></text>
<text
     xml:space="preserve"
     style="font-style:normal;font-weight:normal;line-height:0%;font-family:sans-serif;letter-spacing:0px;word-spacing:0px;fill:#000000;fill-opacity:1;stroke:none;stroke-width:1px;stroke-linecap:butt;stroke-linejoin:miter;stroke-opacity:1"
     x="-233.17563"
     y="6.9964142"
     id="text8086"><tspan
       sodipodi:role="line"
       id="tspan8088"
       x="-233.17563"
       y="6.9964142"
       style="font-size:90px;line-height:1.25"> </tspan></text>
<rect
     style="opacity:1;fill:#9933ff;fill-opacity:1;fill-rule:nonzero;stroke:#ffffff;stroke-width:9.86728191;stroke-linejoin:round;stroke-miterlimit:4;stroke-dasharray:none;stroke-opacity:1"
     id="rect8103"
     width="196.30305"
     height="196.30305"
     x="-93.138313"
     y="108.93875"
     ry="2.7885373"
     transform="matrix(0.70720198,-0.70701157,0.70720198,0.70701157,0,0)" /><path
     inkscape:connector-curvature="0"
     id="path8125"
     d="m 85.357472,98.224466 a 5.9073502,5.9073502 0 0 0 -5.907644,5.907644 l 0,43.68283 a 5.9073502,5.9073502 0 0 0 8.180097,5.45278 c 3.484863,-1.45203 6.668244,-2.48478 9.518993,-3.12164 a 5.9073502,5.9073502 0 0 0 0.05869,-0.0129 c 2.881801,-0.67446 5.499881,-0.98674 7.857291,-0.98674 3.89709,0 6.13771,0.87353 7.6152,2.12938 a 5.9073502,5.9073502 0 0 0 0.0275,0.0239 c 1.5196,1.27572 2.10188,2.40629 2.10188,5.14649 0,2.69138 -0.58032,3.85129 -2.12939,5.17218 -3.7e-4,3.1e-4 -0.002,-3.1e-4 -0.002,0 -1.4775,1.25535 -3.71723,2.12938 -7.61337,2.12938 -2.64883,0 -5.633563,-0.48076 -8.96692,-1.54064 -0.0025,-8.3e-4 -0.0048,-9.4e-4 -0.0073,-0.002 -3.293896,-1.05915 -6.92802,-2.69696 -10.861555,-4.95391 a 5.9073502,5.9073502 0 0 0 -8.847712,5.12264 l 0,15.75678 a 5.9073502,5.9073502 0 0 0 3.682879,5.47113 c 4.594155,1.86754 9.24224,3.26247 13.928175,4.17075 4.704528,0.93967 9.460938,1.41409 14.245468,1.41409 11.10689,0 20.5898,-2.63454 27.63626,-8.48273 7.06686,-5.83659 10.77168,-14.52187 10.77168,-24.25784 0,-9.68109 -3.29287,-18.26976 -9.86563,-24.15512 -4.32277,-3.89303 -9.78105,-6.27414 -15.92918,-7.5345 l 14.27115,0 a 5.9073502,5.9073502 0 0 0 5.90764,-5.90765 l 0,-14.71683 a 5.9073502,5.9073502 0 0 0 -5.90764,-5.907649 l -49.764704,0 z"
     style="font-style:normal;font-variant:normal;font-weight:bold;font-stretch:normal;font-size:113.41008759px;line-height:125%;font-family:sans-serif;-inkscape-font-specification:'sans-serif Bold';letter-spacing:0px;word-spacing:0px;fill:#455c73;fill-opacity:1;stroke:none;stroke-width:1px;stroke-linecap:butt;stroke-linejoin:miter;stroke-opacity:1" /><path
     inkscape:connector-curvature="0"
     id="path8146"
     d="m 185.39041,96.789756 c -11.52744,0 -21.46036,4.297674 -28.06361,12.631474 l 0.002,0 c -6.59479,8.28795 -9.54099,19.59289 -9.54099,33.29262 0,13.67024 2.94992,24.97283 9.53549,33.28713 a 1.0383889,1.0383889 0 0 0 0.002,0.004 c 0.003,0.004 0.007,0.008 0.009,0.011 6.60802,8.29995 16.53556,12.56728 28.05627,12.56727 11.49049,0 21.40028,-4.27154 28.00491,-12.56727 0.003,-0.004 0.007,-0.008 0.009,-0.011 a 1.0383889,1.0383889 0 0 0 0.002,-0.004 c 6.58558,-8.3143 9.5355,-19.61689 9.5355,-33.28713 0,-13.69973 -2.94619,-25.00467 -9.54101,-33.29262 l 0.002,0 c -6.59989,-8.32957 -16.51499,-12.631474 -28.01225,-12.631474 z m 0,24.919954 c 1.37497,0 2.06856,0.1405 2.53289,0.44569 0.46434,0.30518 0.90328,0.91807 1.49663,2.23026 0.008,0.018 0.0174,0.0371 0.0256,0.055 1.05935,2.27861 2.2321,8.77849 2.2321,18.11543 0,9.44538 -1.16309,16.03669 -2.24861,18.41255 -0.61357,1.3429 -1.07203,1.97978 -1.54432,2.29447 -0.47229,0.31469 -1.15058,0.45302 -2.49437,0.45302 -1.3669,0 -2.06246,-0.14145 -2.54207,-0.45853 -0.47961,-0.31706 -0.93691,-0.95151 -1.54798,-2.28896 -1.08553,-2.37586 -2.24861,-8.96717 -2.24861,-18.41255 0,-9.33568 1.17286,-15.83416 2.2321,-18.1136 1.4e-4,-3.1e-4 -1.4e-4,-0.002 0,-0.002 a 1.0383889,1.0383889 0 0 0 0.009,-0.0183 c 0.60707,-1.31725 1.05988,-1.94148 1.54064,-2.25595 0.48076,-0.31445 1.18377,-0.45669 2.55674,-0.45669 z"
     style="font-style:normal;font-variant:normal;font-weight:bold;font-stretch:normal;font-size:113.41008759px;line-height:125%;font-family:sans-serif;-inkscape-font-specification:'sans-serif Bold';letter-spacing:0px;word-spacing:0px;fill:#455c73;fill-opacity:1;stroke:none;stroke-width:1px;stroke-linecap:butt;stroke-linejoin:miter;stroke-opacity:1" /><g
     id="g8109"
     style="fill:#ffffff;fill-opacity:1"><path
       style="font-style:normal;font-variant:normal;font-weight:bold;font-stretch:normal;font-size:medium;line-height:125%;font-family:sans-serif;-inkscape-font-specification:'sans-serif Bold';letter-spacing:0px;word-spacing:0px;fill:#ffffff;fill-opacity:1;stroke:none;stroke-width:1px;stroke-linecap:butt;stroke-linejoin:miter;stroke-opacity:1"
       d="m 85.648653,104.03675 0,43.68282 c 3.744104,-1.56004 7.245149,-2.70542 10.503906,-3.43344 3.258756,-0.76268 6.326111,-1.14265 9.203521,-1.14265 4.85347,0 8.66773,1.17876 11.44114,3.53615 2.80807,2.35741 4.21109,5.58045 4.21109,9.67122 0,4.05612 -1.40302,7.28099 -4.21109,9.67306 -2.77341,2.3574 -6.58767,3.53615 -11.44114,3.53615 -3.36275,0 -6.950904,-0.6079 -10.764342,-1.82126 -3.778771,-1.21337 -7.782089,-3.03339 -12.011538,-5.46013 l 0,15.75678 c 4.264117,1.73338 8.545435,3.01593 12.844219,3.84795 4.333454,0.86669 8.701881,1.30038 13.104661,1.30038 10.19228,0 18.14886,-2.37419 23.86901,-7.12366 5.75483,-4.74946 8.63129,-11.3197 8.63129,-19.70927 0,-8.45889 -2.63367,-15.04582 -7.90315,-19.76062 -5.26947,-4.74946 -12.63667,-7.12365 -22.10094,-7.12365 -1.66404,0 -3.27648,0.12049 -4.83653,0.36316 -1.52537,0.208 -3.0507,0.52121 -4.57608,0.93722 l 0,-12.01338 33.80068,0 0,-14.71683 -49.764707,0 z"
       id="path8099"
       inkscape:connector-curvature="0" /><path
       d="m 197.39929,142.77872 q 0,-14.56041 -2.75608,-20.48857 -2.70408,-5.98016 -9.15225,-5.98016 -6.44818,0 -9.20426,5.98016 -2.75607,5.92816 -2.75607,20.48857 0,14.7164 2.75607,20.74857 2.75608,6.03216 9.20426,6.03216 6.39618,0 9.15225,-6.03216 2.75608,-6.03217 2.75608,-20.74857 z m 20.02054,0.156 q 0,19.29253 -8.32022,29.79682 -8.32023,10.45229 -23.60865,10.45229 -15.34043,0 -23.66065,-10.45229 -8.32023,-10.50429 -8.32023,-29.79682 0,-19.34453 8.32023,-29.79682 8.32022,-10.50429 23.66065,-10.50429 15.28842,0 23.60865,10.50429 8.32022,10.45229 8.32022,29.79682 z"
       style="font-style:normal;font-variant:normal;font-weight:bold;font-stretch:normal;font-size:medium;line-height:125%;font-family:sans-serif;-inkscape-font-specification:'sans-serif Bold';letter-spacing:0px;word-spacing:0px;fill:#ffffff;fill-opacity:1;stroke:none;stroke-width:1px;stroke-linecap:butt;stroke-linejoin:miter;stroke-opacity:1"
       id="path8113"
       inkscape:connector-curvature="0" /></g><circle
     style="opacity:1;fill:#07ff00;fill-opacity:1;fill-rule:nonzero;stroke:#ffffff;stroke-width:16.99967003;stroke-linecap:butt;stroke-linejoin:miter;stroke-miterlimit:4;stroke-dasharray:none;stroke-opacity:1"
     id="path8111"
     cx="243.83224"
     cy="243.83224"
     r="47.667919" /></svg>