<?xml version="1.0" encoding="UTF-8" standalone="no"?>
<!-- Generator: Adobe Illustrator 19.0.0, SVG Export Plug-In . SVG Version: 6.00 Build 0)  -->

<svg
   xmlns:dc="http://purl.org/dc/elements/1.1/"
   xmlns:cc="http://creativecommons.org/ns#"
   xmlns:rdf="http://www.w3.org/1999/02/22-rdf-syntax-ns#"
   xmlns:svg="http://www.w3.org/2000/svg"
   xmlns="http://www.w3.org/2000/svg"
   xmlns:sodipodi="http://sodipodi.sourceforge.net/DTD/sodipodi-0.dtd"
   xmlns:inkscape="http://www.inkscape.org/namespaces/inkscape"
   version="1.1"
   id="Layer_1"
   x="0px"
   y="0px"
   viewBox="0 0 300 300"
   xml:space="preserve"
   inkscape:version="0.91 r13725"
   sodipodi:docname="symbol-mall-contents.svg"
   width="300"
   height="300"><metadata
     id="metadata51"><rdf:RDF><cc:Work
         rdf:about=""><dc:format>image/svg+xml</dc:format><dc:type
           rdf:resource="http://purl.org/dc/dcmitype/StillImage" /><dc:title></dc:title></cc:Work></rdf:RDF></metadata><defs
     id="defs49" /><sodipodi:namedview
     pagecolor="#ffffff"
     bordercolor="#666666"
     borderopacity="1"
     objecttolerance="10"
     gridtolerance="10"
     guidetolerance="10"
     inkscape:pageopacity="0"
     inkscape:pageshadow="2"
     inkscape:window-width="1920"
     inkscape:window-height="1017"
     id="namedview47"
     showgrid="false"
     inkscape:zoom="1.3244222"
     inkscape:cx="-32.476862"
     inkscape:cy="121.14738"
     inkscape:window-x="1912"
     inkscape:window-y="-8"
     inkscape:window-maximized="1"
     inkscape:current-layer="Layer_1"
     showguides="false" /><ellipse
     style="fill:#273640;fill-opacity:0.39215686"
     cx="155.00192"
     cy="155.03639"
     id="circle3-7"
     rx="144.99808"
     ry="144.96361" /><ellipse
     style="fill:#7c9ae8;fill-opacity:1;stroke-width:0.986772"
     cx="145.46373"
     cy="143.77731"
     id="circle3"
     rx="139.72728"
     ry="140.81085" /><path
     style="fill:#506ebb;fill-opacity:1"
     d="M 136.70432,284.65791 61.436016,215.23753 106.38022,187.40634 218.99798,77.146947 285.1949,137.53839 c -8.20229,84.43107 -73.63306,147.58135 -148.49058,147.11952 z"
     id="path5-1-0"
     inkscape:connector-curvature="0"
     sodipodi:nodetypes="cccccc" /><g
     id="g17"
     transform="translate(0,-204)" /><g
     id="g19"
     transform="translate(0,-204)" /><g
     id="g21"
     transform="translate(0,-204)" /><g
     id="g23"
     transform="translate(0,-204)" /><g
     id="g25"
     transform="translate(0,-204)" /><g
     id="g27"
     transform="translate(0,-204)" /><g
     id="g29"
     transform="translate(0,-204)" /><g
     id="g31"
     transform="translate(0,-204)" /><g
     id="g33"
     transform="translate(0,-204)" /><g
     id="g35"
     transform="translate(0,-204)" /><g
     id="g37"
     transform="translate(0,-204)" /><g
     id="g39"
     transform="translate(0,-204)" /><g
     id="g41"
     transform="translate(0,-204)" /><g
     id="g43"
     transform="translate(0,-204)" /><g
     id="g45"
     transform="translate(0,-204)" /><ellipse
     style="fill:none;fill-opacity:1;stroke:#ffffff;stroke-width:9.67279148;stroke-miterlimit:4;stroke-dasharray:none;stroke-opacity:1"
     cx="145.84595"
     cy="145.27644"
     id="circle3-2"
     rx="140.25363"
     ry="140.22029" /><path
     inkscape:connector-curvature="0"
     style="fill:#ffffff;fill-opacity:1"
     d="m 217.68718,75.647389 -153.073119,0 c -1.626867,0 -2.943563,1.318253 -2.943563,2.943866 l 0,52.986845 0,82.42369 c 0,1.62717 1.316696,2.94387 2.943563,2.94387 l 20.60584,0 c 1.62717,0 2.943555,-1.3167 2.943555,-2.94387 l 0,-8.83099 20.605854,0 0,0.0603 5.88743,0 0,-0.0603 23.5497,0 0,0.0603 5.88743,0 0,-0.0603 23.54972,0 0,0.0603 5.88742,0 0,-0.0603 20.60584,0 0,8.83099 c 0,1.62717 1.31671,2.94387 2.94387,2.94387 l 20.60585,0 c 1.62717,0 2.94355,-1.3167 2.94355,-2.94387 l 0,-82.42369 0,-52.986845 c 6.3e-4,-1.625613 -1.31607,-2.943866 -2.94294,-2.943866 z"
     id="path3" /><polygon
     transform="matrix(0.31046923,0,0,0.31046923,61.670498,66.816406)"
     style="fill:#81a4e3"
     points="75.852,199.111 18.963,199.111 18.963,47.407 493.037,47.407 493.037,199.111 436.148,199.111 360.296,199.111 341.333,199.111 265.481,199.111 246.519,199.111 170.667,199.111 151.704,199.111 "
     id="polygon5" /><rect
     id="rect9"
     height="29.437141"
     width="20.605844"
     style="fill:#6db8e0;fill-opacity:1"
     y="134.52167"
     x="173.53131" /><rect
     id="rect11"
     height="29.437141"
     width="20.605844"
     style="fill:#6db8e0;fill-opacity:1"
     y="134.52167"
     x="88.163773" /><polygon
     transform="matrix(0.31046923,0,0,0.31046923,61.670498,66.816406)"
     style="fill:#ffffff;fill-opacity:1"
     points="66.37,322.37 66.37,436.148 66.37,464.593 18.963,464.593 18.963,218.074 66.37,218.074 "
     id="polygon17" /><rect
     id="rect21"
     height="64.674431"
     width="45.271763"
     style="fill:#6db8e0;fill-opacity:1"
     y="134.60895"
     x="88.16375" /><polygon
     transform="matrix(0.31046923,0,0,0.31046923,61.670498,66.816406)"
     style="fill:#ffffff;fill-opacity:1"
     points="445.63,218.074 493.037,218.074 493.037,464.593 445.63,464.593 445.63,436.148 445.63,322.37 "
     id="polygon29" /><g
     transform="scale(0.93457639,1.0700035)"
     style="font-style:normal;font-weight:normal;font-size:36.85670471px;line-height:125%;font-family:sans-serif;letter-spacing:0px;word-spacing:0px;fill:#314e55;fill-opacity:1;stroke:none;stroke-width:1px;stroke-linecap:butt;stroke-linejoin:miter;stroke-opacity:1"
     id="text8131"><path
       d="m 96.666411,85.440408 8.818259,0 6.11878,14.379154 6.15479,-14.379154 8.80025,0 0,26.868682 -6.5507,0 0,-19.65211 -6.19077,14.48713 -4.39113,0 -6.19078,-14.48713 0,19.65211 -6.568699,0 0,-26.868682 z"
       style="font-style:normal;font-variant:normal;font-weight:bold;font-stretch:normal;font-family:sans-serif;-inkscape-font-specification:'sans-serif Bold';fill:#314e55;fill-opacity:1"
       id="path8108" /><path
       d="m 149.68392,107.41406 -10.83386,0 -1.70966,4.89503 -6.96462,0 9.95203,-26.868682 8.26036,0 9.95203,26.868682 -6.96462,0 -1.69166,-4.89503 z m -9.1062,-4.98501 7.36054,0 -3.67127,-10.689889 -3.68927,10.689889 z"
       style="font-style:normal;font-variant:normal;font-weight:bold;font-stretch:normal;font-family:sans-serif;-inkscape-font-specification:'sans-serif Bold';fill:#314e55;fill-opacity:1"
       id="path8110" /><path
       d="m 161.8855,85.440408 6.92863,0 0,21.631722 12.1656,0 0,5.23696 -19.09423,0 0,-26.868682 z"
       style="font-style:normal;font-variant:normal;font-weight:bold;font-stretch:normal;font-family:sans-serif;-inkscape-font-specification:'sans-serif Bold';fill:#314e55;fill-opacity:1"
       id="path8112" /><path
       d="m 185.35286,85.440408 6.92863,0 0,21.631722 12.16559,0 0,5.23696 -19.09422,0 0,-26.868682 z"
       style="font-style:normal;font-variant:normal;font-weight:bold;font-stretch:normal;font-family:sans-serif;-inkscape-font-specification:'sans-serif Bold';fill:#314e55;fill-opacity:1"
       id="path8114" /></g><rect
     id="rect21-6"
     height="64.674431"
     width="45.271763"
     style="fill:#6db8e0;fill-opacity:1"
     y="134.45514"
     x="148.60989" /><circle
     style="opacity:1;fill:#07ff00;fill-opacity:1;fill-rule:nonzero;stroke:#ffffff;stroke-width:16.99967003;stroke-linecap:butt;stroke-linejoin:miter;stroke-miterlimit:4;stroke-dasharray:none;stroke-opacity:1"
     id="path8111"
     cx="243.83224"
     cy="243.83224"
     r="47.667919" /></svg>