<?xml version="1.0" encoding="UTF-8" standalone="no"?>
<!-- Generator: Adobe Illustrator 19.0.0, SVG Export Plug-In . SVG Version: 6.00 Build 0)  -->

<svg
   xmlns:dc="http://purl.org/dc/elements/1.1/"
   xmlns:cc="http://creativecommons.org/ns#"
   xmlns:rdf="http://www.w3.org/1999/02/22-rdf-syntax-ns#"
   xmlns:svg="http://www.w3.org/2000/svg"
   xmlns="http://www.w3.org/2000/svg"
   xmlns:sodipodi="http://sodipodi.sourceforge.net/DTD/sodipodi-0.dtd"
   xmlns:inkscape="http://www.inkscape.org/namespaces/inkscape"
   version="1.1"
   id="Layer_1"
   x="0px"
   y="0px"
   viewBox="0 0 300 300"
   xml:space="preserve"
   inkscape:version="0.91 r13725"
   sodipodi:docname="symbol-veterinary-contents.svg"
   width="300"
   height="300"><metadata
     id="metadata53"><rdf:RDF><cc:Work
         rdf:about=""><dc:format>image/svg+xml</dc:format><dc:type
           rdf:resource="http://purl.org/dc/dcmitype/StillImage" /><dc:title></dc:title></cc:Work></rdf:RDF></metadata><defs
     id="defs51" /><sodipodi:namedview
     pagecolor="#ffffff"
     bordercolor="#666666"
     borderopacity="1"
     objecttolerance="10"
     gridtolerance="10"
     guidetolerance="10"
     inkscape:pageopacity="0"
     inkscape:pageshadow="2"
     inkscape:window-width="1920"
     inkscape:window-height="1017"
     id="namedview49"
     showgrid="false"
     inkscape:zoom="0.921875"
     inkscape:cx="118.16821"
     inkscape:cy="148.0943"
     inkscape:window-x="1912"
     inkscape:window-y="-8"
     inkscape:window-maximized="1"
     inkscape:current-layer="Layer_1" /><circle
     style="fill:#273640;fill-opacity:0.39215687"
     cx="155"
     cy="155"
     id="circle3-7"
     r="145" /><ellipse
     style="fill:#7c9ae8;fill-opacity:1;stroke-width:0.96258771"
     cx="144.45761"
     cy="145.54236"
     id="circle3"
     rx="140.11865"
     ry="139.03391" /><path
     style="fill:#506ebb;fill-opacity:1"
     d="M 219.33598,91.024348 74.955093,184.55333 53.661296,188.23015 150.17544,284.0089 c 73.5214,6.40855 126.27301,-54.15197 133.9216,-125.98641 z"
     id="path5"
     inkscape:connector-curvature="0"
     sodipodi:nodetypes="cccccc" /><g
     id="g19"
     transform="translate(0,-212)" /><g
     id="g21"
     transform="translate(0,-212)" /><g
     id="g23"
     transform="translate(0,-212)" /><g
     id="g25"
     transform="translate(0,-212)" /><g
     id="g27"
     transform="translate(0,-212)" /><g
     id="g29"
     transform="translate(0,-212)" /><g
     id="g31"
     transform="translate(0,-212)" /><g
     id="g33"
     transform="translate(0,-212)" /><g
     id="g35"
     transform="translate(0,-212)" /><g
     id="g37"
     transform="translate(0,-212)" /><g
     id="g39"
     transform="translate(0,-212)" /><g
     id="g41"
     transform="translate(0,-212)" /><g
     id="g43"
     transform="translate(0,-212)" /><g
     id="g45"
     transform="translate(0,-212)" /><g
     id="g47"
     transform="translate(0,-212)" /><circle
     style="fill:none;fill-opacity:1;stroke:#ffffff;stroke-width:9.74689293;stroke-miterlimit:4;stroke-dasharray:none;stroke-opacity:1"
     cx="144.33051"
     cy="144.33051"
     id="circle3-4"
     r="141.32994" /><g
     transform="matrix(0.5322996,0,0,0.5322996,6.0052537,4.6564176)"
     id="g4567"><path
       inkscape:connector-curvature="0"
       id="path4"
       d="m 395.8,209.8 c 0,86.2 -63.8,197.5 -142.5,197.5 -78.7,0 -142.4,-111.3 -142.4,-197.5 0,-86.2 63.8,-114.6 142.5,-114.6 78.7,0 142.4,28.4 142.4,114.6 z"
       style="fill:#fd8469" /><path
       inkscape:connector-curvature="0"
       id="path6"
       d="m 150.1,356.1 c 28.8,31.5 64.5,52.4 103.3,52.4 38.7,0 74.5,-21 103.3,-52.4 z"
       style="fill:#ced5e0" /><path
       inkscape:connector-curvature="0"
       id="path8"
       d="M 335.9,310.7 C 321.2,299.2 295.9,283 293,264.5 284.6,211.3 278.4,152.9 253.3,152.9 c -25.1,0 -31.2,58.3 -39.7,111.6 -2.9,18.4 -28.2,34.7 -42.9,46.2 -12.3,9.6 -20.5,24.3 -21.3,40.6 -1.5,31.4 23.5,57.3 54.6,57.3 9.8,0 18.9,-2.6 26.8,-7 14,-7.9 30.9,-7.9 44.8,0 7.9,4.5 17.1,7 26.8,7 31.1,0 56.1,-25.9 54.6,-57.3 -0.6,-16.4 -8.8,-31.1 -21.1,-40.6 z"
       style="fill:#ffffff" /><g
       id="g16"><path
         inkscape:connector-curvature="0"
         id="path10"
         d="m 295,314.6 c 0,15.2 -18.6,38 -41.7,38 -23,0 -41.7,-22.7 -41.7,-38 0,-15.2 18.6,-17.1 41.7,-17.1 23,0 41.7,1.9 41.7,17.1 z"
         style="fill:#324a5e" /><path
         inkscape:connector-curvature="0"
         id="path12"
         d="m 356,121.7 c 0,0 50.7,85.6 6.9,184.1 -5.8,13.1 -6.4,28.3 0.2,41 5.6,10.6 15.4,18.9 32.6,12.4 14.2,-5.4 24.5,-17.9 28.4,-32.6 11,-41.7 25.9,-144.4 -68.1,-204.9 z"
         style="fill:#324a5e" /><path
         inkscape:connector-curvature="0"
         id="path14"
         d="m 149,121.7 c 0,0 -50.7,85.6 -6.9,184.1 5.8,13.1 6.4,28.3 -0.2,41 -5.6,10.6 -15.4,18.9 -32.6,12.4 C 95.1,353.8 84.8,341.3 80.9,326.6 69.9,284.9 55,182.2 149,121.7 Z"
         style="fill:#324a5e" /></g><path
       inkscape:connector-curvature="0"
       id="path18"
       d="m 304.3,219.9 c 1.6,12.8 11.6,22.8 22.3,22.2 10.7,-0.5 18.1,-11.4 16.5,-24.2 -1.6,-12.8 -11.6,-22.8 -22.3,-22.2 -10.7,0.5 -18.1,11.4 -16.5,24.2 z"
       style="fill:#ffffff" /><path
       inkscape:connector-curvature="0"
       id="path20"
       d="m 307.5,223.4 c 1,8.3 8.7,14.7 17.1,14.3 8.4,-0.4 14.4,-7.5 13.3,-15.9 -1,-8.3 -8.7,-14.7 -17.1,-14.3 -8.4,0.5 -14.4,7.6 -13.3,15.9 z"
       style="fill:#f9b54c" /><path
       inkscape:connector-curvature="0"
       id="path22"
       d="m 315,223 c 0.5,4.2 4.4,7.5 8.7,7.3 4.3,-0.2 7.3,-3.8 6.8,-8 -0.5,-4.2 -4.4,-7.5 -8.7,-7.3 -4.3,0.2 -7.3,3.8 -6.8,8 z"
       style="fill:#2b3b4e" /><path
       inkscape:connector-curvature="0"
       id="path24"
       d="m 316.8,213.3 c -1.1,1.9 -0.1,4 2.4,4.6 2.5,0.6 5.4,-0.5 6.6,-2.4 1.1,-1.9 0.1,-4 -2.4,-4.6 -2.5,-0.6 -5.5,0.5 -6.6,2.4 z"
       style="fill:#ffffff" /><path
       inkscape:connector-curvature="0"
       id="path26"
       d="m 302.6,187.1 c 0,0 3,-1.3 7.1,-2.3 1,-0.3 2.1,-0.4 3.2,-0.7 1.2,-0.1 2.3,-0.4 3.5,-0.4 1.2,-0.1 2.4,-0.1 3.7,0 1.2,0 2.5,0.3 3.7,0.4 1.2,0.3 2.5,0.5 3.7,0.9 1.2,0.5 2.5,0.6 3.6,1.2 1.2,0.5 2.4,0.9 3.5,1.4 1.1,0.5 2.1,1 3.1,1.4 2,0.8 3.6,1.8 4.9,2.3 1.3,0.5 2,0.8 2,0.8 0,0 -0.3,-0.7 -1,-1.9 -0.3,-0.6 -0.8,-1.3 -1.3,-2.1 -0.5,-0.8 -1.1,-1.7 -2,-2.6 -0.8,-0.9 -1.7,-1.8 -2.7,-2.8 -1,-0.9 -2.3,-1.7 -3.5,-2.6 -1.2,-0.9 -2.8,-1.5 -4.3,-2.2 -1.5,-0.7 -3.2,-1 -4.8,-1.4 -1.7,-0.2 -3.4,-0.4 -5.1,-0.3 -1.7,0.1 -3.3,0.3 -4.9,0.8 -1.6,0.3 -2.9,1.1 -4.2,1.6 -1.2,0.7 -2.4,1.4 -3.3,2.2 -1.9,1.5 -3.2,3.2 -4,4.3 -0.6,1.2 -0.9,2 -0.9,2 z"
       style="fill:#324a5e" /><path
       inkscape:connector-curvature="0"
       id="path28"
       d="m 202.4,219.9 c -1.6,12.8 -11.6,22.8 -22.3,22.2 -10.7,-0.5 -18.1,-11.4 -16.5,-24.2 1.6,-12.8 11.6,-22.8 22.3,-22.2 10.7,0.5 18.1,11.4 16.5,24.2 z"
       style="fill:#ffffff" /><path
       inkscape:connector-curvature="0"
       id="path30"
       d="m 199.2,223.4 c -1,8.3 -8.7,14.7 -17.1,14.3 -8.4,-0.4 -14.4,-7.5 -13.3,-15.9 1,-8.3 8.7,-14.7 17.1,-14.3 8.4,0.5 14.3,7.6 13.3,15.9 z"
       style="fill:#f9b54c" /><path
       inkscape:connector-curvature="0"
       id="path32"
       d="m 191.7,223 c -0.5,4.2 -4.4,7.5 -8.7,7.3 -4.3,-0.2 -7.3,-3.8 -6.8,-8 0.5,-4.2 4.4,-7.5 8.7,-7.3 4.3,0.2 7.3,3.8 6.8,8 z"
       style="fill:#2b3b4e" /><path
       inkscape:connector-curvature="0"
       id="path34"
       d="m 189.9,213.3 c 1.1,1.9 0.1,4 -2.4,4.6 -2.5,0.6 -5.4,-0.5 -6.6,-2.4 -1.1,-1.9 -0.1,-4 2.4,-4.6 2.5,-0.6 5.5,0.5 6.6,2.4 z"
       style="fill:#ffffff" /><path
       inkscape:connector-curvature="0"
       id="path36"
       d="m 204,187.1 c 0,0 -3,-1.3 -7.1,-2.3 -1,-0.3 -2.1,-0.4 -3.2,-0.7 -1.2,-0.1 -2.3,-0.4 -3.5,-0.4 -1.2,-0.1 -2.4,-0.1 -3.7,0 -1.2,0 -2.5,0.3 -3.7,0.4 -1.2,0.3 -2.5,0.5 -3.7,0.9 -1.2,0.5 -2.5,0.6 -3.6,1.2 -1.2,0.5 -2.4,0.9 -3.5,1.4 -1.1,0.5 -2.1,1 -3.1,1.4 -2,0.8 -3.6,1.8 -4.9,2.3 -1.3,0.5 -2,0.8 -2,0.8 0,0 0.3,-0.7 1,-1.9 0.3,-0.6 0.8,-1.3 1.3,-2.1 0.5,-0.8 1.1,-1.7 2,-2.6 0.8,-0.9 1.7,-1.8 2.7,-2.8 1,-0.9 2.3,-1.7 3.5,-2.6 1.2,-0.9 2.8,-1.5 4.3,-2.2 1.5,-0.7 3.2,-1 4.8,-1.4 1.7,-0.2 3.4,-0.4 5.1,-0.3 1.7,0.1 3.3,0.3 4.9,0.8 1.6,0.3 2.9,1.1 4.2,1.6 1.2,0.7 2.4,1.4 3.3,2.2 1.9,1.5 3.2,3.2 4,4.3 0.7,1.2 0.9,2 0.9,2 z"
       style="fill:#324a5e" /></g><circle
     style="opacity:1;fill:#07ff00;fill-opacity:1;fill-rule:nonzero;stroke:#ffffff;stroke-width:16.99967003;stroke-linecap:butt;stroke-linejoin:miter;stroke-miterlimit:4;stroke-dasharray:none;stroke-opacity:1"
     id="path8111"
     cx="243.83224"
     cy="243.83224"
     r="47.667919" /></svg>