<?xml version="1.0" encoding="UTF-8" standalone="no"?>
<!-- Generator: Adobe Illustrator 19.0.0, SVG Export Plug-In . SVG Version: 6.00 Build 0)  -->

<svg
   xmlns:dc="http://purl.org/dc/elements/1.1/"
   xmlns:cc="http://creativecommons.org/ns#"
   xmlns:rdf="http://www.w3.org/1999/02/22-rdf-syntax-ns#"
   xmlns:svg="http://www.w3.org/2000/svg"
   xmlns="http://www.w3.org/2000/svg"
   xmlns:sodipodi="http://sodipodi.sourceforge.net/DTD/sodipodi-0.dtd"
   xmlns:inkscape="http://www.inkscape.org/namespaces/inkscape"
   version="1.1"
   id="Layer_1"
   x="0px"
   y="0px"
   viewBox="0 0 300 300"
   xml:space="preserve"
   inkscape:version="0.91 r13725"
   sodipodi:docname="symbol-hospital-contents.svg"
   width="300"
   height="300"><metadata
     id="metadata115"><rdf:RDF><cc:Work
         rdf:about=""><dc:format>image/svg+xml</dc:format><dc:type
           rdf:resource="http://purl.org/dc/dcmitype/StillImage" /><dc:title></dc:title></cc:Work></rdf:RDF></metadata><defs
     id="defs113" /><sodipodi:namedview
     pagecolor="#ffffff"
     bordercolor="#666666"
     borderopacity="1"
     objecttolerance="10"
     gridtolerance="10"
     guidetolerance="10"
     inkscape:pageopacity="0"
     inkscape:pageshadow="2"
     inkscape:window-width="1920"
     inkscape:window-height="1017"
     id="namedview111"
     showgrid="false"
     inkscape:zoom="1.3139937"
     inkscape:cx="-78.11903"
     inkscape:cy="221.16741"
     inkscape:window-x="1912"
     inkscape:window-y="-8"
     inkscape:window-maximized="1"
     inkscape:current-layer="Layer_1" /><ellipse
     style="fill:#273640;fill-opacity:0.39215686;stroke:none"
     cx="155"
     cy="155.07564"
     id="circle3-8"
     rx="145"
     ry="144.92436" /><ellipse
     style="fill:#7c9ae8;fill-opacity:1;stroke-width:0.97111797"
     cx="143.80658"
     cy="143.72876"
     id="circle3"
     rx="140.8121"
     ry="140.73865" /><path
     style="fill:#506ebb;fill-opacity:1"
     d="M 72.047521,224.32717 108.25356,177.9886 206.95949,78.736966 283.24893,162.27821 C 269.86244,241.04283 206.47431,286.65811 128.0204,284.5485 108.22362,264.32045 98.543072,256.40649 72.047521,224.32717 Z"
     id="path5-2"
     inkscape:connector-curvature="0"
     sodipodi:nodetypes="cccccc" /><rect
     x="71.457191"
     y="79.177261"
     style="fill:#ffffff;fill-opacity:1"
     width="136.43701"
     height="145.38083"
     id="rect5" /><rect
     x="113.35876"
     y="193.6329"
     style="fill:#677b83"
     width="52.519684"
     height="30.810692"
     id="rect7" /><rect
     x="101.02805"
     y="186.55786"
     style="fill:#e65336"
     width="77.295273"
     height="7.0750475"
     id="rect9" /><g
     id="g11"
     transform="matrix(0.57086614,0,0,0.57056837,-5.381356,-5.3811314)"><rect
       x="153.39999"
       y="165.8"
       style="fill:#6db8e0"
       width="18.200001"
       height="30.200001"
       id="rect13" /><rect
       x="190"
       y="165.8"
       style="fill:#6db8e0"
       width="18.200001"
       height="30.200001"
       id="rect15" /><rect
       x="226.60001"
       y="165.8"
       style="fill:#6db8e0"
       width="18.200001"
       height="30.200001"
       id="rect17" /><rect
       x="263.20001"
       y="165.8"
       style="fill:#6db8e0"
       width="18.200001"
       height="30.200001"
       id="rect19" /><rect
       x="299.79999"
       y="165.8"
       style="fill:#6db8e0"
       width="18.200001"
       height="30.200001"
       id="rect21" /><rect
       x="336.39999"
       y="165.8"
       style="fill:#6db8e0"
       width="18.200001"
       height="30.200001"
       id="rect23" /><rect
       x="153.39999"
       y="208.2"
       style="fill:#6db8e0"
       width="18.200001"
       height="30.200001"
       id="rect25" /><rect
       x="190"
       y="208.2"
       style="fill:#6db8e0"
       width="18.200001"
       height="30.200001"
       id="rect27" /><rect
       x="226.60001"
       y="208.2"
       style="fill:#6db8e0"
       width="18.200001"
       height="30.200001"
       id="rect29" /><rect
       x="263.20001"
       y="208.2"
       style="fill:#6db8e0"
       width="18.200001"
       height="30.200001"
       id="rect31" /><rect
       x="299.79999"
       y="208.2"
       style="fill:#6db8e0"
       width="18.200001"
       height="30.200001"
       id="rect33" /><rect
       x="336.39999"
       y="208.2"
       style="fill:#6db8e0"
       width="18.200001"
       height="30.200001"
       id="rect35" /><rect
       x="153.39999"
       y="250.60001"
       style="fill:#6db8e0"
       width="18.200001"
       height="30.200001"
       id="rect37" /><rect
       x="190"
       y="250.60001"
       style="fill:#6db8e0"
       width="18.200001"
       height="30.200001"
       id="rect39" /><rect
       x="226.60001"
       y="250.60001"
       style="fill:#6db8e0"
       width="18.200001"
       height="30.200001"
       id="rect41" /><rect
       x="263.20001"
       y="250.60001"
       style="fill:#6db8e0"
       width="18.200001"
       height="30.200001"
       id="rect43" /><rect
       x="299.79999"
       y="250.60001"
       style="fill:#6db8e0"
       width="18.200001"
       height="30.200001"
       id="rect45" /><rect
       x="336.39999"
       y="250.60001"
       style="fill:#6db8e0"
       width="18.200001"
       height="30.200001"
       id="rect47" /><rect
       x="153.39999"
       y="293"
       style="fill:#6db8e0"
       width="18.200001"
       height="30.200001"
       id="rect49" /><rect
       x="190"
       y="293"
       style="fill:#6db8e0"
       width="18.200001"
       height="30.200001"
       id="rect51" /><rect
       x="226.60001"
       y="293"
       style="fill:#6db8e0"
       width="18.200001"
       height="30.200001"
       id="rect53" /><rect
       x="263.20001"
       y="293"
       style="fill:#6db8e0"
       width="18.200001"
       height="30.200001"
       id="rect55" /><rect
       x="299.79999"
       y="293"
       style="fill:#6db8e0"
       width="18.200001"
       height="30.200001"
       id="rect57" /><rect
       x="336.39999"
       y="293"
       style="fill:#6db8e0"
       width="18.200001"
       height="30.200001"
       id="rect59" /></g><rect
     x="91.209152"
     y="54.528618"
     style="fill:#ffffff;fill-opacity:1"
     width="96.818901"
     height="24.648554"
     id="rect61" /><g
     id="g63"
     transform="matrix(0.57086614,0,0,0.57056837,-5.381356,-5.3811314)"><path
       style="fill:#e15d4a"
       d="m 187.4,115.6 0,8.4 8.2,0 0,-8.4 5,0 0,22.2 -5,0 0,-9.2 -8.2,0 0,9.2 -5,0 0,-22.2 5,0 z"
       id="path65"
       inkscape:connector-curvature="0" /><path
       style="fill:#e15d4a"
       d="m 225.2,126.4 c 0,7.2 -4.4,11.6 -10.8,11.6 -6.6,0 -10.4,-5 -10.4,-11.2 0,-6.6 4.2,-11.6 10.8,-11.6 6.8,0 10.4,5.2 10.4,11.2 z m -16,0.4 c 0,4.4 2,7.4 5.4,7.4 3.4,0 5.4,-3.2 5.4,-7.6 0,-4 -2,-7.4 -5.4,-7.4 -3.4,0 -5.4,3.2 -5.4,7.6 z"
       id="path67"
       inkscape:connector-curvature="0" /><path
       style="fill:#e15d4a"
       d="m 228.6,132.6 c 1.4,0.6 3.4,1.4 5.6,1.4 2.2,0 3.6,-1 3.6,-2.4 0,-1.4 -1,-2.2 -3.8,-3.2 -3.6,-1.2 -6,-3.4 -6,-6.6 0,-3.8 3.2,-6.6 8.4,-6.6 2.4,0 4.4,0.6 5.6,1.2 l -1.2,4 c -0.8,-0.4 -2.4,-1 -4.6,-1 -2.2,0 -3.2,1 -3.2,2.2 0,1.4 1.2,2 4,3.2 4,1.4 5.8,3.4 5.8,6.6 0,3.8 -2.8,6.8 -9,6.8 -2.6,0 -5,-0.6 -6.2,-1.4 l 1,-4.2 z"
       id="path69"
       inkscape:connector-curvature="0" /><path
       style="fill:#e15d4a"
       d="m 246.2,116 c 1.6,-0.2 3.8,-0.4 6.8,-0.4 3,0 5.2,0.6 6.8,1.8 1.4,1.2 2.4,3 2.4,5.2 0,2.2 -0.8,4 -2,5.2 -1.8,1.6 -4.2,2.4 -7.2,2.4 -0.6,0 -1.2,0 -1.8,0 l 0,8 -5,0 0,-22.2 0,0 z m 5,10 c 0.4,0 1,0.2 1.6,0.2 2.6,0 4.2,-1.4 4.2,-3.6 0,-2 -1.4,-3.2 -4,-3.2 -1,0 -1.8,0 -2,0.2 l 0,6.4 0.2,0 z"
       id="path71"
       inkscape:connector-curvature="0" /><path
       style="fill:#e15d4a"
       d="m 270.4,115.6 0,22.2 -5,0 0,-22.2 5,0 z"
       id="path73"
       inkscape:connector-curvature="0" /><path
       style="fill:#e15d4a"
       d="m 279,119.8 -6,0 0,-4.2 17,0 0,4.2 -6,0 0,18 -5,0 0,-18 z"
       id="path75"
       inkscape:connector-curvature="0" /><path
       style="fill:#e15d4a"
       d="m 295.4,132 -1.6,5.6 -5.2,0 6.8,-22.2 6.6,0 6.8,22.2 -5.4,0 -1.8,-5.6 -6.2,0 z m 5.6,-3.6 -1.4,-4.6 c -0.4,-1.4 -0.8,-3 -1.2,-4.2 l 0,0 c -0.4,1.4 -0.6,3 -1,4.2 l -1.4,4.6 5,0 z"
       id="path77"
       inkscape:connector-curvature="0" /><path
       style="fill:#e15d4a"
       d="m 311.8,115.6 5,0 0,18 8.8,0 0,4.2 -13.8,0 0,-22.2 z"
       id="path79"
       inkscape:connector-curvature="0" /></g><g
     id="g81"
     transform="translate(0,-208)" /><g
     id="g83"
     transform="translate(0,-208)" /><g
     id="g85"
     transform="translate(0,-208)" /><g
     id="g87"
     transform="translate(0,-208)" /><g
     id="g89"
     transform="translate(0,-208)" /><g
     id="g91"
     transform="translate(0,-208)" /><g
     id="g93"
     transform="translate(0,-208)" /><g
     id="g95"
     transform="translate(0,-208)" /><g
     id="g97"
     transform="translate(0,-208)" /><g
     id="g99"
     transform="translate(0,-208)" /><g
     id="g101"
     transform="translate(0,-208)" /><g
     id="g103"
     transform="translate(0,-208)" /><g
     id="g105"
     transform="translate(0,-208)" /><g
     id="g107"
     transform="translate(0,-208)" /><g
     id="g109"
     transform="translate(0,-208)" /><ellipse
     style="fill:none;fill-opacity:1;stroke:#ffffff;stroke-width:9.69543076;stroke-miterlimit:4;stroke-dasharray:none;stroke-opacity:1"
     cx="145.14909"
     cy="145.07115"
     id="circle3-80"
     rx="140.58376"
     ry="140.51042" /><circle
     style="opacity:1;fill:#07ff00;fill-opacity:1;fill-rule:nonzero;stroke:#ffffff;stroke-width:16.99967003;stroke-linecap:butt;stroke-linejoin:miter;stroke-miterlimit:4;stroke-dasharray:none;stroke-opacity:1"
     id="path8111"
     cx="243.83224"
     cy="243.83224"
     r="47.667919" /></svg>