<?xml version="1.0" encoding="UTF-8" standalone="no"?>
<!-- Generator: Adobe Illustrator 19.0.0, SVG Export Plug-In . SVG Version: 6.00 Build 0)  -->

<svg
   xmlns:dc="http://purl.org/dc/elements/1.1/"
   xmlns:cc="http://creativecommons.org/ns#"
   xmlns:rdf="http://www.w3.org/1999/02/22-rdf-syntax-ns#"
   xmlns:svg="http://www.w3.org/2000/svg"
   xmlns="http://www.w3.org/2000/svg"
   xmlns:sodipodi="http://sodipodi.sourceforge.net/DTD/sodipodi-0.dtd"
   xmlns:inkscape="http://www.inkscape.org/namespaces/inkscape"
   version="1.1"
   id="Layer_1"
   x="0px"
   y="0px"
   viewBox="0 0 300.00001 300.00001"
   xml:space="preserve"
   inkscape:version="0.91 r13725"
   sodipodi:docname="symbol-fast-food-contents.svg"
   width="300"
   height="300"><metadata
     id="metadata75"><rdf:RDF><cc:Work
         rdf:about=""><dc:format>image/svg+xml</dc:format><dc:type
           rdf:resource="http://purl.org/dc/dcmitype/StillImage" /><dc:title></dc:title></cc:Work></rdf:RDF></metadata><defs
     id="defs73" /><sodipodi:namedview
     pagecolor="#ffffff"
     bordercolor="#666666"
     borderopacity="1"
     objecttolerance="10"
     gridtolerance="10"
     guidetolerance="10"
     inkscape:pageopacity="0"
     inkscape:pageshadow="2"
     inkscape:window-width="1920"
     inkscape:window-height="1017"
     id="namedview71"
     showgrid="false"
     inkscape:zoom="1.8535718"
     inkscape:cx="-62.676489"
     inkscape:cy="178.42337"
     inkscape:window-x="1912"
     inkscape:window-y="-8"
     inkscape:window-maximized="1"
     inkscape:current-layer="Layer_1" /><ellipse
     style="fill:#273640;fill-opacity:0.39215686;stroke:none"
     cx="155.38876"
     cy="155.41818"
     id="circle3-7"
     rx="144.61124"
     ry="144.58182" /><ellipse
     style="fill:#748993;fill-opacity:1;stroke-width:0.97574562"
     cx="142.72365"
     cy="143.23302"
     id="circle3"
     rx="141.10378"
     ry="141.07507" /><path
     inkscape:connector-curvature="0"
     id="path11-6"
     d="M 219.02567,69.197552 85.896269,228.96707 147.3952,285.1445 C 208.66842,279.32988 278.539,237.98493 284.605,143.41913 249.1544,100.60109 233.09449,84.42502 219.02567,69.197552 Z"
     style="fill:#414d53;fill-opacity:1"
     sodipodi:nodetypes="ccccc" /><polygon
     style="fill:#f8b517"
     points="158.347,269.224 197.679,277.022 235.656,66.119 195.984,58.321 "
     id="polygon5"
     transform="matrix(0.42690547,0,0,0.46168188,32.9421,20.323933)" /><polygon
     style="fill:#fbd303"
     points="245.489,272.954 283.804,285.499 348.906,79.343 310.93,66.797 "
     id="polygon7"
     transform="matrix(0.42690547,0,0,0.46168188,32.9421,20.323933)" /><rect
     x="136.43973"
     y="58.364223"
     style="fill:#f8b517"
     width="17.225636"
     height="100.03168"
     id="rect9" /><rect
     x="-81.071274"
     y="-190.20361"
     transform="matrix(-0.93618023,0.35152038,-0.30568001,-0.9521343,0,0)"
     style="fill:#fbd303"
     width="17.382832"
     height="99.252464"
     id="rect11" /><rect
     id="rect15"
     height="99.955528"
     width="17.239418"
     style="fill:#f8b517"
     transform="matrix(0.99417988,0.10773285,-0.09225816,0.99573512,0,0)"
     y="41.826946"
     x="179.14828" /><rect
     id="rect17"
     height="99.422997"
     width="17.348061"
     style="fill:#f8b517"
     transform="matrix(0.9503458,-0.31119587,0.26961377,0.96296854,0,0)"
     y="83.070259"
     x="43.435902" /><polygon
     style="fill:#fbd303"
     points="320.763,290.585 358.061,305.844 437.065,104.773 399.767,89.515 "
     id="polygon19"
     transform="matrix(0.42690547,0,0,0.46168188,32.9421,20.323933)" /><g
     id="g21"
     transform="matrix(0.42690547,0,0,0.46168188,32.9421,20.323933)"><polygon
       style="fill:#f0582f"
       points="161.06,450.967 125.118,450.967 84.768,197.679 132.238,197.679 "
       id="polygon23" /><polygon
       style="fill:#f0582f"
       points="376.71,450.967 340.768,450.967 369.589,197.679 417.06,197.679 "
       id="polygon25" /></g><path
     inkscape:connector-curvature="0"
     style="fill:#fcfcfd"
     d="m 186.08973,111.58873 c -2.17124,7.51388 -8.2508,13.93218 -16.79105,18.47236 l -6.22427,98.46612 15.34383,0 12.30385,-116.93801 -4.63236,-4.7e-4 0,0 z"
     id="path27" /><path
     inkscape:connector-curvature="0"
     style="fill:#f0582f"
     d="m 149.61237,136.32288 -1.8818,92.20433 15.34384,0 6.22427,-98.46612 c -5.64539,2.97416 -12.30426,5.16576 -19.68631,6.26179 z"
     id="path29" /><path
     inkscape:connector-curvature="0"
     style="fill:#fcfcfd"
     d="m 140.05865,136.94892 c -3.32944,0 -6.51373,-0.15651 -9.55372,-0.62604 l 1.8818,92.20433 15.34384,0 1.8818,-92.20433 c -3.04,0.46953 -6.22429,0.62604 -9.55372,0.62604 z"
     id="path31" /><path
     inkscape:connector-curvature="0"
     style="fill:#f0582f"
     d="m 110.81861,130.06109 6.22429,98.46612 15.34383,0 -1.8818,-92.20433 c -7.38248,-1.09603 -14.04092,-3.28763 -19.68632,-6.26179 z"
     id="path33" /><path
     inkscape:connector-curvature="0"
     style="fill:#fcfcfd"
     d="m 94.027576,111.58873 -4.776645,0 12.303829,116.93802 15.34384,0 -6.22428,-98.46612 c -8.39595,-4.53926 -14.475502,-11.11407 -16.646744,-18.4719 z"
     id="path35" /><ellipse
     style="fill:#f0582f"
     cx="140.05859"
     cy="181.40746"
     rx="47.189278"
     ry="33.18708"
     id="ellipse37" /><ellipse
     style="fill:#fcfcfd"
     cx="140.05859"
     cy="181.40746"
     rx="35.319599"
     ry="24.734146"
     id="ellipse39" /><g
     id="g41"
     transform="translate(0,-209.28698)" /><g
     id="g43"
     transform="translate(0,-209.28698)" /><g
     id="g45"
     transform="translate(0,-209.28698)" /><g
     id="g47"
     transform="translate(0,-209.28698)" /><g
     id="g49"
     transform="translate(0,-209.28698)" /><g
     id="g51"
     transform="translate(0,-209.28698)" /><g
     id="g53"
     transform="translate(0,-209.28698)" /><g
     id="g55"
     transform="translate(0,-209.28698)" /><g
     id="g57"
     transform="translate(0,-209.28698)" /><g
     id="g59"
     transform="translate(0,-209.28698)" /><g
     id="g61"
     transform="translate(0,-209.28698)" /><g
     id="g63"
     transform="translate(0,-209.28698)" /><g
     id="g65"
     transform="translate(0,-209.28698)" /><g
     id="g67"
     transform="translate(0,-209.28698)" /><g
     id="g69"
     transform="translate(0,-209.28698)" /><ellipse
     style="fill:none;fill-opacity:1;stroke:#ffffff;stroke-width:9.71146297;stroke-miterlimit:4;stroke-dasharray:none;stroke-opacity:1"
     cx="144.27005"
     cy="144.7793"
     id="circle3-3"
     rx="140.43866"
     ry="140.4101" /><circle
     style="opacity:1;fill:#07ff00;fill-opacity:1;fill-rule:nonzero;stroke:#ffffff;stroke-width:16.99967003;stroke-linecap:butt;stroke-linejoin:miter;stroke-miterlimit:4;stroke-dasharray:none;stroke-opacity:1"
     id="path8111"
     cx="243.83224"
     cy="243.83224"
     r="47.667919" /></svg>