<?xml version="1.0" encoding="UTF-8" standalone="no"?>
<!-- Generator: Adobe Illustrator 19.0.0, SVG Export Plug-In . SVG Version: 6.00 Build 0)  -->

<svg
   xmlns:dc="http://purl.org/dc/elements/1.1/"
   xmlns:cc="http://creativecommons.org/ns#"
   xmlns:rdf="http://www.w3.org/1999/02/22-rdf-syntax-ns#"
   xmlns:svg="http://www.w3.org/2000/svg"
   xmlns="http://www.w3.org/2000/svg"
   xmlns:sodipodi="http://sodipodi.sourceforge.net/DTD/sodipodi-0.dtd"
   xmlns:inkscape="http://www.inkscape.org/namespaces/inkscape"
   version="1.1"
   id="Layer_1"
   x="0px"
   y="0px"
   viewBox="0 0 300 300"
   xml:space="preserve"
   inkscape:version="0.91 r13725"
   sodipodi:docname="symbol-doctors.svg"
   width="300"
   height="300"><metadata
     id="metadata51"><rdf:RDF><cc:Work
         rdf:about=""><dc:format>image/svg+xml</dc:format><dc:type
           rdf:resource="http://purl.org/dc/dcmitype/StillImage" /><dc:title /></cc:Work></rdf:RDF></metadata><defs
     id="defs49" /><sodipodi:namedview
     pagecolor="#ffffff"
     bordercolor="#666666"
     borderopacity="1"
     objecttolerance="10"
     gridtolerance="10"
     guidetolerance="10"
     inkscape:pageopacity="0"
     inkscape:pageshadow="2"
     inkscape:window-width="1920"
     inkscape:window-height="1017"
     id="namedview47"
     showgrid="false"
     inkscape:zoom="1.8730158"
     inkscape:cx="-26.508626"
     inkscape:cy="138.31112"
     inkscape:window-x="1912"
     inkscape:window-y="-8"
     inkscape:window-maximized="1"
     inkscape:current-layer="Layer_1" /><ellipse
     style="fill:#273640;fill-opacity:0.39215686"
     cx="155.00192"
     cy="155.03639"
     id="circle3-7"
     rx="144.99808"
     ry="144.96361" /><ellipse
     style="fill:#7c9ae8;fill-opacity:1"
     cx="144.73215"
     cy="144.16269"
     id="circle3"
     rx="140.45886"
     ry="140.42548" /><path
     style="fill:#2c424f"
     d="m 168.04181,92.914362 0,-6.672928 c 0,-5.867575 -4.83327,-10.699695 -10.70224,-10.699695 l -34.40827,0 c -5.86897,0 -10.70224,4.83212 -10.70224,10.699695 l 0,6.672928 -5.1785,0 0,-6.672928 c 0,-8.743837 7.13482,-15.876967 15.88074,-15.876967 l 34.40827,0 c 8.74592,0 15.88075,7.13313 15.88075,15.876967 l 0,6.672928 -5.17851,0 z"
     id="path5"
     inkscape:connector-curvature="0" /><path
     style="fill:#506ebb;fill-opacity:1"
     d="M 136.70432,284.65791 56.630931,205.62736 106.38022,187.40634 222.73527,92.0961 285.1949,149.28415 c -8.20229,84.43107 -73.63306,135.83559 -148.49058,135.37376 z"
     id="path5-1-0"
     inkscape:connector-curvature="0"
     sodipodi:nodetypes="cccccc" /><path
     style="fill:#ffffff;fill-opacity:1"
     d="m 62.17022,208.77018 156.04553,0 c 4.02772,0 7.36498,-3.33647 7.36498,-7.36323 l 0,-103.54543 c 0,-4.026754 -3.33726,-7.363218 -7.36498,-7.363218 l -156.04553,0 c -4.027725,0 -7.364982,3.336464 -7.364982,7.363218 l 0,103.54543 c 0,4.02676 3.22218,7.36323 7.364982,7.36323 z"
     id="path7"
     inkscape:connector-curvature="0" /><ellipse
     style="fill:#c1dcff;fill-opacity:1"
     cx="140.19293"
     cy="149.63394"
     id="circle9"
     rx="42.808956"
     ry="42.798782" /><g
     id="g11"
     transform="matrix(0.57538919,0,0,0.57525242,-4.8050847,-5.338662)"><rect
       x="236.2"
       y="215"
       style="fill:#e65336"
       width="31"
       height="114.4"
       id="rect13" /><rect
       x="194.60001"
       y="256.60001"
       style="fill:#e65336"
       width="114.4"
       height="31"
       id="rect15" /></g><g
     id="g17"
     transform="translate(0,-204)" /><g
     id="g19"
     transform="translate(0,-204)" /><g
     id="g21"
     transform="translate(0,-204)" /><g
     id="g23"
     transform="translate(0,-204)" /><g
     id="g25"
     transform="translate(0,-204)" /><g
     id="g27"
     transform="translate(0,-204)" /><g
     id="g29"
     transform="translate(0,-204)" /><g
     id="g31"
     transform="translate(0,-204)" /><g
     id="g33"
     transform="translate(0,-204)" /><g
     id="g35"
     transform="translate(0,-204)" /><g
     id="g37"
     transform="translate(0,-204)" /><g
     id="g39"
     transform="translate(0,-204)" /><g
     id="g41"
     transform="translate(0,-204)" /><g
     id="g43"
     transform="translate(0,-204)" /><g
     id="g45"
     transform="translate(0,-204)" /><ellipse
     style="fill:none;fill-opacity:1;stroke:#ffffff;stroke-width:9.69738388;stroke-miterlimit:4;stroke-dasharray:none;stroke-opacity:1"
     cx="145.47707"
     cy="144.90764"
     id="circle3-2"
     rx="140.6102"
     ry="140.57678" /></svg>