<?xml version="1.0" encoding="UTF-8" standalone="no"?>
<!-- Generator: Adobe Illustrator 19.0.0, SVG Export Plug-In . SVG Version: 6.00 Build 0)  -->

<svg
   xmlns:dc="http://purl.org/dc/elements/1.1/"
   xmlns:cc="http://creativecommons.org/ns#"
   xmlns:rdf="http://www.w3.org/1999/02/22-rdf-syntax-ns#"
   xmlns:svg="http://www.w3.org/2000/svg"
   xmlns="http://www.w3.org/2000/svg"
   xmlns:sodipodi="http://sodipodi.sourceforge.net/DTD/sodipodi-0.dtd"
   xmlns:inkscape="http://www.inkscape.org/namespaces/inkscape"
   version="1.1"
   id="Layer_1"
   x="0px"
   y="0px"
   viewBox="0 0 300 300"
   xml:space="preserve"
   inkscape:version="0.91 r13725"
   sodipodi:docname="symbol-service-turning-point-70-contents.svg"
   width="300"
   height="300"><metadata
     id="metadata43"><rdf:RDF><cc:Work
         rdf:about=""><dc:format>image/svg+xml</dc:format><dc:type
           rdf:resource="http://purl.org/dc/dcmitype/StillImage" /><dc:title></dc:title></cc:Work></rdf:RDF></metadata><defs
     id="defs41"><filter
       style="color-interpolation-filters:sRGB;"
       inkscape:label="Drop Shadow"
       id="filter11078"><feFlood
         flood-opacity="1"
         flood-color="rgb(0,0,0)"
         result="flood"
         id="feFlood11080" /><feComposite
         in="flood"
         in2="SourceGraphic"
         operator="in"
         result="composite1"
         id="feComposite11082" /><feGaussianBlur
         in="composite1"
         stdDeviation="6"
         result="blur"
         id="feGaussianBlur11084" /><feOffset
         dx="1.6"
         dy="1.6"
         result="offset"
         id="feOffset11086" /><feComposite
         in="SourceGraphic"
         in2="offset"
         operator="over"
         result="composite2"
         id="feComposite11088" /></filter><filter
       style="color-interpolation-filters:sRGB;"
       inkscape:label="Drop Shadow"
       id="filter11090"><feFlood
         flood-opacity="1"
         flood-color="rgb(0,0,0)"
         result="flood"
         id="feFlood11092" /><feComposite
         in="flood"
         in2="SourceGraphic"
         operator="in"
         result="composite1"
         id="feComposite11094" /><feGaussianBlur
         in="composite1"
         stdDeviation="6"
         result="blur"
         id="feGaussianBlur11096" /><feOffset
         dx="1.6"
         dy="1.6"
         result="offset"
         id="feOffset11098" /><feComposite
         in="SourceGraphic"
         in2="offset"
         operator="over"
         result="composite2"
         id="feComposite11100" /></filter></defs><sodipodi:namedview
     pagecolor="#ffffff"
     bordercolor="#666666"
     borderopacity="1"
     objecttolerance="10"
     gridtolerance="10"
     guidetolerance="10"
     inkscape:pageopacity="0"
     inkscape:pageshadow="2"
     inkscape:window-width="1920"
     inkscape:window-height="1017"
     id="namedview39"
     showgrid="false"
     inkscape:zoom="0.92188221"
     inkscape:cx="-423.99199"
     inkscape:cy="251.66564"
     inkscape:window-x="1912"
     inkscape:window-y="-8"
     inkscape:window-maximized="1"
     inkscape:current-layer="Layer_1" /><rect
     style="opacity:1;fill:#243640;fill-opacity:0.39215686;fill-rule:nonzero;stroke:none;stroke-width:9.78737259;stroke-linejoin:round;stroke-miterlimit:4;stroke-dasharray:none;stroke-opacity:0.39215686"
     id="rect8103-4"
     width="197.81223"
     height="197.81223"
     x="-108.70992"
     y="123.70222"
     ry="12.013863"
     transform="matrix(0.70720198,-0.70701157,0.70720198,0.70701157,0,0)" /><g
     id="g9"
     transform="translate(0,-211.996)" /><g
     id="g11"
     transform="translate(0,-211.996)" /><g
     id="g13"
     transform="translate(0,-211.996)" /><g
     id="g15"
     transform="translate(0,-211.996)" /><g
     id="g17"
     transform="translate(0,-211.996)" /><g
     id="g19"
     transform="translate(0,-211.996)" /><g
     id="g21"
     transform="translate(0,-211.996)" /><g
     id="g23"
     transform="translate(0,-211.996)" /><g
     id="g25"
     transform="translate(0,-211.996)" /><g
     id="g27"
     transform="translate(0,-211.996)" /><g
     id="g29"
     transform="translate(0,-211.996)" /><g
     id="g31"
     transform="translate(0,-211.996)" /><g
     id="g33"
     transform="translate(0,-211.996)" /><g
     id="g35"
     transform="translate(0,-211.996)" /><g
     id="g37"
     transform="translate(0,-211.996)" /><text
     xml:space="preserve"
     style="font-style:normal;font-weight:normal;line-height:0%;font-family:sans-serif;letter-spacing:0px;word-spacing:0px;fill:#000000;fill-opacity:1;stroke:none;stroke-width:1px;stroke-linecap:butt;stroke-linejoin:miter;stroke-opacity:1"
     x="-179.48387"
     y="46.881714"
     id="text8082"><tspan
       sodipodi:role="line"
       id="tspan8084"
       x="-179.48387"
       y="46.881714"
       style="font-size:180px;line-height:1.25"> </tspan></text>
<text
     xml:space="preserve"
     style="font-style:normal;font-weight:normal;line-height:0%;font-family:sans-serif;letter-spacing:0px;word-spacing:0px;fill:#000000;fill-opacity:1;stroke:none;stroke-width:1px;stroke-linecap:butt;stroke-linejoin:miter;stroke-opacity:1"
     x="-233.17563"
     y="6.9964142"
     id="text8086"><tspan
       sodipodi:role="line"
       id="tspan8088"
       x="-233.17563"
       y="6.9964142"
       style="font-size:90px;line-height:1.25"> </tspan></text>
<rect
     style="opacity:1;fill:#9933ff;fill-opacity:1;fill-rule:nonzero;stroke:#ffffff;stroke-width:9.86728191;stroke-linejoin:round;stroke-miterlimit:4;stroke-dasharray:none;stroke-opacity:1"
     id="rect8103"
     width="196.30305"
     height="196.30305"
     x="-93.138313"
     y="108.93875"
     ry="2.7885373"
     transform="matrix(0.70720198,-0.70701157,0.70720198,0.70701157,0,0)" /><g
     id="g8137"
     transform="translate(0.6793485,0)"><path
       id="path8190"
       d="m 83.618303,99.53281 c -3.15806,6.47e-4 -6.03165,2.87424 -6.0323,6.03231 l 0,14.69696 c 6.6e-4,3.15804 2.87425,6.03165 6.0323,6.0323 l 27.968757,0 -24.733707,54.31265 a 4.0711066,4.0711066 0 0 0 -0.002,0 c -0.83226,1.82846 -0.66771,4.07549 0.4195,5.76485 1.0872,1.68934 3.06344,2.76797 5.0724,2.76793 l 19.478107,0 c 2.2994,4.9e-4 4.53653,-1.43761 5.49007,-3.52998 l 30.22742,-66.27284 a 4.0711066,4.0711066 0 0 0 0.002,-0.006 c 0.35506,-0.7812 0.54049,-1.63871 0.5404,-2.49682 l 0,-0.004 0,-11.26589 c -6.4e-4,-3.15806 -2.87424,-6.031659 -6.0323,-6.032307 l -58.430657,0 z"
       style="font-style:normal;font-variant:normal;font-weight:bold;font-stretch:normal;font-size:113.41008759px;line-height:125%;font-family:sans-serif;-inkscape-font-specification:'sans-serif Bold';letter-spacing:0px;word-spacing:0px;fill:#455c73;fill-opacity:1;stroke:none;stroke-width:1px;stroke-linecap:butt;stroke-linejoin:miter;stroke-opacity:1"
       inkscape:connector-curvature="0" /><path
       id="path8209"
       d="m 187.42,98.038379 c -11.54865,0 -21.5112,4.308291 -28.13363,12.669101 -6.60752,8.30716 -9.55313,19.62837 -9.55313,33.32694 0,13.6721 2.95216,24.99318 9.55313,33.32692 a 1.3334343,1.3334343 0 0 0 0.009,0.011 c 6.6267,8.32479 16.58245,12.60682 28.12446,12.60682 11.51196,0 21.44989,-4.28633 28.07317,-12.60682 a 1.3334343,1.3334343 0 0 0 0.0165,-0.022 c 6.59528,-8.33277 9.5458,-19.64945 9.5458,-33.31593 0,-13.69965 -2.94633,-25.02142 -9.55495,-33.32877 -6.61903,-8.35518 -16.56284,-12.667272 -28.0805,-12.667272 z m -28.13363,79.322961 -0.0971,-0.14288 c 0.003,0.004 0.003,0.007 0.006,0.011 a 1.3334343,1.3334343 0 0 0 0.0915,0.13188 z M 187.42,123.18792 c 1.37497,-1e-5 2.03249,0.14855 2.45651,0.42681 0.42402,0.27827 0.85805,0.85613 1.45083,2.16709 a 1.3334343,1.3334343 0 0 0 0.009,0.0202 c 0.006,0.0121 0.0107,0.0246 0.0165,0.0367 1.03252,2.22197 2.21655,8.7275 2.21655,18.0401 0,9.42238 -1.17271,16.01614 -2.23303,18.33686 -0.61295,1.34156 -1.06714,1.94473 -1.50029,2.23303 -0.43315,0.28831 -1.07362,0.43415 -2.41621,0.43415 -1.36559,0 -2.02346,-0.14876 -2.46385,-0.43965 -0.4404,-0.29088 -0.89352,-0.89147 -1.50395,-2.22753 -1.06033,-2.32072 -2.23303,-8.91447 -2.23303,-18.33686 0,-9.31133 1.18413,-15.81544 2.21654,-18.03827 2.8e-4,-6.1e-4 -2.8e-4,-0.003 0,-0.004 a 1.3334343,1.3334343 0 0 0 0.009,-0.0165 c 0.60634,-1.31563 1.05343,-1.90623 1.4948,-2.19457 0.44137,-0.28834 1.10794,-0.43781 2.48033,-0.43781 z m 28.17941,54.03054 -0.0806,0.11907 a 1.3334343,1.3334343 0 0 0 0.0751,-0.10808 c 0.003,-0.004 0.003,-0.007 0.006,-0.011 z"
       style="font-style:normal;font-variant:normal;font-weight:bold;font-stretch:normal;font-size:113.41008759px;line-height:125%;font-family:sans-serif;-inkscape-font-specification:'sans-serif Bold';letter-spacing:0px;word-spacing:0px;fill:#455c73;fill-opacity:1;stroke:none;stroke-width:1px;stroke-linecap:butt;stroke-linejoin:miter;stroke-opacity:1"
       inkscape:connector-curvature="0" /><g
       id="text8764"
       style="font-style:normal;font-weight:normal;font-size:113.41008759px;line-height:125%;font-family:sans-serif;letter-spacing:0px;word-spacing:0px;fill:#ffffff;fill-opacity:1;stroke:none;stroke-width:1px;stroke-linecap:butt;stroke-linejoin:miter;stroke-opacity:1"
       transform="matrix(0.93790949,0,0,0.93790949,11.130253,3.2549056)"><path
         id="path8087-7"
         style="font-style:normal;font-variant:normal;font-weight:bold;font-stretch:normal;font-family:sans-serif;-inkscape-font-specification:'sans-serif Bold';fill:#ffffff;fill-opacity:1"
         d="m 77.62354,108.60642 62.29802,0 0,12.0166 -32.22884,70.6598 -20.766009,0 30.512189,-67.00498 -39.81536,0 0,-15.67142 z"
         inkscape:connector-curvature="0" /><path
         id="path8089-2"
         style="font-style:normal;font-variant:normal;font-weight:bold;font-stretch:normal;font-family:sans-serif;-inkscape-font-specification:'sans-serif Bold';fill:#ffffff;fill-opacity:1"
         d="m 201.05669,149.86156 q 0,-15.50529 -2.93493,-21.81815 -2.87955,-6.36824 -9.74618,-6.36824 -6.86663,0 -9.80155,6.36824 -2.93493,6.31286 -2.93493,21.81815 0,15.67141 2.93493,22.09503 2.93492,6.42362 9.80155,6.42362 6.81125,0 9.74618,-6.42362 2.93493,-6.42362 2.93493,-22.09503 z m 21.31977,0.16613 q 0,20.5445 -8.86017,31.73046 -8.86016,11.13058 -25.14071,11.13058 -16.33592,0 -25.19609,-11.13058 -8.86016,-11.18596 -8.86016,-31.73046 0,-20.59988 8.86016,-31.73046 8.86017,-11.18596 25.19609,-11.18596 16.28055,0 25.14071,11.18596 8.86017,11.13058 8.86017,31.73046 z"
         inkscape:connector-curvature="0" /></g></g><circle
     style="opacity:1;fill:#07ff00;fill-opacity:1;fill-rule:nonzero;stroke:#ffffff;stroke-width:16.99967003;stroke-linecap:butt;stroke-linejoin:miter;stroke-miterlimit:4;stroke-dasharray:none;stroke-opacity:1"
     id="path8111"
     cx="243.83224"
     cy="243.83224"
     r="47.667919" /></svg>