<?xml version="1.0" encoding="UTF-8" standalone="no"?>
<!-- Generator: Adobe Illustrator 19.0.0, SVG Export Plug-In . SVG Version: 6.00 Build 0)  -->

<svg
   xmlns:dc="http://purl.org/dc/elements/1.1/"
   xmlns:cc="http://creativecommons.org/ns#"
   xmlns:rdf="http://www.w3.org/1999/02/22-rdf-syntax-ns#"
   xmlns:svg="http://www.w3.org/2000/svg"
   xmlns="http://www.w3.org/2000/svg"
   xmlns:sodipodi="http://sodipodi.sourceforge.net/DTD/sodipodi-0.dtd"
   xmlns:inkscape="http://www.inkscape.org/namespaces/inkscape"
   version="1.1"
   id="Layer_1"
   x="0px"
   y="0px"
   viewBox="0 0 300 300"
   xml:space="preserve"
   inkscape:version="0.91 r13725"
   sodipodi:docname="symbol-service-turning-point-contents.svg"
   width="300"
   height="300"><metadata
     id="metadata43"><rdf:RDF><cc:Work
         rdf:about=""><dc:format>image/svg+xml</dc:format><dc:type
           rdf:resource="http://purl.org/dc/dcmitype/StillImage" /><dc:title></dc:title></cc:Work></rdf:RDF></metadata><defs
     id="defs41"><filter
       style="color-interpolation-filters:sRGB;"
       inkscape:label="Drop Shadow"
       id="filter11078"><feFlood
         flood-opacity="1"
         flood-color="rgb(0,0,0)"
         result="flood"
         id="feFlood11080" /><feComposite
         in="flood"
         in2="SourceGraphic"
         operator="in"
         result="composite1"
         id="feComposite11082" /><feGaussianBlur
         in="composite1"
         stdDeviation="6"
         result="blur"
         id="feGaussianBlur11084" /><feOffset
         dx="1.6"
         dy="1.6"
         result="offset"
         id="feOffset11086" /><feComposite
         in="SourceGraphic"
         in2="offset"
         operator="over"
         result="composite2"
         id="feComposite11088" /></filter><filter
       style="color-interpolation-filters:sRGB;"
       inkscape:label="Drop Shadow"
       id="filter11090"><feFlood
         flood-opacity="1"
         flood-color="rgb(0,0,0)"
         result="flood"
         id="feFlood11092" /><feComposite
         in="flood"
         in2="SourceGraphic"
         operator="in"
         result="composite1"
         id="feComposite11094" /><feGaussianBlur
         in="composite1"
         stdDeviation="6"
         result="blur"
         id="feGaussianBlur11096" /><feOffset
         dx="1.6"
         dy="1.6"
         result="offset"
         id="feOffset11098" /><feComposite
         in="SourceGraphic"
         in2="offset"
         operator="over"
         result="composite2"
         id="feComposite11100" /></filter></defs><sodipodi:namedview
     pagecolor="#ffffff"
     bordercolor="#666666"
     borderopacity="1"
     objecttolerance="10"
     gridtolerance="10"
     guidetolerance="10"
     inkscape:pageopacity="0"
     inkscape:pageshadow="2"
     inkscape:window-width="1920"
     inkscape:window-height="1017"
     id="namedview39"
     showgrid="false"
     inkscape:zoom="5.2149533"
     inkscape:cx="76.604696"
     inkscape:cy="180.46209"
     inkscape:window-x="1912"
     inkscape:window-y="-8"
     inkscape:window-maximized="1"
     inkscape:current-layer="Layer_1" /><rect
     style="opacity:1;fill:#243640;fill-opacity:0.39215686;fill-rule:nonzero;stroke:none;stroke-width:9.78737259;stroke-linejoin:round;stroke-miterlimit:4;stroke-dasharray:none;stroke-opacity:0.39215686"
     id="rect8103-4"
     width="197.81223"
     height="197.81223"
     x="-108.70992"
     y="123.70222"
     ry="12.013863"
     transform="matrix(0.70720198,-0.70701157,0.70720198,0.70701157,0,0)" /><g
     id="g9"
     transform="translate(0,-211.996)" /><g
     id="g11"
     transform="translate(0,-211.996)" /><g
     id="g13"
     transform="translate(0,-211.996)" /><g
     id="g15"
     transform="translate(0,-211.996)" /><g
     id="g17"
     transform="translate(0,-211.996)" /><g
     id="g19"
     transform="translate(0,-211.996)" /><g
     id="g21"
     transform="translate(0,-211.996)" /><g
     id="g23"
     transform="translate(0,-211.996)" /><g
     id="g25"
     transform="translate(0,-211.996)" /><g
     id="g27"
     transform="translate(0,-211.996)" /><g
     id="g29"
     transform="translate(0,-211.996)" /><g
     id="g31"
     transform="translate(0,-211.996)" /><g
     id="g33"
     transform="translate(0,-211.996)" /><g
     id="g35"
     transform="translate(0,-211.996)" /><g
     id="g37"
     transform="translate(0,-211.996)" /><text
     xml:space="preserve"
     style="font-style:normal;font-weight:normal;line-height:0%;font-family:sans-serif;letter-spacing:0px;word-spacing:0px;fill:#000000;fill-opacity:1;stroke:none;stroke-width:1px;stroke-linecap:butt;stroke-linejoin:miter;stroke-opacity:1"
     x="-233.17563"
     y="6.9964142"
     id="text8086"><tspan
       sodipodi:role="line"
       id="tspan8088"
       x="-233.17563"
       y="6.9964142"
       style="font-size:90px;line-height:1.25"> </tspan></text>
<rect
     style="opacity:1;fill:#9933ff;fill-opacity:1;fill-rule:nonzero;stroke:#ffffff;stroke-width:9.86728191;stroke-linejoin:round;stroke-miterlimit:4;stroke-dasharray:none;stroke-opacity:1"
     id="rect8103"
     width="196.30305"
     height="196.30305"
     x="-93.138313"
     y="108.93875"
     ry="2.7885373"
     transform="matrix(0.70720198,-0.70701157,0.70720198,0.70701157,0,0)" /><path
     inkscape:connector-curvature="0"
     style="fill:#ffffff;stroke:#455c73;stroke-width:3;stroke-miterlimit:4;stroke-dasharray:none;stroke-opacity:1"
     d="m 178.94683,96.623767 c -0.38639,-0.213668 -0.84202,-0.264589 -1.26569,-0.142449 -0.42401,0.122141 -0.78211,0.408035 -0.99578,0.794432 l -7.24137,13.11001 c -0.4443,0.80441 -0.15243,1.81683 0.65231,2.26115 12.26053,6.77245 19.87666,19.66803 19.87666,33.65457 0,21.18335 -17.23378,38.41712 -38.41706,38.41712 -21.18328,0 -38.41706,-17.23377 -38.41706,-38.41712 0,-7.95028 2.51508,-15.7844 7.11623,-22.26432 l 11.47476,11.47479 c 0.44531,0.445 1.10329,0.60108 1.70035,0.40272 0.59739,-0.19837 1.03206,-0.71623 1.12291,-1.33924 l 6.31749,-43.271364 c 0.0759,-0.520192 -0.0982,-1.04537 -0.46994,-1.41712 -0.37175,-0.371761 -0.8986,-0.545487 -1.41712,-0.469936 l -43.270803,6.317806 c -0.623043,0.09082 -1.140898,0.525511 -1.338922,1.122916 -0.198356,0.597395 -0.04225,1.25537 0.402706,1.700344 l 12.411289,12.411434 c -7.977226,10.02606 -12.353709,22.51195 -12.353709,35.33197 0,31.2766 25.445289,56.7219 56.721819,56.7219 31.27653,0 56.72184,-25.4453 56.72184,-56.7219 0,-20.6485 -11.2388,-39.68392 -29.33091,-49.677713 z"
     id="path3-1" /><circle
     style="opacity:1;fill:#07ff00;fill-opacity:1;fill-rule:nonzero;stroke:#ffffff;stroke-width:16.99967003;stroke-linecap:butt;stroke-linejoin:miter;stroke-miterlimit:4;stroke-dasharray:none;stroke-opacity:1"
     id="path8111"
     cx="243.83224"
     cy="243.83224"
     r="47.667919" /></svg>