<?xml version="1.0" encoding="UTF-8" standalone="no"?>
<!-- Generator: Adobe Illustrator 19.0.0, SVG Export Plug-In . SVG Version: 6.00 Build 0)  -->

<svg
   xmlns:dc="http://purl.org/dc/elements/1.1/"
   xmlns:cc="http://creativecommons.org/ns#"
   xmlns:rdf="http://www.w3.org/1999/02/22-rdf-syntax-ns#"
   xmlns:svg="http://www.w3.org/2000/svg"
   xmlns="http://www.w3.org/2000/svg"
   xmlns:sodipodi="http://sodipodi.sourceforge.net/DTD/sodipodi-0.dtd"
   xmlns:inkscape="http://www.inkscape.org/namespaces/inkscape"
   version="1.1"
   id="Layer_1"
   x="0px"
   y="0px"
   viewBox="0 0 300 300"
   xml:space="preserve"
   inkscape:version="0.91 r13725"
   sodipodi:docname="symbol-service-turning-point-55-contents.svg"
   width="300"
   height="300"><metadata
     id="metadata43"><rdf:RDF><cc:Work
         rdf:about=""><dc:format>image/svg+xml</dc:format><dc:type
           rdf:resource="http://purl.org/dc/dcmitype/StillImage" /><dc:title></dc:title></cc:Work></rdf:RDF></metadata><defs
     id="defs41"><filter
       style="color-interpolation-filters:sRGB;"
       inkscape:label="Drop Shadow"
       id="filter11078"><feFlood
         flood-opacity="1"
         flood-color="rgb(0,0,0)"
         result="flood"
         id="feFlood11080" /><feComposite
         in="flood"
         in2="SourceGraphic"
         operator="in"
         result="composite1"
         id="feComposite11082" /><feGaussianBlur
         in="composite1"
         stdDeviation="6"
         result="blur"
         id="feGaussianBlur11084" /><feOffset
         dx="1.6"
         dy="1.6"
         result="offset"
         id="feOffset11086" /><feComposite
         in="SourceGraphic"
         in2="offset"
         operator="over"
         result="composite2"
         id="feComposite11088" /></filter><filter
       style="color-interpolation-filters:sRGB;"
       inkscape:label="Drop Shadow"
       id="filter11090"><feFlood
         flood-opacity="1"
         flood-color="rgb(0,0,0)"
         result="flood"
         id="feFlood11092" /><feComposite
         in="flood"
         in2="SourceGraphic"
         operator="in"
         result="composite1"
         id="feComposite11094" /><feGaussianBlur
         in="composite1"
         stdDeviation="6"
         result="blur"
         id="feGaussianBlur11096" /><feOffset
         dx="1.6"
         dy="1.6"
         result="offset"
         id="feOffset11098" /><feComposite
         in="SourceGraphic"
         in2="offset"
         operator="over"
         result="composite2"
         id="feComposite11100" /></filter></defs><sodipodi:namedview
     pagecolor="#ffffff"
     bordercolor="#666666"
     borderopacity="1"
     objecttolerance="10"
     gridtolerance="10"
     guidetolerance="10"
     inkscape:pageopacity="0"
     inkscape:pageshadow="2"
     inkscape:window-width="1920"
     inkscape:window-height="1017"
     id="namedview39"
     showgrid="false"
     inkscape:zoom="1.3037383"
     inkscape:cx="-214.59932"
     inkscape:cy="76.81623"
     inkscape:window-x="1912"
     inkscape:window-y="-8"
     inkscape:window-maximized="1"
     inkscape:current-layer="Layer_1" /><rect
     style="opacity:1;fill:#243640;fill-opacity:0.39215686;fill-rule:nonzero;stroke:none;stroke-width:9.78737259;stroke-linejoin:round;stroke-miterlimit:4;stroke-dasharray:none;stroke-opacity:0.39215686"
     id="rect8103-4"
     width="197.81223"
     height="197.81223"
     x="-108.70992"
     y="123.70222"
     ry="12.013863"
     transform="matrix(0.70720198,-0.70701157,0.70720198,0.70701157,0,0)" /><g
     id="g9"
     transform="translate(0,-211.996)" /><g
     id="g11"
     transform="translate(0,-211.996)" /><g
     id="g13"
     transform="translate(0,-211.996)" /><g
     id="g15"
     transform="translate(0,-211.996)" /><g
     id="g17"
     transform="translate(0,-211.996)" /><g
     id="g19"
     transform="translate(0,-211.996)" /><g
     id="g21"
     transform="translate(0,-211.996)" /><g
     id="g23"
     transform="translate(0,-211.996)" /><g
     id="g25"
     transform="translate(0,-211.996)" /><g
     id="g27"
     transform="translate(0,-211.996)" /><g
     id="g29"
     transform="translate(0,-211.996)" /><g
     id="g31"
     transform="translate(0,-211.996)" /><g
     id="g33"
     transform="translate(0,-211.996)" /><g
     id="g35"
     transform="translate(0,-211.996)" /><g
     id="g37"
     transform="translate(0,-211.996)" /><text
     xml:space="preserve"
     style="font-style:normal;font-weight:normal;line-height:0%;font-family:sans-serif;letter-spacing:0px;word-spacing:0px;fill:#000000;fill-opacity:1;stroke:none;stroke-width:1px;stroke-linecap:butt;stroke-linejoin:miter;stroke-opacity:1"
     x="-179.48387"
     y="46.881714"
     id="text8082"><tspan
       sodipodi:role="line"
       id="tspan8084"
       x="-179.48387"
       y="46.881714"
       style="font-size:180px;line-height:1.25"> </tspan></text>
<text
     xml:space="preserve"
     style="font-style:normal;font-weight:normal;line-height:0%;font-family:sans-serif;letter-spacing:0px;word-spacing:0px;fill:#000000;fill-opacity:1;stroke:none;stroke-width:1px;stroke-linecap:butt;stroke-linejoin:miter;stroke-opacity:1"
     x="-233.17563"
     y="6.9964142"
     id="text8086"><tspan
       sodipodi:role="line"
       id="tspan8088"
       x="-233.17563"
       y="6.9964142"
       style="font-size:90px;line-height:1.25"> </tspan></text>
<rect
     style="opacity:1;fill:#9933ff;fill-opacity:1;fill-rule:nonzero;stroke:#ffffff;stroke-width:9.86728191;stroke-linejoin:round;stroke-miterlimit:4;stroke-dasharray:none;stroke-opacity:1"
     id="rect8103"
     width="196.30305"
     height="196.30305"
     x="-93.138313"
     y="108.93875"
     ry="2.7885373"
     transform="matrix(0.70720198,-0.70701157,0.70720198,0.70701157,0,0)" /><path
     inkscape:connector-curvature="0"
     id="path8125"
     d="m 88.809089,98.224466 a 5.9073502,5.9073502 0 0 0 -5.907644,5.907644 v 43.68283 a 5.9073502,5.9073502 0 0 0 8.180097,5.45278 c 3.484863,-1.45203 6.668244,-2.48478 9.518988,-3.12164 a 5.9073502,5.9073502 0 0 0 0.0587,-0.0129 c 2.88178,-0.67446 5.49986,-0.98674 7.85727,-0.98674 3.89709,0 6.13771,0.87353 7.6152,2.12938 a 5.9073502,5.9073502 0 0 0 0.0275,0.0239 c 1.5196,1.27572 2.10188,2.40629 2.10188,5.14649 0,2.69138 -0.58032,3.85129 -2.12939,5.17218 -3.7e-4,3.1e-4 -0.002,-3.1e-4 -0.002,0 -1.4775,1.25535 -3.71723,2.12938 -7.61337,2.12938 -2.64883,0 -5.63356,-0.48076 -8.966896,-1.54064 -0.002,-8.3e-4 -0.005,-9.4e-4 -0.007,-0.002 -3.293894,-1.05915 -6.928018,-2.69696 -10.861553,-4.95391 a 5.9073502,5.9073502 0 0 0 -8.847712,5.12264 v 15.75678 a 5.9073502,5.9073502 0 0 0 3.682879,5.47113 c 4.594155,1.86754 9.24224,3.26247 13.928175,4.17075 4.704517,0.93967 9.460917,1.41409 14.245447,1.41409 11.10689,0 20.5898,-2.63454 27.63626,-8.48273 7.06686,-5.83659 10.77168,-14.52187 10.77168,-24.25784 0,-9.68109 -3.29287,-18.26976 -9.86563,-24.15512 -4.32277,-3.89303 -9.78105,-6.27414 -15.92918,-7.5345 h 14.27115 a 5.9073502,5.9073502 0 0 0 5.90764,-5.90765 v -14.71683 a 5.9073502,5.9073502 0 0 0 -5.90764,-5.907649 H 88.808947 Z"
     style="font-style:normal;font-variant:normal;font-weight:bold;font-stretch:normal;font-size:113.41008759px;line-height:125%;font-family:sans-serif;-inkscape-font-specification:'sans-serif Bold';letter-spacing:0px;word-spacing:0px;fill:#455c73;fill-opacity:1;stroke:none;stroke-width:1px;stroke-linecap:butt;stroke-linejoin:miter;stroke-opacity:1" /><path
     inkscape:connector-curvature="0"
     id="path8099"
     d="m 89.10027,104.03675 v 43.68282 c 3.744104,-1.56004 7.245149,-2.70542 10.503904,-3.43344 3.258736,-0.76268 6.326086,-1.14265 9.203496,-1.14265 4.85347,0 8.66773,1.17876 11.44114,3.53615 2.80807,2.35741 4.21109,5.58045 4.21109,9.67122 0,4.05612 -1.40302,7.28099 -4.21109,9.67306 -2.77341,2.3574 -6.58767,3.53615 -11.44114,3.53615 -3.36275,0 -6.95089,-0.6079 -10.764315,-1.82126 -3.778771,-1.21337 -7.782089,-3.03339 -12.011538,-5.46013 v 15.75678 c 4.264117,1.73338 8.545435,3.01593 12.844219,3.84795 4.333434,0.86669 8.701854,1.30038 13.104634,1.30038 10.19228,0 18.14886,-2.37419 23.86901,-7.12366 5.75483,-4.74946 8.63129,-11.3197 8.63129,-19.70927 0,-8.45889 -2.63367,-15.04582 -7.90315,-19.76062 -5.26947,-4.74946 -12.63667,-7.12365 -22.10094,-7.12365 -1.66404,0 -3.27648,0.12049 -4.83653,0.36316 -1.52537,0.208 -3.0507,0.52121 -4.57608,0.93722 v -12.01338 h 33.80068 v -14.71683 z"
     style="font-style:normal;font-variant:normal;font-weight:bold;font-stretch:normal;font-size:medium;line-height:125%;font-family:sans-serif;-inkscape-font-specification:'sans-serif Bold';letter-spacing:0px;word-spacing:0px;fill:#ffffff;fill-opacity:1;stroke:none;stroke-width:1px;stroke-linecap:butt;stroke-linejoin:miter;stroke-opacity:1" /><path
     inkscape:connector-curvature="0"
     id="path8125-4"
     d="m 161.07268,98.22447 a 5.9073502,5.9073502 0 0 0 -5.90765,5.90764 v 43.68283 a 5.9073502,5.9073502 0 0 0 8.1801,5.45278 c 3.48486,-1.45203 6.66825,-2.48478 9.51899,-3.12164 a 5.9073502,5.9073502 0 0 0 0.0587,-0.0129 c 2.88181,-0.67446 5.49989,-0.98674 7.8573,-0.98674 3.89709,0 6.13771,0.87353 7.6152,2.12938 a 5.9073502,5.9073502 0 0 0 0.0275,0.0239 c 1.5196,1.27572 2.10188,2.40629 2.10188,5.14649 0,2.69138 -0.58032,3.85129 -2.12939,5.17218 -3.7e-4,3.1e-4 -0.002,-3.1e-4 -0.002,0 -1.4775,1.25535 -3.71723,2.12938 -7.61337,2.12938 -2.64883,0 -5.63357,-0.48076 -8.96692,-1.54064 -0.002,-8.3e-4 -0.005,-9.4e-4 -0.007,-0.002 -3.2939,-1.05915 -6.92802,-2.69696 -10.86156,-4.95391 a 5.9073502,5.9073502 0 0 0 -8.84771,5.12264 v 15.75678 a 5.9073502,5.9073502 0 0 0 3.68288,5.47113 c 4.59415,1.86754 9.24224,3.26247 13.92817,4.17075 4.70453,0.93967 9.46094,1.41409 14.24547,1.41409 11.10689,0 20.5898,-2.63454 27.63626,-8.48273 7.06686,-5.83659 10.77168,-14.52187 10.77168,-24.25784 0,-9.68109 -3.29287,-18.26976 -9.86563,-24.15512 -4.32277,-3.89303 -9.78105,-6.27414 -15.92918,-7.5345 h 14.27115 a 5.9073502,5.9073502 0 0 0 5.90764,-5.90765 v -14.71683 a 5.9073502,5.9073502 0 0 0 -5.90764,-5.90765 h -49.7647 z"
     style="font-style:normal;font-variant:normal;font-weight:bold;font-stretch:normal;font-size:113.41008759px;line-height:125%;font-family:sans-serif;-inkscape-font-specification:'sans-serif Bold';letter-spacing:0px;word-spacing:0px;fill:#455c73;fill-opacity:1;stroke:none;stroke-width:1px;stroke-linecap:butt;stroke-linejoin:miter;stroke-opacity:1" /><path
     inkscape:connector-curvature="0"
     id="path8099-5"
     d="m 161.36386,104.03675 v 43.68282 c 3.7441,-1.56004 7.24515,-2.70542 10.50391,-3.43344 3.25875,-0.76268 6.32611,-1.14265 9.20352,-1.14265 4.85347,0 8.66773,1.17876 11.44114,3.53615 2.80807,2.35741 4.21109,5.58045 4.21109,9.67122 0,4.05612 -1.40302,7.28099 -4.21109,9.67306 -2.77341,2.3574 -6.58767,3.53615 -11.44114,3.53615 -3.36275,0 -6.95091,-0.6079 -10.76435,-1.82126 -3.77877,-1.21337 -7.78208,-3.03339 -12.01153,-5.46013 v 15.75678 c 4.26411,1.73338 8.54543,3.01593 12.84422,3.84795 4.33345,0.86669 8.70188,1.30038 13.10466,1.30038 10.19228,0 18.14886,-2.37419 23.86901,-7.12366 5.75483,-4.74946 8.63129,-11.3197 8.63129,-19.70927 0,-8.45889 -2.63367,-15.04582 -7.90315,-19.76062 -5.26947,-4.74946 -12.63667,-7.12365 -22.10094,-7.12365 -1.66404,0 -3.27648,0.12049 -4.83653,0.36316 -1.52537,0.208 -3.0507,0.52121 -4.57608,0.93722 v -12.01338 h 33.80068 v -14.71683 z"
     style="font-style:normal;font-variant:normal;font-weight:bold;font-stretch:normal;font-size:medium;line-height:125%;font-family:sans-serif;-inkscape-font-specification:'sans-serif Bold';letter-spacing:0px;word-spacing:0px;fill:#ffffff;fill-opacity:1;stroke:none;stroke-width:1px;stroke-linecap:butt;stroke-linejoin:miter;stroke-opacity:1" /><circle
     style="opacity:1;fill:#07ff00;fill-opacity:1;fill-rule:nonzero;stroke:#ffffff;stroke-width:16.99967003;stroke-linecap:butt;stroke-linejoin:miter;stroke-miterlimit:4;stroke-dasharray:none;stroke-opacity:1"
     id="path8111"
     cx="243.83224"
     cy="243.83224"
     r="47.667919" /></svg>