<?xml version="1.0" encoding="UTF-8" standalone="no"?>
<!-- Generator: Adobe Illustrator 19.0.0, SVG Export Plug-In . SVG Version: 6.00 Build 0)  -->

<svg
   xmlns:dc="http://purl.org/dc/elements/1.1/"
   xmlns:cc="http://creativecommons.org/ns#"
   xmlns:rdf="http://www.w3.org/1999/02/22-rdf-syntax-ns#"
   xmlns:svg="http://www.w3.org/2000/svg"
   xmlns="http://www.w3.org/2000/svg"
   xmlns:sodipodi="http://sodipodi.sourceforge.net/DTD/sodipodi-0.dtd"
   xmlns:inkscape="http://www.inkscape.org/namespaces/inkscape"
   version="1.1"
   id="Layer_1"
   x="0px"
   y="0px"
   viewBox="0 0 300 300"
   xml:space="preserve"
   inkscape:version="0.91 r13725"
   sodipodi:docname="symbol-cafe-contents.svg"
   width="300"
   height="300"><metadata
     id="metadata51"><rdf:RDF><cc:Work
         rdf:about=""><dc:format>image/svg+xml</dc:format><dc:type
           rdf:resource="http://purl.org/dc/dcmitype/StillImage" /><dc:title></dc:title></cc:Work></rdf:RDF></metadata><defs
     id="defs49"><pattern
       y="0"
       x="0"
       height="6"
       width="6"
       patternUnits="userSpaceOnUse"
       id="EMFhbasepattern" /></defs><sodipodi:namedview
     pagecolor="#ffffff"
     bordercolor="#666666"
     borderopacity="1"
     objecttolerance="10"
     gridtolerance="10"
     guidetolerance="10"
     inkscape:pageopacity="0"
     inkscape:pageshadow="2"
     inkscape:window-width="1920"
     inkscape:window-height="1017"
     id="namedview47"
     showgrid="false"
     inkscape:zoom="1.3037281"
     inkscape:cx="-294.41759"
     inkscape:cy="287.34583"
     inkscape:window-x="1912"
     inkscape:window-y="-8"
     inkscape:window-maximized="1"
     inkscape:current-layer="Layer_1" /><circle
     style="fill:#273640;fill-opacity:0.39215686"
     cx="155"
     cy="155"
     r="145"
     id="circle3-9" /><circle
     style="fill:#748993;fill-opacity:1;stroke-width:0.97662187"
     cx="143.78766"
     cy="143.02063"
     r="141.61017"
     id="circle3" /><path
     style="fill:#414d53;fill-opacity:1"
     d="m 283.02684,165.84974 -67.65949,-67.658933 -0.50297,3.129403 -26.13342,-26.133995 -69.48842,92.760925 -22.466505,46.87748 67.790335,67.7909 c 60.03,-10.0741 107.54922,-57.02465 118.46047,-116.76578 z"
     id="path5"
     inkscape:connector-curvature="0" /><path
     style="fill:#d8c49c;fill-opacity:1"
     d="m 196.78696,140.8514 c -13.9993,0 -25.38746,-11.38817 -25.38746,-25.38746 0,-13.9993 11.38816,-25.387471 25.38746,-25.387471 13.99929,0 25.38746,11.388171 25.38746,25.387471 0,13.99929 -11.38873,25.38746 -25.38746,25.38746 z m 0,-35.15174 c -5.38426,0 -9.76428,4.38002 -9.76428,9.76428 0,5.38425 4.38002,9.76427 9.76428,9.76427 5.38426,0 9.76427,-4.38002 9.76427,-9.76427 0,-5.38426 -4.38058,-9.76428 -9.76427,-9.76428 z"
     id="path7"
     inkscape:connector-curvature="0" /><path
     style="fill:#f0deb4;fill-opacity:1"
     d="m 171.56262,220.18622 -62.32848,0 c -9.483341,0 -17.169474,-7.6867 -17.169474,-17.16834 l 0,-127.831665 96.666864,0 0,127.831665 c -5.7e-4,9.48221 -7.6867,17.16834 -17.16891,17.16834 z"
     id="path9"
     inkscape:connector-curvature="0" /><path
     style="fill:#d8c49c;fill-opacity:1"
     d="m 139.74758,75.186215 0,145.000005 31.81504,0 c 9.48221,0 17.16834,-7.68726 17.16834,-17.16834 l 0,-127.831665 -48.98338,0 z"
     id="path11"
     inkscape:connector-curvature="0" /><circle
     style="fill:#ff7f4f"
     cx="140.39783"
     cy="139.6308"
     r="24.899218"
     id="circle13" /><path
     style="fill:#d35933"
     d="m 140.39782,114.73157 c -0.2175,0 -0.4333,0.0108 -0.65024,0.0164 l 0,49.76502 c 0.21694,0.006 0.43274,0.0164 0.65024,0.0164 13.75121,0 24.89922,-11.148 24.89922,-24.89921 0,-13.75121 -11.14801,-24.89866 -24.89922,-24.89866 z"
     id="path15"
     inkscape:connector-curvature="0" /><g
     id="g17"
     transform="translate(0,-212)" /><g
     id="g19"
     transform="translate(0,-212)" /><g
     id="g21"
     transform="translate(0,-212)" /><g
     id="g23"
     transform="translate(0,-212)" /><g
     id="g25"
     transform="translate(0,-212)" /><g
     id="g27"
     transform="translate(0,-212)" /><g
     id="g29"
     transform="translate(0,-212)" /><g
     id="g31"
     transform="translate(0,-212)" /><g
     id="g33"
     transform="translate(0,-212)" /><g
     id="g35"
     transform="translate(0,-212)" /><g
     id="g37"
     transform="translate(0,-212)" /><g
     id="g39"
     transform="translate(0,-212)" /><g
     id="g41"
     transform="translate(0,-212)" /><g
     id="g43"
     transform="translate(0,-212)" /><g
     id="g45"
     transform="translate(0,-212)" /><circle
     style="fill:none;fill-opacity:1;stroke:#ffffff;stroke-width:9.71073437;stroke-miterlimit:4;stroke-dasharray:none;stroke-opacity:1"
     cx="145.46979"
     cy="144.70276"
     r="140.80565"
     id="circle3-2" /><circle
     style="opacity:1;fill:#07ff00;fill-opacity:1;fill-rule:nonzero;stroke:#ffffff;stroke-width:16.99967003;stroke-linecap:butt;stroke-linejoin:miter;stroke-miterlimit:4;stroke-dasharray:none;stroke-opacity:1"
     id="path8111"
     cx="243.83224"
     cy="243.83224"
     r="47.667919" /></svg>