<?xml version="1.0" encoding="UTF-8" standalone="no"?>
<!-- Generator: Adobe Illustrator 19.0.0, SVG Export Plug-In . SVG Version: 6.00 Build 0)  -->

<svg
   xmlns:dc="http://purl.org/dc/elements/1.1/"
   xmlns:cc="http://creativecommons.org/ns#"
   xmlns:rdf="http://www.w3.org/1999/02/22-rdf-syntax-ns#"
   xmlns:svg="http://www.w3.org/2000/svg"
   xmlns="http://www.w3.org/2000/svg"
   xmlns:sodipodi="http://sodipodi.sourceforge.net/DTD/sodipodi-0.dtd"
   xmlns:inkscape="http://www.inkscape.org/namespaces/inkscape"
   version="1.1"
   id="Layer_1"
   x="0px"
   y="0px"
   viewBox="0 0 300 300"
   xml:space="preserve"
   inkscape:version="0.91 r13725"
   sodipodi:docname="symbol-chicken-contents.svg"
   width="300"
   height="300"><metadata
     id="metadata47"><rdf:RDF><cc:Work
         rdf:about=""><dc:format>image/svg+xml</dc:format><dc:type
           rdf:resource="http://purl.org/dc/dcmitype/StillImage" /><dc:title></dc:title></cc:Work></rdf:RDF></metadata><defs
     id="defs45" /><sodipodi:namedview
     pagecolor="#ffffff"
     bordercolor="#666666"
     borderopacity="1"
     objecttolerance="10"
     gridtolerance="10"
     guidetolerance="10"
     inkscape:pageopacity="0"
     inkscape:pageshadow="2"
     inkscape:window-width="1920"
     inkscape:window-height="1017"
     id="namedview43"
     showgrid="false"
     inkscape:zoom="2.6074563"
     inkscape:cx="37.969239"
     inkscape:cy="156.22363"
     inkscape:window-x="1912"
     inkscape:window-y="-8"
     inkscape:window-maximized="1"
     inkscape:current-layer="Layer_1" /><ellipse
     style="fill:#273640;fill-opacity:0.39215686"
     cx="155.09261"
     cy="155.25328"
     id="circle3-9"
     rx="144.90739"
     ry="144.74672" /><ellipse
     style="fill:#748993;fill-opacity:1;stroke-width:0.97217959"
     cx="144.59979"
     cy="143.89227"
     id="circle3"
     rx="140.87601"
     ry="140.7198" /><path
     inkscape:connector-curvature="0"
     id="path11-8-2"
     d="M 208.66077,71.470463 75.911702,220.23117 145.16934,285.11867 C 216.06256,281.44784 275.83681,233.0313 285.66104,152.26092 263.12573,128.1228 236.83092,99.614647 208.66077,71.470463 Z"
     style="fill:#414d53;fill-opacity:1"
     sodipodi:nodetypes="ccccc" /><path
     style="fill:#fcf1e2"
     d="m 122.16236,174.26761 c -2.70852,-3.05268 -2.99324,-8.40605 -5.3061,-10.71634 -2.01002,-2.0078 -6.31253,-2.48727 -9.41389,-4.35315 l -25.580137,24.50687 c -5.667237,-6.83194 -15.328485,-6.82967 -21.140629,-1.26088 -5.775352,5.53486 -5.967807,14.69575 -0.426798,20.46696 3.296077,3.43208 7.877641,4.84223 12.264486,4.2949 -0.732462,4.35541 0.487364,8.98731 3.783441,12.41939 5.54101,5.76895 14.712063,5.96119 20.489689,0.42632 5.799138,-5.55805 6.233858,-15.20123 -0.379253,-21.15168 l 25.709191,-24.63239 z"
     id="path5"
     inkscape:connector-curvature="0" /><path
     style="fill:#af7653;fill-opacity:1"
     d="m 224.87793,108.28403 c 0,47.37176 -47.45604,38.37088 -71.13651,55.26667 -36.88573,26.31733 -31.61642,5.26347 -36.88573,0 -5.2693,-5.26346 -26.346561,0 0,-36.84483 16.91455,-23.65421 7.90425,-71.057661 55.32802,-71.057661 29.10375,0.0011 52.69422,23.565446 52.69422,52.635821 z"
     id="path7"
     inkscape:connector-curvature="0" /><path
     style="fill:#ffffff"
     d="m 81.859969,183.70499 c -5.667237,-6.83194 -15.328485,-6.82967 -21.14063,-1.26088 -5.775351,5.53486 -5.967807,14.69575 -0.426797,20.46696 3.296077,3.43208 7.877641,4.84223 12.264486,4.2949 -0.0079,0.0419 -0.0079,0.0871 -0.01302,0.12892 l 44.046772,-44.00018 c -2.09719,-1.81838 -6.16762,-2.34478 -9.14784,-4.13715 l -25.582972,24.50743 z"
     id="path9"
     inkscape:connector-curvature="0" /><path
     style="fill:#bf8a6a;fill-opacity:1"
     d="m 172.18484,55.64934 c -47.42434,0 -38.41347,47.40345 -55.32801,71.05767 -25.95147,36.29184 -5.90158,31.73628 -0.25812,36.62092 L 209.19453,70.834742 C 199.67763,61.452214 186.61219,55.64934 172.18484,55.64934 Z"
     id="path11"
     inkscape:connector-curvature="0" /><g
     id="g13"
     transform="translate(0,-212)" /><g
     id="g15"
     transform="translate(0,-212)" /><g
     id="g17"
     transform="translate(0,-212)" /><g
     id="g19"
     transform="translate(0,-212)" /><g
     id="g21"
     transform="translate(0,-212)" /><g
     id="g23"
     transform="translate(0,-212)" /><g
     id="g25"
     transform="translate(0,-212)" /><g
     id="g27"
     transform="translate(0,-212)" /><g
     id="g29"
     transform="translate(0,-212)" /><g
     id="g31"
     transform="translate(0,-212)" /><g
     id="g33"
     transform="translate(0,-212)" /><g
     id="g35"
     transform="translate(0,-212)" /><g
     id="g37"
     transform="translate(0,-212)" /><g
     id="g39"
     transform="translate(0,-212)" /><g
     id="g41"
     transform="translate(0,-212)" /><ellipse
     style="fill:none;fill-opacity:1;stroke:#ffffff;stroke-width:9.7054739;stroke-miterlimit:4;stroke-dasharray:none;stroke-opacity:1"
     cx="145.39882"
     cy="144.69104"
     id="circle3-6"
     rx="140.6395"
     ry="140.48355" /><circle
     style="opacity:1;fill:#07ff00;fill-opacity:1;fill-rule:nonzero;stroke:#ffffff;stroke-width:16.99967003;stroke-linecap:butt;stroke-linejoin:miter;stroke-miterlimit:4;stroke-dasharray:none;stroke-opacity:1"
     id="path8111"
     cx="243.83224"
     cy="243.83224"
     r="47.667919" /></svg>