<?xml version="1.0" encoding="UTF-8" standalone="no"?>
<!-- Generator: Adobe Illustrator 19.0.0, SVG Export Plug-In . SVG Version: 6.00 Build 0)  -->

<svg
   xmlns:dc="http://purl.org/dc/elements/1.1/"
   xmlns:cc="http://creativecommons.org/ns#"
   xmlns:rdf="http://www.w3.org/1999/02/22-rdf-syntax-ns#"
   xmlns:svg="http://www.w3.org/2000/svg"
   xmlns="http://www.w3.org/2000/svg"
   xmlns:sodipodi="http://sodipodi.sourceforge.net/DTD/sodipodi-0.dtd"
   xmlns:inkscape="http://www.inkscape.org/namespaces/inkscape"
   version="1.1"
   id="Layer_1"
   x="0px"
   y="0px"
   viewBox="0 0 300 300"
   xml:space="preserve"
   inkscape:version="0.91 r13725"
   sodipodi:docname="symbol-bank-contents.svg"
   width="300"
   height="300"><metadata
     id="metadata59"><rdf:RDF><cc:Work
         rdf:about=""><dc:format>image/svg+xml</dc:format><dc:type
           rdf:resource="http://purl.org/dc/dcmitype/StillImage" /><dc:title /></cc:Work></rdf:RDF></metadata><defs
     id="defs57" /><sodipodi:namedview
     pagecolor="#ffffff"
     bordercolor="#666666"
     borderopacity="1"
     objecttolerance="10"
     gridtolerance="10"
     guidetolerance="10"
     inkscape:pageopacity="0"
     inkscape:pageshadow="2"
     inkscape:window-width="1920"
     inkscape:window-height="1017"
     id="namedview55"
     showgrid="false"
     inkscape:zoom="2.6074564"
     inkscape:cx="-12.153019"
     inkscape:cy="157.70202"
     inkscape:window-x="1912"
     inkscape:window-y="-8"
     inkscape:window-maximized="1"
     inkscape:current-layer="Layer_1" /><circle
     style="fill:#273640;fill-opacity:0.39215687"
     cx="155"
     cy="155"
     r="145"
     id="circle3-6" /><circle
     style="fill:#7c9ae8;fill-opacity:1;stroke-width:0.97355068"
     cx="144.23299"
     cy="142.69893"
     r="141.16484"
     id="circle3" /><path
     style="fill:#506ebb;fill-opacity:1"
     d="M 280.00903,178.14627 162.85583,60.993621 119.32354,97.283836 85.110334,200.34316 166.31827,281.55109 c 54.77092,-9.88492 98.84299,-50.52967 113.69076,-103.40482 z"
     id="path5"
     inkscape:connector-curvature="0" /><polygon
     style="fill:#ccc3c3;fill-opacity:1"
     points="216.35,118.519 295.65,118.519 256,158.168 "
     id="polygon7"
     transform="matrix(0.56640625,0,0,0.56640625,-4.6021861,-6.1363096)" /><g
     id="g9"
     transform="matrix(0.56640625,0,0,0.56640625,-4.6021861,-6.1363096)"
     style="fill:#f4f4f4;fill-opacity:1"><polygon
       style="fill:#f4f4f4;fill-opacity:1"
       points="255.426,118.519 255.426,157.594 256,158.168 295.65,118.519 "
       id="polygon11" /><path
       style="fill:#f4f4f4;fill-opacity:1"
       d="m 139.424,308.191 c 0,-64.383 52.193,-163.206 116.576,-163.206 64.383,0 116.576,98.823 116.576,163.206 0,64.383 -52.193,92.186 -116.576,92.186 -64.383,0 -116.576,-27.803 -116.576,-92.186 z"
       id="path13"
       inkscape:connector-curvature="0" /></g><path
     style="fill:#ccc3c3;fill-opacity:1"
     d="m 140.39782,75.983563 c -0.10818,0 -0.2158,0.0068 -0.32512,0.0079 l 0,144.643737 c 0.10819,0 0.2158,0.005 0.32512,0.005 36.46693,0 66.02938,-15.74779 66.02938,-52.21473 0,-36.46806 -29.56245,-92.442036 -66.02938,-92.442036 z"
     id="path15"
     inkscape:connector-curvature="0" /><circle
     style="fill:#47677c"
     cx="140.39783"
     cy="156.19524"
     r="32.222286"
     id="circle17" /><path
     style="fill:#324a5e"
     d="m 140.39782,123.97291 c -0.10932,0 -0.2158,0.007 -0.32512,0.008 l 0,64.42757 c 0.10819,0.001 0.2158,0.008 0.32512,0.008 17.79535,0 32.22229,-14.42693 32.22229,-32.22228 0,-17.79535 -14.42694,-32.22115 -32.22229,-32.22115 z"
     id="path19"
     inkscape:connector-curvature="0" /><path
     style="fill:#ffd15d"
     d="m 150.33995,150.50451 c 1.25006,0 2.26336,-1.0133 2.26336,-2.26336 l 0,-1.54686 c 0,-4.68701 -4.431,-8.50742 -9.94213,-8.65695 l 0,-0.59076 c 0,-1.25006 -1.0133,-2.26336 -2.26336,-2.26336 -1.25006,0 -2.26336,1.0133 -2.26336,2.26336 l 0,0.59076 c -5.51113,0.14953 -9.94213,3.96994 -9.94213,8.65695 l 0,3.09315 c 0,4.68701 4.431,8.50742 9.94213,8.65582 l 0,11.3825 c -2.9674,-0.12914 -5.41541,-1.96543 -5.41541,-4.13137 l 0,-1.54685 c 0,-1.25006 -1.0133,-2.26336 -2.26336,-2.26336 -1.25006,0 -2.26336,1.0133 -2.26336,2.26336 l 0,1.54685 c 0,4.68701 4.431,8.50742 9.94213,8.65582 l 0,0.5919 c 0,1.25005 1.0133,2.26336 2.26336,2.26336 1.25006,0 2.26336,-1.01331 2.26336,-2.26336 l 0,-0.5919 c 5.51113,-0.1484 9.94213,-3.96937 9.94213,-8.65582 l 0,-3.09314 c 0,-4.68702 -4.431,-8.50743 -9.94213,-8.65696 l 0,-11.38193 c 2.9674,0.12914 5.41541,1.96543 5.41541,4.13137 l 0,1.54685 c 0,1.25063 1.0133,2.26393 2.26336,2.26393 z m -17.6209,-0.71651 0,-3.09314 c 0,-2.16594 2.44801,-4.00336 5.41541,-4.13137 l 0,11.35588 c -2.9674,-0.12914 -5.41541,-1.96543 -5.41541,-4.13137 z m 15.35754,12.81495 0,3.09314 c 0,2.16594 -2.44801,4.00223 -5.41541,4.13137 l 0,-11.35588 c 2.9674,0.12801 5.41541,1.96543 5.41541,4.13137 z"
     id="path21"
     inkscape:connector-curvature="0" /><path
     style="fill:#f4a200"
     d="m 150.33995,150.50451 c 1.25006,0 2.26336,-1.0133 2.26336,-2.26336 l 0,-1.54686 c 0,-4.68701 -4.431,-8.50742 -9.94213,-8.65582 l 0,-0.59076 c 0,-1.25006 -1.0133,-2.26336 -2.26336,-2.26336 -0.11158,0 -0.2175,0.0176 -0.32512,0.0323 l 0,41.95711 c 0.10649,0.0159 0.2141,0.0334 0.32512,0.0334 1.25006,0 2.26336,-1.0133 2.26336,-2.26335 l 0,-0.5919 c 5.51113,-0.1484 9.94213,-3.96937 9.94213,-8.65582 l 0,-3.09314 c 0,-4.68702 -4.431,-8.50743 -9.94213,-8.65582 l 0,-11.3825 c 2.9674,0.12914 5.41541,1.96543 5.41541,4.13136 l 0,1.54686 c 0,1.24836 1.0133,2.26166 2.26336,2.26166 z m -2.26336,12.09844 0,3.09314 c 0,2.16594 -2.44914,4.00223 -5.41541,4.13137 l 0,-11.35588 c 2.9674,0.12801 5.41541,1.96543 5.41541,4.13137 z"
     id="path23"
     inkscape:connector-curvature="0" /><g
     id="g25"
     transform="translate(0,-212)" /><g
     id="g27"
     transform="translate(0,-212)" /><g
     id="g29"
     transform="translate(0,-212)" /><g
     id="g31"
     transform="translate(0,-212)" /><g
     id="g33"
     transform="translate(0,-212)" /><g
     id="g35"
     transform="translate(0,-212)" /><g
     id="g37"
     transform="translate(0,-212)" /><g
     id="g39"
     transform="translate(0,-212)" /><g
     id="g41"
     transform="translate(0,-212)" /><g
     id="g43"
     transform="translate(0,-212)" /><g
     id="g45"
     transform="translate(0,-212)" /><g
     id="g47"
     transform="translate(0,-212)" /><g
     id="g49"
     transform="translate(0,-212)" /><g
     id="g51"
     transform="translate(0,-212)" /><g
     id="g53"
     transform="translate(0,-212)" /><ellipse
     style="fill:none;fill-opacity:1;stroke:#ffffff;stroke-width:9.67395782;stroke-miterlimit:4;stroke-dasharray:none;stroke-opacity:1"
     cx="145.54123"
     cy="144.96596"
     id="circle3-9"
     rx="140.75259"
     ry="139.79381" /><circle
     style="opacity:1;fill:#07ff00;fill-opacity:1;fill-rule:nonzero;stroke:#ffffff;stroke-width:16.99967003;stroke-linecap:butt;stroke-linejoin:miter;stroke-miterlimit:4;stroke-dasharray:none;stroke-opacity:1"
     id="path8111"
     cx="243.83224"
     cy="243.83224"
     r="47.667919" /></svg>