<?xml version="1.0" encoding="UTF-8" standalone="no"?>
<!-- Generator: Adobe Illustrator 19.0.0, SVG Export Plug-In . SVG Version: 6.00 Build 0)  -->

<svg
   xmlns:dc="http://purl.org/dc/elements/1.1/"
   xmlns:cc="http://creativecommons.org/ns#"
   xmlns:rdf="http://www.w3.org/1999/02/22-rdf-syntax-ns#"
   xmlns:svg="http://www.w3.org/2000/svg"
   xmlns="http://www.w3.org/2000/svg"
   xmlns:sodipodi="http://sodipodi.sourceforge.net/DTD/sodipodi-0.dtd"
   xmlns:inkscape="http://www.inkscape.org/namespaces/inkscape"
   version="1.1"
   id="Layer_1"
   x="0px"
   y="0px"
   viewBox="0 0 300.00001 300.00001"
   xml:space="preserve"
   inkscape:version="0.92.2 (5c3e80d, 2017-08-06)"
   sodipodi:docname="symbol-farmshop.svg"
   width="300"
   height="300"><metadata
     id="metadata103"><rdf:RDF><cc:Work
         rdf:about=""><dc:format>image/svg+xml</dc:format><dc:type
           rdf:resource="http://purl.org/dc/dcmitype/StillImage" /><dc:title></dc:title></cc:Work></rdf:RDF></metadata><defs
     id="defs101" /><sodipodi:namedview
     pagecolor="#ffffff"
     bordercolor="#666666"
     borderopacity="1"
     objecttolerance="10"
     gridtolerance="10"
     guidetolerance="10"
     inkscape:pageopacity="0"
     inkscape:pageshadow="2"
     inkscape:window-width="1920"
     inkscape:window-height="1017"
     id="namedview99"
     showgrid="false"
     inkscape:zoom="1.8725589"
     inkscape:cx="12.843229"
     inkscape:cy="180.35163"
     inkscape:window-x="-8"
     inkscape:window-y="-8"
     inkscape:window-maximized="1"
     inkscape:current-layer="Layer_1" /><ellipse
     style="fill:#273640;fill-opacity:0.39215687"
     cx="155.03473"
     cy="155.0076"
     id="circle3-4"
     rx="144.96527"
     ry="144.9924" /><ellipse
     style="fill:#7c9ae8;fill-opacity:1;stroke-width:0.9779011"
     cx="142.82857"
     cy="142.85631"
     id="circle3"
     rx="141.7617"
     ry="141.78822" /><path
     style="fill:#506ebb;fill-opacity:1"
     d="m 285.72776,140.6323 -71.73183,-79.916518 -63.32437,121.040978 -60.469906,-58.0187 39.881876,53.70101 -17.3089,-74.94494 -54.941426,26.50173 60.669436,82.39114 -1.61043,27.6104 39.79664,43.23308 c 38.81011,3.17416 118.54146,-23.50475 129.03891,-141.59818 z"
     id="path5-6-0"
     inkscape:connector-curvature="0"
     sodipodi:nodetypes="ccccccccccc" /><path
     style="fill:#324a5e;stroke-width:0.55380493"
     d="M 205.08542,114.77506 H 73.93736 c -5.662607,0 -10.192808,-1.38967 -10.192808,-3.12672 V 62.384935 c 0,-1.737047 4.530201,-3.126717 10.192808,-3.126717 h 131.14806 c 5.66261,0 10.19281,1.38967 10.19281,3.126717 v 49.263405 c 0.2266,1.73705 -4.3036,3.12672 -10.19281,3.12672 z"
     id="path5"
     inkscape:connector-curvature="0" /><rect
     x="77.788368"
     y="74.210793"
     style="fill:#ededed;stroke-width:0.5704174"
     width="123.44667"
     height="43.786198"
     id="rect7" /><polygon
     style="fill:#ff6d3a"
     points="161.477,181.563 102.006,181.563 144.542,120.911 187.471,120.911 "
     id="polygon43"
     transform="matrix(0.57511752,0,0,0.57522516,-5.340286,4.6596236)" /><polygon
     style="fill:#ffffff"
     points="221.735,181.563 161.871,181.563 187.471,120.911 230.4,120.911 "
     id="polygon45"
     transform="matrix(0.57511752,0,0,0.57522516,-5.340286,4.6596236)" /><g
     id="g47"
     transform="matrix(0.57511752,0,0,0.57522516,-5.340286,4.6596236)"><polygon
       style="fill:#ff6d3a"
       points="282.388,181.563 222.523,181.563 231.188,120.911 273.723,120.911 "
       id="polygon49" /><polygon
       style="fill:#ff6d3a"
       points="402.117,181.563 342.646,181.563 316.652,120.911 359.582,120.911 "
       id="polygon51" /></g><polygon
     style="fill:#ffffff"
     points="342.646,181.563 282.782,181.563 274.117,120.911 316.652,120.911 "
     id="polygon53"
     transform="matrix(0.57511752,0,0,0.57522516,-5.340286,4.6596236)" /><g
     id="g974"
     transform="matrix(0.2855285,0,0,0.2855285,66.904704,103.45018)"><path
       id="path862"
       d="M 121.069,118.312 C 85.063,80.325 40.697,89.197 8.033,96.706 c -32.664,7.508 40.65,107.983 105.399,69.202 l 18.921,-8.065 z"
       style="fill:#424242"
       inkscape:connector-curvature="0" /><path
       id="path864"
       d="M 119.688,137.299 C 104.189,123.772 86.594,117.859 64.89,118.77 c -5.173,0.217 -10.379,0.805 -15.579,1.649 -5.866,0.953 -8.235,8.085 -4.129,12.381 2.335,2.443 4.953,4.947 7.874,7.453 15.624,13.411 32.983,20.751 47.626,20.138 h 0.003 c 7.859,-0.33 15.092,-2.843 22.112,-7.684 l 1.459,-1.006 z"
       style="fill:#ef999a"
       inkscape:connector-curvature="0" /><path
       id="path866"
       d="m 390.931,118.312 c 36.007,-37.987 80.372,-29.114 113.036,-21.606 32.664,7.508 -40.65,107.983 -105.399,69.202 l -18.921,-8.065 z"
       style="fill:#424242"
       inkscape:connector-curvature="0" /><path
       id="path868"
       d="m 392.311,137.299 c 15.499,-13.527 33.094,-19.44 54.798,-18.529 5.173,0.217 10.379,0.805 15.579,1.649 5.866,0.953 8.235,8.085 4.129,12.381 -2.335,2.443 -4.953,4.947 -7.874,7.453 -15.624,13.411 -32.983,20.751 -47.626,20.138 h -0.004 c -7.859,-0.33 -15.092,-2.843 -22.112,-7.684 l -1.459,-1.006 z"
       style="fill:#ef999a"
       inkscape:connector-curvature="0" /><path
       id="path870"
       d="m 374.844,326.729 c -0.006,-0.011 -0.013,-0.023 -0.02,-0.035 l 0.025,-0.021 L 343.548,59.842 C 321.786,46.696 293.029,38.969 256,38.969 c -36.46,0 -64.894,7.499 -86.533,20.279 l -1.015,0.594 0.826,0.964 -32.123,265.923 h 0.001 v 0.001 c 0.801,9.146 1.366,17.76 1.932,25.885 h 233.819 c 0.001,0 0.002,10e-4 0.004,0.002 l 0.019,-0.278 c 0.561,-8.059 1.123,-16.601 1.919,-25.664 -10e-4,0.018 -0.003,0.037 -0.005,0.054 z"
       style="fill:#e6e1d7"
       inkscape:connector-curvature="0" /><path
       id="path872"
       d="m 132.353,157.842 -11.284,-39.531 c -8.208,-8.66 -16.852,-14.878 -25.692,-19.239 -4.783,11.001 -8.437,22.855 -10.898,35.479 -2.494,12.794 -3.746,26.259 -3.778,40.199 10.792,0.23 21.881,-2.344 32.731,-8.842 z"
       style="opacity:0.1;enable-background:new"
       inkscape:connector-curvature="0" /><path
       id="path874"
       d="m 122.647,247.036 c 8.94,30.171 12.484,56.599 14.509,79.693 26.203,-48.167 71.533,-50.531 75.271,-100.194 4.895,-65.032 -55.242,-69.228 -29.369,-149.644 L 168.453,59.842 C 107.625,96.585 101.51,175.699 122.647,247.036 Z"
       style="fill:#424242"
       inkscape:connector-curvature="0" /><path
       id="path876"
       d="m 159.577,200.272 c -4.029,-0.415 -7.913,0.356 -11.326,2.035 -2.025,0.996 -3.479,2.928 -3.714,5.174 l -0.003,0.034 c -1.237,12.019 7.244,22.738 18.943,23.942 4.029,0.415 7.913,-0.356 11.326,-2.035 2.026,-0.996 3.479,-2.928 3.714,-5.174 l 0.003,-0.034 c 1.237,-12.018 -7.244,-22.737 -18.943,-23.942 z"
       style="fill:#212121"
       inkscape:connector-curvature="0" /><path
       id="path878"
       d="m 341.82,435.375 c 5.758,39.369 -12.375,56.873 -85.822,56.873 h 0.004 c -73.448,0 -91.58,-17.503 -85.822,-56.873 z"
       style="fill:#d98b8c"
       inkscape:connector-curvature="0" /><path
       id="path880"
       d="m 341.82,435.374 c 25.849,-18.752 28.497,-45.536 31.092,-82.758 -30.026,-14.916 -71.327,-24.128 -116.914,-24.128 -45.586,0 -86.883,9.211 -116.91,24.126 2.595,37.222 5.243,64.006 31.092,82.76 34.977,19.731 85.819,18.834 85.819,18.834 0,0 50.843,0.897 85.821,-18.834 z"
       style="fill:#ef999a"
       inkscape:connector-curvature="0" /><ellipse
       id="ellipse882"
       ry="19.677"
       rx="28.929001"
       cy="384.88101"
       cx="197.588"
       style="fill:#212121"
       transform="matrix(-0.2746,-0.9616,0.9616,-0.2746,-118.2428,680.5587)" /><path
       id="path884"
       d="m 427.521,134.552 c -2.461,-12.625 -6.115,-24.478 -10.898,-35.479 -8.84,4.361 -17.483,10.579 -25.692,19.239 l -11.284,39.531 18.921,8.066 c 10.85,6.498 21.939,9.072 32.731,8.842 -0.032,-13.94 -1.284,-27.405 -3.778,-40.199 z"
       style="opacity:0.1;enable-background:new"
       inkscape:connector-curvature="0" /><path
       id="path886"
       d="m 389.353,247.036 c -8.94,30.171 -12.484,56.599 -14.509,79.693 -26.203,-48.167 -71.533,-50.531 -75.271,-100.194 -4.895,-65.032 55.242,-69.228 29.369,-149.644 l 14.605,-17.049 c 60.828,36.743 66.943,115.857 45.806,187.194 z"
       style="fill:#424242"
       inkscape:connector-curvature="0" /><g
       id="g892"><path
         id="path888"
         d="m 352.423,200.272 c 4.029,-0.415 7.913,0.356 11.326,2.035 2.025,0.996 3.479,2.928 3.714,5.174 l 0.003,0.034 c 1.237,12.019 -7.244,22.738 -18.943,23.942 -4.029,0.415 -7.913,-0.356 -11.326,-2.035 -2.026,-0.996 -3.479,-2.928 -3.714,-5.174 l -0.003,-0.034 c -1.238,-12.018 7.244,-22.737 18.943,-23.942 z"
         style="fill:#212121"
         inkscape:connector-curvature="0" /><ellipse
         id="ellipse890"
         ry="19.677"
         rx="28.929001"
         cy="384.841"
         cx="314.375"
         style="fill:#212121"
         transform="matrix(-0.2746,0.9616,-0.9616,-0.2746,770.7471,188.2237)" /></g><path
       id="path894"
       d="m 204.042,81.052 c -4.03,14.912 -22.223,21.171 -34.653,12.001 -13.392,-9.882 -16.718,-29.972 -15.826,-45.507 0.545,-9.495 5.341,-31.416 19.083,-27.28 17.11,5.15 17.535,32.964 27.522,45.136 4.572,5.57 5.144,10.951 3.874,15.65 z"
       style="fill:#ffcc80"
       inkscape:connector-curvature="0" /><path
       id="path896"
       d="m 179.69,72.449 c -13.392,-9.881 -16.718,-29.972 -15.826,-45.507 0.095,-1.648 0.321,-3.675 0.696,-5.87 -7.625,4.457 -10.578,19.153 -10.998,26.474 -0.892,15.535 2.433,35.627 15.826,45.507 12.43,9.171 30.622,2.911 34.652,-12.001 0.635,-2.347 0.809,-4.862 0.255,-7.488 -7.341,4.324 -17.038,4.467 -24.605,-1.115 z"
       style="opacity:0.1;enable-background:new"
       inkscape:connector-curvature="0" /><path
       id="path898"
       d="m 307.958,81.052 c 4.03,14.912 22.223,21.171 34.653,12.001 13.392,-9.882 16.718,-29.972 15.826,-45.507 -0.545,-9.495 -5.341,-31.416 -19.083,-27.28 -17.11,5.15 -17.535,32.964 -27.522,45.136 -4.573,5.57 -5.144,10.951 -3.874,15.65 z"
       style="fill:#ffcc80"
       inkscape:connector-curvature="0" /><path
       id="path900"
       d="m 332.308,72.449 c 13.392,-9.881 16.718,-29.972 15.826,-45.507 -0.095,-1.648 -0.321,-3.675 -0.696,-5.87 7.625,4.457 10.578,19.153 10.998,26.474 0.892,15.535 -2.433,35.627 -15.826,45.507 -12.43,9.171 -30.622,2.911 -34.652,-12.001 -0.635,-2.347 -0.809,-4.862 -0.255,-7.488 7.342,4.324 17.04,4.467 24.605,-1.115 z"
       style="opacity:0.1;enable-background:new"
       inkscape:connector-curvature="0" /><g
       id="g902" /><g
       id="g904" /><g
       id="g906" /><g
       id="g908" /><g
       id="g910" /><g
       id="g912" /><g
       id="g914" /><g
       id="g916" /><g
       id="g918" /><g
       id="g920" /><g
       id="g922" /><g
       id="g924" /><g
       id="g926" /><g
       id="g928" /><g
       id="g930" /></g><g
     id="g55"
     transform="matrix(0.57511752,0,0,0.57522516,-5.340286,4.6596236)"><path
       style="fill:#eb5425"
       d="m 102.006,181.563 v 14.572 c 0,16.542 13.391,29.932 29.932,29.932 16.541,0 29.932,-13.391 29.932,-29.932 v -14.572 z"
       id="path57"
       inkscape:connector-curvature="0" /><path
       style="fill:#eb5425"
       d="m 222.523,181.563 v 14.572 c 0,16.542 13.391,29.932 29.932,29.932 16.541,0 29.932,-13.391 29.932,-29.932 v -14.572 z"
       id="path59"
       inkscape:connector-curvature="0" /><path
       style="fill:#eb5425"
       d="m 342.646,181.563 v 14.572 c 0,16.542 13.391,29.932 29.932,29.932 v 0 c 16.542,0 29.932,-13.391 29.932,-29.932 v -14.572 z"
       id="path61"
       inkscape:connector-curvature="0" /></g><g
     id="g63"
     transform="matrix(0.57511752,0,0,0.57522516,-5.340286,4.6596236)"><path
       style="fill:#d7d6d4"
       d="m 161.871,181.563 v 14.572 c 0,16.542 13.391,29.932 29.932,29.932 16.541,0 29.932,-13.391 29.932,-29.932 v -14.572 z"
       id="path65"
       inkscape:connector-curvature="0" /><path
       style="fill:#d7d6d4"
       d="m 282.782,181.563 v 14.572 c 0,16.542 13.391,29.932 29.932,29.932 16.542,0 29.932,-13.391 29.932,-29.932 v -14.572 z"
       id="path67"
       inkscape:connector-curvature="0" /></g><g
     id="g69"
     transform="translate(0,-204.12298)" /><g
     id="g71"
     transform="translate(0,-204.12298)" /><g
     id="g73"
     transform="translate(0,-204.12298)" /><g
     id="g75"
     transform="translate(0,-204.12298)" /><g
     id="g77"
     transform="translate(0,-204.12298)" /><g
     id="g79"
     transform="translate(0,-204.12298)" /><g
     id="g81"
     transform="translate(0,-204.12298)" /><g
     id="g83"
     transform="translate(0,-204.12298)" /><g
     id="g85"
     transform="translate(0,-204.12298)" /><g
     id="g87"
     transform="translate(0,-204.12298)" /><g
     id="g89"
     transform="translate(0,-204.12298)" /><g
     id="g91"
     transform="translate(0,-204.12298)" /><g
     id="g93"
     transform="translate(0,-204.12298)" /><g
     id="g95"
     transform="translate(0,-204.12298)" /><g
     id="g97"
     transform="translate(0,-204.12298)" /><ellipse
     style="fill:none;fill-opacity:1;stroke:#ffffff;stroke-width:9.71516991;stroke-miterlimit:4;stroke-dasharray:none;stroke-opacity:1"
     cx="144.86243"
     cy="144.89034"
     id="circle3-2"
     rx="140.83623"
     ry="140.86259" /></svg>