<?xml version="1.0" encoding="UTF-8" standalone="no"?>
<!-- Generator: Adobe Illustrator 19.0.0, SVG Export Plug-In . SVG Version: 6.00 Build 0)  -->

<svg
   xmlns:dc="http://purl.org/dc/elements/1.1/"
   xmlns:cc="http://creativecommons.org/ns#"
   xmlns:rdf="http://www.w3.org/1999/02/22-rdf-syntax-ns#"
   xmlns:svg="http://www.w3.org/2000/svg"
   xmlns="http://www.w3.org/2000/svg"
   xmlns:sodipodi="http://sodipodi.sourceforge.net/DTD/sodipodi-0.dtd"
   xmlns:inkscape="http://www.inkscape.org/namespaces/inkscape"
   version="1.1"
   id="Layer_1"
   x="0px"
   y="0px"
   viewBox="0 0 300 300"
   xml:space="preserve"
   inkscape:version="0.91 r13725"
   sodipodi:docname="symbol-supermarket-contents.svg"
   width="300"
   height="300"><metadata
     id="metadata59"><rdf:RDF><cc:Work
         rdf:about=""><dc:format>image/svg+xml</dc:format><dc:type
           rdf:resource="http://purl.org/dc/dcmitype/StillImage" /><dc:title></dc:title></cc:Work></rdf:RDF></metadata><defs
     id="defs57" /><sodipodi:namedview
     pagecolor="#ffffff"
     bordercolor="#666666"
     borderopacity="1"
     objecttolerance="10"
     gridtolerance="10"
     guidetolerance="10"
     inkscape:pageopacity="0"
     inkscape:pageshadow="2"
     inkscape:window-width="1920"
     inkscape:window-height="1017"
     id="namedview55"
     showgrid="false"
     inkscape:zoom="1.84375"
     inkscape:cx="-178.67605"
     inkscape:cy="190.31956"
     inkscape:window-x="1912"
     inkscape:window-y="-8"
     inkscape:window-maximized="1"
     inkscape:current-layer="Layer_1" /><circle
     style="fill:#273640;fill-opacity:0.39215687"
     cx="155"
     cy="155"
     r="145"
     id="circle3-8" /><circle
     style="fill:#7c9ae8;fill-opacity:1;stroke-width:0.977557"
     cx="143.91525"
     cy="143.91525"
     r="141.74576"
     id="circle3" /><path
     style="fill:#506ebb;fill-opacity:1"
     d="M 161.90694,284.10736 C 227.49961,274.47562 278.80696,220.9304 285.0193,154.28591 L 226.58713,95.853716 157.31791,147.90421 83.857266,74.443562 72.637325,71.659675 55.711973,77.746843 118.54458,140.57945 86.822969,140.0912 l 2.49502,63.61082 14.070121,13.57223 -2.63832,5.89572 61.15715,60.93739 z"
     id="path5"
     inkscape:connector-curvature="0" /><path
     style="fill:#ffffff;fill-opacity:1"
     d="m 177.41401,178.20355 -88.350338,0 0,-82.349264 137.523458,0 -21.62312,64.608284 c -3.51455,10.50117 -14.75715,17.74098 -27.55,17.74098 z"
     id="path7"
     inkscape:connector-curvature="0" /><path
     style="fill:#72ffe4;fill-opacity:1"
     d="m 143.75362,95.853716 0,82.349264 33.66039,0 c 12.79228,0 24.03601,-7.24037 27.55,-17.74098 l 21.62312,-64.608284 -82.83351,0 0,0 z"
     id="path9"
     inkscape:connector-curvature="0" /><path
     style="fill:#324a5e"
     d="m 195.51862,211.53032 -87.32115,0 c -14.771337,0 -26.788212,-12.01687 -26.788212,-26.78818 l 0,-90.947875 c 0,-8.849531 -7.199023,-16.048555 -16.048555,-16.048555 l -9.649296,0 0,-10.740762 9.649863,0 c 14.771309,0 26.789316,12.018008 26.789316,26.789317 l 0,90.947875 c 0,8.84953 7.198478,16.04742 16.047444,16.04742 l 87.32115,0 0,10.74076 -5.6e-4,0 z"
     id="path11"
     inkscape:connector-curvature="0" /><rect
     x="143.75642"
     y="200.78957"
     style="fill:#2b3b4e"
     width="51.7701"
     height="10.740762"
     id="rect13" /><g
     id="g15"
     transform="matrix(0.56640625,0,0,0.56640625,-4.3389832,-4.3390434)"
     style="fill:#ffffff;fill-opacity:1"><circle
       style="fill:#ffffff;fill-opacity:1"
       cx="202.007"
       cy="385.345"
       r="13.714"
       id="circle17" /><path
       style="fill:#ffffff;fill-opacity:1"
       d="m 202.011,408.547 c -12.79,0 -23.193,-10.404 -23.193,-23.193 0,-12.789 10.404,-23.195 23.193,-23.195 12.789,0 23.195,10.405 23.195,23.195 0,12.79 -10.406,23.193 -23.195,23.193 z m 0,-27.426 c -2.334,0 -4.23,1.9 -4.23,4.232 0,2.332 1.898,4.23 4.23,4.23 2.332,0 4.232,-1.898 4.232,-4.23 0,-2.332 -1.9,-4.232 -4.232,-4.232 z"
       id="path19"
       inkscape:connector-curvature="0" /><circle
       style="fill:#ffffff;fill-opacity:1"
       cx="311.71701"
       cy="385.345"
       r="13.714"
       id="circle21" /><path
       style="fill:#ffffff;fill-opacity:1"
       d="m 311.713,408.547 c -12.79,0 -23.195,-10.404 -23.195,-23.193 0,-12.789 10.405,-23.195 23.195,-23.195 12.79,0 23.193,10.405 23.193,23.195 0,12.79 -10.403,23.193 -23.193,23.193 z m 0,-27.426 c -2.334,0 -4.232,1.9 -4.232,4.232 0,2.332 1.9,4.23 4.232,4.23 2.332,0 4.23,-1.898 4.23,-4.23 0.001,-2.332 -1.896,-4.232 -4.23,-4.232 z"
       id="path23"
       inkscape:connector-curvature="0" /></g><g
     id="g25"
     transform="translate(0,-212)" /><g
     id="g27"
     transform="translate(0,-212)" /><g
     id="g29"
     transform="translate(0,-212)" /><g
     id="g31"
     transform="translate(0,-212)" /><g
     id="g33"
     transform="translate(0,-212)" /><g
     id="g35"
     transform="translate(0,-212)" /><g
     id="g37"
     transform="translate(0,-212)" /><g
     id="g39"
     transform="translate(0,-212)" /><g
     id="g41"
     transform="translate(0,-212)" /><g
     id="g43"
     transform="translate(0,-212)" /><g
     id="g45"
     transform="translate(0,-212)" /><g
     id="g47"
     transform="translate(0,-212)" /><g
     id="g49"
     transform="translate(0,-212)" /><g
     id="g51"
     transform="translate(0,-212)" /><g
     id="g53"
     transform="translate(0,-212)" /><circle
     style="fill:none;fill-opacity:1;stroke:#ffffff;stroke-width:9.69265556;stroke-miterlimit:4;stroke-dasharray:none;stroke-opacity:1"
     cx="145.23712"
     cy="145.23712"
     r="140.5435"
     id="circle3-7" /><circle
     style="opacity:1;fill:#07ff00;fill-opacity:1;fill-rule:nonzero;stroke:#ffffff;stroke-width:16.99967003;stroke-linecap:butt;stroke-linejoin:miter;stroke-miterlimit:4;stroke-dasharray:none;stroke-opacity:1"
     id="path8111"
     cx="243.83224"
     cy="243.83224"
     r="47.667919" /></svg>