<?xml version="1.0" encoding="UTF-8" standalone="no"?>
<!-- Generator: Adobe Illustrator 19.0.0, SVG Export Plug-In . SVG Version: 6.00 Build 0)  -->

<svg
   xmlns:dc="http://purl.org/dc/elements/1.1/"
   xmlns:cc="http://creativecommons.org/ns#"
   xmlns:rdf="http://www.w3.org/1999/02/22-rdf-syntax-ns#"
   xmlns:svg="http://www.w3.org/2000/svg"
   xmlns="http://www.w3.org/2000/svg"
   xmlns:sodipodi="http://sodipodi.sourceforge.net/DTD/sodipodi-0.dtd"
   xmlns:inkscape="http://www.inkscape.org/namespaces/inkscape"
   version="1.1"
   id="Layer_1"
   x="0px"
   y="0px"
   viewBox="0 0 300.00001 300.00001"
   xml:space="preserve"
   inkscape:version="0.91 r13725"
   sodipodi:docname="symbol-fish-and-chips-contents.svg"
   width="300"
   height="300"><metadata
     id="metadata75"><rdf:RDF><cc:Work
         rdf:about=""><dc:format>image/svg+xml</dc:format><dc:type
           rdf:resource="http://purl.org/dc/dcmitype/StillImage" /><dc:title></dc:title></cc:Work></rdf:RDF></metadata><defs
     id="defs73" /><sodipodi:namedview
     pagecolor="#ffffff"
     bordercolor="#666666"
     borderopacity="1"
     objecttolerance="10"
     gridtolerance="10"
     guidetolerance="10"
     inkscape:pageopacity="0"
     inkscape:pageshadow="2"
     inkscape:window-width="1920"
     inkscape:window-height="1017"
     id="namedview71"
     showgrid="false"
     inkscape:zoom="1.8535718"
     inkscape:cx="-133.42954"
     inkscape:cy="204.21433"
     inkscape:window-x="1912"
     inkscape:window-y="-8"
     inkscape:window-maximized="1"
     inkscape:current-layer="Layer_1" /><ellipse
     style="fill:#273640;fill-opacity:0.39215686;stroke:none"
     cx="155.38876"
     cy="155.41818"
     id="circle3-7"
     rx="144.61124"
     ry="144.58182" /><ellipse
     style="fill:#748993;fill-opacity:1;stroke-width:0.97361469"
     cx="143.0318"
     cy="143.54111"
     id="circle3"
     rx="140.79562"
     ry="140.76698" /><path
     inkscape:connector-curvature="0"
     id="path11-6"
     d="M 232.48882,76.575433 181.5396,103.47648 70.224253,214.17043 147.3952,285.1445 C 208.66842,279.32988 282.85499,228.81345 288.92099,134.24765 250.7729,93.587604 246.55764,91.802901 232.48882,76.575433 Z"
     style="fill:#414d53;fill-opacity:1"
     sodipodi:nodetypes="cccccc" /><g
     id="g41"
     transform="translate(0,-209.28698)" /><g
     id="g43"
     transform="translate(0,-209.28698)" /><g
     id="g45"
     transform="translate(0,-209.28698)" /><g
     id="g47"
     transform="translate(0,-209.28698)" /><g
     id="g49"
     transform="translate(0,-209.28698)" /><g
     id="g51"
     transform="translate(0,-209.28698)" /><g
     id="g53"
     transform="translate(0,-209.28698)" /><g
     id="g55"
     transform="translate(0,-209.28698)" /><g
     id="g57"
     transform="translate(0,-209.28698)" /><g
     id="g59"
     transform="translate(0,-209.28698)" /><g
     id="g61"
     transform="translate(0,-209.28698)" /><g
     id="g63"
     transform="translate(0,-209.28698)" /><g
     id="g65"
     transform="translate(0,-209.28698)" /><g
     id="g67"
     transform="translate(0,-209.28698)" /><g
     id="g69"
     transform="translate(0,-209.28698)" /><ellipse
     style="fill:none;fill-opacity:1;stroke:#ffffff;stroke-width:9.69699383;stroke-miterlimit:4;stroke-dasharray:none;stroke-opacity:1"
     cx="144.48653"
     cy="144.99573"
     id="circle3-3"
     rx="140.22942"
     ry="140.20088" /><g
     id="g4602"
     transform="matrix(0.55708495,0,0,0.55708495,-6.563678,3.3299082)"><g
       transform="matrix(0.90289878,0,0,0.90289878,-20.698971,26.501025)"
       id="g8"><path
         id="path4"
         d="m 200.211,256.158 c 13.117,9.83 26.233,16.161 39.35,19.06 L 224.382,124.9 c -0.521,-5.134 -5.125,-8.876 -10.259,-8.322 l -18.511,1.987 c -5.087,0.549 -8.783,5.101 -8.266,10.189 z"
         style="fill:#facb1b"
         inkscape:connector-curvature="0" /><path
         id="path6"
         d="m 312.511,255.632 14.378,-125.598 c 0.586,-5.129 -3.119,-9.765 -8.253,-10.314 l -18.511,-1.987 c -5.087,-0.545 -9.663,3.114 -10.245,8.197 l -17.082,149.225 c 13.238,-2.985 26.475,-9.478 39.713,-19.523 z"
         style="fill:#facb1b"
         inkscape:connector-curvature="0" /></g><g
       transform="matrix(0.90289878,0,0,0.90289878,-20.698971,26.501025)"
       id="g16"><path
         id="path10"
         d="m 170.217,239.839 h 11.334 c 13.852,13.852 27.709,23.831 41.56,29.952 l -36.198,-86.528 c -1.983,-4.743 -7.438,-6.982 -12.181,-4.994 l -17.175,7.187 c -4.743,1.983 -6.982,7.438 -4.994,12.181 z"
         style="fill:#fbe158"
         inkscape:connector-curvature="0" /><path
         id="path12"
         d="M 274.641,274.749 V 161.294 c 0,-5.143 -4.166,-9.309 -9.309,-9.309 h -18.618 c -5.139,0 -9.309,4.166 -9.309,9.309 v 113.455 c 12.414,3.099 24.823,3.099 37.236,0 z"
         style="fill:#fbe158"
         inkscape:connector-curvature="0" /><path
         id="path14"
         d="m 330.496,239.839 h 11.334 l 17.655,-42.207 c 1.983,-4.743 -0.251,-10.198 -4.994,-12.181 l -17.175,-7.182 c -4.743,-1.983 -10.198,0.251 -12.181,4.994 l -36.198,86.528 c 13.85,-6.12 27.707,-16.1 41.559,-29.952 z"
         style="fill:#fbe158"
         inkscape:connector-curvature="0" /></g></g><path
     style="fill:#ff9577;stroke-width:0.28800881;fill-opacity:1"
     d="m 232.48838,76.575834 c -10.38545,41.550916 -45.56941,27.472456 -46.94878,26.900646 0,0 -0.002,0.003 -0.005,0.004 l -0.002,0.003 c 0,0 -0.008,-0.007 -0.016,-0.0173 -0.0129,-0.003 -0.0226,-0.007 -0.0226,-0.007 l 0.001,-0.009 c -1.11165,-0.99574 -29.07232,-26.577383 3.84918,-53.972838 9.93001,10.967593 12.6923,20.696965 12.01139,28.771973 6.97838,-4.121577 16.94215,-5.85762 31.13338,-1.674052 z"
     id="path2"
     inkscape:connector-curvature="0" /><path
     style="fill:#ff8662;stroke-width:0.28800881;fill-opacity:1"
     d="m 232.48838,76.575834 c -10.38545,41.550916 -45.56941,27.472456 -46.94878,26.900646 0,0 -0.002,0.003 -0.005,0.004 l 15.82072,-25.230472 c 6.97832,-4.121855 16.94209,-5.857899 31.13332,-1.67433 z"
     id="path4-6"
     inkscape:connector-curvature="0" /><path
     style="fill:#ff9577;stroke-width:0.28800881;fill-opacity:1"
     d="m 167.92059,195.10846 c -2.29652,1.93934 -4.66368,3.71431 -7.06133,5.32991 -22.03014,14.87336 -46.79769,16.79831 -46.79769,16.79831 0,0 -9.20675,-23.62606 -5.06297,-50.26217 0.42153,-2.7241 0.98466,-5.47758 1.71093,-8.24115 0.0378,-0.13833 0.075,-0.27947 0.1125,-0.41802 4.90813,-18.26993 17.01392,-36.90113 43.26794,-49.54126 9.67893,-4.6607 21.27317,-8.50626 35.14451,-11.21636 13.42891,51.30235 -1.38523,80.72898 -21.31389,97.55074 z"
     id="path8"
     inkscape:connector-curvature="0" /><path
     style="fill:#d1724a;stroke-width:0.28800881;fill-opacity:1"
     d="M 114.06157,217.23668 189.23504,97.557592 C 218.44045,209.12374 114.06157,217.23668 114.06157,217.23668 Z"
     id="path10-5"
     inkscape:connector-curvature="0" /><path
     inkscape:connector-curvature="0"
     style="fill:#df2c2c;stroke-width:0.57846874"
     d="m 206.29702,142.69586 c 0.9447,-2.94753 -2.01244,-5.7849 -6.01938,-5.7849 h -18.57905 c -33.03077,24.97352 -66.05821,24.97352 -99.088964,0 H 64.030575 c -4.010261,0 -6.960742,2.8424 -6.01938,5.7849 l 12.213058,71.47457 c 0.916751,2.49332 3.155392,4.58627 6.18371,5.78742 0.0041,0 111.484967,-0.005 111.487627,-0.005 3.02832,-1.20116 5.27629,-3.29158 6.1897,-5.78291 z"
     id="path18" /><path
     inkscape:connector-curvature="0"
     id="SVGCleanerId_0"
     style="fill:#fa5655;stroke-width:0.57846874"
     d="m 172.54445,219.95281 9.15346,-83.04235 c -33.03075,24.971 -66.0582,24.971 -99.088944,0 l 9.15348,83.04689 c 21.282054,0 59.499284,-0.003 80.782004,-0.005 z" /><g
     id="g22"
     transform="matrix(0.66527219,0,0,0.50299133,-38.171858,16.273515)"><path
       inkscape:connector-curvature="0"
       id="SVGCleanerId_0_1_"
       style="fill:#fa5655"
       d="m 316.737,404.936 13.759,-165.097 c -49.65,49.645 -99.295,49.645 -148.945,0 l 13.759,165.106 c 31.99,0 89.436,-0.004 121.427,-0.009 z" /></g><path
     inkscape:connector-curvature="0"
     style="fill:#fbe158;stroke-width:0.46972638"
     d="m 147.46489,184.90539 c 0,7.11279 -5.02662,12.87658 -11.22973,12.87658 h -5.61486 c -6.2031,0 -11.22973,-5.76379 -11.22973,-12.87658 v 0 c 0,-7.11281 5.02706,-12.87657 11.22973,-12.87657 h 5.61486 c 6.20092,0 11.22973,5.76376 11.22973,12.87657 z"
     id="path24" /><circle
     style="opacity:1;fill:#07ff00;fill-opacity:1;fill-rule:nonzero;stroke:#ffffff;stroke-width:16.99967003;stroke-linecap:butt;stroke-linejoin:miter;stroke-miterlimit:4;stroke-dasharray:none;stroke-opacity:1"
     id="path8111"
     cx="243.83224"
     cy="243.83224"
     r="47.667919" /></svg>