<?xml version="1.0" encoding="UTF-8" standalone="no"?>
<!-- Generator: Adobe Illustrator 19.0.0, SVG Export Plug-In . SVG Version: 6.00 Build 0)  -->

<svg
   xmlns:dc="http://purl.org/dc/elements/1.1/"
   xmlns:cc="http://creativecommons.org/ns#"
   xmlns:rdf="http://www.w3.org/1999/02/22-rdf-syntax-ns#"
   xmlns:svg="http://www.w3.org/2000/svg"
   xmlns="http://www.w3.org/2000/svg"
   xmlns:sodipodi="http://sodipodi.sourceforge.net/DTD/sodipodi-0.dtd"
   xmlns:inkscape="http://www.inkscape.org/namespaces/inkscape"
   version="1.1"
   id="Layer_1"
   x="0px"
   y="0px"
   viewBox="0 0 300 300"
   xml:space="preserve"
   inkscape:version="0.91 r13725"
   sodipodi:docname="symbol-mexican-contents.svg"
   width="300"
   height="300"><metadata
     id="metadata75"><rdf:RDF><cc:Work
         rdf:about=""><dc:format>image/svg+xml</dc:format><dc:type
           rdf:resource="http://purl.org/dc/dcmitype/StillImage" /><dc:title></dc:title></cc:Work></rdf:RDF></metadata><defs
     id="defs73" /><sodipodi:namedview
     pagecolor="#ffffff"
     bordercolor="#666666"
     borderopacity="1"
     objecttolerance="10"
     gridtolerance="10"
     guidetolerance="10"
     inkscape:pageopacity="0"
     inkscape:pageshadow="2"
     inkscape:window-width="1920"
     inkscape:window-height="1017"
     id="namedview71"
     showgrid="false"
     inkscape:zoom="1.84375"
     inkscape:cx="-170.80817"
     inkscape:cy="192.35398"
     inkscape:window-x="1912"
     inkscape:window-y="-8"
     inkscape:window-maximized="1"
     inkscape:current-layer="Layer_1" /><ellipse
     style="fill:#273640;fill-opacity:0.39215686;stroke:none;stroke-width:3;stroke-miterlimit:4;stroke-dasharray:none;stroke-opacity:1"
     cx="155"
     cy="155.13028"
     id="circle3-7-0-0"
     rx="145"
     ry="144.86972" /><circle
     style="fill:#748993;fill-opacity:1"
     cx="256"
     cy="6.7670288"
     id="circle3"
     r="0" /><ellipse
     style="fill:#748993;fill-opacity:1;stroke-width:0.97566485"
     cx="143.10486"
     cy="142.97141"
     id="circle3-7"
     rx="141.47141"
     ry="141.3443" /><path
     style="fill:#414d53;fill-opacity:1"
     d="m 281.01315,169.39545 -29.07334,-35.40423 -15.97017,3.82213 -88.87817,-103.368826 -12.91932,89.014386 c 0,0 -89.999952,46.31611 -88.848969,46.31611 l 102.339699,114.793 c 0.0851,0 0.17065,0.003 0.25572,0.003 52.31475,0.60204 125.16554,-48.7461 133.09455,-115.1754 z"
     id="path5"
     inkscape:connector-curvature="0"
     sodipodi:nodetypes="ccccccccc" /><path
     style="fill:#eebb46"
     d="m 236.05115,166.72213 c -8.13643,9.59252 -34.38086,16.09638 -96.66686,16.09638 -62.286022,0 -88.855006,-5.20286 -96.666881,-16.09638 l -16.110859,-32.19334 225.55546,0 -16.11086,32.19334 z"
     id="path7"
     inkscape:connector-curvature="0" /><path
     style="fill:#e2982b"
     d="m 139.05918,134.52879 0,48.28915 c 0.11045,0 0.21467,0.001 0.32511,0.001 62.28543,0 88.52987,-6.50386 96.66686,-16.09639 l 16.11086,-32.19333 -113.10283,0 z"
     id="path9"
     inkscape:connector-curvature="0" /><ellipse
     style="fill:#f3d64e"
     cx="139.38426"
     cy="134.52875"
     rx="112.77771"
     ry="16.096384"
     id="ellipse11" /><g
     id="g13"
     transform="matrix(0.56640625,0,0,0.56589737,-5.6157346,-26.437352)"><path
       style="fill:#eebb46"
       d="m 256,256 c -0.191,0 -0.383,0 -0.574,0 l 0,56.889 c 0.191,0 0.383,0 0.574,0 109.966,0 199.111,-12.734 199.111,-28.444 C 455.111,268.735 365.966,256 256,256 Z"
       id="path15"
       inkscape:connector-curvature="0" /><path
       style="fill:#eebb46"
       d="m 195.663,284.565 c 12.483,8.189 34.606,13.671 60.337,13.671 25.965,0 47.926,-5.479 60.337,-13.791 0,-10.3 -0.291,-20.397 -0.843,-30.227 C 310.698,168.64 285.889,103.435 256,103.435 c -29.889,0 -54.698,65.205 -59.494,150.783 -0.551,9.829 -0.843,20.047 -0.843,30.347 z"
       id="path17"
       inkscape:connector-curvature="0" /></g><path
     style="fill:#e2982b"
     d="m 173.55955,134.52879 c 0,-5.82874 -0.16483,-11.54261 -0.47748,-17.10538 -2.71649,-48.428395 -16.76846,-85.327733 -33.69778,-85.327733 -0.10931,0 -0.21693,0.01924 -0.32511,0.0215 l 0,110.211363 c 0.10931,0 0.2158,0.004 0.32511,0.004 14.70674,0.001 27.14559,-3.09942 34.17526,-7.80372 z"
     id="path19"
     inkscape:connector-curvature="0" /><g
     id="g21"
     transform="matrix(0.56640625,0,0,0.56589737,-5.6157346,-26.437352)"><polygon
       style="fill:#9a421c"
       points="101.326,341.295 120.268,319.995 128.908,347.157 "
       id="polygon23" /><polygon
       style="fill:#9a421c"
       points="142.155,350.668 161.018,325.311 173.185,354.476 "
       id="polygon25" /><polygon
       style="fill:#9a421c"
       points="189.63,356.159 208.524,328.816 222.384,359.022 "
       id="polygon27" /></g><g
     id="g29"
     transform="matrix(0.56640625,0,0,0.56589737,-5.6157346,-26.437352)"><polygon
       style="fill:#804000"
       points="410.674,341.295 391.732,319.995 383.091,347.157 "
       id="polygon31" /><polygon
       style="fill:#804000"
       points="369.845,350.668 350.984,325.311 338.815,354.476 "
       id="polygon33" /><polygon
       style="fill:#804000"
       points="322.37,356.159 303.476,328.816 289.616,359.022 "
       id="polygon35" /></g><polygon
     style="fill:#9a421c"
     points="238.761,360.788 256,330.499 273.239,360.788 "
     id="polygon37"
     transform="matrix(0.56640625,0,0,0.56589737,-5.6157346,-26.437352)" /><polygon
     style="fill:#804000"
     points="256,330.499 255.426,331.507 255.426,360.788 273.239,360.788 "
     id="polygon39"
     transform="matrix(0.56640625,0,0,0.56589737,-5.6157346,-26.437352)" /><g
     id="g41"
     transform="translate(0,-212)" /><g
     id="g43"
     transform="translate(0,-212)" /><g
     id="g45"
     transform="translate(0,-212)" /><g
     id="g47"
     transform="translate(0,-212)" /><g
     id="g49"
     transform="translate(0,-212)" /><g
     id="g51"
     transform="translate(0,-212)" /><g
     id="g53"
     transform="translate(0,-212)" /><g
     id="g55"
     transform="translate(0,-212)" /><g
     id="g57"
     transform="translate(0,-212)" /><g
     id="g59"
     transform="translate(0,-212)" /><g
     id="g61"
     transform="translate(0,-212)" /><g
     id="g63"
     transform="translate(0,-212)" /><g
     id="g65"
     transform="translate(0,-212)" /><g
     id="g67"
     transform="translate(0,-212)" /><g
     id="g69"
     transform="translate(0,-212)" /><ellipse
     style="fill:none;fill-opacity:1;stroke:#ffffff;stroke-width:9.69238853;stroke-miterlimit:4;stroke-dasharray:none;stroke-opacity:1"
     cx="145.14807"
     cy="145.01378"
     id="circle3-7-0"
     rx="140.53963"
     ry="140.41336" /><circle
     style="opacity:1;fill:#07ff00;fill-opacity:1;fill-rule:nonzero;stroke:#ffffff;stroke-width:16.99967003;stroke-linecap:butt;stroke-linejoin:miter;stroke-miterlimit:4;stroke-dasharray:none;stroke-opacity:1"
     id="path8111"
     cx="243.83224"
     cy="243.83224"
     r="47.667919" /></svg>