<?xml version="1.0" encoding="UTF-8" standalone="no"?>
<!-- Generator: Adobe Illustrator 19.0.0, SVG Export Plug-In . SVG Version: 6.00 Build 0)  -->

<svg
   xmlns:dc="http://purl.org/dc/elements/1.1/"
   xmlns:cc="http://creativecommons.org/ns#"
   xmlns:rdf="http://www.w3.org/1999/02/22-rdf-syntax-ns#"
   xmlns:svg="http://www.w3.org/2000/svg"
   xmlns="http://www.w3.org/2000/svg"
   xmlns:sodipodi="http://sodipodi.sourceforge.net/DTD/sodipodi-0.dtd"
   xmlns:inkscape="http://www.inkscape.org/namespaces/inkscape"
   version="1.1"
   id="Layer_1"
   x="0px"
   y="0px"
   viewBox="0 0 300 300"
   xml:space="preserve"
   inkscape:version="0.91 r13725"
   sodipodi:docname="symbol-toilets-contents.svg"
   width="300"
   height="300"><metadata
     id="metadata51"><rdf:RDF><cc:Work
         rdf:about=""><dc:format>image/svg+xml</dc:format><dc:type
           rdf:resource="http://purl.org/dc/dcmitype/StillImage" /><dc:title></dc:title></cc:Work></rdf:RDF></metadata><defs
     id="defs49" /><sodipodi:namedview
     pagecolor="#ffffff"
     bordercolor="#666666"
     borderopacity="1"
     objecttolerance="10"
     gridtolerance="10"
     guidetolerance="10"
     inkscape:pageopacity="0"
     inkscape:pageshadow="2"
     inkscape:window-width="1920"
     inkscape:window-height="1017"
     id="namedview47"
     showgrid="false"
     inkscape:zoom="2.6074563"
     inkscape:cx="168.73592"
     inkscape:cy="194.91565"
     inkscape:window-x="1912"
     inkscape:window-y="-8"
     inkscape:window-maximized="1"
     inkscape:current-layer="Layer_1" /><circle
     style="fill:#273640;fill-opacity:0.39215686"
     cx="155"
     cy="155"
     r="145"
     id="circle3-5" /><g
     id="g17"
     transform="translate(0,-212)" /><g
     id="g19"
     transform="translate(0,-212)" /><g
     id="g21"
     transform="translate(0,-212)" /><g
     id="g23"
     transform="translate(0,-212)" /><g
     id="g25"
     transform="translate(0,-212)" /><g
     id="g27"
     transform="translate(0,-212)" /><g
     id="g29"
     transform="translate(0,-212)" /><g
     id="g31"
     transform="translate(0,-212)" /><g
     id="g33"
     transform="translate(0,-212)" /><g
     id="g35"
     transform="translate(0,-212)" /><g
     id="g37"
     transform="translate(0,-212)" /><g
     id="g39"
     transform="translate(0,-212)" /><g
     id="g41"
     transform="translate(0,-212)" /><g
     id="g43"
     transform="translate(0,-212)" /><g
     id="g45"
     transform="translate(0,-212)" /><circle
     style="fill:#7c9ae8;fill-opacity:1;stroke-width:0.97090572"
     cx="143.79494"
     cy="143.79494"
     r="140.78133"
     id="circle3" /><path
     style="fill:#506ebb;fill-opacity:1"
     d="m 202.86264,73.471372 c -0.8306,1.01031 -22.95539,12.559305 -25.99142,24.131043 -0.8425,3.211195 20.96469,16.450385 22.45759,19.800345 3.20314,7.1876 -11.96437,3.29219 -16.20737,-0.48568 -12.87522,-11.4638 -38.18164,-31.716358 -45.8127,-40.047956 -7.5577,-8.251491 2.56654,33.198666 -3.2675,27.603376 C 119.77822,90.793168 104.97535,80.8551 92.997337,69.226673 81.99532,58.545735 60.331635,84.389243 66.975002,93.461984 c 4.676284,6.386363 18.425671,15.502156 17.18288,20.473816 -36.857188,19.51327 29.133278,90.38765 -11.650269,97.37484 l 88.686497,71.61739 c 62.2797,-8.20401 117.21588,-61.27672 123.3205,-133.0158 z"
     id="path5"
     inkscape:connector-curvature="0"
     sodipodi:nodetypes="csssssssccccc" /><path
     inkscape:connector-curvature="0"
     style="fill:#ffc61b;fill-opacity:1"
     d="m 193.004,107.90627 -8.77929,0.003 c -9.40914,0.003 -17.18364,5.05914 -20.29717,6.75722 -3.82268,2.07985 -6.94697,7.34233 -6.94697,11.69233 l 0,36.90929 c 0,4.35 3.55929,7.9093 7.90929,7.9093 l 5.27268,0 0,36.9093 c 0,2.91076 2.36191,5.27267 5.27267,5.27267 l 26.36338,0 c 2.91076,0 5.27268,-2.36248 5.27268,-5.27267 l 0,-36.9093 5.27267,0 c 4.35,0 7.9093,-3.5593 7.9093,-7.9093 l 0,-36.90929 c 0,-4.35 -3.1243,-9.61192 -6.94414,-11.69516 -3.39561,-1.85102 -10.98035,-6.76006 -20.3051,-6.75723 z"
     id="path8090" /><path
     inkscape:connector-curvature="0"
     style="fill:#ffffff"
     d="m 141.16254,81.540033 c 0,-2.913027 -2.35965,-5.272676 -5.27268,-5.272676 -2.91303,0 -5.27267,2.359649 -5.27267,5.272676 l 0,116.000027 c 0,2.91303 2.35964,5.27268 5.27267,5.27268 2.91303,0 5.27268,-2.35965 5.27268,-5.27268 l 0,-116.000027 z"
     id="path8092" /><g
     id="g8094"
     transform="matrix(0.56640625,0,0,0.56640625,-9.1101695,-5.4599647)"
     style="fill:#ffc61b;fill-opacity:1"><path
       inkscape:connector-curvature="0"
       style="fill:#ffc61b;fill-opacity:1"
       d="m 195.491,158.255 c 0,17.766 -14.429,32.582 -32.582,32.582 -18.544,0 -32.582,-15.178 -32.582,-32.582 0,-18.004 14.583,-32.582 32.582,-32.582 18.004,0 32.582,14.578 32.582,32.582 z"
       id="path8096" /><path
       inkscape:connector-curvature="0"
       style="fill:#ffc61b;fill-opacity:1"
       d="m 381.673,158.255 c 0,17.766 -14.429,32.582 -32.582,32.582 -18.544,0 -32.582,-15.178 -32.582,-32.582 0,-18.004 14.583,-32.582 32.582,-32.582 18.004,0 32.582,14.578 32.582,32.582 z"
       id="path8098" /><path
       inkscape:connector-curvature="0"
       style="fill:#ffc61b;fill-opacity:1"
       d="m 218.764,311.855 -32.819,-98.462 c -2.43,-7.284 -10.701,-13.247 -18.381,-13.247 l -9.309,0 c -7.68,0 -15.951,5.962 -18.381,13.247 l -32.819,98.462 28.867,0 6.931,68.706 c 0.833,3.347 4.673,5.767 9.142,5.767 l 21.83,0 c 4.468,0 8.308,-2.42 9.146,-5.767 l 6.926,-68.706 28.867,0 z"
       id="path8100" /></g><g
     id="g8102"
     transform="matrix(0.56640625,0,0,0.56640625,-9.1101695,-5.4599647)"
     style="fill:#ffedb5;fill-opacity:1"><path
       inkscape:connector-curvature="0"
       style="fill:#ffedb5;fill-opacity:1"
       d="m 316.509,158.255 c 0,17.403 14.038,32.582 32.582,32.582 l 0,-65.164 c -17.999,0 -32.582,14.578 -32.582,32.582 z"
       id="path8104" /><path
       inkscape:connector-curvature="0"
       style="fill:#ffedb5;fill-opacity:1"
       d="m 349.091,200.15 -7.759,0 c -16.603,0 -30.338,8.932 -35.835,11.925 -6.744,3.682 -12.26,12.972 -12.26,20.652 l 0,65.164 c 0,7.68 6.284,13.964 13.964,13.964 l 9.309,0 0,65.164 c 0,5.139 4.17,9.309 9.309,9.309 l 23.273,0 0,-186.178 z"
       id="path8106" /><path
       inkscape:connector-curvature="0"
       style="fill:#ffedb5;fill-opacity:1"
       d="m 130.327,158.255 c 0,17.403 14.038,32.582 32.582,32.582 l 0,-65.164 c -17.999,0 -32.582,14.578 -32.582,32.582 z"
       id="path8108" /><path
       inkscape:connector-curvature="0"
       style="fill:#ffedb5;fill-opacity:1"
       d="m 162.909,200.145 -4.655,0 c -7.68,0 -15.951,5.962 -18.381,13.247 l -32.819,98.462 28.867,0 6.931,68.706 c 0.833,3.347 4.673,5.767 9.142,5.767 l 10.915,0 0,-186.182 z"
       id="path8110" /></g><g
     id="g8112"
     transform="translate(-451.25424,-407.25424)" /><g
     id="g8114"
     transform="translate(-451.25424,-407.25424)" /><g
     id="g8116"
     transform="translate(-451.25424,-407.25424)" /><g
     id="g8118"
     transform="translate(-451.25424,-407.25424)" /><g
     id="g8120"
     transform="translate(-451.25424,-407.25424)" /><g
     id="g8122"
     transform="translate(-451.25424,-407.25424)" /><g
     id="g8124"
     transform="translate(-451.25424,-407.25424)" /><g
     id="g8126"
     transform="translate(-451.25424,-407.25424)" /><g
     id="g8128"
     transform="translate(-451.25424,-407.25424)" /><g
     id="g8130"
     transform="translate(-451.25424,-407.25424)" /><g
     id="g8132"
     transform="translate(-451.25424,-407.25424)" /><g
     id="g8134"
     transform="translate(-451.25424,-407.25424)" /><g
     id="g8136"
     transform="translate(-451.25424,-407.25424)" /><g
     id="g8138"
     transform="translate(-451.25424,-407.25424)" /><g
     id="g8140"
     transform="translate(-451.25424,-407.25424)" /><circle
     style="fill:none;stroke:#ffffff;stroke-width:9.66761971;stroke-miterlimit:4;stroke-dasharray:none;stroke-opacity:1"
     cx="145.29494"
     cy="145.29494"
     r="140.18048"
     id="circle3-7" /><circle
     style="opacity:1;fill:#07ff00;fill-opacity:1;fill-rule:nonzero;stroke:#ffffff;stroke-width:16.99967003;stroke-linecap:butt;stroke-linejoin:miter;stroke-miterlimit:4;stroke-dasharray:none;stroke-opacity:1"
     id="path8111"
     cx="243.83224"
     cy="243.83224"
     r="47.667919" /></svg>