<?xml version="1.0" encoding="UTF-8" standalone="no"?>
<!-- Generator: Adobe Illustrator 19.0.0, SVG Export Plug-In . SVG Version: 6.00 Build 0)  -->

<svg
   xmlns:dc="http://purl.org/dc/elements/1.1/"
   xmlns:cc="http://creativecommons.org/ns#"
   xmlns:rdf="http://www.w3.org/1999/02/22-rdf-syntax-ns#"
   xmlns:svg="http://www.w3.org/2000/svg"
   xmlns="http://www.w3.org/2000/svg"
   xmlns:sodipodi="http://sodipodi.sourceforge.net/DTD/sodipodi-0.dtd"
   xmlns:inkscape="http://www.inkscape.org/namespaces/inkscape"
   version="1.1"
   id="Layer_1"
   x="0px"
   y="0px"
   viewBox="0 0 300 300"
   xml:space="preserve"
   inkscape:version="0.91 r13725"
   sodipodi:docname="symbol-bakery-contents.svg"
   width="300"
   height="300"><metadata
     id="metadata53"><rdf:RDF><cc:Work
         rdf:about=""><dc:format>image/svg+xml</dc:format><dc:type
           rdf:resource="http://purl.org/dc/dcmitype/StillImage" /><dc:title /></cc:Work></rdf:RDF></metadata><defs
     id="defs51" /><sodipodi:namedview
     pagecolor="#ffffff"
     bordercolor="#666666"
     borderopacity="1"
     objecttolerance="10"
     gridtolerance="10"
     guidetolerance="10"
     inkscape:pageopacity="0"
     inkscape:pageshadow="2"
     inkscape:window-width="1920"
     inkscape:window-height="1017"
     id="namedview49"
     showgrid="false"
     inkscape:zoom="1.8437501"
     inkscape:cx="-40.602175"
     inkscape:cy="184.13606"
     inkscape:window-x="1912"
     inkscape:window-y="-8"
     inkscape:window-maximized="1"
     inkscape:current-layer="Layer_1" /><circle
     style="fill:#273640;fill-opacity:0.39215686"
     cx="155"
     cy="155"
     r="145"
     id="circle3-4" /><ellipse
     style="fill:#748993;fill-opacity:1;stroke-width:0.98016298"
     cx="143.87637"
     cy="142.96112"
     id="circle3"
     rx="142.12363"
     ry="141.03888" /><path
     style="fill:#414d53;fill-opacity:1"
     d="M 123.0993,162.75958 92.690078,215.05247 160.349,282.71139 c 55.30787,-7.37574 100.75688,-45.92252 118.09571,-97.40205 L 186.72428,93.588913 186.3748,95.496 155.84664,64.967839 l -11.1616,6.491582 -6.61449,-6.614492 -4.39418,5.316855 -3.58082,18.489766 -4.55674,55.39283 -2.43951,18.7152 z"
     id="path5"
     inkscape:connector-curvature="0" /><circle
     style="fill:#ff314f"
     cx="141"
     cy="139"
     r="64.444572"
     id="circle7" /><path
     style="fill:#a30f44"
     d="m 141,74.555397 c 35.59184,0 64.44457,28.852733 64.44457,64.444573 0,35.59183 -28.85273,64.44457 -64.44457,64.44457 l 0,-128.889143 z"
     id="path9"
     inkscape:connector-curvature="0" /><path
     style="fill:#ffc61b"
     d="m 179.91834,219.5554 -77.83781,0 c -5.53266,0 -10.356175,-3.76491 -11.697425,-9.1333 l -13.827109,-55.31071 128.889144,0 -13.82825,55.31071 c -1.34238,5.36839 -6.16476,9.1333 -11.69855,9.1333 z"
     id="path11"
     inkscape:connector-curvature="0" /><path
     style="fill:#eaa22f"
     d="m 140.67488,155.11083 0,64.44457 39.24346,0 c 5.53322,0 10.35617,-3.76604 11.69742,-9.1333 l 13.82824,-55.31071 -64.76912,0 z"
     id="path13"
     inkscape:connector-curvature="0" /><path
     style="fill:#ffffff"
     d="m 123.42441,71.382389 c 0,-6.080371 3.93426,-8.787792 8.7878,-8.787792 4.8541,0 8.78779,3.934257 8.78779,8.787792 0,-4.854101 3.93426,-8.787792 8.78779,-8.787792 4.85354,0 8.7878,3.772832 8.7878,8.787792 0,12.294415 -17.57559,19.040313 -17.57559,19.040313 0,0 -17.57559,-6.657539 -17.57559,-19.040313 z"
     id="path15"
     inkscape:connector-curvature="0" /><path
     style="fill:#d0d1d3"
     d="m 141,71.382389 c 0,-4.854101 3.93426,-8.787792 8.78779,-8.787792 4.85354,0 8.7878,3.772832 8.7878,8.787792 C 158.57559,83.676804 141,90.422702 141,90.422702 l 0,-19.040313 z"
     id="path17"
     inkscape:connector-curvature="0" /><g
     id="g19"
     transform="translate(0,-212)" /><g
     id="g21"
     transform="translate(0,-212)" /><g
     id="g23"
     transform="translate(0,-212)" /><g
     id="g25"
     transform="translate(0,-212)" /><g
     id="g27"
     transform="translate(0,-212)" /><g
     id="g29"
     transform="translate(0,-212)" /><g
     id="g31"
     transform="translate(0,-212)" /><g
     id="g33"
     transform="translate(0,-212)" /><g
     id="g35"
     transform="translate(0,-212)" /><g
     id="g37"
     transform="translate(0,-212)" /><g
     id="g39"
     transform="translate(0,-212)" /><g
     id="g41"
     transform="translate(0,-212)" /><g
     id="g43"
     transform="translate(0,-212)" /><g
     id="g45"
     transform="translate(0,-212)" /><g
     id="g47"
     transform="translate(0,-212)" /><ellipse
     style="fill:none;fill-opacity:1;stroke:#ffffff;stroke-width:9.66659451;stroke-miterlimit:4;stroke-dasharray:none;stroke-opacity:1"
     cx="145.42432"
     cy="144.50764"
     id="circle3-5"
     rx="140.70833"
     ry="139.62498" /><circle
     style="opacity:1;fill:#07ff00;fill-opacity:1;fill-rule:nonzero;stroke:#ffffff;stroke-width:16.99967003;stroke-linecap:butt;stroke-linejoin:miter;stroke-miterlimit:4;stroke-dasharray:none;stroke-opacity:1"
     id="path8111"
     cx="243.83224"
     cy="243.83224"
     r="47.667919" /></svg>