<?xml version="1.0" encoding="UTF-8" standalone="no"?>
<!-- Generator: Adobe Illustrator 19.0.0, SVG Export Plug-In . SVG Version: 6.00 Build 0)  -->

<svg
   xmlns:dc="http://purl.org/dc/elements/1.1/"
   xmlns:cc="http://creativecommons.org/ns#"
   xmlns:rdf="http://www.w3.org/1999/02/22-rdf-syntax-ns#"
   xmlns:svg="http://www.w3.org/2000/svg"
   xmlns="http://www.w3.org/2000/svg"
   xmlns:sodipodi="http://sodipodi.sourceforge.net/DTD/sodipodi-0.dtd"
   xmlns:inkscape="http://www.inkscape.org/namespaces/inkscape"
   version="1.1"
   id="Layer_1"
   x="0px"
   y="0px"
   viewBox="0 0 300 300"
   xml:space="preserve"
   inkscape:version="0.92.1 r15371"
   sodipodi:docname="symbol-post-box.svg"
   width="300"
   height="300"><metadata
     id="metadata53"><rdf:RDF><cc:Work
         rdf:about=""><dc:format>image/svg+xml</dc:format><dc:type
           rdf:resource="http://purl.org/dc/dcmitype/StillImage" /><dc:title /></cc:Work></rdf:RDF></metadata><defs
     id="defs51" /><sodipodi:namedview
     pagecolor="#ffffff"
     bordercolor="#666666"
     borderopacity="1"
     objecttolerance="10"
     gridtolerance="10"
     guidetolerance="10"
     inkscape:pageopacity="0"
     inkscape:pageshadow="2"
     inkscape:window-width="1366"
     inkscape:window-height="705"
     id="namedview49"
     showgrid="false"
     inkscape:zoom="1.84375"
     inkscape:cx="100.98213"
     inkscape:cy="225.59513"
     inkscape:window-x="-4"
     inkscape:window-y="-4"
     inkscape:window-maximized="1"
     inkscape:current-layer="Layer_1" /><circle
     style="fill:#273640;fill-opacity:0.39215687"
     cx="155"
     cy="155"
     id="circle3-7"
     r="145" /><g
     id="g8136"
     transform="matrix(0.97568673,0,0,0.97568673,1.6271185,1.6271185)"><circle
       r="145"
       id="circle3"
       cy="145"
       cx="145"
       style="fill:#7c9ae8;fill-opacity:1" /><path
       inkscape:connector-curvature="0"
       id="path5"
       d="m 210.11564,68.78706 -129.736818,121.19 -22.378543,25.37174 75.354991,74.08383 c 4.14666,0.3513 8.33143,0.56731 12.56999,0.56731 79.22597,0 143.45221,-62.51948 143.45221,-139.64495 0,-1.25245 -0.0628,-2.49179 -0.0964,-3.73551 z"
       style="fill:#506ebb;fill-opacity:1" /><path
       inkscape:connector-curvature="0"
       id="path7"
       d="m 219.78905,91.448818 c 15.38215,10.440642 27.21258,19.436832 27.21258,22.434832 v 88.66364 c 0,8.5598 -7.51781,15.57477 -16.719,15.57477 H 69.397581 c -9.198849,0 -16.716667,-7.01497 -16.716667,-15.57477 v -88.66364 c 0,-3.07873 12.570278,-12.47858 28.694604,-23.250882 L 150.27909,47.676736 Z"
       style="fill:#f3ea96" /><polygon
       transform="matrix(0.58531748,0,0,0.54548811,0,10.710108)"
       id="polygon9"
       points="372.972,225.92 372.972,108.748 139.028,108.748 139.028,224.304 176.02,262.556 338.36,262.556 "
       style="fill:#ffffff" /><g
       transform="matrix(0.58531748,0,0,0.54548811,0,10.710108)"
       id="g11"><rect
         id="rect13"
         height="14.28"
         width="145.12"
         style="fill:#bbbec3"
         y="148.92"
         x="183.42799" /><rect
         id="rect15"
         height="14.276"
         width="145.12"
         style="fill:#bbbec3"
         y="198.168"
         x="183.42799" /></g><path
       inkscape:connector-curvature="0"
       id="path17"
       d="m 244.43794,111.73879 c -0.83349,-0.75277 -2.16333,-0.73095 -2.95702,0.0436 l -43.43524,41.89349 h -94.03711 c -0.36055,0 -0.68599,0.10691 -0.98099,0.25529 L 59.325438,111.78243 c -0.800714,-0.77459 -2.118849,-0.79423 -2.957024,-0.0436 -0.826468,0.74623 -0.852222,1.97467 -0.04917,2.74926 l 42.915477,41.39382 -39.005557,58.36723 c -0.611071,0.91205 -0.31373,2.10995 0.667262,2.6838 0.341826,0.19201 0.728135,0.2902 1.10508,0.2902 0.693016,0 1.379008,-0.32729 1.777024,-0.9186 l 39.37782,-58.9149 c 0.25988,0.1091 0.54786,0.17892 0.85222,0.17892 h 93.76318 l 39.2631,58.73816 c 0.39099,0.59131 1.07698,0.9186 1.77468,0.9186 0.38163,0 0.75389,-0.0982 1.10742,-0.2902 0.98099,-0.57603 1.27599,-1.77393 0.66726,-2.6838 l -39.00555,-58.36723 42.90611,-41.39382 c 0.80774,-0.77459 0.78432,-2.00521 -0.0468,-2.75144 z"
       style="fill:#cea647" /></g><g
     id="g19"
     transform="translate(0,-212)" /><g
     id="g21"
     transform="translate(0,-212)" /><g
     id="g23"
     transform="translate(0,-212)" /><g
     id="g25"
     transform="translate(0,-212)" /><g
     id="g27"
     transform="translate(0,-212)" /><g
     id="g29"
     transform="translate(0,-212)" /><g
     id="g31"
     transform="translate(0,-212)" /><g
     id="g33"
     transform="translate(0,-212)" /><g
     id="g35"
     transform="translate(0,-212)" /><g
     id="g37"
     transform="translate(0,-212)" /><g
     id="g39"
     transform="translate(0,-212)" /><g
     id="g41"
     transform="translate(0,-212)" /><g
     id="g43"
     transform="translate(0,-212)" /><g
     id="g45"
     transform="translate(0,-212)" /><g
     id="g47"
     transform="translate(0,-212)" /><circle
     style="fill:none;fill-opacity:1;stroke:#ffffff;stroke-width:9.69265556;stroke-miterlimit:4;stroke-dasharray:none;stroke-opacity:1"
     cx="145.14406"
     cy="145.14406"
     id="circle3-4"
     r="140.5435" /></svg>