<?xml version="1.0" encoding="UTF-8" standalone="no"?>
<!-- Generator: Adobe Illustrator 19.0.0, SVG Export Plug-In . SVG Version: 6.00 Build 0)  -->

<svg
   xmlns:dc="http://purl.org/dc/elements/1.1/"
   xmlns:cc="http://creativecommons.org/ns#"
   xmlns:rdf="http://www.w3.org/1999/02/22-rdf-syntax-ns#"
   xmlns:svg="http://www.w3.org/2000/svg"
   xmlns="http://www.w3.org/2000/svg"
   xmlns:sodipodi="http://sodipodi.sourceforge.net/DTD/sodipodi-0.dtd"
   xmlns:inkscape="http://www.inkscape.org/namespaces/inkscape"
   version="1.1"
   id="Layer_1"
   x="0px"
   y="0px"
   viewBox="0 0 300 300"
   xml:space="preserve"
   inkscape:version="0.92.2 (5c3e80d, 2017-08-06)"
   sodipodi:docname="symbol-service-turning-point-65.svg"
   width="300"
   height="300"><metadata
     id="metadata43"><rdf:RDF><cc:Work
         rdf:about=""><dc:format>image/svg+xml</dc:format><dc:type
           rdf:resource="http://purl.org/dc/dcmitype/StillImage" /><dc:title></dc:title></cc:Work></rdf:RDF></metadata><defs
     id="defs41"><filter
       style="color-interpolation-filters:sRGB;"
       inkscape:label="Drop Shadow"
       id="filter11078"><feFlood
         flood-opacity="1"
         flood-color="rgb(0,0,0)"
         result="flood"
         id="feFlood11080" /><feComposite
         in="flood"
         in2="SourceGraphic"
         operator="in"
         result="composite1"
         id="feComposite11082" /><feGaussianBlur
         in="composite1"
         stdDeviation="6"
         result="blur"
         id="feGaussianBlur11084" /><feOffset
         dx="1.6"
         dy="1.6"
         result="offset"
         id="feOffset11086" /><feComposite
         in="SourceGraphic"
         in2="offset"
         operator="over"
         result="composite2"
         id="feComposite11088" /></filter><filter
       style="color-interpolation-filters:sRGB;"
       inkscape:label="Drop Shadow"
       id="filter11090"><feFlood
         flood-opacity="1"
         flood-color="rgb(0,0,0)"
         result="flood"
         id="feFlood11092" /><feComposite
         in="flood"
         in2="SourceGraphic"
         operator="in"
         result="composite1"
         id="feComposite11094" /><feGaussianBlur
         in="composite1"
         stdDeviation="6"
         result="blur"
         id="feGaussianBlur11096" /><feOffset
         dx="1.6"
         dy="1.6"
         result="offset"
         id="feOffset11098" /><feComposite
         in="SourceGraphic"
         in2="offset"
         operator="over"
         result="composite2"
         id="feComposite11100" /></filter></defs><sodipodi:namedview
     pagecolor="#ffffff"
     bordercolor="#666666"
     borderopacity="1"
     objecttolerance="10"
     gridtolerance="10"
     guidetolerance="10"
     inkscape:pageopacity="0"
     inkscape:pageshadow="2"
     inkscape:window-width="1920"
     inkscape:window-height="1017"
     id="namedview39"
     showgrid="false"
     inkscape:zoom="1.8437644"
     inkscape:cx="123.90584"
     inkscape:cy="240.8259"
     inkscape:window-x="-8"
     inkscape:window-y="-8"
     inkscape:window-maximized="1"
     inkscape:current-layer="Layer_1" /><g
     id="g8118"
     transform="translate(-39.218186,-13.26928)"><rect
       transform="matrix(0.70720198,-0.70701157,0.70720198,0.70701157,0,0)"
       ry="12.013863"
       y="155.31642"
       x="-95.379501"
       height="197.81223"
       width="197.81223"
       id="rect8103-4-8"
       style="opacity:1;fill:#243640;fill-opacity:0.39215686;fill-rule:nonzero;stroke:none;stroke-width:9.78737259;stroke-linejoin:round;stroke-miterlimit:4;stroke-dasharray:none;stroke-opacity:0.39215686" /><rect
       transform="matrix(0.70720198,-0.70701157,0.70720198,0.70701157,0,0)"
       ry="2.7885373"
       y="140.55296"
       x="-79.807877"
       height="196.30305"
       width="196.30305"
       id="rect8103-1"
       style="opacity:1;fill:#9933ff;fill-opacity:1;fill-rule:nonzero;stroke:#ffffff;stroke-width:9.86728191;stroke-linejoin:round;stroke-miterlimit:4;stroke-dasharray:none;stroke-opacity:1" /></g><g
     id="g9"
     transform="translate(0,-211.996)" /><g
     id="g11"
     transform="translate(0,-211.996)" /><g
     id="g13"
     transform="translate(0,-211.996)" /><g
     id="g15"
     transform="translate(0,-211.996)" /><g
     id="g17"
     transform="translate(0,-211.996)" /><g
     id="g19"
     transform="translate(0,-211.996)" /><g
     id="g21"
     transform="translate(0,-211.996)" /><g
     id="g23"
     transform="translate(0,-211.996)" /><g
     id="g25"
     transform="translate(0,-211.996)" /><g
     id="g27"
     transform="translate(0,-211.996)" /><g
     id="g29"
     transform="translate(0,-211.996)" /><g
     id="g31"
     transform="translate(0,-211.996)" /><g
     id="g33"
     transform="translate(0,-211.996)" /><g
     id="g35"
     transform="translate(0,-211.996)" /><g
     id="g37"
     transform="translate(0,-211.996)" /><path
     inkscape:connector-curvature="0"
     style="font-style:normal;font-variant:normal;font-weight:bold;font-stretch:normal;font-size:113.41008759px;line-height:125%;font-family:sans-serif;-inkscape-font-specification:'sans-serif Bold';letter-spacing:0px;word-spacing:0px;fill:#455c73;fill-opacity:1;stroke:none;stroke-width:1px;stroke-linecap:butt;stroke-linejoin:miter;stroke-opacity:1"
     d="m 110.21351,95.219992 c -12.560172,0 -23.419957,4.38828 -31.013947,12.997528 a 5.6369209,5.6369209 0 0 0 0,0.002 c -7.5681,8.58532 -11.13942,20.27438 -11.13942,34.1231 0,13.41814 2.96678,24.55151 9.56916,32.73183 a 5.6369209,5.6369209 0 0 0 0.0203,0.0258 c 6.63895,8.1327 16.545534,12.32587 27.960167,12.32587 10.23255,0 19.19933,-2.93167 25.83451,-9.01745 a 5.6369209,5.6369209 0 0 0 0.0129,-0.0129 c 6.61416,-6.10861 10.02676,-14.68158 10.02676,-24.28086 1e-5,-8.78661 -3.10933,-16.72451 -9.1263,-22.44488 -5.99087,-5.72837 -14.10962,-8.56537 -23.19036,-8.56537 -2.45596,0 -4.80941,0.31845 -7.10767,0.78604 0.22268,-0.2691 0.42356,-0.5884 0.66058,-0.82294 a 5.6369209,5.6369209 0 0 0 0.0203,-0.0203 c 2.15708,-2.15709 5.08477,-3.36932 10.03598,-3.36932 2.2754,0 4.64824,0.3093 7.15197,0.96503 a 5.6369209,5.6369209 0 0 0 0.0608,0.0147 c 2.49406,0.62351 5.27786,1.64134 8.31812,3.08147 a 5.6369209,5.6369209 0 0 0 8.05056,-5.09457 v -14.44046 a 5.6369209,5.6369209 0 0 0 -3.838,-5.341848 c -3.59402,-1.21068 -7.24026,-2.12279 -10.92722,-2.73094 -3.70026,-0.61036 -7.49631,-0.91152 -11.37928,-0.91152 z M 98.699523,124.66739 c -0.0113,0.004 -0.0218,0.009 -0.0333,0.0129 -0.01,0.003 -0.0199,0.005 -0.0295,0.008 l 0.0627,-0.0203 z m 7.118747,22.68477 c 2.3423,0 2.83057,0.38919 3.45973,1.21966 a 5.6369209,5.6369209 0 0 0 0.0591,0.0757 c 0.64372,0.82044 1.46508,2.93626 1.46508,6.77369 0,3.83745 -0.81584,5.98679 -1.49092,6.86042 a 5.6369209,5.6369209 0 0 0 -0.008,0.0111 c -0.61412,0.79836 -1.12553,1.19937 -3.48556,1.19937 -2.2702,0 -2.82953,-0.39573 -3.47634,-1.2086 -0.65563,-0.88461 -1.45401,-3.04286 -1.45401,-6.86226 0,-3.84633 0.81402,-5.99177 1.44109,-6.8106 0.67559,-0.87326 1.19787,-1.25841 3.48926,-1.25841 z"
     id="path8128" /><path
     inkscape:connector-curvature="0"
     d="m 106.09994,141.09456 q -5.28388,0 -7.951983,3.45283 -2.61579,3.40053 -2.61579,10.2539 0,6.85337 2.61579,10.30622 2.668103,3.40052 7.951983,3.40052 5.33622,0 7.95201,-3.40052 2.66811,-3.45285 2.66811,-10.30622 0,-6.85337 -2.66811,-10.2539 -2.61579,-3.45283 -7.95201,-3.45283 z m 24.90233,-37.51043 v 14.43916 q -4.97,-2.35421 -9.36453,-3.45285 -4.39453,-1.15094 -8.5798,-1.15094 -8.99831,0 -14.020628,5.02232 -5.022305,4.96999 -5.859355,14.80536 3.45283,-2.56347 7.481153,-3.81905 4.02831,-1.3079 8.78905,-1.3079 11.98032,0 19.30453,7.01032 7.37652,7.01032 7.37652,18.36285 0,12.55579 -8.21358,20.14158 -8.21358,7.53348 -22.02495,7.53348 -15.223887,0 -23.594417,-10.2539 -8.31821,-10.30621 -8.31821,-29.19221 0,-19.35685 9.73074,-30.39548 9.783064,-11.09095 26.785677,-11.09095 5.38853,0 10.46316,0.83705 5.07464,0.83706 10.04464,2.51116 z"
     style="font-style:normal;font-variant:normal;font-weight:bold;font-stretch:normal;font-size:113.41008759px;line-height:125%;font-family:sans-serif;-inkscape-font-specification:'sans-serif Bold';letter-spacing:0px;word-spacing:0px;fill:#ffffff;fill-opacity:1;stroke:none;stroke-width:1px;stroke-linecap:butt;stroke-linejoin:miter;stroke-opacity:1"
     id="path8087" /><path
     inkscape:connector-curvature="0"
     id="path8125"
     d="m 151.84446,95.384865 a 5.9985474,5.9985474 0 0 0 -5.99884,5.998795 v 44.35721 a 5.9985474,5.9985474 0 0 0 8.30637,5.53696 c 3.53867,-1.47445 6.7712,-2.52314 9.66595,-3.16984 a 5.9985474,5.9985474 0 0 0 0.0596,-0.0131 c 2.92627,-0.68487 5.58477,-1.00197 7.97857,-1.00197 3.95725,0 6.23246,0.88702 7.73276,2.16225 a 5.9985474,5.9985474 0 0 0 0.0279,0.0243 c 1.54306,1.29542 2.13433,2.44344 2.13433,5.22595 0,2.73292 -0.58928,3.91074 -2.16227,5.25202 -3.7e-4,3.2e-4 -0.002,-3.1e-4 -0.002,0 -1.50031,1.27473 -3.77461,2.16226 -7.7309,2.16226 -2.68972,0 -5.72053,-0.48819 -9.10533,-1.56443 -0.002,-8.4e-4 -0.005,-9.5e-4 -0.007,-0.002 -3.34474,-1.0755 -7.03496,-2.73859 -11.02923,-5.03039 a 5.9985474,5.9985474 0 0 0 -8.9843,5.20173 v 16.00003 a 5.9985474,5.9985474 0 0 0 3.73974,5.55559 c 4.66507,1.89637 9.38492,3.31284 14.14319,4.23514 4.77715,0.95417 9.60698,1.43592 14.46537,1.43592 11.27836,0 20.90766,-2.67521 28.0629,-8.61369 7.17596,-5.92669 10.93798,-14.74605 10.93798,-24.63233 0,-9.83054 -3.34371,-18.5518 -10.01794,-24.52802 -4.3895,-3.95313 -9.93205,-6.371 -16.17509,-7.65082 h 14.49147 a 5.9985474,5.9985474 0 0 0 5.99884,-5.99885 v -14.94403 a 5.9985474,5.9985474 0 0 0 -5.99884,-5.998803 h -50.53326 z"
     style="font-style:normal;font-variant:normal;font-weight:bold;font-stretch:normal;font-size:113.41008759px;line-height:125%;font-family:sans-serif;-inkscape-font-specification:'sans-serif Bold';letter-spacing:0px;word-spacing:0px;fill:#455c73;fill-opacity:1;stroke:none;stroke-width:1.01543796px;stroke-linecap:butt;stroke-linejoin:miter;stroke-opacity:1" /><path
     inkscape:connector-curvature="0"
     id="path8099"
     d="m 152.14013,101.28683 v 44.35719 c 3.80191,-1.58412 7.35701,-2.74718 10.66606,-3.48644 3.30905,-0.77446 6.42376,-1.16029 9.34559,-1.16029 4.92839,0 8.80154,1.19696 11.61776,3.59074 2.85142,2.3938 4.2761,5.6666 4.2761,9.82052 0,4.11874 -1.42468,7.3934 -4.2761,9.82239 -2.81622,2.3938 -6.68937,3.59075 -11.61776,3.59075 -3.41467,0 -7.0582,-0.61729 -10.93049,-1.84938 -3.83712,-1.2321 -7.90223,-3.08022 -12.19698,-5.54442 v 16.00003 c 4.32994,1.76014 8.67736,3.06249 13.04251,3.90735 4.40033,0.88007 8.83619,1.32046 13.30694,1.32046 10.34963,0 18.42904,-2.41084 24.2375,-7.23364 5.84367,-4.82278 8.76454,-11.49445 8.76454,-20.01354 0,-8.58947 -2.67433,-15.27809 -8.02516,-20.06568 -5.35082,-4.82278 -12.83175,-7.23362 -22.44213,-7.23362 -1.68973,0 -3.32706,0.12235 -4.9112,0.36876 -1.54892,0.21121 -3.0978,0.52926 -4.64672,0.95169 v -12.19884 h 34.32249 v -14.94403 z"
     style="font-style:normal;font-variant:normal;font-weight:bold;font-stretch:normal;font-size:medium;line-height:125%;font-family:sans-serif;-inkscape-font-specification:'sans-serif Bold';letter-spacing:0px;word-spacing:0px;fill:#ffffff;fill-opacity:1;stroke:none;stroke-width:1.01543796px;stroke-linecap:butt;stroke-linejoin:miter;stroke-opacity:1" /></svg>