<?xml version="1.0" encoding="UTF-8" standalone="no"?>
<!-- Generator: Adobe Illustrator 19.0.0, SVG Export Plug-In . SVG Version: 6.00 Build 0)  -->

<svg
   xmlns:dc="http://purl.org/dc/elements/1.1/"
   xmlns:cc="http://creativecommons.org/ns#"
   xmlns:rdf="http://www.w3.org/1999/02/22-rdf-syntax-ns#"
   xmlns:svg="http://www.w3.org/2000/svg"
   xmlns="http://www.w3.org/2000/svg"
   xmlns:sodipodi="http://sodipodi.sourceforge.net/DTD/sodipodi-0.dtd"
   xmlns:inkscape="http://www.inkscape.org/namespaces/inkscape"
   version="1.1"
   id="Layer_1"
   x="0px"
   y="0px"
   viewBox="0 0 299.99999 299.99999"
   xml:space="preserve"
   inkscape:version="0.92.1 r15371"
   sodipodi:docname="symbol-parking.svg"
   width="300"
   height="300"><metadata
     id="metadata53"><rdf:RDF><cc:Work
         rdf:about=""><dc:format>image/svg+xml</dc:format><dc:type
           rdf:resource="http://purl.org/dc/dcmitype/StillImage" /><dc:title /></cc:Work></rdf:RDF></metadata><defs
     id="defs51" /><sodipodi:namedview
     pagecolor="#ffffff"
     bordercolor="#666666"
     borderopacity="1"
     objecttolerance="10"
     gridtolerance="10"
     guidetolerance="10"
     inkscape:pageopacity="0"
     inkscape:pageshadow="2"
     inkscape:window-width="1366"
     inkscape:window-height="705"
     id="namedview49"
     showgrid="false"
     inkscape:zoom="1.3037357"
     inkscape:cx="45.82326"
     inkscape:cy="159.93479"
     inkscape:window-x="-4"
     inkscape:window-y="-4"
     inkscape:window-maximized="1"
     inkscape:current-layer="Layer_1" /><g
     id="g19"
     transform="translate(0,-211.99701)" /><g
     id="g21"
     transform="translate(0,-211.99701)" /><g
     id="g23"
     transform="translate(0,-211.99701)" /><g
     id="g25"
     transform="translate(0,-211.99701)" /><g
     id="g27"
     transform="translate(0,-211.99701)" /><g
     id="g29"
     transform="translate(0,-211.99701)" /><g
     id="g31"
     transform="translate(0,-211.99701)" /><g
     id="g33"
     transform="translate(0,-211.99701)" /><g
     id="g35"
     transform="translate(0,-211.99701)" /><g
     id="g37"
     transform="translate(0,-211.99701)" /><g
     id="g39"
     transform="translate(0,-211.99701)" /><g
     id="g41"
     transform="translate(0,-211.99701)" /><g
     id="g43"
     transform="translate(0,-211.99701)" /><g
     id="g45"
     transform="translate(0,-211.99701)" /><g
     id="g47"
     transform="translate(0,-211.99701)" /><circle
     style="fill:#273640;fill-opacity:0.39215686;stroke-width:0.97272778"
     cx="158.95447"
     cy="159.72151"
     r="141.04553"
     id="circle3-0" /><circle
     style="fill:#ffa700;fill-opacity:1;stroke-width:0.97272778"
     cx="145.00655"
     cy="145.77357"
     r="141.04553"
     id="circle3" /><circle
     style="fill:none;fill-opacity:1;stroke:#ffffff;stroke-width:9.72727776;stroke-miterlimit:4;stroke-dasharray:none;stroke-opacity:1"
     cx="144.9734"
     cy="145.74045"
     r="141.04553"
     id="circle3-7" /><path
     style="fill:#ff2e19;fill-opacity:1"
     d="m 164.50286,279.16538 c 54.75165,-9.58089 99.42876,-52.6768 112.44174,-105.10388 l -97.42709,-91.066249 -66.50573,-3.77804 c -2.7522,20.272422 -2.73321,36.316529 -1.19334,83.698259 -5.71689,22.28267 4.15294,34.96854 -6.30219,64.48884 z"
     id="path5-7"
     inkscape:connector-curvature="0"
     sodipodi:nodetypes="ccccccc" /><g
     id="g8145"
     transform="translate(20.123366,11.302579)"><path
       inkscape:connector-curvature="0"
       id="path15"
       d="m 90.342629,218.53243 c -3.636818,0 -6.58873,-2.94497 -6.58873,-6.58874 l 0,-144.95848 c 0,-3.643768 2.951912,-6.588745 6.58873,-6.588745 3.636817,0 6.588744,2.944977 6.588744,6.588745 l 0,144.95772 c 0,3.64375 -2.951927,6.5895 -6.588744,6.5895"
       style="fill:#ffffff" /><path
       inkscape:connector-curvature="0"
       id="path17"
       d="m 96.931373,139.46444 32.945257,0 c 18.16555,0 32.94525,-14.77891 32.94525,-32.94524 0,-18.166326 -14.77892,-32.945245 -32.94525,-32.945245 l -32.945257,0 0,65.890485 z m 32.945257,13.17749 -39.534001,0 c -3.636818,0 -6.58873,-2.94498 -6.58873,-6.58873 l 0,-79.06799 c 0,-3.643768 2.951912,-6.588745 6.58873,-6.588745 l 39.534001,0 c 25.43379,0 46.12274,20.695905 46.12274,46.122735 0,25.42684 -20.68971,46.12273 -46.12274,46.12273 l 0,0 z"
       style="fill:#ffffff" /></g></svg>