<?xml version="1.0" encoding="UTF-8" standalone="no"?>
<!-- Generator: Adobe Illustrator 19.0.0, SVG Export Plug-In . SVG Version: 6.00 Build 0)  -->

<svg
   xmlns:dc="http://purl.org/dc/elements/1.1/"
   xmlns:cc="http://creativecommons.org/ns#"
   xmlns:rdf="http://www.w3.org/1999/02/22-rdf-syntax-ns#"
   xmlns:svg="http://www.w3.org/2000/svg"
   xmlns="http://www.w3.org/2000/svg"
   xmlns:sodipodi="http://sodipodi.sourceforge.net/DTD/sodipodi-0.dtd"
   xmlns:inkscape="http://www.inkscape.org/namespaces/inkscape"
   version="1.1"
   id="Layer_1"
   x="0px"
   y="0px"
   viewBox="0 0 300 300"
   xml:space="preserve"
   inkscape:version="0.91 r13725"
   sodipodi:docname="symbol-recycling-contents.svg"
   width="300"
   height="300"><metadata
     id="metadata51"><rdf:RDF><cc:Work
         rdf:about=""><dc:format>image/svg+xml</dc:format><dc:type
           rdf:resource="http://purl.org/dc/dcmitype/StillImage" /><dc:title></dc:title></cc:Work></rdf:RDF></metadata><defs
     id="defs49" /><sodipodi:namedview
     pagecolor="#ffffff"
     bordercolor="#666666"
     borderopacity="1"
     objecttolerance="10"
     gridtolerance="10"
     guidetolerance="10"
     inkscape:pageopacity="0"
     inkscape:pageshadow="2"
     inkscape:window-width="1920"
     inkscape:window-height="1017"
     id="namedview47"
     showgrid="false"
     inkscape:zoom="1.3139937"
     inkscape:cx="-146.11637"
     inkscape:cy="144.67745"
     inkscape:window-x="1912"
     inkscape:window-y="-8"
     inkscape:window-maximized="1"
     inkscape:current-layer="Layer_1" /><circle
     style="fill:#273640;fill-opacity:0.39215687"
     cx="155"
     cy="155"
     r="145"
     id="circle3-5" /><circle
     style="fill:#7c9ae8;fill-opacity:1;stroke-width:0.96850872"
     cx="144.23901"
     cy="144.23901"
     r="140.43376"
     id="circle3" /><path
     inkscape:connector-curvature="0"
     style="fill:#506ebb;fill-opacity:1"
     d="m 173.01003,280.4912 c 31.99801,-8.74073 106.06302,-39.59432 111.6147,-137.06868 L 158.84409,49.372188 c -5.59818,-3.718274 -9.25684,1.09002 -16.47028,0.163848 -16.20289,16.969451 -24.76449,23.934994 -40.59399,38.892349 8.08572,20.476925 6.10832,23.220735 5.5116,23.907995 -4.47695,29.00511 -22.476435,-11.91405 -9.303527,11.61434 l -2.065557,9.96111 -24.16975,74.93929 c -0.403351,1.25061 0.562634,2.67505 1.392679,3.79774 l 0.02563,0.0341 -2.121538,-3.33888 c 31.295203,23.48207 65.284583,50.25385 95.816613,72.68305 z"
     id="path5-7"
     sodipodi:nodetypes="ccccccccsccccc" /><path
     style="fill:#f9b54c"
     d="m 113.64122,182.37376 0,23.29134 c 0,2.51181 -2.05511,4.56693 -4.56693,4.56693 l -37.9055,0 17.35433,-32.4252 20.55117,0 c 2.51182,0 4.56693,2.05512 4.56693,4.56693 z"
     id="path5"
     inkscape:connector-curvature="0" /><path
     style="fill:#84dbff"
     d="m 158.16878,48.791114 -34.02362,0 c -1.59842,0 -3.19685,0.913379 -3.88189,2.283446 l -18.49606,34.251967 c -1.14173,2.283464 -0.22835,5.251968 2.05512,6.165354 l 21.46456,9.818889 c 2.28347,0.91339 4.79528,0 5.93701,-2.055119 l 8.67717,-16.440935 0,0 18.26771,-34.023602 z"
     id="path7"
     inkscape:connector-curvature="0" /><path
     style="fill:#54c0eb"
     d="m 201.55461,105.8777 -9.13386,34.93701 c -0.68504,2.51181 -3.19685,3.88189 -5.48031,3.19685 l -34.93701,-9.36221 c -3.88189,-1.14173 -4.56693,-6.16535 -1.14173,-8.22047 l 9.3622,-5.48031 -1.14173,-1.82677 -19.40945,-36.078738 18.26772,-34.251948 30.14173,55.716506 6.85039,-3.88189 c 3.4252,-2.055118 7.76378,1.14173 6.62205,5.25197 z"
     id="path9"
     inkscape:connector-curvature="0" /><path
     style="fill:#ff7861;fill-opacity:1"
     d="m 227.58611,177.80683 -36.76378,0 -7.76378,-14.38582 c -1.14174,-2.05512 -0.4567,-4.79528 1.59842,-6.16536 l 20.09449,-11.87401 c 2.28346,-1.37008 5.02362,-0.4567 6.16535,1.82677 l 16.6693,30.59842 z"
     id="path11"
     inkscape:connector-curvature="0" /><path
     style="fill:#ffb6a9;fill-opacity:1"
     d="m 227.58611,177.80683 -18.03937,30.14174 c -0.91339,1.37008 -2.28347,2.28346 -3.88189,2.28346 l -47.72441,0 0,9.36221 c 0,4.11023 -4.79528,6.16535 -7.76378,3.19685 l -25.57481,-25.57481 c -1.82677,-1.82677 -1.82677,-4.56693 0,-6.3937 l 25.57481,-25.5748 c 2.74015,-2.9685 7.76378,-0.91339 7.76378,3.19685 l 0,9.3622 69.64567,0 z"
     id="path13"
     inkscape:connector-curvature="0" /><path
     style="fill:#ffd05b"
     d="M 117.06642,150.17691 106.33414,145.15329 88.751467,177.80683 71.16879,210.23203 53.12942,180.0903 c -0.913386,-1.37008 -0.913386,-2.96851 0,-4.56693 l 23.748031,-44.07087 -6.165354,-2.74015 c -3.653543,-1.59843 -3.425197,-6.8504 0.228346,-8.44882 l 33.795267,-12.55906 c 2.28347,-0.91338 5.02362,0.22835 5.93701,2.74016 l 12.55905,33.79528 c 1.37008,3.88188 -2.51181,7.53543 -6.16535,5.937 z"
     id="path15"
     inkscape:connector-curvature="0" /><g
     id="g17"
     transform="translate(0,-208)" /><g
     id="g19"
     transform="translate(0,-208)" /><g
     id="g21"
     transform="translate(0,-208)" /><g
     id="g23"
     transform="translate(0,-208)" /><g
     id="g25"
     transform="translate(0,-208)" /><g
     id="g27"
     transform="translate(0,-208)" /><g
     id="g29"
     transform="translate(0,-208)" /><g
     id="g31"
     transform="translate(0,-208)" /><g
     id="g33"
     transform="translate(0,-208)" /><g
     id="g35"
     transform="translate(0,-208)" /><g
     id="g37"
     transform="translate(0,-208)" /><g
     id="g39"
     transform="translate(0,-208)" /><g
     id="g41"
     transform="translate(0,-208)" /><g
     id="g43"
     transform="translate(0,-208)" /><g
     id="g45"
     transform="translate(0,-208)" /><circle
     style="fill:none;fill-opacity:1;stroke:#ffffff;stroke-width:9.6955843;stroke-miterlimit:4;stroke-dasharray:none;stroke-opacity:1"
     cx="144.97798"
     cy="144.97798"
     r="140.58598"
     id="circle3-8" /><circle
     style="opacity:1;fill:#07ff00;fill-opacity:1;fill-rule:nonzero;stroke:#ffffff;stroke-width:16.99967003;stroke-linecap:butt;stroke-linejoin:miter;stroke-miterlimit:4;stroke-dasharray:none;stroke-opacity:1"
     id="path8111"
     cx="243.83224"
     cy="243.83224"
     r="47.667919" /></svg>