<?xml version="1.0" encoding="UTF-8" standalone="no"?>
<svg
   xmlns:dc="http://purl.org/dc/elements/1.1/"
   xmlns:cc="http://creativecommons.org/ns#"
   xmlns:rdf="http://www.w3.org/1999/02/22-rdf-syntax-ns#"
   xmlns:svg="http://www.w3.org/2000/svg"
   xmlns="http://www.w3.org/2000/svg"
   viewBox="0 0 1057.8267 281.61334"
   height="281.61334"
   width="1057.8267"
   xml:space="preserve"
   id="svg2"
   version="1.1"><metadata
     id="metadata8"><rdf:RDF><cc:Work
         rdf:about=""><dc:format>image/svg+xml</dc:format><dc:type
           rdf:resource="http://purl.org/dc/dcmitype/StillImage" /></cc:Work></rdf:RDF></metadata><defs
     id="defs6" /><g
     transform="matrix(1.3333333,0,0,-1.3333333,0,281.61333)"
     id="g10"><g
       transform="scale(0.1)"
       id="g12"><path
         id="path14"
         style="fill:#559e98;fill-opacity:1;fill-rule:evenodd;stroke:none"
         d="m 1365.06,1240.25 c -2.09,13.28 -4.06,25.89 -6.02,38.43 -17.35,104.17 -103.78,119.45 -166,92.07 -54.69,-23.92 -69.28,-76.17 -80.99,-130.62 84.92,-0.01 167.8,0.06 253.01,0.12 z M 0.148438,629.012 C 81.8711,798.531 179.734,959.211 275.188,1120.86 392.27,1318.68 512,1514.81 632.875,1710.24 c 42.367,68.89 90.875,134.02 151.129,189.51 107.168,98.89 230.316,167.02 372.816,198.53 109.3,24.16 216.34,18.34 317.87,-31.78 88.48,-43.73 131.12,-118.56 137.94,-215.04 3.09,-45.82 0.02,-91.41 -10.51,-136.16 -2.55,-11 -8.19,-21.42 -12.53,-31.92 -1.89,0.21 -3.79,0.64 -5.41,0.81 -1.83,4.67 -4.41,9.52 -4.63,14.31 -5.73,134.94 -76.82,222.34 -198.33,273.8 -77.77,33.08 -158.69,40.42 -241.94,32.95 -73.61,-6.49 -144.526,-22.28 -211.315,-55.57 -101.649,-50.37 -174.902,-129.45 -230.711,-227.16 -72.383,-126.29 -132.32,-258.75 -195.481,-389.62 -23.511,-48.72 -47.96,-97.08 -71.945,-145.54 -1.637,-3.53 -3.176,-7.13 -2.937,-12.38 14.535,11.87 29.285,23.69 43.851,35.64 95.141,77.98 195.192,148.3 304.899,204.67 31.562,16.16 64.316,28.76 100.937,28.27 27.301,-0.42 40.184,-16.52 28.688,-41.14 -11.758,-25.45 -27.739,-48.93 -42.883,-72.58 -63.434,-98.7 -126.52,-197.38 -178.516,-302.53 -36.953,-75.099 -71.937,-151.119 -93.574,-232.38 -10.617,-39.578 -14.938,-79.36 -1.23,-118.899 13.757,-40.191 43.585,-60.812 84.781,-66.32 49.437,-6.902 93.543,10.25 136.324,31.461 87.758,43.547 165.898,100.719 236.922,167.84 27.34,25.867 54.78,51.367 79.99,75.117 -21.7,27.551 -41.85,49.25 -57.24,73.883 -39.85,63.728 -51.82,134.288 -45.21,208.618 6.64,71.1 33.72,132.83 81.64,185.69 89.92,98.91 268.7,102.89 350.89,-23.39 24.28,-37.56 31.04,-80.15 32.01,-126.4 -63.44,-0.15 -126.05,-0.17 -188.69,-0.08 -62.57,-0.03 -125.32,-0.04 -190.2,-0.06 1.03,-12.97 1.56,-24.26 2.57,-35.53 4.43,-43.43 12.21,-86.11 32.65,-125.08 27.63,-52.608 68.77,-89.698 128.33,-101.03 68.94,-13.07 127.43,7.922 173.25,61.31 14.51,16.4 27.43,34.25 39.43,52.51 6.27,9.69 12.23,6.29 19.21,3.84 8.48,-3.05 5.09,-8.83 2.9,-14.31 -25.36,-65.401 -65.66,-120.069 -124.92,-157.088 -77.21,-48.114 -158.21,-46.16 -241.84,-7.641 -24.5,-24.812 -48.99,-51.57 -75.3,-76.351 -85.025,-79.309 -172.595,-155.122 -276.08,-210.032 -51.839,-27.476 -103.945,-55.386 -162.832,-63.5 -28.031,-3.937 -57.371,-5.047 -85.296,-1.25 -61.868,8.473 -104.395,60.832 -106.075,123.172 -1.343,59.899 19.164,113.981 42.211,167.559 50.477,118.301 113.805,230.081 172.657,344.181 20.144,39.19 35.636,80.88 52.265,121.77 3.258,7.82 2.926,17.53 2.57,26.21 -0.054,11.96 -7.351,18.2 -18.582,13.33 -25.445,-10.86 -51.203,-21.37 -74.964,-35.23 -69.496,-40.17 -123.477,-98.48 -174.793,-159.32 -25.809,-30.91 -52.223,-61.6 -74.856,-94.9 -26.648,-39.998 -50.23,-82.291 -73.75,-124.569 C 236.703,815.699 185.605,720.379 133.254,625.582 98.0508,561.672 84.125,566.172 21.8711,589.371 12.9531,592.66 7.20703,604.852 0,612.93 c 0.164063,5.379 0.140625,10.75 0.148438,16.082" /><path
         id="path16"
         style="fill:#559e98;fill-opacity:1;fill-rule:evenodd;stroke:none"
         d="m 4871.4,885.031 c 6.65,4.11 9.73,5.52 12.19,7.86 24.92,21.828 50.3,43.129 74.53,65.789 85.86,80.52 150.15,174.8 183.79,288.49 9.8,32.94 18.66,66.46 8.05,101.27 -10.62,35.31 -27.2,41.47 -58.76,21.42 -2.39,-1.41 -4.46,-3.16 -6.58,-4.77 -40.12,-29.69 -69.95,-68.21 -93.29,-111.37 -52.76,-97.68 -89.15,-201.35 -110,-310.439 -3.47,-18.121 -6.26,-36.332 -9.93,-58.25 z m 960.94,529.489 c -4.82,-2.93 -11.68,-5.56 -15.79,-10.38 -27.72,-32.33 -66.67,-32.32 -104.12,-36.27 -45.25,-4.83 -90.74,-9.15 -136.08,-13.97 -17.82,-1.94 -29.32,-13.49 -30.94,-31.43 -2.07,-26.18 -3.07,-52.63 -4.66,-78.94 -3.76,-63.37 -18.28,-124.46 -35.3,-185.23 -35.7,-126.499 -88.22,-245.429 -161.52,-354.46 -62.76,-93.75 -143.67,-167.391 -247.34,-214.352 -33.81,-15.308 -69.7,-21.769 -106.54,-23.84 -40.66,-2.007 -80.61,-1.707 -118.78,13.813 -68.43,27.777 -106.11,80.719 -120.35,151.559 -8.91,44.05 -5.46,88 1.97,133.218 -29.48,-15.718 -57.38,-31.207 -85.76,-45.75 -50.94,-25.718 -100.96,-54.047 -157.28,-67.297 -34.02,-8.242 -68.17,-13.621 -103.35,-10.453 -50.97,4.793 -80.93,35.571 -86.29,86.121 -7.26,67.871 12.34,130.032 39.67,190.34 54.42,120.921 126.06,231.601 203.78,338.481 24.3,33.67 49.04,67.08 72.87,101.19 28.22,40.86 63.66,68.9 115.12,74.95 26.82,3.16 52.89,12.53 79.27,18.97 3.94,1.04 8.32,2.18 11.84,1.14 4.73,-1.17 8.85,-4.55 13.11,-7.08 -2.36,-4.13 -3.85,-10.81 -7.39,-12.35 -54.72,-22.11 -87.25,-68.43 -121.49,-112.57 -60.45,-78.04 -106.95,-164.99 -152.49,-252.13 -37.52,-71.98 -71.12,-145.359 -92.32,-223.812 -6.25,-23.148 -10.85,-47.008 -14.24,-70.797 -3.86,-26.25 2.81,-50.019 25.2,-66.57 16.98,-12.762 35.88,-10.41 55.34,-6.051 75.74,17.301 142.74,53.602 206.54,96.012 3.85,2.539 7.03,8.078 8.09,12.75 21.73,91.277 54.1,178.5 95.6,262.538 50.44,102.76 109.51,200.05 184.98,286.5 22.62,25.77 48.64,49.02 75.68,70.36 27.76,21.88 61.15,30.28 96.9,26.81 14.04,-1.28 21.23,-9 26.2,-22.65 7.45,-19.84 7.06,-38.58 3.15,-58.95 -18.41,-96.19 -63.35,-179.75 -119.57,-258.26 -40.15,-56.14 -82.4,-110.65 -132.64,-158.11 -35.17,-33.218 -71.84,-64.761 -108.29,-96.57 -9,-7.762 -13.31,-15.219 -12.78,-28.109 1.8,-56.731 4.85,-112.922 28.17,-165.442 25.83,-57.961 65.78,-101.59 131.96,-112.301 70.17,-11.25 132.4,6.762 187.44,52.274 74.53,61.726 116.11,144.117 149.28,231.957 30.66,81.031 48.35,165.181 56.9,251.361 3.25,34.28 6.8,68.72 6.81,102.9 0.05,54.69 -1.82,109.23 -12.59,163.16 -6.08,30.11 -26.3,49.99 -59.06,56.06 -8.83,1.65 -15.73,5.66 -14.81,13.78 0.42,4.34 9.03,10.49 14.42,10.89 25.04,2.24 47.18,12.55 69.15,23.59 6.87,3.31 13.72,6.29 21.06,8.55 9.83,3.13 17.77,0.92 26.53,-6.47 12.16,-9.96 26.12,-18.98 40.99,-24.02 72.34,-24.18 147.6,-25.34 222.86,-24.65 30.33,0.27 60.66,0.03 90.89,-0.01" /><path
         id="path18"
         style="fill:#559e98;fill-opacity:1;fill-rule:evenodd;stroke:none"
         d="m 7303.26,1133.53 c 0.07,42.57 0.56,85.13 -0.06,127.62 -0.55,28.95 -4.19,57.88 -22.25,81.58 -53.91,71.11 -154.89,74.07 -210.28,-2.11 -32.88,-45.07 -46.07,-96.91 -48.78,-152.05 -3.2,-67.44 7.69,-131.72 41.51,-191.05 36.86,-64.61 99.39,-88.211 166.19,-74.52 45.26,9.262 73.82,47.07 73.78,93.43 0.14,39.07 0.06,78.03 -0.11,117.1 z m 181.83,-194.491 c 4.61,-12.75 1.75,-18.937 -10.59,-23.18 -52.2,-18.23 -104.14,-37.41 -156.01,-56.16 -13.68,-5.129 -15.34,-3.929 -15.62,10.821 -0.33,19.511 -0.07,38.949 -0.11,61.429 -16.75,-15.129 -30.17,-28.609 -45.09,-40.308 -37.24,-29.371 -80.51,-37.332 -127.41,-35.942 -109.8,3.082 -186.03,94.813 -205.33,190.341 -25.3,125.21 4.57,236.99 99.91,325.33 59.48,55 131.22,73.46 210.03,48.42 19.81,-6.26 37.17,-20.91 55.44,-31.77 3.19,-1.89 5.99,-4.93 11.23,-9.25 0.4,7.28 1.11,11.78 1.04,16.4 0.02,58.29 0.31,116.59 -0.12,174.77 -0.02,11.51 -1.63,23.27 -4.36,34.37 -4.18,17.63 -12.36,23.51 -30.34,24.51 -7.75,0.61 -15.29,0.38 -22.9,0.24 -7.66,-0.25 -15.18,-0.89 -22.6,-1.3 -5.17,16.72 -4.51,18.02 11.04,22.45 56.13,15.83 112.35,31.86 169.95,48.18 0.28,-3.85 0.62,-8.95 0.57,-14 -0.69,-229 -1.67,-457.95 -2.67,-686.941 0.03,-7.969 0.7,-16.14 2.35,-23.918 5.24,-24.621 15.11,-33.172 40.56,-34.461 13.57,-0.738 27.4,-0.09 41.03,-0.031" /><path
         id="path20"
         style="fill:#559e98;fill-opacity:1;fill-rule:evenodd;stroke:none"
         d="m 2130.13,1109.47 c -0.12,-47.9 0.33,-95.92 -0.36,-143.888 -0.21,-23.262 9.7,-40.594 29.81,-49.922 49.96,-23.289 101.9,-30.109 154.56,-9.39 44.06,17.449 68.32,54.359 82.54,96.94 32.32,98.09 22.12,193.14 -27.71,283.21 -8.89,15.81 -23.07,30.18 -37.91,40.79 -46.56,33.14 -111.32,29.29 -163.65,-6.54 -25.03,-17.33 -37.82,-40.56 -37.6,-71.32 0.39,-46.65 0.11,-93.26 0.32,-139.88 z m -177.69,516.51 c -2.25,10.73 -2.82,17.97 9.64,21.5 50.11,14.33 100.04,29.88 150.06,44.81 6.15,1.9 12.28,3.68 20.61,5.88 0.05,-122.07 -0.03,-242.37 0.16,-362.62 0.92,-0.41 1.77,-0.78 2.84,-1.17 2.31,2.69 4.68,5.28 6.83,8.35 41.9,56.05 97.96,85.51 168.03,84.16 74.68,-1.49 127.32,-41.41 166,-102.37 37.14,-58.43 45.37,-123.89 40.13,-190.95 -8.76,-111.83 -60.66,-197.57 -160.84,-251.039 -34.3,-18.34 -72.07,-25.14 -110.83,-27.261 -65.3,-3.688 -125.86,10.878 -182.86,41.91 -20.51,11.3 -31.03,27.14 -30.69,52.949 0.83,202.171 0.38,404.231 0.44,606.431 -0.15,8.05 -0.09,16.12 -0.67,24.08 -1.51,34.99 -22.3,51.5 -57.04,46.22 -4.8,-0.65 -9.83,-1.22 -14.69,-1.5 -2.19,-0.22 -4.27,0.24 -7.12,0.62" /><path
         id="path22"
         style="fill:#559e98;fill-opacity:1;fill-rule:evenodd;stroke:none"
         d="m 2454.34,549.699 c -466.11,-0.051 -932.33,-0.117 -1398.43,-0.179 -21.41,-0.051 -19.11,-2.098 -19.22,19.628 -0.14,32.204 -0.14,32.204 32.27,32.293 927.28,0.149 1854.65,0.321 2782,0.489 4.22,-0.039 8.12,-0.489 12.15,0.05 9.72,1.161 12.05,-3.242 12.15,-12.449 0.23,-39.551 0.56,-39.562 -38.6,-39.601 -460.68,-0.071 -921.56,-0.16 -1382.32,-0.231" /><path
         id="path24"
         style="fill:#559e98;fill-opacity:1;fill-rule:evenodd;stroke:none"
         d="m 6729.75,550.352 c -393.98,-0.032 -787.93,-0.161 -1182.07,-0.071 -21.46,-0.051 -19.06,-1.941 -19.06,19.578 -0.11,32.211 -0.03,32.192 32.3,32.282 784.24,0.097 1568.7,0.211 2352.91,0.339 22.39,-0.011 19.85,2.411 19.77,-20.332 0.39,-31.507 0.17,-31.476 -31.34,-31.519 -390.93,-0.047 -781.77,-0.129 -1172.51,-0.277" /><path
         id="path26"
         style="fill:#559e98;fill-opacity:1;fill-rule:evenodd;stroke:none"
         d="m 6418.97,1174.04 c 0.06,-56.95 6.85,-100.78 25.23,-149.71 16.32,-43.342 35.65,-84.978 73.43,-114.971 47.17,-37.418 115.07,-37.769 159.29,0.352 22.92,19.371 35.94,45.48 45.22,73.309 22.77,68.49 23.4,138.6 9.27,208.84 -10.12,50.88 -27.42,99.14 -58.15,141.27 -28.32,38.83 -67.21,59.29 -115.04,57.94 -53.98,-1.52 -91.14,-30.82 -113.77,-78.54 -20.92,-43.78 -25.9,-90.67 -25.48,-138.49 z M 6851,1142.58 c 0.12,-84.49 -28.52,-157.76 -86.31,-218.74 -45.73,-48.289 -102.76,-72.66 -169.53,-75.18 -60.81,-2.488 -117.12,10.93 -166.68,47.309 -69.13,51.133 -108.21,119.361 -117.9,204.961 -6.95,61.7 -1.1,121.63 27.57,177.37 42.39,82.18 108.06,134.08 201.98,145 91.29,10.33 172.17,-12.02 237.23,-79.55 41.42,-43.12 63.39,-95.57 69.97,-154.43 1.86,-15.55 2.42,-31.2 3.67,-46.74" /><path
         id="path28"
         style="fill:#559e98;fill-opacity:1;fill-rule:evenodd;stroke:none"
         d="m 6152.76,1109.67 c -0.7,8.72 -1.61,24.72 -3.24,40.75 -5.77,61.39 -24.19,118.9 -56.48,171.35 -39.53,64.69 -110.99,83.78 -169.15,59.06 -44.15,-18.74 -66.95,-56.26 -79.66,-100.54 -17.4,-60.8 -18.02,-122.74 -7.2,-184.48 10.05,-56.83 28.8,-110.83 63.91,-157.349 32.53,-43.012 76.31,-62.641 130.03,-55.949 42.28,5.32 69.76,31.687 89.12,68.148 25.02,47.41 31.67,98.79 32.67,159.01 z M 5993.48,847.559 c -134.38,-3.36 -242.19,102.671 -266.12,221.991 -13.76,69.11 -11.35,137.2 19.36,201.72 39.21,82.23 102.42,136.25 193.84,150.59 80.7,12.55 156.85,-1.16 222.41,-53.96 47.21,-38.08 77.99,-86.71 90.64,-146.26 16.35,-77.82 12.07,-154 -25.36,-225.32 -39.08,-74.351 -96.29,-126.898 -181.68,-143.398 -2.72,-0.57 -5.15,-1.231 -7.92,-1.371 -15,-1.469 -30.18,-2.801 -45.17,-3.992" /><path
         id="path30"
         style="fill:#559e98;fill-opacity:1;fill-rule:evenodd;stroke:none"
         d="m 2924.8,1240.11 c -3.24,18.24 -5.37,34.58 -9.1,50.55 -17.74,77.79 -77.03,102.35 -144.44,87.25 -44.24,-10.05 -68.89,-42.37 -84.59,-82.13 -6.65,-17.41 -10.58,-36.07 -16.21,-55.5 86.67,-0.08 169.19,-0.03 254.34,-0.17 z m 146.59,-185.7 c -10.24,-31.98 -26.09,-61.301 -46.24,-88.199 -28.7,-37.68 -60.52,-72.832 -104.74,-91.941 -78.86,-34 -157.02,-34.418 -229.88,14.941 -51.13,34.238 -78.93,86.269 -94.5,143.969 -27.43,101.56 -16.64,198.04 43.05,287.17 69.24,103.1 194.43,128.2 287.26,85.94 65.98,-30 106.44,-81.27 117.89,-153.81 1.89,-13.26 2.51,-26.59 4.32,-39.97 1.06,-6.99 -1.31,-10.21 -8.35,-9.88 -4.11,0.05 -8.13,-0.07 -12.11,-0.15 -113.33,0.13 -226.81,0.13 -340.29,0.01 -18.41,-0.08 -18.99,-0.11 -17.21,-18.56 4.9,-55.44 13.43,-110.17 43.51,-158.63 48.68,-78.05 141.52,-108.749 224.52,-74.03 41.72,17.32 69.75,50.78 95.63,85.88 3.06,3.76 5.32,8.18 8.14,12.33 9.76,15.32 12.09,15.68 29,4.93" /><path
         id="path32"
         style="fill:#559e98;fill-opacity:1;fill-rule:evenodd;stroke:none"
         d="m 7562.03,859.859 c 0.01,67.121 -0.04,129.762 -0.04,193.501 6.03,0.01 11.55,0.06 18.33,-0.04 4.04,-14.49 7.65,-30.1 12.4,-45.29 12.26,-39.96 29.78,-77.241 66.27,-101.03 38.04,-25.031 79.82,-31.691 122.75,-16.191 57.23,20.703 73.23,94.589 32.47,139.641 -20.3,22.42 -46.76,35.52 -71.78,50.94 -41.09,25.29 -82.99,49.45 -122.18,77.52 -39.7,28.29 -60.94,69.23 -60.7,118.44 0.42,58.35 26.78,103.16 78.3,131.38 49.62,27.14 101.78,26.72 154.7,11.1 11.57,-3.41 23.07,-6.85 34.54,-10.48 12.67,-3.79 24.38,-4.86 34.88,6.02 2.83,2.72 8.8,2.34 15.29,3.84 0.89,-27.75 1.8,-53.5 2.74,-79.34 1,-25.02 1.12,-50.07 2.56,-75.03 0.91,-15.5 -8.44,-12.55 -16.79,-11.7 -8.24,23.71 -15.11,47.57 -24.81,70.49 -23.62,56.64 -74.65,85.54 -134.31,76.89 -32.52,-4.64 -54.37,-23.42 -65.84,-53.86 -11.93,-31.53 -4.95,-59.58 17.07,-84.43 21.21,-23.65 49.01,-37.18 75.77,-52.39 38.89,-21.89 78.13,-43.66 115.55,-68.04 27.68,-18.29 50.49,-43.19 63.02,-74.94 28.14,-70.669 1.32,-153.258 -79.75,-191.04 -57.63,-26.679 -117.01,-24.769 -176.89,-9.761 -15.11,3.8 -30.3,7.972 -45.58,11.312 -11.84,2.641 -22.45,2.141 -30.47,-9.973 -2.72,-3.816 -10.23,-4.5 -17.5,-7.539" /><path
         id="path34"
         style="fill:#559e98;fill-opacity:1;fill-rule:evenodd;stroke:none"
         d="m 3591.99,1372.87 c -18.57,-0.03 -35.65,-0.54 -52.47,0.26 -5.78,0.3 -11.67,3.88 -17.38,6.03 3.17,5.99 4.96,13.36 9.56,17.62 16.52,15.83 35.81,28.75 50.71,45.93 32.68,38.39 63.19,78.72 94.92,117.97 3.92,4.76 9.54,7.82 14.6,11.76 1.64,-5.92 4.88,-11.9 4.92,-17.79 0.57,-45.28 0.34,-90.46 0.36,-137.38 5.64,-0.04 10.17,-0.63 14.89,-0.65 30.98,-0.18 61.92,-0.35 92.77,0.1 9.42,0.16 13.56,-2.11 13.62,-12.56 0.14,-31.28 0.56,-31.22 -31.04,-31.23 -26.34,-0.04 -52.8,-0.28 -79.27,0.21 -8.85,0.15 -12.76,-2.18 -12.84,-12 0.08,-119.15 -0.06,-238.24 0.13,-357.45 -0.18,-11.452 2.2,-23.159 4.93,-34.452 11.38,-47.109 57.75,-64.906 97.96,-37.179 11.67,8.113 21.64,18.421 33.66,28.992 4.63,-3.539 9.59,-7.41 14.98,-11.629 -28.51,-43.953 -62.61,-78.59 -114.43,-90.621 -71.98,-16.832 -125.73,19.429 -135.35,92.738 -3.12,24.301 -4.69,48.921 -5.1,73.461 -0.3,109.37 -0.01,218.73 -0.23,328 0.14,5.83 0.04,11.59 0.1,19.87" /><path
         id="path36"
         style="fill:#559e98;fill-opacity:1;fill-rule:evenodd;stroke:none"
         d="m 1838.85,884.121 c 0.04,-6.48 0.02,-11.25 -0.03,-16.98 -97.27,0.031 -193.7,-0.051 -289.96,-0.059 -4.03,17.777 -3.29,17.969 12.54,19.859 11.12,1.508 22.14,3.348 33.03,6.321 28.62,7.84 40.75,23.5 41.57,55.847 0.85,38.52 0.42,77.091 0.56,115.601 -0.05,64.99 0.25,129.93 -0.61,194.89 -0.4,16.84 -2.8,33.9 -7.02,50.29 -7.71,29.22 -27.24,40.36 -56.87,34.72 -6.99,-1.28 -13.77,-2.23 -21.22,-3.43 -2.64,11.25 -2.77,18.79 10.21,23.49 55.03,19.78 109.51,40.76 164.22,61.37 2.04,0.68 4.21,1.08 9.89,2.42 -0.03,-36.27 -0.03,-71.56 -0.08,-106.5 1.36,-0.15 2.63,-0.2 3.86,-0.24 15.81,17.97 30.96,36.42 47.22,53.94 22.44,24.2 47.37,44.56 81.56,50.82 37.42,7 73.37,-12.77 81.9,-45.89 7.03,-27.18 -2.65,-54.41 -24.53,-68.32 -18.66,-11.84 -45.4,-7.37 -66.96,11.09 -7.44,6.28 -15.08,12.41 -23.06,18.19 -12,8.61 -24.57,7.61 -36.03,-0.68 -37.37,-27.14 -63.44,-59.91 -62.46,-110.19 1.45,-85.54 0.33,-171.14 0.57,-256.59 0.05,-11.121 1.22,-22.43 3.57,-33.328 7.44,-33.231 30.23,-51.16 67.74,-53.91 9.83,-0.743 19.41,-1.821 30.39,-2.731" /><path
         id="path38"
         style="fill:#559e98;fill-opacity:1;fill-rule:evenodd;stroke:none"
         d="m 3295.55,1317.55 c 14.89,17.87 26.69,32.87 39.19,47.24 19.1,22.33 40.2,42.51 67.4,54.29 25.34,10.89 51,13.35 76.38,-0.03 33.34,-17.69 43.24,-62.06 20.8,-92.51 -14.16,-19.26 -37.23,-26.5 -59.41,-15.87 -12.68,6.04 -24.16,15.28 -35.14,24.02 -20.64,16.38 -33.6,17.37 -54.01,1.38 -34.8,-27.07 -55.67,-60.17 -54.69,-107.36 2.21,-85.1 0.73,-170.3 0.87,-255.44 -0.06,-8.391 0.36,-16.911 1.97,-25.27 8.3,-40.719 29.27,-58.469 70.96,-61.09 9.23,-0.512 18.47,-1.672 28.51,-2.57 0.05,-6.031 -0.04,-11.02 0.08,-17 -4.49,-0.25 -8.6,-0.86 -12.35,-0.828 -89.12,-0.102 -178.37,-0.242 -267.58,0.207 -4.48,-0.078 -11.54,3.242 -12.76,6.75 -2.58,7.59 0.15,13.551 10.62,13.75 7.96,-0.11 15.95,1.402 23.81,3.07 41.42,7.891 55.14,24.02 55.82,67.031 0.44,40.18 0.41,80.55 0.48,120.91 -0.22,59.19 0.27,118.34 -0.82,177.38 -0.32,18.15 -3.31,36.59 -7.78,54.3 -6.95,28.69 -25.92,40.01 -55.08,35.14 -7.53,-1.11 -14.85,-2.4 -22.82,-3.77 -4.73,12.07 -2.8,18.79 10.39,23.44 54.04,19.53 107.98,39.96 161.62,60.55 10.5,4.04 12.67,0.63 12.48,-8.82 0.05,-26.81 0.16,-53.72 0.26,-80.6 0,-4.8 0.4,-9.42 0.8,-18.3" /><path
         id="path40"
         style="fill:#559e98;fill-opacity:1;fill-rule:evenodd;stroke:none"
         d="m 1094.84,204.031 c -0.04,-12.992 0.43,-26.101 -0.15,-38.949 -0.46,-10.441 4.04,-15.184 13.71,-15.344 15.24,-0.148 30.67,-1.097 45.66,0.344 29.17,2.648 49.47,20.297 52.15,43.527 3.17,29.243 -11.37,53.782 -40.79,60.711 -18.9,4.461 -39.56,2.66 -59.52,3.102 -8.26,0.168 -11.53,-5.031 -11.13,-13.16 0.35,-13.481 0.05,-26.953 0.07,-40.231 z m 0.06,-125.0115 c -0.06,-14.7304 0.14,-29.5078 -0.02,-44.3203 -0.18,-7.3008 2.12,-12.1601 10.16,-12.3984 20.94,-0.4688 42.04,-3.3125 62.48,-0.6289 25.5,3.289 43.47,22.4883 46.72,43.6992 5.08,32.0898 -14.38,60.2309 -49.35,66.5509 -19.69,3.789 -40.7,2.887 -61.24,2.887 -2.93,0.011 -8.18,-6.43 -8.38,-10.079 -0.94,-15.23 -0.34,-30.48 -0.37,-45.7105 z M 1021.77,269.41 c 3.43,0.442 7.04,1.149 10.67,1.281 42.89,0.11 86.24,1.508 128.74,-1 19.06,-1 39.6,-6.601 55.7,-16.261 42.36,-25.301 39.79,-80.809 -3.17,-104.942 -3.22,-1.879 -6.3,-4.09 -11.45,-7.039 5.58,-2.211 9.15,-3.789 12.69,-5.008 23.08,-7.632 38.99,-22.351 42.93,-46.859 4.17,-27.3007 -5.73,-49.2031 -27.48,-65.8515 -17.15,-13.0196 -37.95,-16.50003 -58.21,-16.96097 -48.41,-1.23047 -96.95,-0.48828 -145.1,-0.55078 -1.76,0.0625 -3.23,0.89063 -5.34,4.36325 3.26,0.5274 6.57,1.3789 9.93,1.6797 17.43,1.25 26.39,9.7696 26.49,27.1289 0.24,66.3904 0.35,132.6604 -0.11,198.9884 -0.21,18.269 -8.23,25.312 -26.78,26.172 -3.17,0.258 -6.45,0.937 -9.56,1.48 -0.05,1.18 -0.05,2.27 0.05,3.379" /><path
         id="path42"
         style="fill:#559e98;fill-opacity:1;fill-rule:evenodd;stroke:none"
         d="m 1392.39,141.629 c 9.2,0.082 16.43,-0.649 23.4,0.203 27.54,3.43 52.07,12.449 61.2,41.828 7.15,22.41 2.55,43.442 -15.24,59.988 -18.22,17.153 -40.63,15.543 -63,11.231 -2.58,-0.559 -6.1,-5.66 -6.11,-8.508 -0.55,-34.269 -0.11,-68.691 -0.25,-104.742 z m 0.19,-13.578 c 0.21,-31.551 -0.59,-63.1994 0.33,-94.8322 0.48,-12.8399 9.7,-19.6485 22.35,-20.7969 4.57,-0.5313 9.21,-0.8008 13.83,-1.1914 0,-1.1485 -0.29,-2.39066 -0.15,-3.46878 -37.04,-0.0625 -73.91,-0.05078 -110.79,-0.14063 -0.19,1.12891 -0.28,2.09766 -0.58,3.07031 3.92,0.5078 7.58,1.3594 11.36,1.5078 15.46,1.211 25.02,9.6094 25.06,24.3203 0.35,68.1715 0.35,136.1915 -0.17,204.4105 0,15.672 -8.45,22.82 -24.69,23.691 -3.79,0.117 -7.57,0.649 -11.33,1.02 -0.08,1.14 -0.16,2.328 -0.31,3.359 3.08,0.531 5.88,1.648 8.94,1.672 39.93,0.019 79.61,0.789 119.69,-0.652 13.91,-0.43 28.3,-4.239 41.03,-9.918 24.21,-11.032 36.93,-31.692 36.31,-58.032 -0.52,-27.34 -15.3,-47.019 -40.5,-58.261 -7.21,-3.129 -14.73,-5.547 -24.29,-9.09 6.09,-8.66 11.18,-16.078 16.64,-23.5 14.85,-20.7307 29.69,-41.5471 44.77,-61.9885 13.36,-18.2383 29.6,-32.4219 52.89,-36.2813 2.01,-0.25 4.1,-1.2304 6.27,-2.0586 0.23,-0.1601 0.18,-0.832 0.82,-2.94919 -3.23,-0.69922 -6.41,-1.49219 -9.26,-1.51953 -9.32,-0.23047 -19.13,1.22656 -28.21,-0.33204 -23.81,-4.21875 -38.7,5.44926 -51.42,25.46096 -17.42,27.5078 -38.82,52.6875 -56.68,79.8902 -10.15,15.508 -21.32,23.071 -41.91,16.61" /><path
         id="path44"
         style="fill:#559e98;fill-opacity:1;fill-rule:evenodd;stroke:none"
         d="m 7242.65,142.781 c 24.28,-1.301 45.37,0.879 64.1,13.61 23.87,16.578 30.3,50.937 14.7,76.82 -13.36,21.961 -51.61,33.719 -73.94,22.187 -2.16,-1.089 -4.63,-4.519 -4.65,-6.898 -0.44,-34.75 -0.39,-69.609 -0.21,-105.719 z M 7429.82,7.78125 c -22.38,-0.08984 -45.12,-0.37109 -67.62,0.30859 -2.61,0.1211 -5.64,5.03906 -8.02,8.08206 -23.79,32.539 -48.22,64.6172 -70.67,98.0391 -10.6,15.578 -22.3,20.051 -40.34,15.059 -0.06,-32.2309 -0.73,-64.7583 0.31,-97.1684 0.53,-11.3633 9.91,-17.5508 21.37,-18.7032 4.7,-0.4765 9.29,-0.6171 14.02,-0.9101 0,-1.168 -0.1,-2.3672 -0.14,-3.51955 -36.92,-0.07031 -73.85,-0.04687 -110.68,-0.00781 -0.1,0.67969 -0.32,1.48826 -0.43,2.21096 2.74,0.7383 5.51,1.7187 8.32,2 21.06,1.6172 28.28,9.1484 28.36,30.5273 0.14,54.6992 0.1,109.4418 0.08,163.9218 0.09,10.07 0.11,19.848 -0.16,29.617 -0.43,20.371 -7.28,27.313 -27.35,28.383 -2.58,0.051 -5.24,0.559 -7.67,1.109 -0.57,0.141 -0.73,1.352 -2,3.379 3.74,0.61 7.1,1.539 10.08,1.539 39.57,0.024 79,0.434 118.41,-0.386 22.86,-0.602 44.28,-6.242 60.72,-23.922 30.53,-33 19.12,-83.731 -23.09,-102.43 -7.19,-3.23 -14.81,-5.64 -22.91,-8.551 0.55,-2.23 0.68,-4.238 1.54,-5.371 21.34,-29.386 42.19,-58.8278 64.28,-87.738 6.45,-8.2617 14.8,-15.6016 23.97,-21.0195 8.82,-5.1485 19.68,-7.3086 29.58,-10.6992 0.01,-1.3204 -0.07,-2.58208 0.04,-3.75005" /><path
         id="path46"
         style="fill:#559e98;fill-opacity:1;fill-rule:evenodd;stroke:none"
         d="m 5462.99,18.4297 c 46.82,0.6523 87.11,28.6601 99.67,73.5508 5.35,19.4105 6.7,40.6015 6.01,60.7105 -2.39,74.239 -65.05,120.098 -136.99,102.207 -7.94,-1.859 -10.23,-5.039 -10.19,-12.418 0.12,-69 0.23,-137.98 -0.06,-206.8706 -0.03,-7.3086 1.4,-11.8711 9.92,-12.5 10.59,-0.7891 21.1,-2.9805 31.64,-4.6797 z M 5346.98,270.039 c 3.66,0.422 6.94,1.211 10.16,1.293 42.9,0.059 85.96,1.078 128.94,-0.523 36.92,-1.379 72.16,-9.887 96.99,-40.739 34.52,-43.019 38.5,-91.66 21.21,-141.7614 C 5587.69,40.6484 5550.56,14.1602 5501.45,10.2383 5451.21,6.23047 5400.42,8 5350.03,7.21875 c -0.56,0.05078 -1.44,0.87109 -4.72,3.40235 5.22,0.9687 8.59,1.9687 11.9,2.3594 18.03,1.2109 26.08,8.3906 26.15,26.8281 0.39,65.8124 -0.16,131.4614 0.36,197.2304 0.16,18.051 -10.32,30.34 -28.6,28.332 -2.09,-0.281 -4.36,0.539 -6.35,1.277 -0.66,0.102 -0.91,1.383 -1.79,3.391" /><path
         id="path48"
         style="fill:#559e98;fill-opacity:1;fill-rule:evenodd;stroke:none"
         d="m 3111.19,10.3203 c 1.6,0.711 2.91,1.7695 4.57,2.0703 25.75,3.4414 29.98,6.5899 31.43,32.0899 1.54,26.789 0.97,53.7304 0.26,80.5895 -0.06,3.282 -6.12,9.09 -9.51,9.121 -35.39,0.637 -70.86,0.61 -106.1,0.047 -3.21,-0.078 -9.09,-5.929 -9.14,-9.297 -0.67,-29.6715 -0.57,-59.2027 -0.02,-88.7027 0.24,-13.9063 9.31,-22.0078 24.41,-23.4883 3.95,-0.5703 8,-0.9687 12.12,-1.4609 -0.16,-1.0899 -0.29,-2.25785 -0.37,-3.35941 -36.92,-0.03906 -73.66,-0.08985 -110.56,-0.03125 -0.16,1.11328 -0.22,2.28126 -0.16,3.38286 4.49,0.4375 8.91,0.8984 13.55,1.3398 14.11,1.6172 22.29,9.1484 22.45,23.5508 0.17,67.5781 0.5,135.2261 -0.05,202.7891 -0.05,18.699 -7.46,24.73 -26.66,26.019 -3.15,0.18 -6.31,1 -9.16,4.59 36.8,0.039 73.58,-0.019 110.55,0.059 -0.11,-1.141 0.07,-2.32 0.14,-3.508 -3.89,-0.383 -7.72,-0.973 -11.61,-1.211 -16.11,-1.058 -24.41,-8.68 -24.76,-24.14 -0.46,-27.79 -0.08,-55.649 -0.41,-83.321 0.12,-7.668 3.08,-10.277 10.49,-10.277 34.91,0.379 69.85,-0.113 104.71,0.457 3.54,0.152 10.03,5.562 10.03,8.5 0.36,28.269 0.68,56.453 -1.01,84.621 -0.97,17.18 -8.79,22.82 -26.03,24.199 -3.11,0.313 -6.21,1.02 -8.88,4.52 36.3,-0.008 72.7,-0.02 108.92,-0.028 -0.11,-0.98 -0.01,-2.191 0.08,-3.3 -3.58,-0.442 -7.27,-0.93 -10.92,-1.2 -16.54,-1.062 -25.3,-8.652 -25.25,-25.191 -0.44,-67.102 -0.47,-134.512 -0.06,-201.7305 0.18,-15.6992 9.48,-23.7812 25.69,-25.3984 3.53,-0.3203 7.12,-0.9023 10.38,-4.42969 -36.31,-0.08985 -72.5,-0.08985 -108.63,-0.01172 -0.15,0.66015 -0.09,1.46094 -0.49,2.14061" /><path
         id="path50"
         style="fill:#559e98;fill-opacity:1;fill-rule:evenodd;stroke:none"
         d="m 2324,139.898 c 0.03,-33.988 -0.26,-68.0777 0.42,-102.1167 0.07,-4.793 4.05,-13.1797 7.53,-14.1211 49.69,-12.8086 100.08,-1 127.94,51.5898 12.41,23.2383 13.89,48.582 13.34,74.422 -1.85,73.519 -64.08,121.84 -135.66,105.437 -10.8,-2.347 -13.89,-6.988 -13.65,-17.148 0.27,-32.68 0.15,-65.449 0.08,-98.063 z m -72.87,129.903 c 3.45,0.289 6.88,1.019 10.17,1.078 42.5,-0.18 85.11,1.012 127.7,-0.539 34.33,-1.192 67.98,-8.149 92.71,-35.41 37.87,-41.75 44.01,-91.071 27.59,-142.8987 -16.1,-50.2305 -53.73,-78.3204 -105.22,-82.51177 -49.45,-3.8789 -99.39,-2.33984 -149.05,-2.89062 -1.36,-0.07813 -2.72,1.16015 -4.02,4.42189 3.54,0.5 7.17,1.1211 10.74,1.3984 15.93,1.211 25.44,9.7422 25.52,25.5625 0.34,67.2073 0.39,134.4183 -0.2,201.5583 -0.06,17.59 -8.24,24.231 -26.29,25.301 -3.15,0.16 -6.52,0.789 -9.78,1.289 0.17,1.09 0.2,2.36 0.13,3.641" /><path
         id="path52"
         style="fill:#559e98;fill-opacity:1;fill-rule:evenodd;stroke:none"
         d="m 4093.13,138.859 c 0.03,-34.07 -0.12,-68.0074 0.3,-102.0699 0.07,-4.4688 3.15,-11.8086 6.09,-12.668 38.68,-9.3711 75.74,-7.1719 106.84,21.3477 30.98,28.2695 38.29,65.2812 36.36,105.1602 -3.91,75.601 -64.36,120.891 -137.62,104.16 -9.87,-2.238 -12.09,-6.32 -12.02,-15.16 0.27,-33.59 0.14,-67.117 0.05,-100.77 z M 4019.29,8.25 c 2.41,2.6484 3.21,3.6992 3.79,3.9219 30.83,5.0703 34.17,9.0078 34.28,40.6367 0.06,57.8324 0.06,115.7224 0,173.4804 -0.27,7 -1.13,14.16 -2.16,21.152 -1.94,11.641 -9.81,16.418 -20.8,17.469 -4.5,0.512 -9.03,0.711 -13.68,1.051 0,1.09 -0.04,2.121 -0.02,3.301 2.53,0.648 5.13,1.797 7.86,1.718 43.95,0.129 87.79,1.86 131.51,-0.41 53.89,-2.988 96.26,-18.672 118.48,-81.3 20.29,-57.141 3.99,-119.2583 -39.13,-153.77 C 4214.9,16.0586 4185.97,8.12891 4155.8,7.10938 4113.59,5.62109 4071.45,6.71875 4029.37,6.76953 4026.54,6.76172 4023.76,7.53125 4019.29,8.25" /><path
         id="path54"
         style="fill:#559e98;fill-opacity:1;fill-rule:evenodd;stroke:none"
         d="m 1660.53,141.371 c 1.14,-0.191 2.29,-0.519 3.53,-0.633 -1.03,-26.769 2.55,-52.738 13.61,-77.2692 10.42,-23.2579 25.92,-41.7071 51.95,-48.2774 45.12,-11.13281 87.67,14.9688 99.93,62.3281 4.33,17.1914 6.38,35.1605 6.73,52.8395 0.69,31.442 -1.66,62.551 -16.52,91.391 -10.38,19.789 -25.25,34.32 -47.6,40.082 -43.39,11.156 -80.94,-7.273 -96.42,-50.48 -7.91,-22.403 -10.25,-46.661 -15.21,-69.981 z m 218.9,-2.223 C 1878.99,74.7305 1844.47,22.8203 1788.82,6.23047 1706.51,-18.2695 1636.21,32.4883 1623.11,106.371 c -10.51,59.68 2.51,111.82 54.53,148.039 40.29,28.051 84.89,31.828 128.49,10.399 45.54,-22.438 69.97,-61.028 73.22,-112.207 0.39,-4.411 0.13,-9.012 0.08,-13.454" /><path
         id="path56"
         style="fill:#559e98;fill-opacity:1;fill-rule:evenodd;stroke:none"
         d="m 3491.84,130.832 c -3.02,23.777 -4.04,42.219 -8.15,59.867 -7.45,32.262 -21.74,60.461 -56.38,70.91 -44.31,13.36 -83.86,-7.519 -100.24,-52.629 -12.91,-35.699 -14.19,-72.57 -7.01,-109.6402 2.53,-13.4414 6.69,-26.9492 12.47,-39.371 14.38,-31.2891 38.53,-48.9688 74.09,-46.8477 34.64,1.8672 59.4,20.75 71.07,52.5391 8.3,22.2695 10.53,46.6208 14.15,65.1718 z m -85.39,146.359 c 61.48,3.989 117.78,-53.429 124.9,-112.269 7.84,-63.731 -15.31,-119.5704 -65.07,-147.672 -78.46,-44.2109 -180.34,0.2188 -192.12,99.84 -4.5,39.769 1.31,76.719 26.25,109 26.26,34.058 60.77,51.68 106.04,51.101" /><path
         id="path58"
         style="fill:#559e98;fill-opacity:1;fill-rule:evenodd;stroke:none"
         d="m 6245.17,271.48 c 8.89,0.02 18.25,-1.308 26.93,0.34 32.89,5.782 53.78,-8.39 73.25,-34.621 38.92,-52.109 81.45,-101.32 122.42,-151.5974 2.49,-3.043 4.34,-6.6524 6.64,-10.0118 1.52,0.7696 2.83,1.4805 4.4,2.1211 0.48,4.5508 1.02,9.0274 0.91,13.6485 0.07,45.2106 0.24,90.3786 -0.02,135.8006 0.07,6.149 -0.93,12.512 -1.6,18.559 -1.45,12.859 -9.37,18.64 -21.58,19.64 -4.87,0.379 -9.72,0.95 -14.5,1.422 0.2,1.188 0.15,2.34 0.35,3.508 29.66,-0.039 59.39,-0.117 88.98,0.02 0.16,-1.098 0.32,-2.36 0.57,-3.579 -4.03,-0.441 -8.11,-0.992 -11.97,-1.269 -12.74,-0.91 -21.2,-6.672 -22.53,-20.09 -0.94,-9.019 -2.29,-17.781 -2.2,-26.711 -0.23,-67.262 -0.05,-134.5116 -0.16,-201.6287 -0.02,-4.8594 -0.35,-9.33208 -0.64,-14.06255 -1.32,-0.52734 -2.51,-1.07812 -3.67,-1.63672 C 6432.5,72.3984 6374.37,143.32 6316.08,214.27 c -0.93,-0.45 -1.94,-0.782 -3.05,-1.141 -0.33,-4.149 -0.79,-8.301 -0.81,-12.359 -0.14,-47.879 -0.03,-95.809 -0.07,-143.8286 0.1,-4.043 0.15,-8.1406 0.55,-12.0508 2.53,-25.9023 5.66,-28.9101 31.77,-31.9218 1.3,-0.1797 2.99,-1.2774 4.25,-4.2188 -29.67,0.01953 -59.44,-0.05078 -88.97,-0.05859 -0.07,0.85937 -0.32,1.67969 -0.56,2.68749 4.15,0.5195 8.3,1.3008 12.53,1.6797 14.68,1.3906 22.33,7.5898 23.28,22.4609 1.55,19.6211 1.64,39.1914 1.84,58.9414 0.35,41.6411 0.04,83.2891 0.14,124.9101 0.06,24.609 -16.44,42.988 -41.13,45.91 -3.56,0.449 -7.14,0.969 -10.81,1.469 0.1,1.609 0.22,3.18 0.13,4.73" /><path
         id="path60"
         style="fill:#559e98;fill-opacity:1;fill-rule:evenodd;stroke:none"
         d="m 6186.49,214.789 c -1.59,3.82 -3.25,7.57 -4.31,11.34 -6.69,24.32 -15.25,32.371 -40.35,33.223 -24.18,1.007 -48.34,0.539 -72.58,-0.043 -3.36,-0.137 -9.73,-4.547 -9.63,-7.25 -0.62,-32.469 -0.42,-65.02 -0.46,-98.77 26.06,0.102 50.47,-0.641 75.1,0.34 12.29,0.43 20.16,8.691 23.55,20.769 1.3,5.293 2.73,10.543 4.02,15.934 1.15,-0.352 2.32,-0.531 3.49,-0.742 -0.11,-29.25 0,-58.5 0.11,-87.692 -1.07,-0.238 -2.16,-0.546 -3.25,-0.82 -1.46,4.152 -3.27,8.32 -4.22,12.391 -3.52,15.07 -11.07,23.961 -26.03,24.633 -23.64,1.289 -47.24,0.296 -72.82,0.429 -0.05,-14.801 0.01,-28.582 0.03,-42.1326 -0.07,-19.3281 -0.08,-38.5898 0.16,-57.7773 -0.05,-10.4727 4.87,-18.1016 15.5,-18.0625 27.06,-0.2383 54.55,-0.5977 81.67,1.9414 16.37,1.4805 26.57,15.2305 35.66,28.3203 4.87,7.1289 9.36,14.5391 16.04,24.961 0.82,-6.0899 1.45,-8.25 1,-10.0625 -5.78,-16.75 -11.32,-33.6875 -18,-50.3985 -1.6,-3.6914 -7.36,-7.85936 -11.28,-7.83202 -62.8,-0.5664 -125.37,-0.46875 -188.26,-0.33984 -2.31,-0.03906 -4.53,1.03125 -10.05,2.38281 4.92,1.84765 6.72,3.17965 8.8,3.30075 27.14,3.0899 31.97,8 32.09,35.6485 0.42,49.6992 0.29,99.4415 0.03,149.1285 0.06,14.813 -0.27,29.629 -1.46,44.25 -1.87,18.731 -6.78,22.692 -25.69,23.582 -2.97,0.079 -5.91,0.547 -8.97,1.118 -0.59,0.07 -0.93,1.332 -2.64,3.961 5.14,0.48 9.39,0.941 13.44,0.96 59.12,0.04 118.12,-0.359 177.31,0.399 11.43,-0.059 14.71,-4.02 14.65,-14.539 0.14,-13.93 1.22,-27.879 1.95,-41.758 -1.51,-0.184 -3.15,-0.523 -4.6,-0.793" /><path
         id="path62"
         style="fill:#559e98;fill-opacity:1;fill-rule:evenodd;stroke:none"
         d="m 7644.38,189.59 c 0.02,-29.121 0.04,-58.32 0.07,-87.43 -0.98,-0.121 -1.78,-0.289 -2.75,-0.43 -1.45,3.969 -3.04,7.93 -4.16,12.008 -4.06,16.723 -11.84,24.473 -28.35,25.063 -22.8,0.769 -45.56,0.16 -68.78,0.187 -0.89,-2.597 -1.77,-4.777 -1.84,-6.867 -0.12,-30.48 0.16,-61.0429 0.2,-91.539 -0.05,-12.1836 5.62,-20.2304 18.01,-20.4218 25.95,0.039 52.03,-0.2305 77.74,2.1601 17.56,1.3906 28.68,15.211 37.8,29.6485 4.72,7.0312 9.71,14.1093 14.3,21.2929 1.34,-0.7109 2.71,-1.3828 4.03,-2.1328 -6.92,-20.2891 -13.91,-40.6094 -21.55,-60.7969 -0.56,-1.78122 -5.36,-2.88278 -8.07,-2.95309 -63.32,0.01953 -126.55,-0.07032 -189.75,0.13281 -1.72,-0.15234 -3.44,1.14844 -7.37,2.49998 3.36,1.6992 4.92,3.0274 6.35,2.9883 29.67,1.3594 32.11,14.0703 32.29,35.9297 0.4,60.5113 0.11,121.0703 0.02,181.5113 0.06,5.789 -1.55,11.559 -2.18,17.399 -1.16,11.988 -9.15,16.379 -19.93,17.609 -4.85,0.602 -9.72,0.949 -14.72,1.473 0.32,1.16 0.25,2.418 0.26,3.719 3.72,0.398 7.46,1.058 11.23,1.121 59.16,0.039 118.38,-0.192 177.58,0.179 9.27,0.11 14.56,-1.703 14.2,-12.043 -0.17,-14.628 -0.01,-29.16 -2.73,-44.539 -1.34,3.641 -3.04,7.192 -4.1,10.93 -7.39,24.801 -15.3,32.231 -40.3,33.242 -24.77,1.078 -49.35,0.551 -74.08,0.028 -3.02,-0.11 -8.74,-5.098 -8.87,-7.93 -0.59,-32.027 -0.45,-64.418 -0.41,-97.469 26.92,0.11 52.75,-0.75 78.41,0.481 11.27,0.468 17.69,9.41 20.63,20.379 1.32,5.019 2.57,9.921 3.98,14.808 1.01,-0.066 1.91,-0.187 2.84,-0.238" /><path
         id="path64"
         style="fill:#559e98;fill-opacity:1;fill-rule:evenodd;stroke:none"
         d="m 6845.36,270.359 c 36.88,-0.027 73.83,0.032 110.63,0.02 0.21,-1.199 0.35,-2.391 0.35,-3.559 -4.17,-0.441 -8.59,-1.05 -13.05,-1.308 -13.21,-0.832 -23.07,-8.582 -23.02,-21.532 0.13,-56.8 0.04,-113.699 2.27,-170.4683 2,-47.0625 44.32,-62.4922 80.99,-56.3515 46.52,7.7617 67.61,31.9804 68.58,79.6718 0.96,46.199 0.54,92.27 0.29,138.547 -0.28,22.262 -6.85,28.269 -29.91,30.25 -2.34,0.269 -4.55,1.43 -6.6,4.562 29.79,0.047 59.6,0 89.41,0.079 0.13,-0.911 0.36,-1.848 0.5,-2.801 -2.76,-0.559 -5.55,-1.668 -8.44,-1.797 -18.45,-1.32 -27.82,-10.391 -28,-28.992 -0.32,-40.68 0.08,-81.508 -0.38,-122.282 -0.21,-14.226 -1.39,-28.566 -4.13,-42.6675 -7.93,-40.3321 -35,-66.30081 -76.05,-69.25003 -22.75,-1.488282 -46.76,0.01953 -69.03,5.10937 -32.4,7.42186 -54.64,37.60156 -55.46,71.17186 -1.4,49.1483 -1.68,98.4373 -2.71,147.6873 -0.09,6.25 0.26,12.633 -0.94,18.801 -2.32,13 -9.98,20.461 -23.89,20.301 -3.93,-0.063 -7.71,0.699 -11.33,0.929 -0.02,1.329 -0.15,2.579 -0.08,3.879" /><path
         id="path66"
         style="fill:#559e98;fill-opacity:1;fill-rule:evenodd;stroke:none"
         d="m 2742.18,278.859 c 0.17,-32.621 0.13,-61.558 0.03,-90.437 -0.97,-0.274 -2.05,-0.524 -3.01,-0.801 -0.93,2.789 -2.03,5.668 -2.76,8.57 -7.87,40.27 -30.44,62.579 -67.7,67 -28.54,3.329 -54.81,-17.82 -51.95,-43.832 0.99,-8.757 6.45,-19.211 13.19,-24.839 14.28,-11.879 30.83,-21.438 46.7,-31.43 18.53,-11.5 38.25,-21.219 56.11,-34.039 26,-18.692 35.01,-48.4299 25.91,-77.1213 -8.71,-27.1406 -38.87,-49.41017 -68.13,-51.058606 -21.23,-1.128907 -41.74,1.437496 -61.86,8.980466 -14.01,5.44924 -28.19,11.19924 -38.66,-7.96093 0.05,29.00777 -0.07,57.92967 -0.08,86.82817 1.1,0.3007 2.26,0.6796 3.21,0.9414 1.29,-4.5899 3.44,-8.9297 4.3,-13.5899 9.75,-45.9687 46.04,-66.32811 91.4,-60.3906 17.74,2.4023 31.1,12.6406 37.35,30.7891 5.82,17.0234 -0.08,31.2226 -11.88,42.6914 -9.01,8.3906 -19.8,15.2108 -30.25,21.8278 -20.9,13.012 -42.84,24.563 -63.24,38.071 -30.13,20 -41.22,48.492 -32.18,78.242 9.03,30.07 37.02,50.32 71.96,49.25 15.74,-0.531 31.74,-4.301 46.85,-9.18 19.84,-6.562 20.2,-7.519 34.69,11.488" /><path
         id="path68"
         style="fill:#559e98;fill-opacity:1;fill-rule:evenodd;stroke:none"
         d="m 7759.11,0.960938 c -0.05,30.917962 -0.05,59.628862 -0.06,88.468762 0.87,0.1016 1.88,0.3789 3.01,0.5 1.57,-5.4492 3.75,-11.0391 5.02,-16.5195 9.7,-45.3086 50.02,-63.51957 92.3,-56.4493 17.54,2.9493 30.68,13.8985 35.67,31.3399 4.67,16.8203 -0.14,32.9609 -13.84,43.5195 -14.82,11.3787 -31.3,20.6407 -47.2,30.6487 -17.03,10.761 -34.65,20.429 -51.01,32.101 -24.88,17.719 -34.3,46.36 -26.25,73.571 7.76,26.539 33.82,48.32 62.67,48.808 17.39,0.27 35.25,-3.039 52.44,-7.39 14.25,-3.469 28.32,-14.969 36.57,11.621 0.73,-1.61 1.41,-3.258 2.15,-4.68 0.21,-29.18 0.18,-58.379 0.13,-87.578 -0.96,-0.363 -1.8,-0.633 -2.7,-0.902 -1.68,5.48 -3.33,10.769 -4.75,16.312 -9.64,40.906 -44.98,65.887 -82.89,58.406 -18.66,-3.738 -31.48,-15.047 -35.5,-33.906 -3.51,-16.492 4.48,-29.25 17.42,-37.754 25.09,-15.758 50.93,-29.777 75.86,-45.887 14.04,-9.211 28.75,-18.941 38.95,-31.871 16.48,-20.8395 18.26,-45.5387 5.87,-69.4489 -13.25,-25.8125 -35.49,-39.44922 -64.39,-42.10938 -22.76,-1.960939 -44.35,2.75 -65.68,10.33988 -19.06,6.7773 -21.13,5.6484 -33.79,-11.140662" /><path
         id="path70"
         style="fill:#559e98;fill-opacity:1;fill-rule:evenodd;stroke:none"
         d="m 2102.83,108.738 c -15.36,36.91 -29.75,71.344 -44.32,105.543 -1.09,-0.082 -2.23,-0.109 -3.34,-0.222 -14.85,-34.348 -29.55,-68.809 -45.28,-105.379 31.88,-0.008 61.02,0.011 92.94,0.058 z M 1927.87,7.73828 c 0.16,1.69141 0.25,2.47262 0.25,2.47262 27.21,7.9297 35.22,31.7696 44.69,54.168 28.58,66.0901 56.75,132.2031 85.37,198.3011 2.14,4.98 6.12,9.011 9.32,13.48 3.3,-4.34 7.59,-8.219 9.73,-13.191 27.5,-65.469 54.73,-131.098 82.02,-196.6292 2.36,-5.2304 4.72,-10.75 6.84,-15.9414 8.55,-19.3476 18.03,-37.5586 43.85,-38.457 -0.45,-1.2031 -1.02,-2.29296 -1.43,-3.58984 -34.23,0.02735 -68.18,-0.01172 -104.95,-0.01172 3.24,2.35156 4.48,3.67186 5.99,4.01176 22.84,4.4804 27.13,11.6093 19.04,33.6679 -6.15,16.2227 -9.87,36.6016 -21.89,46.4414 -9.52,7.7771 -29.91,2.4297 -45.52,2.5977 -16.25,0.2227 -32.3,0.6211 -48.57,-0.2305 -4.18,-0.2695 -9.93,-3.957 -11.69,-7.6289 -7.16,-14.8281 -13.59,-30.1601 -19.16,-45.6289 -6.07,-16.6211 -2.23,-22.8203 14.53,-27.4687 3.96,-1 8,-2.3516 11.35,-6.36332 -26.51,-0.03906 -53.01,0.04297 -79.77,0" /><path
         id="path72"
         style="fill:#559e98;fill-opacity:1;fill-rule:evenodd;stroke:none"
         d="m 5199.42,109.16 c -15.41,36.871 -29.65,71.02 -43.84,105.09 -1.39,-0.09 -2.7,-0.07 -3.98,-0.121 -14.77,-34.25 -29.56,-68.75 -45.24,-104.949 31.75,-0.059 60.83,-0.078 93.06,-0.02 z M 5305.09,8.44922 c -33.82,-0.09766 -67.44,-0.05078 -101.6,-0.07031 0.72,1.89059 0.81,3.16019 1.36,3.32029 26.35,7.75 29.19,13.0703 18.64,39.3008 -5.89,14.8203 -9.6,33.9219 -20.68,42.3711 -9.62,7.1169 -28.5,2.1289 -43.42,2.25 -16.52,0.2383 -33.13,0.4883 -49.51,-0.3125 -4.26,-0.2891 -10.42,-3.4688 -12.19,-7.0781 -7.07,-14.4102 -13.49,-29.2617 -19.04,-44.3907 -6.61,-18.3906 -2.14,-25.8085 17.68,-30.3398 3.01,-0.7109 6.2,-1.5781 9.1,-5.03906 -27.05,-0.01953 -53.98,-0.07031 -80.95,-0.05078 0.11,1.48047 0.12,3.03904 0.38,3.05074 23.34,4.9375 32.09,23.8477 40.15,42.8204 30,69.4567 59.47,138.8907 89.39,208.3907 0.44,1.219 0.71,2.726 1.46,3.769 2.92,3.5 5.94,6.891 8.95,10.27 2.63,-3.32 5.85,-6.242 7.41,-10.063 22.35,-53.226 44.54,-106.359 66.88,-159.546 5.79,-13.9731 11.59,-28.1918 17.54,-42.1215 10.27,-23.5 17.28,-49.8594 49.96,-53.5703 -0.49,-1 -1.14,-2.03129 -1.51,-2.96098" /><path
         id="path74"
         style="fill:#559e98;fill-opacity:1;fill-rule:evenodd;stroke:none"
         d="m 4465.18,214.359 c -1.36,-0.078 -2.66,-0.121 -4,-0.07 -14.73,-34.437 -29.67,-68.879 -44.94,-105.039 31.92,-0.051 60.99,0.102 92.53,0.02 -15.2,36.41 -29.46,70.71 -43.59,105.089 z M 4613.8,7.98828 c -33.38,-0.10937 -67.25,-0.07812 -100.7,-0.02734 -0.13,0.91797 -0.48,1.91015 -0.63,2.91016 3.67,1.1094 7.42,2.0586 11.08,3.2383 13.39,4.082 17.86,11.2304 13.53,24.1797 -5.72,16.9609 -12.53,33.4297 -19.76,49.7304 -1.44,3.5 -7.16,7.1524 -10.86,7.1094 -29.12,0.6211 -58.3,0.7617 -87.37,0.0117 -4.41,-0.1718 -10.45,-4.5508 -12.68,-8.7695 -6.44,-12.4727 -11.71,-25.9727 -17.06,-39.332 -8.49,-21.5196 -4.03,-29.0977 18.46,-34.0078 2.34,-0.4297 4.81,-1.2305 6.68,-4.69146 -26.34,-0.00781 -52.85,0.03125 -79.47,-0.03125 0.31,1.60157 0.1,3.02341 0.51,3.20311 22.97,5.6602 31.31,24.8086 39.44,43.9297 29.55,68.5076 58.84,137.1996 88.36,205.6996 2.55,5.711 7.19,10.339 10.9,15.578 3.37,-5.059 7.54,-9.68 9.72,-15.137 27.85,-65.801 55.18,-131.941 82.92,-197.9726 0.54,-1.7188 1.31,-3.2305 1.89,-4.8711 9.37,-21.4375 17.57,-43.8086 46.56,-46.9375 -0.55,-1.2891 -0.97,-2.60939 -1.52,-3.81252" /><path
         id="path76"
         style="fill:#559e98;fill-opacity:1;fill-rule:evenodd;stroke:none"
         d="m 4810.18,8.32031 c -36.44,0.01953 -72.75,0.01172 -109.04,0.01953 0.03,0.89844 -0.02,1.62891 -0.28,2.53126 2.28,0.6172 4.87,1.6797 7.06,1.8594 21.44,1.9179 28.84,8.6601 29.33,30.1211 0.91,21.7578 0.49,43.7968 0.11,65.7574 0,4.063 -1.87,8.731 -4.04,12.27 -25.98,39.902 -51.01,80.012 -78.09,118.82 -8.76,12.301 -23.18,20.461 -34.14,29.781 32.99,-0.019 69.18,0.059 105.24,0.059 0.16,-1.051 0.44,-1.879 0.62,-2.918 -3.84,-0.543 -7.6,-1.051 -11.43,-1.66 -14.99,-2.711 -21.97,-13.34 -14.61,-26.012 20.33,-33.988 41.8,-67.23 63.78,-102.211 3.72,4.043 5.94,5.922 7.45,8.473 16.6,25.461 32.96,51.098 49.26,76.758 2.73,4.402 5.29,9.301 7.36,14.281 6.26,15.012 -0.09,25.789 -16.85,28.891 -1.82,0.308 -3.81,1.019 -5.66,4.289 29.88,0.058 59.57,0.019 89.24,-0.008 0.12,-0.852 0.24,-1.684 0.26,-2.684 -3.45,-0.687 -7.2,-1.019 -10.54,-2.117 -16.19,-4.601 -28.01,-15.32 -37.08,-29.332 -23.54,-36.359 -47,-73.008 -70.3,-109.559 -1.7,-2.48 -3.49,-5.609 -3.67,-8.332 -0.04,-26.8394 -0.74,-53.8472 0.91,-80.4996 1.17,-18.0273 8.65,-22.6796 27.62,-24.1289 2.39,-0.0312 4.84,-0.8593 7.39,-1.2578 -0.08,-1.1133 -0.11,-2.17967 0.1,-3.19139" /><path
         id="path78"
         style="fill:#559e98;fill-opacity:1;fill-rule:evenodd;stroke:none"
         d="m 5817.02,59.3789 c 6.73,16.3399 12.19,29.2695 17.54,42.5001 15.92,38.422 31.42,76.98 47.1,115.332 1.39,3.801 3.05,7.519 4.39,11.359 7.3,22.532 3.66,29.602 -18.9,36.578 -1.5,0.461 -2.91,1.383 -4.05,4.582 25.54,0.008 51.11,0.059 76.91,0.04 -0.2,-1.168 0.13,-2.77 -0.12,-2.782 -22.18,-6.816 -31.4,-24.867 -39.49,-44.359 -28.35,-69.809 -56.98,-139.6876 -85.8,-209.4571 -1.88,-4.27346 -5.32,-7.58206 -8.03,-11.37112 -2.93,3.62891 -6.8,6.76953 -8.46,10.87892 -28.98,66.0312 -57.19,132.2183 -86.32,197.9413 -10.82,23.938 -15.02,54.328 -51.94,56.149 0.81,1.128 1.44,2.171 2.27,3.339 35.05,-0.058 70.01,-0.007 105.21,-0.129 0.13,-0.89 0.34,-1.851 0.35,-2.968 -2.85,-0.641 -5.92,-1.364 -8.89,-2.082 -17.32,-3.7 -23.48,-12.43 -17.05,-28.828 13.03,-33.704 27.41,-66.832 41.9,-100.122 10.19,-24.511 21.18,-48.9214 33.38,-76.6011" /><path
         id="path80"
         style="fill:#559e98;fill-opacity:1;fill-rule:evenodd;stroke:none"
         d="m 6579.78,212.66 c 1.12,18.309 2.02,36.61 3.79,54.981 0.41,1.55 5.79,3.808 8.77,3.711 65.81,0.277 131.82,0.359 197.62,-0.09 3.33,0.058 9.38,-3.731 9.59,-5.981 0.68,-17.562 0.25,-35.082 -2.09,-53.09 -0.74,3.008 -1.69,5.911 -2.35,8.899 -4.57,19.301 -15.9,32.43 -35.91,34.789 -14.11,1.703 -28.91,1.742 -42.91,0.422 -3.15,-0.223 -7.56,-8.84 -7.68,-13.672 -0.63,-44.777 -0.62,-89.547 -0.3,-134.418 0,-22.3712 0.56,-44.7813 1.73,-66.9922 1.13,-21.5586 6.1,-26.0977 27.46,-28.1368 2.23,-0.1914 4.64,-1.4218 6.48,-4.44137 -36.08,0.05078 -72.17,0.03125 -108.42,0.01953 -0.17,0.9414 -0.28,1.89844 -0.3,2.94924 3.33,0.4922 6.43,1.3203 9.69,1.5508 18.55,1.2695 26.61,9.082 26.67,27.9882 0.39,53.7227 0.1,107.4996 0.27,161.3126 0.02,14.82 0.46,29.699 -0.44,44.301 -0.19,3.508 -4.4,9.648 -7.02,9.707 -13.81,0.859 -27.87,1.179 -41.71,-0.231 -21.22,-2.328 -31.24,-17.008 -35.8,-36.328 -0.59,-2.57 -1.45,-5.012 -1.85,-7.43 -1.81,0.02 -3.69,0.09 -5.29,0.18" /><path
         id="path82"
         style="fill:#559e98;fill-opacity:1;fill-rule:evenodd;stroke:none"
         d="m 3703.5,266.77 c -4.24,-0.54 -8.73,-1.399 -13.21,-1.809 -19.82,-1.031 -29.8,-9.352 -29.92,-28.629 -0.57,-63.961 -0.51,-128.102 -0.18,-192.1015 0.08,-12.8985 5.64,-21.7696 19.93,-21.6407 25.47,0.1719 51.06,-0.6289 76.39,1.9102 19.4,1.8008 31.97,16.5313 41.53,33 3.69,6.5898 6.79,13.2188 13.32,19.3516 -0.45,-3.543 -0.38,-7.1211 -1.48,-10.4532 -5.1,-16.6171 -9.99,-33.3086 -16.02,-49.6171 -1.54,-4.2305 -7.6,-9.65239 -11.46,-9.60942 -62.73,-0.72266 -125.47,-0.44141 -188.16,-0.46094 -2.2,-0.07031 -4.56,1.23828 -9.07,2.46875 3.5,1.69141 5.01,3.03911 6.37,3.21091 26.77,3.7813 31.54,7.8008 31.99,34.6602 0.89,61.4292 0.91,122.8202 -0.07,184.1602 -0.44,27.48 -4.7,30.23 -31.92,33.969 -1.53,0.179 -2.86,1.379 -4.02,4.351 38.65,0.059 77.2,0.008 115.67,0.039 0.24,-0.89 0.28,-1.91 0.31,-2.8" /><path
         id="path84"
         style="fill:#559e98;fill-opacity:1;fill-rule:evenodd;stroke:none"
         d="m 3972.58,8.21094 c -36.66,-0.0625 -73.73,-0.1211 -110.45,-0.08203 0,0.80078 -0.13,1.65234 -0.15,2.47269 2.13,0.6679 4.57,2.0195 7.02,1.8789 21.87,-0.9688 30.03,13.7109 29.77,32.3593 -0.37,55.9302 -0.17,111.8012 -0.03,167.7692 0,7.762 0.1,15.332 -0.19,22.871 -0.24,20.879 -7.46,28.442 -27.8,29.68 -2.94,0.012 -5.79,0.801 -8.38,4.219 36.67,-0.098 73.68,-0.098 110.51,0.012 0.03,-1.032 -0.06,-2.063 0.21,-2.95 -3.47,-0.57 -7.21,-1.23 -10.92,-1.339 -16.72,-0.981 -23.72,-6.68 -25.11,-23.012 -1.33,-14.711 -1.62,-29.442 -1.75,-44.168 -0.21,-48.793 -0.75,-97.59 0.04,-146.4611 0.49,-26.7695 0.45,-36.7304 34.11,-39.1015 1.16,-0.1875 2.19,-1.2188 3.18,-2 -0.09,-0.69924 0.06,-1.50002 -0.06,-2.14846" /></g></g></svg>