<?xml version="1.0" encoding="iso-8859-1"?>
<!-- Generator: Adobe Illustrator 19.0.0, SVG Export Plug-In . SVG Version: 6.00 Build 0)  -->
<svg version="1.1" id="Layer_1" xmlns="http://www.w3.org/2000/svg" xmlns:xlink="http://www.w3.org/1999/xlink" x="0px" y="0px"
	 viewBox="0 0 511.999 511.999" style="enable-background:new 0 0 511.999 511.999;" xml:space="preserve">
<path style="fill:#F9B43A;" d="M478.779,230.203l-10.18-0.005c-11.816-0.54-22.687-9.002-29.822-19.367
	C369.246,98.904,224.462,71.126,119.626,138.874c-1.475,0.953-2.458,2.504-2.69,4.245c-0.232,1.74,0.31,3.495,1.482,4.802
	c24.447,27.232,24.888,75.094-18.147,97.658c7.822-47.607-44.085-84.353-88.317-63.043c-1.711,0.824-2.931,2.41-3.288,4.276
	c-5.621,29.338,10.13,57.955,37.43,69.171c-27.29,11.212-43.052,39.82-37.43,69.171c0.357,1.866,1.577,3.452,3.288,4.276
	c8.395,4.045,17.766,6.183,27.094,6.183c35.011,0,67.551-30.714,61.222-69.226c43.144,22.618,42.497,70.535,18.147,97.658
	c-2.463,2.744-1.889,7.045,1.208,9.047c104.816,67.728,250.01,40.127,319.534-72.585l0.089-0.135
	c0.056-0.073,0.11-0.148,0.163-0.225c11.643-16.889,23.39-18.282,25.772-18.385l13.592-0.002c14.215,0,25.779-11.565,25.779-25.779
	C504.555,241.767,492.991,230.203,478.779,230.203z"/>
<path style="fill:#EFD35E;" d="M504.556,255.983c0-14.215-11.566-25.779-25.776-25.779l-10.18-0.005
	c-11.816-0.54-22.687-9.002-29.822-19.367c-49.155-79.126-137.104-117.625-223.837-106.688
	c-20.774,29.169-32.995,64.851-32.995,103.389c0,93.973,72.652,170.976,164.853,177.908c37.372-18.74,69.433-47.76,92.362-84.934
	l0.089-0.135c0.056-0.073,0.11-0.148,0.163-0.225c11.643-16.889,23.39-18.282,25.772-18.385l13.592-0.002
	C492.991,281.763,504.556,270.198,504.556,255.983z"/>
<path style="fill:#F48B19;" d="M268.056,103.597c-10.204-1.069-19.949-1.424-29.572-1.198c-57.389,92.248-59.027,212.287,0,307.168
	c9.62,0.226,19.367-0.129,29.572-1.198C204.004,316.865,203.985,195.129,268.056,103.597z"/>
<g>
	<path style="fill:#F9B43A;" d="M238.483,102.399c-33.157,53.299-46.955,113.976-42.955,173.502
		c8.344,20.094,20.25,38.334,34.937,53.929c-21.641-74.861-9.912-158.37,37.591-226.233
		C256.263,102.361,249.921,102.399,238.483,102.399z"/>
	<path style="fill:#F9B43A;" d="M303.628,258.801c-0.581-46.672,13.207-93.11,41.578-132.904c-7.697-3.8-15.638-7.183-23.794-10.115
		c-27.948,41.038-42.99,89.46-42.99,140.2c0,0.604,0.012,1.207,0.016,1.811C286.758,254.76,295.237,255.866,303.628,258.801z"/>
</g>
<path style="fill:#F48B19;" d="M285.622,315.894c7.031,28.676,19.111,55.798,35.792,80.289c8.155-2.932,16.096-6.314,23.793-10.116
	c-16.038-22.494-28.027-48.063-34.92-75.626C302.984,314.041,293.691,316.728,285.622,315.894z"/>
<path style="fill:#F9B43A;" d="M310.287,310.442c-7.302,3.598-16.596,6.286-24.665,5.452c5.419,22.101,13.85,43.273,25.061,63.035
	c10.925,3.161,22.279,5.304,33.957,6.324C328.89,362.956,317.096,337.676,310.287,310.442z"/>
<circle style="fill:#414356;" cx="376.801" cy="225.021" r="14.031"/>
<path style="fill:#F9B43A;" d="M288.731,255.483c-16.838,0-30.536,13.698-30.536,30.536s13.698,30.536,30.536,30.536
	c16.771,0,42.468-13.681,42.468-30.536S305.501,255.483,288.731,255.483z"/>
<path style="fill:#F48B19;" d="M288.731,290.651c-12.209,0-22.762-7.205-27.644-17.584c-9.518,20.247,5.391,43.487,27.644,43.487
	c20.516,0,55.588-20.802,37.36-43.487C317.745,283.451,300.895,290.651,288.731,290.651z"/>
<path d="M376.741,203.492c-11.874,0-21.533,9.661-21.533,21.534s9.66,21.533,21.533,21.533c11.874,0,21.533-9.66,21.533-21.533
	C398.274,213.152,388.614,203.492,376.741,203.492z M376.741,231.559c-3.602,0-6.532-2.93-6.532-6.532
	c0-3.602,2.931-6.533,6.532-6.533s6.532,2.931,6.532,6.533C383.273,228.628,380.343,231.559,376.741,231.559z"/>
<path d="M478.721,222.711h-9.902c-3.26-0.161-13.962-1.824-23.725-15.843c-0.027-0.04-0.054-0.08-0.081-0.118
	c-20.859-33.527-49.997-61.555-84.278-81.066c-80.454-45.79-178.656-39.353-251.578,11.143c-1.887,1.307-3.071,3.405-3.216,5.695
	c-0.144,2.29,0.768,4.52,2.476,6.053c23.203,20.818,27.618,59.822-0.018,82.675c-0.858-12.655-5.46-24.499-13.63-34.848
	c-2.567-3.251-7.283-3.806-10.535-1.239c-3.251,2.567-3.806,7.283-1.239,10.535c8.759,11.095,12.155,24.467,9.821,38.672
	c-0.462,2.806,0.704,5.632,3.01,7.297c2.305,1.664,5.355,1.882,7.873,0.562c46.353-24.304,48.098-76.754,21.406-107.987
	c30.165-19.161,64.213-30.605,99.779-33.605c-49.58,88.944-50.642,199.856,0,290.705c-35.565-3-69.613-14.443-99.779-33.604
	c26.692-31.235,24.954-83.68-21.406-107.987c-5.475-2.869-11.885,1.766-10.884,7.858c6.789,41.328-38.364,73.374-76.975,55.396
	c-4.392-24.775,8.734-50.085,33.052-60.079c6.189-2.543,6.178-11.336,0-13.875c-4.548-1.869-8.772-4.291-12.556-7.197
	c-16.208-12.457-24.037-32.915-20.496-52.884c15.85-7.403,34.114-6.837,49.497,1.683c3.623,2.008,8.186,0.697,10.195-2.926
	c2.007-3.624,0.697-8.188-2.927-10.196c-20.876-11.564-45.901-11.646-66.942-0.22c-1.864,1.012-3.213,2.767-3.711,4.829
	c-6.828,28.246,4.65,57.681,28.337,73.849C6.603,272.159-4.876,301.593,1.952,329.841c0.498,2.062,1.847,3.816,3.711,4.829
	c45.346,24.624,99.679-7.819,102.748-53.926c27.348,22.626,23.467,61.614,0.005,82.664c-3.605,3.234-3.239,8.994,0.739,11.749
	c110.641,76.611,264.409,45.658,336.214-70.512c0.034-0.047,0.069-0.096,0.106-0.15c9.653-14.034,18.467-15.138,19.879-15.224
	h13.365c18.351,0,33.28-14.93,33.28-33.28S497.071,222.711,478.721,222.711z M242.668,109.848c4.189-0.021,8.295,0.076,11.999,0.255
	c-39.825,62.968-50.486,136.43-36.107,203.402c0.869,4.05,4.857,6.626,8.907,5.759c4.05-0.87,6.628-4.858,5.759-8.908
	c-14.233-66.291-2.403-138.342,38.413-198.796c13.05,1.621,25.812,4.374,38.169,8.195c-24.98,39.864-38.372,85.661-38.915,133.224
	c-11.752,6.348-19.754,18.78-19.754,33.048c0,17.532,12.084,32.292,28.359,36.397c6.562,24.721,16.743,48.141,30.326,69.806
	c-12.36,3.821-25.126,6.574-38.184,8.194c-13.792-20.43-24.556-42.615-32.014-66.009c-1.258-3.947-5.477-6.126-9.424-4.868
	c-3.946,1.258-6.125,5.477-4.867,9.424c7.054,22.131,16.901,43.239,29.334,62.908c-3.866,0.188-7.821,0.276-12.001,0.255
	C188.868,312.777,188.795,199.327,242.668,109.848z M301.096,265.889c9.556,3.344,22.046,11.278,22.046,20.138
	c0,7.554-9.199,14.238-16.228,17.695c-9.009,4.44-16.2,4.756-16.2,4.756c-1.21,0.095-2.243,0.103-3.21,0.053
	c-0.36-0.019-0.798-0.053-1.152-0.089c-11.34-1.166-20.214-10.774-20.214-22.416c0-9.828,6.325-18.201,15.118-21.275
	C287.723,262.499,294.58,263.609,301.096,265.889z M324.31,387.077c-12.842-19.869-22.596-41.345-29.089-64.03
	c3.306-0.502,6.605-1.296,9.987-2.424c6.422,22.152,16.07,43.08,28.773,62.414C330.787,384.461,327.558,385.81,324.31,387.077z
	 M478.721,274.271c-0.233,0-13.588-0.003-13.82,0.005c-12.733,0.476-25.901,12.072-32.136,22.231
	c-21.3,34.561-50.757,61.838-85.09,80.014c-12.882-19.209-22.512-40.126-28.693-62.334c10.814-6.712,19.161-16.587,19.161-28.16
	c0-14.282-12.712-25.976-27.08-32.334c0.195-18.585,2.743-37.004,7.594-54.785c1.091-3.996-1.265-8.12-5.261-9.21
	c-3.996-1.092-8.119,1.264-9.21,5.261c-4.808,17.617-7.506,35.814-8.043,54.19c-3.113-0.523-6.763-0.806-10.167-0.563
	c1.322-44.272,14.491-86.776,38.332-123.681c3.249,1.267,6.478,2.617,9.673,4.041c-8.489,12.935-15.676,26.695-21.41,41.014
	c-1.539,3.845,0.329,8.211,4.175,9.752c3.841,1.539,8.211-0.328,9.751-4.174c5.617-14.026,12.726-27.477,21.164-40.073
	c55.008,29.119,78.301,70.641,85.072,79.907l0.063,0.083c10.824,15.497,25.565,22.255,35.858,22.255h10.067
	c10.08,0,18.279,8.2,18.279,18.279C497,266.07,488.8,274.271,478.721,274.271z"/>
<g>
</g>
<g>
</g>
<g>
</g>
<g>
</g>
<g>
</g>
<g>
</g>
<g>
</g>
<g>
</g>
<g>
</g>
<g>
</g>
<g>
</g>
<g>
</g>
<g>
</g>
<g>
</g>
<g>
</g>
</svg>
