<?xml version="1.0" encoding="iso-8859-1"?>
<!-- Generator: Adobe Illustrator 19.0.0, SVG Export Plug-In . SVG Version: 6.00 Build 0)  -->
<svg version="1.1" id="Layer_1" xmlns="http://www.w3.org/2000/svg" xmlns:xlink="http://www.w3.org/1999/xlink" x="0px" y="0px"
	 viewBox="0 0 512 512" style="enable-background:new 0 0 512 512;" xml:space="preserve">
<path style="fill:#F85A55;" d="M407.79,281.087l77.128,45.575c-37.119,31.665-83.661,48.881-132.71,48.881
	c-1.091,0-2.17-0.011-3.261-0.034c-3.789-0.056-7.556-0.225-11.301-0.483C374.855,358.147,402.078,322.996,407.79,281.087z"/>
<path style="fill:#80D0B5;" d="M289.923,211.426l98.616,58.281c-2.631,53.03-46.418,95.423-99.999,95.805
	c-2.339-0.765-4.655-1.574-6.96-2.418v-24.57c0-5.589-4.532-10.12-10.12-10.12s-10.12,4.532-10.12,10.12v15.9
	c-8.456-4.183-16.62-8.962-24.457-14.315v-42.977c0-5.589-4.532-10.12-10.12-10.12c-5.589,0-10.12,4.532-10.12,10.12v27.212
	c-4.026-3.553-7.928-7.275-11.706-11.166c-12.392-12.785-19.071-29.619-18.79-47.419c0.27-17.8,7.467-34.431,20.241-46.823
	c12.257-11.874,28.123-18.295,44.327-18.79c0.157,0,0.855-0.011,1.046-0.022c10.885-0.169,21.882,2.339,32.025,7.658
	c1.372,0.72,4.352,2.53,5.915,3.508C289.766,211.336,289.844,211.381,289.923,211.426z"/>
<path style="fill:#FDC656;" d="M258.685,375.588h-49.454c-73.316,0-132.958-59.642-132.958-132.958v-90.453c0-0.034,0-0.056,0-0.079
	c0-0.079,0-0.157,0-0.236c-0.011-0.124-0.011-0.247-0.022-0.36c-0.236-3.407-2.17-6.612-5.42-8.299l-38.783-20.207l37.872-19.678
	c2.226-0.888,4.149-2.553,5.296-4.869c11.886-23.884,35.837-38.716,62.487-38.716c38.48,0,69.785,31.294,69.785,69.762v26.965
	c0,11.627,4.577,22.208,12.009,30.046c-9.895,4.116-19.15,10.098-27.19,17.902c-16.665,16.159-26.043,37.827-26.403,61.036
	c-0.36,23.198,8.344,45.159,24.491,61.824C210.31,347.802,233.441,364.062,258.685,375.588z M161.666,329.001
	c3.193-4.599,2.058-10.896-2.53-14.09c-2.024-1.406-4.003-2.912-5.892-4.475c-4.307-3.565-10.683-2.969-14.247,1.338
	c-3.565,4.307-2.969,10.682,1.338,14.247c2.328,1.923,4.768,3.778,7.242,5.51c1.765,1.226,3.778,1.81,5.769,1.81
	C156.549,333.341,159.698,331.823,161.666,329.001z M132.632,304.667c4.667-3.07,5.982-9.333,2.924-14.011
	c-9.356-14.303-14.303-30.901-14.303-48.026c0-5.589-4.52-10.12-10.12-10.12c-5.589,0-10.12,4.532-10.12,10.12
	c0,21.073,6.095,41.504,17.609,59.102c1.934,2.969,5.173,4.588,8.479,4.588C129,306.32,130.923,305.78,132.632,304.667z
	 M123.613,118.657c0-7.534-6.106-13.651-13.651-13.651c-7.534,0-13.651,6.117-13.651,13.651c0,7.545,6.117,13.651,13.651,13.651
	C117.508,132.308,123.613,126.202,123.613,118.657z"/>
<path d="M507.025,316.215c4.813,2.845,6.41,9.052,3.565,13.865c-0.315,0.529-0.675,1.001-1.057,1.439
	c-0.146,0.191-0.337,0.405-0.585,0.652c-0.022,0.022-0.045,0.045-0.067,0.056c-41.695,40.414-96.131,62.813-153.884,63.522
	c-0.394,0.045-0.798,0.079-1.203,0.079h-63.69l-56.437,56.437h32.79c5.589,0,10.12,4.532,10.12,10.12
	c0,5.589-4.532,10.12-10.12,10.12H99.347c-5.589,0-10.12-4.532-10.12-10.12c0-5.589,4.532-10.12,10.12-10.12h29.011l58.124-58.135
	c-73.721-11.02-130.45-74.755-130.45-151.5v-84.313l-50.59-26.358C2.103,130.216,0,126.753,0,122.986
	c0-3.778,2.103-7.242,5.454-8.973L58.72,86.339c15.821-28.989,45.766-46.846,78.983-46.846c49.646,0,90.025,40.38,90.025,90.003
	v26.965c0,12.729,10.199,23.097,22.849,23.423c14.461-0.36,29.113,2.89,42.584,9.963c2.361,1.226,6.32,3.688,7.163,4.217
	L507.025,316.215z M484.918,326.662l-77.128-45.575c-5.712,41.909-32.936,77.06-70.145,93.939c3.744,0.259,7.511,0.427,11.301,0.483
	c1.091,0.022,2.17,0.034,3.261,0.034C401.257,375.543,447.799,358.327,484.918,326.662z M388.539,269.707l-98.616-58.281
	c-0.079-0.045-0.157-0.09-0.225-0.135c-1.563-0.978-4.543-2.789-5.915-3.508c-10.143-5.319-21.14-7.826-32.025-7.658
	c-0.191,0.011-0.888,0.022-1.046,0.022c-16.204,0.495-32.07,6.916-44.327,18.79c-12.774,12.392-19.971,29.023-20.241,46.823
	c-0.281,17.8,6.398,34.634,18.79,47.419c3.778,3.891,7.68,7.613,11.706,11.166v-27.212c0-5.589,4.532-10.12,10.12-10.12
	s10.12,4.532,10.12,10.12v42.977c7.838,5.353,16.001,10.132,24.457,14.315v-15.9c0-5.589,4.532-10.12,10.12-10.12
	c5.589,0,10.12,4.532,10.12,10.12v24.57c2.305,0.843,4.622,1.653,6.961,2.418C342.121,365.13,385.908,322.737,388.539,269.707z
	 M205.037,452.266l56.449-56.437h-48.06l-56.449,56.437H205.037z M209.231,375.588h49.454
	c-25.244-11.526-48.375-27.786-68.289-48.319c-16.147-16.665-24.851-38.626-24.491-61.824c0.36-23.209,9.738-44.878,26.403-61.036
	c8.04-7.804,17.294-13.786,27.19-17.902c-7.433-7.838-12.009-18.419-12.009-30.046v-26.965c0-38.468-31.305-69.762-69.785-69.762
	c-26.65,0-50.601,14.832-62.487,38.716c-1.147,2.316-3.07,3.981-5.296,4.869l-37.872,19.678l38.783,20.207
	c3.25,1.687,5.184,4.891,5.42,8.299c0.011,0.112,0.011,0.236,0.022,0.36c0,0.079,0,0.157,0,0.236c0,0.022,0,0.045,0,0.079v90.453
	C76.273,315.946,135.915,375.588,209.231,375.588z"/>
<path d="M159.136,314.911c4.588,3.194,5.724,9.491,2.53,14.09c-1.968,2.822-5.116,4.34-8.321,4.34c-1.99,0-4.003-0.585-5.769-1.81
	c-2.474-1.732-4.914-3.587-7.242-5.51c-4.307-3.565-4.903-9.94-1.338-14.247c3.565-4.307,9.94-4.903,14.247-1.338
	C155.132,311.999,157.112,313.505,159.136,314.911z"/>
<path d="M135.555,290.656c3.059,4.678,1.743,10.941-2.924,14.011c-1.709,1.113-3.632,1.653-5.532,1.653
	c-3.306,0-6.544-1.619-8.479-4.588c-11.515-17.598-17.609-38.03-17.609-59.102c0-5.589,4.532-10.12,10.12-10.12
	c5.6,0,10.12,4.532,10.12,10.12C121.252,259.756,126.2,276.353,135.555,290.656z"/>
<path d="M109.962,105.006c7.545,0,13.651,6.117,13.651,13.651c0,7.545-6.106,13.651-13.651,13.651
	c-7.534,0-13.651-6.106-13.651-13.651C96.311,111.123,102.428,105.006,109.962,105.006z"/>
<g>
</g>
<g>
</g>
<g>
</g>
<g>
</g>
<g>
</g>
<g>
</g>
<g>
</g>
<g>
</g>
<g>
</g>
<g>
</g>
<g>
</g>
<g>
</g>
<g>
</g>
<g>
</g>
<g>
</g>
</svg>
