<?xml version="1.0" encoding="UTF-8" standalone="no"?>
<!-- Generator: Adobe Illustrator 19.0.0, SVG Export Plug-In . SVG Version: 6.00 Build 0)  -->

<svg
   xmlns:dc="http://purl.org/dc/elements/1.1/"
   xmlns:cc="http://creativecommons.org/ns#"
   xmlns:rdf="http://www.w3.org/1999/02/22-rdf-syntax-ns#"
   xmlns:svg="http://www.w3.org/2000/svg"
   xmlns="http://www.w3.org/2000/svg"
   xmlns:sodipodi="http://sodipodi.sourceforge.net/DTD/sodipodi-0.dtd"
   xmlns:inkscape="http://www.inkscape.org/namespaces/inkscape"
   version="1.1"
   id="Layer_1"
   x="0px"
   y="0px"
   viewBox="0 0 512 512"
   style="enable-background:new 0 0 512 512;"
   xml:space="preserve"
   inkscape:version="0.91 r13725"
   sodipodi:docname="icon_sunflower.svg"
   inkscape:export-filename="C:\Users\Mike\OneDrive\Projects\RaspPI\Source\Android\cancam-android\app\src\main\res\drawable\ic_icon_sunflower.png"
   inkscape:export-xdpi="35.16"
   inkscape:export-ydpi="35.16"><metadata
     id="metadata117"><rdf:RDF><cc:Work
         rdf:about=""><dc:format>image/svg+xml</dc:format><dc:type
           rdf:resource="http://purl.org/dc/dcmitype/StillImage" /></cc:Work></rdf:RDF></metadata><defs
     id="defs115" /><sodipodi:namedview
     pagecolor="#ffffff"
     bordercolor="#666666"
     borderopacity="1"
     objecttolerance="10"
     gridtolerance="10"
     guidetolerance="10"
     inkscape:pageopacity="0"
     inkscape:pageshadow="2"
     inkscape:window-width="1920"
     inkscape:window-height="1017"
     id="namedview113"
     showgrid="false"
     inkscape:zoom="0.4609375"
     inkscape:cx="256"
     inkscape:cy="256"
     inkscape:window-x="-8"
     inkscape:window-y="-8"
     inkscape:window-maximized="1"
     inkscape:current-layer="Layer_1" /><g
     id="g3"><path
       style="fill:#FAB41E;"
       d="M225.512,75.979c0,27.401,12.48,51.885,32.066,68.083c19.585-16.198,32.066-40.682,32.066-68.083   s-12.48-51.885-32.066-68.083C237.992,24.094,225.512,48.578,225.512,75.979z"
       id="path5" /><path
       style="fill:#FAB41E;"
       d="M107.14,150.269c19.375,19.375,45.513,27.864,70.817,25.469   c2.395-25.302-6.094-51.441-25.469-70.817s-45.514-27.864-70.817-25.469C79.276,104.754,87.765,130.893,107.14,150.269z"
       id="path7" /><path
       style="fill:#FAB41E;"
       d="M75.969,286.5c27.401,0,51.885-12.48,68.083-32.066c-16.198-19.585-40.682-32.066-68.083-32.066   s-51.885,12.48-68.083,32.066C24.083,274.019,48.568,286.5,75.969,286.5z"
       id="path9" /><path
       style="fill:#FAB41E;"
       d="M150.257,404.87c19.375-19.375,27.864-45.513,25.469-70.817   c-25.302-2.395-51.441,6.094-70.817,25.469c-19.376,19.375-27.864,45.513-25.469,70.817   C104.744,432.734,130.882,424.246,150.257,404.87z"
       id="path11" /><path
       style="fill:#FAB41E;"
       d="M286.489,436.042c0-27.401-12.48-51.885-32.066-68.083c-19.585,16.198-32.066,40.682-32.066,68.083   c0,27.401,12.48,51.885,32.066,68.083C274.009,487.928,286.489,463.443,286.489,436.042z"
       id="path13" /><path
       style="fill:#FAB41E;"
       d="M404.86,361.753c-19.375-19.375-45.513-27.864-70.817-25.469   c-2.395,25.302,6.094,51.441,25.469,70.817c19.375,19.375,45.513,27.864,70.817,25.469   C432.724,407.267,424.236,381.129,404.86,361.753z"
       id="path15" /><path
       style="fill:#FAB41E;"
       d="M436.031,225.522c-27.401,0-51.885,12.48-68.083,32.066c16.198,19.585,40.682,32.066,68.083,32.066   c27.401,0,51.885-12.48,68.083-32.066C487.917,238.002,463.432,225.522,436.031,225.522z"
       id="path17" /><path
       style="fill:#FAB41E;"
       d="M361.743,107.15c-19.375,19.375-27.863,45.513-25.469,70.817   c25.302,2.395,51.441-6.094,70.817-25.469c19.376-19.375,27.864-45.513,25.469-70.817   C407.256,79.287,381.118,87.775,361.743,107.15z"
       id="path19" /></g><g
     id="g21"><path
       style="fill:#FCD110;"
       d="M158.937,101.351c10.486,25.315,31.387,43.159,55.68,50.63c11.896-22.461,14.056-49.857,3.57-75.173   s-31.387-43.159-55.68-50.63C150.613,48.639,148.451,76.036,158.937,101.351z"
       id="path23" /><path
       style="fill:#FCD110;"
       d="M78.005,215.283c25.315,10.486,52.712,8.326,75.173-3.57c-7.471-24.293-25.315-45.194-50.63-55.68   s-52.712-8.326-75.173,3.57C34.846,183.898,52.69,204.798,78.005,215.283z"
       id="path25" /><path
       style="fill:#FCD110;"
       d="M101.341,353.073c25.315-10.486,43.159-31.387,50.63-55.68   c-22.461-11.896-49.857-14.056-75.173-3.57c-25.315,10.486-43.159,31.387-50.63,55.68   C48.629,361.399,76.026,363.559,101.341,353.073z"
       id="path27" /><path
       style="fill:#FCD110;"
       d="M215.273,434.005c10.486-25.315,8.326-52.712-3.57-75.173c-24.293,7.471-45.194,25.315-55.68,50.63   c-10.486,25.315-8.326,52.712,3.57,75.173C183.887,477.165,204.787,459.32,215.273,434.005z"
       id="path29" /><path
       style="fill:#FCD110;"
       d="M353.063,410.671c-10.486-25.315-31.387-43.159-55.68-50.63   c-11.896,22.46-14.056,49.857-3.57,75.173c10.486,25.315,31.387,43.159,55.68,50.63   C361.388,463.382,363.549,435.986,353.063,410.671z"
       id="path31" /><path
       style="fill:#FCD110;"
       d="M433.995,296.737c-25.315-10.486-52.712-8.326-75.173,3.57c7.471,24.293,25.315,45.194,50.63,55.68   c25.315,10.486,52.712,8.326,75.173-3.57C477.155,328.124,459.31,307.223,433.995,296.737z"
       id="path33" /><path
       style="fill:#FCD110;"
       d="M410.66,158.947c-25.315,10.486-43.159,31.387-50.63,55.68c22.46,11.896,49.857,14.056,75.173,3.57   s43.159-31.387,50.63-55.68C463.372,150.623,435.975,148.462,410.66,158.947z"
       id="path35" /><path
       style="fill:#FCD110;"
       d="M296.727,78.016c-10.486,25.315-8.326,52.712,3.57,75.173c24.293-7.471,45.194-25.315,55.68-50.63   c10.486-25.315,8.326-52.712-3.57-75.173C328.114,34.856,307.213,52.701,296.727,78.016z"
       id="path37" /></g><circle
     style="fill:#A6664C;"
     cx="256.001"
     cy="256.011"
     r="138.776"
     id="circle39" /><path
     style="fill:#954D30;"
     d="M277.027,377.966c-76.644,0-138.776-62.132-138.776-138.776c0-39.027,16.116-74.283,42.047-99.497  c-37.971,24.762-63.074,67.606-63.074,116.319c0,76.644,62.132,138.776,138.776,138.776c37.618,0,71.733-14.974,96.729-39.279  C330.958,369.706,304.958,377.966,277.027,377.966z"
     id="path41" /><g
     id="g43"><circle
       style="fill:#F26D1F;"
       cx="256.001"
       cy="256.011"
       r="16.821"
       id="circle45" /><circle
       style="fill:#F26D1F;"
       cx="256.001"
       cy="171.904"
       r="16.821"
       id="circle47" /><circle
       style="fill:#F26D1F;"
       cx="196.527"
       cy="196.537"
       r="16.821"
       id="circle49" /><circle
       style="fill:#F26D1F;"
       cx="171.894"
       cy="256.011"
       r="16.821"
       id="circle51" /><circle
       style="fill:#F26D1F;"
       cx="196.527"
       cy="315.485"
       r="16.821"
       id="circle53" /><circle
       style="fill:#F26D1F;"
       cx="256.001"
       cy="340.118"
       r="16.821"
       id="circle55" /><circle
       style="fill:#F26D1F;"
       cx="315.475"
       cy="315.485"
       r="16.821"
       id="circle57" /><circle
       style="fill:#F26D1F;"
       cx="340.107"
       cy="256.011"
       r="16.821"
       id="circle59" /><circle
       style="fill:#F26D1F;"
       cx="315.475"
       cy="196.537"
       r="16.821"
       id="circle61" /></g><path
     d="M510.191,252.562c-15.065-18.214-35.972-30.048-58.888-33.709c20.051-12.138,35.054-31.212,42.066-54.018  c1.112-3.617-0.503-7.514-3.846-9.286c-20.889-11.063-44.732-13.994-67.305-8.607c13.88-18.886,20.44-42.25,18.191-66.004  c-0.357-3.767-3.34-6.75-7.107-7.107c-23.536-2.226-46.685,4.19-65.477,17.804c5.596-22.76,2.717-46.856-8.451-67.941  c-1.771-3.344-5.671-4.955-9.285-3.847c-22.594,6.947-41.528,21.735-53.679,41.506c-3.54-23.169-15.422-44.33-33.808-59.535  c-2.915-2.412-7.135-2.412-10.052,0c-18.214,15.065-30.047,35.972-33.709,58.888c-12.137-20.051-31.212-35.054-54.019-42.066  c-3.612-1.108-7.513,0.503-9.285,3.847c-11.063,20.889-13.994,44.733-8.606,67.306c-18.884-13.88-42.243-20.44-66.005-18.193  c-3.767,0.356-6.75,3.339-7.107,7.107c-2.228,23.532,4.189,46.683,17.804,65.477c-22.759-5.595-46.856-2.716-67.941,8.451  c-3.345,1.771-4.959,5.669-3.847,9.286c6.947,22.593,21.735,41.527,41.507,53.679c-23.166,3.54-44.326,15.422-59.533,33.808  c-2.412,2.915-2.412,7.134,0,10.051c15.065,18.214,35.972,30.048,58.888,33.709c-20.051,12.138-35.054,31.212-42.066,54.018  c-1.112,3.617,0.503,7.514,3.846,9.286c14.106,7.47,29.554,11.237,45.054,11.236c7.458,0,14.927-0.893,22.263-2.644  c-13.888,18.889-20.453,42.259-18.203,66.02c0.357,3.767,3.34,6.75,7.107,7.107c3.068,0.29,6.128,0.434,9.175,0.434  c20.324,0,39.961-6.412,56.306-18.257c-5.603,22.766-2.725,46.87,8.445,67.96c1.749,3.304,5.71,4.945,9.285,3.847  c22.594-6.947,41.528-21.735,53.679-41.506c3.54,23.169,15.422,44.33,33.808,59.535c2.882,2.383,7.17,2.383,10.052,0  c18.214-15.065,30.047-35.972,33.709-58.888c12.137,20.051,31.212,35.054,54.019,42.066c3.576,1.099,7.536-0.542,9.285-3.847  c11.062-20.888,13.994-44.732,8.607-67.304c16.448,12.088,36.291,18.625,56.832,18.625c3.045,0,6.106-0.144,9.173-0.434  c3.767-0.356,6.75-3.339,7.107-7.107c2.228-23.532-4.189-46.682-17.803-65.476c7.535,1.852,15.216,2.783,22.887,2.783  c15.497,0,30.949-3.766,45.054-11.236c3.345-1.772,4.959-5.669,3.847-9.286c-6.947-22.593-21.735-41.527-41.507-53.679  c23.169-3.54,44.33-15.422,59.535-33.808C512.603,259.697,512.603,255.479,510.191,252.562z M476.043,166.574  c-8.036,20.046-23.723,36-43.859,44.339c-11.021,4.565-22.983,6.623-34.813,6.03c-2.936-10.642-7.069-20.916-12.322-30.635  c7.901-8.652,17.722-15.559,28.627-20.074C433.812,157.892,456.185,158.081,476.043,166.574z M401.516,146.923  c-8.438,8.436-18.706,14.917-29.862,18.895c-2.021-2.589-4.133-5.119-6.337-7.582c-2.904-3.244-7.888-3.522-11.135-0.616  c-3.244,2.904-3.521,7.889-0.617,11.134c21.491,24.011,33.327,55,33.327,87.258c0,72.173-58.718,130.891-130.891,130.891  s-130.891-58.718-130.891-130.891S183.827,125.12,256.001,125.12c28.946,0,56.377,9.256,79.324,26.766  c3.461,2.642,8.411,1.975,11.052-1.486c1.398-1.832,1.862-4.079,1.483-6.181c3.913-11.787,10.612-22.647,19.459-31.494  c15.41-15.41,36.128-23.819,57.749-23.552C425.314,110.77,416.925,131.513,401.516,146.923z M304.012,81.033  c8.34-20.134,24.294-35.821,44.341-43.859c8.491,19.858,8.68,42.232,0.34,62.366c-4.561,11.012-11.558,20.921-20.332,28.86  c-9.652-5.503-19.832-9.851-30.399-12.993C297.44,103.724,299.504,91.918,304.012,81.033z M257.578,18.491  c15.444,15.096,24.181,35.695,24.181,57.488c0,11.922-2.674,23.758-7.743,34.453c-5.931-0.72-11.943-1.084-18.015-1.084  c-5.067,0-10.075,0.259-15.011,0.763c-4.972-10.61-7.593-22.328-7.593-34.133C233.397,54.186,242.132,33.587,257.578,18.491z   M166.561,35.969c20.046,8.037,36.001,23.724,44.341,43.859c4.565,11.021,6.623,22.987,6.029,34.815  c-10.745,2.973-20.999,7.133-30.609,12.344c-8.665-7.905-15.58-17.736-20.102-28.652C157.883,78.2,158.071,55.825,166.561,35.969z   M146.913,110.496c8.454,8.453,14.944,18.744,18.919,29.926c-8.68,6.786-16.575,14.529-23.535,23.065  c-11.048-3.986-21.215-10.428-29.58-18.795c-15.41-15.41-23.798-36.154-23.552-57.749  C110.752,86.668,131.501,95.086,146.913,110.496z M37.164,163.659c19.859-8.492,42.232-8.68,62.365-0.341  c11.036,4.571,20.963,11.588,28.911,20.386c-5.409,9.505-9.782,19.67-12.975,30.342c-11.707,0.533-23.534-1.53-34.444-6.047  C60.889,199.659,45.202,183.705,37.164,163.659z M75.97,230.253c11.931,0,23.775,2.678,34.475,7.754  c-0.725,5.902-1.106,11.908-1.106,18.004c0,5.067,0.259,10.075,0.763,15.012c-10.611,4.971-22.329,7.592-34.133,7.592  c-21.793,0-42.392-8.737-57.489-24.181C33.577,238.99,54.176,230.253,75.97,230.253z M35.958,345.448  c8.036-20.046,23.723-36,43.859-44.339c11.022-4.565,22.986-6.623,34.815-6.029c2.973,10.745,7.133,20.999,12.344,30.609  c-7.905,8.665-17.736,15.58-28.651,20.102C78.188,354.129,55.815,353.939,35.958,345.448z M86.933,422.847  c-0.246-21.595,8.142-42.338,23.551-57.749c8.455-8.453,18.746-14.944,29.927-18.919c6.786,8.68,14.529,16.575,23.065,23.534  c-3.987,11.047-10.428,21.215-18.795,29.58C129.272,414.707,108.56,423.092,86.933,422.847z M207.989,430.989  c-8.34,20.134-24.294,35.821-44.341,43.859c-8.491-19.858-8.68-42.232-0.34-62.366c4.57-11.035,11.588-20.963,20.386-28.911  c9.505,5.409,19.669,9.782,30.342,12.975C214.568,408.251,212.506,420.081,207.989,430.989z M254.424,493.53  c-15.444-15.096-24.181-35.695-24.181-57.488c0-11.931,2.678-23.775,7.754-34.476c5.902,0.725,11.908,1.106,18.004,1.106  c5.067,0,10.075-0.259,15.011-0.763c4.972,10.61,7.593,22.329,7.593,34.133C278.604,457.836,269.868,478.433,254.424,493.53z   M345.439,476.053c-20.046-8.037-36.001-23.724-44.341-43.859c-4.565-11.021-6.623-22.987-6.029-34.815  c10.745-2.973,20.999-7.133,30.609-12.344c8.665,7.905,15.58,17.736,20.102,28.652C354.118,433.822,353.929,456.197,345.439,476.053  z M421.914,425.082c-21.262,0-41.636-8.367-56.827-23.557c-8.454-8.453-14.944-18.744-18.919-29.926  c8.68-6.786,16.575-14.529,23.535-23.065c11.048,3.986,21.215,10.428,29.58,18.795c15.41,15.41,23.798,36.154,23.552,57.749  C422.528,425.081,422.222,425.082,421.914,425.082z M474.836,348.362c-19.858,8.492-42.231,8.68-62.365,0.341  c-11.036-4.571-20.963-11.588-28.911-20.386c5.409-9.505,9.782-19.67,12.973-30.342c11.707-0.532,23.536,1.53,34.444,6.047  C451.112,312.362,466.799,328.316,474.836,348.362z M436.031,281.769c-11.931,0-23.775-2.678-34.475-7.754  c0.725-5.902,1.106-11.908,1.106-18.004c0-5.036-0.267-10.042-0.775-15.006c10.614-4.975,22.338-7.598,34.145-7.598  c21.793,0,42.392,8.737,57.489,24.181C478.423,273.032,457.824,281.769,436.031,281.769z"
     id="path63" /><path
     d="M256.001,231.304c-13.623,0-24.706,11.083-24.706,24.706c0,13.623,11.083,24.706,24.706,24.706  c13.623,0,24.706-11.083,24.706-24.706C280.707,242.388,269.624,231.304,256.001,231.304z M256.001,264.947  c-4.928,0-8.936-4.009-8.936-8.936c0-4.928,4.009-8.936,8.936-8.936c4.928,0,8.936,4.009,8.936,8.936  C264.937,260.938,260.927,264.947,256.001,264.947z"
     id="path65" /><path
     d="M256.001,147.198c-13.623,0-24.706,11.083-24.706,24.706s11.083,24.706,24.706,24.706c13.623,0,24.706-11.083,24.706-24.706  S269.624,147.198,256.001,147.198z M256.001,180.84c-4.928,0-8.936-4.009-8.936-8.936s4.009-8.936,8.936-8.936  c4.928,0,8.936,4.009,8.936,8.936S260.927,180.84,256.001,180.84z"
     id="path67" /><path
     d="M196.528,171.831c-6.599,0-12.804,2.571-17.469,7.236c-4.667,4.667-7.237,10.871-7.237,17.47  c0,6.599,2.569,12.804,7.236,17.47c0,0,0,0,0.001,0c4.666,4.666,10.871,7.236,17.469,7.236c6.599,0,12.804-2.571,17.47-7.236  c9.632-9.633,9.632-25.307,0-34.94C209.332,174.402,203.128,171.831,196.528,171.831z M202.846,202.857  c-1.687,1.687-3.931,2.618-6.319,2.618c-2.388,0-4.63-0.929-6.319-2.618c0,0,0,0-0.001,0c-1.687-1.687-2.617-3.932-2.617-6.319  c0-2.387,0.929-4.63,2.618-6.319c1.687-1.687,3.931-2.618,6.319-2.618c2.388,0,4.63,0.929,6.319,2.618  C206.331,193.703,206.331,199.373,202.846,202.857z"
     id="path69" /><path
     d="M196.6,256.011c0-13.623-11.083-24.706-24.706-24.706s-24.706,11.083-24.706,24.706c0,13.623,11.083,24.706,24.706,24.706  S196.6,269.634,196.6,256.011z M162.957,256.011c0-4.928,4.009-8.936,8.936-8.936s8.936,4.009,8.936,8.936  c0,4.928-4.009,8.936-8.936,8.936S162.957,260.938,162.957,256.011z"
     id="path71" /><path
     d="M196.528,290.776c-6.599,0-12.804,2.571-17.469,7.236c-4.667,4.667-7.237,10.871-7.237,17.471  c0,6.599,2.569,12.803,7.236,17.47s10.871,7.236,17.47,7.236c6.599,0,12.804-2.57,17.47-7.236c9.632-9.633,9.632-25.307,0-34.94  C209.332,293.347,203.128,290.776,196.528,290.776z M202.846,321.802c-1.687,1.687-3.931,2.618-6.319,2.618  c-2.388,0-4.63-0.929-6.32-2.618c-1.687-1.687-2.617-3.932-2.617-6.319c0-2.388,0.929-4.631,2.618-6.32  c1.687-1.687,3.931-2.618,6.319-2.618c2.388,0,4.63,0.929,6.319,2.618C206.331,312.648,206.331,318.318,202.846,321.802z"
     id="path73" /><path
     d="M256.001,315.411c-13.623,0-24.706,11.083-24.706,24.706c0,13.623,11.083,24.706,24.706,24.706  c13.623,0,24.706-11.083,24.706-24.706C280.707,326.494,269.624,315.411,256.001,315.411z M256.001,349.054  c-4.928,0-8.936-4.009-8.936-8.936c0-4.928,4.009-8.936,8.936-8.936c4.928,0,8.936,4.009,8.936,8.936  C264.937,345.045,260.927,349.054,256.001,349.054z"
     id="path75" /><path
     d="M332.941,298.013c-4.666-4.666-10.871-7.236-17.469-7.236c-6.599,0-12.804,2.571-17.47,7.236  c-9.632,9.633-9.632,25.307,0,34.94c4.666,4.666,10.871,7.236,17.47,7.236c6.599,0,12.804-2.571,17.469-7.236  c4.667-4.667,7.237-10.871,7.237-17.47C340.179,308.883,337.609,302.68,332.941,298.013  C332.942,298.014,332.942,298.014,332.941,298.013z M321.791,321.802c-1.687,1.687-3.931,2.618-6.319,2.618  c-2.388,0-4.63-0.929-6.319-2.618c-3.484-3.484-3.484-9.154,0-12.638c1.687-1.687,3.931-2.618,6.319-2.618  c2.388,0,4.63,0.929,6.319,2.618c0,0,0,0,0.001,0c1.687,1.687,2.617,3.932,2.617,6.319  C324.409,317.87,323.479,320.114,321.791,321.802z"
     id="path77" /><path
     d="M315.401,256.011c0,13.623,11.083,24.706,24.706,24.706c13.623,0,24.706-11.083,24.706-24.706  c0-13.623-11.083-24.706-24.706-24.706C326.484,231.304,315.401,242.388,315.401,256.011z M349.044,256.011  c0,4.928-4.009,8.936-8.936,8.936c-4.928,0-8.936-4.009-8.936-8.936c0-4.928,4.009-8.936,8.936-8.936  C345.035,247.074,349.044,251.083,349.044,256.011z"
     id="path79" /><path
     d="M315.472,221.245c6.599,0,12.804-2.571,17.469-7.236c4.667-4.667,7.237-10.871,7.237-17.471  c0-6.599-2.569-12.803-7.236-17.47s-10.871-7.236-17.47-7.236c-6.599,0-12.804,2.571-17.47,7.236c-9.632,9.633-9.632,25.307,0,34.94  C302.668,218.675,308.873,221.245,315.472,221.245z M309.154,190.219c1.687-1.687,3.931-2.618,6.319-2.618s4.63,0.929,6.32,2.618  c1.687,1.687,2.617,3.932,2.617,6.319c0,2.388-0.929,4.631-2.618,6.32c-1.687,1.687-3.931,2.618-6.319,2.618  s-4.63-0.929-6.319-2.618C305.67,199.373,305.67,193.703,309.154,190.219z"
     id="path81" /><g
     id="g83" /><g
     id="g85" /><g
     id="g87" /><g
     id="g89" /><g
     id="g91" /><g
     id="g93" /><g
     id="g95" /><g
     id="g97" /><g
     id="g99" /><g
     id="g101" /><g
     id="g103" /><g
     id="g105" /><g
     id="g107" /><g
     id="g109" /><g
     id="g111" /></svg>