<?xml version="1.0" encoding="iso-8859-1"?>
<!-- Generator: Adobe Illustrator 19.0.0, SVG Export Plug-In . SVG Version: 6.00 Build 0)  -->
<svg version="1.1" id="Capa_1" xmlns="http://www.w3.org/2000/svg" xmlns:xlink="http://www.w3.org/1999/xlink" x="0px" y="0px"
	 viewBox="0 0 512 512" style="enable-background:new 0 0 512 512;" xml:space="preserve">
<g>
	<path style="fill:#EBAF4B;" d="M11.263,103.72c0,0-27.764,128.236,92.457,128.236l24.044-56.103
		C114.628,170.778,56.871,146.132,11.263,103.72z"/>
	<path style="fill:#EBAF4B;" d="M501.685,103.72c0,0,27.764,128.236-92.457,128.236l-24.044-56.103
		C398.32,170.778,456.077,146.132,501.685,103.72z"/>
</g>
<path style="fill:#FFDC64;" d="M383.65,147.908c0.927-9.573,0.779-19.464-0.622-29.581C374.479,56.605,321.098,8.902,258.8,7.573
	c-72.103-1.538-131.036,56.452-131.036,128.206c0,3.294,0.129,6.558,0.381,9.786c1.536,19.691-3.431,39.255-15.021,55.247
	c-24.073,33.215-36.856,75.138-32.658,120.174c7.67,82.304,73.334,149.262,155.497,158.319
	c106.355,11.724,196.362-71.236,196.362-175.218c0-38.378-12.282-73.871-33.11-102.808
	C388.037,185.751,381.807,166.951,383.65,147.908z"/>
<path style="fill:#FFC850;" d="M144.583,320.987c-4.196-45.036,8.587-86.959,32.658-120.174
	c11.591-15.992,16.558-35.556,15.021-55.247c-0.252-3.228-0.381-6.492-0.381-9.786c0-59.671,40.806-109.692,95.999-124.006
	c-9.379-2.463-19.095-3.986-29.081-4.199c-72.102-1.538-131.036,56.452-131.036,128.206c0,3.294,0.129,6.558,0.381,9.786
	c1.536,19.691-3.431,39.255-15.021,55.247c-24.073,33.216-36.856,75.138-32.658,120.174c7.67,82.304,73.334,149.261,155.497,158.319
	c17.966,1.981,35.446,1.201,52.124-1.868C211.618,463.497,151.875,399.232,144.583,320.987z"/>
<g>
	<path style="fill:#EDEBED;" d="M389.155,318.054l-40.619-27.079c-2.543-1.696-5.929-1.36-8.091,0.801l-47.853,47.853
		c-2.504,2.504-6.564,2.504-9.067,0l-38.893-38.893c-2.554-2.554-6.711-2.496-9.191,0.128l-37.691,39.846
		c-2.482,2.624-6.639,2.681-9.191,0.128l-56.86-56.86c-2.257-2.257-5.828-2.511-8.381-0.596l-23.569,17.677
		c-2.371,1.778-5.651,1.7-7.935-0.189l-25.171-20.824c-4.036-3.339-10.261-0.701-10.522,4.531c-0.025,0.501-0.049,1.002-0.072,1.503
		C50.782,400.28,136.284,501.36,250.567,504.385c113.142,2.993,205.801-87.831,205.801-200.296c0-1.9-0.015-3.797-0.043-5.694
		c-0.071-4.736-5.058-7.785-9.295-5.666l-51.451,25.726C393.521,319.483,391.069,319.33,389.155,318.054z"/>
	<path style="fill:#EDEBED;" d="M456.039,288.056c0.002,0.055,0.001,0.111,0.003,0.166l0.326-0.163L456.039,288.056z"/>
</g>
<path style="fill:#EB914B;" d="M296.074,175.853c0,17.706-26.794,38.47-40.074,38.47c-13.28,0-40.074-20.765-40.074-38.47
	s26.794-38.47,40.074-38.47C269.28,137.382,296.074,158.147,296.074,175.853z"/>
<g>
	<path style="fill:#5D5360;" d="M183.867,143.793L183.867,143.793c8.852,0,16.029-7.177,16.029-16.029v-8.015
		c0-8.852-7.177-16.029-16.029-16.029l0,0c-8.852,0-16.029,7.177-16.029,16.029v8.015
		C167.838,136.617,175.015,143.793,183.867,143.793z"/>
	<path style="fill:#5D5360;" d="M328.132,143.793L328.132,143.793c8.852,0,16.029-7.177,16.029-16.029v-8.015
		c0-8.852-7.177-16.029-16.029-16.029l0,0c-8.852,0-16.029,7.177-16.029,16.029v8.015
		C312.103,136.617,319.28,143.793,328.132,143.793z"/>
</g>
<path style="fill:#DBD9DC;" d="M169.422,321.701l-37.725-37.725c-2.256-2.257-5.828-2.51-8.381-0.596l-23.569,17.677
	c-2.371,1.779-5.651,1.7-7.934-0.189l-25.171-20.824c-4.036-3.339-10.261-0.701-10.522,4.531c-0.025,0.501-0.049,1.002-0.072,1.503
	c-5.267,114.202,80.234,215.284,194.518,218.307c21.516,0.57,42.285-2.273,61.822-7.993
	C235.262,473.38,179.218,403.615,169.422,321.701z"/>
<path style="fill:#4B3F4E;" d="M294.336,183.96c-1.09-2.31-2.64-4.219-4.729-5.211c-11.781-5.592-24.69-9.308-33.665-9.308
	c-8.954,0-21.815,3.703-33.571,9.276c-2.086,0.989-3.633,2.893-4.725,5.196c6.046,15.384,27.061,30.409,38.355,30.409
	C267.283,214.323,288.266,199.329,294.336,183.96z"/>
<g>
	<circle style="fill:#FFFFFF;" cx="328.133" cy="119.75" r="8.499"/>
	<circle style="fill:#FFFFFF;" cx="183.868" cy="119.75" r="8.499"/>
</g>
<path d="M256,129.883c-16.637,0-47.573,23.629-47.573,45.97c0,22.34,30.936,45.969,47.573,45.969s47.573-23.629,47.573-45.969
	S272.637,129.883,256,129.883z M235.955,155.59c7.853-6.957,16.188-10.71,20.045-10.71s12.192,3.753,20.045,10.71
	c6.113,5.415,10.383,11.401,11.906,16.464c-10.221-6.031-23.376-10.113-31.95-10.113c-8.618,0-21.721,4.03-31.938,10.074
	C225.595,166.961,229.858,160.992,235.955,155.59z M276.044,196.114c-7.853,6.957-16.188,10.71-20.045,10.71
	c-3.856,0-12.192-3.753-20.045-10.71c-3.205-2.84-5.898-5.836-7.963-8.775c7.558-5.616,20.887-10.399,28.007-10.399
	c7.703,0,20.747,5.09,27.993,10.419C281.93,190.291,279.243,193.281,276.044,196.114z"/>
<path d="M183.867,96.221c-12.974,0-23.528,10.555-23.528,23.528v8.016c0,12.974,10.555,23.528,23.528,23.528
	c12.973,0,23.528-10.555,23.528-23.528v-8.016C207.396,106.776,196.841,96.221,183.867,96.221z M192.399,127.764
	c0,4.704-3.827,8.531-8.531,8.531c-4.703,0-8.531-3.827-8.531-8.531v-8.016c0-4.704,3.827-8.531,8.531-8.531
	c4.703,0,8.531,3.827,8.531,8.531V127.764z"/>
<path d="M328.132,96.221c-12.974,0-23.528,10.555-23.528,23.528v8.016c0,12.974,10.555,23.528,23.528,23.528
	s23.528-10.555,23.528-23.528v-8.016C351.661,106.776,341.106,96.221,328.132,96.221z M336.664,127.764
	c0,4.704-3.827,8.531-8.531,8.531s-8.531-3.827-8.531-8.531v-8.016c0-4.704,3.827-8.531,8.531-8.531s8.531,3.827,8.531,8.531
	V127.764z"/>
<path d="M508.018,101.925c-0.636-2.581-2.591-4.631-5.137-5.391c-2.544-0.758-5.304-0.116-7.251,1.695
	c-39.297,36.544-84.122,57.661-103.752,65.82c-0.896-5.612-1.121-11.236-0.642-16.757c0.861-9.943,0.598-20.037-0.782-29.998
	C381.39,51.869,324.857,1.477,258.952,0.075c-36.873-0.771-71.605,12.962-97.9,38.703c-26.302,25.749-40.787,60.198-40.787,97
	c0,2.975,0.102,5.992,0.302,8.965c0.442,6.56,0.162,12.969-0.787,19.162c-19.806-8.261-64.342-29.345-103.411-65.678
	c-1.947-1.81-4.704-2.455-7.251-1.695s-4.5,2.812-5.137,5.391c-0.635,2.577-15.201,63.55,15.685,102.157
	c14.743,18.429,37.074,28.414,66.468,29.766c-5.67,13.689-9.686,28.036-11.904,42.743l-12.505-10.345
	c-2.153-1.781-5.117-2.218-7.693-1.132c-2.575,1.086-4.332,3.513-4.561,6.298c-0.89,10.868-1.341,21.862-1.341,32.677
	c0,114.618,93.249,207.867,207.867,207.867s207.867-93.249,207.867-207.867c0-5.403-0.113-10.9-0.336-16.339
	c-0.17-4.137-3.676-7.344-7.8-7.185c-1.621,0.067-3.095,0.648-4.285,1.573l-12.314,6.157c-1.615-18.725-6.112-37.128-13.271-54.446
	c29.395-1.353,51.728-11.338,66.471-29.766C523.219,165.475,508.654,104.502,508.018,101.925z M31.413,194.756
	c-18.577-23.175-17.388-57.905-15.047-76.467c39.486,33.594,81.752,52.973,99.729,60.322c-2.392,6.725-5.676,13.075-9.845,18.92
	c-4.898,6.866-9.293,14.041-13.177,21.46C65.039,218.961,44.302,210.836,31.413,194.756z M480.622,194.714
	c-12.888,16.11-33.655,24.262-61.702,24.278c-1.209-2.311-2.449-4.605-3.757-6.862c-2.077-3.582-6.666-4.803-10.248-2.728
	c-3.582,2.077-4.804,6.666-2.728,10.248c13.361,23.05,21.066,49.23,22.407,75.913l-31.804,15.902l-44.468-29.645
	c-2.973-1.982-6.934-1.591-9.461,0.937l-8.016,8.016c-2.928,2.928-2.928,7.677,0,10.604c2.928,2.928,7.677,2.928,10.604,0
	l3.668-3.668l42.974,28.649c1.254,0.836,2.704,1.26,4.16,1.26c1.145,0,2.294-0.262,3.353-0.792l53.226-26.612
	c0.013,1.293,0.04,2.593,0.04,3.876c0,106.349-86.521,192.869-192.869,192.869S63.13,410.437,63.13,304.089
	c0-5.601,0.126-11.251,0.375-16.907l27.419,22.685c2.671,2.209,6.507,2.301,9.279,0.221l26.856-20.142l60.855,60.855
	c1.432,1.432,3.389,2.216,5.406,2.196c2.025-0.028,3.952-0.874,5.344-2.346l41.454-43.823l42.637,42.637
	c2.928,2.928,7.677,2.928,10.604,0l24.044-24.044c2.928-2.928,2.928-7.677,0-10.604c-2.928-2.928-7.677-2.928-10.604,0
	l-18.742,18.742l-42.786-42.786c-1.432-1.432-3.387-2.207-5.406-2.196c-2.025,0.028-3.952,0.874-5.344,2.346l-41.454,43.823
	l-60.003-60.003c-2.639-2.639-6.816-2.936-9.801-0.697l-27.332,20.498l-7.972-6.596c2.798-29.4,13.301-57.607,30.497-81.709
	c12.724-17.835,18.627-39.448,17.074-62.503c-0.178-2.64-0.268-5.317-0.268-7.957c0-32.736,12.885-63.378,36.282-86.283
	c23.39-22.897,54.333-35.128,87.09-34.426c58.618,1.246,108.902,46.077,116.966,104.281c1.227,8.852,1.461,17.817,0.696,26.644
	c-1.35,15.583,1.837,31.735,9.217,46.71c1.831,3.714,6.327,5.244,10.041,3.411c3.714-1.831,5.242-6.327,3.411-10.041
	c-1.202-2.439-2.267-4.912-3.201-7.409c17.894-7.303,60.288-26.697,99.888-60.394C498.01,136.801,499.222,171.464,480.622,194.714z"
	/>
<g>
</g>
<g>
</g>
<g>
</g>
<g>
</g>
<g>
</g>
<g>
</g>
<g>
</g>
<g>
</g>
<g>
</g>
<g>
</g>
<g>
</g>
<g>
</g>
<g>
</g>
<g>
</g>
<g>
</g>
</svg>
