<?xml version="1.0" encoding="UTF-8" standalone="no"?>
<!-- Generator: Adobe Illustrator 19.0.0, SVG Export Plug-In . SVG Version: 6.00 Build 0)  -->

<svg
   xmlns:dc="http://purl.org/dc/elements/1.1/"
   xmlns:cc="http://creativecommons.org/ns#"
   xmlns:rdf="http://www.w3.org/1999/02/22-rdf-syntax-ns#"
   xmlns:svg="http://www.w3.org/2000/svg"
   xmlns="http://www.w3.org/2000/svg"
   xmlns:sodipodi="http://sodipodi.sourceforge.net/DTD/sodipodi-0.dtd"
   xmlns:inkscape="http://www.inkscape.org/namespaces/inkscape"
   version="1.1"
   id="Layer_1"
   x="0px"
   y="0px"
   viewBox="0 0 512.003 512.003"
   style="enable-background:new 0 0 512.003 512.003;"
   xml:space="preserve"
   inkscape:version="0.91 r13725"
   sodipodi:docname="icon_bee.svg"
   inkscape:export-filename="C:\Users\Mike\OneDrive\Projects\RaspPI\Source\Android\cancam-android\app\src\main\res\drawable\ic_icon_bee.png"
   inkscape:export-xdpi="35.16"
   inkscape:export-ydpi="35.16"><metadata
     id="metadata57"><rdf:RDF><cc:Work
         rdf:about=""><dc:format>image/svg+xml</dc:format><dc:type
           rdf:resource="http://purl.org/dc/dcmitype/StillImage" /></cc:Work></rdf:RDF></metadata><defs
     id="defs55" /><sodipodi:namedview
     pagecolor="#ffffff"
     bordercolor="#666666"
     borderopacity="1"
     objecttolerance="10"
     gridtolerance="10"
     guidetolerance="10"
     inkscape:pageopacity="0"
     inkscape:pageshadow="2"
     inkscape:window-width="1920"
     inkscape:window-height="1017"
     id="namedview53"
     showgrid="false"
     inkscape:zoom="0.46093481"
     inkscape:cx="256.0015"
     inkscape:cy="256.0015"
     inkscape:window-x="3832"
     inkscape:window-y="-8"
     inkscape:window-maximized="1"
     inkscape:current-layer="Layer_1" /><g
     id="g3"><path
       style="fill:#FFA14D;"
       d="M451.98,223.089c32.471,32.471,32.471,85.116,0,117.588c-32.471,32.471-85.116,32.471-117.588,0   C301.921,308.207,256,144.698,256,144.698S419.509,190.617,451.98,223.089z"
       id="path5" /><path
       style="fill:#FFA14D;"
       d="M60.02,223.089c-32.471,32.471-32.471,85.116,0,117.588s85.116,32.471,117.588,0   S256,144.698,256,144.698S92.491,190.617,60.02,223.089z"
       id="path7" /></g><g
     id="g9"><path
       style="fill:#FFD366;"
       d="M356.174,176.786C305.987,158.732,256,144.697,256,144.697s-49.987,14.035-100.174,32.089v-43.219   c0-55.329,44.844-100.174,100.174-100.174c27.67,0,52.714,11.208,70.834,29.34c18.131,18.12,29.34,43.164,29.34,70.834   L356.174,176.786L356.174,176.786z"
       id="path11" /><path
       style="fill:#FFD366;"
       d="M177.609,340.681C210.076,308.202,256,144.697,256,144.697s45.924,163.506,78.391,195.984   c6.556,6.545,13.924,11.776,21.782,15.672c-0.1,55.251-44.9,99.996-100.174,99.996s-100.074-44.744-100.174-99.996   C163.684,352.457,171.053,347.226,177.609,340.681z"
       id="path13" /></g><path
     d="M459.85,215.219c-14.99-14.99-53.265-31.841-92.546-46.328v-35.323c0-29.743-11.578-57.694-32.598-78.703  c-5.603-5.605-11.703-10.532-18.195-14.754l15.469-22.71c3.46-5.08,2.148-12.004-2.933-15.466c-5.08-3.46-12.004-2.148-15.465,2.933  l-17.021,24.988c-12.752-4.982-26.455-7.591-40.563-7.591c-14.293,0-27.964,2.711-40.529,7.64L198.416,4.865  c-3.46-5.081-10.386-6.393-15.465-2.933c-5.081,3.46-6.394,10.385-2.933,15.466l15.509,22.769  c-30.57,19.861-50.831,54.306-50.831,93.4v35.323c-39.283,14.487-77.556,31.338-92.546,46.328  c-17.808,17.806-27.613,41.482-27.613,66.664c0,25.184,9.807,48.858,27.613,66.666c18.38,18.38,42.522,27.569,66.664,27.569  c9.117,0,18.234-1.314,27.04-3.936c2.367,16.342,8.3,31.545,16.983,44.798c0.377,0.72,0.828,1.395,1.347,2.011  c18.103,26.367,47.246,44.594,80.687,47.934v33.947c0,6.146,4.983,11.13,11.13,11.13c6.147,0,11.13-4.984,11.13-11.13v-33.947  c33.575-3.355,62.822-21.713,80.908-48.254c0.368-0.471,0.705-0.967,0.995-1.494c8.753-13.299,14.733-28.572,17.113-44.994  c8.806,2.62,17.922,3.936,27.04,3.935c24.14-0.002,48.287-9.191,66.665-27.569c17.808-17.806,27.613-41.482,27.613-66.666  C487.464,256.7,477.657,233.025,459.85,215.219z M166.957,133.566c0-49.098,39.945-89.043,89.043-89.043  c13.881,0,27.263,3.173,39.35,9.138c0.167,0.088,0.334,0.176,0.504,0.254c8.439,4.233,16.244,9.818,23.111,16.69  c16.816,16.807,26.077,39.167,26.077,62.961v27.38c-40.793-14.106-78.054-24.724-86.034-26.966c-0.03-0.008-0.06-0.011-0.09-0.019  c-0.008-0.002-0.016-0.004-0.023-0.007c-0.036-0.01-0.071-0.022-0.107-0.031c-0.377-0.098-0.762-0.171-1.152-0.229  c-0.034-0.006-0.069-0.016-0.104-0.02c-0.027-0.003-0.053-0.004-0.08-0.008c-0.07-0.009-0.14-0.013-0.21-0.022  c-0.362-0.041-0.727-0.067-1.096-0.071c-0.031,0-0.061-0.003-0.092-0.003c-0.018,0-0.036-0.002-0.055-0.002  c-0.014,0-0.029,0.001-0.043,0.001c-0.046,0-0.09,0.004-0.135,0.006c-0.366,0.006-0.727,0.032-1.085,0.072  c-0.059,0.007-0.119,0.01-0.178,0.018c-0.029,0.003-0.058,0.003-0.087,0.008c-0.038,0.006-0.076,0.016-0.115,0.022  c-0.393,0.058-0.779,0.135-1.159,0.233c-0.018,0.004-0.036,0.011-0.053,0.016c-0.022,0.006-0.043,0.013-0.065,0.019  c-0.03,0.008-0.06,0.011-0.09,0.019c-7.98,2.242-45.242,12.86-86.034,26.966L166.957,133.566L166.957,133.566z M256.65,186.007  c0.072,0.235,0.146,0.47,0.219,0.707c0.718,2.313,1.461,4.691,2.229,7.132c0.014,0.047,0.029,0.092,0.043,0.139  c0.257,0.815,0.516,1.636,0.778,2.463c0.036,0.112,0.071,0.225,0.107,0.337c0.811,2.559,1.647,5.176,2.508,7.844  c0.014,0.045,0.028,0.088,0.042,0.132c0.287,0.889,0.577,1.784,0.868,2.684c0.02,0.062,0.041,0.126,0.061,0.188  c0.894,2.753,1.811,5.552,2.75,8.392c0.007,0.021,0.013,0.042,0.021,0.063c0.713,2.155,1.438,4.329,2.176,6.522h-24.91  c0.339-1.01,0.676-2.015,1.01-3.015c0.097-0.289,0.194-0.58,0.291-0.869c0.257-0.77,0.512-1.538,0.765-2.303  c0.107-0.322,0.211-0.641,0.317-0.961c0.837-2.532,1.656-5.031,2.455-7.493c0.075-0.232,0.15-0.463,0.225-0.693  c0.256-0.788,0.509-1.57,0.76-2.35c0.072-0.223,0.144-0.444,0.215-0.667c0.795-2.465,1.568-4.887,2.321-7.258  c0.075-0.234,0.149-0.469,0.223-0.701c0.232-0.731,0.462-1.459,0.689-2.179c0.07-0.224,0.14-0.445,0.21-0.669  c0.723-2.297,1.424-4.54,2.101-6.724c0.075-0.24,0.149-0.481,0.224-0.72c0.213-0.686,0.423-1.366,0.63-2.038  c0.007-0.021,0.013-0.043,0.02-0.065c0.007,0.021,0.013,0.043,0.02,0.065C256.227,184.64,256.438,185.322,256.65,186.007z   M333.459,354.826c0.193,0.158,0.386,0.311,0.58,0.466c0.365,0.295,0.727,0.593,1.096,0.883h-96.108  c-6.147,0-11.13,4.984-11.13,11.13s4.983,11.13,11.13,11.13h103.174c-2.044,7.897-5.148,15.368-9.149,22.261h-35.761  c-6.147,0-11.13,4.984-11.13,11.13s4.983,11.13,11.13,11.13h17.489c-15.557,13.712-35.906,22.095-58.169,22.246  c-0.204-0.011-0.404-0.031-0.611-0.031c-0.207,0-0.407,0.02-0.611,0.031c-22.263-0.151-42.612-8.534-58.169-22.246h43.475  c6.147,0,11.13-4.984,11.13-11.13s-4.983-11.13-11.13-11.13H178.95c-4.001-6.893-7.106-14.364-9.149-22.261h38.062  c6.147,0,11.13-4.984,11.13-11.13s-4.983-11.13-11.13-11.13h-30.995c0.375-0.294,0.744-0.598,1.115-0.898  c0.184-0.148,0.367-0.294,0.55-0.443c1.087-0.892,2.157-1.81,3.208-2.754c0.179-0.16,0.356-0.325,0.534-0.486  c1.085-0.988,2.156-1.995,3.199-3.036c0.002-0.003,0.006-0.006,0.008-0.008c0.499-0.5,1.001-1.034,1.504-1.584  c0.063-0.07,0.128-0.142,0.193-0.213c0.453-0.501,0.908-1.021,1.363-1.562c0.057-0.068,0.114-0.132,0.17-0.2  c1.011-1.207,2.028-2.511,3.051-3.902c0.083-0.114,0.166-0.228,0.249-0.342c0.454-0.623,0.908-1.262,1.365-1.919  c0.057-0.081,0.114-0.161,0.169-0.243c0.522-0.757,1.045-1.533,1.568-2.333c0.017-0.026,0.033-0.051,0.05-0.077  c0.482-0.736,0.964-1.491,1.447-2.263H315.39c0.036,0.057,0.071,0.11,0.107,0.167c0.361,0.572,0.72,1.134,1.079,1.687  c0.128,0.196,0.256,0.398,0.383,0.593c0.477,0.727,0.954,1.435,1.43,2.126c0.129,0.188,0.258,0.371,0.387,0.555  c0.373,0.534,0.745,1.057,1.115,1.569c0.14,0.193,0.279,0.385,0.42,0.575c0.454,0.616,0.907,1.218,1.359,1.798  c0.03,0.039,0.061,0.08,0.091,0.119c0.498,0.637,0.993,1.245,1.487,1.838c0.096,0.115,0.191,0.225,0.286,0.337  c0.413,0.487,0.825,0.959,1.235,1.415c0.092,0.102,0.186,0.208,0.279,0.308c0.495,0.54,0.988,1.065,1.479,1.556  c1.04,1.038,2.107,2.04,3.187,3.025c0.185,0.168,0.368,0.338,0.554,0.505C331.315,353.026,332.377,353.938,333.459,354.826z   M278.702,251.933c0.033,0.09,0.066,0.181,0.099,0.272c1.084,2.974,2.182,5.945,3.291,8.905c0.012,0.033,0.026,0.068,0.038,0.101  c0.356,0.949,0.713,1.897,1.072,2.844c0.052,0.138,0.105,0.277,0.157,0.415c0.337,0.888,0.674,1.778,1.014,2.664h-56.75  c0.238-0.622,0.475-1.245,0.712-1.869c0.214-0.563,0.427-1.125,0.641-1.69c0.248-0.657,0.496-1.315,0.745-1.973  c0.197-0.523,0.392-1.047,0.588-1.572c0.452-1.208,0.9-2.418,1.348-3.63c0.175-0.474,0.351-0.948,0.525-1.424  c0.258-0.703,0.515-1.408,0.772-2.111c0.178-0.489,0.356-0.977,0.534-1.466c0.256-0.706,0.512-1.41,0.767-2.115  c0.166-0.461,0.332-0.922,0.498-1.382c0.364-1.011,0.726-2.02,1.086-3.031h40.315C276.997,247.222,277.845,249.577,278.702,251.933z   M300.877,306.545c0.19,0.41,0.382,0.817,0.572,1.223c0.282,0.6,0.564,1.199,0.846,1.792c0.209,0.441,0.42,0.874,0.629,1.31  c0.126,0.26,0.25,0.524,0.376,0.784h-94.602c0.382-0.788,0.762-1.582,1.143-2.384c0.151-0.319,0.303-0.642,0.455-0.963  c0.354-0.75,0.707-1.505,1.061-2.266c0.164-0.352,0.327-0.702,0.49-1.057c0.45-0.974,0.898-1.956,1.347-2.947  c0.108-0.238,0.215-0.477,0.323-0.717c0.408-0.906,0.816-1.82,1.223-2.74c0.183-0.411,0.364-0.825,0.545-1.239  c0.315-0.718,0.63-1.438,0.945-2.163c0.185-0.425,0.368-0.848,0.553-1.276c0.453-1.052,0.906-2.109,1.358-3.176  c0.16-0.377,0.319-0.759,0.479-1.138c0.028-0.066,0.056-0.131,0.083-0.197h74.595c0.582,1.384,1.166,2.757,1.752,4.118  c0.01,0.023,0.02,0.046,0.029,0.069c0.321,0.746,0.643,1.486,0.965,2.225c0.147,0.338,0.295,0.676,0.442,1.013  c0.312,0.71,0.622,1.418,0.934,2.121c0.134,0.301,0.267,0.598,0.4,0.896c0.581,1.302,1.163,2.591,1.745,3.867  c0.147,0.322,0.294,0.646,0.441,0.965C300.296,305.296,300.586,305.922,300.877,306.545z M67.889,332.806  c-13.602-13.603-21.093-31.687-21.093-50.924c0-19.236,7.491-37.32,21.093-50.923l0,0c12.847-12.847,51.311-29.172,91.701-43.7  c0.001,0,0.002,0,0.002-0.001c30.4-10.936,60.989-20.46,80.05-26.177c-4.602,15.392-10.536,34.348-17.179,54.07  c-0.014,0.045-0.03,0.089-0.046,0.134c-0.395,1.173-0.792,2.347-1.192,3.525c-0.012,0.037-0.024,0.072-0.037,0.109  c-2.067,6.082-4.196,12.219-6.37,18.328c-0.017,0.048-0.035,0.096-0.051,0.144c-0.405,1.139-0.813,2.277-1.221,3.414  c-0.046,0.126-0.09,0.252-0.136,0.376c-0.386,1.075-0.775,2.148-1.164,3.221c-0.051,0.14-0.101,0.28-0.152,0.421  c-0.403,1.107-0.807,2.213-1.212,3.316c-0.028,0.077-0.057,0.155-0.085,0.232c-1.76,4.789-3.541,9.53-5.334,14.183  c-0.062,0.16-0.124,0.319-0.186,0.48c-0.373,0.966-0.747,1.928-1.12,2.886c-0.092,0.236-0.185,0.472-0.277,0.707  c-0.347,0.889-0.696,1.773-1.044,2.655c-0.104,0.263-0.207,0.524-0.312,0.786c-0.342,0.862-0.685,1.719-1.026,2.572  c-0.102,0.255-0.205,0.512-0.307,0.767c-0.048,0.119-0.097,0.237-0.145,0.356c-0.072,0.163-0.136,0.327-0.2,0.494  c-0.254,0.628-0.508,1.255-0.761,1.879c-0.071,0.174-0.141,0.349-0.213,0.523c-0.896,2.193-1.792,4.354-2.688,6.478  c-0.048,0.112-0.095,0.223-0.142,0.335c-0.385,0.912-0.77,1.816-1.155,2.715c-0.125,0.289-0.248,0.574-0.372,0.863  c-0.309,0.717-0.618,1.43-0.927,2.137c-0.151,0.347-0.303,0.69-0.454,1.035c-0.282,0.642-0.564,1.28-0.846,1.913  c-0.163,0.366-0.325,0.73-0.488,1.093c-0.274,0.612-0.548,1.218-0.821,1.821c-0.164,0.36-0.326,0.72-0.49,1.076  c-0.278,0.608-0.555,1.208-0.833,1.808c-0.157,0.338-0.314,0.679-0.47,1.014c-0.307,0.657-0.613,1.304-0.919,1.949  c-0.124,0.26-0.248,0.526-0.372,0.785c-0.422,0.882-0.843,1.753-1.262,2.611c-0.135,0.275-0.268,0.542-0.403,0.814  c-0.287,0.581-0.573,1.162-0.859,1.732c-0.186,0.371-0.372,0.733-0.557,1.1c-0.234,0.46-0.466,0.919-0.699,1.37  c-0.199,0.387-0.398,0.768-0.598,1.15c-0.218,0.417-0.435,0.831-0.652,1.241c-0.207,0.39-0.413,0.776-0.619,1.159  c-0.207,0.384-0.413,0.765-0.62,1.141c-0.21,0.386-0.421,0.769-0.631,1.148c-0.2,0.361-0.401,0.715-0.6,1.067  c-0.02,0.036-0.04,0.071-0.06,0.107c-0.43,0.601-0.802,1.244-1.107,1.926c-0.013,0.022-0.026,0.045-0.039,0.067  c-0.219,0.375-0.44,0.756-0.659,1.122c-0.145,0.242-0.288,0.472-0.432,0.71c-0.48,0.791-0.957,1.561-1.431,2.305  c-0.15,0.236-0.302,0.479-0.451,0.709c-0.235,0.363-0.467,0.71-0.701,1.06c-0.159,0.238-0.318,0.481-0.477,0.713  c-0.232,0.341-0.461,0.669-0.69,0.997c-0.158,0.226-0.316,0.452-0.474,0.672c-0.229,0.321-0.459,0.633-0.687,0.941  c-0.154,0.207-0.306,0.411-0.459,0.612c-0.23,0.304-0.461,0.603-0.69,0.893c-0.145,0.184-0.289,0.361-0.433,0.539  c-0.235,0.29-0.47,0.579-0.702,0.855c-0.126,0.148-0.25,0.288-0.375,0.432c-0.249,0.287-0.499,0.575-0.746,0.844  c-0.047,0.05-0.092,0.096-0.138,0.145c-0.304,0.328-0.608,0.649-0.907,0.949c-0.815,0.815-1.648,1.601-2.492,2.369  c-0.214,0.195-0.433,0.383-0.649,0.575c-0.638,0.567-1.282,1.121-1.934,1.661c-0.256,0.211-0.513,0.422-0.771,0.63  c-0.69,0.554-1.387,1.094-2.093,1.619c-0.186,0.139-0.37,0.28-0.557,0.417c-1.874,1.368-3.798,2.637-5.768,3.801  c-0.065,0.039-0.131,0.075-0.197,0.114c-0.912,0.534-1.832,1.046-2.761,1.538c-0.147,0.078-0.295,0.155-0.443,0.232  C124.936,359.866,90.637,355.552,67.889,332.806z M444.11,332.806c-22.742,22.742-57.03,27.059-84.161,12.965  c-0.159-0.083-0.319-0.166-0.479-0.25c-0.915-0.484-1.822-0.988-2.72-1.515c-0.077-0.046-0.156-0.088-0.233-0.134  c-1.965-1.162-3.884-2.429-5.754-3.793c-0.19-0.139-0.377-0.284-0.567-0.425c-0.701-0.522-1.395-1.06-2.08-1.609  c-0.263-0.211-0.523-0.424-0.782-0.639c-0.643-0.532-1.279-1.08-1.908-1.637c-0.226-0.201-0.455-0.397-0.68-0.602  c-0.84-0.766-1.671-1.548-2.483-2.361c-0.219-0.219-0.442-0.46-0.663-0.693c-0.134-0.141-0.266-0.275-0.401-0.421  c-0.208-0.227-0.417-0.471-0.627-0.71c-0.166-0.189-0.332-0.376-0.499-0.574c-0.204-0.24-0.409-0.494-0.613-0.746  c-0.176-0.216-0.352-0.433-0.529-0.657c-0.203-0.257-0.405-0.522-0.609-0.789c-0.184-0.24-0.367-0.486-0.552-0.736  c-0.199-0.269-0.4-0.543-0.6-0.823c-0.194-0.269-0.387-0.545-0.581-0.824c-0.196-0.28-0.392-0.561-0.59-0.85  c-0.207-0.303-0.414-0.618-0.622-0.93c-0.186-0.281-0.372-0.557-0.559-0.845c-0.252-0.387-0.504-0.788-0.757-1.189  c-0.155-0.245-0.308-0.483-0.463-0.733c-0.383-0.617-0.767-1.249-1.152-1.894c-0.158-0.265-0.317-0.541-0.475-0.81  c-0.07-0.12-0.141-0.242-0.211-0.363c-0.302-0.668-0.667-1.3-1.087-1.89c-0.235-0.415-0.47-0.83-0.706-1.254  c-0.174-0.313-0.348-0.631-0.522-0.949c-0.246-0.45-0.493-0.904-0.74-1.363c-0.171-0.318-0.342-0.639-0.514-0.962  c-0.259-0.488-0.519-0.982-0.778-1.48c-0.159-0.305-0.317-0.608-0.476-0.917c-0.286-0.554-0.573-1.119-0.86-1.685  c-0.136-0.267-0.271-0.532-0.406-0.801c-0.373-0.742-0.746-1.495-1.12-2.257c-0.049-0.099-0.097-0.196-0.146-0.295  c-0.441-0.899-0.882-1.812-1.323-2.738c-0.038-0.079-0.076-0.16-0.112-0.238c-0.394-0.826-0.788-1.662-1.183-2.508  c-0.108-0.23-0.216-0.465-0.324-0.698c-0.327-0.705-0.656-1.415-0.983-2.133c-0.126-0.275-0.252-0.553-0.377-0.83  c-0.316-0.696-0.632-1.396-0.948-2.103c-0.125-0.278-0.249-0.558-0.374-0.838c-0.325-0.731-0.651-1.469-0.977-2.212  c-0.111-0.253-0.221-0.505-0.333-0.759c-0.358-0.821-0.718-1.65-1.077-2.484c-0.077-0.179-0.154-0.356-0.232-0.535  c-1.351-3.148-2.704-6.382-4.055-9.691c-0.022-0.053-0.043-0.108-0.066-0.161c-0.307-0.754-0.614-1.514-0.922-2.275  c-0.046-0.116-0.09-0.232-0.139-0.345c-0.067-0.165-0.134-0.327-0.2-0.493c-0.063-0.157-0.126-0.314-0.189-0.471  c-0.384-0.957-0.769-1.92-1.153-2.888c-0.07-0.178-0.141-0.355-0.211-0.533c-0.383-0.967-0.766-1.939-1.148-2.915  c-0.063-0.161-0.126-0.322-0.189-0.483c-0.41-1.05-0.819-2.104-1.228-3.162c-0.029-0.075-0.057-0.148-0.086-0.223  c-2.257-5.857-4.497-11.854-6.698-17.91c-0.021-0.059-0.043-0.119-0.065-0.178c-0.421-1.159-0.84-2.318-1.258-3.479  c-0.019-0.053-0.038-0.107-0.058-0.16c-3.066-8.53-6.053-17.144-8.909-25.62c-0.014-0.045-0.03-0.088-0.045-0.132  c-2.451-7.276-4.805-14.447-7.032-21.376c-0.006-0.018-0.011-0.035-0.017-0.051c-0.359-1.117-0.715-2.228-1.067-3.332  c-0.02-0.062-0.04-0.126-0.06-0.188c-0.343-1.074-0.682-2.141-1.018-3.201c-0.02-0.062-0.04-0.125-0.059-0.187  c-1.418-4.476-2.775-8.824-4.061-13.001c-0.018-0.059-0.036-0.116-0.053-0.175c-0.292-0.948-0.58-1.888-0.865-2.818  c-0.053-0.174-0.106-0.345-0.158-0.518c-0.247-0.809-0.492-1.611-0.732-2.404c-0.07-0.229-0.139-0.457-0.208-0.686  c-0.218-0.718-0.433-1.427-0.646-2.133c-0.085-0.279-0.169-0.56-0.253-0.838c-0.197-0.653-0.391-1.299-0.583-1.941  c-0.087-0.288-0.174-0.58-0.259-0.865c-0.037-0.122-0.072-0.243-0.109-0.365c19.061,5.717,49.649,15.24,80.049,26.176  c0.026,0.009,0.051,0.016,0.077,0.023c40.36,14.52,78.783,30.833,91.627,43.677l0,0c13.602,13.602,21.093,31.687,21.093,50.923  C465.203,301.119,457.712,319.204,444.11,332.806z"
     id="path15" /><path
     d="M299.06,113.745l0.052,0.12c1.818,4.203,5.916,6.716,10.222,6.716c1.475,0,2.973-0.296,4.412-0.917  c5.642-2.44,8.238-8.992,5.798-14.633c-0.006-0.013-0.043-0.099-0.056-0.127c-2.442-5.638-8.992-8.23-14.632-5.792  C299.216,101.552,296.621,108.103,299.06,113.745z"
     id="path17" /><path
     d="M282.464,93.844c1.919,1.308,4.1,1.934,6.26,1.934c3.556,0,7.051-1.701,9.206-4.862c3.463-5.079,2.153-12.003-2.927-15.467  c-11.521-7.855-25.008-12.005-39.003-12.005c-6.147,0-11.13,4.984-11.13,11.13s4.983,11.13,11.13,11.13  C265.503,85.706,274.655,88.52,282.464,93.844z"
     id="path19" /><path
     d="M269.669,422.957h0.243c6.147,0,11.13-4.984,11.13-11.13s-4.983-11.13-11.13-11.13h-0.243c-6.147,0-11.13,4.984-11.13,11.13  S263.522,422.957,269.669,422.957z"
     id="path21" /><g
     id="g23" /><g
     id="g25" /><g
     id="g27" /><g
     id="g29" /><g
     id="g31" /><g
     id="g33" /><g
     id="g35" /><g
     id="g37" /><g
     id="g39" /><g
     id="g41" /><g
     id="g43" /><g
     id="g45" /><g
     id="g47" /><g
     id="g49" /><g
     id="g51" /></svg>