<?xml version="1.0" encoding="UTF-8" standalone="no"?>
<!-- Generator: Adobe Illustrator 19.0.0, SVG Export Plug-In . SVG Version: 6.00 Build 0)  -->

<svg
   xmlns:dc="http://purl.org/dc/elements/1.1/"
   xmlns:cc="http://creativecommons.org/ns#"
   xmlns:rdf="http://www.w3.org/1999/02/22-rdf-syntax-ns#"
   xmlns:svg="http://www.w3.org/2000/svg"
   xmlns="http://www.w3.org/2000/svg"
   xmlns:sodipodi="http://sodipodi.sourceforge.net/DTD/sodipodi-0.dtd"
   xmlns:inkscape="http://www.inkscape.org/namespaces/inkscape"
   version="1.1"
   id="Layer_1"
   x="0px"
   y="0px"
   viewBox="0 0 512.002 512.002"
   style="enable-background:new 0 0 512.002 512.002;"
   xml:space="preserve"
   inkscape:version="0.91 r13725"
   sodipodi:docname="icon_butterfly.svg"
   inkscape:export-filename="C:\Users\Mike\OneDrive\Projects\RaspPI\Source\Android\cancam-android\app\src\main\res\drawable\ic_icon_butterfly.png"
   inkscape:export-xdpi="35.16"
   inkscape:export-ydpi="35.16"><metadata
     id="metadata107"><rdf:RDF><cc:Work
         rdf:about=""><dc:format>image/svg+xml</dc:format><dc:type
           rdf:resource="http://purl.org/dc/dcmitype/StillImage" /></cc:Work></rdf:RDF></metadata><defs
     id="defs105" /><sodipodi:namedview
     pagecolor="#ffffff"
     bordercolor="#666666"
     borderopacity="1"
     objecttolerance="10"
     gridtolerance="10"
     guidetolerance="10"
     inkscape:pageopacity="0"
     inkscape:pageshadow="2"
     inkscape:window-width="1920"
     inkscape:window-height="1017"
     id="namedview103"
     showgrid="false"
     inkscape:zoom="0.46093569"
     inkscape:cx="256.00101"
     inkscape:cy="256.00101"
     inkscape:window-x="1912"
     inkscape:window-y="-8"
     inkscape:window-maximized="1"
     inkscape:current-layer="Layer_1" /><path
     style="fill:#91E0E6;"
     d="M503.232,119.922V79.898H387.665c-64.378,0-116.568,52.189-116.568,116.568v115.567h115.567  c64.378,0,116.568-52.189,116.568-116.568v-11.504"
     id="path3" /><path
     style="fill:#FF8632;"
     d="M256,111.917L256,111.917c-8.842,0-16.009,7.167-16.009,16.009v288.168  c0,8.842,7.167,16.009,16.009,16.009l0,0c8.842,0,16.009-7.167,16.009-16.009V127.926C272.009,119.084,264.842,111.917,256,111.917z  "
     id="path5" /><path
     style="fill:#FF5B00;"
     d="M256,111.917c-2.931,0-5.642,0.845-8.005,2.22c4.765,2.773,8.005,7.877,8.005,13.789v288.168  c0,5.91-3.24,11.015-8.005,13.789c2.363,1.375,5.074,2.22,8.005,2.22c8.842,0,16.009-7.167,16.009-16.009V127.926  C272.009,119.084,264.842,111.917,256,111.917z"
     id="path7" /><path
     style="fill:#00CDAB;"
     d="M47.879,504.146L47.879,504.146c106.101,0,192.112-86.011,192.112-192.112l0,0l0,0  C133.89,312.034,47.879,398.045,47.879,504.146L47.879,504.146z"
     id="path9" /><path
     style="fill:#00AA7C;"
     d="M207.903,314.753c-1.309,93.938-70.008,171.541-159.955,186.673  c-0.013,0.909-0.069,1.807-0.069,2.719l0,0c106.101,0,192.112-86.012,192.112-192.112  C229.052,312.034,218.342,312.996,207.903,314.753z"
     id="path11" /><path
     style="fill:#00CDAB;"
     d="M464.121,504.146L464.121,504.146c-106.101,0-192.112-86.011-192.112-192.112l0,0l0,0  C378.11,312.034,464.121,398.045,464.121,504.146L464.121,504.146z"
     id="path13" /><path
     style="fill:#00AA7C;"
     d="M304.097,314.753c-10.439-1.756-21.149-2.719-32.088-2.719c0,106.101,86.012,192.112,192.112,192.112  l0,0c0-0.911-0.057-1.81-0.069-2.719C374.105,486.294,305.406,408.691,304.097,314.753z"
     id="path15" /><path
     style="fill:#00B5C0;"
     d="M472.126,79.898v8.005v64.039v11.504c0,64.378-52.189,116.568-116.568,116.568h-83.549v32.018  h115.567c64.378,0,116.568-52.19,116.568-116.568v-11.504v-64.039V79.898H472.126z"
     id="path17" /><path
     style="fill:#91E0E6;"
     d="M7.855,119.922V79.898h115.567c64.378,0,116.568,52.189,116.568,116.568v115.567H124.424  c-64.379,0-116.568-52.19-116.568-116.568v-11.504"
     id="path19" /><path
     style="fill:#00B5C0;"
     d="M39.874,79.898v8.005v64.039v11.504c0,64.378,52.189,116.568,116.568,116.568h83.549v32.018H124.424  c-64.379,0-116.568-52.19-116.568-116.568v-11.504v-64.039V79.898H39.874z"
     id="path21" /><path
     style="fill:#FFCF7B;"
     d="M127.925,424.098L127.925,424.098c32.444,0,62.989-8.074,89.791-22.275  c14.199-26.802,22.275-57.347,22.275-89.791c-32.444,0-62.99,8.075-89.791,22.275C136,361.11,127.925,391.655,127.925,424.098z"
     id="path23" /><path
     style="fill:#FFAF02;"
     d="M223.162,312.853c-2.283,26.17-9.742,50.851-21.456,72.963  c-22.11,11.714-46.793,19.172-72.963,21.456c-0.484,5.553-0.819,11.148-0.819,16.827l0,0c32.444,0,62.989-8.075,89.791-22.275  c14.199-26.802,22.275-57.347,22.275-89.791C234.312,312.034,228.716,312.368,223.162,312.853z"
     id="path25" /><g
     id="g27"><path
       style="fill:#FFCF7B;"
       d="M384.075,424.098L384.075,424.098c-32.444,0-62.988-8.074-89.791-22.275   c-14.199-26.802-22.275-57.347-22.275-89.791c32.444,0,62.99,8.075,89.791,22.275C376,361.11,384.075,391.655,384.075,424.098z"
       id="path29" /><circle
       style="fill:#FFCF7B;"
       cx="79.894"
       cy="151.945"
       r="40.02"
       id="circle31" /><circle
       style="fill:#FFCF7B;"
       cx="432.108"
       cy="151.945"
       r="40.02"
       id="circle33" /><circle
       style="fill:#FFCF7B;"
       cx="167.948"
       cy="239.988"
       r="24.014"
       id="circle35" /></g><g
     id="g37"><path
       style="fill:#FFAF02;"
       d="M63.888,151.941c0-17.891,11.82-32.863,28.016-37.987c-3.814-1.207-7.795-2.036-12.007-2.036   c-22.104,0-40.024,17.92-40.024,40.024s17.919,40.024,40.024,40.024c4.213,0,8.194-0.831,12.007-2.036   C75.708,184.803,63.888,169.832,63.888,151.941z"
       id="path39" /><path
       style="fill:#FFAF02;"
       d="M167.949,239.992c0-8.866,4.859-16.523,12.007-20.684c-3.544-2.062-7.61-3.331-12.007-3.331   c-13.263,0-24.014,10.751-24.014,24.014c0,13.263,10.751,24.014,24.014,24.014c4.397,0,8.463-1.267,12.007-3.331   C172.808,256.515,167.949,248.858,167.949,239.992z"
       id="path41" /><path
       style="fill:#FFAF02;"
       d="M448.112,151.941c0-17.891-11.82-32.863-28.016-37.987c3.814-1.207,7.795-2.036,12.007-2.036   c22.104,0,40.024,17.92,40.024,40.024s-17.919,40.024-40.024,40.024c-4.213,0-8.194-0.831-12.007-2.036   C436.292,184.803,448.112,169.832,448.112,151.941z"
       id="path43" /></g><circle
     style="fill:#FFCF7B;"
     cx="344.054"
     cy="239.988"
     r="24.014"
     id="circle45" /><path
     style="fill:#FFAF02;"
     d="M288.838,312.853c2.283,26.17,9.742,50.851,21.456,72.963c22.11,11.714,46.793,19.172,72.963,21.456  c0.484,5.553,0.819,11.148,0.819,16.827l0,0c-32.444,0-62.988-8.075-89.791-22.275c-14.199-26.802-22.275-57.347-22.275-89.791  C277.688,312.034,283.284,312.368,288.838,312.853z"
     id="path47" /><rect
     x="496.291"
     y="135.93"
     width="15.711"
     height="32.013"
     id="rect49" /><rect
     y="135.93"
     width="15.711"
     height="32.013"
     id="rect51" /><path
     d="M512,119.922V72.043H388.578c-46.678,0-87.426,25.841-108.712,63.965v-8.082c0-13.159-10.705-23.865-23.865-23.865  s-23.865,10.705-23.865,23.865v8.082c-21.286-38.124-62.035-63.965-108.712-63.965H0v47.879h15.711V87.754h107.712  c59.944,0,108.712,48.768,108.712,108.713v107.712H124.423c-59.944,0-108.712-48.768-108.712-108.713v-11.504H0v11.504  c0,68.608,55.816,124.424,124.423,124.424h37.875c-0.886,0.375-1.762,0.768-2.641,1.155c-4.45,1.951-8.839,4.046-13.135,6.322  l-2.134,1.13l-0.042,0.08C82.24,362.545,40.024,428.506,40.024,504.146v7.855h7.855c75.64,0,141.601-42.217,175.569-104.323  l0.079-0.042l1.13-2.134c2.25-4.247,4.323-8.584,6.256-12.982c0.411-0.93,0.825-1.857,1.222-2.794v26.369  c0,13.159,10.705,23.865,23.865,23.865c13.159,0,23.865-10.705,23.865-23.865v-26.369c0.397,0.937,0.812,1.864,1.222,2.794  c1.932,4.398,4.005,8.735,6.256,12.982l1.13,2.134l0.079,0.042c33.969,62.107,99.93,104.323,175.569,104.323h7.855v-7.855  c0-75.639-42.217-141.6-104.322-175.569l-0.042-0.08l-2.134-1.13c-4.296-2.276-8.685-4.371-13.135-6.322  c-0.88-0.388-1.755-0.78-2.642-1.155h37.875c68.607,0,124.423-55.816,124.423-124.424v-11.504h-15.711v11.504  c0,59.945-48.768,108.713-108.712,108.713H279.865V196.467c0-59.945,48.768-108.713,108.712-108.713h107.712v32.168H512z   M338.306,332.234c0.978,0.377,1.951,0.77,2.923,1.164c0.606,0.247,1.216,0.488,1.819,0.741c0.371,0.155,0.738,0.319,1.109,0.477  c4.025,1.72,7.975,3.58,11.847,5.572c12.013,23.452,18.878,49.482,20.038,75.881c-26.398-1.16-52.43-8.024-75.882-20.038  c-1.969-3.827-3.808-7.731-5.51-11.707c-0.182-0.427-0.371-0.852-0.55-1.279c-0.239-0.569-0.465-1.144-0.699-1.715  c-0.408-1.009-0.816-2.016-1.207-3.032c-0.104-0.267-0.204-0.536-0.306-0.804c-6.956-18.33-10.984-37.775-11.848-57.425  c19.633,0.863,39.062,4.886,57.379,11.831C337.716,332.01,338.012,332.12,338.306,332.234z M219.804,378.295  c-0.391,1.015-0.798,2.024-1.207,3.032c-0.233,0.572-0.46,1.146-0.699,1.715c-0.179,0.429-0.369,0.855-0.551,1.283  c-1.702,3.975-3.541,7.877-5.509,11.703c-23.452,12.015-49.484,18.878-75.882,20.038c1.162-26.397,8.024-52.429,20.039-75.881  c3.873-1.992,7.824-3.852,11.849-5.572c0.37-0.157,0.736-0.32,1.107-0.476c0.603-0.253,1.213-0.494,1.819-0.74  c0.972-0.394,1.944-0.787,2.923-1.164c0.294-0.114,0.591-0.224,0.886-0.337c18.317-6.945,37.746-10.968,57.38-11.831  c-0.864,19.65-4.893,39.095-11.849,57.425C220.008,377.759,219.907,378.027,219.804,378.295z M55.906,496.117  c2.512-58.254,32.205-109.581,76.682-141.599c-8.221,22.185-12.518,45.827-12.518,69.58v7.855h7.855  c23.753,0,47.395-4.298,69.58-12.519C165.488,463.913,114.161,493.607,55.906,496.117z M264.154,416.094  c0,4.496-3.659,8.154-8.154,8.154c-4.495,0-8.154-3.657-8.154-8.154v-96.205v-7.855v-7.855V196.467v-68.54  c0-4.496,3.659-8.154,8.154-8.154c4.495,0,8.154,3.657,8.154,8.154v68.54v107.712v7.855v7.855V416.094z M456.093,496.117  c-58.254-2.512-109.581-32.206-141.599-76.683c22.186,8.221,45.828,12.519,69.58,12.518h7.855v-7.855  c0-23.751-4.298-47.394-12.518-69.58C423.888,386.536,453.582,437.863,456.093,496.117z"
     id="path53" /><path
     d="M279.865,87.903h-15.711V63.889c0-21.987,17.887-39.874,39.874-39.874v15.711c-13.324,0-24.163,10.839-24.163,24.163V87.903  z"
     id="path55" /><rect
     x="320.038"
     y="24.015"
     style="fill:#FF8632;"
     width="16.009"
     height="15.711"
     id="rect57" /><path
     d="M247.846,55.883h-15.711V47.88c0-17.737-14.43-32.168-32.167-32.168V0.001c26.4,0,47.878,21.479,47.878,47.879V55.883z"
     id="path59" /><rect
     x="232.131"
     y="71.893"
     style="fill:#FF8632;"
     width="15.711"
     height="16.01"
     id="rect61" /><path
     d="M79.897,199.819c-26.4,0-47.878-21.479-47.878-47.879s21.478-47.879,47.878-47.879s47.879,21.479,47.879,47.879  S106.298,199.819,79.897,199.819z M79.897,119.772c-17.737,0-32.167,14.431-32.167,32.168s14.43,32.168,32.167,32.168  s32.168-14.431,32.168-32.168S97.635,119.772,79.897,119.772z"
     id="path63" /><path
     d="M432.103,199.819c-26.4,0-47.879-21.479-47.879-47.879s21.479-47.879,47.879-47.879s47.878,21.479,47.878,47.879  S458.503,199.819,432.103,199.819z M432.103,119.772c-17.737,0-32.168,14.431-32.168,32.168s14.431,32.168,32.168,32.168  c17.737,0,32.167-14.431,32.167-32.168S449.84,119.772,432.103,119.772z"
     id="path65" /><path
     style="fill:#FFAF02;"
     d="M344.051,239.992c0-8.866-4.859-16.523-12.007-20.684c3.544-2.062,7.61-3.331,12.007-3.331  c13.263,0,24.014,10.751,24.014,24.014c0,13.263-10.751,24.014-24.014,24.014c-4.397,0-8.463-1.267-12.007-3.331  C339.192,256.515,344.051,248.858,344.051,239.992z"
     id="path67" /><path
     d="M167.949,271.862c-17.573,0-31.87-14.297-31.87-31.87c0-17.573,14.297-31.87,31.87-31.87s31.87,14.297,31.87,31.87  C199.818,257.565,185.522,271.862,167.949,271.862z M167.949,223.833c-8.91,0-16.159,7.249-16.159,16.159  s7.249,16.159,16.159,16.159s16.159-7.249,16.159-16.159S176.859,223.833,167.949,223.833z"
     id="path69" /><path
     d="M344.051,271.862c-17.573,0-31.87-14.297-31.87-31.87c0-17.573,14.297-31.87,31.87-31.87c17.573,0,31.87,14.297,31.87,31.87  C375.921,257.565,361.624,271.862,344.051,271.862z M344.051,223.833c-8.91,0-16.159,7.249-16.159,16.159  s7.249,16.159,16.159,16.159s16.159-7.249,16.159-16.159S352.961,223.833,344.051,223.833z"
     id="path71" /><g
     id="g73" /><g
     id="g75" /><g
     id="g77" /><g
     id="g79" /><g
     id="g81" /><g
     id="g83" /><g
     id="g85" /><g
     id="g87" /><g
     id="g89" /><g
     id="g91" /><g
     id="g93" /><g
     id="g95" /><g
     id="g97" /><g
     id="g99" /><g
     id="g101" /></svg>