<?xml version="1.0" encoding="iso-8859-1"?>
<!-- Generator: Adobe Illustrator 19.0.0, SVG Export Plug-In . SVG Version: 6.00 Build 0)  -->
<svg version="1.1" id="Layer_1" xmlns="http://www.w3.org/2000/svg" xmlns:xlink="http://www.w3.org/1999/xlink" x="0px" y="0px"
	 viewBox="0 0 512.009 512.009" style="enable-background:new 0 0 512.009 512.009;" xml:space="preserve">
<g>
	<path style="fill:#FC6E51;" d="M478.999,119.992l-75-61l-59-21.672l-51-11.328h-49h-54.5l-86.5,29l-59,43l-26,59.312v65.688
		l20,54.352l70,74.656h295l51-48l35-48.008c0,0,11-53,12-60S478.999,119.992,478.999,119.992z"/>
	<path style="fill:#FC6E51;" d="M444.671,412.656l-102.672,8L239.843,424l-226.5-14.688l30,64.688
		c0,0,104.656,13.312,106.656,13.312s182.671,0,182.671,0l116-8.656l18.672-8l26-65.344L444.671,412.656z"/>
</g>
<polygon style="fill:#FFCE54;" points="463.671,378.313 368.999,351.313 311.327,350 181,345.313 140.328,355 81.328,364.656 
	25,393.313 23,408 129,418.656 236.39,423.781 339.687,420.75 462.343,410 488.327,399.656 "/>
<path style="fill:#F5F7FA;" d="M317.999,317.75c0,35.188-28.547,63.75-63.75,63.75s-63.75-28.562-63.75-63.75
	c0-35.219,28.547-63.758,63.75-63.758S317.999,282.531,317.999,317.75z"/>
<g>
	<path style="fill:#080808;" d="M508.843,397.75L508.843,397.75c0,0,0,0-0.031,0c0-0.031,0-0.031-0.031-0.031
		c-1.125-1.094-19.328-18.156-58.25-34.25c-11.562-4.781-23.891-9.062-36.891-12.844c23.172-18.594,42.453-36.969,57.516-54.844
		C498.265,263.664,512,232.773,512,203.992c0-29.719-7.219-57.406-21.438-82.312c-13.406-23.422-32.719-43.906-57.406-60.891
		c-18.75-12.891-40.25-23.453-63.75-31.516c-0.219-0.078-0.438-0.156-0.656-0.219C334.719,17.46,296.5,11.148,256.391,10.71
		c-0.125-0.016-0.25-0.031-0.391-0.031c-0.094,0-0.188,0.016-0.266,0.016c-1.297-0.016-2.594-0.031-3.891-0.031
		c-34.516,0-67.281,4.297-97.406,12.797C124.031,32.023,97.14,44.617,74.515,60.93c-10.938,7.875-20.734,16.531-29.391,25.906
		c-0.125,0.141-0.25,0.281-0.375,0.406c-9.781,10.672-18.062,22.25-24.734,34.688C6.75,146.664,0,174.274,0,203.992
		c0,28.781,13.75,59.672,40.859,91.789c15.062,17.875,34.328,36.25,57.516,54.844c-13,3.781-25.328,8.062-36.906,12.844
		c-38.859,16.062-57.062,33.094-58.25,34.219c0,0.031-0.016,0.031-0.031,0.062H3.156l0,0c-0.156,0.188-0.344,0.375-0.5,0.562
		c-2.828,3.219-3.453,7.812-1.578,11.688l32,66c0.922,1.875,2.359,3.438,4.141,4.5c3.594,2.156,40.25,20.844,218.781,20.844
		c178.562,0,215.187-18.688,218.781-20.844c1.812-1.062,3.25-2.625,4.156-4.5l32-66c1.876-3.875,1.251-8.469-1.578-11.688
		C509.187,398.125,509.03,397.938,508.843,397.75z M387.546,343.969c-4.906-1.125-9.891-2.156-14.953-3.094
		c-0.656-0.125-1.312-0.25-1.969-0.375l116.5-113.602C476.624,262.149,442.765,302.031,387.546,343.969z M490.343,193.961
		l-145.969,142.32c-4.953-0.656-9.969-1.25-15.047-1.812l130.484-220.336C478.093,137.336,488.468,164.274,490.343,193.961z
		 M372.655,53.149c17.688,6.859,33.969,15.297,48.406,25.219c8.703,5.984,16.609,12.406,23.719,19.25L326.937,296.656
		c-3.094-9.375-7.984-17.906-14.266-25.227L372.655,53.149z M256,266.664c29.406,0,53.343,23.93,53.343,53.336
		S285.405,373.344,256,373.344c-29.406,0-53.328-23.938-53.328-53.344S226.593,266.664,256,266.664z M352.437,46.211L294.734,256.18
		c-8.422-5.125-17.906-8.625-28.062-10.078V32.305C297.046,33.461,326.015,38.211,352.437,46.211z M245.343,32.055v214.047
		c-10.156,1.453-19.656,4.953-28.062,10.078L159.062,44.367C185.531,36.805,214.671,32.586,245.343,32.055z M86.984,78.242
		c15.141-10.906,32.578-20.031,51.797-27.188l60.562,220.375c-6.281,7.32-11.172,15.852-14.25,25.227L66.156,95.789
		C72.453,89.555,79.406,83.711,86.984,78.242z M51.312,112.617l131.375,221.852c-5.078,0.562-10.094,1.156-15.062,1.812
		L21.64,193.945C23.437,163.492,33.531,136.055,51.312,112.617z M24.875,226.899l116.516,113.602
		c-0.656,0.125-1.328,0.25-1.984,0.375c-5.047,0.938-10.031,1.969-14.938,3.094C69.25,302.031,35.406,262.164,24.875,226.899z
		 M190.125,355.125c12.594,23.531,37.406,39.531,65.875,39.531c28.468,0,53.265-16,65.859-39.5
		c54.797,5.5,93.797,17.156,118.969,27.406c15.391,6.25,27.109,12.531,35.578,17.75C444.968,406.468,376.718,416,256,416
		c-120.297,0-188.812-9.594-220.391-15.75C58.984,385.875,107.406,363.344,190.125,355.125z M461.483,463.094
		c-4.547,1.625-15.484,4.875-37.234,8.062c-40.156,5.875-96.75,8.844-168.25,8.844c-71.469,0-128.078-2.969-168.219-8.844
		c-21.766-3.188-32.688-6.438-37.25-8.062L30.124,421c32.438,6.469,102.094,16.344,225.875,16.344
		c123.796,0,193.437-9.875,225.906-16.344L461.483,463.094z"/>
	<path style="fill:#080808;" d="M234.671,320c0-9.094,3.016-14.938,9.453-18.344c5.531-2.938,11.5-3,11.562-3h-0.094l0,0
		c0.031,0,0.062,0,0.094,0c5.89,0,10.656-4.75,10.656-10.656c0-5.812-4.656-10.531-10.437-10.656l0,0
		c-1.875-0.031-18.719,0.094-30.953,12.156c-7.703,7.594-11.609,17.844-11.609,30.5c0,5.906,4.781,10.656,10.656,10.656
		C229.906,330.656,234.671,325.906,234.671,320z"/>
</g>
<g>
</g>
<g>
</g>
<g>
</g>
<g>
</g>
<g>
</g>
<g>
</g>
<g>
</g>
<g>
</g>
<g>
</g>
<g>
</g>
<g>
</g>
<g>
</g>
<g>
</g>
<g>
</g>
<g>
</g>
</svg>
