<?xml version="1.0" encoding="iso-8859-1"?>
<!-- Generator: Adobe Illustrator 19.0.0, SVG Export Plug-In . SVG Version: 6.00 Build 0)  -->
<svg version="1.1" id="Capa_1" xmlns="http://www.w3.org/2000/svg" xmlns:xlink="http://www.w3.org/1999/xlink" x="0px" y="0px"
	 viewBox="0 0 512 512" style="enable-background:new 0 0 512 512;" xml:space="preserve">
<g>
	<path style="fill:#EBAF4B;" d="M7.501,312.115c0,0,32.732,35.404,84.169,22.712l36.74-152.306
		C128.411,182.52,76.64,254.248,7.501,312.115z"/>
	<path style="fill:#EBAF4B;" d="M504.501,312.115c0,0-32.732,35.404-84.169,22.712l-36.74-152.306
		C383.591,182.52,435.362,254.248,504.501,312.115z"/>
</g>
<path style="fill:#FFDC64;" d="M383.673,147.891c0.927-9.575,0.779-19.467-0.622-29.586C374.501,56.572,321.11,8.86,258.802,7.532
	C186.686,5.994,127.743,63.993,127.743,135.76c0,3.295,0.129,6.559,0.381,9.788c1.536,19.694-3.432,39.262-15.024,55.257
	C89.023,234.026,76.238,275.955,80.435,321c7.671,82.318,73.347,149.288,155.524,158.347
	c106.373,11.726,196.396-71.248,196.396-175.248c0-38.385-12.284-73.884-33.116-102.826
	C388.06,185.741,381.829,166.938,383.673,147.891z"/>
<path style="fill:#FFC850;" d="M144.564,321c-4.197-45.044,8.588-86.974,32.664-120.195c11.593-15.995,16.561-35.562,15.024-55.257
	c-0.252-3.229-0.381-6.493-0.381-9.788c0-59.681,40.813-109.711,96.016-124.028c-9.381-2.463-19.098-3.987-29.086-4.2
	C186.686,5.994,127.743,63.993,127.743,135.76c0,3.295,0.129,6.559,0.381,9.788c1.536,19.694-3.432,39.262-15.024,55.257
	C89.023,234.026,76.238,275.955,80.435,321c7.671,82.318,73.347,149.287,155.524,158.346c17.969,1.981,35.452,1.201,52.133-1.868
	C211.61,463.535,151.857,399.259,144.564,321z"/>
<path style="fill:#EB914B;" d="M296.081,175.84c0,17.709-26.799,38.477-40.081,38.477c-13.282,0-40.081-20.769-40.081-38.477
	s26.799-38.477,40.081-38.477S296.081,158.132,296.081,175.84z"/>
<g>
	<path style="fill:#5D5360;" d="M183.856,143.776L183.856,143.776c8.854,0,16.032-7.178,16.032-16.032v-8.016
		c0-8.854-7.178-16.032-16.032-16.032l0,0c-8.854,0-16.032,7.178-16.032,16.032v8.016
		C167.823,136.598,175.001,143.776,183.856,143.776z"/>
	<path style="fill:#5D5360;" d="M328.146,143.776L328.146,143.776c8.854,0,16.032-7.178,16.032-16.032v-8.016
		c0-8.854-7.178-16.032-16.032-16.032l0,0c-8.854,0-16.032,7.178-16.032,16.032v8.016
		C312.114,136.598,319.292,143.776,328.146,143.776z"/>
</g>
<path style="fill:#D2783C;" d="M296.081,175.84c0-1.586-0.281-3.198-0.682-4.816c-8.683,7.908-28.048,14.941-39.032,14.941
	c-11.24,0-31.264-7.361-39.622-15.495c-0.493,1.804-0.825,3.603-0.825,5.37c0,17.708,26.799,38.477,40.081,38.477
	C269.282,214.318,296.081,193.549,296.081,175.84z"/>
<g>
	<circle style="fill:#FFFFFF;" cx="328.15" cy="119.73" r="8.5"/>
	<circle style="fill:#FFFFFF;" cx="183.86" cy="119.73" r="8.5"/>
</g>
<path d="M256.001,129.863c-16.64,0-47.581,23.633-47.581,45.978c0,22.344,30.941,45.977,47.581,45.977
	c16.64,0,47.581-23.633,47.581-45.977C303.582,153.496,272.64,129.863,256.001,129.863z M235.953,155.575
	c7.854-6.958,16.191-10.712,20.048-10.712c3.856,0,12.193,3.754,20.048,10.712c4.177,3.7,7.489,7.666,9.66,11.424
	c-7.214,6.063-21.789,11.466-29.357,11.466c-8.404,0-23.166-6.057-29.82-11.874C228.705,162.955,231.927,159.142,235.953,155.575z
	 M276.049,196.106c-7.854,6.958-16.191,10.712-20.048,10.712c-3.857,0-12.194-3.754-20.048-10.712
	c-4.316-3.823-7.716-7.931-9.88-11.799c9.951,5.503,22.165,9.159,30.279,9.159c7.869,0,19.479-3.361,29.217-8.546
	C283.396,188.607,280.138,192.483,276.049,196.106z"/>
<path d="M183.856,96.195c-12.976,0-23.532,10.557-23.532,23.532v8.017c0,12.976,10.557,23.532,23.532,23.532
	s23.532-10.557,23.532-23.532v-8.017C207.388,106.752,196.831,96.195,183.856,96.195z M192.388,127.744
	c0,4.705-3.828,8.532-8.532,8.532s-8.532-3.828-8.532-8.532v-8.017c0-4.705,3.828-8.532,8.532-8.532s8.532,3.828,8.532,8.532
	V127.744z"/>
<path d="M328.146,96.195c-12.976,0-23.532,10.557-23.532,23.532v8.017c0,12.976,10.557,23.532,23.532,23.532
	s23.532-10.557,23.532-23.532v-8.017C351.679,106.752,341.122,96.195,328.146,96.195z M336.679,127.744
	c0,4.705-3.827,8.532-8.532,8.532s-8.532-3.828-8.532-8.532v-8.017c0-4.705,3.827-8.532,8.532-8.532s8.532,3.828,8.532,8.532
	V127.744z"/>
<path d="M509.314,306.363c-50.542-42.301-86.833-85.567-101.421-105.795c-0.593-0.867-1.184-1.735-1.792-2.594
	c-11.051-15.59-16.321-33.596-14.84-50.701c0.862-9.943,0.599-20.038-0.782-30.003C381.413,51.836,324.87,1.435,258.953,0.033
	c-36.844-0.805-71.617,12.964-97.916,38.71c-26.307,25.753-40.794,60.208-40.794,97.017c0,2.976,0.102,5.993,0.302,8.967
	c1.318,19.558-3.635,37.813-14.322,52.793c-0.426,0.597-0.838,1.202-1.256,1.803c-8.078,11.165-43.156,57.555-102.28,107.039
	c-3.116,2.608-3.588,7.223-1.066,10.408c1.007,1.271,22.324,27.544,61.238,27.543c4.278,0,8.773-0.324,13.474-1.027
	c7.318,33.49,24.138,64.723,48.573,89.612c12.78,13.018,27.331,23.975,43.069,32.602l-6.3,31.5h-33.932c-4.142,0-7.5,3.358-7.5,7.5
	s3.358,7.5,7.5,7.5h64.129c4.142,0,7.5-3.358,7.5-7.5s-3.358-7.5-7.5-7.5h-14.9l4.923-24.617
	c16.874,7.474,34.83,12.386,53.243,14.416c7.028,0.774,14.022,1.161,20.973,1.161c19.621,0,38.881-3.082,57.486-9.214
	c5.631-1.856,11.134-3.98,16.512-6.345l4.92,24.598h-14.9c-4.143,0-7.5,3.358-7.5,7.5s3.357,7.5,7.5,7.5h64.129
	c4.143,0,7.5-3.358,7.5-7.5s-3.357-7.5-7.5-7.5h-33.931l-6.288-31.436c12.359-6.747,23.927-14.928,34.594-24.484
	c29.011-25.988,48.789-60.36,56.977-97.803c4.721,0.71,9.233,1.036,13.531,1.036c38.909-0.003,60.231-26.273,61.237-27.543
	C512.903,313.586,512.43,308.971,509.314,306.363z M18.497,312.631c24.715-21.166,44.933-41.409,60.621-58.52
	c-6.13,21.737-8.289,44.641-6.151,67.585c0.212,2.276,0.476,4.544,0.775,6.806C45.747,332.539,26.966,320.105,18.497,312.631z
	 M438.222,328.495c1.08-8.043,1.634-16.192,1.634-24.397c0-2.787-0.063-5.598-0.187-8.355c-0.185-4.138-3.693-7.339-7.828-7.157
	c-4.138,0.186-7.342,3.69-7.156,7.829c0.113,2.534,0.171,5.119,0.171,7.683c0,47.942-20.495,93.798-56.23,125.811
	c-36.225,32.453-83.044,47.362-131.843,41.983c-38.019-4.191-73.949-21.771-101.172-49.5
	c-27.212-27.719-44.155-63.974-47.707-102.087c-3.789-40.653,7.054-81.164,30.531-114.071
	c12.726-17.838,18.631-39.455,17.077-62.514c-0.178-2.64-0.268-5.318-0.268-7.958c0-32.742,12.887-63.39,36.288-86.298
	c23.393-22.901,54.293-35.148,87.105-34.432c58.628,1.246,108.921,46.085,116.986,104.299c1.227,8.856,1.461,17.822,0.696,26.649
	c-1.788,20.64,4.443,42.186,17.547,60.67c12.698,17.914,21.649,37.787,26.604,59.067c0.938,4.034,4.978,6.541,9.005,5.604
	c4.034-0.939,6.544-4.971,5.604-9.005c-0.631-2.713-1.328-5.402-2.078-8.071c15.663,17.074,35.844,37.265,60.478,58.364
	C484.964,320.054,466.075,332.507,438.222,328.495z"/>
<g>
</g>
<g>
</g>
<g>
</g>
<g>
</g>
<g>
</g>
<g>
</g>
<g>
</g>
<g>
</g>
<g>
</g>
<g>
</g>
<g>
</g>
<g>
</g>
<g>
</g>
<g>
</g>
<g>
</g>
</svg>
