<?xml version="1.0" encoding="iso-8859-1"?>
<!-- Generator: Adobe Illustrator 19.0.0, SVG Export Plug-In . SVG Version: 6.00 Build 0)  -->
<svg version="1.1" id="Capa_1" xmlns="http://www.w3.org/2000/svg" xmlns:xlink="http://www.w3.org/1999/xlink" x="0px" y="0px"
	 viewBox="0 0 512.003 512.003" style="enable-background:new 0 0 512.003 512.003;" xml:space="preserve">
<g>
	<path style="fill:#EBAF4B;" d="M156.469,95.678l169.007,15.364C339.504,53.593,400.292,7.5,400.292,7.5
		S258.006,18.188,156.469,95.678z"/>
	<path style="fill:#EBAF4B;" d="M156.469,416.323l169.007-15.364c14.028,57.449,74.816,103.541,74.816,103.541
		S258.006,493.812,156.469,416.323z"/>
</g>
<path style="fill:#FFDC64;" d="M484.678,243.326l18.582-55.746c0.481-1.443-0.969-2.778-2.367-2.178l-70.354,30.152
	c-8.662,3.712-18.865-0.742-21.559-9.773c-21.756-72.927-89.643-126.135-170.069-126.135C92.352,79.645,69.212,186.992,7.502,256
	c61.71,69.008,84.85,176.355,231.409,176.355c80.425,0,148.313-53.208,170.069-126.135c2.694-9.031,12.897-13.485,21.559-9.773
	l70.354,30.152c1.398,0.599,2.848-0.735,2.367-2.178l-18.582-55.746C481.936,260.448,481.936,251.553,484.678,243.326z"/>
<path style="fill:#FFC850;" d="M109.708,146.781c0-8.08,0.421-16.059,1.131-23.955C67.314,160.343,44.21,214.938,7.503,256.001
	c61.71,69.009,84.85,176.354,231.408,176.354c33.146,0,64.088-9.149,90.623-24.88C204.739,386.221,109.708,277.632,109.708,146.781z
	"/>
<circle style="fill:#4B3F4E;" cx="83.652" cy="243.98" r="20.04"/>
<circle style="fill:#FFFFFF;" cx="87.702" cy="239.93" r="8.02"/>
<path style="fill:#00C3FF;" d="M176.899,255.954c0-64.459,6.791-123.981,18.229-172.6c-15.02,2.685-28.457,6.739-40.552,11.942
	c-17.435,45.395-27.777,100.761-27.777,160.684c0,59.946,10.353,115.328,27.8,160.733c12.097,5.202,25.535,9.254,40.557,11.938
	C183.702,380.013,176.899,320.46,176.899,255.954z"/>
<path style="fill:#00AAF0;" d="M127.115,241.247c-0.14,4.895-0.317,9.773-0.317,14.734c0,59.946,10.353,115.328,27.8,160.733
	c12.097,5.202,25.535,9.254,40.557,11.938c-7.173-30.462-12.519-65.207-15.515-102.767
	C157.143,301.471,139.197,272.814,127.115,241.247z"/>
<path style="fill:#00C3FF;" d="M225.929,256.008c0,66.909,7.702,128.166,20.451,176.039c14.857-0.615,29.222-3.029,42.914-7.059
	c-10.347-46.166-16.592-104.885-16.592-168.985c0-64.104,6.248-122.821,16.595-168.989c-13.69-4.031-28.054-6.444-42.909-7.06
	C233.636,127.831,225.929,189.089,225.929,256.008z"/>
<path style="fill:#00AAF0;" d="M246.381,432.047c14.857-0.615,29.222-3.029,42.914-7.059c-2.099-9.367-3.981-19.375-5.724-29.716
	c-17.44-6.362-34.014-14.517-49.519-24.223C237.315,393.066,241.46,413.572,246.381,432.047z"/>
<path style="fill:#00C3FF;" d="M379.117,363.817c-8.04-31.193-12.736-68.172-12.736-107.908c0-39.679,4.687-76.602,12.705-107.767
	c-10.303-13.22-22.421-24.941-36.035-34.786c-12.243,41.024-19.422,89.854-19.422,142.401c0,52.719,7.225,101.697,19.542,142.804
	C356.752,388.723,368.836,377.016,379.117,363.817z"/>
<path d="M491.794,266.303c-2.215-6.644-2.215-13.962,0-20.605l19.823-59.471c0.934-2.802,0.136-5.892-2.037-7.892
	s-5.319-2.538-8.033-1.374l-73.963,31.699c-2.281,0.978-4.88,0.934-7.13-0.12c-2.118-0.991-3.641-2.733-4.288-4.904
	c-11.104-37.218-34.438-70.693-65.707-94.26c-4.77-3.595-9.68-6.933-14.709-10.023c12.75-44.368,68.382-85.371,68.956-85.79
	c2.691-1.96,3.768-5.459,2.645-8.593s-4.175-5.152-7.501-4.957c-1.419,0.084-35.297,2.179-82.394,13.796
	C274.098,24.504,211.13,46.189,156.951,86.24c-16.074,6.298-30.799,14.724-44.318,25.339
	c-29.776,23.379-50.324,54.299-70.196,84.201c-13.173,19.821-25.615,38.544-40.528,55.222c-2.546,2.847-2.546,7.151,0,9.998
	c14.913,16.678,27.355,35.4,40.528,55.222c19.872,29.902,40.42,60.822,70.196,84.201c13.483,10.586,28.167,18.995,44.191,25.288
	c54.206,40.111,117.239,61.779,160.632,72.482c47.096,11.617,80.975,13.712,82.394,13.796c0.148,0.009,0.296,0.013,0.443,0.013
	c3.149,0,5.985-1.976,7.057-4.97c1.123-3.134,0.046-6.633-2.645-8.593c-0.576-0.42-56.193-41.347-68.956-85.79
	c5.029-3.09,9.939-6.428,14.709-10.024c31.268-23.566,54.603-57.042,65.707-94.261c0.647-2.17,2.17-3.912,4.288-4.903
	c2.25-1.056,4.848-1.098,7.129-0.12l73.963,31.699c2.714,1.164,5.859,0.624,8.033-1.374c2.173-2,2.971-5.09,2.037-7.892
	L491.794,266.303z M320.72,28.453c22.102-5.466,41.418-8.787,55.531-10.764c-18.222,16.527-43.924,43.915-53.879,74.185
	c-25.671-12.973-54.018-19.729-83.461-19.729c-12.664,0-24.721,0.793-36.212,2.384C244.827,50.756,288.39,36.449,320.72,28.453z
	 M200.39,421.949c-11.006-46.613-17.05-105.32-17.05-165.948c0-38.896,2.391-76.316,7.106-111.225
	c0.554-4.104-2.324-7.882-6.429-8.437c-4.108-0.552-7.882,2.324-8.436,6.429c-4.805,35.571-7.241,73.668-7.241,113.232
	c0,58.889,5.629,116.111,15.921,162.678c-7.792-1.926-15.265-4.309-22.436-7.15c-17.382-45.1-26.581-98.788-26.581-155.528
	c0-56.709,9.196-110.421,26.575-155.525c7.175-2.843,14.652-5.227,22.449-7.154c-1.223,5.527-2.393,11.199-3.483,17.005
	c-0.764,4.071,1.917,7.991,5.988,8.755c0.468,0.088,0.933,0.13,1.392,0.13c3.537,0,6.686-2.514,7.363-6.117
	c1.495-7.962,3.134-15.677,4.873-23.043c11.266-1.804,23.153-2.758,35.695-2.883C224.914,134.801,218.775,194.479,218.775,256
	c0,61.508,6.138,121.204,17.319,168.833C223.549,424.708,211.659,423.754,200.39,421.949z M251.416,424.401
	C240.038,377.404,233.775,317.7,233.775,256c0-61.712,6.262-121.398,17.641-168.401c9.836,0.704,19.506,2.233,28.935,4.574
	c-9.776,46.018-15.149,104.011-15.149,163.821c0,59.804,5.376,117.817,15.153,163.832
	C270.925,422.168,261.254,423.698,251.416,424.401z M54.932,307.918C43.26,290.354,31.226,272.246,17.445,256
	c13.781-16.246,25.815-34.354,37.487-51.918c19.216-28.916,39.086-58.815,66.966-80.706c6.563-5.153,13.453-9.74,20.682-13.779
	c-14.642,43.605-22.337,93.814-22.337,146.404c0,52.612,7.691,102.804,22.332,146.401c-7.228-4.039-14.116-8.625-20.678-13.777
	C94.018,366.734,74.148,336.834,54.932,307.918z M376.251,494.311c-14.114-1.977-33.429-5.298-55.531-10.764
	c-32.351-8.001-75.951-22.297-118.105-46.087c11.516,1.599,23.601,2.395,36.296,2.395c29.443,0,57.79-6.756,83.461-19.729
	C332.328,450.396,358.029,477.784,376.251,494.311z M347.532,385.812c-11.354-37.089-17.563-82.741-17.563-129.839
	c0-27.281,2.023-53.847,6.012-78.96c0.65-4.091-2.14-7.934-6.231-8.584c-4.09-0.647-7.934,2.14-8.584,6.23
	c-4.112,25.89-6.198,53.247-6.198,81.313c0,50.734,7.035,100.001,19.852,139.408c-12.515,8.542-25.95,15.293-40.042,20.167
	c-9.409-44.827-14.576-101.269-14.576-159.553c0-58.291,5.165-114.713,14.573-159.542c14.089,4.872,27.52,11.62,40.031,20.158
	c-2.618,8.051-5.021,16.567-7.156,25.399c-0.973,4.026,1.502,8.079,5.529,9.052c0.592,0.144,1.185,0.212,1.768,0.212
	c3.384,0,6.454-2.306,7.284-5.74c1.612-6.673,3.383-13.148,5.284-19.359c8.632,7.157,16.526,15.159,23.562,23.835
	c-7.642,31.291-11.686,67.857-11.686,105.942c0,38.142,4.051,74.708,11.706,106.014
	C364.061,370.647,356.166,378.652,347.532,385.812z M433.493,289.553c-6.21-2.66-13.281-2.543-19.4,0.323
	c-5.957,2.79-10.44,7.966-12.3,14.199c-4.365,14.634-10.798,28.635-18.977,41.566c-5.522-27.171-8.424-57.826-8.424-89.689
	c0-31.812,2.898-62.456,8.41-89.616c8.185,12.938,14.623,26.946,18.99,41.587c1.86,6.234,6.343,11.41,12.3,14.2
	c6.12,2.866,13.191,2.983,19.4,0.323l58.613-25.12l-14.542,43.626l0,0c-3.234,9.703-3.234,20.391,0,30.094l14.542,43.626
	L433.493,289.553z"/>
<path d="M83.655,216.436c-15.186,0-27.541,12.354-27.541,27.54c0,15.187,12.355,27.541,27.541,27.541s27.54-12.354,27.54-27.541
	C111.196,228.79,98.841,216.436,83.655,216.436z M83.655,256.517c-6.915,0-12.541-5.626-12.541-12.541s5.626-12.54,12.541-12.54
	s12.54,5.625,12.54,12.54S90.57,256.517,83.655,256.517z"/>
<g>
</g>
<g>
</g>
<g>
</g>
<g>
</g>
<g>
</g>
<g>
</g>
<g>
</g>
<g>
</g>
<g>
</g>
<g>
</g>
<g>
</g>
<g>
</g>
<g>
</g>
<g>
</g>
<g>
</g>
</svg>
