<?xml version="1.0" encoding="UTF-8" standalone="no"?>
<!-- Generator: Adobe Illustrator 19.0.0, SVG Export Plug-In . SVG Version: 6.00 Build 0)  -->

<svg
   xmlns:dc="http://purl.org/dc/elements/1.1/"
   xmlns:cc="http://creativecommons.org/ns#"
   xmlns:rdf="http://www.w3.org/1999/02/22-rdf-syntax-ns#"
   xmlns:svg="http://www.w3.org/2000/svg"
   xmlns="http://www.w3.org/2000/svg"
   xmlns:sodipodi="http://sodipodi.sourceforge.net/DTD/sodipodi-0.dtd"
   xmlns:inkscape="http://www.inkscape.org/namespaces/inkscape"
   version="1.1"
   id="Layer_1"
   x="0px"
   y="0px"
   viewBox="0 0 512 512"
   style="enable-background:new 0 0 512 512;"
   xml:space="preserve"
   inkscape:version="0.91 r13725"
   sodipodi:docname="icon_chick.svg"
   inkscape:export-filename="C:\Users\Mike\OneDrive\Projects\RaspPI\Source\Android\cancam-android\app\src\main\res\drawable\ic_icon_chick.png"
   inkscape:export-xdpi="35.16"
   inkscape:export-ydpi="35.16"><metadata
     id="metadata53"><rdf:RDF><cc:Work
         rdf:about=""><dc:format>image/svg+xml</dc:format><dc:type
           rdf:resource="http://purl.org/dc/dcmitype/StillImage" /></cc:Work></rdf:RDF></metadata><defs
     id="defs51" /><sodipodi:namedview
     pagecolor="#ffffff"
     bordercolor="#666666"
     borderopacity="1"
     objecttolerance="10"
     gridtolerance="10"
     guidetolerance="10"
     inkscape:pageopacity="0"
     inkscape:pageshadow="2"
     inkscape:window-width="1920"
     inkscape:window-height="1017"
     id="namedview49"
     showgrid="false"
     inkscape:zoom="0.4609375"
     inkscape:cx="256"
     inkscape:cy="256"
     inkscape:window-x="-8"
     inkscape:window-y="-8"
     inkscape:window-maximized="1"
     inkscape:current-layer="Layer_1" /><path
     style="fill:#FFC200;"
     d="M256,503.916L256,503.916c-110.828,0-193.327-102.36-169.784-210.658l39.096-179.843  C138.678,51.935,193.085,8.084,256,8.084l0,0c62.915,0,117.322,43.851,130.687,105.33l39.096,179.843  C449.327,401.556,366.828,503.916,256,503.916z"
     id="path3" /><path
     style="fill:#FFE44C;"
     d="M86.216,293.257l39.096-179.843c11.86-54.557,56.042-95.226,109.806-103.693  c53.764,8.468,97.946,49.138,109.806,103.693l39.096,179.843c22.038,101.376-48.846,197.545-148.904,209.423  C135.062,490.801,64.178,394.633,86.216,293.257z"
     id="path5" /><path
     style="fill:#FFECBB;"
     d="M256,503.916L256,503.916c-110.828,0-193.327-102.361-169.784-210.658l3.413-15.7h66.52  c2.859,0,5.601,1.136,7.622,3.157l42.033,42.033c4.209,4.209,11.034,4.209,15.244,0l27.33-27.33c4.209-4.209,11.034-4.209,15.244,0  l27.33,27.33c4.209,4.209,11.034,4.209,15.244,0l42.033-42.033c2.021-2.021,4.763-3.157,7.622-3.157h66.52l3.413,15.698  C449.327,401.555,366.828,503.916,256,503.916z"
     id="path7" /><path
     style="fill:#FFD5A4;"
     d="M256,503.916L256,503.916v-5.658c87.399-22.86,145.788-111.725,125.511-205.002l-3.414-15.698h44.272  l3.413,15.698C449.327,401.555,366.828,503.916,256,503.916z"
     id="path9" /><path
     style="fill:#FFF873;"
     d="M434.822,359.304L434.822,359.304c-13.964,2.688-27.844-5.036-32.919-18.32l-40.893-107.05  c-8.729-22.851,5.291-48.044,29.312-52.669c21.336-4.108,41.961,9.857,46.069,31.192l21.668,112.528  C461.119,340.879,450.715,356.244,434.822,359.304z M121.678,181.264c-21.335-4.108-41.961,9.857-46.069,31.192L53.941,324.985  c-3.06,15.894,7.344,31.259,23.237,34.319c13.964,2.688,27.844-5.036,32.919-18.32l40.893-107.05  C159.719,211.082,145.698,185.889,121.678,181.264z M266.779,115.874h-21.558c-17.86,0-32.337,14.477-32.337,32.337h86.232  C299.116,130.351,284.639,115.874,266.779,115.874z"
     id="path11" /><path
     style="fill:#FFFF84;"
     d="M267.83,148.211h-54.946c0-16.206,11.922-29.626,27.472-31.973  C255.908,118.585,267.83,132.004,267.83,148.211z M426.772,324.985l-21.667-112.528c-2.552-13.256-11.483-23.663-22.997-28.661  c-18.849,8.133-28.777,30.038-21.099,50.138l40.893,107.05c2.335,6.111,6.545,11.025,11.757,14.31  C423.547,349.036,429.118,337.169,426.772,324.985z M98.606,183.795c-11.514,4.998-20.444,15.405-22.997,28.661L53.941,324.985  c-2.347,12.185,3.226,24.051,13.113,30.308c5.212-3.285,9.422-8.198,11.757-14.309l40.893-107.05  C127.382,213.834,117.454,191.928,98.606,183.795z"
     id="path13" /><path
     style="fill:#FFA000;"
     d="M212.884,148.211h86.232c0,17.86-14.477,32.337-32.337,32.337h-21.558  C227.362,180.547,212.884,166.07,212.884,148.211z"
     id="path15" /><path
     d="M280.197,72.758v-2.156c0-4.466,3.611-8.084,8.066-8.084s8.066,3.618,8.066,8.084v2.156c0,4.466-3.611,8.084-8.066,8.084  S280.197,77.224,280.197,72.758z M223.738,80.842c4.455,0,8.066-3.618,8.066-8.084v-2.156c0-4.466-3.611-8.084-8.066-8.084  c-4.455,0-8.066,3.618-8.066,8.084v2.156C215.672,77.224,219.283,80.842,223.738,80.842z M312.459,148.211  c0,3.8-2.616,6.987-6.141,7.852c-3.656,18.544-20.006,32.569-39.564,32.569h-21.508c-19.558,0-35.908-14.024-39.564-32.569  c-3.525-0.866-6.141-4.053-6.141-7.852c0-3.8,2.616-6.987,6.141-7.852c3.656-18.544,20.006-32.569,39.564-32.569h21.508  c19.558,0,35.908,14.024,39.564,32.569C309.843,141.224,312.459,144.411,312.459,148.211z M289.569,156.295h-67.138  c3.33,9.41,12.299,16.168,22.815,16.168h21.508C277.27,172.463,286.239,165.705,289.569,156.295z M289.569,140.126  c-3.33-9.41-12.299-16.168-22.815-16.168h-21.508c-10.516,0-19.485,6.758-22.815,16.168H289.569z M435.934,367.243  c-0.77,0.149-1.537,0.272-2.306,0.371c-8.17,38.817-29.069,74.281-59.325,100.44C341.527,496.393,299.512,512,256,512  s-85.527-15.607-118.303-43.947c-30.257-26.159-51.155-61.622-59.325-100.44c-0.767-0.099-1.535-0.222-2.306-0.371  c-20.199-3.898-33.468-23.541-29.579-43.787l21.617-112.528c2.389-12.439,9.467-23.201,19.934-30.303  c5.019-3.406,10.529-5.775,16.274-7.055l13.42-61.873c6.839-31.532,24.41-60.048,49.475-80.297S223.806,0,256,0  c28.58,0,56.641,8.789,80.118,24.93V8.084c0-4.466,3.611-8.084,8.066-8.084s8.066,3.618,8.066,8.084v24.253h24.197  c4.455,0,8.066,3.618,8.066,8.084s-3.611,8.084-8.066,8.084h-13.917c15.628,17.954,26.651,39.739,31.739,63.192l13.42,61.873  c5.744,1.279,11.254,3.648,16.274,7.055c10.466,7.102,17.546,17.864,19.935,30.303l21.616,112.528  C469.402,343.702,456.133,363.345,435.934,367.243z M417.449,366.135c-10.475-3.377-19.253-11.341-23.416-22.265l-22.193-58.228  h-16.22c-0.708,0-1.401,0.288-1.9,0.789l-41.936,42.033c-7.337,7.352-19.276,7.354-26.615,0l-27.267-27.33  c-0.684-0.688-1.485-0.789-1.901-0.789c-0.416,0-1.216,0.102-1.901,0.789l-27.268,27.33c-7.338,7.354-19.276,7.352-26.615,0  l-41.935-42.033c-0.5-0.502-1.193-0.789-1.901-0.789h-16.22l-2.828,7.421l-2.41,11.112c-7.898,36.413,0.953,73.937,24.283,102.951  c23.329,29.013,58.032,45.653,95.209,45.653c4.455,0,8.066,3.618,8.066,8.084c0,4.466-3.611,8.084-8.066,8.084  c-42.082,0-81.363-18.835-107.77-51.675c-16.643-20.697-26.776-45.224-29.756-70.849c-4.491,9.611-12.695,16.604-22.336,19.713  c16.703,75.613,83.385,129.695,161.45,129.695S400.747,441.749,417.449,366.135z M449.673,326.513l-21.616-112.528  c-1.575-8.197-6.241-15.291-13.138-19.971c-6.897-4.682-15.2-6.389-23.381-4.812c-4.376,0.85-8.605-2.026-9.444-6.409  c-0.842-4.384,2.021-8.622,6.395-9.466c0.848-0.164,1.697-0.304,2.547-0.423l-12.531-57.774  C366.068,57.788,314.547,16.168,256,16.168s-110.068,41.62-122.504,98.963l-12.531,57.774c0.849,0.117,1.698,0.258,2.547,0.423  c4.374,0.844,7.237,5.082,6.395,9.466c-0.841,4.384-5.068,7.26-9.445,6.409c-8.18-1.577-16.482,0.129-23.381,4.812  c-6.896,4.681-11.563,11.774-13.137,19.971L62.326,326.513c-2.206,11.491,5.325,22.641,16.789,24.853  c1.726,0.334,3.444,0.449,5.136,0.358c0.202-0.022,0.402-0.033,0.603-0.04c7.959-0.648,15.071-5.788,18.044-13.585l40.798-107.05  c1.589-4.17,6.249-6.264,10.412-4.666c4.161,1.593,6.245,6.266,4.655,10.437l-12.443,32.654h10.059  c5.027,0,9.753,1.962,13.308,5.524l41.936,42.033c1.048,1.051,2.753,1.049,3.801,0l27.268-27.33c7.338-7.353,19.277-7.353,26.616,0  l27.267,27.33c1.046,1.049,2.751,1.051,3.801,0l41.935-42.033c3.555-3.562,8.28-5.524,13.308-5.524h10.059l-12.445-32.655  c-1.59-4.171,0.495-8.844,4.655-10.437c4.166-1.599,8.823,0.498,10.412,4.666l40.798,107.05  c2.972,7.795,10.084,12.937,18.044,13.585c0.201,0.006,0.401,0.019,0.603,0.04c1.693,0.093,3.412-0.024,5.136-0.358  C444.349,349.154,451.88,338.004,449.673,326.513z"
     id="path17" /><g
     id="g19" /><g
     id="g21" /><g
     id="g23" /><g
     id="g25" /><g
     id="g27" /><g
     id="g29" /><g
     id="g31" /><g
     id="g33" /><g
     id="g35" /><g
     id="g37" /><g
     id="g39" /><g
     id="g41" /><g
     id="g43" /><g
     id="g45" /><g
     id="g47" /></svg>