<?xml version="1.0" encoding="iso-8859-1"?>
<!-- Generator: Adobe Illustrator 19.0.0, SVG Export Plug-In . SVG Version: 6.00 Build 0)  -->
<svg version="1.1" id="Capa_1" xmlns="http://www.w3.org/2000/svg" xmlns:xlink="http://www.w3.org/1999/xlink" x="0px" y="0px"
	 viewBox="0 0 512 512" style="enable-background:new 0 0 512 512;" xml:space="preserve">
<path style="fill:#E6646E;" d="M404.696,153.268c-5.342-10.827-16.556-17.51-28.629-17.51H135.932
	c-12.073,0-23.287,6.683-28.629,17.51c-17.495,35.458-27.657,77.567-27.657,122.771c0,126.174,78.957,228.459,176.354,228.459
	S432.354,402.214,432.354,276.04C432.353,230.835,422.191,188.726,404.696,153.268z"/>
<path style="fill:#DC4655;" d="M182.812,135.758h-46.88c-12.073,0-23.287,6.683-28.629,17.51
	c-17.399,35.264-27.526,77.112-27.637,122.036c0.024,7.325,0.281,14.569,0.751,21.724c0.042,0.593,0.06,1.196,0.105,1.788
	c0.052,0.733,0.135,1.453,0.191,2.185c9.602,114.426,84.403,203.497,175.286,203.497c1.19,0,2.364-0.086,3.549-0.116
	c-60.578-27.179-105.207-119.935-105.207-230.259c0-47.171,8.179-91.109,22.257-128.109
	C178.127,141.998,180.272,138.562,182.812,135.758z"/>
<path style="fill:#5D5360;" d="M256,39.565c66.408,0,120.241,37.684,120.241,84.169c0,36.073-53.834,44.089-120.241,44.089
	s-120.241-8.016-120.241-44.089C135.759,77.249,189.593,39.565,256,39.565z"/>
<path style="fill:#4B3F4E;" d="M191.872,128.994c0-44.96,35.725-82.064,82.201-88.377c-5.91-0.625-11.913-1.052-18.072-1.052
	c-66.408,0-120.241,37.684-120.241,84.169c0,29.3,35.517,40.089,84.439,43.108C202.705,159.928,191.872,148.21,191.872,128.994z"/>
<g>
	<path style="fill:#EDEBED;" d="M324.137,95.678c13.691,0,25.056-9.817,27.526-22.789c-12.091-11.128-27.994-20.082-46.419-25.887
		c-5.596,5.129-9.163,12.43-9.163,20.619C296.08,83.117,308.642,95.678,324.137,95.678z"/>
	<path style="fill:#EDEBED;" d="M187.863,95.678c15.495,0,28.056-12.561,28.056-28.056c0-8.189-3.568-15.49-9.163-20.619
		c-18.424,5.804-34.328,14.758-46.419,25.887C162.808,85.861,174.173,95.678,187.863,95.678z"/>
</g>
<circle style="fill:#5D5360;" cx="187.859" cy="324.137" r="28.06"/>
<g>
	<path style="fill:#4B3F4E;" d="M128.691,434.041c8.228,11.124,17.303,21.18,27.114,29.972c11.36-1.919,20.034-11.737,20.034-23.644
		c0-13.282-10.767-24.048-24.048-24.048C140.714,416.321,131.483,423.851,128.691,434.041z"/>
	<circle style="fill:#4B3F4E;" cx="107.699" cy="235.958" r="20.04"/>
</g>
<g>
	<circle style="fill:#5D5360;" cx="324.138" cy="324.137" r="28.06"/>
	<path style="fill:#5D5360;" d="M383.309,434.041c-8.228,11.124-17.303,21.18-27.114,29.972
		c-11.36-1.919-20.034-11.737-20.034-23.644c0-13.282,10.767-24.048,24.048-24.048C371.286,416.321,380.517,423.851,383.309,434.041
		z"/>
	<circle style="fill:#5D5360;" cx="404.297" cy="235.958" r="20.04"/>
</g>
<path d="M507.853,305.404l-25.239-12.62c-2.309-1.154-3.954-3.262-4.514-5.78l-11.587-52.142
	c-2.411-10.85-11.857-18.427-22.972-18.427h-9.629c-4.752-23.416-12.302-45.837-22.49-66.485
	c-5.42-10.985-15.971-18.709-28.007-20.982c0.214-1.7,0.325-3.444,0.325-5.234c0-4.236-0.401-8.422-1.172-12.541h25.503
	c7.582,0,14.741-3.684,19.149-9.854l35.285-49.399c2.408-3.371,1.627-8.055-1.744-10.462c-3.37-2.407-8.054-1.626-10.462,1.744
	l-35.285,49.399c-1.599,2.237-4.194,3.573-6.943,3.573h-30.11c-6.204-14.321-17.28-27.37-32.637-38.121
	c-11.079-7.755-23.833-13.876-37.655-18.241c6.595-5.403,11.642-9.729,15.586-13.11c7.024-6.021,10.894-9.337,13.968-10.567
	c2.776-1.11,6.375-1.154,14.969-1.154c4.142,0,7.5-3.358,7.5-7.5s-3.358-7.5-7.5-7.5c-19.838,0-21.646,0.716-38.699,15.333
	c-4.765,4.084-14.671,12.395-23.996,19.91c-10.793-2.08-22.029-3.179-33.499-3.179c-11.451,0-22.668,1.095-33.443,3.168
	c-9.218-7.44-19.441-15.949-24.051-19.9c-17.052-14.617-18.86-15.333-38.699-15.333c-4.142,0-7.5,3.358-7.5,7.5s3.358,7.5,7.5,7.5
	c8.595,0,12.193,0.044,14.969,1.154c3.074,1.23,6.943,4.546,13.968,10.567c3.944,3.381,8.992,7.707,15.586,13.11
	c-13.822,4.365-26.575,10.486-37.655,18.241c-15.358,10.751-26.433,23.799-32.637,38.121h-30.11c-2.749,0-5.345-1.336-6.943-3.573
	L61.7,43.222c-2.408-3.371-7.092-4.152-10.462-1.744c-3.371,2.408-4.151,7.092-1.744,10.462l35.286,49.4
	c4.408,6.17,11.566,9.854,19.148,9.854h25.503c-0.771,4.119-1.172,8.305-1.172,12.541c0,1.792,0.112,3.535,0.324,5.234
	c-12.035,2.273-22.586,9.997-28.006,20.982c-10.188,20.648-17.738,43.07-22.49,66.485h-9.629c-11.115,0-20.561,7.578-22.972,18.427
	L33.9,287.004c-0.56,2.519-2.205,4.626-4.513,5.78l-25.239,12.62c-3.705,1.853-5.207,6.357-3.354,10.063
	c1.314,2.628,3.962,4.147,6.714,4.147c1.127,0,2.272-0.256,3.348-0.794l25.24-12.62c6.366-3.184,10.903-8.994,12.447-15.942
	l11.587-52.142c0.874-3.934,4.299-6.681,8.329-6.681h6.988c-2.183,14.615-3.3,29.542-3.3,44.604c0,25.935,3.246,51.236,9.472,75.143
	l-16.482,13.947c-5.851,4.95-8.93,12.462-8.236,20.095l7.261,79.873c0.354,3.895,3.625,6.822,7.46,6.822
	c0.228,0,0.457-0.011,0.688-0.032c4.125-0.375,7.165-4.022,6.79-8.147l-7.261-79.873c-0.251-2.768,0.865-5.491,2.986-7.286
	l11.394-9.641c9.008,27.75,22.191,53.266,39.144,75.228c34.761,45.032,81.156,69.832,130.638,69.832s95.876-24.8,130.638-69.832
	c16.953-21.962,30.136-47.478,39.144-75.228l11.395,9.641c2.121,1.795,3.237,4.519,2.986,7.286l-7.261,79.873
	c-0.375,4.125,2.665,7.772,6.79,8.147c0.231,0.021,0.46,0.032,0.688,0.032c3.835,0,7.106-2.928,7.46-6.822l7.261-79.873
	c0.694-7.633-2.385-15.145-8.235-20.095l-16.483-13.947c6.226-23.906,9.472-49.208,9.472-75.143c0-15.063-1.117-29.99-3.3-44.604
	h6.988c4.03,0,7.455,2.747,8.329,6.681l11.587,52.142c1.544,6.948,6.081,12.759,12.448,15.942l25.239,12.62
	c1.077,0.538,2.221,0.794,3.348,0.794c2.751,0,5.4-1.52,6.714-4.147C513.059,311.761,511.558,307.256,507.853,305.404z
	 M307.514,55.549c13.803,4.842,25.953,11.566,35.717,19.67c-3.065,7.746-10.555,12.959-19.094,12.959
	c-11.335,0-20.557-9.222-20.557-20.556C303.58,63.205,304.968,59.033,307.514,55.549z M208.42,67.622
	c0,11.334-9.222,20.556-20.557,20.556c-8.45,0-16.024-5.295-19.094-12.959c9.764-8.104,21.915-14.828,35.718-19.67
	C207.033,59.032,208.42,63.203,208.42,67.622z M137.098,432.77c2.796-5.398,8.421-8.949,14.693-8.949
	c9.125,0,16.548,7.424,16.548,16.549c0,6.92-4.248,12.944-10.462,15.388C150.485,448.826,143.536,441.135,137.098,432.77z
	 M170.019,466.133c8.139-5.753,13.32-15.216,13.32-25.764c0-17.396-14.152-31.549-31.548-31.549
	c-9.402,0-18.049,4.188-23.908,10.985c-25.379-38.672-40.737-88.913-40.737-143.766c0-7.021,0.278-14.005,0.781-20.941
	c5.01,5.175,12.021,8.401,19.775,8.401c15.186,0,27.54-12.354,27.54-27.541c0-15.186-12.354-27.54-27.54-27.54
	c-4.8,0-9.316,1.237-13.25,3.406c4.514-19.399,11.064-37.985,19.577-55.238c3.656-7.409,11.168-12.406,19.552-13.203
	c6.264,10.217,18.039,17.957,35.245,23.107c18.826,5.635,44.275,8.454,79.674,8.796v297.147c0,4.143,3.358,7.5,7.5,7.5
	c4.142,0,7.5-3.357,7.5-7.5V175.281c27.448-0.272,49.144-2.062,66.115-5.458c4.062-0.813,6.695-4.764,5.882-8.826
	c-0.812-4.061-4.758-6.698-8.826-5.882c-17.512,3.504-40.628,5.207-70.672,5.207c-76.917,0-112.741-11.626-112.741-36.589
	c0-13.586,5.23-26.355,14.383-37.433c6.37,10.203,17.749,16.876,30.222,16.876c19.606,0,35.557-15.95,35.557-35.556
	c0-5.829-1.39-11.414-3.998-16.412c11.476-2.684,23.78-4.145,36.579-4.145c12.798,0,25.104,1.461,36.579,4.145
	c-2.609,4.999-3.999,10.584-3.999,16.412c0,19.606,15.951,35.556,35.557,35.556c12.611,0,23.914-6.574,30.251-16.841
	c9.135,11.07,14.354,23.826,14.354,37.398c0,8.785-3.994,15.425-12.568,20.898c-3.491,2.229-4.515,6.866-2.286,10.357
	c2.229,3.492,6.868,4.516,10.357,2.286c6.186-3.949,10.896-8.597,14.146-13.895c8.395,0.789,15.921,5.789,19.581,13.206
	c8.512,17.253,15.063,35.839,19.577,55.238c-3.934-2.168-8.45-3.406-13.25-3.406c-15.186,0-27.54,12.354-27.54,27.54
	s12.354,27.541,27.54,27.541c7.754,0,14.766-3.226,19.775-8.401c0.503,6.936,0.781,13.92,0.781,20.941
	c0,54.859-15.362,105.105-40.746,143.779c-5.853-6.803-14.495-10.998-23.9-10.998c-17.396,0-31.548,14.152-31.548,31.549
	c0,10.548,5.18,20.012,13.318,25.766c-25.2,19.592-54.601,30.863-85.979,30.863C224.62,496.998,195.22,485.725,170.019,466.133z
	 M95.162,235.959c0-6.915,5.625-12.54,12.541-12.54c6.915,0,12.54,5.625,12.54,12.54c0,6.915-5.625,12.541-12.54,12.541
	C100.787,248.5,95.162,242.874,95.162,235.959z M416.837,235.959c0,6.915-5.625,12.541-12.541,12.541
	c-6.915,0-12.54-5.625-12.54-12.541c0-6.915,5.625-12.54,12.54-12.54C411.212,223.419,416.837,229.044,416.837,235.959z
	 M354.123,455.758c-6.215-2.444-10.462-8.468-10.462-15.388c0-9.125,7.423-16.549,16.548-16.549c6.272,0,11.897,3.551,14.693,8.949
	C368.464,441.135,361.516,448.826,354.123,455.758z"/>
<path d="M212.924,309.437c-3.993,1.1-6.339,5.229-5.24,9.222c0.488,1.772,0.736,3.615,0.736,5.477
	c0,11.335-9.222,20.557-20.557,20.557c-11.334,0-20.556-9.222-20.556-20.557c0-11.334,9.222-20.556,20.556-20.556
	c4.142,0,7.5-3.357,7.5-7.5s-3.358-7.5-7.5-7.5c-19.606,0-35.556,15.95-35.556,35.556c0,19.606,15.95,35.557,35.556,35.557
	s35.557-15.95,35.557-35.557c0-3.206-0.429-6.389-1.274-9.459C221.044,310.683,216.917,308.337,212.924,309.437z"/>
<path d="M359.693,324.135c0-3.209-0.429-6.392-1.274-9.46c-1.1-3.994-5.227-6.337-9.223-5.238c-3.993,1.101-6.338,5.229-5.238,9.223
	c0.488,1.771,0.735,3.613,0.735,5.476c0,11.335-9.222,20.557-20.556,20.557c-11.335,0-20.557-9.222-20.557-20.557
	c0-11.334,9.222-20.556,20.557-20.556c4.142,0,7.5-3.357,7.5-7.5s-3.358-7.5-7.5-7.5c-19.606,0-35.557,15.95-35.557,35.556
	c0,19.606,15.951,35.557,35.557,35.557C343.743,359.693,359.693,343.742,359.693,324.135z"/>
<g>
</g>
<g>
</g>
<g>
</g>
<g>
</g>
<g>
</g>
<g>
</g>
<g>
</g>
<g>
</g>
<g>
</g>
<g>
</g>
<g>
</g>
<g>
</g>
<g>
</g>
<g>
</g>
<g>
</g>
</svg>
