<?xml version="1.0" encoding="iso-8859-1"?>
<!-- Generator: Adobe Illustrator 19.0.0, SVG Export Plug-In . SVG Version: 6.00 Build 0)  -->
<svg version="1.1" id="Capa_1" xmlns="http://www.w3.org/2000/svg" xmlns:xlink="http://www.w3.org/1999/xlink" x="0px" y="0px"
	 viewBox="0 0 512 512" style="enable-background:new 0 0 512 512;" xml:space="preserve">
<g>
	<path style="fill:#DADADA;" d="M434.865,254.91c-46.31,28.628-97.228,20.45-135.502-13.493
		c17.511,15.527,29.074,38.346,35.192,61.227c24.356,9.094,55.528,20.113,71.565,23.294
		C445.167,333.68,499.115,316.212,434.865,254.91z"/>
	<path style="fill:#DADADA;" d="M206.442,247.473L206.442,247.473c2.003-2.151,4.08-4.158,6.21-6.046
		c0.002,0.003,0.005,0.006,0.008,0.009c-0.004-0.005-0.009-0.01-0.013-0.015c-0.196,0.191-61.048,59.521-135.513,13.489
		c-64.247,61.301-10.301,78.769,28.747,71.027c16.042-3.181,47.227-14.231,71.584-23.347
		C182.885,282.381,192.424,262.52,206.442,247.473z"/>
</g>
<g>
	<path style="fill:#C9C9C9;" d="M105.881,300.943c-20.972,4.158-46.234,1.038-55.18-12.234
		c-15.175,33.873,24.575,43.297,55.18,37.229c16.042-3.181,47.227-14.231,71.584-23.347c2.829-10.569,6.496-20.059,10.852-28.671
		C162.407,283.433,120.397,298.065,105.881,300.943z"/>
	<path style="fill:#C9C9C9;" d="M406.127,300.943c20.972,4.158,46.234,1.038,55.181-12.234
		c15.175,33.873-24.575,43.297-55.181,37.229c-16.042-3.181-47.227-14.231-71.584-23.347c-2.766-10.336-6.4-19.87-10.852-28.671
		C349.601,283.433,391.612,298.065,406.127,300.943z"/>
</g>
<path style="fill:#6D5248;" d="M237.914,469.757l12.636,24.214c2.298,4.405,8.602,4.405,10.901,0l12.625-24.193
	C262.439,473.531,250.12,473.699,237.914,469.757z"/>
<path style="fill:#F6B138;" d="M299.362,241.417l-86.71,0.011c-2.13,1.889-4.207,3.896-6.21,6.046l0,0
	c-47.38,50.852-45.691,153.373,0,202.416l0,0c32.139,34.499,78.849,32.907,110.205-14.215
	C353.44,379.552,347.428,284.039,299.362,241.417z"/>
<g>
	<path style="fill:#F2902F;" d="M339.659,331.264c-1.571-16.783-5.441-32.962-11.633-47.881
		c-69.479,24.858-136.746,2.554-144.04-0.014c-6.392,15.392-10.121,31.694-11.636,47.857
		C188.586,335.688,262.686,353.515,339.659,331.264z"/>
	<path style="fill:#F2902F;" d="M174.161,379.75c3.024,17.471,8.661,34.33,17.144,49.267c13.82,3.003,70.466,13.585,129.387,0.014
		c8.603-15.143,14.153-32.013,17.153-49.287C261.783,397.674,188.408,382.958,174.161,379.75z"/>
	<path style="fill:#F2902F;" d="M232.749,449.889L232.749,449.889c-45.941-49.311-47.06-151.907,0-202.416l0,0
		c2.003-2.151,4.08-4.157,6.21-6.046l60.407-0.008c-0.001-0.001-0.002-0.002-0.003-0.003l-86.71,0.011
		c-2.13,1.889-4.207,3.896-6.21,6.046l0,0c-47.38,50.852-45.691,153.373,0,202.416l0,0c16.713,17.941,38.908,27.763,62.725,22.247
		C255.712,469.025,243.309,461.225,232.749,449.889z"/>
</g>
<g>
	<path style="fill:#F47C2C;" d="M220.378,433.657c-9.227-14.709-15.473-31.613-19.01-49.114c-13.362-1.84-22.941-3.833-27.208-4.794
		c3.024,17.471,8.661,34.33,17.144,49.267C196.208,430.082,206.505,432.1,220.378,433.657z"/>
	<path style="fill:#F47C2C;" d="M198.203,336.911c0.944-15.45,4.039-31.784,9.597-47.148c-12.877-2.688-21.464-5.566-23.816-6.394
		c-6.392,15.392-10.121,31.694-11.636,47.857C176.871,332.469,185.889,334.75,198.203,336.911z"/>
</g>
<g>
	<path style="fill:#EFEFEF;" d="M502.578,160.188c-8.898-18.513-41.648-22.961-67.946-17.745
		c-31.751,6.296-126.245,42.983-126.245,43.853v0.142l0.074,0.12c6.98,11.339,6.202,36.267-9.477,54.534l-0.32,0.373l0.368,0.326
		c0.52,0.462,1.016,0.925,1.515,1.389c19.584,17.342,48.022,29.787,76.358,29.783c26.462-0.001,52.211-10.429,76.812-31.164
		C505.53,198.124,508.886,173.312,502.578,160.188z"/>
	<path style="fill:#EFEFEF;" d="M199.367,204.233c0-12.503,4.208-17.542,4.439-18.106c-27.073-10.789-97.677-37.981-126.438-43.683
		c-51.69-10.249-118.197,15.814-19.082,99.355c31.475,26.53,68.871,38.465,108.36,26.303c18.41-5.669,36.201-16.554,46.684-26.649
		C213.114,241.082,199.367,226.891,199.367,204.233z"/>
</g>
<g>
	<path style="fill:#DDDDDD;" d="M502.239,159.553c-5.25,13.96-19.039,32.703-48.526,57.556
		c-48.345,40.75-101.143,39.592-145.027,7.846c-3.834,9.736-9.891,16.325-10.024,16.508l0.368,0.326
		c0.477,0.424,0.948,0.861,1.419,1.3l0.096,0.089c19.584,17.342,48.022,29.787,76.358,29.783
		c26.462-0.001,52.211-10.429,76.812-31.164C475.943,223.063,515.735,185.474,502.239,159.553z"/>
	<path style="fill:#DDDDDD;" d="M203.327,224.979c-43.787,31.719-97.041,32.589-145.041-7.87
		C28.8,192.256,15.01,173.513,9.76,159.553c-13.496,25.921,26.298,63.51,48.526,82.245c31.475,26.53,68.871,38.465,108.36,26.303
		c18.41-5.669,36.201-16.554,46.684-26.649C212.96,240.939,207.276,234.995,203.327,224.979z"/>
</g>
<path style="fill:#7C6359;" d="M288.034,173.961H223.97c-15.148,2.957-25.102,10.59-25.102,30.272
	c0,31.555,25.58,57.135,57.134,57.135c31.555,0,57.135-25.58,57.135-57.135C313.137,184.55,303.183,176.918,288.034,173.961z"/>
<path style="fill:#6D5248;" d="M225.174,204.233c0-19.684,9.955-27.315,25.102-30.272h-26.307
	c-15.148,2.957-25.102,10.59-25.102,30.272c0,36.739,34.276,64.084,70.288,55.595C243.945,253.886,225.174,231.259,225.174,204.233z
	"/>
<path style="fill:#897067;" d="M264.023,184.381c39.245-6.065,57.204-52.428,33.052-83.417
	c-23.922-30.686-71.919-25.347-88.32,10.107C191.304,148.716,223.035,190.759,264.023,184.381z"/>
<path style="fill:#7C6359;" d="M238.66,104.574c0.701-1.076,1.556-2.302,2.581-3.616c6.891-8.838,16.624-15.475,27.915-18.401
	c-24.865-6.363-49.943,5.907-60.401,28.515c-18.258,39.385,17.339,83.301,60.401,72.243
	C269.115,183.303,219.308,134.299,238.66,104.574z"/>
<g>
	<circle style="fill:#F6B138;" cx="227.689" cy="90.39" r="14.726"/>
	<circle style="fill:#F6B138;" cx="284.306" cy="90.39" r="14.726"/>
</g>
<g>
	<path style="fill:#F2902F;" d="M235.19,77.732c-9.733-5.78-22.224,1.202-22.224,12.657c0,11.456,12.492,18.436,22.224,12.657
		C230.869,100.481,225.558,83.45,235.19,77.732z"/>
	<path style="fill:#F2902F;" d="M291.807,77.732c-9.733-5.78-22.224,1.202-22.224,12.657c0,11.456,12.492,18.436,22.224,12.657
		C282.176,97.328,282.175,83.45,291.807,77.732z"/>
</g>
<path d="M508.885,157.172c-10.536-21.921-46.016-27.451-75.615-21.578c-28.483,5.647-94.921,31.075-121.922,41.683
	c-2.56-2.632-5.654-4.832-9.292-6.604c17.25-21.021,17.75-50.343,2.791-71.789c6.173-14.895-5.222-31.394-21.529-30.679
	c12.804-32.764,37.121-53.133,72.745-53.133c4.142,0,7.498-3.356,7.498-7.498s-3.356-7.498-7.498-7.498
	c-46.665,0-78.334,30.806-90.552,74.087c-6.286-1.003-12.735-1.002-19.02,0.001c-12.167-43.098-43.669-74.088-90.552-74.088
	c-4.141,0-7.498,3.356-7.498,7.498s3.357,7.498,7.498,7.498c35.338,0,59.82,20.064,72.726,53.133
	c-16.304-0.704-27.68,15.799-21.509,30.682c-14.96,21.453-14.448,50.772,2.794,71.785c-3.668,1.786-6.782,4.007-9.356,6.668
	c-12.111-4.769-43.009-16.787-71.925-26.807c-3.91-1.354-8.184,0.717-9.54,4.63s0.717,8.185,4.63,9.541
	c27.213,9.43,56.239,20.661,69.381,25.819c-4.029,13.925-1.491,33.852,9.254,49.807c-4.292,3.388-9.332,6.803-14.543,9.801
	c-36.485,20.998-71.446,19.066-106.935-1.665c-22.164-13.781-75.691-61.069-64.284-84.798c5.415-11.265,29.03-19.343,59.183-13.365
	c3.946,0.782,8.999,2.057,15.021,3.785c3.977,1.146,8.133-1.155,9.277-5.136c1.144-3.98-1.156-8.134-5.137-9.277
	c-6.424-1.847-11.889-3.219-16.245-4.082c-29.602-5.871-65.079-0.344-75.615,21.578c-10.735,22.333,6.311,52.611,50.662,89.994
	c3.877,3.268,7.731,6.234,11.556,8.933c-22.911,23.814-30.467,43.696-22.437,59.164c10.337,19.909,42.301,22.437,64.443,18.046
	c13.802-2.736,38.179-11.021,59.777-18.886c-12.24,66.477,13.076,142.997,65.592,162.503l16.686,31.054
	c2.813,5.236,10.372,5.285,13.21,0l16.676-31.035c48.094-17.825,69.663-80.9,68.661-131.992c-0.003-0.101-0.033-1.269-0.03-1.168
	c-0.261-10.403-1.331-20.186-3.018-29.321c15.236,5.541,28.28,9.992,38.877,13.262c3.956,1.223,8.155-0.996,9.376-4.953
	c1.222-3.957-0.996-8.154-4.953-9.376c-12.444-3.842-28.393-9.365-47.441-16.431c-2.892-9.897-6.583-19.03-10.712-27.097
	c35.247,15.439,71.372,12.557,103.678-5.568c18.22,18.363,26.378,33.968,22.462,43.225c-3.477,8.216-17.806,13.264-35.633,12.583
	c-4.129-0.137-7.622,3.064-7.781,7.203c-0.16,4.138,3.064,7.622,7.203,7.781c1.354,0.053,2.688,0.078,4.005,0.078
	c23.127,0,40.182-8.013,46.017-21.803c6.446-15.237-1.408-34.483-23.332-57.281c3.898-2.743,7.755-5.715,11.563-8.924
	C502.575,209.783,519.62,179.505,508.885,157.172z M222.29,182.042c20.415,14.089,47.394,13.825,67.426,0
	c11.223,2.945,17.796,9.689,15.552,28.167c-5.742,47.755-70.839,60.646-93.441,16.628c-3.648-7.127-5.461-14.88-5.461-22.589
	C206.365,190.831,211.346,184.914,222.29,182.042z M316.728,276.786c-56.473,22.159-111.921,3.532-121.449-0.008
	c4.621-9.025,10.279-17.467,17.209-24.758c24.338,22.186,62.116,22.715,87.032-0.004
	C306.398,259.266,312.16,267.853,316.728,276.786z M189.206,290.523c5.958,2.327,33.071,12.089,68.581,12.089
	c19.799,0,42.206-3.049,65.005-12.101c3.109,8.37,4.536,14.154,4.52,14.095c2.728,10.169,3.712,17.978,3.839,18.668
	c-73.644,24.925-146.236,1.366-150.301,0.004C181.311,321.187,182.016,311.05,189.206,290.523z M286.865,97.156
	c-5.859,2.229-11.518-3.571-9.304-9.319c1.052-2.763,3.708-4.66,6.747-4.66C291.051,83.178,294.574,94.217,286.865,97.156z
	 M262.143,88.806c-1.306,17.69,17.422,28.927,32.197,21.437c17.119,28.901-2.897,65.661-36.203,67.216
	c-35.41,1.686-58.463-36.836-40.472-67.215c14.979,7.596,33.457-3.981,32.194-21.437C253.911,88.249,258.09,88.25,262.143,88.806z
	 M234.867,89.566c0.838,7.239-8.369,11.01-12.871,5.271c-0.956-1.226-1.531-2.761-1.531-4.433
	C220.464,81.424,233.819,80.546,234.867,89.566z M104.423,318.598c-21.447,4.251-43.077-0.345-48.218-10.246
	c-4.768-9.184,3.255-25.091,22.071-44.049c33.834,19.02,69.891,20.297,103.677,5.582c-4.359,8.518-7.932,17.622-10.688,27.03
	C139.457,308.741,116.389,316.225,104.423,318.598z M260.056,481.04L256,488.59l-4.057-7.551
	C254.618,481.207,257.514,481.2,260.056,481.04z M206.929,438.935c31.653,5.568,66.235,6.112,97.996,0.205
	C276.053,475.632,235.14,474.739,206.929,438.935z M316.411,421.238c-57.444,14.894-113.948,1.719-120.815,0.003l-0.034-0.066
	c-8.847-17.068-11.575-31.612-12.014-32.904c8.275,1.784,23.877,4.42,26.192,4.42c3.694,0,6.912-2.73,7.421-6.493
	c0.556-4.103-2.321-7.881-6.425-8.436c-15.929-2.155-26.939-4.764-30.151-5.57c-1.452-10.837-1.928-22.033-1.271-33.656
	c10.154,3.127,40.29,11.272,78.793,11.272c22.747,0,48.412-2.86,74.584-11.265c0.643,11.385,0.179,22.76-1.271,33.643
	c-26.518,6.866-55.613,9.741-86.502,8.547c-4.137-0.158-7.623,3.062-7.783,7.201c-0.161,4.138,3.063,7.623,7.201,7.783
	c4.752,0.185,9.463,0.277,14.135,0.277c24.597,0,48.045-2.564,69.966-7.638C328.154,389.189,325.23,403.983,316.411,421.238z
	 M309.604,240.343c10.929-16.223,13.204-36.302,9.24-49.896c22.177-8.679,89.774-34.677,117.344-40.144
	c30.151-5.978,53.767,2.101,59.182,13.365c7.081,14.733-9.98,40.987-46.81,72.031C400.903,275.867,349.461,271.986,309.604,240.343z
	"/>
<g>
</g>
<g>
</g>
<g>
</g>
<g>
</g>
<g>
</g>
<g>
</g>
<g>
</g>
<g>
</g>
<g>
</g>
<g>
</g>
<g>
</g>
<g>
</g>
<g>
</g>
<g>
</g>
<g>
</g>
</svg>
