<?xml version="1.0" encoding="iso-8859-1"?>
<!-- Generator: Adobe Illustrator 19.0.0, SVG Export Plug-In . SVG Version: 6.00 Build 0)  -->
<svg version="1.1" id="Capa_1" xmlns="http://www.w3.org/2000/svg" xmlns:xlink="http://www.w3.org/1999/xlink" x="0px" y="0px"
	 viewBox="0 0 512 512" style="enable-background:new 0 0 512 512;" xml:space="preserve">
<path style="fill:#AE8B70;" d="M448.388,480.452c0,0-22.199-40.081-22.199-88.177v-104.21c0-83.298-50.989-153.694-121.001-176.554
	l-98.754,0.125c-69.815,22.99-120.622,93.282-120.622,176.429v104.21c0,48.097-22.198,88.177-22.198,88.177
	c0.028,0,37.006-0.006,59.196-16.032l-7.4,32.065c0,0,39.471-1.708,68.445-16.032h144.29c28.884,14.118,68.445,16.032,68.445,16.032
	l-7.4-32.065C411.383,480.446,448.36,480.452,448.388,480.452z"/>
<path style="fill:#9B735A;" d="M305.188,111.511L305.188,111.511L305.188,111.511l-49.377,0.062l-49.377,0.063
	c-0.082,0.027-0.16,0.064-0.241,0.091c-3.84,1.273-7.613,2.701-11.321,4.275c-63.782,26.613-109.06,93.588-109.06,172.064v104.21
	c0,32.18-9.938,60.771-16.514,76.17c-2.406,5.632,2.132,11.756,8.215,11.046c12.797-1.495,31.788-5.314,45.296-15.071l-4.923,21.332
	c-1.243,5.383,3.166,10.396,8.656,9.779c8.403-0.945,20.622-2.795,33.264-6.239v-0.009c8.136-2.215,16.441-5.069,24.048-8.83h32.065
	V304.097h-26.272c-2.976,5.112-8.63,8.47-15.086,7.966c-8.517-0.665-14.755-8.438-14.755-16.981v-23.05
	c0-28.905,7.779-55.902,21.224-79.251c3.503-6.084,12.372-5.179,14.668,1.455C208.564,231.402,230.733,256,256.001,256
	c39.597,0,71.71-60.272,72.108-134.888C325.492,119.783,308.591,112.622,305.188,111.511z"/>
<g>
	<ellipse style="fill:#FF6E64;" cx="256" cy="119.73" rx="48.1" ry="112.23"/>
	<path style="fill:#FF6E64;" d="M304.096,368.226c0,40.081,32.036,64.129,32.036,94.523c0,21.838-16.891,41.021-38.718,41.729
		c-13.976,0.454-26.413-6.25-33.926-16.726c-1.846-2.573-4.666-3.86-7.488-3.861c-2.82,0.001-5.641,1.288-7.486,3.861
		c-7.513,10.475-19.95,17.179-33.926,16.726c-21.827-0.708-38.718-19.891-38.718-41.729c0-30.394,32.036-54.443,32.036-94.523"/>
</g>
<path style="fill:#DC5F5A;" d="M256.001,424.339c19.988,0,38.382-7.684,53.188-20.47c-3.049-8.43-5.093-25.532-5.093-35.643h-96.192
	c0,41.652-34.596,65.99-31.884,98.128c1.739,20.603,18.627,37.856,39.302,38.141c5.911,0.081,11.504-1.174,16.581-3.39
	c-9.424-6.477-15.922-21.59-15.922-38.357c0-13.006,3.807-16.845,8.166-29.287c2.627-7.498,10.331-11.906,18.137-10.426
	C246.747,423.881,251.323,424.339,256.001,424.339z"/>
<path style="fill:#E1B18C;" d="M176.129,310.1c-0.135,1.997-0.289,3.988-0.289,6.021c0,46.485,35.889,84.169,80.161,84.169
	s80.161-37.684,80.161-84.169c0-2.033-0.154-4.025-0.289-6.021c-22.784-13.904-50.27-22.035-79.872-22.035
	C226.4,288.065,198.913,296.196,176.129,310.1z"/>
<path style="fill:#F5DCB4;" d="M256.007,416.195c3.029-0.002,6.057-1.66,7.387-4.974c20.41-50.857,52.511-82.143,66.215-93.856
	c3.314-2.833,2.924-8.046-0.769-10.364c-18.644-11.697-44.381-18.942-72.839-18.937c-28.458,0-54.194,7.246-72.838,18.942
	c-3.693,2.317-4.084,7.531-0.769,10.364c13.704,11.713,45.806,42.998,66.215,93.856c1.33,3.315,4.358,4.973,7.387,4.974"/>
<path style="fill:#EBC9A0;" d="M227.522,290.625c-16.985,3.066-32.198,8.751-44.359,16.381c-3.693,2.317-4.083,7.531-0.769,10.364
	c13.704,11.713,45.806,42.998,66.215,93.856c1.33,3.314,4.358,4.972,7.387,4.974l0.01-0.005c2.99-0.001,5.966-1.632,7.321-4.863
	C250.424,356.047,237.103,315.898,227.522,290.625z"/>
<path style="fill:#DC5F5A;" d="M256.001,87.661c-5.684,0-11.083,2.159-15.982,6c0.268-34.82,7.31-65.735,18.207-85.899
	c-0.743-0.079-1.474-0.262-2.225-0.262c-26.563,0-48.097,50.245-48.097,112.226c0,34.168,6.566,64.714,16.889,85.298
	c6.33,14.137,15.56,23.842,26.066,26.269c0.114,0.028,0.226,0.067,0.34,0.093c1.577,0.34,3.174,0.566,4.802,0.566
	c22.136,0,40.081-32.301,40.081-72.145C296.082,119.962,278.137,87.661,256.001,87.661z"/>
<ellipse style="fill:#FF6E64;" cx="256" cy="175.84" rx="16.03" ry="24.05"/>
<path d="M135.759,256.516c-4.142,0-7.5,3.358-7.5,7.5v8.016c0,4.142,3.358,7.5,7.5,7.5s7.5-3.358,7.5-7.5v-8.016
	C143.259,259.874,139.901,256.516,135.759,256.516z"/>
<path d="M376.243,256.516c-4.142,0-7.5,3.358-7.5,7.5v8.016c0,4.142,3.358,7.5,7.5,7.5s7.5-3.358,7.5-7.5v-8.016
	C383.743,259.874,380.385,256.516,376.243,256.516z"/>
<path d="M454.952,476.824c-0.212-0.385-21.263-39.08-21.263-84.549v-104.21c0-41.95-12.308-81.795-35.592-115.228
	c-21.82-31.329-52.557-55.067-86.879-67.193c-1.335-25.667-6.291-49.505-14.315-68.228C286.564,13.288,272.037,0,256.001,0
	s-30.562,13.288-40.903,37.416c-8.024,18.721-12.98,42.558-14.315,68.224c-34.384,12.146-65.176,35.962-87,67.372
	c-23.205,33.397-35.471,73.182-35.471,115.053v104.21c0,45.47-21.05,84.164-21.26,84.543c-1.287,2.323-1.249,5.154,0.1,7.441
	c1.348,2.288,3.806,3.692,6.461,3.692c1.292,0,26.081-0.128,48.168-9.098l-3.68,15.944c-0.514,2.227,0.016,4.567,1.438,6.356
	c1.423,1.788,3.584,2.831,5.87,2.831c1.391,0,32.628-0.16,61.532-12.747c1.355,1.962,2.858,3.833,4.503,5.591
	c8.759,9.363,20.442,14.742,32.898,15.146c15.924,0.511,30.979-6.904,40.264-19.851c0.434-0.605,0.997-0.732,1.394-0.732
	c0.396,0,0.959,0.127,1.394,0.732C266.376,504.647,280.753,512,296.098,512c0.519,0,1.04-0.009,1.561-0.025
	c12.456-0.404,24.139-5.784,32.898-15.146c1.645-1.759,3.149-3.631,4.505-5.593c28.907,12.587,60.146,12.749,61.531,12.749
	c2.286,0,4.446-1.042,5.869-2.831c1.423-1.789,1.953-4.129,1.439-6.356l-3.68-15.944c22.087,8.97,46.876,9.098,48.168,9.098
	c2.653,0,5.107-1.405,6.457-3.689S456.234,479.147,454.952,476.824z M256.001,15c19.002,0,40.149,42.123,40.586,102.811
	c-2.292-6.32-5.1-12.115-8.393-17.145c-2.268-3.466-6.917-4.436-10.383-2.167c-3.465,2.269-4.435,6.918-2.167,10.383
	c8.222,12.558,12.937,31.119,12.937,50.925c0,16.051-2.908,29.904-7.429,40.631c-6.871,14.195-15.226,22.756-23.327,23.886
	c-0.009,0.001-0.018,0.003-0.027,0.004c-0.206,0.028-0.411,0.045-0.616,0.064c-0.394,0.032-0.789,0.061-1.182,0.061
	s-0.788-0.028-1.182-0.061c-0.205-0.019-0.41-0.036-0.616-0.064c-0.009-0.001-0.018-0.003-0.027-0.004
	c-8.101-1.129-16.456-9.69-23.327-23.886c-4.521-10.727-7.429-24.58-7.429-40.631c0-38.669,16.846-64.646,32.581-64.646
	c4.142,0,7.5-3.357,7.5-7.5c0-4.142-3.358-7.5-7.5-7.5c-17.373,0-32.289,14.84-40.586,37.52C215.882,57.063,237.013,15,256.001,15z
	 M393.583,458.339c-2.533-1.83-5.936-1.897-8.539-0.168c-2.604,1.729-3.863,4.89-3.16,7.935l5.159,22.353
	c-10.669-0.935-28.65-3.545-45.456-10.751c1.501-4.928,2.219-10.072,2.043-15.214c-0.142-4.14-3.623-7.381-7.752-7.239
	c-4.14,0.142-7.381,3.612-7.239,7.752c0.292,8.532-3.001,17.125-9.035,23.575c-6.018,6.433-13.984,10.127-22.43,10.401
	c-10.939,0.358-21.227-4.73-27.588-13.601c-3.139-4.377-8.217-6.99-13.583-6.99s-10.444,2.613-13.583,6.99
	c-6.361,8.87-16.652,13.963-27.588,13.601c-8.446-0.274-16.412-3.968-22.43-10.401c-6.034-6.45-9.327-15.043-9.035-23.576
	c0.473-13.843,7.77-28.436,16.218-45.333c3.759-7.519,7.615-15.245,11.203-23.525c8.278,5.426,17.488,9.414,27.375,11.639
	c1.196,2.685,2.362,5.427,3.488,8.233c2.36,5.881,7.994,9.681,14.352,9.681s11.992-3.8,14.352-9.681
	c1.107-2.76,2.264-5.494,3.469-8.207c9.897-2.224,19.11-6.231,27.396-11.662c3.588,8.278,7.443,16.003,11.202,23.521
	c3.231,6.463,6.284,12.568,8.869,18.467c1.233,2.814,3.985,4.492,6.873,4.492c1.005,0,2.027-0.204,3.006-0.633
	c3.794-1.663,5.521-6.086,3.859-9.88c-2.737-6.246-5.872-12.517-9.191-19.154c-4.223-8.446-8.57-17.159-12.414-26.464
	c18.68-17.658,30.241-43.705,30.241-72.387c0-2.318-1.071-4.505-2.903-5.926c-20.988-16.284-51.881-25.623-84.758-25.623
	s-63.77,9.339-84.758,25.623c-1.833,1.421-2.891,3.612-2.892,5.926h-0.011c0,28.682,11.565,54.721,30.244,72.379
	c-3.845,9.308-8.194,18.023-12.418,26.472c-8.85,17.699-17.208,34.416-17.793,51.529c-0.176,5.141,0.542,10.284,2.042,15.212
	c-16.761,7.18-34.769,9.8-45.453,10.743l5.156-22.342c0.703-3.045-0.557-6.207-3.16-7.935c-2.604-1.729-6.006-1.661-8.539,0.168
	c-12.432,8.979-30.556,12.441-42.51,13.776c6.862-15.851,17.403-45.749,17.403-79.841v-104.21
	c0-38.796,11.338-75.621,32.789-106.494c18.895-27.194,45.047-48.16,74.325-59.774c0.228,30.198,5.408,58.625,14.672,80.24
	c10.34,24.128,24.867,37.416,40.903,37.416s30.563-13.288,40.903-37.416c9.264-21.615,14.445-50.043,14.672-80.242
	c29.221,11.592,55.324,32.495,74.213,59.615c21.524,30.905,32.901,67.786,32.901,106.655v104.21
	c0,34.102,10.547,64.008,17.409,79.854C424.16,470.805,406.06,467.35,393.583,458.339z M283.19,386.982
	c7.583-13.718,16.496-26.698,26.652-38.801c2.663-3.173,2.249-7.903-0.924-10.566c-3.172-2.662-7.903-2.249-10.566,0.924
	c-17.638,21.018-31.742,44.533-41.92,69.894c-0.06,0.149-0.107,0.268-0.431,0.268s-0.371-0.118-0.431-0.268
	c-20.551-51.209-52.301-82.956-67.193-95.842c17.946-10.898,42.009-17.026,67.624-17.026c28.057,0,54.252,7.352,72.585,20.272
	C327.282,347.839,309.243,375.393,283.19,386.982z M228.754,386.94c-22.076-9.848-38.393-31.15-43.625-56.916
	C196.772,341.188,213.925,360.219,228.754,386.94z"/>
<g>
</g>
<g>
</g>
<g>
</g>
<g>
</g>
<g>
</g>
<g>
</g>
<g>
</g>
<g>
</g>
<g>
</g>
<g>
</g>
<g>
</g>
<g>
</g>
<g>
</g>
<g>
</g>
<g>
</g>
</svg>
