<?xml version="1.0" encoding="iso-8859-1"?>
<!-- Generator: Adobe Illustrator 19.0.0, SVG Export Plug-In . SVG Version: 6.00 Build 0)  -->
<svg version="1.1" id="Capa_1" xmlns="http://www.w3.org/2000/svg" xmlns:xlink="http://www.w3.org/1999/xlink" x="0px" y="0px"
	 viewBox="0 0 511.999 511.999" style="enable-background:new 0 0 511.999 511.999;" xml:space="preserve">
<path style="fill:#EBC9A0;" d="M495.895,42.212c5.889,32.518,12.638,116.528-63.886,154.79l-64.003-80.004l114.158-80.405
	C487.431,32.883,494.747,35.872,495.895,42.212z"/>
<path style="fill:#E1B18C;" d="M393.117,148.389c23.202-13.543,54.393-40.39,80.15-67.906c9.576-10.231,26.443-4.637,25.603,9.35
	c-2.227,37.071-16.54,82.009-66.861,107.17L393.117,148.389z"/>
<path style="fill:#EBC9A0;" d="M16.103,42.212C10.214,74.73,3.466,158.74,79.991,197.003l64.003-80.004L29.836,36.594
	C24.568,32.883,17.253,35.872,16.103,42.212z"/>
<path style="fill:#E1B18C;" d="M118.883,148.389c-23.202-13.543-54.393-40.39-80.15-67.906c-9.576-10.231-26.443-4.637-25.603,9.35
	c2.227,37.071,16.54,82.009,66.861,107.17L118.883,148.389z"/>
<path style="fill:#F5DCB4;" d="M255.998,68.992c119.3,0,216.011,116.772,216.011,225.202c0,86.813-88.004,174.818-216.009,166.822
	c-128.007,8-216.011-80.004-216.011-166.817C39.989,185.768,136.7,68.997,255.998,68.992z"/>
<path style="fill:#EBC9A0;" d="M368.005,357.011c0-48.603-50.148-88.004-112.006-88.004c-44.681,0-83.168,20.577-101.11,50.319
	c-5.977,9.909-21.103,7.495-24.116-3.677c-1.816-6.732-2.779-13.875-2.779-21.449c0-99.099,68.826-205.106,158.251-222.633
	c-9.889-1.651-19.976-2.574-30.247-2.574c-119.298,0.005-216.01,116.776-216.01,225.207c0,74.892,65.526,150.612,165.696,164.875
	c13.734,11.183,31.208,17.942,50.315,17.942c35.623,0,65.682-23.328,76.025-55.511C354.103,405.433,368.005,382.524,368.005,357.011
	z"/>
<circle style="fill:#E1B18C;" cx="256.003" cy="397.009" r="80.004"/>
<ellipse style="fill:#EBAF96;" cx="256.003" cy="357.007" rx="88.004" ry="64.003"/>
<path style="fill:#E19B87;" d="M284.001,405.014c-46.394,0-84.004-28.655-84.004-64.003c0-16.589,8.353-31.654,21.94-43.024
	c-31.687,9.684-53.942,32.461-53.942,59.025c0,35.348,39.401,64.003,88.004,64.003c27.777,0,52.511-9.382,68.639-24.001
	C312.592,402.098,298.749,405.014,284.001,405.014z"/>
<path style="fill:#EBC9A0;" d="M256,445.016c-0.049,0-0.099,0-0.151,0c-8.979,0.017-11.312,12.387-3.002,15.793
	c11.893,4.875,26.732,7.718,39.715,7.309c18.624-9.596,32.831-26.327,39.358-46.537C311.952,436.083,285.335,445.016,256,445.016z"
	/>
<path d="M510.112,106.84c5.151-29.506-1.407-56.437-5.775-69.864c-1.538-4.726-5.131-8.326-9.859-9.878
	c-4.692-1.54-9.895-0.741-13.916,2.14l-103.043,73.841c-10.81-7.869-22.15-14.729-33.972-20.511
	C315.409,68.805,285.954,61.825,256,61.825c-42.364,0-84.662,14.509-121.484,41.278L31.438,29.239
	c-4.019-2.881-9.221-3.68-13.916-2.14c-4.728,1.552-8.322,5.152-9.859,9.879C3.296,50.4-3.26,77.32,1.884,106.818
	c5.975,34.266,25.467,62.07,57.946,82.732c-17.94,33.698-27.776,70.332-27.776,105.432c0,79.146,68.158,148.378,165.909,168.735
	c15.721,13.873,36.231,21.953,58.038,21.953c21.81,0,42.321-8.081,58.042-21.955c97.802-20.362,165.905-89.476,165.905-168.732
	c0-35.462-9.779-71.915-27.705-105.477C484.669,168.853,504.135,141.071,510.112,106.84z M330.542,444.163
	c2.18-3.52,4.134-7.219,5.824-11.088c1.659-3.796-0.074-8.217-3.87-9.875c-3.795-1.659-8.217,0.074-9.876,3.87
	c-11.573,26.485-37.723,43.6-66.621,43.6c-28.889,0-55.037-17.107-66.613-43.582c-1.66-3.796-6.083-5.526-9.877-3.867
	c-3.795,1.659-5.526,6.081-3.867,9.876c1.688,3.861,3.639,7.553,5.816,11.068C101.338,420.8,47.053,361.643,47.053,294.983
	c0-47.894,19.771-99.028,54.244-140.29c2.656-3.179,2.232-7.908-0.947-10.565c-3.179-2.656-7.909-2.232-10.565,0.947
	c-8.334,9.977-15.852,20.51-22.509,31.429C0.824,133.716,13.263,68.249,21.927,41.619c0.026-0.079,0.065-0.199,0.274-0.268
	c0.266-0.087,0.436,0.034,0.499,0.08l99.469,71.28c-3.016,2.509-5.993,5.094-8.918,7.775c-3.053,2.799-3.26,7.543-0.461,10.597
	c2.798,3.054,7.543,3.26,10.598,0.461c38.497-35.286,85.592-54.719,132.612-54.719c27.649,0,54.887,6.465,80.955,19.217
	c24.547,12.008,46.941,28.974,66.561,50.429c18.847,20.61,34.408,44.92,44.999,70.304c10.75,25.76,16.431,52.804,16.431,78.207
	C464.945,361.742,410.7,420.81,330.542,444.163z M444.782,176.465c-8.634-14.107-18.738-27.584-30.197-40.116
	c-7.83-8.563-16.084-16.459-24.724-23.66L489.3,41.431c0.064-0.046,0.235-0.167,0.499-0.08c0.209,0.068,0.249,0.188,0.274,0.268
	C498.735,68.245,511.167,133.678,444.782,176.465z"/>
<path d="M326.706,309.549c-3.205-2.625-7.93-2.154-10.555,1.051c-2.625,3.205-2.154,7.93,1.051,10.556
	c12.561,10.286,19.479,23.343,19.479,36.767c0,31.228-36.194,56.632-80.681,56.632s-80.681-25.404-80.681-56.632
	c0-31.227,36.194-56.632,80.681-56.632c13.029,0,25.981,2.254,37.456,6.518c3.884,1.442,8.2-0.536,9.643-4.418
	c1.443-3.883-0.535-8.2-4.418-9.643c-13.316-4.948-27.676-7.457-42.681-7.457c-25.127,0-48.838,7.18-66.765,20.219
	c-18.647,13.562-28.916,31.821-28.916,51.414c0,19.594,10.27,37.853,28.916,51.415c17.927,13.038,41.638,20.218,66.765,20.218
	c25.127,0,48.839-7.18,66.765-20.218c18.647-13.563,28.916-31.821,28.916-51.415C351.682,339.915,342.812,322.736,326.706,309.549z"
	/>
<path d="M175.835,253.19c4.142,0,7.5-3.358,7.5-7.5v-8.016c0-4.142-3.358-7.5-7.5-7.5s-7.5,3.358-7.5,7.5v8.016
	C168.334,249.832,171.692,253.19,175.835,253.19z"/>
<path d="M336.165,253.19c4.142,0,7.5-3.358,7.5-7.5v-8.016c0-4.142-3.358-7.5-7.5-7.5s-7.5,3.358-7.5,7.5v8.016
	C328.664,249.832,332.023,253.19,336.165,253.19z"/>
<path d="M216.433,349.905v8.016c0,4.143,3.358,7.5,7.5,7.5s7.5-3.357,7.5-7.5v-8.016c0-4.143-3.358-7.5-7.5-7.5
	S216.433,345.762,216.433,349.905z"/>
<path d="M288.065,342.404c-4.142,0-7.5,3.357-7.5,7.5v8.016c0,4.143,3.358,7.5,7.5,7.5s7.5-3.357,7.5-7.5v-8.016
	C295.566,345.762,292.208,342.404,288.065,342.404z"/>
<g>
</g>
<g>
</g>
<g>
</g>
<g>
</g>
<g>
</g>
<g>
</g>
<g>
</g>
<g>
</g>
<g>
</g>
<g>
</g>
<g>
</g>
<g>
</g>
<g>
</g>
<g>
</g>
<g>
</g>
</svg>
