<?xml version="1.0" encoding="iso-8859-1"?>
<!-- Generator: Adobe Illustrator 19.0.0, SVG Export Plug-In . SVG Version: 6.00 Build 0)  -->
<svg version="1.1" id="Layer_1" xmlns="http://www.w3.org/2000/svg" xmlns:xlink="http://www.w3.org/1999/xlink" x="0px" y="0px"
	 viewBox="0 0 512.213 512.213" style="enable-background:new 0 0 512.213 512.213;" xml:space="preserve">
<g transform="translate(1)">
	<polygon style="fill:#FFE100;" points="425.773,153.813 84.44,153.813 255.107,8.747 	"/>
	<polygon style="fill:#FFA800;" points="255.107,8.747 255.107,25.813 400.173,153.813 425.773,153.813 	"/>
	<polygon style="fill:#FFFFFF;" points="255.107,8.747 255.107,25.813 110.04,153.813 84.44,153.813 	"/>
	<g>
		<path style="fill:#FFE100;" d="M450.52,341.547H55.427c-3.413,0-5.973-3.413-5.12-6.827l31.573-87.04h341.333l31.573,87.04
			C456.493,338.133,453.933,341.547,450.52,341.547"/>
		<path style="fill:#FFE100;" d="M450.52,247.68H55.427c-3.413,0-5.973-3.413-5.12-6.827l34.133-87.04h341.333l29.013,87.04
			C456.493,244.267,453.933,247.68,450.52,247.68"/>
		<path style="fill:#FFE100;" d="M450.52,435.413H55.427c-3.413,0-5.973-3.413-5.12-6.827l31.573-87.04h341.333l31.573,87.04
			C456.493,432,453.933,435.413,450.52,435.413"/>
	</g>
	<g>
		<path style="fill:#FFA800;" d="M457.347,428.587l-31.573-87.04h-25.6l31.573,87.04c0.853,3.413-1.707,6.827-5.12,6.827h25.6
			C455.64,435.413,458.2,432,457.347,428.587"/>
		<path style="fill:#FFA800;" d="M457.347,334.72l-31.573-87.04h-25.6l31.573,87.04c0.853,3.413-1.707,6.827-5.12,6.827h25.6
			C455.64,341.547,458.2,338.133,457.347,334.72"/>
		<path style="fill:#FFA800;" d="M457.347,240.853l-31.573-87.04h-25.6l31.573,87.04c0.853,3.413-1.707,6.827-5.12,6.827h25.6
			C455.64,247.68,458.2,244.267,457.347,240.853"/>
	</g>
	<g>
		<path style="fill:#FFFFFF;" d="M50.307,428.587l31.573-87.04h25.6l-31.573,87.04c-0.853,3.413,1.707,6.827,5.12,6.827h-25.6
			C52.013,435.413,49.453,432,50.307,428.587"/>
		<path style="fill:#FFFFFF;" d="M50.307,334.72l31.573-87.04h25.6l-31.573,87.04c-0.853,3.413,1.707,6.827,5.12,6.827h-25.6
			C52.013,341.547,49.453,338.133,50.307,334.72"/>
		<path style="fill:#FFFFFF;" d="M50.307,240.853l31.573-87.04h25.6l-31.573,87.04c-0.853,3.413,1.707,6.827,5.12,6.827h-25.6
			C52.013,247.68,49.453,244.267,50.307,240.853"/>
	</g>
	<g>
		<polygon style="fill:#FFE100;" points="101.507,503.68 135.64,503.68 135.64,435.413 101.507,435.413 		"/>
		<polygon style="fill:#FFE100;" points="374.573,503.68 408.707,503.68 408.707,435.413 374.573,435.413 		"/>
	</g>
	<polygon style="fill:#FFA800;" points="391.64,503.68 408.707,503.68 408.707,435.413 391.64,435.413 	"/>
	<polygon style="fill:#FFFFFF;" points="101.507,503.68 118.573,503.68 118.573,435.413 101.507,435.413 	"/>
	<path d="M450.52,350.08H55.427c-4.267,0-8.533-2.56-11.093-5.973c-2.56-3.413-3.413-8.533-1.707-12.8l31.573-87.04
		c0.853-2.56,4.267-5.12,7.68-5.12h341.333c3.413,0,6.827,2.56,7.68,5.973l31.573,87.04c1.707,4.267,0.853,8.533-1.707,12.8
		C459.053,347.52,454.787,350.08,450.52,350.08z M60.547,333.013H445.4l-28.16-76.8H87.853L60.547,333.013z"/>
	<path d="M450.52,256.213H55.427c-4.267,0-8.533-2.56-11.093-5.973c-2.56-3.413-3.413-8.533-1.707-12.8L76.76,150.4
		c0.853-2.56,4.267-5.12,7.68-5.12h341.333c3.413,0,6.827,2.56,7.68,5.973l29.013,87.04c1.707,4.267,0.853,8.533-1.707,12.8
		C459.053,253.653,454.787,256.213,450.52,256.213z M60.547,239.147H445.4l-25.6-76.8H90.413L60.547,239.147z"/>
	<path d="M450.52,443.947H55.427c-4.267,0-8.533-2.56-11.093-5.973c-2.56-3.413-3.413-8.533-1.707-12.8l31.573-87.04
		c0.853-2.56,4.267-5.12,7.68-5.12h341.333c3.413,0,6.827,2.56,7.68,5.973l31.573,87.04c1.707,4.267,0.853,8.533-1.707,12.8
		C459.053,441.387,454.787,443.947,450.52,443.947z M60.547,426.88H445.4l-28.16-76.8H87.853L60.547,426.88z"/>
	<path d="M135.64,512.213h-34.133c-5.12,0-8.533-3.413-8.533-8.533v-68.267c0-5.12,3.413-8.533,8.533-8.533h34.133
		c5.12,0,8.533,3.413,8.533,8.533v68.267C144.173,508.8,140.76,512.213,135.64,512.213z M110.04,495.147h17.067v-51.2H110.04
		V495.147z"/>
	<path d="M408.707,512.213h-34.133c-5.12,0-8.533-3.413-8.533-8.533v-68.267c0-5.12,3.413-8.533,8.533-8.533h34.133
		c5.12,0,8.533,3.413,8.533,8.533v68.267C417.24,508.8,413.827,512.213,408.707,512.213z M383.107,495.147h17.067v-51.2h-17.067
		V495.147z"/>
	<path d="M425.773,162.347L425.773,162.347H84.44c-3.413,0-6.827-2.56-7.68-5.973c-0.853-3.413,0-6.827,2.56-9.387L249.987,1.92
		c3.413-2.56,7.68-2.56,11.093,0l169.813,144.213c2.56,1.707,4.267,4.267,4.267,7.68
		C434.307,158.933,430.893,162.347,425.773,162.347z M107.48,145.28h295.253L255.107,19.84L107.48,145.28z"/>
	<path d="M7.64,239.147c-2.56,0-4.267-0.853-5.973-2.56c-3.413-3.413-3.413-8.533,0-11.947l76.8-76.8
		c3.413-3.413,8.533-3.413,11.947,0s3.413,8.533,0,11.947l-76.8,76.8C11.907,238.293,10.2,239.147,7.64,239.147z"/>
	<path d="M502.573,239.147c-2.56,0-4.267-0.853-5.973-2.56l-76.8-76.8c-3.413-3.413-3.413-8.533,0-11.947
		c3.413-3.413,8.533-3.413,11.947,0l76.8,76.8c3.413,3.413,3.413,8.533,0,11.947C506.84,238.293,505.133,239.147,502.573,239.147z"
		/>
</g>
<g>
</g>
<g>
</g>
<g>
</g>
<g>
</g>
<g>
</g>
<g>
</g>
<g>
</g>
<g>
</g>
<g>
</g>
<g>
</g>
<g>
</g>
<g>
</g>
<g>
</g>
<g>
</g>
<g>
</g>
</svg>
