<?xml version="1.0" encoding="iso-8859-1"?>
<!-- Generator: Adobe Illustrator 19.0.0, SVG Export Plug-In . SVG Version: 6.00 Build 0)  -->
<svg version="1.1" id="Capa_1" xmlns="http://www.w3.org/2000/svg" xmlns:xlink="http://www.w3.org/1999/xlink" x="0px" y="0px"
	 viewBox="0 0 512 512" style="enable-background:new 0 0 512 512;" xml:space="preserve">
<path style="fill:#5A6B96;" d="M256,284.963c-24.274,0-44.022-14.1-44.022-31.433s19.748-31.433,44.022-31.433
	s44.022,14.1,44.022,31.433S280.274,284.963,256,284.963z"/>
<path style="fill:#CCCCCC;" d="M318.996,382.173c-3.703,0-7.436-0.253-11.093-0.751c-21.279-2.865-40.796-14.197-53.96-31.239
	c-12.006,15.575-28.947,26.229-48.109,30.235v0.02l-1.639,0.315c-5.042,0.942-10.188,1.42-15.297,1.42
	c-8.053,0-16.001-1.164-23.619-3.458c-6.747-2.01-13.231-4.905-19.263-8.604c-14.503-8.897-25.74-21.831-32.497-37.405
	c-4.479-10.329-6.751-21.319-6.751-32.664c0-5.029,0.457-10.052,1.358-14.931c3.181-17.328,12.054-33.38,25.057-45.401
	c-19.185-26.18-29.317-57.188-29.317-89.794c0-40.041,15.85-76.448,44.63-102.515c28.03-25.388,66.21-39.37,107.504-39.37
	c41.295,0,79.473,13.982,107.504,39.369c28.78,26.068,44.63,62.474,44.63,102.515c0,33.634-10.724,65.434-31.032,92.085
	c11.462,11.466,19.189,25.84,22.389,41.683c1.085,5.365,1.635,10.868,1.635,16.36c0,10.82-2.071,21.322-6.155,31.216
	c-6.402,15.608-17.319,28.71-31.568,37.885c-5.188,3.345-10.768,6.102-16.582,8.193
	C337.899,380.546,328.537,382.173,318.996,382.173z M256,226.113c-22.06,0-40.006,12.299-40.006,27.417
	c0,15.118,17.946,27.417,40.006,27.417s40.006-12.299,40.006-27.417S278.06,226.113,256,226.113z"/>
<g>
	<path style="fill:#EFEFEF;" d="M327.158,503.969c-15.402,0-20.992-74.038-20.992-123.804v-3.033l2.279,0.311
		c3.479,0.474,7.028,0.714,10.552,0.714c9.076,0,17.981-1.547,26.466-4.599l2.669-0.96l0.018,2.836c0.01,1.569,0.01,3.14,0.01,4.73
		C348.16,429.93,342.567,503.969,327.158,503.969z"/>
	<path style="fill:#EFEFEF;" d="M184.842,503.969c-15.409,0-21.002-74.038-21.002-123.804c0-1.13,0-2.26,0.01-3.38l0.023-2.676
		l2.563,0.762c7.242,2.182,14.8,3.287,22.462,3.287c4.861,0,9.76-0.455,14.559-1.351l2.376-0.444v3.803
		C205.834,429.93,200.243,503.969,184.842,503.969z"/>
</g>
<path d="M256,60.235c22.735,0,43.681,5.779,60.57,16.711c1.686,1.091,3.577,1.612,5.445,1.612c3.291,0,6.515-1.616,8.437-4.585
	c3.013-4.654,1.683-10.869-2.973-13.882C307.334,47.05,282.616,40.157,256,40.157c-5.545,0-10.039,4.496-10.039,10.039
	S250.455,60.235,256,60.235z"/>
<path d="M256,214.066c-29.189,0-52.053,17.335-52.053,39.464s22.864,39.464,52.053,39.464c29.188,0,52.053-17.335,52.053-39.464
	S285.188,214.066,256,214.066z M256,272.916c-17.034,0-31.975-9.058-31.975-19.386c0-10.327,14.941-19.386,31.975-19.386
	s31.975,9.058,31.975,19.386S273.034,272.916,256,272.916z"/>
<path d="M405.981,276.264c-3.501-12.879-9.79-24.732-18.497-34.869c18.792-26.896,28.681-58.344,28.681-91.479
	c0-42.338-16.788-80.859-47.271-108.468C339.386,14.719,299.291,0,256,0c-43.292,0-83.386,14.719-112.895,41.448
	c-30.483,27.609-47.271,66.129-47.271,108.468c0,32.009,9.276,62.557,26.907,88.887c-10.193,11.028-17.53,24.498-21.225,38.995
	c-30.618,10.761-55.901,25.729-77.135,45.664c-4.043,3.795-4.244,10.148-0.448,14.191c1.976,2.105,4.645,3.167,7.321,3.167
	c2.464,0,4.932-0.901,6.869-2.72c16.95-15.913,36.892-28.354,60.616-37.816c0.023,8.976,1.348,17.749,3.941,26.197
	c-21.149,9.724-39.847,22.139-55.678,36.994c-4.043,3.794-4.246,10.147-0.453,14.19c1.977,2.107,4.646,3.17,7.324,3.17
	c2.462,0,4.93-0.9,6.867-2.718c14.149-13.276,30.914-24.42,49.93-33.212c4.428,7.734,9.957,14.719,16.422,20.794
	c-21.935,9.874-41.216,22.543-57.474,37.803c-4.043,3.794-4.244,10.147-0.45,14.19c1.976,2.105,4.646,3.168,7.322,3.168
	c2.463,0,4.931-0.901,6.869-2.72c17.486-16.412,38.079-29.091,62.831-38.682c3.125,1.682,6.343,3.172,9.633,4.467
	c0.148,31.628,2.143,61.3,5.668,83.904C166.384,499.204,173.148,512,184.842,512c11.689,0,18.451-12.796,23.341-44.168
	c3.421-21.948,5.406-50.551,5.654-81.138c15.317-4.382,29.107-12.711,40.12-24.222c12,12.469,27.416,21.29,44.218,25.284
	c0.285,30.185,2.26,58.384,5.641,80.077C308.707,499.204,315.469,512,327.158,512c11.693,0,18.459-12.796,23.351-44.166
	c3.588-23.017,5.594-53.364,5.674-85.641c2.454-1.111,4.859-2.329,7.2-3.655c25.809,9.682,47.198,22.664,65.257,39.609
	c1.939,1.818,4.405,2.718,6.868,2.718c2.676,0,5.347-1.064,7.324-3.169c3.793-4.044,3.591-10.397-0.452-14.191
	c-16.95-15.904-37.174-28.996-60.285-39.05c6.324-6.182,11.696-13.245,15.953-21.024c20.396,9.024,38.264,20.667,53.213,34.689
	c1.938,1.818,4.404,2.718,6.867,2.718c2.676,0,5.348-1.065,7.324-3.17c3.793-4.044,3.591-10.397-0.453-14.19
	c-16.726-15.691-36.654-28.653-59.324-38.621c2.301-8.019,3.484-16.326,3.484-24.813c0-0.452-0.027-0.904-0.034-1.356
	c25.537,9.641,46.836,22.603,64.754,39.417c1.938,1.819,4.405,2.719,6.868,2.719c2.676,0,5.347-1.064,7.323-3.169
	c3.794-4.043,3.592-10.396-0.451-14.19C465.358,302.573,438.599,287.106,405.981,276.264z M184.839,482.45
	c-4.029-15.674-8.387-47.038-8.901-93.177c4.274,0.617,8.603,0.931,12.96,0.931c1.607,0,3.218-0.055,4.828-0.142
	C193.173,435.764,188.843,466.862,184.839,482.45z M262.088,340.956c-1.886-2.618-4.917-4.17-8.145-4.17
	c-3.228,0-6.258,1.552-8.145,4.17c-10.59,14.699-26.155,24.624-43.826,27.947c-0.133,0.025-0.264,0.053-0.394,0.082
	c-4.184,0.757-8.448,1.14-12.679,1.14c-3.527,0-7.026-0.265-10.48-0.784c4.101-1.023,8.276-1.985,12.538-2.868
	c5.429-1.125,8.918-6.439,7.792-11.867c-1.125-5.429-6.437-8.918-11.868-7.793c-13.595,2.818-26.507,6.329-38.458,10.451
	c-7.624-5.392-14.035-12.17-18.943-20.019c12.031-4.31,25.046-7.936,38.857-10.797c5.429-1.124,8.919-6.438,7.793-11.866
	c-1.124-5.43-6.44-8.921-11.867-7.794c-15.232,3.156-29.6,7.206-42.888,12.046c-1.69-6.079-2.561-12.364-2.561-18.79
	c0-2.306,0.121-4.608,0.344-6.893c8.417-2.552,17.319-4.812,26.562-6.729c5.429-1.126,8.917-6.44,7.791-11.869
	c-1.126-5.428-6.442-8.912-11.868-7.791c-5.561,1.153-11.007,2.43-16.323,3.809c4.061-8.725,9.913-16.624,17.207-23.067
	c3.924-3.467,4.526-9.367,1.38-13.554c-18.315-24.383-27.995-53.442-27.995-84.032C115.913,75.896,176.137,20.078,256,20.078
	s140.087,55.818,140.087,129.837c0,31.523-10.228,61.294-29.58,86.095c-3.168,4.061-2.75,9.86,0.969,13.423
	c6.071,5.818,10.97,12.566,14.567,19.962c-3.833-0.936-7.732-1.815-11.683-2.635c-5.417-1.125-10.743,2.359-11.87,7.788
	c-1.127,5.428,2.36,10.743,7.788,11.87c7.703,1.599,15.178,3.437,22.311,5.476c0.314,2.703,0.491,5.425,0.491,8.146
	c0,5.954-0.744,11.791-2.2,17.452c-12.212-4.247-25.323-7.844-39.142-10.708c-5.435-1.123-10.742,2.364-11.867,7.793
	c-1.125,5.429,2.363,10.742,7.793,11.867c12.53,2.596,24.413,5.819,35.475,9.604c-4.706,7.877-10.921,14.736-18.367,20.26
	c-11.148-3.71-23.113-6.9-35.65-9.499c-5.435-1.118-10.743,2.363-11.868,7.792c-1.125,5.429,2.363,10.743,7.792,11.868
	c3.681,0.763,7.302,1.584,10.864,2.452c-4.238,0.79-8.551,1.201-12.912,1.201c-3.161,0-6.347-0.216-9.483-0.643
	C290.6,366.936,273.314,356.539,262.088,340.956z M318.275,390.191c0.24,0.002,0.481,0.012,0.721,0.012
	c5.767,0,11.471-0.562,17.072-1.637c-0.477,46.523-4.858,78.129-8.906,93.884C323.161,466.877,318.837,435.821,318.275,390.191z"/>
<path d="M346.152,132.869c-5.544,0-10.039,4.496-10.039,10.039c0,7.766-6.319,14.085-14.085,14.085
	c-7.765,0-14.084-6.319-14.084-14.085c0-5.544-4.496-10.039-10.039-10.039c-5.544,0-10.039,4.496-10.039,10.039
	c0,18.839,15.326,34.163,34.162,34.163c18.839,0,34.163-15.326,34.163-34.163C356.191,137.364,351.696,132.869,346.152,132.869z"/>
<path d="M224.136,142.908c0-5.544-4.495-10.039-10.039-10.039s-10.039,4.496-10.039,10.039c0,7.766-6.319,14.085-14.085,14.085
	c-7.772,0-14.095-6.319-14.095-14.085c0-5.544-4.495-10.039-10.039-10.039c-5.545,0-10.039,4.496-10.039,10.039
	c0,18.839,15.331,34.163,34.173,34.163C208.81,177.072,224.136,161.746,224.136,142.908z"/>
<path d="M344.345,96.711c12.919,0,12.941-20.078,0-20.078C331.426,76.632,331.405,96.711,344.345,96.711z"/>
<g>
</g>
<g>
</g>
<g>
</g>
<g>
</g>
<g>
</g>
<g>
</g>
<g>
</g>
<g>
</g>
<g>
</g>
<g>
</g>
<g>
</g>
<g>
</g>
<g>
</g>
<g>
</g>
<g>
</g>
</svg>
