<?xml version="1.0" encoding="iso-8859-1"?>
<!-- Generator: Adobe Illustrator 19.0.0, SVG Export Plug-In . SVG Version: 6.00 Build 0)  -->
<svg version="1.1" id="Capa_1" xmlns="http://www.w3.org/2000/svg" xmlns:xlink="http://www.w3.org/1999/xlink" x="0px" y="0px"
	 viewBox="0 0 512 512" style="enable-background:new 0 0 512 512;" xml:space="preserve">
<path style="fill:#DBD9DC;" d="M502.721,123.752c0,0,15.462,120.924-102.45,96.181l-24.045-32.061L502.721,123.752z"/>
<path style="fill:#C9C6CA;" d="M400.303,219.94c34.337-40.213,80.483-70.994,103.069-84.741
	C503.749,164.731,495.611,239.921,400.303,219.94z"/>
<path style="fill:#DBD9DC;" d="M9.279,123.752c0,0-15.462,120.924,102.45,96.181l24.045-32.061L9.279,123.752z"/>
<path style="fill:#C9C6CA;" d="M111.696,219.94C77.36,179.727,31.213,148.946,8.628,135.199
	C8.251,164.731,16.389,239.921,111.696,219.94z"/>
<path style="fill:#F5DCB4;" d="M432.331,19.557c0,0,40.076,80.151-48.091,136.256l-32.061-48.091
	C417.696,89.381,432.331,19.557,432.331,19.557z"/>
<g>
	<path style="fill:#FAEBC8;" d="M384.242,155.813l-12.521-18.782c69.06-43.116,60.612-117.475,60.612-117.475
		S472.407,99.708,384.242,155.813z"/>
	<path style="fill:#FAEBC8;" d="M79.668,19.557c0,0-40.076,80.151,48.091,136.256l32.061-48.091
		C94.304,89.381,79.668,19.557,79.668,19.557z"/>
</g>
<path style="fill:#F5DCB4;" d="M127.759,155.813l12.521-18.782C71.221,93.915,79.668,19.557,79.668,19.557
	S39.593,99.708,127.759,155.813z"/>
<path style="fill:#EDEBED;" d="M256,51.617c-92.717,0-163.618,82.643-149.519,174.281l20.245,131.597
	c5.756,37.417,27.017,69.09,56.638,88.888l145.456-0.124c29.524-19.805,50.708-51.424,56.453-88.763l20.245-131.597
	C419.617,134.26,348.716,51.617,256,51.617z"/>
<path style="fill:#DBD9DC;" d="M185.351,367.775l-19.774-144.065c-9.93-72.341,23.318-139.547,76.587-171.416
	c-85.798,7.738-149.07,86.589-135.683,173.605l20.245,131.597c5.756,37.417,27.017,69.09,56.638,88.888l37.132-0.032
	C202.252,425.553,189.559,398.428,185.351,367.775z"/>
<path style="fill:#FF96A0;" d="M288.843,492.446h-65.686c-24.764,0-43.601-22.236-39.53-46.664l1.556-9.333
	c3.865-23.189,23.928-40.185,47.436-40.185h46.764c23.509,0,43.571,16.996,47.436,40.185l1.556,9.333
	C332.444,470.21,313.608,492.446,288.843,492.446z"/>
<path style="fill:#FF8087;" d="M232.51,454.035l1.555-10.889c3.792-26.536,23.175-46.071,46.099-46.811
	c-0.266-0.004-0.516-0.07-0.782-0.07h-46.764c-23.509,0-43.571,16.996-47.436,40.185l-1.556,9.333
	c-4.071,24.428,14.766,46.664,39.53,46.664h18.712C234.316,482.35,230.439,468.533,232.51,454.035z"/>
<path style="fill:#4B3F4E;" d="M167.834,260.009L167.834,260.009c-13.28,0-24.045-10.766-24.045-24.045v-8.015
	c0-13.28,10.766-24.045,24.045-24.045l0,0c13.28,0,24.045,10.766,24.045,24.045v8.015
	C191.88,249.244,181.114,260.009,167.834,260.009z"/>
<path style="fill:#5D5360;" d="M167.834,203.904v28.052c0,6.64,5.382,12.022,12.022,12.022s12.022-5.382,12.022-12.022v-4.007
	C191.88,214.669,181.114,203.904,167.834,203.904z"/>
<circle style="fill:#FFFFFF;" cx="167.838" cy="219.933" r="8.019"/>
<path style="fill:#4B3F4E;" d="M344.166,260.009L344.166,260.009c-13.28,0-24.045-10.766-24.045-24.045v-8.015
	c0-13.28,10.766-24.045,24.045-24.045l0,0c13.28,0,24.045,10.766,24.045,24.045v8.015
	C368.211,249.244,357.446,260.009,344.166,260.009z"/>
<path style="fill:#5D5360;" d="M344.166,203.904v28.052c0,6.64,5.382,12.022,12.022,12.022c6.64,0,12.022-5.382,12.022-12.022
	v-4.007C368.211,214.669,357.446,203.904,344.166,203.904z"/>
<circle style="fill:#FFFFFF;" cx="344.165" cy="219.933" r="8.019"/>
<path style="fill:#DBD9DC;" d="M377.232,112.474C349.843,75.8,306.128,51.617,256,51.617c-58.751,0-108.707,33.205-133.862,80.834
	c24.711,1.266,87.801,2.31,125.848-16.714l-8.015,32.061c0,0,56.106-8.015,88.165-32.061c0,0,6.011,15.028,8.015,33.564
	C336.151,149.301,364.203,140.784,377.232,112.474z"/>
<path style="fill:#C9C6CA;" d="M242.128,52.317c-52.674,4.768-96.844,36.308-119.99,80.135c11.701,0.599,32.033,1.121,54.21-0.486
	C189.674,98.094,212.844,69.848,242.128,52.317z"/>
<path d="M510.099,122.416c-0.421-2.324-1.912-4.312-4.022-5.369c-2.112-1.057-4.598-1.057-6.71-0.001l-89.936,44.969
	c-1.325-4.974-2.882-9.887-4.686-14.712c41.392-26.45,48.813-60.311,47.601-84.374c-1.331-26.442-13.075-46.382-13.575-47.218
	c-1.718-2.877-5.135-4.251-8.375-3.388c-3.237,0.866-5.507,3.786-5.561,7.136c-0.003,0.141-0.315,14.299-8.027,30.208
	c-9.602,19.808-25.976,33.515-48.689,40.807c-29.657-29.596-69.865-46.357-112.118-46.357s-82.461,16.761-112.118,46.357
	c-22.712-7.292-39.087-20.998-48.689-40.807C87.48,33.758,87.168,19.6,87.166,19.481c-0.033-3.36-2.298-6.287-5.54-7.165
	c-3.242-0.875-6.674,0.51-8.396,3.394c-0.5,0.836-12.244,20.776-13.575,47.218c-1.211,24.063,6.209,57.924,47.601,84.374
	c-1.805,4.825-3.362,9.738-4.686,14.712l-89.936-44.969c-2.113-1.057-4.597-1.057-6.71,0.001c-2.111,1.057-3.603,3.046-4.022,5.369
	c-0.455,2.511-10.767,61.857,21.834,93.569c12.886,12.534,30.377,18.826,52.22,18.825c7.478,0,15.479-0.752,23.967-2.229
	l19.393,126.055c5.661,36.794,26.105,69.907,56.328,91.514c-0.567,11.954,3.38,23.723,11.214,32.972
	c9.058,10.692,22.288,16.824,36.301,16.824h65.686c14.013,0,27.243-6.132,36.301-16.824c7.834-9.248,11.779-21.016,11.215-32.97
	c30.22-21.605,50.667-54.733,56.328-91.516l19.392-126.055c8.489,1.478,16.487,2.229,23.967,2.229
	c21.84,0,39.336-6.291,52.22-18.825C520.866,184.273,510.555,124.927,510.099,122.416z M430.613,55.564
	c1.595-3.354,2.913-6.63,4.003-9.756c1.358,5.336,2.423,11.387,2.75,17.874c1.421,28.245-11.574,51.649-38.64,69.648
	c-5.316-10.898-11.9-21.245-19.706-30.809C408.328,91.166,423.196,71.164,430.613,55.564z M77.316,45.613
	c1.104,3.186,2.444,6.528,4.071,9.952c7.417,15.6,22.284,35.601,51.594,46.956c-7.805,9.563-14.389,19.908-19.704,30.804
	C71.059,105.185,71.364,68.677,77.316,45.613z M34.225,205.266c-19.739-19.165-20.016-53.112-18.729-70.021l83.822,41.912
	c-2.181,13.295-2.68,26.915-1.397,40.554C69.391,222.79,47.975,218.615,34.225,205.266z M313.701,473.427
	c-6.202,7.321-15.262,11.519-24.857,11.519h-65.686c-9.596,0-18.655-4.199-24.857-11.519c-6.201-7.321-8.853-16.948-7.275-26.412
	l1.556-9.333c3.275-19.653,20.113-33.919,40.039-33.919h46.764c19.925,0,36.764,14.265,40.039,33.919l1.557,9.333
	C322.554,456.48,319.902,466.107,313.701,473.427z M398.108,224.757l-20.245,131.598c-4.648,30.214-20.493,57.657-44.027,76.855
	c-5.273-25.872-27.85-44.443-54.453-44.443h-46.764c-26.602,0-49.18,18.572-54.453,44.443
	c-23.537-19.198-39.378-46.633-44.027-76.855l-20.245-131.597c-4.54-29.508,0.231-59.304,13.186-85.521
	c1.891,0.203,19.584,2.003,43.07,1.025c25.924-1.081,48.347-5.015,66.905-11.725l-4.36,17.443c-0.605,2.422,0.034,4.987,1.707,6.841
	c1.433,1.589,3.462,2.477,5.567,2.477c0.353,0,0.707-0.025,1.062-0.075c2.369-0.338,58.389-8.574,91.605-33.485
	c3.313-2.485,3.984-7.185,1.5-10.499c-2.484-3.313-7.185-3.984-10.499-1.5c-21.762,16.322-56.032,25.011-73.573,28.605l5.196-20.788
	c0.71-2.841-0.299-5.835-2.583-7.668c-2.285-1.832-5.427-2.167-8.047-0.857c-37.248,18.625-90.805,17.05-109.392,15.824
	c3.501-5.412,7.384-10.62,11.637-15.578c27.348-31.877,67.122-50.16,109.124-50.16s81.775,18.283,109.124,50.16
	S404.494,183.245,398.108,224.757z M477.774,205.266c-13.75,13.349-35.167,17.524-63.697,12.445
	c1.282-13.638,0.784-27.258-1.397-40.554l83.822-41.911C497.791,152.157,497.515,186.101,477.774,205.266z"/>
<path d="M191.88,220.45c-4.142,0-7.499,3.358-7.499,7.499v8.015c0,9.124-7.423,16.547-16.547,16.547s-16.546-7.423-16.546-16.547
	v-8.015c0-9.124,7.422-16.546,16.546-16.546c4.142,0,7.499-3.358,7.499-7.499c0-4.141-3.357-7.499-7.499-7.499
	c-17.394,0-31.544,14.15-31.544,31.544v8.015c0,17.394,14.15,31.545,31.544,31.545s31.545-14.151,31.545-31.545v-8.015
	C199.379,223.807,196.021,220.45,191.88,220.45z"/>
<path d="M360.712,227.949v8.015c0,9.124-7.422,16.547-16.546,16.547s-16.547-7.423-16.547-16.547v-8.015
	c0-9.124,7.423-16.546,16.547-16.546c4.142,0,7.499-3.358,7.499-7.499c0-4.141-3.357-7.499-7.499-7.499
	c-17.394,0-31.545,14.15-31.545,31.544v8.015c0,17.394,14.15,31.545,31.545,31.545c17.394,0,31.544-14.151,31.544-31.545v-8.015
	c0-4.141-3.357-7.499-7.499-7.499S360.712,223.807,360.712,227.949z"/>
<path d="M226.941,422.594c-3.162-2.674-7.894-2.279-10.568,0.884c-5.199,6.148-7.948,13.368-7.948,20.877
	c0,4.141,3.357,7.499,7.499,7.499c4.142,0,7.499-3.358,7.499-7.499c0-3.973,1.481-7.739,4.401-11.194
	C230.5,430,230.104,425.268,226.941,422.594z"/>
<path d="M285.059,422.594c-3.163,2.675-3.559,7.406-0.884,10.569c2.921,3.455,4.401,7.22,4.401,11.194
	c0,4.141,3.357,7.499,7.499,7.499c4.142,0,7.499-3.358,7.499-7.499c0-7.51-2.749-14.729-7.948-20.877
	C292.955,420.317,288.222,419.92,285.059,422.594z"/>
<path d="M336.151,163.312c1.919,0,3.839-0.732,5.303-2.197c6.099-6.099,11.772-12.864,16.864-20.108
	c2.382-3.389,1.565-8.066-1.823-10.448c-3.388-2.382-8.064-1.566-10.447,1.823c-4.596,6.539-9.711,12.638-15.2,18.128
	c-2.929,2.929-2.929,7.677,0,10.605C332.312,162.579,334.232,163.312,336.151,163.312z"/>
<g>
</g>
<g>
</g>
<g>
</g>
<g>
</g>
<g>
</g>
<g>
</g>
<g>
</g>
<g>
</g>
<g>
</g>
<g>
</g>
<g>
</g>
<g>
</g>
<g>
</g>
<g>
</g>
<g>
</g>
</svg>
