<?xml version="1.0" encoding="UTF-8" standalone="no"?>
<!-- Generator: Adobe Illustrator 19.0.0, SVG Export Plug-In . SVG Version: 6.00 Build 0)  -->

<svg
   xmlns:dc="http://purl.org/dc/elements/1.1/"
   xmlns:cc="http://creativecommons.org/ns#"
   xmlns:rdf="http://www.w3.org/1999/02/22-rdf-syntax-ns#"
   xmlns:svg="http://www.w3.org/2000/svg"
   xmlns="http://www.w3.org/2000/svg"
   xmlns:sodipodi="http://sodipodi.sourceforge.net/DTD/sodipodi-0.dtd"
   xmlns:inkscape="http://www.inkscape.org/namespaces/inkscape"
   version="1.1"
   id="Layer_1"
   x="0px"
   y="0px"
   viewBox="0 0 512 512"
   style="enable-background:new 0 0 512 512;"
   xml:space="preserve"
   inkscape:version="0.91 r13725"
   sodipodi:docname="looking_pressed.svg"><metadata
     id="metadata8253"><rdf:RDF><cc:Work
         rdf:about=""><dc:format>image/svg+xml</dc:format><dc:type
           rdf:resource="http://purl.org/dc/dcmitype/StillImage" /><dc:title></dc:title></cc:Work></rdf:RDF></metadata><defs
     id="defs8251" /><sodipodi:namedview
     pagecolor="#ffffff"
     bordercolor="#666666"
     borderopacity="1"
     objecttolerance="10"
     gridtolerance="10"
     guidetolerance="10"
     inkscape:pageopacity="0"
     inkscape:pageshadow="2"
     inkscape:window-width="1920"
     inkscape:window-height="1017"
     id="namedview8249"
     showgrid="false"
     inkscape:zoom="0.16296602"
     inkscape:cx="-188.46898"
     inkscape:cy="151.16223"
     inkscape:window-x="1912"
     inkscape:window-y="-8"
     inkscape:window-maximized="1"
     inkscape:current-layer="Layer_1" /><circle
     style="opacity:1;fill:#fff700;fill-opacity:1;fill-rule:nonzero;stroke:none;stroke-width:20;stroke-linejoin:round;stroke-miterlimit:4;stroke-dasharray:none;stroke-opacity:1"
     id="path12727"
     cx="254.52542"
     cy="257.47458"
     r="235" /><path
     style="fill:#FF4F19;"
     d="M256,0C114.512,0,0,114.497,0,256c0,141.488,114.497,256,256,256c141.488,0,256-114.497,256-256  C512,114.512,397.503,0,256,0z M238.933,477.217c-108.761-8.313-195.838-95.389-204.15-204.15h85.749  c7.724,61.668,56.735,110.677,118.402,118.402V477.217z M238.933,356.97c-42.816-7.214-76.69-41.087-83.903-83.903h83.903V356.97z   M238.933,238.933H155.03c7.214-42.816,41.087-76.69,83.903-83.903V238.933z M238.933,120.532  c-61.666,7.724-110.677,56.735-118.402,118.402H34.783c8.313-108.761,95.389-195.838,204.15-204.15V120.532z M273.067,34.783  c108.761,8.313,195.838,95.389,204.15,204.15h-85.749c-7.724-61.666-56.735-110.677-118.402-118.402V34.783z M273.067,155.03  c42.816,7.214,76.69,41.087,83.903,83.903h-83.903V155.03z M273.067,273.067h83.903c-7.215,42.816-41.089,76.69-83.903,83.903  L273.067,273.067L273.067,273.067z M273.067,477.217v-85.749c61.666-7.724,110.677-56.734,118.402-118.402h85.749  C468.904,381.828,381.828,468.904,273.067,477.217z"
     id="path8215" /><path
     style="fill:#FC0023;"
     d="M256,0v512c141.488,0,256-114.497,256-256C512,114.512,397.503,0,256,0z M273.067,34.783  c108.761,8.313,195.838,95.389,204.15,204.15h-85.749c-7.724-61.666-56.735-110.677-118.402-118.402V34.783z M273.067,155.03  c42.816,7.214,76.69,41.087,83.903,83.903h-83.903V155.03z M273.067,273.067h83.903c-7.215,42.816-41.089,76.69-83.903,83.903  L273.067,273.067L273.067,273.067z M273.067,477.217v-85.749c61.666-7.724,110.677-56.735,118.402-118.402h85.749  C468.904,381.828,381.828,468.904,273.067,477.217z"
     id="path8217" /><g
     id="g8219" /><g
     id="g8221" /><g
     id="g8223" /><g
     id="g8225" /><g
     id="g8227" /><g
     id="g8229" /><g
     id="g8231" /><g
     id="g8233" /><g
     id="g8235" /><g
     id="g8237" /><g
     id="g8239" /><g
     id="g8241" /><g
     id="g8243" /><g
     id="g8245" /><g
     id="g8247" /></svg>